<svg width="240" height="240" viewBox="0 0 240 240" fill="none" xmlns="http://www.w3.org/2000/svg">
<g clip-path="url(#clip0_8148_2925)">
<path d="M120 240C186.274 240 240 186.274 240 120C240 53.7258 186.274 0 120 0C53.7258 0 0 53.7258 0 120C0 186.274 53.7258 240 120 240Z" fill="#F0F0F0"/>
<path d="M203.972 34.2862C182.329 13.08 152.695 0 120.001 0C109.566 0 79.0352 13.08 57.3926 34.2862H203.972Z" fill="#6DA544"/>
<path d="M120 102.858H238.776C237.044 90.7521 233.509 79.2302 228.446 68.5718H114.783L120 102.858Z" fill="#6DA544"/>
<path d="M11.5554 171.429H228.445C233.509 160.771 237.044 149.248 238.776 137.143H1.22461C2.95664 149.249 6.49148 160.771 11.5554 171.429Z" fill="#6DA544"/>
<path d="M36.0293 205.714C57.6729 226.92 87.3063 240 120 240C152.694 240 182.328 226.92 203.971 205.714H36.0293Z" fill="#6DA544"/>
<path d="M120 0C59.5474 0 9.54398 44.7052 1.22461 102.857H120V0Z" fill="#D80027"/>
<path d="M59.9984 92.0001L54.7812 81.5658V60.6961L67.8247 50.2612L80.8681 60.6961V76.3481L86.0853 71.1309V81.5658L75.6505 92.0001H59.9984Z" fill="#F0F0F0"/>
<path d="M31.9373 60L33.3188 64.2516H37.7887L34.1723 66.8798L35.5542 71.1309L31.9373 68.5031L28.3205 71.1309L29.7023 66.8798L26.0859 64.2516H30.5559L31.9373 60Z" fill="#F0F0F0"/>
<path d="M42.3729 49.5649L43.7543 53.8165H48.2248L44.6079 56.4448L45.9893 60.6959L42.3729 58.0685L38.7565 60.6959L40.1384 56.4448L36.5215 53.8165H40.991L42.3729 49.5649Z" fill="#F0F0F0"/>
<path d="M52.8065 39.1304L54.1879 43.3819H58.6574L55.0415 46.0102L56.4224 50.2613L52.8065 47.634L49.1896 50.2613L50.571 46.0102L46.9551 43.3819H51.4246L52.8065 39.1304Z" fill="#F0F0F0"/>
<path d="M103.712 60L102.331 64.2516H97.8613L101.477 66.8798L100.096 71.1309L103.712 68.5031L107.329 71.1309L105.948 66.8798L109.564 64.2516H105.094L103.712 60Z" fill="#F0F0F0"/>
<path d="M93.2787 49.5649L91.8973 53.8165H87.4277L91.0437 56.4448L89.6623 60.6959L93.2787 58.0685L96.8955 60.6959L95.5137 56.4448L99.1301 53.8165H94.6605L93.2787 49.5649Z" fill="#F0F0F0"/>
<path d="M82.8436 39.1304L81.4617 43.3819H76.9922L80.6081 46.0102L79.2267 50.2613L82.8436 47.634L86.46 50.2613L85.0786 46.0102L88.6945 43.3819H84.225L82.8436 39.1304Z" fill="#F0F0F0"/>
<path d="M67.826 33.9131L66.4441 38.1646H61.9746L65.5905 40.7925L64.2091 45.0436L67.826 42.4162L71.4424 45.0436L70.061 40.7925L73.677 38.1646H69.2074L67.826 33.9131Z" fill="#F0F0F0"/>
</g>
<defs>
<clipPath id="clip0_8148_2925">
<rect width="240" height="240" fill="white"/>
</clipPath>
</defs>
</svg>
