<svg width="240" height="240" viewBox="0 0 240 240" fill="none" xmlns="http://www.w3.org/2000/svg">
<g clip-path="url(#clip0_8148_2942)">
<path d="M172.173 11.9072C156.397 4.27875 138.698 0 119.999 0C101.301 0 83.6017 4.27875 67.8255 11.9072L57.3906 120L67.8255 228.093C83.6017 235.721 101.301 240 119.999 240C138.698 240 156.397 235.721 172.173 228.093L182.608 120L172.173 11.9072Z" fill="#D80027"/>
<path d="M67.8262 11.9116C27.6872 31.3212 0 72.4254 0 120C0 167.575 27.6872 208.679 67.8262 228.089V11.9116Z" fill="black"/>
<path d="M172.174 11.9116V228.089C212.313 208.679 240 167.575 240 120C240 72.4254 212.313 31.3212 172.174 11.9116Z" fill="#496E2D"/>
<path d="M120.001 78.2612C96.9484 78.2612 78.2617 96.9484 78.2617 120C78.2617 143.052 96.9489 161.739 120.001 161.739C143.052 161.739 161.74 143.052 161.74 120C161.74 96.9484 143.053 78.2612 120.001 78.2612ZM120.001 146.087C105.593 146.087 93.9138 134.407 93.9138 120C93.9138 105.593 105.594 93.9133 120.001 93.9133C134.408 93.9133 146.088 105.593 146.088 120C146.088 134.407 134.408 146.087 120.001 146.087Z" fill="#FFDA44"/>
<path d="M120.001 104.348C114.238 104.348 109.566 109.02 109.566 114.783V130.435H130.436V114.783C130.436 109.02 125.765 104.348 120.001 104.348Z" fill="#FFDA44"/>
</g>
<defs>
<clipPath id="clip0_8148_2942">
<rect width="240" height="240" fill="white"/>
</clipPath>
</defs>
</svg>
