<svg width="240" height="240" viewBox="0 0 240 240" fill="none" xmlns="http://www.w3.org/2000/svg">
<g clip-path="url(#clip0_8148_2949)">
<path d="M235.866 151.305C238.556 141.323 240 130.831 240 120C240 109.169 238.556 98.677 235.866 88.6954L109.565 0.456543C86.1178 2.47686 64.6008 11.2378 46.9566 24.7945L4.13391 88.6954C1.44375 98.677 0 109.169 0 120C0 130.768 1.42641 141.202 4.08656 151.131L46.9561 215.205C64.6003 228.762 86.1173 237.524 109.565 239.543L235.866 151.305Z" fill="#FFDA44"/>
<path d="M4.13477 151.305C11.0779 177.067 26.3802 199.395 46.9574 215.206V151.305H4.13477Z" fill="#0052B4"/>
<path d="M109.566 239.544C113.006 239.84 116.485 240 120.001 240C175.445 240 222.097 202.397 235.867 151.305H109.566V239.544Z" fill="#0052B4"/>
<path d="M235.867 88.6955C222.097 37.6036 175.445 0 120.001 0C116.485 0 113.006 0.160312 109.566 0.456562V88.6955H235.867Z" fill="#0052B4"/>
<path d="M46.9574 24.7944C26.3802 40.6054 11.0779 62.9333 4.13477 88.6954H46.9574V24.7944Z" fill="#0052B4"/>
<path d="M238.984 104.348H93.9136H93.9131V2.85254C82.8234 5.3116 72.3098 9.29738 62.6086 14.591V104.348H1.01578C0.347813 109.472 0 114.695 0 120C0 125.305 0.347813 130.529 1.01578 135.652H62.6081H62.6086V225.409C72.3098 230.702 82.8234 234.689 93.9131 237.147V135.654V135.653H238.984C239.651 130.529 240 125.305 240 120C240 114.695 239.651 109.472 238.984 104.348Z" fill="#D80027"/>
</g>
<defs>
<clipPath id="clip0_8148_2949">
<rect width="240" height="240" fill="white"/>
</clipPath>
</defs>
</svg>
