<svg width="240" height="240" viewBox="0 0 240 240" fill="none" xmlns="http://www.w3.org/2000/svg">
<g clip-path="url(#clip0_8148_2957)">
<path d="M120 240C186.274 240 240 186.274 240 120C240 53.7258 186.274 0 120 0C53.7258 0 0 53.7258 0 120C0 186.274 53.7258 240 120 240Z" fill="#D80027"/>
<path d="M187.826 89.0665H144.361C147.044 86.2569 148.695 82.453 148.695 78.2609C148.695 69.6167 141.687 62.6089 133.043 62.6089C127.597 62.6089 122.803 65.3914 120 69.6106C117.196 65.3914 112.402 62.6089 106.956 62.6089C98.312 62.6089 91.3041 69.6167 91.3041 78.2609C91.3041 82.453 92.9555 86.2573 95.6387 89.0665H52.1738C52.1738 100.593 62.213 109.936 73.7382 109.936H73.0426C73.0426 121.462 82.3862 130.806 93.9127 130.806C93.9127 134.539 94.8966 138.039 96.6141 141.069L79.3032 158.38L92.5848 171.661L111.425 152.821C112.163 153.092 112.926 153.309 113.715 153.456L102.33 179.16L120 198.261L137.669 179.159L126.285 153.455C127.074 153.308 127.837 153.091 128.574 152.82L147.414 171.66L160.696 158.379L143.385 141.067C145.103 138.038 146.086 134.538 146.086 130.805C157.613 130.805 166.956 121.461 166.956 109.934H166.261C177.786 109.935 187.826 100.593 187.826 89.0665Z" fill="black"/>
</g>
<defs>
<clipPath id="clip0_8148_2957">
<rect width="240" height="240" fill="white"/>
</clipPath>
</defs>
</svg>
