<svg width="240" height="240" viewBox="0 0 240 240" fill="none" xmlns="http://www.w3.org/2000/svg">
<g clip-path="url(#clip0_8148_2960)">
<path d="M120 0C186.273 0 240 53.7262 240 120C240 186.274 186.273 240 120 240C120 234.783 104.348 120 104.348 120L120 0Z" fill="#F0F0F0"/>
<path d="M120 240C53.7262 240 0 186.274 0 120C0 53.7262 53.7262 0 120 0" fill="#496E2D"/>
<path d="M145.781 96.9824L135.936 110.55L119.99 105.379L129.852 118.935L120.007 132.503L135.946 127.314L145.808 140.87L145.798 124.107L161.738 118.917L145.793 113.746L145.781 96.9824Z" fill="#D80027"/>
<path d="M129.954 153.913C111.225 153.913 96.0411 138.729 96.0411 120C96.0411 101.271 111.225 86.087 129.954 86.087C135.794 86.087 141.289 87.5636 146.086 90.1632C138.56 82.8034 128.268 78.2607 116.911 78.2607C93.8586 78.2607 75.1719 96.9479 75.1719 120C75.1719 143.051 93.8591 161.739 116.911 161.739C128.269 161.739 138.56 157.196 146.086 149.836C141.289 152.437 135.794 153.913 129.954 153.913Z" fill="#D80027"/>
</g>
<defs>
<clipPath id="clip0_8148_2960">
<rect width="240" height="240" fill="white"/>
</clipPath>
</defs>
</svg>
