<svg width="240" height="240" viewBox="0 0 240 240" fill="none" xmlns="http://www.w3.org/2000/svg">
<g clip-path="url(#clip0_8148_2966)">
<path d="M120 240C186.274 240 240 186.274 240 120C240 53.7258 186.274 0 120 0C53.7258 0 0 53.7258 0 120C0 186.274 53.7258 240 120 240Z" fill="#F0F0F0"/>
<path d="M178.217 15.0525C160.974 5.4675 141.127 0 120 0C53.7309 0 0.0084375 53.7178 0 119.986L83.4783 78.2611L178.217 15.0525Z" fill="#0052B4"/>
<path d="M0 120.014C0.0084375 186.282 53.7309 240 120 240C141.127 240 160.974 234.534 178.217 224.948L83.4783 161.739L0 120.014Z" fill="#0052B4"/>
<path d="M188.217 21.2726C184.994 19.0419 181.654 16.9672 178.213 15.0542L0 119.986V120C0 120 0 120.01 0 120.014L178.213 224.945C181.655 223.032 184.994 220.957 188.218 218.727L20.5416 120L188.217 21.2726Z" fill="#D80027"/>
<path d="M208.696 115.525H194.402C198.119 111.063 197.889 104.424 193.702 100.237C198.137 95.8024 198.137 88.6113 193.702 84.1755L193.435 84.4436C197.87 80.0088 198.137 72.5496 193.702 68.1147L129.457 132.36C133.892 136.796 140.957 136.743 145.392 132.307L146.629 131.177L177.392 128.381V141.611H187.827V127.432L203.479 126.009L208.696 115.525Z" fill="#A2001D"/>
<path d="M130.439 146.087L120 140.87L130.439 135.652H198.264V146.087H130.439Z" fill="#FFDA44"/>
</g>
<defs>
<clipPath id="clip0_8148_2966">
<rect width="240" height="240" fill="white"/>
</clipPath>
</defs>
</svg>
