<svg width="240" height="240" viewBox="0 0 240 240" fill="none" xmlns="http://www.w3.org/2000/svg">
<g clip-path="url(#clip0_8148_2974)">
<path d="M67.8255 228.093C83.6017 235.721 101.3 240 119.999 240C138.698 240 156.397 235.721 172.173 228.093L182.608 120L172.173 11.9072C156.397 4.27875 138.698 0 119.999 0C101.3 0 83.6017 4.27875 67.8255 11.9072L57.3906 120L67.8255 228.093Z" fill="#FFDA44"/>
<path d="M172.174 228.089C212.313 208.68 240 167.575 240 120C240 72.4254 212.313 31.3207 172.174 11.9116V228.089Z" fill="#D80027"/>
<path d="M67.8262 228.089V11.9116C27.6867 31.3207 0 72.4249 0 120C0 167.576 27.6867 208.68 67.8262 228.089Z" fill="#0052B4"/>
<path d="M120 161.739C120 142.59 120 120 120 120H151.305V135.652C151.305 138.371 146.087 148.335 133.209 156.522C128.332 159.623 123.283 160.62 120 161.739Z" fill="#D80027"/>
<path d="M88.6953 88.6953H120V120H88.6953V88.6953Z" fill="#D80027"/>
<path d="M135.653 78.261C135.653 72.4977 130.981 67.8262 125.218 67.8262C123.315 67.8262 121.536 68.3437 120.001 69.2334C118.465 68.3437 116.687 67.8262 114.783 67.8262C109.021 67.8262 104.349 72.4977 104.349 78.261H78.2617V130.434C78.2617 149.857 93.6864 161.09 105.782 166.913C104.877 168.459 104.349 170.253 104.349 172.174C104.349 177.937 109.021 182.609 114.783 182.609C116.687 182.609 118.465 182.091 120.001 181.202C121.537 182.091 123.315 182.609 125.218 182.609C130.981 182.609 135.653 177.937 135.653 172.174C135.653 170.253 135.124 168.459 134.218 166.913C146.314 161.09 161.74 149.858 161.74 130.434V78.261H135.653ZM146.088 130.434C146.088 133.154 146.087 141.427 133.21 149.615C128.332 152.716 123.284 154.727 120.001 155.845C116.717 154.727 111.669 152.716 106.791 149.615C93.9138 141.427 93.9138 133.154 93.9138 130.434V93.9131H146.088V130.434Z" fill="#FF9811"/>
</g>
<defs>
<clipPath id="clip0_8148_2974">
<rect width="240" height="240" fill="white"/>
</clipPath>
</defs>
</svg>
