<svg width="240" height="240" viewBox="0 0 240 240" fill="none" xmlns="http://www.w3.org/2000/svg">
<g clip-path="url(#clip0_8148_2982)">
<path d="M0 120C0 53.7262 53.7262 0 120 0C186.274 0 240 53.7262 240 120C234.783 120 120 135.652 120 135.652L0 120Z" fill="#D80027"/>
<path d="M240 120C240 186.274 186.274 240 120 240C53.7262 240 0 186.274 0 120" fill="black"/>
<path d="M103.547 95.4429L113.72 102.826L109.843 114.783L120.008 107.388L130.182 114.77L126.291 102.817L136.455 95.4232L123.885 95.4307L119.993 83.478L116.116 95.4349L103.547 95.4429Z" fill="#FFDA44"/>
<path d="M150 68.0386C140.544 62.579 130.205 60.0023 120 60.0201V75.6689C127.543 75.6553 135.184 77.5584 142.174 81.5943C163.351 93.8212 170.633 120.997 158.406 142.175C146.179 163.352 119.003 170.634 97.8258 158.407C91.6561 154.845 86.6756 150.008 83.0044 144.427L69.9375 153.054C74.9048 160.605 81.653 167.143 90 171.961C118.652 188.504 155.419 178.652 171.961 150C188.503 121.348 178.652 84.5807 150 68.0386Z" fill="#FFDA44"/>
<path d="M85.4015 109.565C81.2531 117.149 84.0384 126.66 91.6219 130.809L142.457 158.587C139 164.906 140.836 172.598 147.156 176.055L160.888 183.567C167.207 187.024 175.134 184.703 178.591 178.383L186.103 164.652L85.4015 109.565Z" fill="#FFDA44"/>
</g>
<defs>
<clipPath id="clip0_8148_2982">
<rect width="240" height="240" fill="white"/>
</clipPath>
</defs>
</svg>
