<svg width="240" height="240" viewBox="0 0 240 240" fill="none" xmlns="http://www.w3.org/2000/svg">
<g clip-path="url(#clip0_8148_2989)">
<path d="M240 120C240 186.274 186.274 240 120 240C53.7262 240 0 186.274 0 120C0 120.029 120 0.013125 120 0C186.274 0 240 53.7262 240 120Z" fill="#0052B4"/>
<path d="M119.68 120H120.001C120.001 119.892 120.001 119.787 120.001 119.679C119.894 119.786 119.787 119.893 119.68 120Z" fill="#F0F0F0"/>
<path d="M120 62.6086C120 41.4938 120 27.6586 120 0H119.98C53.7145 0.01125 0 53.7323 0 120H62.6086V84.7448L97.8638 120H119.679C119.786 119.893 119.893 119.786 120 119.679C120 111.594 120 104.381 120 97.8647L84.7444 62.6086H120Z" fill="#F0F0F0"/>
<path d="M60.7105 15.6519C41.9422 26.3389 26.3389 41.9417 15.6523 60.71V120H46.9569V46.9573V46.9564H120C120 37.0831 120 27.6772 120 15.6519H60.7105Z" fill="#D80027"/>
<path d="M120.001 105.243L77.3656 62.6089H62.6094V62.6098L120 120H120.001C120.001 120 120.001 109.825 120.001 105.243Z" fill="#D80027"/>
<path d="M202.94 137.566C206.391 132.818 208.696 127.021 208.696 120V67.8261C204.335 71.1017 198.917 73.0433 193.044 73.0433C184.51 73.0433 176.933 68.945 172.174 62.6094C167.414 68.945 159.838 73.0433 151.304 73.0433C145.431 73.0433 140.012 71.1012 135.652 67.827V120C135.652 127.021 137.957 132.818 141.408 137.566H202.94Z" fill="#F3F3F3"/>
<path d="M192.086 110.321C193.747 106.268 195.039 100.345 195.039 97.3966C195.039 92.6598 188.864 88.8203 188.864 88.8203C188.864 88.8203 182.688 92.6598 182.688 97.3966C182.688 100.345 183.981 106.269 185.641 110.321L182.076 118.37C184.171 119.222 186.462 119.695 188.864 119.695C191.266 119.695 193.556 119.222 195.652 118.37L192.086 110.321Z" fill="#FF9811"/>
<path d="M167.95 84.2589C163.611 84.8467 157.834 86.6912 155.282 88.165C151.18 90.5336 150.941 97.8006 150.941 97.8006C150.941 97.8006 157.355 101.229 161.456 98.8604C164.01 97.3862 168.493 93.3062 171.171 89.8412L179.926 88.9037C179.616 86.664 178.879 84.4436 177.679 82.3637C176.477 80.2839 174.924 78.5364 173.138 77.1475L167.95 84.2589Z" fill="#FF9811"/>
<path d="M157.449 118.194C160.127 121.657 164.612 125.736 167.165 127.211C171.267 129.579 177.68 126.152 177.68 126.152C177.68 126.152 177.441 118.884 173.34 116.516C170.786 115.041 165.011 113.199 160.671 112.612L155.483 105.5C153.698 106.888 152.143 108.636 150.942 110.714C149.742 112.795 149.007 115.015 148.695 117.256L157.449 118.194Z" fill="#FF9811"/>
<path d="M140.117 135.653C149.862 151.288 172.175 156.522 172.175 156.522C172.175 156.522 194.487 151.288 204.232 135.653H140.117Z" fill="#338AF3"/>
</g>
<defs>
<clipPath id="clip0_8148_2989">
<rect width="240" height="240" fill="white"/>
</clipPath>
</defs>
</svg>
