<svg width="240" height="240" viewBox="0 0 240 240" fill="none" xmlns="http://www.w3.org/2000/svg">
<g clip-path="url(#clip0_8148_3004)">
<path d="M0 120C0 128.219 0.82875 136.245 2.40328 144L120 151.304L237.597 144C239.172 136.245 240 128.219 240 120C240 111.78 239.171 103.754 237.597 95.9998L120 88.6953L2.40328 95.9998C0.82875 103.754 0 111.78 0 120H0Z" fill="#0052B4"/>
<path d="M237.596 144H2.40234C13.5206 198.773 61.9448 240 119.999 240C178.053 240 226.477 198.773 237.596 144Z" fill="#F0F0F0"/>
<path d="M2.40234 96H237.597C226.477 41.2266 178.054 0 119.999 0C61.9439 0 13.5206 41.2266 2.40234 96Z" fill="black"/>
<path d="M172.174 95.9998H67.8262L89.1449 85.9714L77.7923 65.3253L100.941 69.7527L103.876 46.3672L120 63.5675L136.125 46.3672L139.057 69.7527L162.208 65.3253L150.856 85.9723L172.174 95.9998Z" fill="#FFDA44"/>
<path d="M0 120C0 186.274 53.7262 240 120 240L23.9981 47.9956C8.93062 68.0529 0 92.9825 0 120Z" fill="#A2001D"/>
<path d="M120 240C186.274 240 240 186.274 240 120C240 92.9825 231.069 68.0529 216.002 47.9956L120 240Z" fill="#A2001D"/>
</g>
<defs>
<clipPath id="clip0_8148_3004">
<rect width="240" height="240" fill="white"/>
</clipPath>
</defs>
</svg>
