<svg width="240" height="240" viewBox="0 0 240 240" fill="none" xmlns="http://www.w3.org/2000/svg">
<g clip-path="url(#clip0_8148_3012)">
<path d="M120 240C186.274 240 240 186.274 240 120C240 53.7258 186.274 0 120 0C53.7258 0 0 53.7258 0 120C0 186.274 53.7258 240 120 240Z" fill="#F0F0F0"/>
<path d="M119.999 0C72.4237 0 31.3162 27.6867 11.9062 67.8262H228.091C208.682 27.6867 167.574 0 119.999 0Z" fill="#338AF3"/>
<path d="M119.999 240C167.574 240 208.682 212.313 228.092 172.174H11.9062C31.3162 212.313 72.4237 240 119.999 240Z" fill="#338AF3"/>
<path d="M155.866 120L141.21 126.894L149.014 141.087L133.1 138.042L131.084 154.119L119.999 142.295L108.914 154.119L106.898 138.042L90.9841 141.086L98.7878 126.893L84.1328 120L98.7883 113.106L90.9841 98.913L106.898 101.957L108.915 85.8809L119.999 97.7046L131.084 85.8809L133.1 101.957L149.015 98.913L141.211 113.106L155.866 120Z" fill="#FFDA44"/>
</g>
<defs>
<clipPath id="clip0_8148_3012">
<rect width="240" height="240" fill="white"/>
</clipPath>
</defs>
</svg>
