<svg width="240" height="240" viewBox="0 0 240 240" fill="none" xmlns="http://www.w3.org/2000/svg">
<g clip-path="url(#clip0_8148_3022)">
<path d="M120 240C186.274 240 240 186.274 240 120C240 53.7258 186.274 0 120 0C53.7258 0 0 53.7258 0 120C0 186.274 53.7258 240 120 240Z" fill="#FFDA44"/>
<path d="M119.999 240C156.37 240 188.959 223.817 210.965 198.261H29.0332C51.0396 223.817 83.6285 240 119.999 240Z" fill="#338AF3"/>
<path d="M240 120C240 53.7262 186.274 0 120 0C53.7262 0 0 53.7262 0 120C0 130.831 1.44375 141.323 4.13391 151.305H235.867C238.556 141.323 240 130.831 240 120Z" fill="#338AF3"/>
<path d="M9.53906 166.957C11.8523 172.392 14.5566 177.62 17.6133 182.609H222.388C225.444 177.619 228.149 172.392 230.463 166.957H9.53906Z" fill="#338AF3"/>
<path d="M54.9919 75.6858L31.5469 65.3386L54.9919 54.9914L65.3386 31.5469L75.6853 54.9914L99.1298 65.3386L75.6853 75.6858L65.3386 99.1303L54.9919 75.6858Z" fill="#F0F0F0"/>
<path d="M65.3384 44.4688L71.728 58.948L86.2077 65.3384L71.728 71.7284L65.3384 86.2077L58.948 71.7284L44.4688 65.3384L58.948 58.948L65.3384 44.4688Z" fill="#D80027"/>
</g>
<defs>
<clipPath id="clip0_8148_3022">
<rect width="240" height="240" fill="white"/>
</clipPath>
</defs>
</svg>
