<svg width="240" height="240" viewBox="0 0 240 240" fill="none" xmlns="http://www.w3.org/2000/svg">
<g clip-path="url(#clip0_8148_3030)">
<path d="M240 120C240 186.274 186.274 240 120 240C53.7262 240 0 186.274 0 120C0 120.028 120 0.0135938 120 0C186.274 0 240 53.7262 240 120Z" fill="#0052B4"/>
<path d="M120.001 0C119.994 0 119.987 0.00046875 119.98 0.00046875L120.001 0Z" fill="#F0F0F0"/>
<path d="M119.68 120H120.001C120.001 119.891 120.001 119.787 120.001 119.679C119.894 119.786 119.787 119.893 119.68 120Z" fill="#F0F0F0"/>
<path d="M120 62.6091C120 41.4942 120 27.6581 120 0.000488281H119.98C53.715 0.0112695 0 53.7324 0 120H62.6086V84.7444L97.8642 120H119.679C119.787 119.893 119.894 119.786 120 119.679C120 111.594 120 104.381 120 97.8652L84.7444 62.6091H120Z" fill="#F0F0F0"/>
<path d="M60.7105 15.6519C41.9422 26.3389 26.3394 41.9417 15.6523 60.71V120H46.9569V46.9569V46.9564H120C120 37.0831 120 27.6772 120 15.6519H60.7105Z" fill="#D80027"/>
<path d="M120 105.243L77.3661 62.6096H62.6094C62.6094 62.6091 62.6094 62.6096 62.6094 62.6096L120 120H120C120 120 120 109.826 120 105.243Z" fill="#D80027"/>
<path d="M72.3729 140.87L78.9588 154.641L93.8309 151.203L87.1709 164.939L99.1305 174.423L84.2398 177.779L84.2815 193.043L72.3729 183.494L60.4648 193.043L60.5065 177.779L45.6152 174.423L57.5754 164.939L50.9145 151.203L65.7874 154.641L72.3729 140.87Z" fill="#F0F0F0"/>
<path d="M179.664 166.957L182.957 173.842L190.393 172.123L187.062 178.991L193.043 183.733L185.597 185.411L185.618 193.043L179.664 188.268L173.71 193.043L173.73 185.411L166.285 183.733L172.265 178.991L168.935 172.123L176.371 173.842L179.664 166.957Z" fill="#F0F0F0"/>
<path d="M149.031 93.9131L152.324 100.799L159.76 99.0796L156.43 105.947L162.41 110.69L154.965 112.368L154.985 120L149.031 115.225L143.077 120L143.097 112.368L135.652 110.69L141.632 105.947L138.302 99.0796L145.738 100.799L149.031 93.9131Z" fill="#F0F0F0"/>
<path d="M179.664 52.1738L182.957 59.0598L190.393 57.3409L187.063 64.2085L193.042 68.9504L185.597 70.629L185.618 78.2612L179.664 73.486L173.71 78.2612L173.73 70.629L166.285 68.9504L172.265 64.2085L168.935 57.3409L176.371 59.0598L179.664 52.1738Z" fill="#F0F0F0"/>
<path d="M206.422 83.4785L209.715 90.3644L217.151 88.6451L213.821 95.5127L219.801 100.255L212.355 101.934L212.376 109.565L206.422 104.791L200.468 109.565L200.488 101.934L193.043 100.255L199.023 95.5127L195.693 88.6451L203.129 90.3644L206.422 83.4785Z" fill="#F0F0F0"/>
<path d="M187.288 120L189.878 127.972H198.26L191.479 132.899L194.07 140.87L187.288 135.943L180.508 140.87L183.097 132.899L176.316 127.972H184.698L187.288 120Z" fill="#F0F0F0"/>
</g>
<defs>
<clipPath id="clip0_8148_3030">
<rect width="240" height="240" fill="white"/>
</clipPath>
</defs>
</svg>
