<svg width="240" height="240" viewBox="0 0 240 240" fill="none" xmlns="http://www.w3.org/2000/svg">
<g clip-path="url(#clip0_8148_3051)">
<path d="M240 120C240 105.322 237.36 91.2605 232.536 78.2611L120 73.0435L7.46391 78.2606C2.64047 91.2605 0 105.322 0 120C0 134.678 2.64047 148.74 7.46391 161.739L120 166.957L232.536 161.739C237.36 148.74 240 134.678 240 120Z" fill="#D80027"/>
<path d="M120.001 240C171.597 240 215.582 207.435 232.537 161.739H7.46484C24.42 207.435 68.4052 240 120.001 240Z" fill="#6DA544"/>
<path d="M7.46484 78.2611H232.538C215.582 32.565 171.597 0 120.001 0C68.4052 0 24.42 32.565 7.46484 78.2611Z" fill="#338AF3"/>
<path d="M122.609 153.913C103.879 153.913 88.6954 138.729 88.6954 120C88.6954 101.271 103.879 86.087 122.609 86.087C128.448 86.087 133.943 87.5636 138.741 90.1632C131.214 82.8034 120.922 78.2607 109.565 78.2607C86.5129 78.2607 67.8262 96.9479 67.8262 120C67.8262 143.051 86.5134 161.739 109.565 161.739C120.923 161.739 131.215 157.196 138.741 149.836C133.943 152.437 128.448 153.913 122.609 153.913Z" fill="#F0F0F0"/>
<path d="M148.695 96.522L153.187 109.155L165.297 103.398L159.54 115.508L172.173 120L159.54 124.493L165.297 136.602L153.187 130.845L148.695 143.479L144.204 130.845L132.093 136.602L137.851 124.493L125.217 120L137.851 115.508L132.093 103.398L144.204 109.155L148.695 96.522Z" fill="#F0F0F0"/>
</g>
<defs>
<clipPath id="clip0_8148_3051">
<rect width="240" height="240" fill="white"/>
</clipPath>
</defs>
</svg>
