<svg width="240" height="240" viewBox="0 0 240 240" fill="none" xmlns="http://www.w3.org/2000/svg">
<g clip-path="url(#clip0_8148_3058)">
<path d="M120 240C186.274 240 240 186.274 240 120C240 53.7258 186.274 0 120 0C53.7258 0 0 53.7258 0 120C0 186.274 53.7258 240 120 240Z" fill="#F0F0F0"/>
<path d="M0 120C0 165.485 25.3078 205.057 62.6086 225.409V14.5908C25.3078 34.943 0 74.5149 0 120Z" fill="#D80027"/>
<path d="M0 120C0 175.443 37.6036 222.096 88.6955 235.866V4.13379C37.6036 17.9038 0 64.5566 0 120Z" fill="#0052B4"/>
<path d="M43.043 41.7388V61.3039C43.043 71.0291 50.9264 78.9125 60.6516 78.9125C70.3767 78.9125 78.2602 71.0291 78.2602 61.3039V41.7388H43.043Z" fill="#D80027"/>
<path d="M60.6503 68.4784C56.6945 68.4784 53.4766 65.2604 53.4766 61.3046V52.1743H67.8245V61.3046C67.8245 65.2604 64.6061 68.4784 60.6503 68.4784Z" fill="#F0F0F0"/>
<path d="M130.436 125.217H99.1313C99.1313 119.454 94.4592 114.782 88.6964 114.782C82.9336 114.782 78.2616 119.454 78.2616 125.217H46.957C46.957 130.98 51.9769 135.652 57.7392 135.652H57.3919C57.3919 141.415 62.063 146.087 67.8267 146.087C67.8267 151.85 72.4978 156.522 78.2616 156.522H99.1313C104.894 156.522 109.566 151.85 109.566 146.087C115.329 146.087 120.001 141.415 120.001 135.652H119.654C125.416 135.652 130.436 130.98 130.436 125.217Z" fill="#FFDA44"/>
<path d="M134.725 108.519L131.985 112.905L135.308 116.865L130.291 115.616L127.551 120L127.189 114.841L122.172 113.59L126.968 111.653L126.607 106.495L129.931 110.457L134.725 108.519Z" fill="#FFDA44"/>
<path d="M118.736 95.1055L117.662 100.164L122.14 102.749L116.997 103.292L115.922 108.349L113.818 103.625L108.676 104.165L112.519 100.704L110.416 95.9811L114.894 98.5662L118.736 95.1055Z" fill="#FFDA44"/>
<path d="M99.1295 87.9692L99.8491 93.0903L104.941 93.988L100.294 96.2549L101.013 101.376L97.4219 97.656L92.7738 99.9228L95.2014 95.3567L91.6094 91.6377L96.7023 92.5349L99.1295 87.9692Z" fill="#FFDA44"/>
<path d="M78.2608 87.9692L80.6889 92.5349L85.7809 91.6372L82.1889 95.3577L84.6166 99.9233L79.9694 97.656L76.3769 101.375L77.0969 96.2549L72.4492 93.9885L77.5412 93.0903L78.2608 87.9692Z" fill="#FFDA44"/>
<path d="M58.6527 95.1055L62.4955 98.5662L66.973 95.9811L64.8711 100.706L68.7125 104.165L63.5708 103.625L61.4666 108.349L60.3931 103.291L55.25 102.751L59.7275 100.164L58.6527 95.1055Z" fill="#FFDA44"/>
<path d="M42.6686 108.519L47.4644 110.457L50.7864 106.495L50.4273 111.655L55.2213 113.592L50.2033 114.842L49.8414 120L47.1034 115.616L42.0859 116.866L45.4098 112.905L42.6686 108.519Z" fill="#FFDA44"/>
</g>
<defs>
<clipPath id="clip0_8148_3058">
<rect width="240" height="240" fill="white"/>
</clipPath>
</defs>
</svg>
