<svg width="240" height="240" viewBox="0 0 240 240" fill="none" xmlns="http://www.w3.org/2000/svg">
<g clip-path="url(#clip0_8148_3072)">
<path d="M120 240C186.274 240 240 186.274 240 120C240 53.7258 186.274 0 120 0C53.7258 0 0 53.7258 0 120C0 186.274 53.7258 240 120 240Z" fill="#FFDA44"/>
<path d="M73.0447 78.2611H232.537C215.582 32.565 171.597 0 120.001 0C86.8634 0 56.8667 13.4339 35.1523 35.1511L73.0447 78.2611Z" fill="#338AF3"/>
<path d="M73.0447 161.739H232.537C215.582 207.435 171.597 240 120.001 240C86.8634 240 56.8667 226.566 35.1523 204.849L73.0447 161.739Z" fill="#338AF3"/>
<path d="M35.1471 35.147C-11.7157 82.0098 -11.7157 157.99 35.1471 204.853C54.5126 185.488 73.1374 166.863 120 120L35.1471 35.147Z" fill="black"/>
</g>
<defs>
<clipPath id="clip0_8148_3072">
<rect width="240" height="240" fill="white"/>
</clipPath>
</defs>
</svg>
