<svg width="240" height="240" viewBox="0 0 240 240" fill="none" xmlns="http://www.w3.org/2000/svg">
<g clip-path="url(#clip0_8148_3078)">
<path d="M120 240C186.274 240 240 186.274 240 120C240 53.7258 186.274 0 120 0C53.7258 0 0 53.7258 0 120C0 186.274 53.7258 240 120 240Z" fill="#F0F0F0"/>
<path d="M120 0C95.918 0 73.4967 7.09922 54.7036 19.3116L85.5656 39.997L46.957 59.9967L85.5656 79.9964L46.957 99.9961L85.5656 119.993L46.957 139.993L85.5656 159.992L46.957 179.993L85.5656 199.993L54.6998 220.685C73.4939 232.9 95.9166 240 120 240C186.274 240 240 186.274 240 120C240 53.7262 186.274 0 120 0V0Z" fill="#D80027"/>
</g>
<defs>
<clipPath id="clip0_8148_3078">
<rect width="240" height="240" fill="white"/>
</clipPath>
</defs>
</svg>
