<svg width="240" height="240" viewBox="0 0 240 240" fill="none" xmlns="http://www.w3.org/2000/svg">
<g clip-path="url(#clip0_8148_3081)">
<path d="M120 0.000488281C186.273 0.000488281 240 53.7266 240 120C240 186.274 186.273 240 120 240C53.7261 240 0 186.274 0 120" fill="#FFDA44"/>
<path d="M117.391 53.3337H219.786C213.044 43.2616 204.816 34.271 195.417 26.667H117.391V53.3337Z" fill="#D80027"/>
<path d="M117.391 106.667H239.258C238.236 97.4206 236.163 88.4924 233.162 80.001H117.391V106.667Z" fill="#D80027"/>
<path d="M6.83874 160H233.163C236.164 151.509 238.237 142.58 239.26 133.333H0.742188C1.76406 142.58 3.83687 151.509 6.83874 160Z" fill="#D80027"/>
<path d="M44.5828 213.333H195.419C204.817 205.73 213.045 196.738 219.788 186.667H20.2148C26.9573 196.738 35.1848 205.729 44.5828 213.333Z" fill="#D80027"/>
<path d="M120 0.000488281C53.7262 0.000488281 -0.000468746 53.7266 3.06725e-09 120.001C27.3871 120 53.7261 120.001 120 120.001L120 0.000488281Z" fill="#4A1F63"/>
<path d="M99.1297 62.6091V73.044H93.9125V62.6091H83.4777V73.044H78.2605V52.1743H57.3909V73.044H52.1732V62.6091H41.7389V73.044H36.5212V62.6091H26.0859V93.9131H109.565V62.6091H99.1297Z" fill="#F0F0F0"/>
</g>
<defs>
<clipPath id="clip0_8148_3081">
<rect width="240" height="240" fill="white"/>
</clipPath>
</defs>
</svg>
