<svg width="240" height="240" viewBox="0 0 240 240" fill="none" xmlns="http://www.w3.org/2000/svg">
<g clip-path="url(#clip0_8148_3093)">
<path d="M172.173 11.9072C156.397 4.27875 138.698 0 119.999 0C101.301 0 83.6017 4.27875 67.8255 11.9072L57.3906 120L67.8255 228.093C83.6017 235.721 101.301 240 119.999 240C138.698 240 156.397 235.721 172.173 228.093L182.608 120L172.173 11.9072Z" fill="#FFDA44"/>
<path d="M67.8262 11.9116C27.6872 31.3207 0 72.4249 0 120C0 167.576 27.6872 208.68 67.8262 228.089V11.9116Z" fill="#0052B4"/>
<path d="M172.174 11.9116V228.089C212.313 208.68 240 167.575 240 120C240 72.4254 212.313 31.3207 172.174 11.9116Z" fill="#0052B4"/>
<path d="M156.522 73.0432L163.522 76.5429L156.522 73.0432L149.521 69.5436C149.1 70.3878 139.959 88.9845 138.466 117.391H127.826V73.0432L120 62.6084L112.174 73.0432V117.391H101.534C100.04 88.9845 90.9005 70.3878 90.4782 69.5436L76.4785 76.5434C76.5751 76.7356 86.0874 96.0973 86.0874 125.217V133.044H112.174V177.392H127.826V133.044H153.913V125.217C153.913 110.162 156.518 97.7473 158.704 89.9839C161.086 81.5182 163.507 76.5743 163.531 76.5251L156.522 73.0432Z" fill="black"/>
</g>
<defs>
<clipPath id="clip0_8148_3093">
<rect width="240" height="240" fill="white"/>
</clipPath>
</defs>
</svg>
