<svg width="240" height="240" viewBox="0 0 240 240" fill="none" xmlns="http://www.w3.org/2000/svg">
<g clip-path="url(#clip0_8148_3099)">
<path d="M120 240C186.274 240 240 186.274 240 120C240 53.7258 186.274 0 120 0C53.7258 0 0 53.7258 0 120C0 186.274 53.7258 240 120 240Z" fill="#F0F0F0"/>
<path d="M1.01562 135.652C3.8075 157.08 12.2553 176.727 24.807 193.057L88.6948 135.652H1.01562Z" fill="#D80027"/>
<path d="M104.346 238.984V151.304L46.9414 215.192C63.2713 227.744 82.9184 236.192 104.346 238.984Z" fill="#D80027"/>
<path d="M104.346 1.01562C82.9184 3.8075 63.2713 12.2553 46.9414 24.807L104.346 88.6958V1.01562Z" fill="#D80027"/>
<path d="M1.01562 104.348H88.6948L24.8066 46.9429C12.2548 63.2722 3.80703 82.9199 1.01562 104.348Z" fill="#D80027"/>
<path d="M135.652 1.01562V88.6953L193.058 24.807C176.728 12.2563 157.081 3.80703 135.652 1.01562Z" fill="#D80027"/>
<path d="M238.984 104.348C236.193 82.9199 227.745 63.2722 215.193 46.9424L151.305 104.348H238.984Z" fill="#D80027"/>
<path d="M151.305 135.652L215.193 193.057C227.745 176.727 236.193 157.08 238.985 135.652H151.305Z" fill="#D80027"/>
<path d="M135.652 238.984C157.08 236.192 176.728 227.744 193.058 215.192L135.652 151.304V238.984Z" fill="#D80027"/>
<path d="M215.201 193.067L142.135 120.001L142.135 120L215.201 46.9332C212.05 42.8382 208.603 38.8988 204.852 35.1469C201.101 31.396 197.161 27.9483 193.066 24.7979L120 97.8643H119.999L46.9327 24.7979C42.8377 27.9488 38.8978 31.3955 35.1459 35.1469C31.395 38.8988 27.9473 42.8382 24.7969 46.9336L97.8633 120L97.8638 120L24.7973 193.067C27.9483 197.161 31.3955 201.101 35.1464 204.853C38.8978 208.604 42.8377 212.052 46.9331 215.202L119.999 142.136L193.066 215.202C197.16 212.051 201.1 208.604 204.852 204.853C208.604 201.101 212.05 197.161 215.201 193.067Z" fill="#496E2D"/>
<path d="M135.652 238.984V135.653V135.652H238.984C239.652 130.529 240 125.305 240 120C240 114.696 239.652 109.472 238.984 104.348H135.653L135.652 104.348V1.01625C130.529 0.349219 125.306 0 120 0C114.695 0.00046875 109.471 0.349219 104.348 1.01625L104.348 104.347V104.348H1.01625C0.34875 109.471 0 114.695 0 120C0.00046875 125.306 0.34875 130.529 1.01625 135.652H104.348L104.348 238.984C109.472 239.651 114.694 240 120 240C125.306 240 130.529 239.651 135.652 238.984Z" fill="#F0F0F0"/>
</g>
<defs>
<clipPath id="clip0_8148_3099">
<rect width="240" height="240" fill="white"/>
</clipPath>
</defs>
</svg>
