<svg width="240" height="240" viewBox="0 0 240 240" fill="none" xmlns="http://www.w3.org/2000/svg">
<g clip-path="url(#clip0_8148_3112)">
<path d="M120 240C186.274 240 240 186.274 240 120C240 53.7258 186.274 0 120 0C53.7258 0 0 53.7258 0 120C0 186.274 53.7258 240 120 240Z" fill="#FCFCFC"/>
<path d="M49.5649 111.304L36.5215 87.6403L49.5649 64.3477L62.6084 87.6403L49.5649 111.304Z" fill="#A2001D"/>
<path d="M23.479 111.304L10.4355 87.6403L23.479 64.3477L36.5224 87.6403L23.479 111.304Z" fill="#A2001D"/>
<path d="M49.5649 175.652L36.5215 151.988L49.5649 128.696L62.6084 151.988L49.5649 175.652Z" fill="#A2001D"/>
<path d="M23.479 175.652L10.4355 151.988L23.479 128.696L36.5224 151.988L23.479 175.652Z" fill="#A2001D"/>
<path d="M62.6099 23.2931L58.9171 16.6987C52.2937 20.6231 46.0813 25.1667 40.3574 30.2498L49.5665 46.9565L62.6099 23.2931Z" fill="#A2001D"/>
<path d="M49.5663 193.043L40.2598 209.663C45.9785 214.753 52.1866 219.304 58.8073 223.236L62.6102 216.337L49.5663 193.043Z" fill="#A2001D"/>
<path d="M73.043 151.305V230.459C87.4659 236.598 103.335 240 120 240C171.595 240 215.58 207.435 232.536 161.739L73.043 151.305Z" fill="#6DA544"/>
<path d="M232.536 161.739C237.36 148.739 240 134.678 240 120C240 53.7262 186.273 0 120 0C103.336 0 87.4659 3.39984 73.043 9.53813V161.739H232.536V161.739Z" fill="#A2001D"/>
</g>
<defs>
<clipPath id="clip0_8148_3112">
<rect width="240" height="240" fill="white"/>
</clipPath>
</defs>
</svg>
