<svg width="240" height="240" viewBox="0 0 240 240" fill="none" xmlns="http://www.w3.org/2000/svg">
<g clip-path="url(#clip0_8148_3127)">
<path d="M240 120C240 78.815 219.249 42.4808 187.635 20.8695L120 15.6519L52.3655 20.869C20.7516 42.4808 0 78.8155 0 120C0 161.186 20.7516 197.519 52.3655 219.13L120 224.348L187.635 219.131C219.249 197.519 240 161.186 240 120Z" fill="#0052B4"/>
<path d="M187.634 20.8697C168.376 7.70437 145.089 0 120 0C94.9109 0 71.6238 7.70437 52.3652 20.8697H187.634Z" fill="#A2001D"/>
<path d="M52.3652 219.13C71.6234 232.296 94.9109 240 120 240C145.089 240 168.376 232.296 187.634 219.13H52.3652Z" fill="#A2001D"/>
<path d="M120.001 177.391C151.697 177.391 177.392 151.696 177.392 120C177.392 88.3034 151.697 62.6084 120.001 62.6084C88.3044 62.6084 62.6094 88.3034 62.6094 120C62.6094 151.696 88.3044 177.391 120.001 177.391Z" fill="#F0F0F0"/>
<path d="M120 166.957C145.933 166.957 166.956 145.933 166.956 120C166.956 94.0666 145.933 73.0435 120 73.0435C94.0661 73.0435 73.043 94.0666 73.043 120C73.043 145.933 94.0661 166.957 120 166.957Z" fill="#6DA544"/>
<path d="M120 151.304C137.289 151.304 151.304 137.289 151.304 120C151.304 102.711 137.289 88.6953 120 88.6953C102.711 88.6953 88.6953 102.711 88.6953 120C88.6953 137.289 102.711 151.304 120 151.304Z" fill="#F0F0F0"/>
<path d="M120 112.174L103.043 120V133.044L120 143.478L136.956 133.044V120L120 112.174Z" fill="#0052B4"/>
<path d="M103.043 104.348H136.956V120H103.043V104.348Z" fill="#FFDA44"/>
</g>
<defs>
<clipPath id="clip0_8148_3127">
<rect width="240" height="240" fill="white"/>
</clipPath>
</defs>
</svg>
