<svg width="240" height="240" viewBox="0 0 240 240" fill="none" xmlns="http://www.w3.org/2000/svg">
<g clip-path="url(#clip0_8148_3141)">
<path d="M240 120C240 186.274 186.274 240 120 240C53.7262 240 0 186.274 0 120C0 120.029 120 0.013125 120 0C186.274 0 240 53.7262 240 120Z" fill="#D80027"/>
<path d="M119.999 57.3916V97.8649L78.2598 57.3916H119.999Z" fill="#0052B4"/>
<path d="M62.6078 120H97.863L62.6078 73.0435L57.3906 109.565L62.6078 120Z" fill="#0052B4"/>
<path d="M119.68 120H120.001C120.001 119.892 120.001 119.787 120.001 119.679C119.894 119.786 119.787 119.893 119.68 120Z" fill="#F0F0F0"/>
<path d="M120 62.6086C120 41.4938 120 27.6586 120 0H119.98C53.7145 0.01125 0 53.7323 0 120H62.6086V84.7448L97.8638 120H119.679C119.786 119.893 119.893 119.786 120 119.679C120 111.594 120 104.381 120 97.8647L84.7444 62.6086H120Z" fill="#F0F0F0"/>
<path d="M60.7105 15.6519C41.9422 26.3389 26.3389 41.9417 15.6523 60.71V125.217H46.9569V46.9573V46.9564H125.218C125.218 37.0831 125.218 27.6772 125.218 15.6519H60.7105Z" fill="#D80027"/>
<path d="M124.771 110.013L77.3656 62.6084H62.6094V62.6093L124.77 124.77H124.771C124.771 124.77 124.771 114.595 124.771 110.013Z" fill="#D80027"/>
<path d="M135.652 62.6084V119.999C135.652 147.956 208.696 147.956 208.696 119.999V62.6084H135.652Z" fill="#F3F3F3"/>
<path d="M135.652 120V120C135.652 147.956 172.174 156.522 172.174 156.522C172.174 156.522 208.696 147.956 208.696 120V120H135.652Z" fill="#6DA544"/>
<path d="M172.173 97.0435L155.217 104.348V120L172.173 130.435L189.13 120V104.348L172.173 97.0435Z" fill="#A2001D"/>
<path d="M155.217 88.6953H189.13V104.347H155.217V88.6953Z" fill="#338AF3"/>
</g>
<defs>
<clipPath id="clip0_8148_3141">
<rect width="240" height="240" fill="white"/>
</clipPath>
</defs>
</svg>
