<svg width="240" height="240" viewBox="0 0 240 240" fill="none" xmlns="http://www.w3.org/2000/svg">
<g clip-path="url(#clip0_8148_3157)">
<path d="M204.853 204.853C157.99 251.716 82.0104 251.716 35.1471 204.853C-11.7157 157.99 -11.7157 82.0103 35.1471 35.147C35.164 35.147 142.987 3.28748 189.85 50.1503C236.713 97.0131 204.885 204.82 204.853 204.853Z" fill="#FFDA44"/>
<path d="M204.852 204.853C251.715 157.99 251.715 82.0101 204.852 35.1468C157.989 -11.7165 82.0098 -11.716 35.1465 35.1468L204.852 204.853Z" fill="#D80027"/>
<path d="M151.366 151.379C146.437 153.314 140.709 153.109 135.74 150.321C126.96 145.393 123.826 134.24 128.755 125.459L127.259 124.619C142.292 120.995 153.414 107.349 153.219 91.2468C153.098 81.2357 148.625 72.2793 141.628 66.1509L130.672 77.3756C134.814 80.6765 137.499 85.7399 137.568 91.4367C137.69 101.505 129.599 109.796 119.53 109.918L119.551 111.632C108.895 100.426 91.5177 97.6167 77.6704 105.837C69.0613 110.948 63.5423 119.299 61.7324 128.423L76.9312 132.3C77.7191 127.062 80.7609 122.205 85.6598 119.296C94.318 114.157 105.544 117.02 110.684 125.677L112.159 124.802C107.782 139.633 114.037 156.087 128.081 163.97C136.812 168.87 146.804 169.474 155.61 166.479L151.366 151.379ZM119.656 120.35L119.655 120.351L119.656 120.35Z" fill="#FF9811"/>
<path d="M164.431 81.2722L155.949 111.54L130.501 106.841L114.12 73.0742L69.8668 88.7778L66.377 78.9434L54.7988 77.517L63.5227 102.103L93.9769 94.3138L102.631 118.702L81.579 149.772L117.306 180.243L110.534 188.182L115.088 198.924L132.018 179.075L110.046 156.595L126.84 136.906L164.273 139.603L172.799 93.4269L183.061 95.322L190.087 86.008L164.431 81.2722ZM119.991 120.816V120.817V120.816Z" fill="#FFEACF"/>
</g>
<defs>
<clipPath id="clip0_8148_3157">
<rect width="240" height="240" fill="white"/>
</clipPath>
</defs>
</svg>
