<svg width="240" height="240" viewBox="0 0 240 240" fill="none" xmlns="http://www.w3.org/2000/svg">
<g clip-path="url(#clip0_8148_3166)">
<path d="M120 240C186.274 240 240 186.274 240 120C240 53.7258 186.274 0 120 0C53.7258 0 0 53.7258 0 120C0 186.274 53.7258 240 120 240Z" fill="#F0F0F0"/>
<path d="M35.1475 35.1466C9.42952 60.8646 -2.17064 95.3524 0.338581 128.983L128.984 0.338207C95.3528 -2.17148 60.8655 9.42868 35.1475 35.1466Z" fill="#FFDA44"/>
<path d="M42.8477 211.908C89.995 251.575 160.476 249.229 204.852 204.853C249.229 160.477 251.575 89.9955 211.908 42.8486L42.8477 211.908Z" fill="#0052B4"/>
<path d="M119.573 115.167L129.914 109.565L119.573 103.964C117.158 88.2788 104.765 75.8855 89.0803 73.4714L83.4783 63.1299L77.8767 73.471C62.1923 75.885 49.7995 88.2783 47.3845 103.963L37.043 109.565L47.3841 115.167C49.7986 130.852 62.1914 143.245 77.8762 145.659L83.4783 156.001L89.0798 145.659C104.765 143.245 117.158 130.852 119.573 115.167ZM83.4788 130.435C71.9527 130.435 62.6091 121.092 62.6091 109.565C62.6091 98.0386 71.9522 88.6955 83.4788 88.6955C95.0053 88.6955 104.348 98.0386 104.348 109.565C104.348 121.092 95.0048 130.435 83.4788 130.435Z" fill="black"/>
<path d="M83.4767 93.9131L87.995 101.739H97.032L92.5133 109.565L97.032 117.391H87.995L83.4767 125.217L78.9584 117.391H69.9219L74.4402 109.565L69.9219 101.739H78.9584L83.4767 93.9131Z" fill="#D80027"/>
</g>
<defs>
<clipPath id="clip0_8148_3166">
<rect width="240" height="240" fill="white"/>
</clipPath>
</defs>
</svg>
