<svg width="240" height="240" viewBox="0 0 240 240" fill="none" xmlns="http://www.w3.org/2000/svg">
<g clip-path="url(#clip0_8148_3172)">
<path d="M120 240C186.274 240 240 186.274 240 120C240 53.7258 186.274 0 120 0C53.7258 0 0 53.7258 0 120C0 186.274 53.7258 240 120 240Z" fill="#F0F0F0"/>
<path d="M119.999 0C77.4505 0 40.077 22.1452 18.7695 55.537L181.5 223.054C216.536 202.1 239.999 163.792 239.999 120C239.999 53.7262 186.273 0 119.999 0Z" fill="#FFDA44"/>
<path d="M240 120C240 88.8646 228.141 60.5015 208.695 39.1743V200.826C228.141 179.498 240 151.135 240 120Z" fill="#0052B4"/>
<path d="M149.901 225.878L162.471 225.87L166.348 213.913L170.24 225.865L176.544 225.861C180.41 223.792 184.149 221.518 187.748 219.051L20.948 52.252C18.1992 56.2626 15.6923 60.4504 13.4381 64.791L14.9203 69.3435L27.4898 69.3355L17.3255 76.7301L21.217 88.6827L11.0433 81.3009L4.97531 85.7146C1.74047 96.5784 0 108.086 0 120C0 186.274 53.7262 240 120 240C134.012 240 147.461 237.594 159.961 233.179L149.901 225.878ZM26.7652 114.783L30.6417 102.826L20.4689 95.443L33.0384 95.4351L36.9155 83.4777L40.807 95.4304L53.3766 95.4224L43.2117 102.817L47.1033 114.77L36.9295 107.388L26.7652 114.783ZM52.6519 140.87L56.5284 128.913L46.3556 121.53L58.9252 121.522L62.8022 109.565L66.6937 121.517L79.2633 121.509L69.0989 128.904L72.9905 140.856L62.8167 133.475L52.6519 140.87ZM78.5381 166.956L82.4147 155L72.2419 147.617L84.8114 147.609L88.6884 135.651L92.58 147.604L105.15 147.596L94.9852 154.991L98.8767 166.943L88.703 159.561L78.5381 166.956ZM114.589 185.649L104.424 193.043L108.301 181.086L98.1281 173.704L110.698 173.696L114.575 161.738L118.467 173.691L131.036 173.683L120.872 181.078L124.763 193.03L114.589 185.649ZM130.311 219.13L134.188 207.173L124.015 199.791L136.584 199.783L140.461 187.825L144.353 199.778L156.923 199.77L146.758 207.164L150.65 219.117L140.476 211.734L130.311 219.13Z" fill="#0052B4"/>
</g>
<defs>
<clipPath id="clip0_8148_3172">
<rect width="240" height="240" fill="white"/>
</clipPath>
</defs>
</svg>
