<svg width="240" height="240" viewBox="0 0 240 240" fill="none" xmlns="http://www.w3.org/2000/svg">
<g clip-path="url(#clip0_8148_3178)">
<path d="M5.66625 83.4779C1.99031 94.9947 -0.000468667 107.263 8.276e-08 120C-0.000468667 132.735 1.99031 145.004 5.66672 156.521L120 161.74L234.333 156.521C238.008 145.004 240 132.735 240 120C240 107.264 238.009 94.9947 234.333 83.4779L120 78.2607L5.66625 83.4779Z" fill="#F0F0F0"/>
<path d="M240 120C240 112.881 239.377 105.908 238.187 99.1299H1.81313C0.623437 105.908 0 112.88 0 120C0 127.119 0.623906 134.091 1.81313 140.869H238.187C239.376 134.091 240 127.118 240 120Z" fill="black"/>
<path d="M119.999 240C173.538 240 218.88 204.936 234.332 156.521H5.66602C21.1184 204.935 66.461 239.999 119.999 240Z" fill="#338AF3"/>
<path d="M120 0.0004883C66.4615 0.0004883 21.1193 35.0644 5.66602 83.4778L234.332 83.4783C218.88 35.0644 173.538 -0.0004492 120 0.0004883Z" fill="#338AF3"/>
</g>
<defs>
<clipPath id="clip0_8148_3178">
<rect width="240" height="240" fill="white"/>
</clipPath>
</defs>
</svg>
