<svg width="240" height="240" viewBox="0 0 240 240" fill="none" xmlns="http://www.w3.org/2000/svg">
<g clip-path="url(#clip0_8148_3220)">
<path d="M120 240C186.274 240 240 186.274 240 120C240 53.7258 186.274 0 120 0C53.7258 0 0 53.7258 0 120C0 186.274 53.7258 240 120 240Z" fill="#F0F0F0"/>
<path d="M219.999 134.361C209.999 134.361 209.999 125.218 199.998 125.218C189.999 125.218 189.999 134.361 179.999 134.361C170 134.361 169.999 125.218 160 125.218C150 125.218 150 134.361 140 134.361C130 134.361 129.999 125.218 119.998 125.218C109.998 125.218 109.998 134.361 99.9991 134.361C90.0006 134.361 90.0006 125.218 80.0008 125.218C70 125.218 70 134.361 59.9992 134.361C49.9984 134.361 49.9984 125.218 39.9977 125.218C29.9992 125.218 29.9992 134.361 19.9994 134.361C10.0534 134.361 9.99578 125.319 0.15625 125.222C0.433281 130.711 1.08859 136.1 2.07953 141.37C10.0502 142.54 10.7481 150.361 20.0003 150.361C30.0002 150.361 30.0002 141.218 39.9986 141.218C49.9994 141.218 49.9994 150.361 60.0002 150.361C70.0009 150.361 70.0009 141.218 80.0017 141.218C90.0016 141.218 90.0016 150.361 100 150.361C110 150.361 110 141.218 119.999 141.218C130 141.218 130 150.361 140.001 150.361C150.002 150.361 150.002 141.218 160.001 141.218C170.001 141.218 170.001 150.361 180 150.361C190 150.361 190 141.218 199.999 141.218C210 141.218 210 150.361 220 150.361C229.252 150.361 229.95 142.541 237.921 141.37C238.913 136.099 239.567 130.711 239.845 125.222C230.004 125.319 229.945 134.361 219.999 134.361Z" fill="#0052B4"/>
<path d="M199.999 156.521C189.999 156.521 189.999 165.665 180 165.665C170 165.665 170 156.521 160 156.521C150.001 156.521 150.001 165.665 140 165.665C129.999 165.665 129.999 156.521 119.999 156.521C109.999 156.521 109.999 165.665 99.9995 165.665C90.001 165.665 90.001 156.521 80.0012 156.521C70.0004 156.521 70.0004 165.665 59.9996 165.665C49.9988 165.665 49.9988 156.521 39.998 156.521C29.9996 156.521 29.9996 165.665 19.9998 165.665C12.6334 165.665 10.6885 160.706 6.17773 158.095C8.90961 166.26 12.4979 174.031 16.8315 181.308C17.7699 181.534 18.8134 181.665 19.9993 181.665C29.9991 181.665 29.9991 172.522 39.9976 172.522C49.9984 172.522 49.9984 181.665 59.9991 181.665C69.9999 181.665 69.9999 172.522 80.0007 172.522C90.0006 172.522 90.0005 181.665 99.999 181.665C109.999 181.665 109.999 172.522 119.998 172.522C129.999 172.522 129.999 181.665 140 181.665C150.001 181.665 150.001 172.522 160 172.522C170 172.522 170 181.665 179.999 181.665C189.999 181.665 189.999 172.522 199.998 172.522C209.999 172.522 209.999 181.665 219.999 181.665C221.185 181.665 222.23 181.534 223.169 181.308C227.503 174.031 231.091 166.26 233.822 158.095C229.311 160.707 227.366 165.665 219.999 165.665C210 165.665 210 156.521 199.999 156.521Z" fill="#0052B4"/>
<path d="M237.208 94.191C229.898 95.7084 228.966 103.057 219.998 103.057C209.998 103.057 209.998 93.9131 199.998 93.9131C189.998 93.9131 189.998 103.057 179.998 103.057C169.999 103.057 169.999 93.9131 159.999 93.9131C149.999 93.9131 149.999 103.057 139.999 103.057C129.999 103.057 129.998 93.9131 119.998 93.9131C114.594 93.9131 112.11 96.5821 109.391 99.0365V115.036C112.11 112.582 114.594 109.914 119.998 109.914C129.998 109.914 129.998 119.056 139.999 119.056C150 119.056 150 109.914 159.999 109.914C169.999 109.914 169.999 119.056 179.998 119.056C189.998 119.056 189.998 109.914 199.998 109.914C209.998 109.914 209.998 119.056 219.998 119.056C229.25 119.056 229.948 111.237 237.92 110.066C238.43 110.066 239.001 110.061 239.586 110.054C239.143 104.657 238.341 99.3618 237.208 94.191Z" fill="#0052B4"/>
<path d="M228.443 68.5657C226.371 70.3062 223.976 71.7518 220 71.7518C210 71.7518 210 62.6084 200 62.6084C190 62.6084 190 71.7518 180 71.7518C170.001 71.7518 170.001 62.6084 160.001 62.6084C150.001 62.6084 150.001 71.7518 140.001 71.7518C130.001 71.7518 130 62.6084 119.999 62.6084C114.596 62.6084 112.112 65.2775 109.393 67.7318V83.7317C112.112 81.2778 114.596 78.6092 119.999 78.6092C130 78.6092 130 87.7517 140.001 87.7517C150.001 87.7517 150.001 78.6092 160.001 78.6092C170.001 78.6092 170.001 87.7517 180 87.7517C189.999 87.7517 189.999 78.6092 199.999 78.6092C210 78.6092 210 87.7517 219.999 87.7517C227.095 87.7517 229.161 83.1556 233.333 80.4828C231.912 76.4061 230.279 72.4287 228.443 68.5657Z" fill="#0052B4"/>
<path d="M200.852 31.3291C200.575 31.3141 200.292 31.3047 199.998 31.3047C189.998 31.3047 189.998 40.4481 179.999 40.4481C169.999 40.4481 169.999 31.3047 160 31.3047C150 31.3047 150 40.4481 139.999 40.4481C129.998 40.4481 129.998 31.3047 119.997 31.3047C114.594 31.3047 112.11 33.9738 109.391 36.4281V52.428C112.11 49.9741 114.594 47.3055 119.997 47.3055C129.998 47.3055 129.998 56.448 139.999 56.448C150 56.448 150 47.3055 159.999 47.3055C169.999 47.3055 169.999 56.448 179.998 56.448C189.998 56.448 189.998 47.3055 199.998 47.3055C209.998 47.3055 209.998 56.448 219.998 56.448C220.614 56.448 221.189 56.4114 221.734 56.3463C215.925 47.0819 208.892 38.6645 200.852 31.3291Z" fill="#0052B4"/>
<path d="M150.67 3.96285C147.925 6.43223 145.445 9.14441 139.998 9.14441C129.998 9.14441 129.998 0.00191406 119.997 0.000976562H119.995C114.824 0.00144531 112.328 2.44691 109.738 4.80895V20.8093C112.327 18.4472 114.825 16.0013 119.997 16.0013C129.998 16.0013 129.998 25.1438 139.999 25.1438C149.999 25.1438 149.999 16.0013 159.999 16.0013C169.999 16.0013 169.999 25.1438 179.998 25.1438C184.194 25.1438 186.628 23.5332 188.78 21.6647C177.373 13.6702 164.511 7.61113 150.67 3.96285Z" fill="#0052B4"/>
<path d="M139.999 228.274C129.998 228.274 129.998 219.13 119.997 219.13C109.998 219.13 109.998 228.274 99.9982 228.274C89.9998 228.274 89.9998 219.13 79.9999 219.13C72.3401 219.13 70.5434 224.49 65.6309 227.002C79.1777 233.899 94.2091 238.295 110.119 239.592C112.579 237.344 115.078 235.131 119.997 235.131C124.918 235.131 127.417 237.344 129.878 239.593C145.788 238.296 160.82 233.899 174.368 227.002C169.454 224.491 167.658 219.13 159.999 219.13C150 219.13 150 228.274 139.999 228.274Z" fill="#0052B4"/>
<path d="M179.999 196.97C169.999 196.97 169.999 187.826 160 187.826C150 187.826 150 196.97 139.999 196.97C129.999 196.97 129.999 187.826 119.998 187.826C109.998 187.826 109.998 196.97 99.9986 196.97C90.0002 196.97 90.0002 187.826 80.0003 187.826C69.9995 187.826 69.9995 196.97 59.9988 196.97C49.998 196.97 49.998 187.826 39.9972 187.826C32.8061 187.826 30.7867 192.556 26.5 195.211C29.1869 198.548 32.0434 201.742 35.0664 204.77C36.4206 204.192 38.0097 203.826 39.9967 203.826C49.9975 203.826 49.9975 212.969 59.9983 212.969C69.9991 212.969 69.9991 203.826 79.9998 203.826C89.9997 203.826 89.9997 212.969 99.9981 212.969C109.998 212.969 109.998 203.826 119.997 203.826C129.998 203.826 129.998 212.969 139.999 212.969C150 212.969 150 203.826 159.999 203.826C169.998 203.826 169.999 212.969 179.998 212.969C189.998 212.969 189.998 203.826 199.997 203.826C201.987 203.826 203.576 204.192 204.931 204.771C207.955 201.742 210.811 198.548 213.498 195.212C209.211 192.557 207.191 187.827 199.998 187.827C189.998 187.826 189.998 196.97 179.999 196.97Z" fill="#0052B4"/>
<path d="M119.68 120H120.001C120.001 119.892 120.001 119.787 120.001 119.679C119.894 119.786 119.787 119.893 119.68 120Z" fill="#F0F0F0"/>
<path d="M119.999 62.6088V97.8649L78.2598 57.3916L119.999 62.6088Z" fill="#0052B4"/>
<path d="M62.6083 120H97.863L62.6078 73.0435L57.3906 109.565L62.6083 120Z" fill="#0052B4"/>
<path d="M120 62.6086C120 41.4938 120 27.6586 120 0H119.98C53.715 0.01125 0 53.7323 0 120H62.6091V84.7448L97.8638 120H119.679C119.786 119.893 119.893 119.786 120 119.679C120 111.594 120 104.381 120 97.8647L84.7444 62.6086H120Z" fill="#F0F0F0"/>
<path d="M60.7105 15.6519C41.9422 26.3389 26.3394 41.9417 15.6523 60.71V120H46.9569V46.9573V46.9564H120C120 37.0831 120 27.6772 120 15.6519H60.7105Z" fill="#D80027"/>
<path d="M120.001 105.243L77.3656 62.6089H62.6094V62.6098L120 120H120.001C120.001 120 120.001 109.825 120.001 105.243Z" fill="#D80027"/>
<path d="M156.521 62.6084H203.478L180 86.0867L156.521 62.6084Z" fill="#6DA544"/>
<path d="M174.783 80.8696H185.218V109.565H174.783V80.8696Z" fill="#A2001D"/>
<path d="M174.783 156.521H185.218V185.217H174.783V156.521Z" fill="#A2001D"/>
<path d="M211.304 140.87C211.304 132.226 204.296 125.218 195.652 125.218C191.642 125.218 187.987 126.727 185.217 129.206V120H190.434V109.565H185.217V104.348H174.782V109.565H169.565V120H174.782V129.206C172.012 126.727 168.357 125.218 164.347 125.218C155.703 125.218 148.695 132.226 148.695 140.87C148.695 145.504 150.711 149.667 153.913 152.533V161.74H206.086V152.533C209.288 149.667 211.304 145.504 211.304 140.87Z" fill="#FFDA44"/>
<path d="M195.652 135.652C194.006 135.652 192.854 136.375 192.177 136.98L185.217 143.21H174.783L167.823 136.98C167.146 136.375 165.994 135.652 164.348 135.652C161.471 135.652 159.131 137.992 159.131 140.869C159.131 142.895 160.224 144.176 160.875 144.759L164.349 147.87V151.304H195.653V147.87L199.127 144.759C199.778 144.176 200.871 142.895 200.871 140.869C200.87 137.992 198.529 135.652 195.652 135.652Z" fill="#D80027"/>
</g>
<defs>
<clipPath id="clip0_8148_3220">
<rect width="240" height="240" fill="white"/>
</clipPath>
</defs>
</svg>
