<svg width="240" height="240" viewBox="0 0 240 240" fill="none" xmlns="http://www.w3.org/2000/svg">
<g clip-path="url(#clip0_8148_3191)">
<path d="M0 120C0 53.7262 53.7262 0 120 0C186.274 0 240 53.7262 240 120H0Z" fill="#F0F0F0"/>
<path d="M88.6949 113.44L82.1348 120H88.6949V113.44Z" fill="#0052B4"/>
<path d="M151.305 113.44V120H157.864L151.305 113.44Z" fill="#0052B4"/>
<path d="M3.46219 91.3052C1.20516 100.5 0 110.109 0 120H37.8642L66.5592 91.3052H3.46219Z" fill="#0052B4"/>
<path d="M173.439 91.3052L202.134 120H240C240 110.109 238.794 100.5 236.537 91.3052H173.439Z" fill="#0052B4"/>
<path d="M166.061 91.3052H151.305L180 120H194.757L166.061 91.3052Z" fill="#D80027"/>
<path d="M88.6959 106.061V91.3052H88.695L60 120H74.7572L88.6959 106.061Z" fill="#D80027"/>
<path d="M56.2134 18.3477C51.2671 21.4583 46.5641 24.9186 42.1387 28.6953H66.5605L56.2134 18.3477Z" fill="#0052B4"/>
<path d="M197.86 28.6953C193.435 24.9181 188.732 21.4578 183.787 18.3477L173.439 28.6953H197.86Z" fill="#0052B4"/>
<path d="M135.652 75.652H231.535C226.998 64.2525 220.763 53.7159 213.144 44.3475H135.652H135.652V1.01578C130.528 0.34875 125.305 0 120 0C114.694 0 109.471 0.34875 104.348 1.01578V44.347V44.3475H26.8553C19.2367 53.7159 13.0014 64.2525 8.46484 75.652H104.347H104.347V120H135.652V75.6525V75.652Z" fill="#D80027"/>
<path d="M88.6948 28.6954V28.695L70.6044 10.6045C67.2598 12.1171 64.0002 13.7836 60.8281 15.585L73.9386 28.6954H88.6948Z" fill="#D80027"/>
<path d="M151.305 28.6955L169.396 10.605C165.955 9.04922 162.426 7.65422 158.822 6.42188L151.305 13.9392V28.6955Z" fill="#D80027"/>
<path d="M240 120C240 186.274 186.274 240 120 240C53.7262 240 0 186.274 0 120H240Z" fill="#F0F0F0"/>
<path d="M219.999 135.305C209.999 135.305 209.999 126.161 199.998 126.161C189.999 126.161 189.999 135.305 179.999 135.305C170 135.305 169.999 126.161 160 126.161C150 126.161 150 135.305 140 135.305C130 135.305 129.999 126.161 119.998 126.161C109.998 126.161 109.998 135.305 99.9991 135.305C90.0006 135.305 90.0006 126.161 80.0008 126.161C70 126.161 70 135.305 59.9992 135.305C49.9984 135.305 49.9984 126.161 39.9977 126.161C29.9992 126.161 29.9992 135.305 19.9994 135.305C10.0534 135.305 9.99578 126.262 0.15625 126.165C0.433281 131.654 1.08859 137.043 2.07953 142.313C10.0502 143.484 10.7481 151.304 19.9998 151.304C29.9997 151.304 29.9997 142.162 39.9981 142.162C49.9989 142.162 49.9989 151.304 59.9997 151.304C70.0005 151.304 70.0005 142.162 80.0013 142.162C90.0011 142.162 90.0011 151.304 99.9995 151.304C109.999 151.304 109.999 142.162 119.999 142.162C130 142.162 130 151.304 140 151.304C150.001 151.304 150.001 142.162 160 142.162C170 142.162 170 151.304 180 151.304C189.999 151.304 190 142.162 199.999 142.162C210 142.162 210 151.304 219.999 151.304C229.252 151.304 229.95 143.485 237.921 142.313C238.912 137.043 239.567 131.655 239.845 126.166C230.004 126.263 229.945 135.305 219.999 135.305Z" fill="#0052B4"/>
<path d="M199.998 157.466C189.998 157.466 189.998 166.609 179.998 166.609C169.999 166.609 169.999 157.466 159.999 157.466C149.999 157.466 149.999 166.609 139.999 166.609C129.998 166.609 129.998 157.466 119.997 157.466C109.998 157.466 109.998 166.609 99.9983 166.609C89.9998 166.609 89.9998 157.466 80 157.466C69.9992 157.466 69.9992 166.609 59.9984 166.609C49.9977 166.609 49.9977 157.466 39.9969 157.466C29.9984 157.466 29.9984 166.609 19.9986 166.609C12.8534 166.609 10.8125 161.942 6.58203 159.276C9.39828 167.413 13.062 175.154 17.4744 182.389C18.2417 182.531 19.077 182.609 19.9986 182.609C29.9984 182.609 29.9984 173.467 39.9969 173.467C49.9977 173.467 49.9977 182.609 59.9984 182.609C69.9992 182.609 69.9992 173.467 80 173.467C89.9998 173.467 89.9998 182.609 99.9983 182.609C109.998 182.609 109.998 173.467 119.997 173.467C129.998 173.467 129.998 182.609 139.999 182.609C150 182.609 150 173.467 159.999 173.467C169.999 173.467 169.999 182.609 179.998 182.609C189.998 182.609 189.998 173.467 199.998 173.467C209.998 173.467 209.998 182.609 219.998 182.609C220.92 182.609 221.756 182.531 222.523 182.389C226.935 175.154 230.599 167.413 233.416 159.277C229.185 161.941 227.144 166.609 219.998 166.609C209.998 166.609 209.998 157.466 199.998 157.466Z" fill="#0052B4"/>
<path d="M239.936 116.23C239.946 116.563 239.958 116.897 239.965 117.231C239.958 116.897 239.945 116.563 239.936 116.23Z" fill="#F0F0F0"/>
<path d="M0.0351562 117.231C0.043125 116.897 0.054375 116.563 0.0646875 116.229C0.0548437 116.563 0.0426563 116.897 0.0351562 117.231Z" fill="#F0F0F0"/>
<path d="M0 120C0 119.075 0.0140625 118.153 0.0351562 117.231C0.0135938 118.153 0 119.075 0 120Z" fill="#F0F0F0"/>
<path d="M0 120C0 122.186 0.061875 124.358 0.178594 126.514C9.99563 126.624 10.0608 135.652 19.9997 135.652C29.9995 135.652 29.9995 126.51 39.998 126.51C49.9987 126.51 49.9987 135.652 59.9995 135.652C70.0003 135.652 70.0003 126.51 80.0011 126.51C90.0009 126.51 90.0009 135.652 99.9994 135.652C109.999 135.652 109.999 126.51 119.999 126.51C129.999 126.51 129.999 135.652 140 135.652C150.001 135.652 150.001 126.51 160 126.51C170 126.51 170 135.652 180 135.652C189.999 135.652 189.999 126.51 199.999 126.51C210 126.51 210 135.652 219.999 135.652C229.939 135.652 230.004 126.624 239.823 126.514C239.938 124.357 240 122.186 240 120H0Z" fill="#F0F0F0"/>
<path d="M239.965 117.231C239.986 118.152 240 119.074 240 120C240 119.075 239.986 118.153 239.965 117.231Z" fill="#F0F0F0"/>
<path d="M199.999 188.77C189.999 188.77 189.999 197.913 179.999 197.913C170 197.913 170 188.77 160 188.77C150 188.77 150 197.913 140 197.913C129.999 197.913 129.999 188.77 119.999 188.77C109.999 188.77 109.999 197.913 99.9993 197.913C90.0009 197.913 90.0009 188.77 80.001 188.77C70.0002 188.77 70.0002 197.913 59.9995 197.913C49.9987 197.913 49.9987 188.77 39.9979 188.77C33.0913 188.77 30.9543 193.131 26.998 195.83C37.4929 208.686 50.6038 219.319 65.5124 226.932L120 224.187L174.488 226.932C189.396 219.318 202.507 208.686 213.002 195.83C209.044 193.132 206.907 188.77 199.999 188.77Z" fill="#0052B4"/>
<path d="M186.555 191.631L150.051 198.613L145.427 161.739L120.001 188.859L94.5759 161.739L89.9493 198.613L53.4473 191.631L71.3484 224.187L65.5021 226.936C81.8559 235.288 100.378 240 120.001 240C139.624 240 158.146 235.288 174.5 226.937L168.656 224.188L186.555 191.631Z" fill="#FFDA44"/>
</g>
<defs>
<clipPath id="clip0_8148_3191">
<rect width="240" height="240" fill="white"/>
</clipPath>
</defs>
</svg>
