<svg width="240" height="240" viewBox="0 0 240 240" fill="none" xmlns="http://www.w3.org/2000/svg">
<g clip-path="url(#clip0_8148_3249)">
<path d="M240 120C240 186.274 186.274 240 120 240C53.7262 240 0 186.274 0 120C0 120.029 120 0.013125 120 0C186.274 0 240 53.7262 240 120Z" fill="#0052B4"/>
<path d="M119.68 120H120.001C120.001 119.892 120.001 119.787 120.001 119.679C119.894 119.786 119.787 119.893 119.68 120Z" fill="#F0F0F0"/>
<path d="M120 62.6086C120 41.4938 120 27.6586 120 0H119.98C53.7145 0.01125 0 53.7323 0 120H62.6086V84.7448L97.8638 120H119.679C119.786 119.893 119.893 119.786 120 119.679C120 111.594 120 104.381 120 97.8647L84.7444 62.6086H120Z" fill="#F0F0F0"/>
<path d="M60.7105 15.6519C41.9422 26.3389 26.3389 41.9417 15.6523 60.71V120H46.9569V46.9573V46.9564H120C120 37.0831 120 27.6772 120 15.6519H60.7105Z" fill="#D80027"/>
<path d="M172.174 120L139.74 152.434C145.819 164.158 158.057 172.174 172.174 172.174C186.292 172.174 198.53 164.158 204.609 152.434L172.174 120Z" fill="#FFDA44"/>
<path d="M120.001 105.243L77.3656 62.6089H62.6094V62.6098L120 120H120.001C120.001 120 120.001 109.825 120.001 105.243Z" fill="#D80027"/>
<path d="M135.652 62.6084V119.999V120C135.653 147.956 172.174 156.522 172.174 156.522C172.174 156.522 208.695 147.956 208.696 120V119.999V62.6084H135.652Z" fill="#6DA544"/>
<path d="M164.348 88.6953H180V130.434H164.348V88.6953Z" fill="#F0F0F0"/>
<path d="M172.174 96.5216C176.496 96.5216 180 93.0177 180 88.6954C180 84.3731 176.496 80.8691 172.174 80.8691C167.852 80.8691 164.348 84.3731 164.348 88.6954C164.348 93.0177 167.852 96.5216 172.174 96.5216Z" fill="#A2001D"/>
<path d="M146.086 73.0435H156.521V83.4783H146.086V73.0435Z" fill="#FFDA44"/>
<path d="M146.086 96.522H156.521V106.957H146.086V96.522Z" fill="#FFDA44"/>
<path d="M146.086 120H156.521V130.435H146.086V120Z" fill="#FFDA44"/>
<path d="M187.826 73.0435H198.261V83.4783H187.826V73.0435Z" fill="#FFDA44"/>
<path d="M187.826 96.522H198.261V106.957H187.826V96.522Z" fill="#FFDA44"/>
<path d="M187.826 120H198.261V130.435H187.826V120Z" fill="#FFDA44"/>
</g>
<defs>
<clipPath id="clip0_8148_3249">
<rect width="240" height="240" fill="white"/>
</clipPath>
</defs>
</svg>
