<svg width="240" height="240" viewBox="0 0 240 240" fill="none" xmlns="http://www.w3.org/2000/svg">
<g clip-path="url(#clip0_8148_3271)">
<path d="M120.002 239.983C186.266 239.983 239.984 186.265 239.984 120C239.984 53.736 186.266 0.0180664 120.002 0.0180664C53.7375 0.0180664 0.0195312 53.736 0.0195312 120C0.0195312 186.265 53.7375 239.983 120.002 239.983Z" fill="#F0F0F0"/>
<path d="M16.0921 60.0088C10.6765 69.3877 6.6817 79.1933 4.02148 89.1811L204.678 205.031C211.998 197.733 218.493 189.37 223.907 179.991L16.0921 60.0088Z" fill="black"/>
<path d="M179.99 16.092C131.982 -11.6253 72.7869 -2.38742 35.3203 34.969L235.977 150.818C249.596 99.694 227.998 43.8098 179.99 16.092Z" fill="#FFDA44"/>
<path d="M60.0089 223.908C108.016 251.625 167.213 242.387 204.679 205.031L4.02159 89.1812C-9.59636 140.306 12.0004 196.191 60.0089 223.908Z" fill="#FFDA44"/>
<path d="M153.907 106.959C153.907 125.685 138.726 140.867 119.999 140.867C101.272 140.867 86.0906 125.686 86.0906 106.959C86.0906 101.12 87.5668 95.6254 90.1665 90.8286C82.8084 98.3536 78.2656 108.644 78.2656 120C78.2656 143.048 96.9499 161.733 119.999 161.733C143.048 161.733 161.732 143.049 161.732 120C161.732 108.644 157.19 98.3536 149.831 90.8286C152.431 95.6264 153.907 101.12 153.907 106.959Z" fill="#D80027"/>
<path d="M112.176 67.8345H127.826V146.084H112.176V67.8345Z" fill="#D80027"/>
<path d="M146.082 83.4839H93.916C93.916 87.0854 97.0534 90.0048 100.654 90.0048H100.437C100.437 93.6063 103.357 96.5257 106.958 96.5257C106.958 100.127 109.878 103.047 113.479 103.047H126.52C130.122 103.047 133.041 100.127 133.041 96.5257C136.643 96.5257 139.562 93.6063 139.562 90.0048H139.345C142.945 90.0043 146.082 87.0858 146.082 83.4839Z" fill="#D80027"/>
<path d="M83.4844 151.3H156.517V166.95H83.4844V151.3Z" fill="#D80027"/>
<path d="M135.65 156.517H166.95V172.167H135.65V156.517Z" fill="#D80027"/>
<path d="M73.0508 156.517H104.35V172.167H73.0508V156.517Z" fill="#D80027"/>
</g>
<defs>
<clipPath id="clip0_8148_3271">
<rect width="240" height="240" fill="white"/>
</clipPath>
</defs>
</svg>
