<svg width="240" height="240" viewBox="0 0 240 240" fill="none" xmlns="http://www.w3.org/2000/svg">
<g clip-path="url(#clip0_8148_3284)">
<path d="M240 120C240 105.322 237.36 91.2605 232.536 78.2611L120 73.0435L7.46391 78.2606C2.64047 91.2605 0 105.322 0 120C0 134.678 2.64047 148.74 7.46391 161.739L120 166.957L232.536 161.739C237.36 148.74 240 134.678 240 120Z" fill="#496E2D"/>
<path d="M120.001 240C171.597 240 215.582 207.435 232.537 161.739H7.46484C24.42 207.435 68.4052 240 120.001 240Z" fill="#D80027"/>
<path d="M7.46484 78.2611H232.538C215.582 32.565 171.597 0 120.001 0C68.4052 0 24.42 32.565 7.46484 78.2611Z" fill="#F0F0F0"/>
</g>
<defs>
<clipPath id="clip0_8148_3284">
<rect width="240" height="240" fill="white"/>
</clipPath>
</defs>
</svg>
