<svg width="240" height="240" viewBox="0 0 240 240" fill="none" xmlns="http://www.w3.org/2000/svg">
<g clip-path="url(#clip0_8148_3288)">
<path d="M0 120C0 53.7262 53.7262 0 120 0C186.274 0 240 53.7262 240 120C234.783 120 120 135.652 120 135.652L0 120Z" fill="#D80027"/>
<path d="M240 120C240 186.274 186.274 240 120 240C53.7262 240 0 186.274 0 120" fill="#6DA544"/>
<path d="M119.999 78.2612L129.063 106.16H158.401L134.667 123.404L143.732 151.305L119.999 134.062L96.2658 151.305L105.332 123.404L81.5977 106.16H110.934L119.999 78.2612Z" fill="#FFDA44"/>
</g>
<defs>
<clipPath id="clip0_8148_3288">
<rect width="240" height="240" fill="white"/>
</clipPath>
</defs>
</svg>
