<svg width="240" height="240" viewBox="0 0 240 240" fill="none" xmlns="http://www.w3.org/2000/svg">
<g clip-path="url(#clip0_8148_3292)">
<path d="M120 240C186.274 240 240 186.274 240 120C240 53.7258 186.274 0 120 0C53.7258 0 0 53.7258 0 120C0 186.274 53.7258 240 120 240Z" fill="#F0F0F0"/>
<path d="M193.067 24.7978C150.105 -8.26129 89.8955 -8.26129 46.9336 24.7973L120 97.8642L193.067 24.7978Z" fill="#D80027"/>
<path d="M120 142.136L46.9336 215.202C89.8955 248.261 150.105 248.261 193.067 215.202L120 142.135L120 142.136Z" fill="#D80027"/>
<path d="M97.8646 120L24.7982 46.9331C-8.26086 89.895 -8.26086 150.105 24.7982 193.067L97.8646 120Z" fill="#6DA544"/>
<path d="M142.137 120L215.203 193.067C248.262 150.105 248.262 89.895 215.203 46.9331L142.137 120Z" fill="#6DA544"/>
<path d="M120 172.174C148.815 172.174 172.174 148.815 172.174 120C172.174 91.1852 148.815 67.8262 120 67.8262C91.1852 67.8262 67.8262 91.1852 67.8262 120C67.8262 148.815 91.1852 172.174 120 172.174Z" fill="#F0F0F0"/>
<path d="M120 83.4785L124.518 91.3048H133.555L129.037 99.1305L133.555 106.957H124.518L120 114.783L115.482 106.957H106.445L110.964 99.1305L106.445 91.3048H115.482L120 83.4785Z" fill="#D80027"/>
<path d="M97.0338 120L101.552 127.826H110.589L106.07 135.652L110.589 143.478H101.552L97.0338 151.305L92.5151 143.478H83.4785L87.9968 135.652L83.4785 127.826H92.5151L97.0338 120Z" fill="#D80027"/>
<path d="M142.967 120L147.486 127.826H156.522L152.004 135.652L156.522 143.478H147.486L142.967 151.305L138.449 143.478H129.412L133.93 135.652L129.412 127.826H138.449L142.967 120Z" fill="#D80027"/>
</g>
<defs>
<clipPath id="clip0_8148_3292">
<rect width="240" height="240" fill="white"/>
</clipPath>
</defs>
</svg>
