<svg width="240" height="240" viewBox="0 0 240 240" fill="none" xmlns="http://www.w3.org/2000/svg">
<g clip-path="url(#clip0_8148_3305)">
<path d="M0 120C0 140.789 5.28891 160.343 14.5908 177.391L120 187.826L225.409 177.391C234.711 160.343 240 140.789 240 120C240 99.211 234.711 79.6576 225.409 62.6087L120 52.1738L14.5908 62.6087C5.28891 79.6576 0 99.211 0 120H0Z" fill="#D80027"/>
<path d="M14.5898 62.6086H225.408C205.056 25.3073 165.484 0 119.999 0C74.5139 0 34.9425 25.3073 14.5898 62.6086Z" fill="#0052B4"/>
<path d="M119.999 240C165.484 240 205.056 214.693 225.408 177.392H14.5898C34.9425 214.693 74.5139 240 119.999 240Z" fill="#0052B4"/>
<path d="M161.739 143.478V127.826H151.304V106.956L140.87 96.5215L130.435 106.956V86.0867L120 75.6519L109.565 86.0867V106.956L99.1302 96.5215L88.6954 106.956V127.826H78.261V143.478H67.8262V159.13H172.174V143.478H161.739Z" fill="#F0F0F0"/>
</g>
<defs>
<clipPath id="clip0_8148_3305">
<rect width="240" height="240" fill="white"/>
</clipPath>
</defs>
</svg>
