<svg width="240" height="240" viewBox="0 0 240 240" fill="none" xmlns="http://www.w3.org/2000/svg">
<g clip-path="url(#clip0_8148_3311)">
<path d="M172.173 11.9072C156.397 4.27875 138.698 0 119.999 0C101.301 0 83.6017 4.27875 67.8255 11.9072L57.3906 120L67.8255 228.093C83.6017 235.721 101.301 240 119.999 240C138.698 240 156.397 235.721 172.173 228.093L182.608 120L172.173 11.9072Z" fill="#D80027"/>
<path d="M120 78.2612L130.359 110.145H163.888L136.764 129.853L147.124 161.739L120 142.032L92.8753 161.739L103.237 129.853L76.1133 110.145H109.64L120 78.2612Z" fill="#FFDA44"/>
<path d="M67.8262 11.9116C27.6872 31.3207 0 72.4249 0 120C0 167.576 27.6872 208.68 67.8262 228.089V11.9116Z" fill="#496E2D"/>
<path d="M172.174 11.9116V228.089C212.313 208.68 240 167.575 240 120C240 72.4254 212.313 31.3207 172.174 11.9116Z" fill="#FFDA44"/>
</g>
<defs>
<clipPath id="clip0_8148_3311">
<rect width="240" height="240" fill="white"/>
</clipPath>
</defs>
</svg>
