<svg width="240" height="240" viewBox="0 0 240 240" fill="none" xmlns="http://www.w3.org/2000/svg">
<g clip-path="url(#clip0_8148_3316)">
<path d="M120 240C186.274 240 240 186.274 240 120C240 53.7258 186.274 0 120 0C53.7258 0 0 53.7258 0 120C0 186.274 53.7258 240 120 240Z" fill="#F0F0F0"/>
<path d="M240 120C240 72.4247 212.313 31.3172 172.174 11.9072V228.092C212.313 208.683 240 167.575 240 120Z" fill="#D80027"/>
<path d="M0 120C0 167.575 27.6867 208.683 67.8262 228.093V11.9072C27.6867 31.3172 0 72.4247 0 120Z" fill="#D80027"/>
<path d="M140.87 135.652L161.74 125.217L151.305 120V109.565L130.435 120L140.87 99.1305H130.435L120.001 83.4785L109.566 99.1305H99.1309L109.566 120L88.6961 109.565V120L78.2617 125.217L99.1309 135.652L93.9138 146.087H114.783V161.739H125.218V146.087H146.088L140.87 135.652Z" fill="#D80027"/>
</g>
<defs>
<clipPath id="clip0_8148_3316">
<rect width="240" height="240" fill="white"/>
</clipPath>
</defs>
</svg>
