<svg width="240" height="240" viewBox="0 0 240 240" fill="none" xmlns="http://www.w3.org/2000/svg">
<g clip-path="url(#clip0_8148_3326)">
<path d="M120 240C186.274 240 240 186.274 240 120C240 53.7258 186.274 0 120 0C53.7258 0 0 53.7258 0 120C0 186.274 53.7258 240 120 240Z" fill="#F0F0F0"/>
<path d="M119.999 240C156.37 240 188.959 223.817 210.965 198.261H29.0332C51.0396 223.817 83.6285 240 119.999 240Z" fill="#0052B4"/>
<path d="M240 120C240 53.7262 186.274 0 120 0C53.7262 0 0 53.7262 0 120C0 130.831 1.44375 141.323 4.13391 151.305H235.867C238.556 141.323 240 130.831 240 120Z" fill="#0052B4"/>
<path d="M9.53906 166.957C11.8523 172.392 14.5566 177.62 17.6142 182.609H222.389C225.445 177.619 228.15 172.392 230.464 166.957H9.53906Z" fill="#D80027"/>
<path d="M85.7773 127.826L87.7198 133.805H94.0062L88.9207 137.5L90.8632 143.478L85.7773 139.783L80.6913 143.478L82.6343 137.5L77.5488 133.805H83.8352L85.7773 127.826Z" fill="#FFDA44"/>
<path d="M85.7773 206.087L87.7198 212.066H94.0062L88.9207 215.761L90.8632 221.739L85.7773 218.044L80.6913 221.739L82.6343 215.761L77.5488 212.066H83.8352L85.7773 206.087Z" fill="#FFDA44"/>
<path d="M49.3476 179.62L51.2901 185.598H57.5765L52.491 189.292L54.4335 195.272L49.3476 191.577L44.2616 195.272L46.2051 189.292L41.1191 185.598H47.4051L49.3476 179.62Z" fill="#FFDA44"/>
<path d="M63.2621 135.652L65.2046 141.631H71.4905L66.4055 145.325L68.3481 151.304L63.2621 147.609L58.1762 151.304L60.1196 145.325L55.0332 141.631H61.3196L63.2621 135.652Z" fill="#FFDA44"/>
<path d="M41.1191 160.272L47.4041 160.273L49.3471 154.293L51.2901 160.272L57.5765 160.272L52.4905 163.967L54.4335 169.946L49.3471 166.251L44.2616 169.945L46.2041 163.967L41.1191 160.272Z" fill="#FFDA44"/>
<path d="M58.1771 212.771L60.1196 206.793L55.0332 203.099H61.3196L63.2626 197.12L65.2055 203.098H71.4915L66.4055 206.793L68.348 212.772L63.2621 209.077L58.1771 212.771Z" fill="#FFDA44"/>
<path d="M122.193 179.62L120.251 185.598H113.965L119.05 189.292L117.107 195.272L122.193 191.577L127.279 195.272L125.336 189.292L130.422 185.598H124.136L122.193 179.62Z" fill="#FFDA44"/>
<path d="M108.277 135.652L106.335 141.631H100.049L105.134 145.325L103.191 151.304L108.277 147.609L113.363 151.304L111.42 145.325L116.506 141.631H110.22L108.277 135.652Z" fill="#FFDA44"/>
<path d="M130.422 160.272L124.137 160.273L122.194 154.293L120.251 160.272L113.965 160.272L119.05 163.967L117.107 169.946L122.194 166.251L127.279 169.945L125.337 163.967L130.422 160.272Z" fill="#FFDA44"/>
<path d="M113.363 212.771L111.421 206.793L116.507 203.099H110.221L108.278 197.12L106.335 203.098H100.049L105.135 206.793L103.192 212.772L108.278 209.077L113.363 212.771Z" fill="#FFDA44"/>
</g>
<defs>
<clipPath id="clip0_8148_3326">
<rect width="240" height="240" fill="white"/>
</clipPath>
</defs>
</svg>
