<svg width="240" height="240" viewBox="0 0 240 240" fill="none" xmlns="http://www.w3.org/2000/svg">
<g clip-path="url(#clip0_8148_3362)">
<path d="M120 240C186.274 240 240 186.274 240 120C240 53.7258 186.274 0 120 0C53.7258 0 0 53.7258 0 120C0 186.274 53.7258 240 120 240Z" fill="#F0F0F0"/>
<path d="M225.408 62.6087C209.902 34.1888 183.238 12.7346 151.303 4.12744L146.086 62.6087H225.408Z" fill="#0052B4"/>
<path d="M14.5898 62.6087H93.9117L88.6945 4.12744C56.76 12.7346 30.0966 34.1893 14.5898 62.6087Z" fill="#0052B4"/>
<path d="M146.086 120V177.391H225.408C234.71 160.342 239.999 140.789 239.999 120H146.086Z" fill="#6DA544"/>
<path d="M93.9131 120H0C0 140.789 5.28891 160.342 14.5908 177.391H93.9127V120H93.9131Z" fill="#6DA544"/>
<path d="M14.5898 177.392C30.0966 205.811 56.76 227.266 88.6945 235.873L93.9117 184.728L14.5898 177.392Z" fill="#FFDA44"/>
<path d="M151.303 235.873C183.238 227.266 209.902 205.811 225.408 177.392L146.086 184.727L151.303 235.873Z" fill="#FFDA44"/>
<path d="M146.086 184.727L225.408 177.392H146.086V184.727Z" fill="#FFDA44"/>
<path d="M93.9122 177.392H14.5898L93.9122 184.727V177.392Z" fill="#FFDA44"/>
<path d="M120 0C109.168 0 98.6769 1.44375 88.6953 4.13391V235.867C98.6769 238.556 109.168 240 120 240C130.831 240 141.323 238.556 151.304 235.866V4.13391C141.323 1.44375 130.831 0 120 0V0Z" fill="#D80027"/>
<path d="M64.5458 26.0869L67.783 36.0511H78.2609L69.785 42.2096L73.0227 52.1738L64.5458 46.0158L56.0694 52.1738L59.308 42.2096L50.832 36.0511H61.3091L64.5458 26.0869Z" fill="#FFDA44"/>
</g>
<defs>
<clipPath id="clip0_8148_3362">
<rect width="240" height="240" fill="white"/>
</clipPath>
</defs>
</svg>
