<svg width="240" height="240" viewBox="0 0 240 240" fill="none" xmlns="http://www.w3.org/2000/svg">
<g clip-path="url(#clip0_8148_3377)">
<path d="M120 240C186.274 240 240 186.274 240 120C240 53.7258 186.274 0 120 0C53.7258 0 0 53.7258 0 120C0 186.274 53.7258 240 120 240Z" fill="#F0F0F0"/>
<path d="M120.002 0C86.8642 0 56.8642 13.4316 35.1484 35.1469L120.002 120V0Z" fill="black"/>
<path d="M0 120C0 153.137 13.4316 183.137 35.1469 204.853L120 120H0Z" fill="black"/>
<path d="M120 240C153.137 240 183.137 226.568 204.853 204.853L120 120V240Z" fill="black"/>
<path d="M240 120C240 86.8627 226.568 56.8628 204.853 35.147L120 120H240Z" fill="black"/>
<path d="M78.2617 83.4781L120.001 88.6967L161.74 83.4781V58.4347L145.044 66.7827L120.001 41.7388L94.9572 66.7827L78.2617 58.4347V83.4781Z" fill="#FFDA44"/>
<path d="M120.001 182.608C96.9855 182.608 78.2617 163.884 78.2617 140.869V99.1324L93.9138 83.479H146.088L161.74 99.1324V140.869C161.74 163.884 143.016 182.608 120.001 182.608Z" fill="#D80027"/>
<path d="M120.001 166.957C105.616 166.957 93.9141 155.254 93.9141 140.87V99.1313H146.088V140.869C146.088 155.254 134.385 166.957 120.001 166.957Z" fill="#F0F0F0"/>
<path d="M78.2617 83.4785H93.9138V99.1305H78.2617V83.4785Z" fill="#FFDA44"/>
<path d="M146.086 83.4785H161.738V99.1305H146.086V83.4785Z" fill="#FFDA44"/>
<path d="M146.086 117.392H161.738V133.044H146.086V117.392Z" fill="#FFDA44"/>
<path d="M78.2617 117.392H93.9138V133.044H78.2617V117.392Z" fill="#FFDA44"/>
<path d="M120.002 166.957C117.276 166.957 114.647 166.535 112.176 165.756V181.863C114.713 182.346 117.326 182.609 120.002 182.609C122.678 182.609 125.291 182.346 127.828 181.863V165.756C125.357 166.534 122.728 166.957 120.002 166.957Z" fill="#FFDA44"/>
<path d="M94.2608 145.104L81.7695 157.596C83.9352 162.527 87.0252 166.96 90.823 170.678L101.885 159.615C97.9377 155.801 95.1875 150.757 94.2608 145.104Z" fill="#FFDA44"/>
<path d="M158.229 157.597L145.737 145.105C144.81 150.758 142.061 155.801 138.113 159.617L149.176 170.679C152.973 166.961 156.063 162.527 158.229 157.597Z" fill="#FFDA44"/>
<path d="M114.781 107.827V116.522C114.781 119.403 117.117 121.739 119.998 121.739C122.88 121.739 125.216 119.403 125.216 116.522V107.827H114.781Z" fill="#0052B4"/>
<path d="M114.781 142.609V151.305C114.781 154.186 117.117 156.522 119.998 156.522C122.88 156.522 125.216 154.186 125.216 151.305V142.609H114.781Z" fill="#0052B4"/>
<path d="M130.434 125.217V133.914C130.434 136.794 132.769 139.131 135.651 139.131C138.532 139.131 140.868 136.794 140.868 133.914V125.217H130.434Z" fill="#0052B4"/>
<path d="M114.781 125.217V133.914C114.781 136.794 117.117 139.131 119.998 139.131C122.88 139.131 125.216 136.794 125.216 133.914V125.217H114.781Z" fill="#0052B4"/>
<path d="M99.1289 125.217V133.914C99.1289 136.794 101.465 139.131 104.346 139.131C107.228 139.131 109.563 136.794 109.563 133.914V125.217H99.1289Z" fill="#0052B4"/>
</g>
<defs>
<clipPath id="clip0_8148_3377">
<rect width="240" height="240" fill="white"/>
</clipPath>
</defs>
</svg>
