<svg width="240" height="240" viewBox="0 0 240 240" fill="none" xmlns="http://www.w3.org/2000/svg">
<g clip-path="url(#clip0_8148_3404)">
<path d="M120 240C186.274 240 240 186.274 240 120C240 53.7258 186.274 0 120 0C53.7258 0 0 53.7258 0 120C0 186.274 53.7258 240 120 240Z" fill="#F0F0F0"/>
<path d="M240 120C240 186.274 186.274 240 120 240C53.7262 240 0 186.274 0 120C0 53.7262 120 120 120 120C120 120 210.825 120 240 120Z" fill="#D80027"/>
<path d="M0 120C0 53.7262 53.7262 0 120 0V120C120 120 41.7389 120 0 120Z" fill="#0052B4"/>
<path d="M71.4332 41.7388L79.2037 65.6535H104.349L84.006 80.4331L91.776 104.348L71.4332 89.5677L51.0904 104.348L58.8604 80.4331L38.5176 65.6535H63.6627L71.4332 41.7388Z" fill="#F0F0F0"/>
</g>
<defs>
<clipPath id="clip0_8148_3404">
<rect width="240" height="240" fill="white"/>
</clipPath>
</defs>
</svg>
