<svg width="240" height="240" viewBox="0 0 240 240" fill="none" xmlns="http://www.w3.org/2000/svg">
<g clip-path="url(#clip0_8148_3409)">
<path d="M120 240C186.274 240 240 186.274 240 120C240 53.7258 186.274 0 120 0C53.7258 0 0 53.7258 0 120C0 186.274 53.7258 240 120 240Z" fill="#D80027"/>
<path d="M65.6719 73.0312L76.0312 104.906H109.547L82.4531 124.641L92.8125 156.516L65.6719 136.828L38.5312 156.516L48.9375 124.641L21.7969 104.906H55.3125L65.6719 73.0312Z" fill="#FFDA44"/>
<path d="M142.266 185.859L134.344 176.109L122.625 180.656L129.422 170.109L121.5 160.313L133.641 163.547L140.484 153L141.141 165.563L153.328 168.797L141.563 173.297L142.266 185.859Z" fill="#FFDA44"/>
<path d="M158.016 157.266L161.766 145.266L151.5 138L164.062 137.813L167.766 125.812L171.844 137.719L184.406 137.578L174.328 145.078L178.359 156.984L168.094 149.719L158.016 157.266Z" fill="#FFDA44"/>
<path d="M179.25 88.0781L173.719 99.375L182.719 108.141L170.297 106.359L164.766 117.609L162.609 105.234L150.141 103.453L161.297 97.5938L159.141 85.1719L168.141 93.9375L179.25 88.0781Z" fill="#FFDA44"/>
<path d="M142.594 53.8594L141.656 66.375L153.328 71.1094L141.094 74.1094L140.203 86.6719L133.594 75.9844L121.359 78.9844L129.469 69.375L122.813 58.7344L134.484 63.4688L142.594 53.8594Z" fill="#FFDA44"/>
</g>
<defs>
<clipPath id="clip0_8148_3409">
<rect width="240" height="240" fill="white"/>
</clipPath>
</defs>
</svg>
