<svg width="240" height="240" viewBox="0 0 240 240" fill="none" xmlns="http://www.w3.org/2000/svg">
<g clip-path="url(#clip0_8148_3417)">
<path d="M120 240C186.274 240 240 186.274 240 120C240 53.7258 186.274 0 120 0C53.7258 0 0 53.7258 0 120C0 186.274 53.7258 240 120 240Z" fill="#6DA544"/>
<path d="M184.211 172.173L187.504 179.059L194.94 177.34L191.61 184.208L197.59 188.95L190.144 190.628L190.165 198.261L184.211 193.486L178.257 198.261L178.277 190.628L170.832 188.95L176.812 184.208L173.482 177.34L180.918 179.059L184.211 172.173Z" fill="#FFDA44"/>
<path d="M153.576 99.1299L156.869 106.015L164.306 104.296L160.975 111.165L166.955 115.906L159.51 117.585L159.53 125.217L153.576 120.442L147.622 125.217L147.642 117.585L140.197 115.906L146.177 111.165L142.847 104.296L150.283 106.015L153.576 99.1299Z" fill="#FFDA44"/>
<path d="M184.21 57.3911L187.503 64.2766L194.939 62.5572L191.61 69.4253L197.589 74.1677L190.144 75.8453L190.164 83.478L184.21 78.7028L178.256 83.478L178.277 75.8453L170.832 74.1677L176.811 69.4253L173.481 62.5572L180.917 64.2766L184.21 57.3911Z" fill="#FFDA44"/>
<path d="M210.968 88.6953L214.261 95.5808L221.698 93.8619L218.368 100.73L224.348 105.472L216.902 107.15L216.923 114.783L210.968 110.008L205.014 114.783L205.035 107.15L197.59 105.472L203.57 100.73L200.239 93.8619L207.675 95.5808L210.968 88.6953Z" fill="#FFDA44"/>
<path d="M191.835 125.217L194.426 133.189H202.807L196.026 138.115L198.617 146.086L191.835 141.16L185.054 146.086L187.644 138.115L180.863 133.189H189.245L191.835 125.217Z" fill="#FFDA44"/>
<path d="M133.043 153.913C114.313 153.913 99.129 138.729 99.129 120C99.129 101.27 114.312 86.0865 133.043 86.0865C138.882 86.0865 144.377 87.5635 149.175 90.1628C141.649 82.8024 131.357 78.2603 119.998 78.2603C96.947 78.2603 78.2598 96.9474 78.2598 119.999C78.2598 143.051 96.947 161.738 119.998 161.738C131.357 161.738 141.649 157.196 149.174 149.836C144.377 152.436 138.882 153.913 133.043 153.913Z" fill="#FFDA44"/>
<path d="M75.4619 46.9563C71.8525 40.7201 65.1142 36.5215 57.3911 36.5215C49.668 36.5215 42.9297 40.7201 39.3203 46.9563H75.4619Z" fill="#FFDA44"/>
<path d="M75.5309 47.0767L57.3907 65.2168L39.2505 47.0767C37.5166 50.1193 36.5215 53.6382 36.5215 57.391C36.5215 68.9171 45.8651 78.2607 57.3912 78.2607C68.9173 78.2607 78.2609 68.9176 78.2609 57.391C78.2604 53.6382 77.2648 50.1193 75.5309 47.0767Z" fill="#FFDA44"/>
<path d="M52.1738 60V77.6034C53.8412 78.0323 55.5896 78.2606 57.391 78.2606C59.1924 78.2606 60.9409 78.0319 62.6082 77.6034V60H52.1738Z" fill="#A2001D"/>
</g>
<defs>
<clipPath id="clip0_8148_3417">
<rect width="240" height="240" fill="white"/>
</clipPath>
</defs>
</svg>
