<svg width="240" height="240" viewBox="0 0 240 240" fill="none" xmlns="http://www.w3.org/2000/svg">
<g clip-path="url(#clip0_8148_3433)">
<path d="M120 240C186.274 240 240 186.274 240 120C240 53.7258 186.274 0 120 0C53.7258 0 0 53.7258 0 120C0 186.274 53.7258 240 120 240Z" fill="#F0F0F0"/>
<path d="M239.996 119.653H109.913C84.0862 145.48 68.4684 165.419 52.5215 181.366L120.348 187.479L225.598 177.044C234.783 160.077 240 140.648 240 120C240 119.884 239.996 119.769 239.996 119.653Z" fill="#D80027"/>
<path d="M52.5213 62.2613H225.214C204.806 25.1513 165.342 0 119.999 0C86.9501 0 57.027 13.3645 35.3262 34.98L52.5213 62.2613Z" fill="#FFDA44"/>
<path d="M57.7386 177.043C46.9508 187.831 42.7817 196.87 34.9766 204.674C56.7055 226.493 86.7734 240 119.999 240C165.626 240 205.303 214.535 225.598 177.043H57.7386Z" fill="#0052B4"/>
<path d="M35.1471 34.7993C-11.7157 81.6621 -11.7157 157.642 35.1471 204.506C54.5126 185.14 73.1374 166.515 120 119.652L35.1471 34.7993Z" fill="#6DA544"/>
<path d="M31.6525 119.653C31.6525 102.169 43.9398 87.5634 60.348 83.9802C57.8261 83.4295 55.2095 83.1309 52.5217 83.1309C32.3509 83.1309 16 99.4818 16 119.653C16 139.823 32.3509 156.174 52.5217 156.174C55.2091 156.174 57.8256 155.876 60.348 155.325C43.9398 151.741 31.6525 137.136 31.6525 119.653Z" fill="#F0F0F0"/>
<path d="M59.9457 88.3481L61.8887 94.3266H68.1746L63.0887 98.0217L65.0316 104L59.9457 100.305L54.8598 104L56.8027 98.0217L51.7168 94.3266H58.0027L59.9457 88.3481Z" fill="#F0F0F0"/>
<path d="M59.9457 104L61.8887 109.979H68.1746L63.0887 113.674L65.0316 119.652L59.9457 115.957L54.8598 119.652L56.8027 113.674L51.7168 109.979H58.0027L59.9457 104Z" fill="#F0F0F0"/>
<path d="M59.9457 119.652L61.8887 125.631H68.1746L63.0887 129.326L65.0316 135.304L59.9457 131.609L54.8598 135.304L56.8027 129.326L51.7168 125.631H58.0027L59.9457 119.652Z" fill="#F0F0F0"/>
<path d="M59.9457 135.305L61.8887 141.283H68.1746L63.0887 144.978L65.0316 150.957L59.9457 147.262L54.8598 150.957L56.8027 144.978L51.7168 141.283H58.0027L59.9457 135.305Z" fill="#F0F0F0"/>
</g>
<defs>
<clipPath id="clip0_8148_3433">
<rect width="240" height="240" fill="white"/>
</clipPath>
</defs>
</svg>
