<svg width="240" height="240" viewBox="0 0 240 240" fill="none" xmlns="http://www.w3.org/2000/svg">
<g clip-path="url(#clip0_8148_3445)">
<path d="M240 120C240 186.274 186.274 240 120 240C53.7262 240 0 186.274 0 120C0 120.029 120 0.013125 120 0C186.274 0 240 53.7262 240 120Z" fill="#0052B4"/>
<path d="M119.68 120H120.001C120.001 119.892 120.001 119.787 120.001 119.679C119.894 119.786 119.787 119.893 119.68 120Z" fill="#F0F0F0"/>
<path d="M120 62.6086C120 41.4938 120 27.6586 120 0H119.98C53.7145 0.01125 0 53.7323 0 120H62.6086V84.7448L97.8638 120H119.679C119.786 119.893 119.893 119.786 120 119.679C120 111.594 120 104.381 120 97.8647L84.7444 62.6086H120Z" fill="#F0F0F0"/>
<path d="M60.7105 15.6519C41.9422 26.3389 26.3389 41.9417 15.6523 60.71V120H46.9569V46.9573V46.9564H120C120 37.0831 120 27.6772 120 15.6519H60.7105Z" fill="#D80027"/>
<path d="M120.001 105.243L77.3656 62.6089H62.6094V62.6098L120 120H120.001C120.001 120 120.001 109.825 120.001 105.243Z" fill="#D80027"/>
<path d="M161.74 120L163.96 126.832H171.144L165.333 131.055L167.553 137.888L161.74 133.665L155.928 137.888L158.148 131.055L152.336 126.832H159.52L161.74 120Z" fill="#F0F0F0"/>
<path d="M132.225 132.225L138.626 135.487L143.706 130.407L142.582 137.503L148.983 140.764L141.887 141.887L140.764 148.984L137.502 142.583L130.406 143.707L135.487 138.627L132.225 132.225Z" fill="#F0F0F0"/>
<path d="M120 161.739L126.832 159.519L126.833 152.336L131.055 158.147L137.888 155.927L133.665 161.739L137.888 167.552L131.055 165.332L126.833 171.144V163.96L120 161.739Z" fill="#F0F0F0"/>
<path d="M132.225 191.253L135.486 184.852L130.406 179.772L137.502 180.896L140.764 174.495L141.887 181.591L148.983 182.714L142.582 185.976L143.706 193.072L138.626 187.991L132.225 191.253Z" fill="#F0F0F0"/>
<path d="M161.738 203.478L159.518 196.645H152.334L158.146 192.423L155.926 185.59L161.738 189.813L167.551 185.59L165.331 192.423L171.143 196.645H163.959L161.738 203.478Z" fill="#F0F0F0"/>
<path d="M191.252 191.253L184.851 187.992L179.772 193.072L180.895 185.976L174.494 182.715L181.59 181.591L182.714 174.495L185.975 180.896L193.071 179.772L187.99 184.852L191.252 191.253Z" fill="#F0F0F0"/>
<path d="M203.478 161.739L196.645 163.96V171.144L192.422 165.332L185.59 167.552L189.813 161.739L185.59 155.927L192.422 158.147L196.645 152.336V159.519L203.478 161.739Z" fill="#F0F0F0"/>
<path d="M191.252 132.226L187.992 138.627L193.071 143.707L185.975 142.583L182.714 148.984L181.59 141.887L174.494 140.764L180.895 137.503L179.772 130.407L184.852 135.487L191.252 132.226Z" fill="#F0F0F0"/>
</g>
<defs>
<clipPath id="clip0_8148_3445">
<rect width="240" height="240" fill="white"/>
</clipPath>
</defs>
</svg>
