<svg width="240" height="240" viewBox="0 0 240 240" fill="none" xmlns="http://www.w3.org/2000/svg">
<g clip-path="url(#clip0_8148_3463)">
<path d="M120 240C186.274 240 240 186.274 240 120C240 53.7258 186.274 0 120 0C53.7258 0 0 53.7258 0 120C0 186.274 53.7258 240 120 240Z" fill="#FCFCFC"/>
<path d="M161.782 101.64C161.782 76.2604 141.207 55.6865 115.828 55.6865C97.0993 55.6865 80.9991 66.8943 73.8404 82.965L68.1727 103.513L73.3899 108.73L62.9551 129.599L73.3899 134.817L68.1727 140.034V145.251L73.3899 150.468V160.903L78.6071 166.12L94.2591 160.903C94.2591 160.903 94.2591 166.12 99.4763 171.338C104.694 176.555 109.912 186.99 109.912 186.99C109.912 186.99 125.564 192.208 135.999 176.556C146.433 160.904 156.868 155.686 156.868 155.686L146.811 135.57C156.009 127.169 161.782 115.081 161.782 101.64Z" fill="black"/>
<path d="M165.528 119.213C186.729 115.637 190.261 74.1221 190.261 74.1221H161.043C176.174 110.644 160.337 113.101 160.337 113.101C158.192 111.504 81.4113 75.1313 78.9775 74.2064C78.3911 74.9911 76.2325 77.0522 73.6084 83.4694C70.9839 89.8866 70.3398 95.6597 70.3398 95.6597C71.5689 96.4608 153.109 124.933 155.265 125.17C159.542 127.967 164.805 136.33 161.864 161.126L189.986 153.2C189.987 153.2 180.443 127.811 165.528 119.213Z" fill="#ACABB1"/>
</g>
<defs>
<clipPath id="clip0_8148_3463">
<rect width="240" height="240" fill="white"/>
</clipPath>
</defs>
</svg>
