<svg width="240" height="240" viewBox="0 0 240 240" fill="none" xmlns="http://www.w3.org/2000/svg">
<g clip-path="url(#clip0_8148_3467)">
<path d="M120 240C186.274 240 240 186.274 240 120C240 53.7258 186.274 0 120 0C53.7258 0 0 53.7258 0 120C0 186.274 53.7258 240 120 240Z" fill="#F0F0F0"/>
<path d="M232.536 78.2612H7.46391C2.64047 91.2611 0 105.322 0 120C0 134.679 2.64047 148.739 7.46391 161.739H232.537C237.36 148.739 240 134.679 240 120C240 105.322 237.36 91.2611 232.536 78.2612Z" fill="#D80027"/>
<path d="M119.999 0C83.6285 0 51.0396 16.1831 29.0332 41.7389H210.965C188.959 16.1831 156.37 0 119.999 0Z" fill="#0052B4"/>
<path d="M210.965 198.261H29.0332C51.0396 223.817 83.6285 240 119.999 240C156.37 240 188.959 223.817 210.965 198.261Z" fill="#0052B4"/>
</g>
<defs>
<clipPath id="clip0_8148_3467">
<rect width="240" height="240" fill="white"/>
</clipPath>
</defs>
</svg>
