<svg width="240" height="240" viewBox="0 0 240 240" fill="none" xmlns="http://www.w3.org/2000/svg">
<g clip-path="url(#clip0_8148_3473)">
<path d="M240 120C240 105.322 237.36 91.2605 232.536 78.2611L120 73.0435L7.46391 78.2606C2.64047 91.2605 0 105.322 0 120C0 134.678 2.64047 148.74 7.46391 161.739L120 166.957L232.536 161.739C237.36 148.74 240 134.678 240 120Z" fill="#F0F0F0"/>
<path d="M120.001 240C171.597 240 215.582 207.435 232.537 161.739H7.46484C24.42 207.435 68.4052 240 120.001 240Z" fill="#0052B4"/>
<path d="M7.46484 78.2611H232.538C215.582 32.565 171.597 0 120.001 0C68.4052 0 24.42 32.565 7.46484 78.2611Z" fill="#D80027"/>
<path d="M151.305 83.4787H130.436L133.914 57.3914L147.827 46.9565L161.74 57.3914V78.2611L151.305 83.4787Z" fill="#338AF3"/>
<path d="M88.6961 83.4787H109.566L106.087 57.3914L92.1742 46.9565L78.2617 57.3914V78.2611L88.6961 83.4787Z" fill="#338AF3"/>
<path d="M133.913 83.4787H106.086V57.3914L119.999 46.9565L133.913 57.3914V83.4787Z" fill="#0052B4"/>
<path d="M78.2617 78.2617V135.653C78.2617 149.318 84.8627 161.471 95.0439 169.09L102.348 167.262L111.566 176.535C114.292 177.096 117.112 177.392 120.001 177.392C122.875 177.392 125.681 177.1 128.392 176.544L138.914 167.783L144.957 169.073C155.134 161.455 161.74 149.314 161.74 135.653V78.2617H78.2617Z" fill="#F0F0F0"/>
<path d="M78.2617 78.2612H94.9572V94.9567H78.2617V78.2612Z" fill="#D80027"/>
<path d="M111.652 78.2612H128.348V94.9567H111.652V78.2612Z" fill="#D80027"/>
<path d="M145.045 78.2612H161.74V94.9567H145.045V78.2612Z" fill="#D80027"/>
<path d="M94.957 94.9565H111.652V111.652H94.957V94.9565Z" fill="#D80027"/>
<path d="M128.348 94.9565H145.043V111.652H128.348V94.9565Z" fill="#D80027"/>
<path d="M78.2617 111.647H94.9572V128.342H78.2617V111.647Z" fill="#D80027"/>
<path d="M94.957 128.343H111.652V145.038H94.957V128.343Z" fill="#D80027"/>
<path d="M111.652 111.647H128.348V128.342H111.652V111.647Z" fill="#D80027"/>
<path d="M145.045 111.647H161.74V128.342H145.045V111.647Z" fill="#D80027"/>
<path d="M128.348 128.343H145.043V145.038H128.348V128.343Z" fill="#D80027"/>
<path d="M111.652 145.039H128.348V161.734H111.652V145.039Z" fill="#D80027"/>
<path d="M94.9581 145.04H79.3398C80.7723 151.246 83.5886 156.925 87.4502 161.736H94.9581V145.04Z" fill="#D80027"/>
<path d="M145.045 161.736H152.552C156.415 156.926 159.23 151.246 160.663 145.041H145.045V161.736Z" fill="#D80027"/>
<path d="M94.957 161.736V169.021C99.8128 172.675 105.487 175.294 111.652 176.552V161.736H94.957Z" fill="#D80027"/>
<path d="M128.348 161.736V176.552C134.513 175.295 140.187 172.675 145.043 169.021V161.736H128.348Z" fill="#D80027"/>
</g>
<defs>
<clipPath id="clip0_8148_3473">
<rect width="240" height="240" fill="white"/>
</clipPath>
</defs>
</svg>
