<svg width="240" height="240" viewBox="0 0 240 240" fill="none" xmlns="http://www.w3.org/2000/svg">
<g clip-path="url(#clip0_8148_3498)">
<path d="M120 240C186.273 240 239.999 186.274 239.999 120C239.999 53.7261 186.273 0.000488281 120 0.000488281C53.7256 0.000488281 0 53.7261 0 120C0 186.274 53.7256 240 120 240Z" fill="#F0F0F0"/>
<path d="M120.001 0.000976562C80.7425 0.000976562 45.8891 18.8555 23.9961 48.001H216.006C194.113 18.855 159.26 0.000976562 120.001 0.000976562Z" fill="#0052B4"/>
<path d="M120.001 240C159.26 240 194.113 221.145 216.006 192H23.9961C45.8886 221.145 80.7425 240 120.001 240Z" fill="#0052B4"/>
<path d="M0 120C0 128.22 0.82875 136.246 2.40328 144H237.597C239.172 136.246 240 128.22 240 120C240 111.781 239.171 103.755 237.597 96.0005H2.40328C0.82875 103.755 0 111.781 0 120Z" fill="#0052B4"/>
<path d="M35.1468 35.1479C-11.7156 82.0103 -11.7156 157.99 35.1468 204.854C54.5122 185.488 73.1366 166.863 119.999 120.001L35.1468 35.1479Z" fill="#D80027"/>
<path d="M48.5675 88.6963L56.3366 112.61H81.4831L61.1408 127.39L68.9098 151.304L48.5675 136.524L28.2242 151.304L35.9952 127.39L15.6523 112.61H40.797L48.5675 88.6963Z" fill="#F0F0F0"/>
</g>
<defs>
<clipPath id="clip0_8148_3498">
<rect width="240" height="240" fill="white"/>
</clipPath>
</defs>
</svg>
