<svg width="240" height="240" viewBox="0 0 240 240" fill="none" xmlns="http://www.w3.org/2000/svg">
<g clip-path="url(#clip0_8148_3507)">
<path d="M120 240C186.274 240 240 186.274 240 120C240 53.7258 186.274 0 120 0C53.7258 0 0 53.7258 0 120C0 186.274 53.7258 240 120 240Z" fill="#FFDA44"/>
<path d="M120.002 240C159.377 240 194.322 221.035 216.203 191.743H23.8008C45.682 221.035 80.6269 240 120.002 240Z" fill="#0052B4"/>
<path d="M240 120C240 53.7262 186.274 0 120 0C53.7262 0 0 53.7262 0 120C0 134.19 2.46984 147.803 6.99188 160.439H233.008C237.53 147.803 240 134.19 240 120Z" fill="#0052B4"/>
<path d="M82.1359 76.9604L88.6108 96.8879H109.566L92.6134 109.206L99.0883 129.134L82.1359 116.817L65.1836 129.134L71.6594 109.206L54.707 96.8879H75.6611L82.1359 76.9604Z" fill="#F0F0F0"/>
<path d="M46.1522 56.0908L50.0372 68.0477H62.6105L52.4391 75.438L56.3241 87.3953L46.1522 80.005L35.9808 87.3953L39.8662 75.438L29.6953 68.0477H42.2681L46.1522 56.0908Z" fill="#F0F0F0"/>
</g>
<defs>
<clipPath id="clip0_8148_3507">
<rect width="240" height="240" fill="white"/>
</clipPath>
</defs>
</svg>
