<svg width="240" height="240" viewBox="0 0 240 240" fill="none" xmlns="http://www.w3.org/2000/svg">
<g clip-path="url(#clip0_8148_3515)">
<path d="M120 240C186.274 240 240 186.274 240 120C240 53.7258 186.274 0 120 0C53.7258 0 0 53.7258 0 120C0 186.274 53.7258 240 120 240Z" fill="#FCFCFC"/>
<path d="M187.827 104.348C184.175 104.348 179.653 104.348 172.175 104.348C172.175 133.163 148.816 156.522 120.002 156.522C91.1861 156.522 67.8278 133.163 67.8278 104.348C62.7841 104.348 57.2186 104.348 52.1758 104.348C52.1758 135.386 73.0239 161.555 101.482 169.615C98.3617 175.541 98.837 183.003 103.294 188.565C109.148 183.873 115.208 179.017 120.349 174.897C125.491 179.017 131.552 183.874 137.405 188.565C141.906 182.948 142.349 175.391 139.125 169.436C167.271 161.179 187.827 135.166 187.827 104.348Z" fill="#6DA544"/>
<path d="M78.2617 99.1301C78.2617 99.1301 78.2617 125.217 104.349 125.217L109.566 130.434H120.001C120.001 130.434 125.218 114.782 135.653 114.782C135.653 114.782 135.653 104.347 146.088 104.347C156.522 104.347 161.74 104.347 161.74 104.347C161.74 104.347 156.522 83.4776 182.609 67.8256L172.174 62.6084C172.174 62.6084 135.653 88.6953 109.566 83.4781V93.9129H99.1309L93.9138 88.6957L78.2617 99.1301Z" fill="#FFDA44"/>
</g>
<defs>
<clipPath id="clip0_8148_3515">
<rect width="240" height="240" fill="white"/>
</clipPath>
</defs>
</svg>
