<svg width="240" height="240" viewBox="0 0 240 240" fill="none" xmlns="http://www.w3.org/2000/svg">
<g clip-path="url(#clip0_8148_3519)">
<path d="M120 240C186.274 240 240 186.274 240 120C240 53.7258 186.274 0 120 0C53.7258 0 0 53.7258 0 120C0 186.274 53.7258 240 120 240Z" fill="#F0F0F0"/>
<path d="M109.567 120C109.567 120 35.2188 204.87 35.1484 204.853C56.8638 226.568 86.8642 240 120.002 240C186.275 240 240.002 186.274 240.002 120H109.567Z" fill="#D80027"/>
<path d="M35.1471 35.147C-11.7157 82.0098 -11.7157 157.99 35.1471 204.853C54.5126 185.488 73.1374 166.863 120 120L35.1471 35.147Z" fill="#0052B4"/>
</g>
<defs>
<clipPath id="clip0_8148_3519">
<rect width="240" height="240" fill="white"/>
</clipPath>
</defs>
</svg>
