<svg width="240" height="240" viewBox="0 0 240 240" fill="none" xmlns="http://www.w3.org/2000/svg">
<g clip-path="url(#clip0_8148_3523)">
<path d="M226.676 64.9763C221.131 54.233 213.863 44.1493 204.857 35.1436C195.851 26.1375 185.767 18.8696 175.024 13.3252L90.4857 90.4843L13.3262 175.023C18.871 185.766 26.139 195.85 35.1446 204.856C44.1502 213.862 54.2345 221.13 64.9773 226.674L149.516 149.515L226.676 64.9763Z" fill="#FFDA44"/>
<path d="M35.1436 204.856C40.1775 209.89 45.5489 214.38 51.1828 218.333L218.332 51.1828C214.38 45.5489 209.89 40.1775 204.856 35.1436C199.822 30.1097 194.451 25.6205 188.817 21.668L21.668 188.817C25.62 194.45 30.1092 199.822 35.1436 204.856Z" fill="#D80027"/>
<path d="M35.1441 35.1431C-2.71541 73.0026 -9.98338 129.861 13.3257 175.023L175.024 13.3251C129.862 -9.98347 73.0032 -2.71457 35.1441 35.1431Z" fill="#338AF3"/>
<path d="M204.856 204.857C242.715 166.998 249.982 110.139 226.675 64.9775L64.9766 226.675C110.138 249.984 166.997 242.716 204.856 204.857Z" fill="#338AF3"/>
<path d="M63.9488 36.5176L70.4241 56.4474H91.3791L74.4263 68.7643L80.9016 88.6937L63.9488 76.3763L46.9951 88.6937L53.4713 68.7643L36.5176 56.4474H57.4726L63.9488 36.5176Z" fill="#FFDA44"/>
</g>
<defs>
<clipPath id="clip0_8148_3523">
<rect width="240" height="240" fill="white"/>
</clipPath>
</defs>
</svg>
