<svg width="240" height="240" viewBox="0 0 240 240" fill="none" xmlns="http://www.w3.org/2000/svg">
<g clip-path="url(#clip0_8148_3530)">
<path d="M120 240C186.274 240 240 186.274 240 120C240 53.7258 186.274 0 120 0C53.7258 0 0 53.7258 0 120C0 186.274 53.7258 240 120 240Z" fill="#F0F0F0"/>
<path d="M93.9126 104.348H238.983C231.313 45.4697 180.968 0 119.999 0C111.039 0 102.312 0.990469 93.9121 2.85234V104.348H93.9126Z" fill="#D80027"/>
<path d="M62.6084 104.348V14.5908C29.6586 32.5693 6.07016 65.5463 1.01562 104.348H62.6084V104.348Z" fill="#D80027"/>
<path d="M62.608 135.652H1.01562C6.07016 174.454 29.6586 207.431 62.6084 225.409L62.608 135.652Z" fill="#D80027"/>
<path d="M93.9121 135.653V237.148C102.312 239.01 111.039 240 119.999 240C180.968 240 231.313 194.531 238.983 135.652H93.9121V135.653Z" fill="#D80027"/>
</g>
<defs>
<clipPath id="clip0_8148_3530">
<rect width="240" height="240" fill="white"/>
</clipPath>
</defs>
</svg>
