<svg width="240" height="240" viewBox="0 0 240 240" fill="none" xmlns="http://www.w3.org/2000/svg">
<g clip-path="url(#clip0_8148_3537)">
<path d="M109.565 130.435C109.565 130.435 35.2168 35.1305 35.1465 35.1473C56.8618 13.4316 86.8623 0 120 0C186.273 0 240 53.7263 240 120L109.565 130.435Z" fill="#338AF3"/>
<path d="M109.565 120C109.565 120 35.2168 204.87 35.1465 204.853C56.8618 226.568 86.8623 240 120 240C186.273 240 240 186.274 240 120H109.565Z" fill="#6DA544"/>
<path d="M35.1471 35.1465C-11.7157 82.0093 -11.7157 157.989 35.1471 204.853C54.5126 185.487 73.1374 166.862 120 120L35.1471 35.1465Z" fill="#F0F0F0"/>
<path d="M48.5675 88.6953L56.337 112.609H81.4836L61.1408 127.39L68.9098 151.304L48.5675 136.524L28.2242 151.304L35.9952 127.39L15.6523 112.609H40.797L48.5675 88.6953Z" fill="#D80027"/>
</g>
<defs>
<clipPath id="clip0_8148_3537">
<rect width="240" height="240" fill="white"/>
</clipPath>
</defs>
</svg>
