<svg width="240" height="240" viewBox="0 0 240 240" fill="none" xmlns="http://www.w3.org/2000/svg">
<g clip-path="url(#clip0_8148_3542)">
<path d="M120 240C186.274 240 240 186.274 240 120C240 53.7258 186.274 0 120 0C53.7258 0 0 53.7258 0 120C0 186.274 53.7258 240 120 240Z" fill="#F0F0F0"/>
<path d="M143.479 237.697C190.917 228.287 228.287 190.917 237.697 143.479H143.479V237.697Z" fill="#496E2D"/>
<path d="M2.30273 143.479C11.7129 190.917 49.0826 228.287 96.5215 237.697V143.479H2.30273Z" fill="#496E2D"/>
<path d="M237.697 96.5215C228.287 49.083 190.917 11.7134 143.479 2.30273V96.5215H237.697Z" fill="#496E2D"/>
<path d="M96.5215 2.30273C49.0826 11.7134 11.7129 49.083 2.30273 96.5215H96.5215V2.30273Z" fill="#496E2D"/>
<path d="M112.174 143.479H96.5215V237.697C101.629 238.71 106.855 239.396 112.174 239.739V143.479Z" fill="#FFDA44"/>
<path d="M112.174 96.5219V0.26123C106.855 0.603418 101.629 1.29014 96.5215 2.30311V96.5219H112.174Z" fill="#FFDA44"/>
<path d="M127.826 0.261094C125.238 0.09375 122.63 0 120 0C117.37 0 114.762 0.09375 112.174 0.261094V96.5222H127.826V0.261094H127.826Z" fill="black"/>
<path d="M112.174 239.739C114.762 239.906 117.37 240 120 240C122.63 240 125.238 239.906 127.826 239.739V143.479H112.174V239.739H112.174Z" fill="black"/>
<path d="M96.5223 112.174V96.5215H2.30359C1.29016 101.63 0.603906 106.855 0.261719 112.174H96.5223Z" fill="#FFDA44"/>
<path d="M143.479 112.174H239.74C239.397 106.855 238.711 101.63 237.698 96.5215H143.479V112.174H143.479Z" fill="#FFDA44"/>
<path d="M143.479 127.826H239.74C239.906 125.238 240 122.63 240 120C240 117.37 239.906 114.762 239.739 112.174H143.479V127.826Z" fill="black"/>
<path d="M0.261094 112.174C0.0942187 114.762 0 117.37 0 120C0 122.63 0.0942187 125.238 0.261094 127.826H96.5222V112.174H0.261094V112.174Z" fill="black"/>
<path d="M120.001 177.391C151.697 177.391 177.392 151.696 177.392 120C177.392 88.3034 151.697 62.6084 120.001 62.6084C88.3044 62.6084 62.6094 88.3034 62.6094 120C62.6094 151.696 88.3044 177.391 120.001 177.391Z" fill="#D80027"/>
<path d="M133.075 126.402C128.806 117.865 123.258 109.212 123.258 109.212C123.258 109.212 123.395 105.272 123.395 102.925C123.395 99.3884 120.529 96.5215 116.992 96.5215C113.642 96.5215 110.897 99.0954 110.617 102.372C107.983 102.544 105.898 104.73 105.898 107.407C105.898 109.354 107.001 111.041 108.616 111.884C109.418 110.007 110.99 108.542 112.933 107.874C113.25 108.133 113.59 108.365 113.953 108.561L114.774 108.954C114.774 108.954 111.732 117.528 111.732 122.134C111.732 135.083 120.27 139.076 120.27 139.076V139.21L116.001 143.478H124.538V134.94L128.807 139.209C128.845 139.129 136.893 134.039 133.075 126.402Z" fill="#496E2D"/>
<path d="M120 73.043L121.942 79.0214H128.228L123.143 82.7166L125.086 88.695L120 85.0003L114.914 88.695L116.857 82.7166L111.771 79.0214H118.057L120 73.043Z" fill="#496E2D"/>
<path d="M92.3993 82.0112L97.4843 85.7064L102.57 82.0107L100.628 87.9901L105.714 91.6843L99.4273 91.6848L97.4848 97.6632L95.5418 91.6848L89.2559 91.6843L94.3413 87.9892L92.3993 82.0112Z" fill="#496E2D"/>
<path d="M75.3418 105.489H81.6273L83.5702 99.5107L85.5127 105.489L91.7991 105.489L86.7137 109.184L88.6566 115.163L83.5702 111.468L78.4848 115.162L80.4268 109.184L75.3418 105.489Z" fill="#496E2D"/>
<path d="M75.3418 134.51L80.4268 130.816L78.4843 124.837L83.5702 128.532L88.6562 124.837L86.7137 130.815L91.7996 134.511L85.5127 134.511L83.5702 140.489L81.6273 134.51H75.3418Z" fill="#496E2D"/>
<path d="M92.3998 157.987L94.3418 152.01L89.2559 148.315H95.5423L97.4852 142.336L99.4277 148.314H105.714L100.628 152.01L102.571 157.988L97.4848 154.293L92.3998 157.987Z" fill="#496E2D"/>
<path d="M120 166.956L118.057 160.978H111.771L116.857 157.283L114.914 151.304L120 154.998L125.085 151.304L123.143 157.283L128.228 160.978L121.942 160.978L120 166.956Z" fill="#496E2D"/>
<path d="M147.6 157.987L142.515 154.293L137.429 157.988L139.371 152.01L134.285 148.315L140.572 148.314L142.514 142.336L144.457 148.315H150.743L145.657 152.01L147.6 157.987Z" fill="#496E2D"/>
<path d="M164.659 134.51H158.374L156.431 140.488L154.488 134.511H148.201L153.287 130.815L151.344 124.837L156.431 128.532L161.516 124.837L159.574 130.815L164.659 134.51Z" fill="#496E2D"/>
<path d="M164.659 105.49L159.574 109.184L161.516 115.163L156.431 111.468L151.345 115.164L153.287 109.185L148.201 105.49L154.488 105.489L156.43 99.5117L158.374 105.49H164.659Z" fill="#496E2D"/>
<path d="M147.6 82.0107L145.657 87.9887L150.743 91.6839H144.457L142.515 97.6628L140.572 91.6843L134.285 91.6848L139.371 87.9887L137.429 82.0112L142.515 85.7054L147.6 82.0107Z" fill="#496E2D"/>
</g>
<defs>
<clipPath id="clip0_8148_3542">
<rect width="240" height="240" fill="white"/>
</clipPath>
</defs>
</svg>
