<svg width="240" height="240" viewBox="0 0 240 240" fill="none" xmlns="http://www.w3.org/2000/svg">
<g clip-path="url(#clip0_8148_3572)">
<path d="M120 240C186.274 240 240 186.274 240 120C240 53.7258 186.274 0 120 0C53.7258 0 0 53.7258 0 120C0 186.274 53.7258 240 120 240Z" fill="#F0F0F0"/>
<path d="M4.13477 151.305C15.2151 192.415 47.5855 224.786 88.6968 235.867V151.305H4.13477Z" fill="#D80027"/>
<path d="M88.6963 4.13379C47.5855 15.2136 15.2146 47.5846 4.13477 88.6954H88.6968V4.13379H88.6963Z" fill="#0052B4"/>
<path d="M235.866 88.6954C224.786 47.5846 192.415 15.2136 151.305 4.13379V88.6958H235.866V88.6954Z" fill="#D80027"/>
<path d="M151.305 235.866C192.415 224.785 224.786 192.415 235.867 151.304H151.305V235.866Z" fill="#0052B4"/>
<path d="M151.304 120C151.304 137.289 137.289 151.304 120 151.304C102.711 151.304 88.6953 137.289 88.6953 120C88.6953 102.71 120 88.6953 120 88.6953C120 88.6953 151.304 102.71 151.304 120Z" fill="#496E2D"/>
<path d="M88.6953 120C88.6953 102.71 102.711 88.6953 120 88.6953C137.289 88.6953 151.304 102.71 151.304 120" fill="#0052B4"/>
<path d="M102.391 104.348V123.913C102.391 133.638 110.274 141.521 119.999 141.521C129.724 141.521 137.608 133.638 137.608 123.913V104.348H102.391Z" fill="#D80027"/>
</g>
<defs>
<clipPath id="clip0_8148_3572">
<rect width="240" height="240" fill="white"/>
</clipPath>
</defs>
</svg>
