<svg width="240" height="240" viewBox="0 0 240 240" fill="none" xmlns="http://www.w3.org/2000/svg">
<g clip-path="url(#clip0_8148_3581)">
<path d="M120 240C186.274 240 240 186.274 240 120C240 53.7258 186.274 0 120 0C53.7258 0 0 53.7258 0 120C0 186.274 53.7258 240 120 240Z" fill="#FFDA44"/>
<path d="M120.001 0C90.6209 0 63.7119 10.5642 42.8516 28.0941L172.175 120L42.8516 211.906C63.7119 229.436 90.6209 240 120.001 240C186.275 240 240.001 186.274 240.001 120C240.001 53.7262 186.275 0 120.001 0Z" fill="#D80027"/>
<path d="M35.1471 35.1465C-11.7157 82.0093 -11.7157 157.989 35.1471 204.853C54.5126 185.487 73.1374 166.862 120 120L35.1471 35.1465Z" fill="black"/>
<path d="M33.2718 92.5098L51.5343 109.794L73.6162 97.7635L62.8232 120.474L81.0862 137.759L56.1515 134.511L45.3571 157.222L40.7413 132.504L15.8066 129.255L37.8876 117.226L33.2718 92.5098Z" fill="#F0F0F0"/>
</g>
<defs>
<clipPath id="clip0_8148_3581">
<rect width="240" height="240" fill="white"/>
</clipPath>
</defs>
</svg>
