<svg width="240" height="240" viewBox="0 0 240 240" fill="none" xmlns="http://www.w3.org/2000/svg">
<g clip-path="url(#clip0_8148_3586)">
<path d="M0 120C0 53.7263 53.7262 0 120 0C186.274 0 240 53.7263 240 120L120 130.435L0 120Z" fill="#FFDA44"/>
<path d="M16.0566 180C36.8059 215.867 75.5827 240 119.999 240C164.416 240 203.192 215.867 223.942 180L119.999 172.174L16.0566 180Z" fill="#D80027"/>
<path d="M223.942 180C234.153 162.35 240 141.858 240 120H0C0 141.858 5.84719 162.35 16.0575 180H223.942Z" fill="#0052B4"/>
<path d="M120.001 161.739C143.052 161.739 161.74 143.051 161.74 120C161.74 96.9479 143.052 78.2607 120.001 78.2607C96.9489 78.2607 78.2617 96.9479 78.2617 120C78.2617 143.051 96.9489 161.739 120.001 161.739Z" fill="#FFDA44"/>
<path d="M120.001 146.087C105.616 146.087 93.9141 134.384 93.9141 120V104.348C93.9141 89.9631 105.617 78.2607 120.001 78.2607C134.385 78.2607 146.088 89.9636 146.088 104.348V120C146.088 134.384 134.385 146.087 120.001 146.087Z" fill="#338AF3"/>
<path d="M161.739 57.3919H130.434C130.434 51.6291 125.762 46.957 119.999 46.957C114.236 46.957 109.564 51.6291 109.564 57.3919H78.2598C78.2598 63.1552 83.2796 67.8267 89.042 67.8267H88.6946C88.6946 73.59 93.3662 78.2616 99.1295 78.2616C99.1295 84.0248 103.801 88.6964 109.564 88.6964H130.434C136.197 88.6964 140.869 84.0248 140.869 78.2616C146.632 78.2616 151.304 73.59 151.304 67.8267H150.956C156.719 67.8267 161.739 63.1547 161.739 57.3919Z" fill="black"/>
</g>
<defs>
<clipPath id="clip0_8148_3586">
<rect width="240" height="240" fill="white"/>
</clipPath>
</defs>
</svg>
