<svg width="240" height="240" viewBox="0 0 240 240" fill="none" xmlns="http://www.w3.org/2000/svg">
<g clip-path="url(#clip0_8148_3593)">
<path d="M120 240C186.274 240 240 186.274 240 120C240 53.7258 186.274 0 120 0C53.7258 0 0 53.7258 0 120C0 186.274 53.7258 240 120 240Z" fill="#F0F0F0"/>
<path d="M120.001 0C68.4052 0 24.42 32.565 7.46484 78.2611H232.538C215.582 32.565 171.597 0 120.001 0Z" fill="#D80027"/>
<path d="M120.001 240C171.597 240 215.582 207.435 232.537 161.739H7.46484C24.42 207.435 68.4052 240 120.001 240Z" fill="black"/>
<path d="M161.739 106.956H130.434C130.434 101.194 125.762 96.5215 119.999 96.5215C114.236 96.5215 109.564 101.194 109.564 106.956H78.2598C78.2598 112.72 83.2796 117.391 89.0424 117.391H88.6946C88.6946 123.154 93.3662 127.826 99.1295 127.826C99.1295 133.589 103.801 138.261 109.564 138.261H130.434C136.197 138.261 140.869 133.589 140.869 127.826C146.632 127.826 151.304 123.154 151.304 117.391H150.956C156.719 117.391 161.739 112.72 161.739 106.956Z" fill="#FF9811"/>
</g>
<defs>
<clipPath id="clip0_8148_3593">
<rect width="240" height="240" fill="white"/>
</clipPath>
</defs>
</svg>
