<svg width="240" height="240" viewBox="0 0 240 240" fill="none" xmlns="http://www.w3.org/2000/svg">
<g clip-path="url(#clip0_8148_3606)">
<path d="M120 240C186.274 240 240 186.274 240 120C240 53.7258 186.274 0 120 0C53.7258 0 0 53.7258 0 120C0 186.274 53.7258 240 120 240Z" fill="#F0F0F0"/>
<path d="M238.984 104.348H135.653H135.652V1.01578C130.529 0.34875 125.305 0 120 0C114.695 0 109.471 0.34875 104.348 1.01578V104.347V104.348H1.01578C0.34875 109.471 0 114.694 0 120C0 125.306 0.34875 130.529 1.01578 135.652H104.347H104.348V238.984C109.471 239.651 114.695 240 120 240C125.305 240 130.529 239.652 135.652 238.984V135.653V135.652H238.984C239.651 130.529 240 125.306 240 120C240 114.694 239.651 109.471 238.984 104.348Z" fill="#D80027"/>
</g>
<defs>
<clipPath id="clip0_8148_3606">
<rect width="240" height="240" fill="white"/>
</clipPath>
</defs>
</svg>
