<svg width="240" height="240" viewBox="0 0 240 240" fill="none" xmlns="http://www.w3.org/2000/svg">
<g clip-path="url(#clip0_8148_3609)">
<path d="M120 240C186.274 240 240 186.274 240 120C240 53.7258 186.274 0 120 0C53.7258 0 0 53.7258 0 120C0 186.274 53.7258 240 120 240Z" fill="#F0F0F0"/>
<path d="M73.0427 78.2611H232.535C215.58 32.565 171.595 0 119.999 0C86.8615 0 56.8648 13.4339 35.1504 35.1511L73.0427 78.2611Z" fill="#6DA544"/>
<path d="M73.0427 161.739H232.535C215.58 207.435 171.595 240 119.999 240C86.8615 240 56.8648 226.566 35.1504 204.849L73.0427 161.739Z" fill="#D80027"/>
<path d="M35.1471 35.1465C-11.7157 82.0093 -11.7157 157.989 35.1471 204.853C54.5126 185.487 73.1374 166.862 120 120L35.1471 35.1465Z" fill="#0052B4"/>
<path d="M140.869 99.1299V125.217C140.869 141.192 161.739 146.087 161.739 146.087C161.739 146.087 182.609 141.192 182.609 125.217V99.1299H140.869Z" fill="#DEDDE0"/>
<path d="M156.521 120.521H166.956V135.652H156.521V120.521Z" fill="#786145"/>
<path d="M172.173 114.783C172.173 109.019 167.501 104.348 161.738 104.348C155.975 104.348 151.303 109.019 151.303 114.783C148.422 114.783 146.086 117.118 146.086 120C146.086 122.881 148.422 125.217 151.303 125.217H172.173C175.054 125.217 177.39 122.881 177.39 120C177.39 117.118 175.055 114.783 172.173 114.783Z" fill="#6DA544"/>
</g>
<defs>
<clipPath id="clip0_8148_3609">
<rect width="240" height="240" fill="white"/>
</clipPath>
</defs>
</svg>
