<svg width="240" height="240" viewBox="0 0 240 240" fill="none" xmlns="http://www.w3.org/2000/svg">
<g clip-path="url(#clip0_8148_3617)">
<path d="M109.565 109.565C109.565 109.565 35.2168 204.87 35.1465 204.853C56.8618 226.569 86.8623 240 120 240C186.273 240 240 186.274 240 120L109.565 109.565Z" fill="#338AF3"/>
<path d="M109.565 120C109.565 120 35.2168 35.1305 35.1465 35.1473C56.8618 13.4316 86.8623 0 120 0C186.273 0 240 53.7262 240 120H109.565Z" fill="#6DA544"/>
<path d="M35.1471 35.1465C-11.7157 82.0093 -11.7157 157.989 35.1471 204.853C35.1438 204.872 240 120 240 120L35.1471 35.1465Z" fill="#D80027"/>
<path d="M62.608 70.4346C39.5929 70.4346 20.8691 89.1588 20.8691 112.173V127.826C20.8691 150.841 39.5934 169.564 62.608 169.564C85.6227 169.564 104.347 150.84 104.347 127.826V112.173C104.347 89.1588 85.6232 70.4346 62.608 70.4346ZM88.6949 127.826C88.6949 139.485 81.0065 149.38 70.4338 152.712V135.652L81.5076 124.578L70.4399 113.511L70.4338 109.572V104.348H54.7823V120L43.716 131.066L54.7823 142.131V152.712C44.2096 149.38 36.5212 139.485 36.5212 127.826V112.174C36.5212 97.7899 48.224 86.0875 62.608 86.0875C76.9921 86.0875 88.6949 97.7903 88.6949 112.174V127.826Z" fill="#FFDA44"/>
</g>
<defs>
<clipPath id="clip0_8148_3617">
<rect width="240" height="240" fill="white"/>
</clipPath>
</defs>
</svg>
