<svg width="240" height="240" viewBox="0 0 240 240" fill="none" xmlns="http://www.w3.org/2000/svg">
<g clip-path="url(#clip0_8148_3626)">
<path d="M0 120C0 134.679 2.64047 148.74 7.46438 161.74L120 172.174L232.536 161.74C237.36 148.74 240 134.679 240 120C240 105.523 237.435 91.6443 232.737 78.7945L120 67.8262L7.26281 78.7949C2.56453 91.6443 0 105.523 0 120H0Z" fill="#FFDA44"/>
<path d="M120.001 240C171.597 240 215.582 207.435 232.537 161.739H7.46484C24.42 207.435 68.4052 240 120.001 240Z" fill="#D80027"/>
<path d="M120.001 0C68.4052 0 24.42 32.565 7.46484 78.2611H232.538C215.582 32.565 171.597 0 120.001 0Z" fill="#6DA544"/>
<path d="M120.001 177.391C151.697 177.391 177.392 151.696 177.392 120C177.392 88.3034 151.697 62.6084 120.001 62.6084C88.3044 62.6084 62.6094 88.3034 62.6094 120C62.6094 151.696 88.3044 177.391 120.001 177.391Z" fill="#0052B4"/>
<path d="M119.988 75.5586L130.348 107.444H163.928L136.751 127.151L147.193 159.131L119.988 139.33L92.8249 159.094L103.225 127.151L76.0723 107.444H109.628L119.988 75.5586Z" fill="#FFDA44"/>
<path d="M161.308 127.936L128.441 117.256L148.753 89.3001L140.312 83.166L119.999 111.124L99.6872 83.1665L91.245 89.2996L111.557 117.258L78.6914 127.936L81.9155 137.861L114.782 127.182V161.739H125.217V127.182L158.082 137.861L161.308 127.936Z" fill="#FFDA44"/>
</g>
<defs>
<clipPath id="clip0_8148_3626">
<rect width="240" height="240" fill="white"/>
</clipPath>
</defs>
</svg>
