<svg width="240" height="240" viewBox="0 0 240 240" fill="none" xmlns="http://www.w3.org/2000/svg">
<g clip-path="url(#clip0_8148_3634)">
<path d="M120 240C186.274 240 240 186.274 240 120C240 53.7258 186.274 0 120 0C53.7258 0 0 53.7258 0 120C0 186.274 53.7258 240 120 240Z" fill="#0052B4"/>
<path d="M120.001 46.957L123.886 58.9144H136.458L126.287 66.3042L130.172 78.2616L120.001 70.8712L109.829 78.2616L113.714 66.3042L103.543 58.9144H116.115L120.001 46.957Z" fill="#FFDA44"/>
<path d="M68.3494 68.3508L79.5525 74.0583L88.4423 65.1689L86.475 77.5861L97.6777 83.2941L85.26 85.261L83.2931 97.6791L77.5852 86.4764L65.168 88.4438L74.0578 79.5539L68.3494 68.3508Z" fill="#FFDA44"/>
<path d="M46.957 120.001L58.9144 116.115V103.543L66.3037 113.715L78.2616 109.829L70.8708 120.001L78.2616 130.172L66.3037 126.287L58.9144 136.459V123.886L46.957 120.001Z" fill="#FFDA44"/>
<path d="M68.3494 171.65L74.0573 160.447L65.168 151.557L77.5856 153.525L83.2927 142.322L85.26 154.74L97.6772 156.707L86.4759 162.415L88.4423 174.832L79.5525 165.942L68.3494 171.65Z" fill="#FFDA44"/>
<path d="M120.001 193.044L116.115 181.086H103.543L113.715 173.697L109.829 161.74L120.001 169.13L130.172 161.74L126.287 173.697L136.458 181.086H123.886L120.001 193.044Z" fill="#FFDA44"/>
<path d="M171.65 171.65L160.447 165.943L151.557 174.832L153.524 162.414L142.322 156.707L154.739 154.74L156.706 142.322L162.414 153.525L174.831 151.557L165.941 160.448L171.65 171.65Z" fill="#FFDA44"/>
<path d="M193.044 120.001L181.086 123.886V136.459L173.697 126.287L161.74 130.172L169.13 120.001L161.74 109.829L173.697 113.715L181.086 103.543V116.116L193.044 120.001Z" fill="#FFDA44"/>
<path d="M171.65 68.3504L165.942 79.5535L174.831 88.4433L162.413 86.4755L156.706 97.6782L154.739 85.2605L142.322 83.2932L153.524 77.5857L151.557 65.1689L160.447 74.0583L171.65 68.3504Z" fill="#FFDA44"/>
</g>
<defs>
<clipPath id="clip0_8148_3634">
<rect width="240" height="240" fill="white"/>
</clipPath>
</defs>
</svg>
