<svg width="240" height="240" viewBox="0 0 240 240" fill="none" xmlns="http://www.w3.org/2000/svg">
<g clip-path="url(#clip0_8148_3645)">
<path d="M240 120C240 186.274 186.274 240 120 240C53.7262 240 0 186.274 0 120C0 120.029 120 0.013125 120 0C186.274 0 240 53.7262 240 120Z" fill="#0052B4"/>
<path d="M119.68 120H120.001C120.001 119.892 120.001 119.787 120.001 119.679C119.894 119.786 119.787 119.893 119.68 120Z" fill="#F0F0F0"/>
<path d="M120 62.6086C120 41.4938 120 27.6586 120 0H119.98C53.715 0.01125 0 53.7323 0 120H62.6086V84.7448L97.8642 120H119.679L120 119.679C120 111.594 120 104.381 120 97.8647L84.7444 62.6086H120Z" fill="#F0F0F0"/>
<path d="M60.7105 15.6519C41.9422 26.3389 26.3394 41.9417 15.6523 60.71V120H46.9569V46.9573V46.9564H120C120 37.0831 120 27.6772 120 15.6519H60.7105Z" fill="#D80027"/>
<path d="M120 105.243L77.3661 62.6084H62.6094V62.6093L119.999 119.999H120C120 119.999 120 109.824 120 105.243Z" fill="#D80027"/>
<path d="M193.044 140.87V146.087H151.305V140.87H135.652V161.739H146.087V166.957H198.261V161.739H208.696V140.87H193.044Z" fill="#FFDA44"/>
<path d="M135.652 62.6084V120C135.652 147.956 172.174 156.522 172.174 156.522C172.174 156.522 208.696 147.956 208.696 120V62.6084H135.652Z" fill="#338AF3"/>
<path d="M172.172 105.417C163.042 105.417 163.042 113.765 153.912 113.765C144.782 113.765 144.782 105.417 135.652 105.417V120.026C144.782 120.026 144.782 128.374 153.912 128.374C163.042 128.374 163.042 120.026 172.172 120.026C181.302 120.026 181.303 128.374 190.434 128.374C199.565 128.374 199.565 120.026 208.696 120.026V105.417C199.565 105.417 199.565 113.765 190.434 113.765C181.303 113.765 181.302 105.417 172.172 105.417Z" fill="#F3F3F3"/>
<path d="M172.172 76.1738C163.042 76.1738 163.042 84.5218 153.912 84.5218C144.782 84.5218 144.782 76.1738 135.652 76.1738V90.7824C144.782 90.7824 144.782 99.1304 153.912 99.1304C163.042 99.1304 163.042 90.7824 172.172 90.7824C181.302 90.7824 181.303 99.1304 190.434 99.1304C199.565 99.1304 199.565 90.7824 208.696 90.7824V76.1738C199.565 76.1738 199.565 84.5218 190.434 84.5218C181.303 84.5218 181.302 76.1738 172.172 76.1738Z" fill="#F3F3F3"/>
</g>
<defs>
<clipPath id="clip0_8148_3645">
<rect width="240" height="240" fill="white"/>
</clipPath>
</defs>
</svg>
