<svg width="240" height="240" viewBox="0 0 240 240" fill="none" xmlns="http://www.w3.org/2000/svg">
<g clip-path="url(#clip0_8148_3659)">
<path d="M120 240C186.274 240 240 186.274 240 120C240 53.7258 186.274 0 120 0C53.7258 0 0 53.7258 0 120C0 186.274 53.7258 240 120 240Z" fill="#F0F0F0"/>
<path d="M234.783 120L238.982 104.348C238.285 99.0136 237.239 93.788 235.866 88.6964H109.565V0.457031C104.24 0.915469 99.0159 1.72594 93.913 2.8575L73.0434 15.6525L62.6085 14.5992C57.1171 17.5955 51.8854 21.008 46.9565 24.795V88.6959H4.13383C2.7618 93.7875 1.71555 99.0131 1.01805 104.348L5.21711 120L1.01758 135.652C1.71508 140.987 2.76133 146.213 4.13336 151.305H46.956V215.205C51.8849 218.993 57.1171 222.405 62.608 225.401L78.2601 224.348L93.9121 237.143C99.0154 238.274 104.24 239.085 109.564 239.543V151.305H235.865C237.237 146.213 238.283 140.988 238.981 135.653L234.783 120Z" fill="#0052B4"/>
<path d="M238.984 104.348H93.9136H93.9131V2.85254C82.8234 5.3116 72.3098 9.29738 62.6086 14.591V104.348H1.01578C0.34875 109.472 0 114.695 0 120C0 125.305 0.34875 130.529 1.01578 135.652H62.6081H62.6086V225.409C72.3098 230.702 82.8234 234.689 93.9131 237.147V135.654V135.653H238.984C239.651 130.529 240 125.305 240 120C240 114.695 239.651 109.472 238.984 104.348Z" fill="#D80027"/>
</g>
<defs>
<clipPath id="clip0_8148_3659">
<rect width="240" height="240" fill="white"/>
</clipPath>
</defs>
</svg>
