<svg width="240" height="240" viewBox="0 0 240 240" fill="none" xmlns="http://www.w3.org/2000/svg">
<g clip-path="url(#clip0_8148_3663)">
<path d="M240 120C240 186.274 186.274 240 120 240C53.7262 240 0 186.274 0 120C0 120.029 120 0.013125 120 0C186.274 0 240 53.7262 240 120Z" fill="#338AF3"/>
<path d="M119.999 57.3916V97.8649L78.2598 57.3916H119.999Z" fill="#0052B4"/>
<path d="M62.6078 120.001H97.8634L62.6078 73.0439L57.3906 109.566L62.6078 120.001Z" fill="#0052B4"/>
<path d="M119.68 120H120.001C120.001 119.892 120.001 119.787 120.001 119.679C119.894 119.786 119.787 119.893 119.68 120Z" fill="#F0F0F0"/>
<path d="M120 62.6086C120 41.4938 120 27.6586 120 0H119.98C53.715 0.01125 0 53.7323 0 120H62.6086V84.7448L97.8642 120H119.68C119.787 119.893 119.894 119.786 120.001 119.679C120.001 111.594 120.001 104.381 120.001 97.8647L84.7444 62.6086H120Z" fill="#F0F0F0"/>
<path d="M60.7105 15.6523C41.9422 26.3394 26.3394 41.9422 15.6523 60.7105V120H46.9569V46.9578V46.9569H120C120 37.0836 120 27.6777 120 15.6523H60.7105Z" fill="#D80027"/>
<path d="M120 105.244L77.3661 62.6094H62.6094V62.6103L119.999 120H120C120 120 120 109.825 120 105.244Z" fill="#D80027"/>
<path d="M135.652 78.261V119.999C135.652 147.956 172.174 156.522 172.174 156.522C172.174 156.522 208.696 147.956 208.696 119.999V78.261L172.174 67.8262L135.652 78.261Z" fill="#F3F3F3"/>
<path d="M208.696 78.2614V62.6094H135.652V78.2614H166.956V109.566H135.652V120V120.001L166.956 120.002V154.922C170.105 156.036 172.174 156.523 172.174 156.523C172.174 156.523 174.242 156.037 177.391 154.922V120.001H208.696V120V109.566H177.391V78.2609H208.696V78.2614Z" fill="#D80027"/>
</g>
<defs>
<clipPath id="clip0_8148_3663">
<rect width="240" height="240" fill="white"/>
</clipPath>
</defs>
</svg>
