<svg width="240" height="240" viewBox="0 0 240 240" fill="none" xmlns="http://www.w3.org/2000/svg">
<g clip-path="url(#clip0_8148_3677)">
<path d="M120 240C186.274 240 240 186.274 240 120C240 53.7258 186.274 0 120 0C53.7258 0 0 53.7258 0 120C0 186.274 53.7258 240 120 240Z" fill="#F0F0F0"/>
<path d="M238.984 104.348H93.9136H93.9131V2.85254C82.8234 5.3116 72.3098 9.29738 62.6086 14.591V104.347V104.348H1.01578C0.347813 109.472 0 114.695 0 120C0 125.305 0.347813 130.529 1.01578 135.652H62.6081H62.6086V225.409C72.3098 230.702 82.8234 234.689 93.9131 237.147V135.654V135.653H238.984C239.651 130.529 240 125.305 240 120C240 114.695 239.651 109.472 238.984 104.348Z" fill="#0052B4"/>
</g>
<defs>
<clipPath id="clip0_8148_3677">
<rect width="240" height="240" fill="white"/>
</clipPath>
</defs>
</svg>
