<svg width="240" height="240" viewBox="0 0 240 240" fill="none" xmlns="http://www.w3.org/2000/svg">
<g clip-path="url(#clip0_8148_3680)">
<path d="M120 240C186.274 240 240 186.274 240 120C240 53.7258 186.274 0 120 0C53.7258 0 0 53.7258 0 120C0 186.274 53.7258 240 120 240Z" fill="#F0F0F0"/>
<path d="M239.999 120C239.999 68.4042 207.434 24.419 161.738 7.46387V232.537C207.434 215.581 239.999 171.596 239.999 120Z" fill="#D80027"/>
<path d="M0 120C0 171.596 32.5655 215.581 78.2611 232.536V7.46387C32.5655 24.419 0 68.4042 0 120Z" fill="#0052B4"/>
</g>
<defs>
<clipPath id="clip0_8148_3680">
<rect width="240" height="240" fill="white"/>
</clipPath>
</defs>
</svg>
