<svg width="240" height="240" viewBox="0 0 240 240" fill="none" xmlns="http://www.w3.org/2000/svg">
<g clip-path="url(#clip0_8148_3684)">
<path d="M120 240C186.274 240 240 186.274 240 120C240 53.7258 186.274 0 120 0C53.7258 0 0 53.7258 0 120C0 186.274 53.7258 240 120 240Z" fill="#F0F0F0"/>
<path d="M14.5898 62.6086H225.408C205.056 25.3073 165.484 0 119.999 0C74.5139 0 34.9425 25.3073 14.5898 62.6086Z" fill="#D80027"/>
<path d="M119.999 240C165.484 240 205.056 214.693 225.408 177.392H14.5898C34.9425 214.693 74.5139 240 119.999 240Z" fill="#D80027"/>
<path d="M161.74 120C161.74 143.052 143.052 156.521 120.001 156.521C96.9489 156.521 78.2617 143.052 78.2617 120C78.2617 96.9475 96.9489 78.2607 120.001 78.2607C143.052 78.2607 161.74 96.9475 161.74 120Z" fill="#FFDA44"/>
<path d="M161.74 120C161.74 143.052 143.052 161.739 120.001 161.739C96.9489 161.739 78.2617 143.052 78.2617 120" fill="#0052B4"/>
<path d="M93.9141 109.565H104.349V130.435H93.9141V109.565Z" fill="#D80027"/>
<path d="M135.652 109.565H146.087V130.435H135.652V109.565Z" fill="#D80027"/>
<path d="M114.783 93.9131H125.218V130.435H114.783V93.9131Z" fill="#D80027"/>
</g>
<defs>
<clipPath id="clip0_8148_3684">
<rect width="240" height="240" fill="white"/>
</clipPath>
</defs>
</svg>
