<svg width="240" height="240" viewBox="0 0 240 240" fill="none" xmlns="http://www.w3.org/2000/svg">
<g clip-path="url(#clip0_8148_3699)">
<path d="M240 120C240 105.321 237.36 91.26 232.536 78.2606L120 73.043L7.46391 78.2602C2.64047 91.26 0 105.321 0 120C0 134.678 2.64047 148.739 7.46391 161.738L120 166.956L232.536 161.739C237.36 148.739 240 134.678 240 120Z" fill="#F0F0F0"/>
<path d="M120.001 240C171.597 240 215.582 207.435 232.537 161.739H7.46484C24.42 207.435 68.4052 240 120.001 240Z" fill="#0052B4"/>
<path d="M7.46484 78.2611H232.538C215.582 32.565 171.597 0 120.001 0C68.4052 0 24.42 32.565 7.46484 78.2611Z" fill="#6DA544"/>
</g>
<defs>
<clipPath id="clip0_8148_3699">
<rect width="240" height="240" fill="white"/>
</clipPath>
</defs>
</svg>
