<svg width="240" height="240" viewBox="0 0 240 240" fill="none" xmlns="http://www.w3.org/2000/svg">
<g clip-path="url(#clip0_8148_3703)">
<path d="M120 240C186.274 240 240 186.274 240 120C240 53.7258 186.274 0 120 0C53.7258 0 0 53.7258 0 120C0 186.274 53.7258 240 120 240Z" fill="#F0F0F0"/>
<path d="M120.001 0C70.3908 0 27.8152 30.1059 9.53906 73.0434H230.463C212.187 30.1059 169.611 0 120.001 0Z" fill="#A2001D"/>
<path d="M120.001 240C169.611 240 212.187 209.895 230.463 166.957H9.53906C27.8152 209.895 70.3908 240 120.001 240Z" fill="#496E2D"/>
<path d="M235.866 88.6953H4.13391C1.44375 98.6764 0 109.168 0 120C0 130.831 1.44375 141.323 4.13391 151.304H235.867C238.556 141.323 240 130.831 240 120C240 109.168 238.556 98.6764 235.866 88.6953Z" fill="#0052B4"/>
</g>
<defs>
<clipPath id="clip0_8148_3703">
<rect width="240" height="240" fill="white"/>
</clipPath>
</defs>
</svg>
