<svg width="240" height="240" viewBox="0 0 240 240" fill="none" xmlns="http://www.w3.org/2000/svg">
<g clip-path="url(#clip0_8148_3725)">
<path d="M120 240C186.274 240 240 186.274 240 120C240 53.7258 186.274 0 120 0C53.7258 0 0 53.7258 0 120C0 186.274 53.7258 240 120 240Z" fill="#F9F9F9"/>
<path d="M120.001 239.999C171.597 239.999 215.582 207.434 232.537 161.738H7.46484C24.4205 207.434 68.4052 239.999 120.001 239.999Z" fill="#D80027"/>
<path d="M166.957 99.13V83.4779H172.175V73.0431H161.74V78.2607H151.305V73.0431H140.87V83.4779H146.088V99.13H135.653V62.6092H140.87V52.1748H130.436V57.3911H125.218V52.1748H114.784V57.3911H109.566V52.1748H99.1311V62.6092H104.349V99.13H93.9139V83.4779H99.1311V73.0431H88.6962V78.2607H78.2619V73.0431H67.827V83.4779H73.0442V99.13H62.6094V140.869H177.392V99.13H166.957Z" fill="#D80027"/>
<path d="M119.998 135.652C111.354 135.652 104.346 142.66 104.346 151.304C104.346 158.118 108.703 163.914 114.781 166.063V187.827H99.1289V208.696H125.216V166.063C131.294 163.914 135.651 158.119 135.651 151.305C135.65 142.661 128.642 135.652 119.998 135.652ZM119.998 156.522C117.117 156.522 114.781 154.186 114.781 151.305C114.781 148.423 117.117 146.088 119.998 146.088C122.88 146.088 125.215 148.423 125.215 151.305C125.215 154.186 122.88 156.522 119.998 156.522Z" fill="#FFDA44"/>
</g>
<defs>
<clipPath id="clip0_8148_3725">
<rect width="240" height="240" fill="white"/>
</clipPath>
</defs>
</svg>
