<svg width="240" height="240" viewBox="0 0 240 240" fill="none" xmlns="http://www.w3.org/2000/svg">
<g clip-path="url(#clip0_8148_3731)">
<path d="M120 240C186.274 240 240 186.274 240 120C240 53.7258 186.274 0 120 0C53.7258 0 0 53.7258 0 120C0 186.274 53.7258 240 120 240Z" fill="#F0F0F0"/>
<path d="M120 88.6952H235.866C232.857 77.5323 228.284 67.0131 222.387 57.3906H120V88.6952Z" fill="#338AF3"/>
<path d="M45.3019 213.913H194.699C205.65 205.19 215.042 194.596 222.387 182.608H17.6133C24.9591 194.595 34.3509 205.19 45.3019 213.913Z" fill="#338AF3"/>
<path d="M41.7394 29.0342C32.3053 37.1581 24.1495 46.7248 17.6133 57.3917H41.7394V29.0342Z" fill="#338AF3"/>
<path d="M120 120C120 107.777 120 97.5472 120 88.6953H73.0434V120H41.7389V88.6953H4.13391C1.44375 98.6769 0 109.168 0 120C0 130.831 1.44375 141.323 4.13391 151.304H235.867C238.556 141.323 240 130.831 240 120H120Z" fill="#338AF3"/>
<path d="M120 0C103.336 0 87.4664 3.39984 73.043 9.53812V57.3914H120C120 46.4639 120 37.17 120 26.0869H194.698C174.199 9.76125 148.241 0 120 0Z" fill="#338AF3"/>
</g>
<defs>
<clipPath id="clip0_8148_3731">
<rect width="240" height="240" fill="white"/>
</clipPath>
</defs>
</svg>
