<svg width="240" height="240" viewBox="0 0 240 240" fill="none" xmlns="http://www.w3.org/2000/svg">
<g clip-path="url(#clip0_8148_3739)">
<path d="M0 120C0 53.7262 53.7262 0 120 0C186.274 0 240 53.7262 240 120C234.783 120 120 135.652 120 135.652L0 120Z" fill="#F0F0F0"/>
<path d="M240 120C240 186.274 186.274 240 120 240C53.7262 240 0 186.274 0 120" fill="#D80027"/>
<path d="M83.4773 177.391C115.174 177.391 140.869 151.696 140.869 120C140.869 88.3034 115.174 62.6084 83.4773 62.6084C51.7809 62.6084 26.0859 88.3034 26.0859 120C26.0859 151.696 51.7809 177.391 83.4773 177.391Z" fill="#F0F0F0"/>
<path d="M26.0859 120C26.0859 88.3043 51.7809 62.6084 83.4773 62.6084C115.174 62.6084 140.869 88.3039 140.869 120" fill="#D80027"/>
</g>
<defs>
<clipPath id="clip0_8148_3739">
<rect width="240" height="240" fill="white"/>
</clipPath>
</defs>
</svg>
