<svg width="240" height="240" viewBox="0 0 240 240" fill="none" xmlns="http://www.w3.org/2000/svg">
<g clip-path="url(#clip0_8148_3744)">
<path d="M120 240C186.274 240 240 186.274 240 120C240 53.7258 186.274 0 120 0C53.7258 0 0 53.7258 0 120C0 186.274 53.7258 240 120 240Z" fill="#FFDA44"/>
<path d="M52.3672 20.8697C71.6258 7.70437 94.9123 0 120.002 0C145.091 0 168.378 7.70437 187.636 20.8697L120.002 26.0869L52.3672 20.8697Z" fill="#A2001D"/>
<path d="M120 120L112.342 112.342L110.309 115.984L120 120Z" fill="#0052B4"/>
<path d="M35.1471 35.1465C-11.7157 82.0093 -11.7157 157.989 35.1471 204.853C54.5126 185.487 73.1374 166.862 120 120L35.1471 35.1465Z" fill="#496E2D"/>
<path d="M204.853 35.1465C251.716 82.0093 251.716 157.989 204.853 204.853C185.488 185.487 166.863 166.862 120 120L204.853 35.1465Z" fill="#496E2D"/>
<path d="M120.001 161.739C143.052 161.739 161.74 143.051 161.74 120C161.74 96.9479 143.052 78.2607 120.001 78.2607C96.9489 78.2607 78.2617 96.9479 78.2617 120C78.2617 143.051 96.9489 161.739 120.001 161.739Z" fill="#A2001D"/>
<path d="M119.998 78.2607L129.354 107.056H159.635L135.139 124.855L144.494 153.652L119.998 135.855L95.5016 153.652L104.859 124.855L80.3633 107.056H110.642L119.998 78.2607Z" fill="#FFDA44"/>
<path d="M119.997 0C119.984 0 119.971 0.0009375 119.957 0.0009375H120.037C120.024 0.0009375 120.011 0 119.997 0Z" fill="#FFDA44"/>
<path d="M120.039 0H119.959C86.8405 0.0107812 56.8587 13.4372 35.1523 35.1413H204.846C183.139 13.4372 153.157 0.0107812 120.039 0Z" fill="#A2001D"/>
<path d="M35.1523 204.859C56.8677 226.571 86.8648 240 119.998 240C153.132 240 183.129 226.571 204.845 204.859H35.1523Z" fill="#A2001D"/>
<path d="M120.002 13.043L121.945 19.0214H128.231L123.146 22.7166L125.089 28.695L120.002 25.0003L114.917 28.695L116.86 22.7166L111.773 19.0214H118.059L120.002 13.043Z" fill="#FFDA44"/>
<path d="M90.9008 13.043L92.8437 19.0214H99.1297L94.0442 22.7166L95.9872 28.695L90.9008 25.0003L85.8158 28.695L87.7583 22.7166L82.6719 19.0214H88.9578L90.9008 13.043Z" fill="#FFDA44"/>
<path d="M149.1 13.043L151.043 19.0214H157.329L152.243 22.7166L154.186 28.695L149.1 25.0003L144.015 28.695L145.957 22.7166L140.871 19.0214H147.157L149.1 13.043Z" fill="#FFDA44"/>
<path d="M120.002 211.304L121.945 217.282H128.231L123.146 220.977L125.089 226.956L120.002 223.261L114.917 226.956L116.86 220.977L111.773 217.282H118.059L120.002 211.304Z" fill="#FFDA44"/>
<path d="M90.9008 211.304L92.8437 217.282H99.1297L94.0442 220.977L95.9872 226.956L90.9008 223.261L85.8158 226.956L87.7583 220.977L82.6719 217.282H88.9578L90.9008 211.304Z" fill="#FFDA44"/>
<path d="M149.1 211.304L151.043 217.282H157.329L152.243 220.977L154.186 226.956L149.1 223.261L144.015 226.956L145.957 220.977L140.871 217.282H147.157L149.1 211.304Z" fill="#FFDA44"/>
<path d="M36.5644 118.017C39.6464 122.887 38.198 129.333 33.3281 132.415C28.4588 135.498 22.0125 134.05 18.93 129.18C13.3496 120.363 16.5853 105.965 16.5853 105.965C16.5853 105.965 30.9835 109.201 36.5644 118.017Z" fill="#FFDA44"/>
<path d="M30.5375 133.225C33.4189 133.225 35.7547 130.89 35.7547 128.008C35.7547 125.127 33.4189 122.791 30.5375 122.791C27.6561 122.791 25.3203 125.127 25.3203 128.008C25.3203 130.89 27.6561 133.225 30.5375 133.225Z" fill="#A2001D"/>
</g>
<defs>
<clipPath id="clip0_8148_3744">
<rect width="240" height="240" fill="white"/>
</clipPath>
</defs>
</svg>
