<svg width="240" height="240" viewBox="0 0 240 240" fill="none" xmlns="http://www.w3.org/2000/svg">
<g clip-path="url(#clip0_8148_3767)">
<path d="M52.3672 219.13C71.6253 232.295 94.9128 240 120.002 240C145.091 240 168.378 232.295 187.636 219.13L120.002 208.695L52.3672 219.13Z" fill="#D80027"/>
<path d="M187.636 20.8697C168.378 7.70484 145.091 0 120.002 0C94.9128 0 71.6253 7.70484 52.3672 20.8697L120.002 31.3045L187.636 20.8697Z" fill="#D80027"/>
<path d="M240 120C240 80.2926 216.227 40.4161 187.635 20.8701H52.3655C20.7516 42.4814 0 78.8161 0 120C0 161.186 20.7516 197.519 52.3655 219.131H187.635C219.249 197.519 240 161.186 240 120Z" fill="#0052B4"/>
<path d="M113.209 195.749C111.569 194.343 73.043 160.851 73.043 120C73.043 79.1491 111.569 45.6574 113.209 44.2516L120 38.4307L126.79 44.2511C128.43 45.6574 166.956 79.1486 166.956 120C166.956 160.852 128.43 194.343 126.79 195.749L120 201.57L113.209 195.749Z" fill="#D80027"/>
<path d="M156.52 120C156.52 83.4784 119.998 52.1738 119.998 52.1738C119.998 52.1738 83.4766 83.4793 83.4766 120C83.4766 131.173 86.897 141.855 91.6417 151.305H148.355C153.1 141.855 156.52 131.173 156.52 120Z" fill="#338AF3"/>
<path d="M156.52 120C156.52 131.173 153.1 141.855 148.355 151.305L119.998 156.522L91.6417 151.305C86.897 141.855 83.4766 131.173 83.4766 120H156.52Z" fill="#0052B4"/>
<path d="M120.001 187.826C120.001 187.826 137.592 172.743 148.358 151.305H91.6445C102.41 172.743 120.001 187.826 120.001 187.826Z" fill="#FFDA44"/>
<path d="M96.5234 99.1299H143.48L120.002 122.608L96.5234 99.1299Z" fill="#6DA544"/>
<path d="M112.172 114.783H127.824V161.74H112.172V114.783Z" fill="#A2001D"/>
</g>
<defs>
<clipPath id="clip0_8148_3767">
<rect width="240" height="240" fill="white"/>
</clipPath>
</defs>
</svg>
