<svg width="240" height="240" viewBox="0 0 240 240" fill="none" xmlns="http://www.w3.org/2000/svg">
<g clip-path="url(#clip0_8148_3778)">
<path d="M120 240C186.274 240 240 186.274 240 120C240 53.7258 186.274 0 120 0C53.7258 0 0 53.7258 0 120C0 186.274 53.7258 240 120 240Z" fill="#F0F0F0"/>
<path d="M240 120C240 72.4247 212.313 31.3172 172.174 11.9072V228.092C212.313 208.683 240 167.575 240 120Z" fill="#338AF3"/>
<path d="M0 120C0 167.575 27.6867 208.683 67.8262 228.093V11.9072C27.6867 31.3172 0 72.4247 0 120Z" fill="#338AF3"/>
<path d="M151.358 140.291L131.068 120.001L150.382 100.686L149.506 90.4854L143.977 84.9551L120 108.933L96.022 84.9551L90.4927 90.4854L89.6175 100.686L108.931 120.001L88.6406 140.291L99.7087 151.359L120 131.069L140.29 151.359L151.358 140.291Z" fill="#ACABB1"/>
<path d="M149.515 90.4863L138.447 101.554C143.168 106.275 146.088 112.796 146.088 120C146.088 134.408 134.408 146.087 120.001 146.087C105.594 146.087 93.9138 134.408 93.9138 120C93.9138 112.796 96.8341 106.275 101.555 101.554L90.4872 90.4863C82.9333 98.0388 78.2617 108.474 78.2617 120C78.2617 143.052 96.9489 161.739 120.001 161.739C143.052 161.739 161.74 143.052 161.74 120C161.74 108.474 157.068 98.0393 149.515 90.4863Z" fill="#6DA544"/>
</g>
<defs>
<clipPath id="clip0_8148_3778">
<rect width="240" height="240" fill="white"/>
</clipPath>
</defs>
</svg>
