<svg width="240" height="240" viewBox="0 0 240 240" fill="none" xmlns="http://www.w3.org/2000/svg">
<g clip-path="url(#clip0_8148_3785)">
<path d="M120 240C186.274 240 240 186.274 240 120C240 53.7258 186.274 0 120 0C53.7258 0 0 53.7258 0 120C0 186.274 53.7258 240 120 240Z" fill="#F0F0F0"/>
<path d="M238.984 104.348H135.653H135.652V1.01578C130.529 0.34875 125.305 0 120 0C114.695 0 109.471 0.34875 104.348 1.01578V104.348H1.01578C0.34875 109.471 0 114.695 0 120C0 125.305 0.34875 130.529 1.01578 135.652H104.347H104.348V238.984C109.471 239.651 114.695 240 120 240C125.305 240 130.529 239.652 135.652 238.984V135.653V135.652H238.984C239.651 130.529 240 125.305 240 120C240 114.695 239.651 109.471 238.984 104.348Z" fill="#D80027"/>
<path d="M153.914 125.217L161.74 130.434V109.565L153.914 114.782H125.218V86.0865L130.435 78.2607H109.566L114.783 86.0865V114.782H86.0875L78.2617 109.565V130.434L86.0875 125.217H114.783V153.913L109.566 161.739H130.435L125.218 153.913V125.217H153.914Z" fill="#FFDA44"/>
</g>
<defs>
<clipPath id="clip0_8148_3785">
<rect width="240" height="240" fill="white"/>
</clipPath>
</defs>
</svg>
