<svg width="240" height="240" viewBox="0 0 240 240" fill="none" xmlns="http://www.w3.org/2000/svg">
<g clip-path="url(#clip0_8148_3789)">
<path d="M120.001 0C109.17 0 98.6772 1.44375 88.6961 4.13391L78.2617 120L88.6966 235.866C98.6772 238.556 109.17 240 120.001 240C186.274 240 240.001 186.274 240.001 120C240.001 53.7262 186.274 0 120.001 0Z" fill="#FFDA44"/>
<path d="M78.2617 120L88.6966 235.866C98.6772 238.556 109.17 240 120.001 240C186.274 240 240.001 186.274 240.001 120H78.2617Z" fill="#6DA544"/>
<path d="M0 120C0 165.485 25.3078 205.057 62.6086 225.409V14.5908C25.3078 34.943 0 74.5149 0 120Z" fill="#D80027"/>
<path d="M0 120C0 175.443 37.6036 222.096 88.6955 235.866V4.13379C37.6036 17.9038 0 64.5566 0 120Z" fill="#D80027"/>
<path d="M45.3448 88.6953L53.1144 112.609H78.2609L57.9181 127.39L65.6872 151.304L45.3448 136.524L25.0016 151.304L32.7725 127.39L12.4297 112.609H37.5748L45.3448 88.6953Z" fill="black"/>
</g>
<defs>
<clipPath id="clip0_8148_3789">
<rect width="240" height="240" fill="white"/>
</clipPath>
</defs>
</svg>
