<svg width="240" height="240" viewBox="0 0 240 240" fill="none" xmlns="http://www.w3.org/2000/svg">
<g clip-path="url(#clip0_8148_3796)">
<path d="M161.741 7.46438C148.741 2.64047 134.679 0 120.001 0C105.323 0 91.262 2.64047 78.2626 7.46344L73.0449 120L78.2621 232.537C91.2619 237.36 105.323 240 120.001 240C134.68 240 148.741 237.36 161.741 232.536L166.958 120L161.741 7.46438Z" fill="#FFDA44"/>
<path d="M0 120C0 171.596 32.565 215.581 78.2611 232.536V7.46387C32.565 24.4195 0 68.4042 0 120Z" fill="#D80027"/>
<path d="M239.999 120C239.999 68.4042 207.434 24.4195 161.738 7.46387V232.537C207.434 215.581 239.999 171.596 239.999 120Z" fill="#6DA544"/>
</g>
<defs>
<clipPath id="clip0_8148_3796">
<rect width="240" height="240" fill="white"/>
</clipPath>
</defs>
</svg>
