<svg width="240" height="240" viewBox="0 0 240 240" fill="none" xmlns="http://www.w3.org/2000/svg">
<g clip-path="url(#clip0_8148_3800)">
<path d="M120 240C186.274 240 240 186.274 240 120C240 53.7258 186.274 0 120 0C53.7258 0 0 53.7258 0 120C0 186.274 53.7258 240 120 240Z" fill="#F0F0F0"/>
<path d="M119.999 0C98.7832 0 78.8576 5.51344 61.5645 15.1744V224.826C78.858 234.487 98.7832 240 119.999 240C186.273 240 239.999 186.274 239.999 120C239.999 53.7262 186.273 0 119.999 0Z" fill="#6DA544"/>
<path d="M61.9178 14.9766C54.3686 19.1602 47.3195 24.1327 40.8794 29.7858C41.5305 29.2148 42.1881 28.6505 42.8509 28.0936L134.756 120L42.8505 211.905C42.1872 211.349 41.53 210.784 40.8789 210.213C47.3191 215.866 54.3686 220.838 61.9173 225.023L240 120L61.9178 14.9766Z" fill="#F0F0F0"/>
<path d="M51.7837 21.2725C48.1241 23.8065 44.6095 26.5332 41.2602 29.4475L120.001 120L41.2598 210.552C44.609 213.466 48.1237 216.193 51.7832 218.727L219.459 120L51.7837 21.2725Z" fill="#FFDA44"/>
<path d="M42.8504 28.0938C40.1827 30.3353 37.6084 32.6852 35.1465 35.1466L109.565 120L35.1465 204.853C37.6084 207.315 40.1823 209.665 42.8504 211.906L134.756 120L42.8504 28.0938Z" fill="black"/>
<path d="M35.1471 35.1465C-11.7157 82.0093 -11.7157 157.989 35.1471 204.853C54.5126 185.487 73.1374 166.862 120 120L35.1471 35.1465Z" fill="#D80027"/>
</g>
<defs>
<clipPath id="clip0_8148_3800">
<rect width="240" height="240" fill="white"/>
</clipPath>
</defs>
</svg>
