<svg width="240" height="240" viewBox="0 0 240 240" fill="none" xmlns="http://www.w3.org/2000/svg">
<g clip-path="url(#clip0_8148_3807)">
<path d="M240 120C240 186.274 186.274 240 120 240C53.7262 240 0 186.274 0 120C0 53.7262 120 0 120 0C120 0 240 53.7262 240 120Z" fill="#A2001D"/>
<path d="M0 120C0 53.7262 53.7262 0 120 0C186.274 0 240 53.7262 240 120" fill="#0052B4"/>
<path d="M161.74 151.304L120.001 146.087L78.2617 151.304V88.6953H161.74V151.304Z" fill="#F0F0F0"/>
<path d="M120.001 146.087C131.527 146.087 140.87 136.743 140.87 125.217C140.87 113.691 131.527 104.348 120.001 104.348C108.475 104.348 99.1309 113.691 99.1309 125.217C99.1309 136.743 108.475 146.087 120.001 146.087Z" fill="#0052B4"/>
<path d="M119.999 135.652C125.762 135.652 130.434 130.98 130.434 125.217C130.434 119.454 125.762 114.782 119.999 114.782C114.236 114.782 109.564 119.454 109.564 125.217C109.564 130.98 114.236 135.652 119.999 135.652Z" fill="#A2001D"/>
<path d="M104.348 99.1299H135.652L120 114.782L104.348 99.1299Z" fill="#6DA544"/>
<path d="M114.783 109.565H125.218V140.87H114.783V109.565Z" fill="#FFDA44"/>
<path d="M136.696 137.739H103.304L78.2617 151.305H161.74L136.696 137.739Z" fill="#6DA544"/>
</g>
<defs>
<clipPath id="clip0_8148_3807">
<rect width="240" height="240" fill="white"/>
</clipPath>
</defs>
</svg>
