<svg width="240" height="240" viewBox="0 0 240 240" fill="none" xmlns="http://www.w3.org/2000/svg">
<g clip-path="url(#clip0_8148_3816)">
<path d="M120 240C186.274 240 240 186.274 240 120C240 53.7258 186.274 0 120 0C53.7258 0 0 53.7258 0 120C0 186.274 53.7258 240 120 240Z" fill="#F0F0F0"/>
<path d="M120.001 240C150.431 240 178.21 228.668 199.363 210H40.6387C61.792 228.668 89.571 240 120.001 240Z" fill="#D80027"/>
<path d="M3.78125 150C6.52109 160.644 10.6864 170.714 16.0583 180H223.943C229.315 170.714 233.48 160.644 236.22 150L120.001 140.87L3.78125 150Z" fill="#0052B4"/>
<path d="M236.22 90C233.48 79.3566 229.315 69.2859 223.943 60L120 57.3914C120 36.4322 120 16.6242 120 0C111.086 0 102.398 0.972656 94.0381 2.81625C93.8778 2.85188 15.6523 64.5553 15.6523 120C17.6525 120.348 120 130.435 120 130.435C120 130.435 120 107.578 120 90H236.22Z" fill="#0052B4"/>
<path d="M120 74.8697V14.8697H81.9961L94.0416 2.82422C44.5927 13.7302 6.59812 55.132 0.782812 106.305C0.271875 110.8 0 115.368 0 120H60.7828V96.083L84.9366 120H127.867L81.9956 74.8697H120Z" fill="#F0F0F0"/>
<path d="M120.055 120L74.9245 74.8697H60.7828V74.8702L105.913 120H45.652V60H223.942C217.409 48.7064 209.085 38.5795 199.363 30H45.652V25.8164C33.5452 35.3869 23.3302 47.2406 15.652 60.7284V120H0C0 130.359 1.3125 140.412 3.78047 150H236.22C238.688 140.411 240 130.359 240 120H120.055Z" fill="#D80027"/>
</g>
<defs>
<clipPath id="clip0_8148_3816">
<rect width="240" height="240" fill="white"/>
</clipPath>
</defs>
</svg>
