<svg width="240" height="240" viewBox="0 0 240 240" fill="none" xmlns="http://www.w3.org/2000/svg">
<g clip-path="url(#clip0_8148_3824)">
<path d="M120 240C186.274 240 240 186.274 240 120C240 53.7258 186.274 0 120 0C53.7258 0 0 53.7258 0 120C0 186.274 53.7258 240 120 240Z" fill="#F0F0F0"/>
<path d="M119.999 240C167.574 240 208.682 212.313 228.092 172.174H11.9062C31.3162 212.313 72.4237 240 119.999 240Z" fill="#338AF3"/>
<path d="M119.999 0C72.4237 0 31.3162 27.6867 11.9062 67.8262H228.091C208.682 27.6867 167.574 0 119.999 0Z" fill="#338AF3"/>
<path d="M73.8484 78.2607L77.7334 90.2181H90.3058L80.1348 97.6075L84.0203 109.565L73.8484 102.175L63.6766 109.565L67.562 97.6075L57.3906 90.2181H69.963L73.8484 78.2607Z" fill="#338AF3"/>
<path d="M73.8484 130.435L77.7334 142.392H90.3058L80.1348 149.782L84.0203 161.739L73.8484 154.349L63.6766 161.739L67.562 149.782L57.3906 142.392H69.963L73.8484 130.435Z" fill="#338AF3"/>
<path d="M166.149 78.2607L170.035 90.2181H182.607L172.436 97.6075L176.321 109.565L166.149 102.175L155.977 109.565L159.863 97.6075L149.691 90.2181H162.264L166.149 78.2607Z" fill="#338AF3"/>
<path d="M166.149 130.435L170.035 142.392H182.607L172.436 149.782L176.321 161.739L166.149 154.349L155.977 161.739L159.863 149.782L149.691 142.392H162.264L166.149 130.435Z" fill="#338AF3"/>
<path d="M119.999 104.348L123.884 116.305H136.457L126.285 123.695L130.171 135.652L119.999 128.262L109.827 135.652L113.712 123.695L103.541 116.305H116.113L119.999 104.348Z" fill="#338AF3"/>
</g>
<defs>
<clipPath id="clip0_8148_3824">
<rect width="240" height="240" fill="white"/>
</clipPath>
</defs>
</svg>
