<svg width="240" height="240" viewBox="0 0 240 240" fill="none" xmlns="http://www.w3.org/2000/svg">
<g clip-path="url(#clip0_8148_3834)">
<path d="M120 240C186.274 240 240 186.274 240 120C240 53.7258 186.274 0 120 0C53.7258 0 0 53.7258 0 120C0 186.274 53.7258 240 120 240Z" fill="#D80027"/>
<path d="M132.389 90.7818C129.662 102.125 124.817 99.9618 122.439 109.854C108.431 106.486 99.8041 92.4003 103.172 78.3918C106.539 64.3841 120.626 55.7572 134.634 59.1252C129.878 78.9097 134.829 80.6366 132.389 90.7818Z" fill="#F0F0F0"/>
<path d="M96.0415 99.1871C105.987 105.286 102.432 109.226 111.105 114.545C103.573 126.827 87.5112 130.678 75.229 123.146C62.9473 115.615 59.0956 99.5522 66.6274 87.2705C83.974 97.9074 87.1451 93.7322 96.0415 99.1871Z" fill="#F0F0F0"/>
<path d="M92.8024 136.356C101.676 128.782 104.324 133.38 112.063 126.775C121.417 137.733 120.116 154.2 109.158 163.554C98.1996 172.907 81.7334 171.605 72.3809 160.648C87.8562 147.437 84.8651 143.13 92.8024 136.356Z" fill="#F0F0F0"/>
<path d="M127.151 150.921C122.689 140.141 127.88 139.043 123.99 129.643C137.302 124.134 152.561 130.459 158.071 143.771C163.58 157.083 157.254 172.341 143.942 177.851C136.162 159.05 131.142 160.563 127.151 150.921Z" fill="#F0F0F0"/>
<path d="M151.618 122.755C139.987 123.667 140.545 118.389 130.403 119.185C129.277 104.823 140.009 92.2649 154.372 91.1375C168.734 90.013 181.292 100.744 182.418 115.107C162.132 116.698 162.02 121.94 151.618 122.755Z" fill="#F0F0F0"/>
</g>
<defs>
<clipPath id="clip0_8148_3834">
<rect width="240" height="240" fill="white"/>
</clipPath>
</defs>
</svg>
