<svg width="240" height="240" viewBox="0 0 240 240" fill="none" xmlns="http://www.w3.org/2000/svg">
<g clip-path="url(#clip0_8148_3854)">
<path d="M120 240C186.274 240 240 186.274 240 120C240 53.7258 186.274 0 120 0C53.7258 0 0 53.7258 0 120C0 186.274 53.7258 240 120 240Z" fill="#F0F0F0"/>
<path d="M119.999 0C72.4237 0 31.3162 27.6867 11.9062 67.8262H228.091C208.682 27.6867 167.574 0 119.999 0Z" fill="#FF9811"/>
<path d="M119.999 240C167.574 240 208.682 212.313 228.092 172.174H11.9062C31.3162 212.313 72.4237 240 119.999 240Z" fill="#6DA544"/>
<path d="M120.001 161.739C143.052 161.739 161.74 143.051 161.74 120C161.74 96.9479 143.052 78.2607 120.001 78.2607C96.9489 78.2607 78.2617 96.9479 78.2617 120C78.2617 143.051 96.9489 161.739 120.001 161.739Z" fill="#0052B4"/>
<path d="M120.001 146.087C134.408 146.087 146.088 134.407 146.088 120C146.088 105.593 134.408 93.9131 120.001 93.9131C105.594 93.9131 93.9141 105.593 93.9141 120C93.9141 134.407 105.594 146.087 120.001 146.087Z" fill="#F0F0F0"/>
<path d="M119.999 87.8086L128.047 106.061L147.877 103.904L136.095 120L147.877 136.095L128.047 133.938L119.999 152.19L111.951 133.938L92.1211 136.095L103.904 120L92.1211 103.904L111.951 106.061L119.999 87.8086Z" fill="#0052B4"/>
</g>
<defs>
<clipPath id="clip0_8148_3854">
<rect width="240" height="240" fill="white"/>
</clipPath>
</defs>
</svg>
