<svg width="240" height="240" viewBox="0 0 240 240" fill="none" xmlns="http://www.w3.org/2000/svg">
<g clip-path="url(#clip0_8148_3864)">
<path d="M120 240C186.274 240 240 186.274 240 120C240 53.7258 186.274 0 120 0C53.7258 0 0 53.7258 0 120C0 186.274 53.7258 240 120 240Z" fill="#F0F0F0"/>
<path d="M158.976 88.6958H143.275C143.405 90.4212 143.479 92.1622 143.479 93.913C143.479 105.521 140.577 116.773 135.519 124.782C133.958 127.252 131.336 130.74 127.826 133.093V88.6953H112.174V133.093C108.665 130.74 106.042 127.252 104.481 124.782C99.4227 116.773 96.5216 105.521 96.5216 93.913C96.5216 92.1622 96.5957 90.4208 96.7251 88.6958H81.0248C80.924 90.4128 80.8691 92.1519 80.8691 93.913C80.8691 126.095 98.0573 151.304 119.999 151.304C141.942 151.304 159.13 126.095 159.13 93.913C159.131 92.1519 159.076 90.4128 158.976 88.6958Z" fill="#D80027"/>
<path d="M49.5642 57.3914H65.2163V67.8262H80.8683V57.3914H96.5203V67.8262H112.172V57.3914H127.824V67.8262H143.476V57.3914H159.128V67.8262H174.78V57.3914H190.432V67.8262H228.09C208.682 27.6867 167.574 0 119.999 0C72.4242 0 31.3162 27.6867 11.9062 67.8262H49.5642V57.3914Z" fill="#6DA544"/>
<path d="M190.434 172.174V182.609H174.782V172.174H159.13V182.609H143.478V172.174H127.826V182.609H112.174V172.174H96.5217V182.609H80.8697V172.174H65.2163V182.609H49.5642V172.174H11.9062C31.3162 212.313 72.4237 240 119.999 240C167.574 240 208.682 212.313 228.092 172.174H190.434Z" fill="#D80027"/>
</g>
<defs>
<clipPath id="clip0_8148_3864">
<rect width="240" height="240" fill="white"/>
</clipPath>
</defs>
</svg>
