<svg width="240" height="240" viewBox="0 0 240 240" fill="none" xmlns="http://www.w3.org/2000/svg">
<g clip-path="url(#clip0_8148_3869)">
<path d="M120 240C186.274 240 240 186.274 240 120C240 53.7258 186.274 0 120 0C53.7258 0 0 53.7258 0 120C0 186.274 53.7258 240 120 240Z" fill="#F0F0F0"/>
<path d="M120.001 0C68.4052 0 24.42 32.565 7.46484 78.2611H232.538C215.582 32.565 171.597 0 120.001 0Z" fill="#A2001D"/>
<path d="M120.001 240C171.597 240 215.582 207.435 232.537 161.739H7.46484C24.42 207.435 68.4052 240 120.001 240Z" fill="black"/>
<path d="M91.3039 112.174C91.2383 112.174 91.1741 112.178 91.1084 112.179V112.174H68.1692C69.3322 107.68 73.4094 104.347 78.2605 104.347V88.6953C63.8759 88.6953 52.1736 100.398 52.1736 114.782V127.565V127.826H91.1084H91.3039C92.7425 127.826 93.9125 128.997 93.9125 130.435V135.652H41.7383V151.304H109.565V130.434C109.565 120.365 101.373 112.174 91.3039 112.174Z" fill="#496E2D"/>
<path d="M130.433 135.652V88.6953H114.781V151.304H140.868V135.652H130.433Z" fill="#496E2D"/>
<path d="M182.608 135.652V88.6953H166.956V135.652H161.738V120H146.086V151.305H193.042V135.652H182.608Z" fill="#496E2D"/>
</g>
<defs>
<clipPath id="clip0_8148_3869">
<rect width="240" height="240" fill="white"/>
</clipPath>
</defs>
</svg>
