<svg width="240" height="240" viewBox="0 0 240 240" fill="none" xmlns="http://www.w3.org/2000/svg">
<g clip-path="url(#clip0_8148_3877)">
<path d="M120 240C186.274 240 240 186.274 240 120C240 53.7258 186.274 0 120 0C53.7258 0 0 53.7258 0 120C0 186.274 53.7258 240 120 240Z" fill="#F0F0F0"/>
<path d="M239.999 120C239.999 68.4052 207.434 24.4195 161.738 7.46484V232.538C207.434 215.581 239.999 171.597 239.999 120Z" fill="#FF9811"/>
<path d="M0 120C0 171.597 32.565 215.581 78.2611 232.537V7.46484C32.565 24.4195 0 68.4052 0 120Z" fill="#6DA544"/>
</g>
<defs>
<clipPath id="clip0_8148_3877">
<rect width="240" height="240" fill="white"/>
</clipPath>
</defs>
</svg>
