<svg width="240" height="240" viewBox="0 0 240 240" fill="none" xmlns="http://www.w3.org/2000/svg">
<g clip-path="url(#clip0_8148_3881)">
<path d="M120 240C186.274 240 240 186.274 240 120C240 53.7258 186.274 0 120 0C53.7258 0 0 53.7258 0 120C0 186.274 53.7258 240 120 240Z" fill="#D80027"/>
<path d="M164.431 80.4431L155.949 110.711L130.501 106.012L114.12 72.2451L69.8668 87.9487L66.377 78.1143L54.7988 76.6879L63.5227 101.273L93.977 93.4851L102.631 117.874L81.579 148.943L117.306 179.415L110.534 187.354L115.088 198.095L132.018 178.246L110.046 155.767L126.84 136.078L164.273 138.775L172.799 92.5982L183.061 94.4934L190.087 85.1793L164.431 80.4431Z" fill="#F0F0F0"/>
</g>
<defs>
<clipPath id="clip0_8148_3881">
<rect width="240" height="240" fill="white"/>
</clipPath>
</defs>
</svg>
