<svg width="240" height="240" viewBox="0 0 240 240" fill="none" xmlns="http://www.w3.org/2000/svg">
<g clip-path="url(#clip0_8148_3884)">
<path d="M120 240C186.274 240 240 186.274 240 120C240 53.7258 186.274 0 120 0C53.7258 0 0 53.7258 0 120C0 186.274 53.7258 240 120 240Z" fill="#F0F0F0"/>
<path d="M165.185 93.9131H135.062L120.001 67.8262L104.94 93.9131H74.8164L89.8792 120L74.8164 146.087H104.94L120.001 172.174L135.062 146.087H165.185L150.122 120L165.185 93.9131ZM138.505 120L129.253 136.026H110.749L101.497 120L110.749 103.974H129.253L138.505 120ZM120.001 87.9482L123.444 93.9126H116.558L120.001 87.9482ZM92.2441 103.974H99.1309L95.6875 109.939L92.2441 103.974ZM92.2441 136.026L95.688 130.061L99.1314 136.026H92.2441ZM120.001 152.051L116.558 146.087H123.444L120.001 152.051ZM147.757 136.026H140.87L144.314 130.061L147.757 136.026ZM140.87 103.974H147.757L144.314 109.939L140.87 103.974Z" fill="#0052B4"/>
<path d="M194.699 26.0869H45.3019C34.3505 34.8094 24.9586 45.4041 17.6133 57.3914H222.388C215.042 45.4046 205.65 34.8094 194.699 26.0869Z" fill="#0052B4"/>
<path d="M45.3019 213.913H194.699C205.65 205.19 215.042 194.596 222.387 182.608H17.6133C24.9591 194.595 34.3509 205.19 45.3019 213.913Z" fill="#0052B4"/>
</g>
<defs>
<clipPath id="clip0_8148_3884">
<rect width="240" height="240" fill="white"/>
</clipPath>
</defs>
</svg>
