<svg width="240" height="240" viewBox="0 0 240 240" fill="none" xmlns="http://www.w3.org/2000/svg">
<g clip-path="url(#clip0_8148_3898)">
<path d="M120 240C186.274 240 240 186.274 240 120C240 53.7258 186.274 0 120 0C53.7258 0 0 53.7258 0 120C0 186.274 53.7258 240 120 240Z" fill="#FFDA44"/>
<path d="M193.057 24.8063C172.822 9.25266 147.493 0 119.999 0C92.5053 0 67.1759 9.25312 46.9414 24.8063L119.999 97.8638L193.057 24.8063Z" fill="#6DA544"/>
<path d="M24.8058 46.9424C9.25312 67.1769 0 92.5058 0 120C0 147.494 9.25312 172.823 24.8062 193.058L97.8642 120L24.8058 46.9424Z" fill="black"/>
<path d="M46.9414 215.194C67.1764 230.748 92.5053 240 119.999 240C147.493 240 172.822 230.747 193.057 215.194L119.999 142.137L46.9414 215.194Z" fill="#6DA544"/>
<path d="M215.194 193.057C230.748 172.823 240 147.494 240 120C240 92.5058 230.748 67.1769 215.194 46.9424L142.137 120L215.194 193.057Z" fill="black"/>
</g>
<defs>
<clipPath id="clip0_8148_3898">
<rect width="240" height="240" fill="white"/>
</clipPath>
</defs>
</svg>
