<svg width="240" height="240" viewBox="0 0 240 240" fill="none" xmlns="http://www.w3.org/2000/svg">
<g clip-path="url(#clip0_8148_3907)">
<path d="M120 240C186.274 240 240 186.274 240 120C240 53.7258 186.274 0 120 0C53.7258 0 0 53.7258 0 120C0 186.274 53.7258 240 120 240Z" fill="#F0F0F0"/>
<path d="M215.201 193.066L142.135 120.001H142.134L215.201 46.9332C212.05 42.8382 208.603 38.8983 204.852 35.1469C201.101 31.396 197.161 27.9483 193.066 24.7979L120 97.8643L119.999 97.8647L46.9327 24.7979C42.8381 27.9488 38.8978 31.3955 35.1464 35.1469C31.395 38.8983 27.9478 42.8382 24.7973 46.9332L97.8638 119.999L97.8642 120L24.7969 193.067C27.9483 197.162 31.3955 201.102 35.1459 204.853C38.8973 208.604 42.8367 212.052 46.9322 215.202L119.999 142.136L120 142.135L193.066 215.202C197.16 212.051 201.101 208.604 204.852 204.853C208.604 201.101 212.05 197.161 215.201 193.066Z" fill="#D80027"/>
<path d="M99.1309 36.5214L120.001 41.7386L140.87 36.5214V18.7825L132.522 22.9563L120.001 10.4346L107.479 22.9563L99.1309 18.7825V36.5214Z" fill="#FFDA44"/>
<path d="M99.1309 36.5215V49.5659C99.1309 65.5409 120.001 70.4355 120.001 70.4355C120.001 70.4355 140.87 65.5404 140.87 49.5659V36.5215H99.1309Z" fill="#D80027"/>
</g>
<defs>
<clipPath id="clip0_8148_3907">
<rect width="240" height="240" fill="white"/>
</clipPath>
</defs>
</svg>
