<svg width="240" height="240" viewBox="0 0 240 240" fill="none" xmlns="http://www.w3.org/2000/svg">
<g clip-path="url(#clip0_8148_3912)">
<path d="M120 240C186.274 240 240 186.274 240 120C240 53.7258 186.274 0 120 0C53.7258 0 0 53.7258 0 120C0 186.274 53.7258 240 120 240Z" fill="#F0F0F0"/>
<path d="M73.0427 78.2611H232.535C215.58 32.565 171.595 0 119.999 0C86.8615 0 56.8648 13.4339 35.1504 35.1511L73.0427 78.2611Z" fill="black"/>
<path d="M73.0427 161.739H232.535C215.58 207.435 171.595 240 119.999 240C86.8615 240 56.8648 226.566 35.1504 204.849L73.0427 161.739Z" fill="#6DA544"/>
<path d="M35.1471 35.1465C-11.7157 82.0093 -11.7157 157.989 35.1471 204.853C54.5126 185.487 73.1374 166.862 120 120L35.1471 35.1465Z" fill="#D80027"/>
<path d="M47.6268 93.9131L54.2123 107.684L69.0852 104.247L62.4243 117.982L74.3845 127.467L59.4937 130.822L59.5349 146.087L47.6268 136.537L35.7182 146.087L35.7599 130.822L20.8691 127.467L32.8288 117.982L26.1688 104.247L41.0409 107.684L47.6268 93.9131Z" fill="#F0F0F0"/>
</g>
<defs>
<clipPath id="clip0_8148_3912">
<rect width="240" height="240" fill="white"/>
</clipPath>
</defs>
</svg>
