<svg width="240" height="240" viewBox="0 0 240 240" fill="none" xmlns="http://www.w3.org/2000/svg">
<g clip-path="url(#clip0_8148_3918)">
<path d="M120 240C186.274 240 240 186.274 240 120C240 53.7258 186.274 0 120 0C53.7258 0 0 53.7258 0 120C0 186.274 53.7258 240 120 240Z" fill="#338AF3"/>
<path d="M187.826 121.305H52.1738C52.1738 130.67 60.3306 138.261 69.6948 138.261H69.1304C69.1304 147.626 76.7218 155.218 86.0869 155.218C86.0869 164.583 93.6784 172.174 103.044 172.174H136.957C146.322 172.174 153.913 164.583 153.913 155.218C163.278 155.218 170.87 147.626 170.87 138.261H170.305C179.669 138.261 187.826 130.67 187.826 121.305Z" fill="#FFDA44"/>
<path d="M166.956 99.1299C166.956 125.063 145.933 146.086 120 146.086C94.0659 146.086 73.043 125.063 73.043 99.1299" fill="#338AF3"/>
<path d="M155.866 99.1306L141.21 106.025L149.014 120.218L133.1 117.174L131.084 133.25L119.999 121.426L108.914 133.25L106.898 117.174L90.9841 120.217L98.7878 106.024L84.1328 99.1306L98.7883 92.2372L90.9841 78.0439L106.898 81.088L108.915 65.0117L119.999 76.8359L131.084 65.0117L133.1 81.088L149.015 78.0439L141.211 92.2377L155.866 99.1306Z" fill="#FFDA44"/>
</g>
<defs>
<clipPath id="clip0_8148_3918">
<rect width="240" height="240" fill="white"/>
</clipPath>
</defs>
</svg>
