<svg width="240" height="240" viewBox="0 0 240 240" fill="none" xmlns="http://www.w3.org/2000/svg">
<g clip-path="url(#clip0_8148_3923)">
<path d="M120 240C186.274 240 240 186.274 240 120C240 53.7258 186.274 0 120 0C53.7258 0 0 53.7258 0 120C0 186.274 53.7258 240 120 240Z" fill="#F0F0F0"/>
<path d="M119.999 0C72.4237 0 31.3162 27.6867 11.9062 67.8262H228.091C208.682 27.6867 167.574 0 119.999 0Z" fill="black"/>
<path d="M119.999 240C72.4237 240 31.3162 212.313 11.9062 172.174H228.091C208.682 212.313 167.574 240 119.999 240Z" fill="#496E2D"/>
<path d="M234.333 83.4785H5.66672C1.99078 94.9952 0 107.265 0 120C0 132.736 1.99078 145.005 5.66672 156.522H234.333C238.009 145.005 240 132.736 240 120C240 107.265 238.009 94.9952 234.333 83.4785Z" fill="#A2001D"/>
<path d="M157.366 55.4538L143.155 48.8945L119.999 101.325L96.8439 48.8945L82.6328 55.4538L111.38 120L82.6328 184.547L96.8439 191.106L119.999 138.676L143.155 191.106L157.366 184.547L128.618 120L157.366 55.4538Z" fill="#F0F0F0"/>
<path d="M129.652 61.6355C124.15 55.6276 120 52.1738 120 52.1738C120 52.1738 115.849 55.6271 110.348 61.6355V178.364C115.849 184.373 120 187.826 120 187.826C120 187.826 124.15 184.373 129.652 178.364V61.6355Z" fill="#F0F0F0"/>
<path d="M93.9141 84.02V155.979C99.7275 166.279 106.843 174.723 112.175 180.32V59.6787C106.843 65.2761 99.727 73.7196 93.9141 84.02Z" fill="#A2001D"/>
<path d="M146.087 84.02C140.273 73.7192 133.159 65.2761 127.826 59.6787V180.32C133.158 174.723 140.273 166.279 146.087 155.979V84.02Z" fill="#A2001D"/>
<path d="M146.086 84.0205V155.979C151.971 145.55 156.521 133.218 156.521 120C156.521 106.783 151.971 94.4502 146.086 84.0205Z" fill="black"/>
<path d="M93.9134 84.0205V155.979C88.0282 145.55 83.4785 133.218 83.4785 120C83.4785 106.783 88.0282 94.4502 93.9134 84.0205Z" fill="black"/>
</g>
<defs>
<clipPath id="clip0_8148_3923">
<rect width="240" height="240" fill="white"/>
</clipPath>
</defs>
</svg>
