<svg width="240" height="240" viewBox="0 0 240 240" fill="none" xmlns="http://www.w3.org/2000/svg">
<g clip-path="url(#clip0_8148_3936)">
<path d="M0 120C0 53.7262 53.7262 0 120 0C186.274 0 240 53.7262 240 120" fill="#D80027"/>
<path d="M161.74 111.599L144.684 119.621L153.767 136.139L135.247 132.596L132.9 151.304L120.001 137.544L107.101 151.304L104.755 132.596L86.2347 136.138L95.3167 119.621L78.2617 111.599L95.3167 103.576L86.2347 87.0595L104.754 90.6014L107.101 71.8936L120.001 85.6528L132.901 71.8936L135.247 90.6014L153.767 87.0595L144.685 103.577L161.74 111.599Z" fill="#FFDA44"/>
<path d="M151.304 39.13H127.826C127.826 34.8086 124.322 31.3037 120 31.3037C115.678 31.3037 112.174 34.8081 112.174 39.13H88.6953C88.6953 43.4518 92.4603 46.9562 96.7822 46.9562H96.5211C96.5211 51.2781 100.025 54.7825 104.347 54.7825C104.347 59.1043 107.851 62.6087 112.174 62.6087H127.826C132.147 62.6087 135.652 59.1048 135.652 54.7825C139.973 54.7825 143.478 51.2786 143.478 46.9562H143.217C147.539 46.9562 151.304 43.4523 151.304 39.13Z" fill="#FFDA44"/>
<path d="M240 120C240 186.274 186.274 240 120 240C53.7262 240 0 186.274 0 120H240Z" fill="#F0F0F0"/>
<path d="M120 240C157.511 240 190.995 222.785 213.001 195.83C209.043 193.132 206.906 188.77 199.999 188.77C189.999 188.77 189.999 197.913 179.999 197.913C170 197.913 170 188.77 160 188.77C150 188.77 150 197.913 140 197.913C130 197.913 129.999 188.77 119.999 188.77C109.999 188.77 109.999 197.913 99.9993 197.913C90.0009 197.913 90.0009 188.77 80.001 188.77C70.0002 188.77 70.0002 197.913 59.9995 197.913C49.9987 197.913 49.9987 188.77 39.9979 188.77C33.0913 188.77 30.9543 193.131 26.998 195.829C49.003 222.785 82.4896 240 120 240Z" fill="#0052B4"/>
<path d="M219.999 135.305C209.999 135.305 209.999 126.161 199.998 126.161C189.999 126.161 189.999 135.305 179.999 135.305C170 135.305 169.999 126.161 160 126.161C150 126.161 150 135.305 140 135.305C130 135.305 129.999 126.161 119.998 126.161C109.998 126.161 109.998 135.305 99.9991 135.305C90.0006 135.305 90.0006 126.161 80.0008 126.161C70 126.161 70 135.305 59.9992 135.305C49.9984 135.305 49.9984 126.161 39.9977 126.161C29.9992 126.161 29.9992 135.305 19.9994 135.305C10.0534 135.305 9.99578 126.262 0.15625 126.165C0.433281 131.654 1.08859 137.043 2.07953 142.313C10.0502 143.484 10.7481 151.304 19.9998 151.304C29.9997 151.304 29.9997 142.162 39.9981 142.162C49.9989 142.162 49.9989 151.304 59.9997 151.304C70.0005 151.304 70.0005 142.162 80.0013 142.162C90.0011 142.162 90.0011 151.304 99.9995 151.304C109.999 151.304 109.999 142.162 119.999 142.162C130 142.162 130 151.304 140 151.304C150.001 151.304 150.001 142.162 160 142.162C170 142.162 170 151.304 180 151.304C189.999 151.304 190 142.162 199.999 142.162C210 142.162 210 151.304 219.999 151.304C229.252 151.304 229.95 143.485 237.921 142.313C238.912 137.043 239.567 131.655 239.845 126.166C230.004 126.263 229.945 135.305 219.999 135.305Z" fill="#0052B4"/>
<path d="M199.998 157.466C189.998 157.466 189.998 166.609 179.998 166.609C169.999 166.609 169.999 157.466 159.999 157.466C149.999 157.466 149.999 166.609 139.999 166.609C129.998 166.609 129.998 157.466 119.997 157.466C109.998 157.466 109.998 166.609 99.9983 166.609C89.9998 166.609 89.9998 157.466 80 157.466C69.9992 157.466 69.9992 166.609 59.9984 166.609C49.9977 166.609 49.9977 157.466 39.9969 157.466C29.9984 157.466 29.9984 166.609 19.9986 166.609C12.8534 166.609 10.8125 161.942 6.58203 159.276C9.39828 167.413 13.062 175.154 17.4744 182.389C18.2417 182.531 19.077 182.609 19.9986 182.609C29.9984 182.609 29.9984 173.467 39.9969 173.467C49.9977 173.467 49.9977 182.609 59.9984 182.609C69.9992 182.609 69.9992 173.467 80 173.467C89.9998 173.467 89.9998 182.609 99.9983 182.609C109.998 182.609 109.998 173.467 119.997 173.467C129.998 173.467 129.998 182.609 139.999 182.609C150 182.609 150 173.467 159.999 173.467C169.999 173.467 169.999 182.609 179.998 182.609C189.998 182.609 189.998 173.467 199.998 173.467C209.998 173.467 209.998 182.609 219.998 182.609C220.92 182.609 221.756 182.531 222.523 182.389C226.935 175.154 230.599 167.413 233.416 159.277C229.185 161.941 227.144 166.609 219.998 166.609C209.998 166.609 209.998 157.466 199.998 157.466Z" fill="#0052B4"/>
<path d="M239.628 110.519C230.004 110.746 229.872 119.652 219.998 119.652C209.999 119.652 209.999 110.509 199.998 110.509C189.998 110.509 189.998 119.652 179.999 119.652C170 119.652 169.999 110.509 160 110.509C150 110.509 150 119.652 140 119.652C129.999 119.652 129.999 110.509 119.998 110.509C109.998 110.509 109.998 119.652 99.9989 119.652C90.0005 119.652 90.0005 110.509 80.0006 110.509C69.9998 110.509 69.9998 119.652 59.9991 119.652C49.9983 119.652 49.9983 110.509 39.9975 110.509C29.9991 110.509 29.9991 119.652 19.9992 119.652C10.1278 119.652 9.99422 110.747 0.371719 110.519C0.1275 113.648 0 116.809 0 120C0 122.185 0.061875 124.357 0.178594 126.514C9.99563 126.624 10.0608 135.652 19.9997 135.652C29.9995 135.652 29.9995 126.509 39.998 126.509C49.9987 126.509 49.9987 135.652 59.9995 135.652C70.0003 135.652 70.0003 126.509 80.0011 126.509C90.0009 126.509 90.0009 135.652 99.9994 135.652C109.999 135.652 109.999 126.509 119.999 126.509C129.999 126.509 129.999 135.652 140 135.652C150.001 135.652 150.001 126.509 160 126.509C170 126.509 170 135.652 180 135.652C189.999 135.652 189.999 126.509 199.999 126.509C210 126.509 210 135.652 219.999 135.652C229.939 135.652 230.004 126.624 239.823 126.514C239.938 124.357 240 122.185 240 120C240 116.809 239.872 113.648 239.628 110.519Z" fill="#F0F0F0"/>
</g>
<defs>
<clipPath id="clip0_8148_3936">
<rect width="240" height="240" fill="white"/>
</clipPath>
</defs>
</svg>
