<svg width="240" height="240" viewBox="0 0 240 240" fill="none" xmlns="http://www.w3.org/2000/svg">
<g clip-path="url(#clip0_8148_3947)">
<path d="M120 240C186.274 240 240 186.274 240 120C240 53.7258 186.274 0 120 0C53.7258 0 0 53.7258 0 120C0 186.274 53.7258 240 120 240Z" fill="#0052B4"/>
<path d="M52.7098 73.0439L55.3002 81.0165H63.6814L56.9009 85.9425L59.4908 93.9136L52.7098 88.9875L45.9284 93.9136L48.5192 85.9425L41.7383 81.0165H50.1191L52.7098 73.0439Z" fill="#F0F0F0"/>
<path d="M78.7953 65.2178L81.3856 73.1898H89.7669L82.9864 78.1159L85.5763 86.087L78.7953 81.1609L72.0144 86.087L74.6047 78.1159L67.8242 73.1898H76.2055L78.7953 65.2178Z" fill="#F0F0F0"/>
<path d="M104.885 57.3916L107.475 65.3636H115.857L109.076 70.2902L111.666 78.2613L104.885 73.3347L98.1042 78.2613L100.695 70.2902L93.9141 65.3636H102.295L104.885 57.3916Z" fill="#F0F0F0"/>
<path d="M187.288 73.0439L184.698 81.0165H176.316L183.097 85.9425L180.507 93.9136L187.288 88.9875L194.069 93.9136L191.479 85.9425L198.26 81.0165H189.878L187.288 73.0439Z" fill="#F0F0F0"/>
<path d="M161.202 65.2178L158.612 73.1898H150.23L157.011 78.1159L154.421 86.087L161.202 81.1609L167.983 86.087L165.393 78.1159L172.173 73.1898H163.792L161.202 65.2178Z" fill="#F0F0F0"/>
<path d="M135.116 57.3916L132.526 65.3636H124.145L130.925 70.2902L128.335 78.2613L135.116 73.3347L141.897 78.2613L139.307 70.2902L146.087 65.3636H137.706L135.116 57.3916Z" fill="#F0F0F0"/>
<path d="M140.868 125.217L119.998 99.1299L109.563 104.347V114.782L93.9114 125.217H83.4766V138.698C98.7709 144.891 109.563 159.876 109.563 177.391H119.998V166.956L130.433 156.521L140.868 166.956L151.303 156.521V146.086L161.738 130.434L140.868 125.217Z" fill="#FFDA44"/>
</g>
<defs>
<clipPath id="clip0_8148_3947">
<rect width="240" height="240" fill="white"/>
</clipPath>
</defs>
</svg>
