<svg width="240" height="240" viewBox="0 0 240 240" fill="none" xmlns="http://www.w3.org/2000/svg">
<g clip-path="url(#clip0_8148_3957)">
<path d="M232.536 161.739C237.36 148.739 240 134.678 240 120C240 105.321 237.36 91.2609 232.536 78.261L120 67.8262L7.46391 78.261C2.64047 91.2609 0 105.321 0 120C0 134.678 2.64047 148.739 7.46391 161.739L120 172.174L232.536 161.739Z" fill="#F0F0F0"/>
<path d="M120.001 240C171.597 240 215.582 207.435 232.537 161.739H7.46484C24.4205 207.435 68.4052 240 120.001 240Z" fill="#D80027"/>
<path d="M120.001 0C68.4052 0 24.4205 32.565 7.46484 78.2611H232.538C215.582 32.565 171.597 0 120.001 0Z" fill="#6DA544"/>
<path d="M35.1471 35.1465C-11.7157 82.0093 -11.7157 157.989 35.1471 204.853C47.3791 192.621 59.3182 180.682 78.2608 161.739V78.2607L35.1471 35.1465Z" fill="black"/>
</g>
<defs>
<clipPath id="clip0_8148_3957">
<rect width="240" height="240" fill="white"/>
</clipPath>
</defs>
</svg>
