<svg width="240" height="240" viewBox="0 0 240 240" fill="none" xmlns="http://www.w3.org/2000/svg">
<g clip-path="url(#clip0_8148_3962)">
<path d="M120 240C186.274 240 240 186.274 240 120C240 53.7258 186.274 0 120 0C53.7258 0 0 53.7258 0 120C0 186.274 53.7258 240 120 240Z" fill="#D80027"/>
<path d="M178.685 120L154.706 131.279L167.475 154.504L141.435 149.522L138.136 175.826L119.998 156.481L101.861 175.826L98.5617 149.522L72.5236 154.503L85.2924 131.278L61.3125 120L85.2924 108.721L72.5236 85.4959L98.5608 90.4787L101.862 64.1738L119.998 83.5196L138.137 64.1738L141.435 90.4787L167.476 85.4959L154.706 108.723L178.685 120Z" fill="#FFDA44"/>
<path d="M119.998 156.522C140.169 156.522 156.52 140.171 156.52 120C156.52 99.8298 140.169 83.4785 119.998 83.4785C99.8279 83.4785 83.4766 99.8298 83.4766 120C83.4766 140.171 99.8279 156.522 119.998 156.522Z" fill="#D80027"/>
<path d="M101.739 120C100.859 120 99.9902 120.045 99.1328 120.13C99.1642 125.189 100.994 129.818 104.017 133.415C105.629 129.076 108.037 125.119 111.073 121.733C108.173 120.618 105.027 120 101.739 120Z" fill="#FFDA44"/>
<path d="M112.98 139.656C115.174 140.44 117.536 140.869 120 140.869C122.464 140.869 124.826 140.44 127.02 139.656C125.824 134.963 123.355 130.773 120 127.48C116.645 130.772 114.176 134.963 112.98 139.656Z" fill="#FFDA44"/>
<path d="M138.071 109.568C134.463 103.331 127.723 99.1299 119.998 99.1299C112.273 99.1299 105.534 103.33 101.926 109.568C108.504 109.601 114.673 111.39 119.998 114.479C125.324 111.39 131.492 109.601 138.071 109.568Z" fill="#FFDA44"/>
<path d="M128.926 121.733C131.962 125.119 134.369 129.075 135.982 133.415C139.004 129.818 140.834 125.189 140.866 120.13C140.008 120.045 139.139 120 138.26 120C134.972 120 131.826 120.617 128.926 121.733Z" fill="#FFDA44"/>
</g>
<defs>
<clipPath id="clip0_8148_3962">
<rect width="240" height="240" fill="white"/>
</clipPath>
</defs>
</svg>
