<svg width="240" height="240" viewBox="0 0 240 240" fill="none" xmlns="http://www.w3.org/2000/svg">
<g clip-path="url(#clip0_8148_3971)">
<path d="M228.092 67.8262C208.682 27.6867 167.574 0 119.999 0C72.4237 0 31.3162 27.6867 11.9062 67.8262L119.999 78.2611L228.092 67.8262Z" fill="#D80027"/>
<path d="M11.9062 172.174C31.3162 212.314 72.4237 240 119.999 240C167.574 240 208.682 212.314 228.092 172.174L119.999 161.739L11.9062 172.174Z" fill="#D80027"/>
<path d="M228.093 67.8262H11.9072C4.27875 83.602 0 101.301 0 120C0 138.699 4.27875 156.398 11.9072 172.174H228.092C235.722 156.398 240 138.699 240 120C240 101.301 235.722 83.602 228.093 67.8262Z" fill="#0052B4"/>
<path d="M120.001 161.739C143.052 161.739 161.74 143.051 161.74 120C161.74 96.9479 143.052 78.2607 120.001 78.2607C96.9489 78.2607 78.2617 96.9479 78.2617 120C78.2617 143.051 96.9489 161.739 120.001 161.739Z" fill="#F0F0F0"/>
</g>
<defs>
<clipPath id="clip0_8148_3971">
<rect width="240" height="240" fill="white"/>
</clipPath>
</defs>
</svg>
