<svg width="240" height="240" viewBox="0 0 240 240" fill="none" xmlns="http://www.w3.org/2000/svg">
<g clip-path="url(#clip0_8148_3977)">
<path d="M120 240C186.274 240 240 186.274 240 120C240 53.7258 186.274 0 120 0C53.7258 0 0 53.7258 0 120C0 186.274 53.7258 240 120 240Z" fill="#F0F0F0"/>
<path d="M119.999 0C64.5556 0 17.9028 37.6036 4.13281 88.6955H235.865C222.095 37.6036 175.442 0 119.999 0Z" fill="#A2001D"/>
<path d="M119.999 240C175.442 240 222.095 202.397 235.865 151.305H4.13281C17.9028 202.396 64.5556 240 119.999 240Z" fill="#A2001D"/>
</g>
<defs>
<clipPath id="clip0_8148_3977">
<rect width="240" height="240" fill="white"/>
</clipPath>
</defs>
</svg>
