<svg width="240" height="240" viewBox="0 0 240 240" fill="none" xmlns="http://www.w3.org/2000/svg">
<g clip-path="url(#clip0_8148_3982)">
<path d="M120 240C186.274 240 240 186.274 240 120C240 53.7258 186.274 0 120 0C53.7258 0 0 53.7258 0 120C0 186.274 53.7258 240 120 240Z" fill="#F0F0F0"/>
<path d="M119.999 0C72.4237 0 31.3162 27.6867 11.9062 67.8262H228.091C208.682 27.6867 167.574 0 119.999 0Z" fill="#D80027"/>
<path d="M119.999 240C167.574 240 208.682 212.313 228.092 172.174H11.9062C31.3162 212.313 72.4237 240 119.999 240Z" fill="#D80027"/>
<path d="M151.304 140.87L120 83.4785L88.6953 140.87H112.174V156.522H127.826V140.87H151.304Z" fill="#6DA544"/>
</g>
<defs>
<clipPath id="clip0_8148_3982">
<rect width="240" height="240" fill="white"/>
</clipPath>
</defs>
</svg>
