<svg width="240" height="240" viewBox="0 0 240 240" fill="none" xmlns="http://www.w3.org/2000/svg">
<g clip-path="url(#clip0_8148_3988)">
<path d="M0 120C0 138.698 4.27828 156.397 11.9072 172.174L120 177.391L228.093 172.174C235.722 156.397 240 138.698 240 120C240 101.301 235.722 83.6023 228.093 67.8261L120 62.6084L11.9072 67.8256C4.27828 83.6023 0 101.301 0 120H0Z" fill="#F0F0F0"/>
<path d="M119.999 240C167.574 240 208.682 212.313 228.092 172.174H11.9062C31.3162 212.313 72.4237 240 119.999 240Z" fill="#6DA544"/>
<path d="M119.999 0C72.4237 0 31.3162 27.6867 11.9062 67.8262H228.091C208.682 27.6867 167.574 0 119.999 0Z" fill="#0052B4"/>
<path d="M127.826 117.392V88.6963H112.174V117.392L93.2695 136.297C98.7675 145.297 108.682 151.305 120 151.305C131.319 151.305 141.233 145.297 146.731 136.297L127.826 117.392Z" fill="black"/>
</g>
<defs>
<clipPath id="clip0_8148_3988">
<rect width="240" height="240" fill="white"/>
</clipPath>
</defs>
</svg>
