<svg width="240" height="240" viewBox="0 0 240 240" fill="none" xmlns="http://www.w3.org/2000/svg">
<g clip-path="url(#clip0_8148_3993)">
<path d="M120 240C186.274 240 240 186.274 240 120C240 53.7258 186.274 0 120 0C53.7258 0 0 53.7258 0 120C0 186.274 53.7258 240 120 240Z" fill="#F0F0F0"/>
<path d="M27.4297 43.6368H212.571C205.733 35.3563 197.802 28.0134 189.004 21.8188H50.997C42.1991 28.0124 34.2683 35.3559 27.4297 43.6368Z" fill="#F0F0F0"/>
<path d="M0 120C0 123.678 0.174844 127.315 0.49875 130.909H239.501C239.825 127.315 240 123.678 240 120C240 116.322 239.825 112.685 239.501 109.091H0.49875C0.174844 112.685 0 116.322 0 120H0Z" fill="#F0F0F0"/>
<path d="M13.0864 174.545H226.915C230.449 167.633 233.33 160.334 235.482 152.728H4.51953C6.67063 160.334 9.55344 167.633 13.0864 174.545Z" fill="#F0F0F0"/>
<path d="M50.997 218.182H189.003C197.801 211.988 205.732 204.645 212.57 196.364H27.4297C34.2683 204.644 42.1991 211.988 50.997 218.182Z" fill="#F0F0F0"/>
<path d="M4.51758 87.2731H235.481C233.329 79.6662 230.447 72.3668 226.914 65.4551H13.0849C9.55195 72.3668 6.66914 79.6662 4.51758 87.2731Z" fill="#F0F0F0"/>
<path d="M57.3906 21.818H189.003C169.484 8.07516 145.685 0 119.999 0C104.347 0 76.9094 8.07516 57.3906 21.818Z" fill="#D80027"/>
<path d="M114.781 65.4547H226.913C222.922 57.6486 218.103 50.3366 212.569 43.6367H114.781V65.4547Z" fill="#D80027"/>
<path d="M114.781 109.091H239.5C238.825 101.6 237.468 94.3042 235.48 87.2734H114.781V109.091Z" fill="#D80027"/>
<path d="M4.51805 152.728H235.481C237.469 145.697 238.826 138.401 239.501 130.91H0.498047C1.17305 138.401 2.52961 145.697 4.51805 152.728Z" fill="#D80027"/>
<path d="M27.4277 196.363H212.569C218.103 189.662 222.922 182.351 226.913 174.545H13.084C17.0745 182.351 21.8941 189.663 27.4277 196.363Z" fill="#D80027"/>
<path d="M119.999 240C145.685 240 169.484 231.925 189.003 218.182H50.9961C70.5148 231.925 94.3133 240 119.999 240Z" fill="#D80027"/>
<path d="M4.51758 87.2728C2.52914 94.3041 1.17305 101.599 0.498047 109.091H119.999V0C65.0712 0 18.7638 36.9056 4.51758 87.2728Z" fill="#0052B4"/>
<path d="M71.4327 31.3047L79.2023 55.218H104.349L84.006 69.9986L91.7751 93.9133L71.4327 79.1336L51.0895 93.9133L58.8604 69.9986L38.5176 55.218H63.6627L71.4327 31.3047Z" fill="#F0F0F0"/>
</g>
<defs>
<clipPath id="clip0_8148_3993">
<rect width="240" height="240" fill="white"/>
</clipPath>
</defs>
</svg>
