<svg width="240" height="240" viewBox="0 0 240 240" fill="none" xmlns="http://www.w3.org/2000/svg">
<g clip-path="url(#clip0_8148_4010)">
<path d="M11.9072 67.8264C4.27875 83.6027 0 101.301 0 120C0 138.699 4.27875 156.398 11.9072 172.174L120 182.609L228.093 172.174C235.721 156.398 240 138.699 240 120C240 101.301 235.721 83.6027 228.093 67.8264L120 57.3916L11.9072 67.8264Z" fill="black"/>
<path d="M11.9121 172.174C31.3212 212.313 72.4254 240 120.001 240C167.576 240 208.68 212.313 228.089 172.174H11.9121Z" fill="#496E2D"/>
<path d="M11.9121 67.8262H228.089C208.68 27.6867 167.576 0 120.001 0C72.4254 0 31.3212 27.6867 11.9121 67.8262Z" fill="#D80027"/>
<path d="M147.931 98.0562L157.777 111.624L173.722 106.454L163.861 120.01L173.706 133.578L157.766 128.388L147.905 141.944L147.915 125.181L131.975 119.991L147.921 114.821L147.931 98.0562Z" fill="#F0F0F0"/>
<path d="M121.06 153.913C102.33 153.913 87.1466 138.729 87.1466 120C87.1466 101.271 102.33 86.087 121.06 86.087C126.899 86.087 132.395 87.5636 137.192 90.1632C129.665 82.8034 119.374 78.2607 108.016 78.2607C84.9641 78.2607 66.2773 96.9479 66.2773 120C66.2773 143.051 84.9645 161.739 108.016 161.739C119.374 161.739 129.666 157.196 137.192 149.836C132.394 152.437 126.9 153.913 121.06 153.913Z" fill="#F0F0F0"/>
</g>
<defs>
<clipPath id="clip0_8148_4010">
<rect width="240" height="240" fill="white"/>
</clipPath>
</defs>
</svg>
