<svg width="240" height="240" viewBox="0 0 240 240" fill="none" xmlns="http://www.w3.org/2000/svg">
<g clip-path="url(#clip0_8148_4017)">
<path d="M240 120C240 186.274 186.274 240 120 240C53.7262 240 0 186.274 0 120C5.21719 120 120 104.348 120 104.348L240 120Z" fill="#D80027"/>
<path d="M0 120C0 53.7262 53.7262 0 120 0C186.274 0 240 53.7262 240 120" fill="#0052B4"/>
<path d="M88.6945 83.4783C88.6945 74.834 81.6867 67.8262 73.0425 67.8262C69.0323 67.8262 65.3775 69.3356 62.6077 71.8148V62.6086H67.8248V52.1737H62.6077V46.9565H52.1728V52.1737H46.9556V62.6086H52.1728V71.8148C49.403 69.3356 45.7481 67.8262 41.738 67.8262C33.0937 67.8262 26.0859 74.834 26.0859 83.4783C26.0859 88.1128 28.102 92.2753 31.3031 95.1417V104.348H83.4769V95.1417C86.6789 92.2753 88.6945 88.1128 88.6945 83.4783Z" fill="#FFDA44"/>
</g>
<defs>
<clipPath id="clip0_8148_4017">
<rect width="240" height="240" fill="white"/>
</clipPath>
</defs>
</svg>
