<svg width="240" height="240" viewBox="0 0 240 240" fill="none" xmlns="http://www.w3.org/2000/svg">
<g clip-path="url(#clip0_8148_4021)">
<path d="M232.536 161.739C237.36 148.739 240 134.678 240 120C240 105.321 237.36 91.2604 232.536 78.261L120 67.8262L7.46391 78.261C2.64 91.2604 0 105.321 0 120C0 134.678 2.64 148.739 7.46391 161.739L120 172.174L232.536 161.739Z" fill="#6DA544"/>
<path d="M232.537 78.2611C215.582 32.565 171.597 0 120.001 0C68.4052 0 24.42 32.565 7.46484 78.2611H232.537Z" fill="#FFDA44"/>
<path d="M120.001 240C171.597 240 215.582 207.435 232.537 161.739H7.46484C24.42 207.435 68.4052 240 120.001 240Z" fill="#D80027"/>
</g>
<defs>
<clipPath id="clip0_8148_4021">
<rect width="240" height="240" fill="white"/>
</clipPath>
</defs>
</svg>
