<svg width="240" height="240" viewBox="0 0 240 240" fill="none" xmlns="http://www.w3.org/2000/svg">
<g clip-path="url(#clip0_8148_4029)">
<path d="M120 240C186.274 240 240 186.274 240 120C240 53.7258 186.274 0 120 0C53.7258 0 0 53.7258 0 120C0 186.274 53.7258 240 120 240Z" fill="#496E2D"/>
<path d="M140.87 114.996C137.925 114.996 135.128 115.583 132.531 116.518C133.954 113.347 134.908 109.82 134.908 106.052C134.908 91.1455 120.001 79.9653 120.001 79.9653C120.001 79.9653 105.094 91.1455 105.094 106.052C105.094 109.819 106.048 113.347 107.471 116.518C104.874 115.584 102.077 114.996 99.1318 114.996C84.2251 114.996 73.0449 129.903 73.0449 129.903C73.0449 129.903 84.2251 144.81 99.1318 144.81C107.872 144.81 115.326 139.687 120.001 135.447C124.677 139.687 132.131 144.81 140.871 144.81C155.778 144.81 166.958 129.903 166.958 129.903C166.958 129.903 155.777 114.996 140.87 114.996Z" fill="#F0F0F0"/>
<path d="M120 46.9565L123.08 56.4328H133.044L124.984 62.2903L128.061 71.7665L120 65.909L111.94 71.7665L115.017 62.2903L106.957 56.4328H116.921L120 46.9565Z" fill="#FFDA44"/>
<path d="M82.111 63.5312L88.0351 68.8647L94.9384 64.8794L91.6965 72.1614L97.6201 77.4958L89.6926 76.6623L86.4507 83.9444L84.7923 76.1477L76.8652 75.3142L83.768 71.328L82.111 63.5312Z" fill="#FFDA44"/>
<path d="M54.373 91.2687L62.1702 92.9257L66.156 86.0225L66.9895 93.9495L74.7857 95.6079L67.5041 98.8503L68.3376 106.777L63.0027 100.854L55.7212 104.096L59.707 97.1923L54.373 91.2687Z" fill="#FFDA44"/>
<path d="M157.891 63.5312L151.968 68.8647L145.065 64.8794L148.306 72.1614L142.383 77.4958L150.31 76.6623L153.552 83.9444L155.211 76.1477L163.138 75.3142L156.235 71.328L157.891 63.5312Z" fill="#FFDA44"/>
<path d="M185.629 91.2687L177.832 92.9257L173.847 86.0225L173.013 93.9495L165.217 95.6079L172.498 98.8503L171.665 106.777L177 100.854L184.281 104.096L180.296 97.1923L185.629 91.2687Z" fill="#FFDA44"/>
<path d="M120.001 186.549C131.842 186.549 142.756 182.599 151.511 175.951H88.4902C97.2455 182.598 108.159 186.549 120.001 186.549Z" fill="#F0F0F0"/>
<path d="M72.1719 155.245C73.828 159.035 75.928 162.585 78.3945 165.843H161.606C164.073 162.585 166.173 159.035 167.829 155.245H72.1719Z" fill="#F0F0F0"/>
</g>
<defs>
<clipPath id="clip0_8148_4029">
<rect width="240" height="240" fill="white"/>
</clipPath>
</defs>
</svg>
