<svg width="240" height="240" viewBox="0 0 240 240" fill="none" xmlns="http://www.w3.org/2000/svg">
<g clip-path="url(#clip0_8148_4041)">
<path d="M120 240C186.274 240 240 186.274 240 120C240 53.7258 186.274 0 120 0C53.7258 0 0 53.7258 0 120C0 186.274 53.7258 240 120 240Z" fill="#F0F0F0"/>
<path d="M78.2617 120V232.536C91.2611 237.36 105.322 240 120.001 240C186.274 240 240.001 186.274 240.001 120C240.001 53.7262 78.2617 120 78.2617 120Z" fill="#6DA544"/>
<path d="M120.001 0C105.322 0 91.2611 2.64047 78.2617 7.46391V120H240.001C240.001 53.7262 186.274 0 120.001 0Z" fill="#D80027"/>
</g>
<defs>
<clipPath id="clip0_8148_4041">
<rect width="240" height="240" fill="white"/>
</clipPath>
</defs>
</svg>
