<svg width="240" height="240" viewBox="0 0 240 240" fill="none" xmlns="http://www.w3.org/2000/svg">
<g clip-path="url(#clip0_8148_4045)">
<path d="M172.173 11.9072C156.397 4.27875 138.698 0 119.999 0C101.3 0 83.6017 4.27875 67.8255 11.9072L57.3906 120L67.8255 228.093C83.6017 235.721 101.3 240 119.999 240C138.698 240 156.397 235.721 172.173 228.093L182.608 120L172.173 11.9072Z" fill="#FFDA44"/>
<path d="M67.8262 11.9116C27.6867 31.3212 0 72.4254 0 120C0 167.575 27.6867 208.679 67.8262 228.089V11.9116Z" fill="#0052B4"/>
<path d="M172.174 11.9116V228.089C212.313 208.679 240 167.575 240 120C240 72.4254 212.313 31.3212 172.174 11.9116Z" fill="#0052B4"/>
<path d="M153.914 130.435L161.74 140.87V99.1304L153.914 109.565H130.435V86.087L140.87 78.2612H99.1309L109.566 86.087V109.565H86.0875L78.2617 99.1304V140.87L86.0875 130.435H109.566V153.913L99.1309 161.739H140.87L130.435 153.913V130.435H153.914Z" fill="#D80027"/>
<path d="M151.304 114.783H125.217V88.6953H114.783V114.783H88.6953V125.217H114.783V151.304H125.217V125.217H151.304V114.783Z" fill="#F0F0F0"/>
</g>
<defs>
<clipPath id="clip0_8148_4045">
<rect width="240" height="240" fill="white"/>
</clipPath>
</defs>
</svg>
