<svg width="240" height="240" viewBox="0 0 240 240" fill="none" xmlns="http://www.w3.org/2000/svg">
<g clip-path="url(#clip0_8148_4052)">
<path d="M0 120C0 134.678 2.64047 148.739 7.46391 161.739L120 166.957L232.536 161.739C237.36 148.739 240 134.678 240 120C240 105.322 237.36 91.261 232.536 78.2611L120 73.0435L7.46391 78.2606C2.64047 91.261 0 105.322 0 120H0Z" fill="#D80027"/>
<path d="M120.001 0C68.4052 0 24.42 32.565 7.46484 78.2611H232.538C215.582 32.565 171.597 0 120.001 0Z" fill="black"/>
<path d="M232.537 161.739H7.46484C24.42 207.434 68.4052 240 120.001 240C171.597 240 215.582 207.434 232.537 161.739Z" fill="#496E2D"/>
<path d="M155.866 57.3913L141.211 50.4979L149.015 36.3046L133.101 39.3492L131.084 23.272L119.999 35.0962L108.915 23.272L106.898 39.3492L90.9841 36.3046L98.7883 50.4979L84.1328 57.3913H155.866Z" fill="#D80027"/>
</g>
<defs>
<clipPath id="clip0_8148_4052">
<rect width="240" height="240" fill="white"/>
</clipPath>
</defs>
</svg>
