<svg width="240" height="240" viewBox="0 0 240 240" fill="none" xmlns="http://www.w3.org/2000/svg">
<g clip-path="url(#clip0_8148_4057)">
<path d="M120 240C186.274 240 240 186.274 240 120C240 53.7258 186.274 0 120 0C53.7258 0 0 53.7258 0 120C0 186.274 53.7258 240 120 240Z" fill="#F0F0F0"/>
<path d="M114.783 120H240C240 109.168 238.557 98.6769 235.866 88.6953H114.783V120Z" fill="#D80027"/>
<path d="M114.783 57.3914H222.388C215.042 45.4046 205.65 34.8094 194.699 26.0869H114.783V57.3914Z" fill="#D80027"/>
<path d="M120.001 240C148.243 240 174.201 230.239 194.7 213.913H45.3027C65.8016 230.239 91.7596 240 120.001 240Z" fill="#D80027"/>
<path d="M17.6137 182.609H222.388C228.285 172.986 232.859 162.467 235.867 151.304H4.13477C7.14273 162.467 11.7163 172.986 17.6137 182.609Z" fill="#D80027"/>
<path d="M120 120C120 53.7262 120 45.9131 120 0C53.7262 0 0 53.7262 0 120H120Z" fill="#0052B4"/>
<path d="M79.7981 102.717C63.4097 102.717 50.1244 89.4312 50.1244 73.0432C50.1244 56.6553 63.4102 43.3695 79.7981 43.3695C84.908 43.3695 89.7159 44.6618 93.9136 46.9362C87.3286 40.497 78.323 36.522 68.385 36.522C48.2152 36.522 31.8633 52.8734 31.8633 73.0437C31.8633 93.214 48.2152 109.565 68.385 109.565C78.323 109.565 87.3286 105.59 93.9136 99.1512C89.7159 101.425 84.9084 102.717 79.7981 102.717Z" fill="#FFDA44"/>
<path d="M88.1608 52.1733L93.4291 63.1899L105.326 60.4412L99.9986 71.4282L109.567 79.0158L97.6539 81.7013L97.6872 93.9127L88.1608 86.273L78.6339 93.9127L78.6667 81.7013L66.7539 79.0158L76.322 71.4282L70.9937 60.4412L82.892 63.1899L88.1608 52.1733Z" fill="#FFDA44"/>
</g>
<defs>
<clipPath id="clip0_8148_4057">
<rect width="240" height="240" fill="white"/>
</clipPath>
</defs>
</svg>
