<svg width="240" height="240" viewBox="0 0 240 240" fill="none" xmlns="http://www.w3.org/2000/svg">
<g clip-path="url(#clip0_8148_4068)">
<path d="M120 240C186.274 240 240 186.274 240 120C240 53.7258 186.274 0 120 0C53.7258 0 0 53.7258 0 120C0 186.274 53.7258 240 120 240Z" fill="#D80027"/>
<path d="M41.7383 62.6084H198.26V177.391H41.7383V62.6084Z" fill="#6DA544"/>
<path d="M139.325 153.913C120.596 153.913 105.412 138.729 105.412 120C105.412 101.271 120.596 86.087 139.325 86.087C145.165 86.087 150.66 87.5636 155.457 90.1632C147.932 82.8034 137.64 78.2607 126.282 78.2607C103.231 78.2607 84.543 96.9479 84.543 120C84.543 143.051 103.231 161.739 126.282 161.739C137.64 161.739 147.932 157.196 155.457 149.836C150.66 152.437 145.165 153.913 139.325 153.913Z" fill="#F0F0F0"/>
</g>
<defs>
<clipPath id="clip0_8148_4068">
<rect width="240" height="240" fill="white"/>
</clipPath>
</defs>
</svg>
