<svg width="240" height="240" viewBox="0 0 240 240" fill="none" xmlns="http://www.w3.org/2000/svg">
<g clip-path="url(#clip0_8148_4080)">
<path d="M120 240C186.274 240 240 186.274 240 120C240 99.8611 235.031 80.8847 226.265 64.2188L119.859 120.141L175.781 13.7353C159.115 4.96875 140.139 0 120 0C53.7262 0 0 53.7262 0 120C0 153.137 13.4316 183.137 35.1469 204.853C56.8627 226.569 86.8627 240 120 240Z" fill="#0052B4"/>
<path d="M226.137 64.3495C220.644 53.8945 213.503 44.0784 204.712 35.2875C195.921 26.4965 186.106 19.3551 175.65 13.8628L35.0059 204.993L226.137 64.3495Z" fill="#F0F0F0"/>
<path d="M35.0059 204.993L226.137 64.3496C220.644 53.8946 213.503 44.0785 204.712 35.2876L35.0059 204.993Z" fill="#FF9811"/>
<path d="M104.207 70.3699L89.5524 77.2633L97.3566 91.4571L81.4426 88.4125L79.426 104.489L68.341 92.6646L57.256 104.489L55.2404 88.4125L39.3263 91.4561L47.1296 77.2628L32.4746 70.3699L47.1301 63.476L39.3263 49.2831L55.2395 52.3267L57.2565 36.2505L68.341 48.0747L79.426 36.2505L81.4426 52.3267L97.3571 49.2831L89.5529 63.4764L104.207 70.3699Z" fill="#F0F0F0"/>
</g>
<defs>
<clipPath id="clip0_8148_4080">
<rect width="240" height="240" fill="white"/>
</clipPath>
</defs>
</svg>
