<svg width="240" height="240" viewBox="0 0 240 240" fill="none" xmlns="http://www.w3.org/2000/svg">
<g clip-path="url(#clip0_8148_4085)">
<path d="M120 240C186.274 240 240 186.274 240 120C240 53.7258 186.274 0 120 0C53.7258 0 0 53.7258 0 120C0 186.274 53.7258 240 120 240Z" fill="#F0F0F0"/>
<path d="M238.972 104.347C235.662 79.0414 224.294 54.5886 204.853 35.1472C185.412 15.7058 160.958 4.33814 135.652 1.02783L135.653 104.347H238.972Z" fill="#0052B4"/>
<path d="M104.347 1.02783C79.0409 4.33814 54.5877 15.7053 35.1463 35.1467C15.7053 54.5886 4.33766 79.0419 1.02734 104.348L104.347 104.348L104.347 1.02783Z" fill="#0052B4"/>
<path d="M1.02734 135.652C4.33766 160.958 15.7053 185.412 35.1463 204.853C54.5877 224.294 79.0405 235.661 104.347 238.973L104.347 135.653L1.02734 135.652Z" fill="#0052B4"/>
<path d="M135.652 238.971C160.958 235.661 185.411 224.294 204.853 204.853C224.294 185.411 235.661 160.958 238.971 135.652H135.652V238.971Z" fill="#0052B4"/>
<path d="M160.963 76.1427C160.963 74.5471 162.26 73.2501 163.856 73.2501H170.055C179.853 73.2501 187.825 65.2785 187.825 55.4802C187.825 45.6819 179.854 37.7099 170.055 37.7099H164.168C162.247 36.2666 159.669 35.3765 156.825 35.3765C150.894 35.3765 146.086 39.2226 146.086 43.9672C146.086 48.666 150.802 52.4779 156.654 52.5519L156.652 52.5862H170.055C171.651 52.5862 172.948 53.8837 172.948 55.4793C172.948 57.0749 171.651 58.3719 170.055 58.3719H163.856C154.057 58.3719 146.086 66.3435 146.086 76.1418C146.086 85.9401 154.057 93.9121 163.856 93.9121H187.825V79.0349H163.856C162.26 79.0354 160.963 77.7383 160.963 76.1427Z" fill="#F0F0F0"/>
<path d="M67.0501 76.1427C67.0501 74.5471 68.3471 73.2501 69.9432 73.2501H76.142C85.9407 73.2501 93.9127 65.2785 93.9127 55.4802C93.9127 45.6819 85.9412 37.7099 76.142 37.7099H70.2554C68.334 36.2666 65.7563 35.3765 62.9129 35.3765C56.9818 35.3765 52.1738 39.2226 52.1738 43.9672C52.1738 48.666 56.8899 52.4779 62.7418 52.5519L62.739 52.5862H76.1424C77.7385 52.5862 79.0355 53.8837 79.0355 55.4793C79.0355 57.0749 77.7385 58.3719 76.1424 58.3719H69.9437C60.1449 58.3719 52.1738 66.3435 52.1738 76.1418C52.1738 85.9401 60.1445 93.9121 69.9437 93.9121H93.9123V79.0349H69.9432C68.3471 79.0354 67.0501 77.7383 67.0501 76.1427Z" fill="#F0F0F0"/>
<path d="M160.963 186.853C160.963 185.258 162.26 183.961 163.856 183.961H170.055C179.854 183.961 187.826 175.989 187.826 166.191C187.826 156.392 179.854 148.42 170.055 148.42H164.168C162.247 146.977 159.669 146.087 156.826 146.087C150.894 146.087 146.086 149.933 146.086 154.678C146.086 159.376 150.802 163.188 156.654 163.262L156.652 163.297H170.055C171.651 163.297 172.948 164.594 172.948 166.19C172.948 167.785 171.651 169.082 170.055 169.082H163.856C154.057 169.082 146.086 177.054 146.086 186.852C146.086 196.651 154.057 204.623 163.856 204.623H187.825V189.746H163.856C162.26 189.746 160.963 188.448 160.963 186.853Z" fill="#F0F0F0"/>
<path d="M67.0506 186.853C67.0506 185.258 68.3476 183.961 69.9437 183.961H76.1424C85.9412 183.961 93.9132 175.989 93.9132 166.191C93.9132 156.392 85.9416 148.42 76.1424 148.42H70.2559C68.3345 146.977 65.7568 146.087 62.9134 146.087C56.9818 146.087 52.1738 149.933 52.1738 154.678C52.1738 159.376 56.8899 163.188 62.7418 163.262L62.739 163.297H76.1424C77.7385 163.297 79.0355 164.594 79.0355 166.19C79.0355 167.785 77.7385 169.082 76.1424 169.082H69.9437C60.1449 169.082 52.1738 177.054 52.1738 186.852C52.1738 196.651 60.1445 204.623 69.9437 204.623H93.9127V189.746H69.9437C68.3476 189.746 67.0506 188.448 67.0506 186.853Z" fill="#F0F0F0"/>
</g>
<defs>
<clipPath id="clip0_8148_4085">
<rect width="240" height="240" fill="white"/>
</clipPath>
</defs>
</svg>
