<svg width="240" height="240" viewBox="0 0 240 240" fill="none" xmlns="http://www.w3.org/2000/svg">
<g clip-path="url(#clip0_8148_4097)">
<path d="M120 240C186.274 240 240 186.274 240 120C240 53.7258 186.274 0 120 0C53.7258 0 0 53.7258 0 120C0 186.274 53.7258 240 120 240Z" fill="#496E2D"/>
<path d="M120.001 138.634C100.02 138.634 83.3275 124.591 79.232 105.838C78.603 108.721 78.2617 111.71 78.2617 114.783C78.2617 137.835 96.9484 156.521 120.001 156.521C143.053 156.521 161.74 137.835 161.74 114.783C161.74 111.71 161.398 108.721 160.769 105.838C156.674 124.591 139.982 138.634 120.001 138.634Z" fill="#FFDA44"/>
<path d="M120 83.4785L123.885 95.4359H136.459L126.287 102.826L130.172 114.783L120 107.393L109.829 114.783L113.714 102.826L103.543 95.4359H116.115L120 83.4785Z" fill="#FFDA44"/>
</g>
<defs>
<clipPath id="clip0_8148_4097">
<rect width="240" height="240" fill="white"/>
</clipPath>
</defs>
</svg>
