<svg width="240" height="240" viewBox="0 0 240 240" fill="none" xmlns="http://www.w3.org/2000/svg">
<g clip-path="url(#clip0_8148_4102)">
<path d="M14.5898 62.6086L119.999 73.0434L225.408 62.6086C205.056 25.3073 165.484 0 119.999 0C74.5139 0 34.9425 25.3073 14.5898 62.6086Z" fill="#D80027"/>
<path d="M14.5908 177.391L120 187.826L225.409 177.391C234.711 160.342 240 140.789 240 120L120 109.565L0 120C0 140.789 5.28891 160.342 14.5908 177.391Z" fill="#FFDA44"/>
<path d="M14.5908 62.6084C5.28891 79.6573 0 99.2107 0 120H240C240 99.2107 234.711 79.6573 225.409 62.6084H120H14.5908Z" fill="#0052B4"/>
<path d="M119.999 240C165.484 240 205.056 214.693 225.408 177.392H14.5898C34.9425 214.693 74.5139 240 119.999 240Z" fill="#6DA544"/>
</g>
<defs>
<clipPath id="clip0_8148_4102">
<rect width="240" height="240" fill="white"/>
</clipPath>
</defs>
</svg>
