<svg width="240" height="240" viewBox="0 0 240 240" fill="none" xmlns="http://www.w3.org/2000/svg">
<g clip-path="url(#clip0_8148_4107)">
<path d="M120 240C186.274 240 240 186.274 240 120C240 53.7258 186.274 0 120 0C53.7258 0 0 53.7258 0 120C0 186.274 53.7258 240 120 240Z" fill="#338AF3"/>
<path d="M57.3906 130.435H182.608V146.087H57.3906V130.435Z" fill="#818085"/>
<path d="M78.2617 83.4781L120.001 88.6963L161.74 83.4781V58.4347L145.044 66.7827L120.001 41.7388L94.9572 66.7827L78.2617 58.4347V83.4781Z" fill="#FFDA44"/>
<path d="M67.8263 161.74H52.1738V133.044L57.3915 125.217L52.1738 117.391V99.1309H67.8263V161.74Z" fill="#F0F0F0"/>
<path d="M187.826 161.74H172.174V99.1309H187.826V117.391L182.609 125.349L187.826 133.045V161.74Z" fill="#F0F0F0"/>
<path d="M52.1738 117.392H187.826V133.044H52.1738V117.392Z" fill="#ACABB1"/>
<path d="M120.001 182.608C96.9855 182.608 78.2617 163.884 78.2617 140.869V83.4785H161.74V140.869C161.74 163.884 143.016 182.608 120.001 182.608Z" fill="#F0F0F0"/>
<path d="M120.001 166.957C105.616 166.957 93.9141 155.254 93.9141 140.87V99.1313H146.088V140.87C146.088 155.254 134.385 166.957 120.001 166.957Z" fill="#0052B4"/>
<path d="M78.2617 83.4785H93.9138V99.1305H78.2617V83.4785Z" fill="#D80027"/>
<path d="M146.088 83.4785H161.74V99.1305H146.088V83.4785Z" fill="#D80027"/>
<path d="M146.088 117.392H161.74V133.044H146.088V117.392Z" fill="#D80027"/>
<path d="M78.2617 117.392H93.9138V133.044H78.2617V117.392Z" fill="#D80027"/>
<path d="M112.174 83.4785H127.826V99.1305H112.174V83.4785Z" fill="#D80027"/>
<path d="M120 166.957C117.274 166.957 114.646 166.535 112.174 165.756V181.863C114.711 182.346 117.324 182.609 120 182.609C122.676 182.609 125.289 182.346 127.826 181.863V165.756C125.355 166.534 122.726 166.957 120 166.957Z" fill="#D80027"/>
<path d="M94.2627 145.104L81.7715 157.596C83.9371 162.527 87.0271 166.96 90.8249 170.678L101.887 159.615C97.9396 155.801 95.1895 150.757 94.2627 145.104Z" fill="#D80027"/>
<path d="M158.231 157.597L145.739 145.105C144.812 150.758 142.063 155.801 138.115 159.617L149.178 170.679C152.975 166.961 156.065 162.527 158.231 157.597Z" fill="#D80027"/>
</g>
<defs>
<clipPath id="clip0_8148_4107">
<rect width="240" height="240" fill="white"/>
</clipPath>
</defs>
</svg>
