<svg width="240" height="240" viewBox="0 0 240 240" fill="none" xmlns="http://www.w3.org/2000/svg">
<g clip-path="url(#clip0_8148_4126)">
<path d="M120 240C186.274 240 240 186.274 240 120C240 53.7258 186.274 0 120 0C53.7258 0 0 53.7258 0 120C0 186.274 53.7258 240 120 240Z" fill="#F0F0F0"/>
<path d="M240 120C240 72.4247 212.313 31.3172 172.174 11.9072V228.092C212.313 208.683 240 167.575 240 120Z" fill="#D80027"/>
<path d="M0 120C0 167.575 27.6867 208.683 67.8262 228.093V11.9072C27.6867 31.3172 0 72.4247 0 120Z" fill="#6DA544"/>
<path d="M88.6953 120C88.6953 137.289 102.711 151.305 120 151.305C137.289 151.305 151.304 137.289 151.304 120V109.565H88.6953V120Z" fill="#6DA544"/>
<path d="M161.739 99.1302H130.434C130.434 93.3673 125.762 88.6953 119.999 88.6953C114.236 88.6953 109.564 93.3673 109.564 99.1302H78.2598C78.2598 104.893 83.2796 109.565 89.042 109.565H88.6946C88.6946 115.328 93.3662 120 99.1295 120C99.1295 125.763 103.801 130.435 109.564 130.435H130.434C136.197 130.435 140.869 125.763 140.869 120C146.632 120 151.304 115.328 151.304 109.565H150.956C156.719 109.565 161.739 104.893 161.739 99.1302Z" fill="#FF9811"/>
</g>
<defs>
<clipPath id="clip0_8148_4126">
<rect width="240" height="240" fill="white"/>
</clipPath>
</defs>
</svg>
