<svg width="240" height="240" viewBox="0 0 240 240" fill="none" xmlns="http://www.w3.org/2000/svg">
<g clip-path="url(#clip0_8148_4133)">
<path d="M120 240C186.274 240 240 186.274 240 120C240 53.7258 186.274 0 120 0C53.7258 0 0 53.7258 0 120C0 186.274 53.7258 240 120 240Z" fill="#338AF3"/>
<path d="M120 52.1738L125.18 68.117H141.944L128.382 77.9706L133.562 93.9132L120 84.0601L106.438 93.9132L111.619 77.9706L98.0566 68.117H114.821L120 52.1738Z" fill="#F0F0F0"/>
<path d="M52.1738 120.001L68.117 114.821V98.0562L77.9706 111.619L93.9132 106.439L84.0601 120.001L93.9132 133.562L77.9706 128.381L68.117 141.944V125.18L52.1738 120.001Z" fill="#F0F0F0"/>
<path d="M120.001 187.826L114.821 171.883H98.0566L111.619 162.03L106.439 146.087L120.001 155.94L133.563 146.087L128.382 162.03L141.944 171.883H125.181L120.001 187.826Z" fill="#F0F0F0"/>
<path d="M187.827 120L171.884 125.18V141.944L162.031 128.381L146.088 133.562L155.941 120L146.088 106.438L162.031 111.619L171.884 98.0562V114.82L187.827 120Z" fill="#F0F0F0"/>
</g>
<defs>
<clipPath id="clip0_8148_4133">
<rect width="240" height="240" fill="white"/>
</clipPath>
</defs>
</svg>
