<svg width="240" height="240" viewBox="0 0 240 240" fill="none" xmlns="http://www.w3.org/2000/svg">
<g clip-path="url(#clip0_8148_4140)">
<path d="M172.173 11.9072C156.397 4.27875 138.698 0 119.999 0C101.301 0 83.6017 4.27875 67.8255 11.9072L57.3906 120L67.8255 228.093C83.6017 235.721 101.301 240 119.999 240C138.698 240 156.397 235.721 172.173 228.093L182.608 120L172.173 11.9072Z" fill="#FFDA44"/>
<path d="M67.8262 11.9116C27.6872 31.3212 0 72.4254 0 120C0 167.575 27.6872 208.679 67.8262 228.089V11.9116Z" fill="#0052B4"/>
<path d="M172.174 11.9116V228.089C212.313 208.679 240 167.575 240 120C240 72.4254 212.313 31.3212 172.174 11.9116Z" fill="#D80027"/>
<path d="M161.74 94.415H133.044C133.044 87.2113 127.204 81.3716 120.001 81.3716C112.797 81.3716 106.957 87.2113 106.957 94.415H78.2617C78.2617 101.508 84.4403 107.257 91.532 107.257H91.1045C91.1045 114.35 96.8542 120.1 103.947 120.1C103.947 126.38 108.458 131.598 114.415 132.714L104.294 155.562C109.143 157.533 114.443 158.628 120.001 158.628C125.558 158.628 130.858 157.533 135.707 155.562L125.587 132.714C131.544 131.598 136.054 126.38 136.054 120.1C143.147 120.1 148.897 114.35 148.897 107.257H148.469C155.561 107.257 161.74 101.507 161.74 94.415Z" fill="#FF9811"/>
<path d="M120 112.174L103.043 120V135.652L120 146.087L136.956 135.652V120L120 112.174Z" fill="#0052B4"/>
<path d="M103.043 104.348H136.956V120H103.043V104.348Z" fill="#D80027"/>
</g>
<defs>
<clipPath id="clip0_8148_4140">
<rect width="240" height="240" fill="white"/>
</clipPath>
</defs>
</svg>
