<svg width="240" height="240" viewBox="0 0 240 240" fill="none" xmlns="http://www.w3.org/2000/svg">
<g clip-path="url(#clip0_8148_4150)">
<path d="M120 240C134.678 240 148.739 237.36 161.738 232.536L166.956 120L161.739 7.46391C148.739 2.64047 134.678 0 120 0C105.321 0 91.26 2.64047 78.2606 7.46391L73.043 120L78.2602 232.536C91.26 237.36 105.321 240 120 240Z" fill="#0052B4"/>
<path d="M0 120C0 171.596 32.565 215.581 78.2611 232.536V7.46387C32.565 24.419 0 68.4042 0 120Z" fill="#A2001D"/>
<path d="M161.738 7.46387V232.537C207.434 215.581 239.999 171.596 239.999 120C239.999 68.4042 207.434 24.419 161.738 7.46387Z" fill="#A2001D"/>
<path d="M57.3926 120H67.8274V161.739H57.3926V120Z" fill="#FFDA44"/>
<path d="M15.6523 120H26.0872V161.739H15.6523V120Z" fill="#FFDA44"/>
<path d="M41.7395 146.086C47.5025 146.086 52.1744 141.415 52.1744 135.652C52.1744 129.889 47.5025 125.217 41.7395 125.217C35.9765 125.217 31.3047 129.889 31.3047 135.652C31.3047 141.415 35.9765 146.086 41.7395 146.086Z" fill="#FFDA44"/>
<path d="M41.7387 104.347C44.62 104.347 46.9559 102.012 46.9559 99.1303C46.9559 96.2489 44.62 93.9131 41.7387 93.9131C38.8573 93.9131 36.5215 96.2489 36.5215 99.1303C36.5215 102.012 38.8573 104.347 41.7387 104.347Z" fill="#FFDA44"/>
<path d="M31.3047 151.304H52.1744V161.739H31.3047V151.304Z" fill="#FFDA44"/>
<path d="M31.3047 109.565H52.1744V120H31.3047V109.565Z" fill="#FFDA44"/>
<path d="M41.7399 62.6084L45.4355 73.9803H57.3924L47.7198 81.0087L51.4126 92.3806L41.7399 85.3521L32.0677 92.3806L35.7605 81.0087L26.0879 73.9803H38.0448L41.7399 62.6084Z" fill="#FFDA44"/>
</g>
<defs>
<clipPath id="clip0_8148_4150">
<rect width="240" height="240" fill="white"/>
</clipPath>
</defs>
</svg>
