<svg width="240" height="240" viewBox="0 0 240 240" fill="none" xmlns="http://www.w3.org/2000/svg">
<g clip-path="url(#clip0_8148_4163)">
<path d="M120 240C186.274 240 240 186.274 240 120C240 53.7258 186.274 0 120 0C53.7258 0 0 53.7258 0 120C0 186.274 53.7258 240 120 240Z" fill="#FFDA44"/>
<path d="M240 120C240 78.8151 219.249 42.4804 187.635 20.8696H52.3655C20.7516 42.4804 0 78.8151 0 120C0 161.186 20.7516 197.519 52.3655 219.13H187.635C219.249 197.519 240 161.186 240 120Z" fill="#A2001D"/>
<path d="M93.9141 88.6957H146.088V67.8264L135.653 73.0436L120.001 57.3916L104.349 73.0436L93.9141 67.8264V88.6957Z" fill="#FFDA44"/>
<path d="M166.957 120H140.88C141.903 118.231 142.497 116.184 142.497 113.994C142.497 107.344 137.106 101.954 130.457 101.954C125.863 101.954 121.873 104.528 119.842 108.311C117.812 104.528 113.822 101.954 109.228 101.954C102.579 101.954 97.1878 107.344 97.1878 113.994C97.1878 116.184 97.7831 118.231 98.805 120H73.043C73.043 127.98 79.9931 134.448 87.9722 134.448H87.4912C87.4912 140.993 91.8445 146.52 97.8131 148.295L86.0864 160.022L97.1541 171.09L112.854 155.39C113.469 155.616 114.105 155.796 114.763 155.919L105.276 177.339C109.822 179.188 114.79 180.214 120 180.214C125.21 180.214 130.178 179.188 134.725 177.339L125.238 155.919C125.895 155.796 126.532 155.616 127.146 155.39L142.846 171.09L153.913 160.022L142.186 148.295C148.154 146.519 152.508 140.993 152.508 134.448H152.026C160.006 134.448 166.957 127.98 166.957 120Z" fill="#FFDA44"/>
<path d="M120 127.826L103.043 135.652V151.304L120 161.739L136.956 151.304V135.652L120 127.826Z" fill="#6DA544"/>
<path d="M103.043 120H136.956V140.87H103.043V120Z" fill="#0052B4"/>
</g>
<defs>
<clipPath id="clip0_8148_4163">
<rect width="240" height="240" fill="white"/>
</clipPath>
</defs>
</svg>
