<svg width="240" height="240" viewBox="0 0 240 240" fill="none" xmlns="http://www.w3.org/2000/svg">
<g clip-path="url(#clip0_8148_4183)">
<path d="M120 240C186.274 240 240 186.274 240 120C240 53.7258 186.274 0 120 0C53.7258 0 0 53.7258 0 120C0 186.274 53.7258 240 120 240Z" fill="#D80027"/>
<path d="M190.916 98.4797H136.741L120 46.9565L103.259 98.4797H49.084L92.9126 130.323L76.1712 181.847L120 150.004L163.829 181.848L147.088 130.323L190.916 98.4797ZM105.179 126.337L110.84 108.914H129.16L134.821 126.337V126.337L120 137.105L105.18 126.337L105.179 126.337ZM125.77 98.4797H114.231L120 80.7234L125.77 98.4797ZM143.697 119.888L140.131 108.915H158.801L143.697 119.888ZM99.8688 108.915L96.303 119.888L81.1985 108.915H99.8688ZM96.0195 154.529L101.789 136.773L111.124 143.555L96.0195 154.529ZM128.876 143.555L138.212 136.773L143.981 154.529L128.876 143.555Z" fill="#FFDA44"/>
</g>
<defs>
<clipPath id="clip0_8148_4183">
<rect width="240" height="240" fill="white"/>
</clipPath>
</defs>
</svg>
