<svg width="240" height="240" viewBox="0 0 240 240" fill="none" xmlns="http://www.w3.org/2000/svg">
<g clip-path="url(#clip0_8148_4186)">
<path d="M120 240C186.274 240 240 186.274 240 120C240 53.7258 186.274 0 120 0C53.7258 0 0 53.7258 0 120C0 186.274 53.7258 240 120 240Z" fill="#F0F0F0"/>
<path d="M64.8607 166.957L35.1504 204.849C56.8648 226.566 86.8615 240 119.999 240C169.607 240 212.176 209.893 230.451 166.957H64.8607Z" fill="#FFDA44"/>
<path d="M230.638 73.478C212.465 30.3103 169.775 0 119.999 0C86.8615 0 56.8648 13.4339 35.1504 35.1511L65.202 73.478H230.638Z" fill="#496E2D"/>
<path d="M26.0859 88.2607V151.304H235.866C238.557 141.324 239.999 130.831 239.999 120C239.999 109.011 238.519 98.3707 235.752 88.2607H26.0859Z" fill="black"/>
<path d="M35.1471 35.147C-11.7157 82.0098 -11.7157 157.99 35.1471 204.853C54.5126 185.488 73.1374 166.863 120 120L35.1471 35.147Z" fill="#A2001D"/>
<path d="M48.5675 88.6953L56.337 112.609H81.4836L61.1408 127.39L68.9098 151.304L48.5675 136.524L28.2242 151.304L35.9952 127.39L15.6523 112.609H40.797L48.5675 88.6953Z" fill="#FFDA44"/>
<path d="M25.832 120H71.312V140.87H25.832V120Z" fill="#F0F0F0"/>
<path d="M79.9213 96.0744L72.5427 88.6953L48.5671 112.671L24.5915 88.6953L17.2129 96.0744L41.2096 120.028L17.2129 144.026L24.5915 151.304L48.5671 127.372L72.5427 151.304L79.9213 144.026L55.9246 120.028L79.9213 96.0744Z" fill="black"/>
</g>
<defs>
<clipPath id="clip0_8148_4186">
<rect width="240" height="240" fill="white"/>
</clipPath>
</defs>
</svg>
