<svg width="240" height="240" viewBox="0 0 240 240" fill="none" xmlns="http://www.w3.org/2000/svg">
<g clip-path="url(#clip0_8148_4200)">
<path d="M120 240C186.274 240 240 186.274 240 120C240 53.7258 186.274 0 120 0C53.7258 0 0 53.7258 0 120C0 186.274 53.7258 240 120 240Z" fill="#F0F0F0"/>
<path d="M35.147 204.853C40.1809 209.887 45.5519 214.376 51.1858 218.329L218.327 51.1868C214.375 45.5529 209.886 40.1819 204.852 35.148C199.818 30.1141 194.447 25.6254 188.813 21.6729L21.6719 188.815C25.6239 194.448 30.1131 199.819 35.147 204.853Z" fill="#A2001D"/>
<path d="M35.1467 35.147C-2.71141 73.0052 -9.97891 129.861 13.3287 175.021L175.02 13.33C129.86 -9.97765 73.0039 -2.70921 35.1467 35.147Z" fill="#0052B4"/>
<path d="M204.854 204.853C242.711 166.996 249.979 110.14 226.672 64.979L64.9805 226.671C110.14 249.978 166.996 242.711 204.854 204.853Z" fill="#496E2D"/>
<path d="M99.1317 67.826L85.6852 74.1509L92.8458 87.1737L78.2447 84.3809L76.3941 99.1301L66.2241 88.2818L56.0536 99.1301L54.2039 84.3809L39.6023 87.1732L46.7625 74.1504L33.3164 67.826L46.763 61.5007L39.6023 48.4788L54.2034 51.2716L56.0541 36.5215L66.2241 47.3702L76.3945 36.5215L78.2447 51.2716L92.8458 48.4788L85.6861 61.5012L99.1317 67.826Z" fill="#FFDA44"/>
</g>
<defs>
<clipPath id="clip0_8148_4200">
<rect width="240" height="240" fill="white"/>
</clipPath>
</defs>
</svg>
