<svg width="240" height="240" viewBox="0 0 240 240" fill="none" xmlns="http://www.w3.org/2000/svg">
<g clip-path="url(#clip0_8148_4206)">
<path d="M120 240C186.274 240 240 186.274 240 120C240 53.7258 186.274 0 120 0C53.7258 0 0 53.7258 0 120C0 186.274 53.7258 240 120 240Z" fill="#0052B4"/>
<path d="M171.5 128.372C171.941 125.645 172.174 122.849 172.174 120C172.174 122.849 171.941 125.645 171.5 128.372L193.044 120L171.5 111.629L159.666 107.031L140.44 99.5601L132.97 80.3344C145.567 84.4636 155.536 94.4325 159.666 107.03L171.499 111.628C167.923 89.5519 150.448 72.0759 128.372 68.5003L120 46.9565L111.629 68.5008C89.5523 72.0773 72.0773 89.5523 68.5012 111.629L46.957 120L68.5017 128.372C72.0778 150.448 89.5528 167.923 111.629 171.499L120 193.043L128.372 171.499C150.448 167.923 167.924 150.448 171.5 128.372ZM132.379 107.622L120 120H164.234L132.379 132.379L120 120V164.234L107.622 132.378L120 120H75.7669L107.622 107.622L120 120V75.7664L132.379 107.622ZM107.031 80.3348L99.5597 99.5606L80.3348 107.031C84.4641 94.4325 94.433 84.4645 107.031 80.3348ZM80.3353 132.97L99.5597 140.44L107.031 159.665C94.433 155.535 84.465 145.567 80.3353 132.97ZM132.97 159.665L140.441 140.44L159.666 132.97C155.536 145.567 145.568 155.535 132.97 159.665Z" fill="#F0F0F0"/>
<path d="M164.234 120H120L132.379 132.379L164.234 120Z" fill="#0052B4"/>
<path d="M75.7656 120H119.999L107.62 107.622L75.7656 120Z" fill="#0052B4"/>
<path d="M120 164.234V120L107.621 132.379L120 164.234Z" fill="#0052B4"/>
<path d="M120 120L132.379 107.622L120 75.7666V120Z" fill="#0052B4"/>
<path d="M114.781 15.6519H125.216V36.5215H114.781V15.6519Z" fill="#F0F0F0"/>
<path d="M15.6523 114.783H36.522V125.218H15.6523V114.783Z" fill="#F0F0F0"/>
<path d="M114.781 203.478H125.216V224.348H114.781V203.478Z" fill="#F0F0F0"/>
<path d="M203.48 114.783H224.35V125.218H203.48V114.783Z" fill="#F0F0F0"/>
</g>
<defs>
<clipPath id="clip0_8148_4206">
<rect width="240" height="240" fill="white"/>
</clipPath>
</defs>
</svg>
