<svg width="240" height="240" viewBox="0 0 240 240" fill="none" xmlns="http://www.w3.org/2000/svg">
<g clip-path="url(#clip0_8148_4219)">
<path d="M120 240C186.274 240 240 186.274 240 120C240 53.7258 186.274 0 120 0C53.7258 0 0 53.7258 0 120C0 186.274 53.7258 240 120 240Z" fill="#0052B4"/>
<path d="M120 240C186.274 240 240 186.274 240 120C240 53.7258 186.274 0 120 0C53.7258 0 0 53.7258 0 120C0 186.274 53.7258 240 120 240Z" fill="#FFDA44"/>
<path d="M120 0C57.2419 0 5.74594 48.1786 0.457031 109.565H239.543C234.254 48.1786 182.758 0 120 0Z" fill="#0052B4"/>
<path d="M120 240C182.758 240 234.254 191.822 239.543 130.435H0.457031C5.74594 191.822 57.2419 240 120 240Z" fill="#0052B4"/>
<path d="M99.1302 161.739L85.6837 168.064L92.8438 181.087L78.2427 178.294L76.3926 193.044L66.2221 182.195L56.0521 193.044L54.202 178.294L39.6004 181.086L46.761 168.064L33.3145 161.739L46.7615 155.414L39.6004 142.392L54.2015 145.185L56.0526 130.435L66.2221 141.283L76.3931 130.435L78.2427 145.185L92.8443 142.392L85.6841 155.415L99.1302 161.739Z" fill="#F0F0F0"/>
</g>
<defs>
<clipPath id="clip0_8148_4219">
<rect width="240" height="240" fill="white"/>
</clipPath>
</defs>
</svg>
