<svg width="240" height="240" viewBox="0 0 240 240" fill="none" xmlns="http://www.w3.org/2000/svg">
<g clip-path="url(#clip0_8148_4226)">
<path d="M120 240C186.274 240 240 186.274 240 120C240 53.7258 186.274 0 120 0C53.7258 0 0 53.7258 0 120C0 186.274 53.7258 240 120 240Z" fill="#F0F0F0"/>
<path d="M239.296 133.044L239.293 133.04L239.293 133.044H239.296Z" fill="#0052B4"/>
<path d="M239.292 133.044C239.292 133.043 239.293 133.042 239.293 133.04L107.693 0.624023C101.757 1.22918 95.9475 2.26699 90.2986 3.70559C38.3897 16.922 0 120 0 120C0 120 167.999 232.423 187.165 219.452C191 216.857 194.677 214.046 198.177 211.037L120.185 133.044H239.292Z" fill="#0052B4"/>
<path d="M208.695 120L91.9898 3.29492C39.2288 15.9123 0 63.3713 0 120C0 186.274 53.7263 240 120 240C145.139 240 168.467 232.265 187.748 219.052L88.6955 120H208.695Z" fill="#D80027"/>
<path d="M114.128 177.184L99.4723 170.29L107.277 156.097L91.3625 159.142L89.3459 143.064L78.2614 154.889L67.1769 143.064L65.1598 159.142L49.2462 156.097L57.0505 170.29L42.3945 177.184L57.0505 184.077L49.2462 198.271L65.1608 195.226L67.1764 211.303L78.2614 199.479L89.3459 211.303L91.3625 195.226L107.276 198.271L99.4719 184.078L114.128 177.184Z" fill="#F0F0F0"/>
<path d="M104.348 66.5544L93.6887 61.5411L99.3648 51.2178L87.7899 53.4322L86.3232 41.7388L78.2612 50.3389L70.1991 41.7388L68.732 53.4322L57.1571 51.2178L62.8337 61.5411L52.1738 66.5544L78.2612 71.7725L104.348 66.5544Z" fill="#F0F0F0"/>
<path d="M109.566 66.5542C109.566 83.8431 95.5505 97.8587 78.2616 97.8587C60.9727 97.8587 46.957 83.8431 46.957 66.5542" fill="#F0F0F0"/>
</g>
<defs>
<clipPath id="clip0_8148_4226">
<rect width="240" height="240" fill="white"/>
</clipPath>
</defs>
</svg>
