<svg width="240" height="240" viewBox="0 0 240 240" fill="none" xmlns="http://www.w3.org/2000/svg">
<g clip-path="url(#clip0_8148_4240)">
<path d="M240 120C240 186.274 186.274 240 120 240C53.7262 240 0 186.274 0 120C0 120.029 120 0.013125 120 0C186.274 0 240 53.7262 240 120Z" fill="#0052B4"/>
<path d="M119.68 120H120.001C120.001 119.892 120.001 119.787 120.001 119.679C119.894 119.786 119.787 119.893 119.68 120Z" fill="#F0F0F0"/>
<path d="M120 62.6086C120 41.4938 120 27.6586 120 0H119.98C53.715 0.01125 0 53.7323 0 120H62.6086V84.7448L97.8642 120H119.679C119.786 119.893 119.894 119.786 120 119.679C120 111.594 120 104.381 120 97.8647L84.7444 62.6086H120Z" fill="#F0F0F0"/>
<path d="M60.7105 15.6519C41.9422 26.3389 26.3394 41.9417 15.6523 60.71V120H46.9569V46.9573V46.9564H120C120 37.0831 120 27.6772 120 15.6519H60.7105Z" fill="#D80027"/>
<path d="M120 105.243L77.3661 62.6089C77.3661 62.6089 62.6094 62.6098 62.6094 62.6089V62.6098L120 120H120C120 120 120 109.825 120 105.243Z" fill="#D80027"/>
<path d="M207.81 89.043L210.4 97.0145H218.782L212.001 101.941L214.591 109.912L207.81 104.986L201.029 109.912L203.619 101.941L196.838 97.0145H205.22L207.81 89.043Z" fill="#D80027"/>
<path d="M177.848 146.434L181.734 158.392H194.306L184.134 165.781L188.02 177.739L177.848 170.349L167.677 177.739L171.563 165.781L161.391 158.392H173.963L177.848 146.434Z" fill="#D80027"/>
<path d="M178.98 52.5215L182.218 62.4866H192.695L184.218 68.6437L187.456 78.6084L178.98 72.4495L170.504 78.6084L173.742 68.6437L165.266 62.4866H175.742L178.98 52.5215Z" fill="#D80027"/>
<path d="M150.151 88.6953L154.036 100.653H166.609L156.437 108.043L160.323 120L150.151 112.61L139.979 120L143.865 108.043L133.693 100.653H146.266L150.151 88.6953Z" fill="#D80027"/>
</g>
<defs>
<clipPath id="clip0_8148_4240">
<rect width="240" height="240" fill="white"/>
</clipPath>
</defs>
</svg>
