<svg width="240" height="240" viewBox="0 0 240 240" fill="none" xmlns="http://www.w3.org/2000/svg">
<g clip-path="url(#clip0_8148_4253)">
<path d="M120 240C186.274 240 240 186.274 240 120C240 53.7258 186.274 0 120 0C53.7258 0 0 53.7258 0 120C0 186.274 53.7258 240 120 240Z" fill="#F0F0F0"/>
<path d="M119.999 0C72.4237 0 31.3162 27.6867 11.9062 67.8262H228.091C208.682 27.6867 167.574 0 119.999 0Z" fill="#338AF3"/>
<path d="M119.999 240C167.574 240 208.682 212.313 228.092 172.174H11.9062C31.3162 212.313 72.4237 240 119.999 240Z" fill="#338AF3"/>
<path d="M120 83.4785C99.8299 83.4785 83.4785 99.8299 83.4785 120C83.4785 140.171 99.8299 156.522 120 156.522C140.171 156.522 156.522 140.171 156.522 120C156.522 99.8299 140.171 83.4785 120 83.4785ZM120 140.87C108.475 140.87 99.1305 131.527 99.1305 120C99.1305 108.474 108.474 99.1305 120 99.1305C131.526 99.1305 140.87 108.474 140.87 120C140.87 131.527 131.526 140.87 120 140.87Z" fill="#FFDA44"/>
<path d="M138.075 125.217L120.001 120L101.927 125.217L95.9023 135.652H144.099L138.075 125.217Z" fill="#0052B4"/>
<path d="M120 93.9131L107.951 114.783L120 120L132.05 114.783L120 93.9131Z" fill="#338AF3"/>
<path d="M101.926 125.217H138.074L132.049 114.783H107.951L101.926 125.217Z" fill="#6DA544"/>
</g>
<defs>
<clipPath id="clip0_8148_4253">
<rect width="240" height="240" fill="white"/>
</clipPath>
</defs>
</svg>
