<svg width="240" height="240" viewBox="0 0 240 240" fill="none" xmlns="http://www.w3.org/2000/svg">
<g clip-path="url(#clip0_8148_4262)">
<path d="M11.9072 67.8264C4.27875 83.6027 0 101.301 0 120C0 138.699 4.27875 156.398 11.9072 172.174L120 182.609L228.093 172.174C235.721 156.398 240 138.699 240 120C240 101.301 235.721 83.6027 228.093 67.8264L120 57.3916L11.9072 67.8264Z" fill="#F0F0F0"/>
<path d="M11.9121 172.174C31.3212 212.313 72.4254 240 120.001 240C167.576 240 208.68 212.313 228.089 172.174H11.9121Z" fill="#6DA544"/>
<path d="M11.9121 67.8262H228.089C208.68 27.6867 167.576 0 120.001 0C72.4259 0 31.3212 27.6867 11.9121 67.8262Z" fill="#FF9811"/>
<path d="M120.001 161.739C143.052 161.739 161.74 143.052 161.74 120C161.74 96.9484 143.052 78.2612 120.001 78.2612C96.9489 78.2612 78.2617 96.9484 78.2617 120C78.2617 143.052 96.9489 161.739 120.001 161.739Z" fill="#FF9811"/>
</g>
<defs>
<clipPath id="clip0_8148_4262">
<rect width="240" height="240" fill="white"/>
</clipPath>
</defs>
</svg>
