<svg width="240" height="240" viewBox="0 0 240 240" fill="none" xmlns="http://www.w3.org/2000/svg">
<g clip-path="url(#clip0_8148_4273)">
<path d="M240 120C240 186.274 186.274 240 120 240C53.7262 240 0 186.274 0 120C0 120.029 120 0.013125 120 0C186.274 0 240 53.7262 240 120Z" fill="#FFDA44"/>
<path d="M119.999 57.3916V97.8649L78.2598 57.3916H119.999Z" fill="#0052B4"/>
<path d="M62.6078 120H97.863L62.6078 73.0435L57.3906 109.565L62.6078 120Z" fill="#0052B4"/>
<path d="M119.68 120H120.001C120.001 119.892 120.001 119.787 120.001 119.679C119.894 119.786 119.787 119.893 119.68 120Z" fill="#F0F0F0"/>
<path d="M120 62.6086C120 41.4938 120 27.6586 120 0H119.98C53.7145 0.01125 0 53.7323 0 120H62.6086V84.7448L97.8638 120H119.679C119.786 119.893 119.893 119.786 120 119.679C120 111.594 120 104.381 120 97.8647L84.7444 62.6086H120Z" fill="#F0F0F0"/>
<path d="M120.001 105.243L77.3656 62.6089H62.6094V62.6098L120 120H120.001C120.001 120 120.001 109.825 120.001 105.243Z" fill="#D80027"/>
<path d="M60.7105 15.6519C56.0844 18.2862 51.6523 21.222 47.4373 24.4269H52.3611L39.3477 33.8834L44.3173 49.182L31.3039 39.7273L29.9192 40.7337C24.5159 46.8697 19.7253 53.5578 15.6523 60.71V120H46.9569V46.9573V46.9564H120C120 37.0831 120 27.6772 120 15.6519H60.7105Z" fill="#D80027"/>
<path d="M51.262 21.6338C49.9678 22.5399 48.6919 23.4713 47.4352 24.4271L39.3469 33.8836L31.3031 39.7271L29.9067 40.7414C26.9602 44.0883 24.1969 47.6002 21.6328 51.2625C24.5555 52.681 27.8362 53.4783 31.3031 53.4783C43.5497 53.4783 53.4769 43.5511 53.4769 31.3046C53.4778 27.8368 52.6809 24.5569 51.262 21.6338Z" fill="#0052B4"/>
<path d="M29.9062 40.7411L31.3027 39.7268L44.3161 49.1819L39.3459 33.8833L52.3584 24.4268H47.4338C41.0616 29.2732 35.1895 34.7407 29.9062 40.7411Z" fill="#FFDA44"/>
<path d="M82.9413 20.8696L85.5316 28.8407H93.9128L87.1323 33.7678L89.7213 41.7388L82.9413 36.8123L76.1608 41.7388L78.7492 33.7678L71.9688 28.8407H80.3505L82.9413 20.8696Z" fill="#FFDA44"/>
<path d="M31.3041 73.0435L33.8944 81.0145H42.2756L35.4956 85.9421L38.0845 93.9131L31.3041 88.9861L24.5231 93.9131L27.112 85.9421L20.332 81.0145H28.7133L31.3041 73.0435Z" fill="#FFDA44"/>
</g>
<defs>
<clipPath id="clip0_8148_4273">
<rect width="240" height="240" fill="white"/>
</clipPath>
</defs>
</svg>
