<svg width="240" height="240" viewBox="0 0 240 240" fill="none" xmlns="http://www.w3.org/2000/svg">
<g clip-path="url(#clip0_8148_4290)">
<path d="M172.173 11.9072C156.397 4.27875 138.698 0 119.999 0C101.3 0 83.6017 4.27875 67.8255 11.9072L57.3906 120L67.8255 228.093C83.6017 235.721 101.3 240 119.999 240C138.698 240 156.397 235.721 172.173 228.093L182.608 120L172.173 11.9072Z" fill="#F0F0F0"/>
<path d="M67.8262 11.9116C27.6867 31.3207 0 72.4249 0 120C0 167.576 27.6867 208.68 67.8262 228.089V11.9116Z" fill="#6DA544"/>
<path d="M172.174 11.9116V228.089C212.313 208.68 240 167.575 240 120C240 72.4254 212.313 31.3207 172.174 11.9116Z" fill="#6DA544"/>
<path d="M151.304 156.522L120 57.3916L88.6953 156.522H112.174V182.609H127.826V156.522H151.304Z" fill="#6DA544"/>
</g>
<defs>
<clipPath id="clip0_8148_4290">
<rect width="240" height="240" fill="white"/>
</clipPath>
</defs>
</svg>
