<svg width="240" height="240" viewBox="0 0 240 240" fill="none" xmlns="http://www.w3.org/2000/svg">
<g clip-path="url(#clip0_8148_4296)">
<path d="M120 240C186.274 240 240 186.274 240 120C240 53.7258 186.274 0 120 0C53.7258 0 0 53.7258 0 120C0 186.274 53.7258 240 120 240Z" fill="#F0F0F0"/>
<path d="M119.999 0C83.6285 0 51.0396 16.1831 29.0332 41.7389H210.965C188.959 16.1831 156.37 0 119.999 0Z" fill="#0052B4"/>
<path d="M210.965 198.261H29.0332C51.0396 223.817 83.6285 240 119.999 240C156.37 240 188.959 223.817 210.965 198.261Z" fill="#0052B4"/>
<path d="M222.387 57.3916H17.6128C6.44297 75.6189 0 97.0563 0 120C0 142.944 6.44297 164.382 17.6128 182.609H222.387C233.557 164.382 240 142.944 240 120C240 97.0563 233.557 75.6189 222.387 57.3916Z" fill="#D80027"/>
<path d="M73.8261 166.174C99.3271 166.174 120 145.501 120 120C120 94.4989 99.3271 73.8262 73.8261 73.8262C48.325 73.8262 27.6523 94.4989 27.6523 120C27.6523 145.501 48.325 166.174 73.8261 166.174Z" fill="#F0F0F0"/>
<path d="M73.8259 73.8262L84.1858 105.711H117.766L90.5894 125.418L101.03 157.398L73.8259 137.597L46.6628 157.361L57.0625 125.418L29.9102 105.711H63.4656L73.8259 73.8262Z" fill="#D80027"/>
</g>
<defs>
<clipPath id="clip0_8148_4296">
<rect width="240" height="240" fill="white"/>
</clipPath>
</defs>
</svg>
