<svg width="240" height="240" viewBox="0 0 240 240" fill="none" xmlns="http://www.w3.org/2000/svg">
<g clip-path="url(#clip0_8148_4304)">
<path d="M120 240C186.274 240 240 186.274 240 120C240 53.7258 186.274 0 120 0C53.7258 0 0 53.7258 0 120C0 186.274 53.7258 240 120 240Z" fill="#F0F0F0"/>
<path d="M29.0348 41.7388C24.8241 46.6292 21.0014 51.8619 17.6133 57.3908H222.388C219 51.8619 215.177 46.6288 210.966 41.7388H29.0348Z" fill="#D80027"/>
<path d="M29.0344 198.261H210.966C215.177 193.37 219 188.138 222.388 182.609H17.6133C21.0009 188.137 24.8236 193.37 29.0344 198.261Z" fill="#D80027"/>
<path d="M104.644 98.0557L114.489 111.624L130.435 106.453L120.574 120.01L130.418 133.577L114.479 128.387L104.618 141.943L104.627 125.18L88.6875 119.99L104.633 114.82L104.644 98.0557Z" fill="#D80027"/>
<path d="M77.7745 153.913C59.0452 153.913 43.8614 138.729 43.8614 120C43.8614 101.27 59.0452 86.0865 77.7745 86.0865C83.6142 86.0865 89.1094 87.5631 93.9066 90.1628C86.3808 82.8029 76.0884 78.2603 64.7311 78.2603C41.6789 78.2603 22.9922 96.9474 22.9922 119.999C22.9922 143.051 41.6794 161.738 64.7311 161.738C76.0884 161.738 86.3808 157.195 93.9066 149.836C89.1094 152.436 83.6147 153.913 77.7745 153.913Z" fill="#D80027"/>
</g>
<defs>
<clipPath id="clip0_8148_4304">
<rect width="240" height="240" fill="white"/>
</clipPath>
</defs>
</svg>
