<svg width="240" height="240" viewBox="0 0 240 240" fill="none" xmlns="http://www.w3.org/2000/svg">
<g clip-path="url(#clip0_8148_4311)">
<path d="M120 240C186.274 240 240 186.274 240 120C240 53.7258 186.274 0 120 0C53.7258 0 0 53.7258 0 120C0 186.274 53.7258 240 120 240Z" fill="#338AF3"/>
<path d="M116.218 195.558C112.983 195.401 110.306 193.299 109.258 190.445C107.406 192.86 104.223 194.076 101.087 193.267C97.9462 192.459 95.7501 189.86 95.2959 186.845C92.9896 188.837 89.6296 189.38 86.7239 187.956C83.8125 186.526 82.185 183.536 82.3518 180.494C79.6964 181.986 76.2946 181.841 73.7329 179.858C71.1764 177.875 70.1798 174.625 70.9518 171.677C68.0507 172.605 64.7535 171.781 62.6404 169.324C60.5273 166.872 60.2034 163.485 61.5501 160.757C58.5239 161.08 55.4564 159.609 53.8804 156.781C52.2993 153.953 52.665 150.567 54.5376 148.161C51.5062 147.869 48.7931 145.808 47.8228 142.72C46.8473 139.631 47.8907 136.386 50.2125 134.408C47.301 133.51 45.0679 130.943 44.7393 127.725C44.4107 124.506 46.0804 121.548 48.7462 120.076C46.08 118.615 44.4 115.657 44.7182 112.443H44.7234C45.0417 109.219 47.2748 106.647 50.1806 105.739C47.8589 103.767 46.8051 100.527 47.7703 97.4375C48.7354 94.3437 51.4429 92.2775 54.4748 91.9747C52.6017 89.5747 52.2262 86.1879 53.7965 83.3558C55.3668 80.5278 58.4348 79.0512 61.4662 79.3695C60.1096 76.6409 60.4279 73.2547 62.5359 70.7923C64.6387 68.3351 67.9359 67.5054 70.8421 68.4237C70.0593 65.4809 71.0507 62.2254 73.6073 60.2379C76.1587 58.2495 79.5604 58.0981 82.2159 59.5798C82.0439 56.5386 83.6662 53.5484 86.5725 52.1136C89.4735 50.6839 92.8387 51.2164 95.1496 53.209C95.5931 50.194 97.7896 47.5854 100.925 46.7708C104.055 45.957 107.238 47.1622 109.095 49.5725C110.144 46.7187 112.815 44.6108 116.05 44.449C119.28 44.2826 122.149 46.0976 123.485 48.8272C125.082 46.2392 128.118 44.7054 131.317 45.1906C134.52 45.6706 136.978 48.0284 137.739 50.9769C139.826 48.7536 143.113 47.8723 146.15 48.9884C149.191 50.1101 151.122 52.917 151.268 55.9639C153.757 54.2112 157.158 54.0073 159.908 55.7187C162.658 57.425 163.978 60.5604 163.508 63.5708C166.299 62.3553 169.67 62.8404 172.018 65.0628C174.366 67.2908 175.033 70.6245 173.969 73.4783C176.948 72.8469 180.152 73.9948 182.009 76.6503C183.866 79.3006 183.851 82.7023 182.239 85.2851C185.28 85.264 188.187 87.0383 189.475 90.0069C190.759 92.9806 190.054 96.3148 187.952 98.5217C190.942 99.1165 193.43 101.438 194.087 104.61C194.739 107.782 193.378 110.897 190.879 112.635C193.675 113.82 195.647 116.59 195.652 119.825V119.929V119.997C195.652 123.231 193.691 126.007 190.894 127.202C193.399 128.93 194.771 132.044 194.119 135.216C193.472 138.388 190.988 140.715 187.999 141.32C190.107 143.522 190.822 146.851 189.543 149.83C188.265 152.804 185.359 154.583 182.312 154.567C183.929 157.15 183.955 160.552 182.103 163.207C180.251 165.864 177.053 167.022 174.074 166.395C175.143 169.244 174.48 172.583 172.138 174.816C169.79 177.045 166.425 177.535 163.634 176.33C164.108 179.335 162.794 182.476 160.049 184.192C157.304 185.909 153.903 185.71 151.409 183.963C151.268 187.01 149.348 189.822 146.312 190.949C143.276 192.076 146.312 190.949 146.307 190.949C143.27 192.071 139.983 191.195 137.891 188.977C137.14 191.93 134.688 194.293 131.484 194.784C128.286 195.269 125.244 193.746 123.643 191.158C122.369 193.782 119.677 195.567 116.609 195.567C116.479 195.568 116.348 195.563 116.218 195.558Z" fill="#F3F3F3"/>
<path d="M120.002 172.174C148.817 172.174 172.176 148.815 172.176 120C172.176 91.1852 148.817 67.8262 120.002 67.8262C91.1871 67.8262 67.8281 91.1852 67.8281 120C67.8281 148.815 91.1871 172.174 120.002 172.174Z" fill="#338AF3"/>
<path d="M131.418 102.29C133.981 100.389 135.65 97.3501 135.65 93.9133V88.6961C135.65 82.9328 130.979 78.2612 125.215 78.2612H114.781C109.018 78.2612 104.346 82.9328 104.346 88.6961V93.9133C104.346 97.3501 106.015 100.389 108.578 102.29L99.1289 198.261C99.1289 198.261 104.346 203.479 119.999 203.479C135.651 203.479 140.868 198.261 140.868 198.261L131.418 102.29Z" fill="#BDBCC1"/>
<path d="M119.999 78.2612L129.063 106.16H158.4L134.667 123.405L143.731 151.305L119.999 134.062L96.2648 151.305L105.331 123.405L81.5977 106.16H110.933L119.999 78.2612Z" fill="#F0F0F0"/>
</g>
<defs>
<clipPath id="clip0_8148_4311">
<rect width="240" height="240" fill="white"/>
</clipPath>
</defs>
</svg>
