<svg width="240" height="240" viewBox="0 0 240 240" fill="none" xmlns="http://www.w3.org/2000/svg">
<g clip-path="url(#clip0_8148_4317)">
<path d="M120 240C186.274 240 240 186.274 240 120C240 53.7258 186.274 0 120 0C53.7258 0 0 53.7258 0 120C0 186.274 53.7258 240 120 240Z" fill="#F0F0F0"/>
<path d="M4.13281 151.305C11.0759 177.067 26.3783 199.395 46.9555 215.206V151.305H4.13281Z" fill="#D80027"/>
<path d="M109.562 239.544C113.002 239.84 116.481 240 119.997 240C175.441 240 222.093 202.397 235.863 151.305H109.562V239.544Z" fill="#D80027"/>
<path d="M235.863 88.6955C222.093 37.6036 175.441 0 119.997 0C116.481 0 113.002 0.160312 109.562 0.456562V88.6955H235.863Z" fill="#D80027"/>
<path d="M46.9555 24.7944C26.3783 40.6054 11.0759 62.9333 4.13281 88.6954H46.9555V24.7944Z" fill="#D80027"/>
<path d="M238.984 104.348H93.9136H93.9131V2.85254C82.8234 5.3116 72.3098 9.29738 62.6086 14.591V104.347V104.348H1.01578C0.347813 109.472 0 114.695 0 120C0 125.305 0.347813 130.529 1.01578 135.652H62.6081H62.6086V225.409C72.3098 230.702 82.8234 234.689 93.9131 237.147V135.654V135.653H238.984C239.651 130.529 240 125.305 240 120C240 114.695 239.651 109.472 238.984 104.348Z" fill="#0052B4"/>
</g>
<defs>
<clipPath id="clip0_8148_4317">
<rect width="240" height="240" fill="white"/>
</clipPath>
</defs>
</svg>
