<svg width="240" height="240" viewBox="0 0 240 240" fill="none" xmlns="http://www.w3.org/2000/svg">
<g clip-path="url(#clip0_8148_4325)">
<path d="M120 240C186.274 240 240 186.274 240 120C240 53.7258 186.274 0 120 0C53.7258 0 0 53.7258 0 120C0 186.274 53.7258 240 120 240Z" fill="#F0F0F0"/>
<path d="M0 120C0 165.485 25.3078 205.057 62.6086 225.409V14.5908C25.3078 34.943 0 74.5149 0 120Z" fill="#D80027"/>
<path d="M232.537 161.739C237.36 148.739 240 134.679 240 120C240 105.322 237.36 91.2606 232.537 78.2612H7.46438C2.64047 91.2606 0 105.322 0 120C0 134.679 2.64047 148.739 7.46438 161.739L120 172.174L232.537 161.739Z" fill="#D80027"/>
<path d="M120 240C171.597 240 215.581 207.435 232.537 161.739H7.46484C24.4195 207.435 68.4052 240 120 240Z" fill="#6DA544"/>
<path d="M0 120C0 175.443 37.6036 222.096 88.6955 235.866V4.13379C37.6036 17.9038 0 64.5566 0 120Z" fill="#D80027"/>
<path d="M73.414 52.8064L62.3463 41.7388L54.9682 49.1178L47.5901 41.7388L36.5224 52.8064L43.901 60.185L36.5215 67.5641L47.5891 78.6317L54.9677 71.2527L62.3463 78.6317L73.414 67.5641L66.0354 60.185L73.414 52.8064Z" fill="#F0F0F0"/>
</g>
<defs>
<clipPath id="clip0_8148_4325">
<rect width="240" height="240" fill="white"/>
</clipPath>
</defs>
</svg>
