<svg width="240" height="240" viewBox="0 0 240 240" fill="none" xmlns="http://www.w3.org/2000/svg">
<g clip-path="url(#clip0_8148_4345)">
<path d="M120 240C186.274 240 240 186.274 240 120C240 53.7258 186.274 0 120 0C53.7258 0 0 53.7258 0 120C0 186.274 53.7258 240 120 240Z" fill="#F0F0F0"/>
<path d="M0 120C0 165.485 25.3073 205.057 62.6086 225.409V14.5908C25.3073 34.9435 0 74.5149 0 120Z" fill="#F0F0F0"/>
<path d="M120.001 0C99.2117 0 79.6583 5.28891 62.6094 14.5908V225.409C79.6583 234.711 99.2117 240 120.001 240C186.275 240 240.001 186.274 240.001 120C240.001 53.7262 186.275 0 120.001 0Z" fill="#496E2D"/>
<path d="M171.307 139.846C156.126 150.815 134.926 147.4 123.957 132.22C112.987 117.038 116.402 95.8384 131.584 84.8697C136.317 81.4497 141.636 79.428 147.046 78.7253C136.637 77.1686 125.633 79.5142 116.428 86.1653C97.7437 99.6662 93.5404 125.757 107.041 144.443C120.541 163.127 146.633 167.33 165.318 153.828C174.524 147.177 180.206 137.468 181.995 127.095C179.63 132.01 176.041 136.425 171.307 139.846Z" fill="#F0F0F0"/>
<path d="M170.657 78.2622L179.209 87.4783L190.616 82.1946L184.493 93.1746L193.045 102.392L180.709 99.9611L174.586 110.942L173.086 98.4592L160.75 96.0288L172.158 90.745L170.657 78.2622Z" fill="#F0F0F0"/>
</g>
<defs>
<clipPath id="clip0_8148_4345">
<rect width="240" height="240" fill="white"/>
</clipPath>
</defs>
</svg>
