<svg width="240" height="240" viewBox="0 0 240 240" fill="none" xmlns="http://www.w3.org/2000/svg">
<g clip-path="url(#clip0_8148_4356)">
<path d="M120 240C186.274 240 240 186.274 240 120C240 53.7258 186.274 0 120 0C53.7258 0 0 53.7258 0 120C0 186.274 53.7258 240 120 240Z" fill="#F0F0F0"/>
<path d="M73.0427 78.2611H232.535C215.58 32.565 171.595 0 119.999 0C86.8615 0 56.8648 13.4339 35.1504 35.1511L73.0427 78.2611Z" fill="black"/>
<path d="M73.0427 161.739H232.535C215.58 207.435 171.595 240 119.999 240C86.8615 240 56.8648 226.566 35.1504 204.849L73.0427 161.739Z" fill="#6DA544"/>
<path d="M35.1471 35.147C-11.7157 82.0098 -11.7157 157.99 35.1471 204.853C54.5126 185.488 73.1374 166.863 120 120L35.1471 35.147Z" fill="#D80027"/>
</g>
<defs>
<clipPath id="clip0_8148_4356">
<rect width="240" height="240" fill="white"/>
</clipPath>
</defs>
</svg>
