<svg width="240" height="240" viewBox="0 0 240 240" fill="none" xmlns="http://www.w3.org/2000/svg">
<g clip-path="url(#clip0_8148_4361)">
<path d="M120 240C186.274 240 240 186.274 240 120C240 53.7258 186.274 0 120 0C53.7258 0 0 53.7258 0 120C0 186.274 53.7258 240 120 240Z" fill="#F0F0F0"/>
<path d="M0 120C0 186.274 53.7262 240 120 240C120 194.365 120 120 120 120C120 120 41.7389 120 0 120Z" fill="#0052B4"/>
<path d="M120 0C186.274 0 240 53.7262 240 120C194.365 120 120 120 120 120C120 120 120 41.7389 120 0Z" fill="#D80027"/>
<path d="M71.4332 41.7388L79.2037 65.6535H104.349L84.006 80.4331L91.776 104.348L71.4332 89.5677L51.0904 104.348L58.8604 80.4331L38.5176 65.6535H63.6627L71.4332 41.7388Z" fill="#0052B4"/>
<path d="M168.568 135.652L176.338 159.567H201.484L181.14 174.346L188.911 198.261L168.568 183.481L148.225 198.261L155.995 174.346L135.652 159.567H160.798L168.568 135.652Z" fill="#D80027"/>
</g>
<defs>
<clipPath id="clip0_8148_4361">
<rect width="240" height="240" fill="white"/>
</clipPath>
</defs>
</svg>
