<svg width="240" height="240" viewBox="0 0 240 240" fill="none" xmlns="http://www.w3.org/2000/svg">
<g clip-path="url(#clip0_8148_4367)">
<path d="M204.853 204.853C157.99 251.715 82.0108 251.715 35.1471 204.853C-11.7158 157.99 -11.7158 82.0097 35.1475 35.1464C82.0103 -11.7164 150.611 -4.33783 197.474 42.5254C244.337 89.3883 251.716 157.99 204.853 204.853Z" fill="black"/>
<path d="M35.1465 35.1467C82.0093 -11.7161 157.989 -11.7152 204.852 35.1472C251.715 82.01 251.715 157.99 204.852 204.853" fill="#A2001D"/>
<path d="M91.7074 161.74L93.6499 167.719H99.9363L94.8504 171.413L96.7934 177.392L91.7074 173.697L86.6215 177.392L88.564 171.413L83.4785 167.719H89.7644L91.7074 161.74Z" fill="#F0F0F0"/>
<path d="M75.6522 104.348L78.8908 114.313H89.3673L80.8909 120.471L84.1286 130.435L75.6522 124.277L67.1763 130.435L70.4144 120.471L61.9375 114.313H72.415L75.6522 104.348Z" fill="#F0F0F0"/>
<path d="M75.6522 177.392L78.8898 187.357H89.3673L80.89 193.514L84.1286 203.479L75.6522 197.32L67.1763 203.479L70.4134 193.514L61.9375 187.357H72.4136L75.6522 177.392Z" fill="#F0F0F0"/>
<path d="M106.285 130.436L109.523 140.4H120L111.523 146.558L114.761 156.522L106.285 150.364L97.8086 156.522L101.047 146.558L92.5703 140.4H103.047L106.285 130.436Z" fill="#F0F0F0"/>
<path d="M45.0194 130.436L48.258 140.4H58.7341L50.2581 146.558L53.4953 156.522L45.0194 150.364L36.543 156.522L39.7816 146.558L31.3047 140.4H41.7817L45.0194 130.436Z" fill="#F0F0F0"/>
<path d="M200.883 88.8565C195.52 83.4936 188.551 80.3253 181.063 79.7811L203.479 62.3468C194.551 53.4195 182.586 49.3878 170.91 50.2404C169.513 45.2173 166.848 40.4726 162.898 36.5225L154.043 54.2309C153.463 53.1725 152.727 52.1764 151.83 51.2796C146.736 46.1857 138.477 46.1857 133.384 51.2796C128.29 56.3736 128.289 64.632 133.384 69.7259C134.28 70.6226 135.277 71.3581 136.335 71.9393L118.627 80.7936C122.578 84.7451 127.326 87.4118 132.352 88.8087C131.496 100.484 135.524 112.448 144.452 121.376L164.036 96.1953C165.509 94.7445 167.455 93.9434 169.525 93.9434C171.616 93.9434 173.581 94.7571 175.059 96.2361C176.537 97.714 177.351 99.6795 177.351 101.77C177.351 103.86 176.537 105.825 175.059 107.304L182.438 114.683C185.886 111.234 187.786 106.648 187.786 101.77C187.786 97.7792 186.513 93.9851 184.163 90.8482C187.588 91.7628 190.824 93.5543 193.506 96.2361C201.643 104.373 201.643 117.613 193.506 125.75L200.885 133.129C206.797 127.216 210.053 119.355 210.053 110.993C210.052 102.63 206.795 94.7693 200.883 88.8565Z" fill="#FFDA44"/>
</g>
<defs>
<clipPath id="clip0_8148_4367">
<rect width="240" height="240" fill="white"/>
</clipPath>
</defs>
</svg>
