<svg width="240" height="240" viewBox="0 0 240 240" fill="none" xmlns="http://www.w3.org/2000/svg">
<g clip-path="url(#clip0_8148_4377)">
<path d="M120 240C186.274 240 240 186.274 240 120C240 53.7258 186.274 0 120 0C53.7258 0 0 53.7258 0 120C0 186.274 53.7258 240 120 240Z" fill="#F0F0F0"/>
<path d="M119.999 0C72.4237 0 31.3162 27.6867 11.9062 67.8262H228.091C208.682 27.6867 167.574 0 119.999 0Z" fill="#D80027"/>
<path d="M119.999 240C167.574 240 208.682 212.313 228.092 172.174H11.9062C31.3162 212.313 72.4237 240 119.999 240Z" fill="#0052B4"/>
<path d="M149.514 85.269L138.446 96.3367C143.167 101.057 146.088 107.579 146.088 114.783C146.088 129.19 134.408 140.87 120.001 140.87C105.594 140.87 93.9138 129.19 93.9138 114.783C93.9138 107.579 96.8341 101.057 101.555 96.3367L90.4872 85.269C82.9333 92.8215 78.2617 103.256 78.2617 114.783C78.2617 137.835 96.9489 156.522 120.001 156.522C143.052 156.522 161.74 137.835 161.74 114.783C161.739 103.256 157.068 92.8215 149.514 85.269Z" fill="#6DA544"/>
<path d="M120.001 99.1304L123.886 111.088H136.459L126.287 118.478L130.173 130.435L120.001 123.045L109.829 130.435L113.714 118.478L103.543 111.088H116.115L120.001 99.1304Z" fill="#FFDA44"/>
</g>
<defs>
<clipPath id="clip0_8148_4377">
<rect width="240" height="240" fill="white"/>
</clipPath>
</defs>
</svg>
