<svg width="240" height="240" viewBox="0 0 240 240" fill="none" xmlns="http://www.w3.org/2000/svg">
<g clip-path="url(#clip0_8148_4388)">
<path d="M120 240C186.274 240 240 186.274 240 120C240 53.7258 186.274 0 120 0C53.7258 0 0 53.7258 0 120C0 186.274 53.7258 240 120 240Z" fill="#F0F0F0"/>
<path d="M120 0V120L35.1465 204.853C56.8623 226.568 86.8623 240 120 240C186.273 240 240 186.274 240 120C240 53.7262 120 0 120 0Z" fill="#D80027"/>
<path d="M120 0C86.8623 0 56.8623 13.4316 35.1465 35.1469C64.5887 64.5891 75.0404 75.0413 120 120H240C240 53.7262 186.273 0 120 0Z" fill="#0052B4"/>
<path d="M82.1684 120L67.5134 113.106L75.3176 98.913L59.4035 101.958L57.387 85.8809L46.302 97.7046L35.2174 85.8809L33.2004 101.958L17.2868 98.9126L25.091 113.106L10.4355 120L25.091 126.893L17.2868 141.086L33.2018 138.042L35.217 154.119L46.302 142.295L57.387 154.119L59.4035 138.042L75.3166 141.087L67.5129 126.894L82.1684 120Z" fill="#FFDA44"/>
<path d="M32.0043 46.9565L36.8812 53.7736L44.871 51.2428L39.8938 57.9872L44.7707 64.8042L36.8179 62.1553L31.8412 68.8992L31.9035 60.5179L23.9512 57.8686L31.9424 55.3378L32.0043 46.9565Z" fill="#FFDA44"/>
<path d="M32.0043 171.101L36.8812 177.918L44.871 175.386L39.8938 182.131L44.7707 188.948L36.8179 186.299L31.8412 193.043L31.9035 184.662L23.9512 182.013L31.9424 179.482L32.0043 171.101Z" fill="#FFDA44"/>
<path d="M101.562 109.029L96.6856 115.846L88.6953 113.314L93.6725 120.059L88.7956 126.876L96.7484 124.227L101.726 130.971L101.663 122.59L109.615 119.941L101.624 117.41L101.562 109.029Z" fill="#FFDA44"/>
</g>
<defs>
<clipPath id="clip0_8148_4388">
<rect width="240" height="240" fill="white"/>
</clipPath>
</defs>
</svg>
