<svg width="240" height="240" viewBox="0 0 240 240" fill="none" xmlns="http://www.w3.org/2000/svg">
<g clip-path="url(#clip0_8148_4397)">
<path d="M240 120C240 186.274 186.274 240 120 240C53.7262 240 0 186.274 0 120C0 120.029 120 0.013125 120 0C186.274 0 240 53.7262 240 120Z" fill="#0052B4"/>
<path d="M119.68 120H120.001C120.001 119.892 120.001 119.787 120.001 119.679C119.894 119.786 119.787 119.893 119.68 120Z" fill="#F0F0F0"/>
<path d="M120 62.6086C120 41.4938 120 27.6586 120 0H119.98C53.7145 0.01125 0 53.7323 0 120H62.6086V84.7448L97.8638 120H119.679C119.786 119.893 119.893 119.786 120 119.679C120 111.594 120 104.381 120 97.8647L84.7444 62.6086H120Z" fill="#F0F0F0"/>
<path d="M60.7105 15.6519C41.9422 26.3389 26.3389 41.9417 15.6523 60.71V120H46.9569V46.9573V46.9564H120C120 37.0831 120 27.6772 120 15.6519H60.7105Z" fill="#D80027"/>
<path d="M120.001 105.243L77.3656 62.6089H62.6094V62.6098L120 120H120.001C120.001 120 120.001 109.825 120.001 105.243Z" fill="#D80027"/>
<path d="M187.826 73.0434L172.174 78.2611L156.522 73.0434L151.305 60L156.522 46.9565H187.826L182.609 60L187.826 73.0434Z" fill="#ACABB1"/>
<path d="M135.652 73.0435V130.434C135.652 158.391 172.174 166.957 172.174 166.957C172.174 166.957 208.696 158.391 208.696 130.434V73.0435H135.652Z" fill="#338AF3"/>
<path d="M138.945 144.031C147.923 161.266 172.175 166.956 172.175 166.956C172.175 166.956 196.427 161.266 205.405 144.031L172.175 88.6958L138.945 144.031Z" fill="#6DA544"/>
<path d="M208.696 129.855L172.174 73.0435L135.652 129.855V130.434C135.652 135.608 136.906 140.117 138.944 144.031L172.174 92.3395L205.404 144.03C207.442 140.116 208.696 135.608 208.696 130.434V129.855Z" fill="#FFDA44"/>
</g>
<defs>
<clipPath id="clip0_8148_4397">
<rect width="240" height="240" fill="white"/>
</clipPath>
</defs>
</svg>
