<svg width="240" height="240" viewBox="0 0 240 240" fill="none" xmlns="http://www.w3.org/2000/svg">
<g clip-path="url(#clip0_8148_4413)">
<path d="M0 120C0 171.595 32.565 215.58 78.2602 232.536L88.6955 119.999L78.2602 7.46387C32.565 24.4195 0 68.4042 0 120Z" fill="#6DA544"/>
<path d="M240 120C240 53.7262 186.273 0 120 0C105.321 0 91.2601 2.64047 78.2598 7.46391V232.536C91.2601 237.36 105.321 240 120 240C186.273 240 240 186.274 240 120Z" fill="#D80027"/>
<path d="M78.2604 161.739C101.312 161.739 119.999 143.052 119.999 120C119.999 96.9484 101.312 78.2612 78.2604 78.2612C55.2086 78.2612 36.5215 96.9484 36.5215 120C36.5215 143.052 55.2086 161.739 78.2604 161.739Z" fill="#FFDA44"/>
<path d="M54.7832 99.1304V125.217C54.7832 138.184 65.2945 148.696 78.2615 148.696C91.2285 148.696 101.74 138.184 101.74 125.217V99.1304H54.7832Z" fill="#D80027"/>
<path d="M78.2618 133.043C73.9465 133.043 70.4355 129.532 70.4355 125.217V114.783H86.0876V125.218C86.0876 129.532 82.5766 133.043 78.2618 133.043Z" fill="#F0F0F0"/>
</g>
<defs>
<clipPath id="clip0_8148_4413">
<rect width="240" height="240" fill="white"/>
</clipPath>
</defs>
</svg>
