<svg width="240" height="240" viewBox="0 0 240 240" fill="none" xmlns="http://www.w3.org/2000/svg">
<g clip-path="url(#clip0_8148_4419)">
<path d="M120 240C186.274 240 240 186.274 240 120C240 53.7258 186.274 0 120 0C53.7258 0 0 53.7258 0 120C0 186.274 53.7258 240 120 240Z" fill="#F0F0F0"/>
<path d="M119.999 0C80.7406 0 45.8866 18.8545 23.9941 48H216.004C194.112 18.8545 159.258 0 119.999 0Z" fill="#D80027"/>
<path d="M119.999 240C159.258 240 194.112 221.145 216.004 192H23.9941C45.8866 221.145 80.7406 240 119.999 240Z" fill="#D80027"/>
<path d="M0 120C0 128.22 0.82875 136.245 2.40328 144H237.598C239.172 136.245 240 128.22 240 120C240 111.78 239.171 103.755 237.597 96H2.40328C0.82875 103.755 0 111.78 0 120H0Z" fill="#D80027"/>
<path d="M35.1471 35.147C-11.7157 82.0098 -11.7157 157.99 35.1471 204.853C54.5126 185.488 73.1374 166.863 120 120L35.1471 35.147Z" fill="#0052B4"/>
<path d="M48.5675 88.6953L56.337 112.609H81.4836L61.1408 127.39L68.9098 151.304L48.5675 136.524L28.2242 151.304L35.9952 127.39L15.6523 112.609H40.797L48.5675 88.6953Z" fill="#F0F0F0"/>
</g>
<defs>
<clipPath id="clip0_8148_4419">
<rect width="240" height="240" fill="white"/>
</clipPath>
</defs>
</svg>
