<svg width="240" height="240" viewBox="0 0 240 240" fill="none" xmlns="http://www.w3.org/2000/svg">
<g clip-path="url(#clip0_8148_4427)">
<path d="M120 240C186.274 240 240 186.274 240 120C240 53.7258 186.274 0 120 0C53.7258 0 0 53.7258 0 120C0 186.274 53.7258 240 120 240Z" fill="#F0F0F0"/>
<path d="M240 120C240 53.7262 186.274 0 120 0C96.5255 0 74.6283 6.74766 56.1323 18.3989L82.4353 29.5744L46.957 44.6484L82.4353 59.722L46.957 74.7952L82.4353 89.8678L46.957 104.939L82.4353 120.008L46.957 135.082L82.4353 150.154L46.957 165.225L82.4353 180.297L46.957 195.37L82.4353 210.441L56.1441 221.61C74.6377 233.256 96.5302 240 120 240C186.274 240 240 186.274 240 120Z" fill="#751A46"/>
</g>
<defs>
<clipPath id="clip0_8148_4427">
<rect width="240" height="240" fill="white"/>
</clipPath>
</defs>
</svg>
