<svg width="240" height="240" viewBox="0 0 240 240" fill="none" xmlns="http://www.w3.org/2000/svg">
<g clip-path="url(#clip0_8148_4430)">
<path d="M120 240C186.274 240 240 186.274 240 120C240 53.7258 186.274 0 120 0C53.7258 0 0 53.7258 0 120C0 186.274 53.7258 240 120 240Z" fill="#FCFCFC"/>
<path d="M156.522 99.1304V109.565H170.843C164.867 117.871 156.906 124.652 147.657 129.218C145.284 126.753 141.952 125.217 138.261 125.217C132.038 125.217 126.837 129.576 125.535 135.407C123.711 135.567 121.866 135.652 120 135.652C118.135 135.652 116.29 135.566 114.466 135.407C113.164 129.577 107.963 125.217 101.74 125.217C98.0484 125.217 94.718 126.753 92.3442 129.218C83.0948 124.653 75.1345 117.871 69.158 109.565H83.4788V99.1304H46.957C46.957 139.471 79.6603 172.174 120 172.174C160.342 172.174 193.044 139.471 193.044 99.1304H156.522Z" fill="#D80027"/>
</g>
<defs>
<clipPath id="clip0_8148_4430">
<rect width="240" height="240" fill="white"/>
</clipPath>
</defs>
</svg>
