<svg width="241" height="241" viewBox="0 0 241 241" fill="none" xmlns="http://www.w3.org/2000/svg">
<path d="M205.69 204.655C252.507 157.837 252.507 81.9306 205.69 35.1129C158.872 -11.7048 82.9655 -11.7048 36.1479 35.1129C-10.6698 81.9306 -10.6698 157.837 36.1479 204.655C82.9656 251.472 158.872 251.472 205.69 204.655Z" fill="#73D4FF"/>
<mask id="mask0_8260_7687" style="mask-type:luminance" maskUnits="userSpaceOnUse" x="1" y="0" width="240" height="240">
<path d="M205.69 204.655C252.507 157.837 252.507 81.9306 205.69 35.1129C158.872 -11.7048 82.9655 -11.7048 36.1479 35.1129C-10.6698 81.9306 -10.6698 157.837 36.1479 204.655C82.9656 251.472 158.872 251.472 205.69 204.655Z" fill="white"/>
</mask>
<g mask="url(#mask0_8260_7687)">
<path d="M-335.101 -67.2346C-333.732 -59.3953 -328.006 -71.9076 -335.101 -67.2346V-67.2346ZM-340.859 -66.7731C-338.929 -66.7731 -337.871 -67.9105 -338.183 -69.3864C-338.836 -69.0788 -344.096 -66.7731 -340.859 -66.7731ZM-329.344 -105.016C-327.85 -105.708 -326.947 -106.599 -325.142 -106.784C-327.819 -109.259 -331.46 -108.797 -334.884 -108.751C-334.852 -105.477 -332.612 -104.155 -329.344 -105.016ZM5.05981 63.0501C3.81714 64.6176 4.68689 73.2871 7.98553 70.306C9.85303 68.6753 5.68463 63.6952 5.05981 63.0501ZM141.404 174.12C142.214 176.701 144.301 179.777 146.758 180.453C146.946 179.931 146.946 179.408 146.758 178.946H148.594C148.689 176.764 149.311 176.301 149.311 174.242C147.632 174.705 141.219 172.951 141.404 174.12C141.5 174.488 141.376 173.997 141.404 174.12ZM148.253 170.984C148.253 172.092 149.247 172.86 150.152 173.011C150.12 171.353 149.435 170.984 148.253 170.984C148.409 170.984 148.253 171.107 148.253 170.984ZM140.193 170.43C138.979 171.016 139.756 171.966 140.627 172.275C140.69 172.092 140.907 170.153 140.193 170.43C140.318 170.37 140.005 170.493 140.193 170.43ZM193.191 188.355C196.77 188.355 197.611 181.744 201.939 180.881C200.04 176.947 207.229 177.563 202.064 174.456C197.955 172.029 199.603 176.178 197.175 178.823C195.03 181.19 190.983 181.775 189.427 184.511C188.245 186.632 188.618 188.937 193.191 188.355C193.287 188.355 193.038 188.355 193.191 188.355ZM190.422 189.428C190.049 189.705 189.924 189.891 189.644 190.259H191.419C191.512 189.674 191.355 188.751 190.422 189.428C190.578 189.305 190.266 189.551 190.422 189.428ZM204.489 165.019C204.489 166.095 204.584 168.894 204.584 169.14C204.584 168.894 202.841 169.017 202.809 170.307C202.809 171.966 204.084 170.184 204.364 171.23C204.303 171.107 206.171 175.165 207.229 174.856C207.634 174.734 208.692 172.766 209.345 172.152C212.644 169.076 214.916 165.39 208.255 166.558C208.223 164.773 207.478 162.006 206.232 164.714C204.865 163.851 204.677 161.055 203.09 159.488C200.132 156.535 204.489 163.914 204.489 165.019ZM182.579 126.255C184.261 128.808 185.724 130.898 189.303 131.266C189.023 129.727 184.013 126.192 182.579 126.255ZM111.218 106.794C108.417 107.288 112.649 107.871 113.644 107.78V106.917C112.99 106.857 110.377 106.857 111.218 106.794ZM136.21 107.902C132.908 111.928 137.36 121.797 130.014 119.83C130.046 119.83 123.293 115.558 123.169 115.218C121.891 112.482 124.507 111.037 125.345 108.884C121.61 108.393 117.971 106.517 114.392 106.517C115.107 107.134 115.014 107.594 116.292 108.333C115.635 107.934 111.871 110.424 110.874 111.037C107.888 112.914 112.525 113.282 107.544 114.236C105.896 114.541 105.147 112.268 102.473 113.25C100.262 114.05 99.9814 116.972 97.4603 116.972C97.8367 117.771 97.9288 119.062 98.3652 119.83H96.4344V118.353C93.5087 118.199 92.5143 124.347 89.1839 125.918C86.6633 127.114 82.7721 127.486 80.0026 128.559C78.7881 128.991 77.9789 132.925 76.5482 129.636C75.3338 133.294 75.0536 135.447 77.1091 139.042C72.6887 137.074 77.4821 143.808 78.3836 146.207C80.2511 151.064 82.0551 154.231 78.3231 157.397C80.8724 157.397 82.3676 160.193 85.6339 159.67C87.5015 159.425 88.4351 157.212 90.5223 156.781C92.1701 156.353 93.9133 157.948 95.3156 157.58C96.8067 157.149 96.839 155.981 98.0851 155.49C99.2673 155.03 100.574 153.708 101.912 153.154C102.846 152.754 103.656 154.108 104.774 153.708C108.729 152.232 113.21 149.956 117.847 152.355C120.616 153.831 123.293 164.282 126.251 154.876C128.367 155.582 126.155 157.026 126.467 158.811C129.081 157.272 128.086 159.425 127.898 161.761C132.194 160.961 130.263 164.682 133.437 167.235C133.813 167.54 137.733 168.74 138.51 168.771C140.69 168.831 140.005 166.649 141.375 166.587C142.743 166.558 142.774 169.14 143.676 168.954C148.097 168.032 152.734 166.373 154.352 162.315C155.411 159.67 155.659 156.935 157.339 154.108C160.701 148.451 161.322 142.517 158.212 136.429C157.526 135.016 156.625 134.585 155.567 133.479C154.85 132.711 154.85 131.326 154.352 130.744C154.197 130.589 151.924 129.944 151.363 129.422C150.649 128.745 150.71 127.114 149.933 126.346C148.874 125.364 146.261 124.624 145.452 123.642C143.46 121.212 142.899 116.449 141.404 114.113C140.939 113.373 139.568 112.819 138.855 111.714C138.013 110.361 138.45 107.04 136.426 106.549C136.302 107.011 136.238 107.44 136.21 107.902ZM173.397 103.627C174.022 104.581 174.707 104.276 175.517 103.967C175.112 102.891 172.744 102.245 173.397 103.627C173.493 103.781 173.337 103.536 173.397 103.627ZM162.568 96.2797C162.568 97.2021 164.716 98.3733 165.306 98.2474C164.777 96.8969 163.19 96.0662 163.19 94.775C162.909 94.7436 162.6 94.775 162.32 94.8666C162.508 95.5117 162.568 95.666 162.568 96.2797ZM149.808 94.989C150.056 97.7879 158.18 96.4056 157.434 92.0397C157.03 92.0995 149.808 96.0343 149.808 94.989C149.84 95.3295 149.808 94.8068 149.808 94.989ZM112.742 100.463C112.742 100.892 115.916 101.386 114.392 98.3733C113.086 98.556 112.525 99.2643 112.742 100.463ZM101.352 99.1413C101.568 100.278 102.783 100.032 103.78 99.6008C102.939 98.8646 102.502 99.3867 101.352 99.1413ZM120.055 94.775C119.341 95.2349 118.717 96.2797 118.717 97.2021C118.717 98.987 122.888 92.8989 120.055 94.775ZM116.945 91.2712C118.965 90.3773 121.518 92.1309 123.478 93.0219C125.129 93.7899 126.748 93.33 127.898 95.3295C129.453 98.002 127.682 97.2966 128.023 98.8327C128.118 99.2329 125.846 99.1697 126.808 100.955C127.245 101.785 129.797 99.9094 130.668 100.123C133.437 100.892 134.527 103.353 137.982 102.308C140.098 101.691 140.005 98.6784 143.492 99.9094C144.859 100.401 145.171 102.06 146.385 102.736C148.718 104.09 147.568 103.659 150.742 104.399C155.535 105.472 153.948 105.812 151.583 102.554C151.239 102.06 148.906 102.336 148.501 101.999C148.718 102.182 147.195 98.1876 147.504 99.2011C147.411 98.8646 144.518 96.774 148.253 97.111C147.536 95.7889 144.113 93.33 142.401 92.3763C139.164 90.5316 136.643 89.9178 133.032 88.8412C127.93 87.2139 128.211 88.1961 124.163 88.8412C121.642 89.2727 118.905 88.0731 115.387 88.9641C115.763 90.3175 116.292 91.6082 116.945 91.2712C117.069 91.2399 116.849 91.3315 116.945 91.2712ZM99.3595 86.5684C97.4315 86.9965 101.103 87.4594 101.788 87.3364C101.788 86.0741 100.418 86.3827 99.3595 86.5684ZM122.267 84.9064C122.391 85.8919 122.544 86.1055 122.484 87.2419H124.692C124.351 86.1971 123.759 86.6913 123.759 84.9064H122.267C122.825 84.8466 122.296 85.0607 122.267 84.9064ZM112.961 85.0293C112.432 84.9695 111.964 85.092 111.527 85.4917C113.832 86.8142 116.32 88.7187 119.37 87.3364C116.821 82.6933 115.294 85.9198 112.961 85.0293ZM112.432 84.2926C107.234 83.3071 115.451 81.2797 112.432 84.2926C112.244 84.2608 112.773 83.9243 112.432 84.2926ZM110.192 86.9964C110.998 87.3648 111.343 89.3952 111.683 86.8143C110.565 86.9965 110.441 87.091 110.192 86.9964ZM106.237 89.5181C106.237 90.3175 110.874 91.0542 112.212 91.0542C111.932 88.5958 106.642 89.2727 106.237 89.5181ZM104.465 89.8267C103.873 89.7038 103.283 89.5495 102.658 89.4265C103.716 91.9766 104.93 90.1035 104.465 89.8267C104.618 89.9178 104.184 89.7038 104.465 89.8267ZM107.202 77.9586C105.616 80.1119 104.494 80.4176 104.618 83.4927C104.838 87.8277 105.928 82.5703 108.541 82.9705C108.697 81.5255 107.948 80.2662 106.642 80.3573C106.954 79.4952 107.202 78.8212 107.202 77.9586C107.202 78.1761 106.986 78.2672 107.202 77.9586ZM86.4144 89.6406C86.4144 89.6406 88.6835 92.4708 88.4064 92.1622C88.3107 92.0398 88.7476 94.6839 88.8398 94.989C90.4271 93.9442 90.0542 90.8088 90.0542 89.0866H91.3926C91.5488 89.7954 93.9454 95.0836 94.8792 94.6525C96.5587 93.9158 93.4481 88.1045 92.4827 86.874C102.722 86.874 86.4144 80.9711 86.4144 89.6406ZM99.2355 80.3573C97.5242 80.971 87.7211 79.6808 88.1868 83.7386C91.3927 82.2622 92.266 82.5704 95.6886 81.8934C96.7468 81.6485 97.0873 82.8476 98.3652 82.325C99.0476 82.0164 101.632 79.3722 99.2355 80.3573C99.6719 80.1716 99.1111 80.4175 99.2355 80.3573ZM96.9312 103.844C96.9312 105.749 104.401 102.122 105.211 101.323C102.285 99.878 97.4316 102.982 96.9312 103.844ZM96.0297 105.689C95.1277 105.812 94.9109 106.149 95.3761 106.794H96.6827C96.8067 106.243 96.7785 105.443 96.0297 105.689C96.1854 105.626 95.7173 105.812 96.0297 105.689ZM89.0599 101.232C90.9875 103.136 97.0269 101.568 99.2355 100.646C97.4603 100.341 89.898 100.341 89.0599 101.232ZM88.282 102.645C85.5095 103.476 90.5829 104.827 91.4849 104.767C91.112 104.335 89.2444 102.459 88.282 102.645C88.4064 102.614 87.9379 102.736 88.282 102.645ZM82.7399 100.769C81.153 100.892 86.7238 101.232 87.8455 101.232C87.5014 101.323 87.441 101.137 87.6255 100.646C85.7902 100.646 84.4834 100.463 82.7399 100.769C83.084 100.737 82.4597 100.8 82.7399 100.769ZM58.7459 97.0796C61.267 99.0473 64.8458 99.6326 69.1705 100.064C72.5966 100.432 76.8602 102.182 80.5317 101.66C79.5053 99.6326 77.3575 99.0786 75.0214 99.541C75.1777 98.002 76.2994 98.7416 77.4499 98.0647C71.1337 97.0199 65.311 96.8969 58.7459 97.0796ZM51.993 93.9158C51.525 94.9293 51.8374 95.4206 51.993 93.9158V93.9158ZM67.7075 79.0352C64.7818 81.0627 66.6212 84.7237 68.2686 86.874C70.6652 90.1035 71.6629 89.7635 76.2359 90.5036C80.8442 91.2996 79.3812 92.4708 81.9946 88.6589C82.1185 88.4728 82.5841 85.4604 83.084 84.6007C83.7664 83.4927 86.2904 83.0019 87.068 81.3399C84.1422 79.4668 84.9515 78.9725 84.2984 74.8232C86.5388 74.9461 85.8535 73.4698 88.0622 72.7017C88.2502 73.2244 82.7399 68.9207 83.2086 68.861C81.4655 68.9839 80.1877 71.9337 78.8205 73.1328C75.7703 75.8087 70.4483 81.0627 67.7075 79.0352ZM44.3668 85.4917C44.4913 86.9367 46.9196 90.5037 48.3508 90.8088C48.0413 88.8412 44.3668 85.646 44.3668 85.4917C44.399 85.8287 44.3668 85.2747 44.3668 85.4917ZM40.8197 80.6659C41.381 81.7112 42.4388 82.0164 42.9362 83.093C42.9362 81.771 42.5633 80.8173 41.1609 80.2348C40.7563 81.2797 41.1321 80.7575 40.8197 80.6659ZM39.1688 77.8043C39.1688 77.4678 38.4871 76.5454 38.4871 77.5275C38.4871 78.4215 39.0449 78.8212 39.8224 78.9441C40.1026 78.3901 39.8859 78.0218 39.1688 77.8043ZM39.947 72.7963C38.7038 72.7963 38.0184 71.5653 36.8362 71.7196C37.3653 74.2692 41.4415 76.7908 42.8117 78.5126C44.9599 81.1259 46.7316 84.9975 49.0038 87.9188C50.5623 89.8551 54.2335 95.1752 56.3177 95.2065C60.9259 95.3295 58.3096 90.9318 61.9524 89.8267C61.5472 86.9965 58.9022 85.9517 56.63 87.5505C56.3816 84.324 44.3063 73.2871 39.947 72.7963C40.4473 72.856 39.762 72.7963 39.947 72.7963ZM97.1514 65.2313C94.7548 65.4772 92.6671 67.076 93.9454 69.7206C95.8734 65.1089 98.7064 70.3976 101.788 71.7196C100.698 69.412 102.658 68.9207 102.69 68.861C102.754 68.4299 103.656 62.8326 101.693 62.8326C99.7007 62.8326 99.3596 66.7082 97.1514 65.2313C97.3076 65.3543 96.8067 65.2945 97.1514 65.2313ZM90.6151 55.0889C90.5511 55.8853 93.1039 62.0964 94.9392 61.7594C94.0055 63.7868 97.3076 65.1716 96.4978 61.2054C96.1219 59.515 92.4825 55.394 90.6151 55.0889C90.739 55.1486 90.5828 55.394 90.6151 55.0889ZM93.821 54.7803C96.5906 56.6848 98.4259 60.3428 101.415 60.9281C101.415 57.5787 98.2696 56.8077 98.2696 53.8266C96.4661 53.8266 95.5641 54.7803 93.821 54.7803C94.1622 55.0257 94.1622 54.7803 93.821 54.7803ZM89.6173 56.748C87.97 59.8834 83.7377 63.0188 82.8644 65.5997C86.5389 65.5997 89.6173 60.3428 89.6173 56.748C89.6173 57.1163 89.5568 56.9018 89.6173 56.748ZM91.3322 43.9291C88.0623 45.6797 88.8715 52.2587 92.6071 53.4269C92.4504 51.3363 97.1802 43.9291 91.3322 43.9291ZM93.4769 30.1256C93.4769 29.0803 89.0883 32.6154 89.7419 36.6419H91.0515C91.0515 33.9375 93.4769 32.6154 93.4769 30.1256ZM149.933 -18.7854C147.724 -18.3857 146.293 -16.6027 143.396 -16.3872C140.222 -16.1413 138.759 -16.7561 135.429 -18.6008C135.304 -17.6172 133.998 -10.1468 132.659 -12.8829C132.07 -11.8685 130.078 -7.13431 133.313 -8.64055V-7.53354C131.353 -7.19556 130.419 -0.985962 128.242 1.44458C128.242 0.767624 128.303 0.396362 128.242 -0.30899C126.965 0.921951 126.592 1.35007 126.031 2.94888C125.533 2.27242 124.724 3.44016 125.037 1.53569C123.602 2.54915 123.073 3.93442 122.857 6.02452C118.436 4.11713 110.192 7.74333 109.411 12.5412C110.252 12.6005 111.435 12.5412 111.964 12.5412C111.964 14.6627 109.599 15.6134 112.865 16.5358C112.865 14.2943 116.508 11.0644 112.865 10.7592C113.643 8.48297 119.153 8.48296 121.486 8.08325C118.965 9.6512 114.921 8.14302 115.855 12.3551C117.907 11.4959 119.87 10.5736 121.27 9.28287C122.296 11.6189 125.129 9.80553 124.692 7.77469C133.437 6.79306 131.79 6.3615 133.874 -0.863022C135.024 -4.85905 136.394 -7.99495 132.567 -11.1304C135.152 -11.6226 139.476 -9.22491 139.32 -12.0219C141.219 -11.6226 149.933 -16.3872 149.933 -18.7854C149.933 -18.6625 149.776 -18.7854 149.933 -18.7854ZM154.04 -20.8755C153.106 -20.7222 152.641 -20.0766 151.8 -19.646C153.17 -18.8466 153.543 -19.7073 154.04 -20.8755C153.884 -20.8451 153.856 -20.4454 154.04 -20.8755ZM164.873 -32.558C164.624 -31.6665 164.063 -30.8362 163.534 -30.0368C165.338 -30.775 164.841 -32.1887 164.873 -32.558ZM191.324 -44.0553C191.107 -44.0553 190.702 -45.1618 190.113 -44.7009C189.988 -44.3007 189.957 -43.8706 189.988 -43.4401C190.361 -43.348 191.76 -43.1947 191.324 -44.0553ZM188.337 -43.7168C187.901 -44.9463 188.025 -45.7153 186.875 -46.576C186.875 -45.4077 187.123 -44.3933 187.216 -43.2559C187.997 -43.0404 188.554 -43.01 188.337 -43.7168C188.401 -43.5635 188.274 -43.8706 188.337 -43.7168ZM182.55 -55.5835C183.389 -55.5835 183.949 -56.567 184.013 -57.1514C182.081 -57.8886 181.897 -56.7204 181.148 -55.5835C181.616 -55.4909 182.081 -55.4909 182.55 -55.5835ZM233.684 -70.8005C235.548 -70.4929 238.132 -69.6935 240 -69.9399C238.413 -73.0136 234.99 -70.6467 233.684 -70.8005C234.024 -70.7697 233.495 -70.8618 233.684 -70.8005ZM214.107 -97.607C216.503 -97.0692 219.461 -98.1297 221.95 -98.1297C221.296 -99.1289 219.272 -100.528 217.593 -100.436C217 -100.42 212.239 -98.0684 214.107 -97.607C214.231 -97.5766 213.89 -97.6535 214.107 -97.607ZM144.954 -114.315C147.131 -113.47 154.321 -110.888 154.321 -114.884C151.239 -115.038 146.542 -114.608 145.264 -116.729C145.047 -116.514 144.269 -114.608 144.954 -114.315C145.079 -114.285 144.766 -114.423 144.954 -114.315ZM131.665 -107.322C134.342 -106.907 136.738 -107.46 139.288 -106.568C138.418 -110.288 134.247 -109.336 131.665 -107.322ZM133.874 -110.073C135.337 -110.073 132.631 -111.303 131.79 -111.272C131.79 -109.95 132.691 -110.073 133.874 -110.073ZM125.594 -114.992C127.991 -111.533 141.5 -112.471 142.401 -116.836C140.254 -117.236 137.545 -118.512 137.545 -115.038C137.08 -115.115 136.643 -115.115 136.21 -115.038C138.542 -119.864 133.437 -117.113 131.726 -117.159C128.303 -117.266 127.433 -118.912 125.594 -114.992ZM123.261 -115.868C123.073 -116.268 123.073 -116.729 123.261 -117.174C120.804 -117.513 122.047 -114.961 123.261 -115.868C123.229 -116.007 123.045 -115.699 123.261 -115.868ZM122.047 -111.165C122.796 -109.382 122.701 -108.306 124.912 -108.597C124.32 -109.397 122.857 -110.627 122.047 -111.165ZM63.1664 -127.227C62.5416 -128.38 60.6745 -128.672 59.4313 -128.088C59.7408 -127.734 63.6955 -125.905 63.1664 -127.227C63.2269 -127.073 63.0707 -127.412 63.1664 -127.227ZM37.3972 -122.093C38.1429 -122.339 38.9844 -122.093 39.7303 -122.093C39.4496 -124.845 38.2674 -122.678 37.3972 -122.093ZM47.0118 -126.028C47.4487 -126.028 57.9367 -128.242 58.1851 -128.533C60.7697 -131.884 53.0195 -131.546 52.4299 -131.807C52.959 -132.346 53.1757 -132.361 53.3314 -133.022C48.7554 -133.806 46.5149 -126.028 47.0118 -126.028ZM39.947 -136.834C32.2314 -135.727 33.3179 -131.439 40.415 -130.793C45.7979 -130.286 46.1738 -130.163 45.8936 -133.345C45.5495 -137.664 45.8613 -135.527 41.8144 -135.527C42.2508 -136.25 42.2191 -136.081 42.3752 -136.818C41.5372 -136.834 40.7562 -136.849 39.947 -136.834ZM33.2897 -136.403C36.3677 -134.79 40.6957 -139.016 42.4711 -140.123C38.4554 -142.029 32.9451 -142.244 29.7391 -138.048C29.9271 -137.695 32.5404 -136.757 33.2897 -136.403C33.4424 -136.311 33.194 -136.48 33.2897 -136.403ZM32.4159 -135.42C30.9536 -135.42 29.8953 -136.25 28.372 -135.973C28.5569 -131.531 34.4401 -135.42 32.4159 -135.42ZM27.8715 -142.536C24.5446 -142.536 27.1257 -141.168 26.8773 -140.784C26.2242 -139.708 31.1732 -142.536 27.8715 -142.536ZM-58.4577 -91.2745C-60.3893 -91.5973 -63.5951 -93.8412 -62.1928 -89.3068C-60.9501 -89.3068 -58.6775 -89.9373 -58.4577 -91.2745C-58.4895 -91.1364 -58.5822 -91.2897 -58.4577 -91.2745ZM-49.933 -107.106C-51.8928 -107.291 -55.9367 -102.234 -55.9367 -99.5747C-54.7862 -99.8054 -54.0086 -100.528 -53.3556 -99.1446C-52.9509 -99.3288 -52.7947 -99.6212 -52.9187 -100.005C-50.3981 -98.7449 -52.1416 -97.3308 -50.771 -96.7312C-48.9991 -95.9627 -45.5731 -96.2394 -43.6134 -96.2394C-43.8618 -98.8987 -46.8511 -99.7437 -47.0361 -102.203C-47.288 -105.246 -44.7033 -107.014 -42.8358 -108.874C-38.4155 -113.224 -34.2788 -115.622 -27.8031 -117.174C-25.9068 -117.635 -17.8759 -119.281 -18.7174 -121.325C-19.9601 -124.322 -24.5972 -120.956 -26.248 -120.464C-30.2637 -119.188 -43.6134 -118.85 -43.6134 -114.008C-44.4544 -114.116 -45.2003 -114.146 -46.0418 -114.008C-43.9864 -110.519 -51.2396 -110.642 -50.586 -108.306C-49.8372 -108.459 -49.6205 -108.736 -48.8112 -108.644C-49.2159 -107.614 -48.126 -106.968 -49.933 -107.106C-49.5884 -107.075 -50.242 -107.137 -49.933 -107.106ZM-16.6297 -106.123C-14.8897 -106.123 -13.9242 -107.199 -13.456 -107.445C-12.5223 -107.937 -19.4028 -106.123 -16.6297 -106.123ZM-32.4401 -140.784C-29.9512 -137.08 -28.2717 -140.6 -25.4704 -141.107C-28.052 -142.552 -30.0147 -139.985 -32.4401 -140.784ZM-37.8576 -140.784C-37.8576 -139.509 -38.7596 -139.877 -39.4127 -138.816C-37.4817 -138.202 -35.4293 -138.156 -33.2176 -138.54C-35.0563 -140.83 -34.8683 -142.506 -37.8576 -140.784ZM-38.6352 -136.834C-39.2248 -136.665 -39.7856 -136.511 -40.407 -136.511C-40.098 -135.005 -39.1008 -135.85 -37.8576 -136.081C-37.9821 -136.68 -37.8864 -137.018 -38.6352 -136.834C-38.4789 -136.865 -38.8201 -136.788 -38.6352 -136.834ZM-46.3825 -137.495C-45.3564 -136.619 -45.2002 -135.266 -43.6134 -137.28C-43.6134 -134.836 -40.407 -137.126 -39.9742 -137.495C-39.9419 -137.802 -39.9741 -138.079 -40.0981 -138.371C-42.0583 -138.74 -45.1685 -137.879 -46.3825 -137.495ZM-52.7026 -137.28C-50.8668 -139.124 -46.9755 -139.923 -44.1742 -139.262C-44.8273 -143.198 -40.5315 -137.879 -39.9742 -141.537C-40.9362 -141.537 -41.7776 -141.384 -42.7431 -141.537C-42.3702 -142.075 -41.6531 -143.336 -41.4047 -143.612C-42.928 -143.612 -43.9258 -142.66 -44.735 -142.413C-44.2059 -142.582 -47.4119 -141.737 -47.7213 -141.537C-48.5306 -141.046 -48.8113 -139.939 -49.933 -139.14C-51.4881 -138.033 -52.2339 -138.894 -52.7026 -137.28ZM-61.5396 -140.231C-64.809 -140.231 -65.6188 -139.093 -68.729 -139.693C-68.5728 -137.341 -64.4967 -138.924 -62.6292 -138.924C-66.4887 -136.158 -59.9841 -135.466 -58.0848 -137.941C-55.0352 -141.983 -57.9286 -140.231 -61.5396 -140.231ZM-124.936 -136.511C-124.219 -134.713 -120.204 -137.126 -119.426 -135.097C-120.516 -135.158 -121.638 -135.051 -122.756 -135.097C-120.733 -129.548 -109.687 -134.498 -107.134 -135.973C-109.623 -138.694 -113.109 -136.434 -115.318 -137.08C-114.913 -137.895 -114.353 -137.741 -114.54 -138.709C-117.154 -137.695 -116.472 -138.571 -117.995 -135.973C-118.961 -138.463 -126.087 -139.032 -124.936 -136.511C-124.872 -136.311 -125.06 -136.757 -124.936 -136.511ZM-129.385 -128.211C-129.385 -127.612 -135.3 -127.965 -136.013 -125.582C-134.583 -125.89 -130.102 -126.904 -129.509 -126.136C-130.414 -125.552 -135.236 -124.783 -135.3 -124.384C-135.424 -123.645 -131.096 -121.571 -130.162 -120.341C-127.301 -122.477 -124.563 -126.628 -124.563 -129.579C-123.722 -129.702 -122.227 -129.733 -121.418 -129.579C-121.791 -126.92 -121.108 -128.81 -119.955 -127.273C-119.117 -126.151 -120.857 -125.198 -120.857 -124.046C-117.807 -125.921 -117.498 -123.43 -116.315 -123.615C-115.101 -123.799 -112.921 -125.09 -111.679 -125.367C-113.017 -127.119 -114.384 -125.106 -114.384 -127.657C-115.691 -127.488 -124.499 -132.668 -124.748 -133.468C-125.121 -133.299 -125.806 -133.099 -126.523 -133.468C-126.242 -134.113 -125.87 -134.528 -125.714 -135.204C-129.044 -136.757 -129.136 -134.959 -130.691 -134.528C-129.946 -134.744 -131.877 -132.684 -132.094 -132.623C-131.596 -132.792 -132.935 -135.22 -133.152 -135.281C-132.84 -135.189 -136.855 -133.744 -136.791 -133.791C-136.358 -134.467 -136.17 -135.189 -135.797 -135.758C-137.757 -135.343 -146.004 -133.391 -139.439 -132.484C-139.439 -131.654 -139.283 -129.564 -139.564 -128.872C-140.775 -129.471 -140.622 -130.516 -142.113 -130.84C-141.524 -129.671 -139.159 -125.828 -139.159 -129.302C-137.757 -129.179 -137.665 -127.119 -135.704 -127.781C-134.927 -128.026 -134.491 -129.441 -133.741 -129.517C-133.649 -129.533 -129.605 -129.902 -129.385 -128.211C-129.385 -128.134 -129.449 -128.595 -129.385 -128.211ZM144.393 -57.4585C149.932 -57.4585 150.866 -59.795 154.693 -58.9956C156.81 -58.5959 154.289 -57.1514 156.469 -56.5979C159.611 -55.8597 158.585 -58.9344 161.322 -56.8433C161.542 -58.2883 162.508 -57.1514 163.75 -57.2739C163.066 -60.0101 162.007 -57.5815 163.097 -60.4406C163.566 -61.701 166.459 -64.5292 167.454 -65.0823C171.032 -67.0499 174.054 -66.2814 174.054 -62.2848C178.875 -63.1763 180.09 -69.6632 184.666 -68.7717C181.616 -66.3122 180.558 -62.4386 177.164 -59.6716C172.868 -56.1673 167.422 -54.2306 165.899 -49.6502C164.809 -46.2992 164.901 -41.5959 165.557 -38.5217C166.459 -34.3096 165.991 -33.6337 169.165 -35.2937C172.559 -37.0458 172.839 -44.6392 178.162 -43.2867C176.728 -45.9612 177.818 -49.5884 180.899 -47.6516C179.905 -49.8343 180.743 -51.8637 180.463 -53.2161C180.278 -53.8926 179 -53.4008 178.471 -53.2161C178.567 -54.2923 180.338 -58.5038 181.024 -59.1186C182.859 -60.7786 183.079 -59.8259 185.38 -60.348C186.626 -60.5939 186.157 -59.4879 186.999 -59.5491C188.149 -59.6412 188.462 -61.4854 189.427 -61.5472C190.61 -61.578 191.728 -61.1783 192.942 -61.3321C195.712 -61.6392 193.443 -59.6716 195.62 -59.2415C195.62 -64.4367 208.131 -67.6338 211.678 -68.6487C214.884 -69.5402 215.225 -65.8508 214.107 -70.6159C213.109 -74.8583 210.901 -73.1679 208.131 -74.9812C206.544 -76.1495 214.696 -75.8727 214.667 -75.8424C217.032 -76.7799 217.778 -78.0554 216.659 -80.438C218.307 -80.5457 218.555 -78.8548 219.084 -78.7936C219.397 -78.7627 222.851 -78.148 223.288 -77.9325C225.528 -76.8872 224.968 -76.2112 227.832 -75.5348C231.752 -74.5507 228.734 -74.8583 230.819 -75.6577C232.53 -76.2724 231.16 -77.9325 232.157 -78.7936C233.027 -79.5773 239.002 -77.087 236.577 -81.3295C235.704 -82.8357 229.544 -83.8815 228.049 -83.2814C229.42 -82.3596 229.76 -80.1769 227.488 -81.7595C226.679 -82.3287 227.832 -84.5114 226.774 -85.372C226.214 -85.8178 225.155 -85.4489 224.687 -85.8486C223.849 -86.5555 221.481 -87.9084 220.643 -88.3693C218.339 -89.5836 216.876 -90.4138 214.448 -91.5821C209.47 -93.9798 198.733 -95.824 195.527 -92.5809C201.098 -90.3521 186.782 -88.3541 194.405 -93.2417C192.104 -94.9482 190.173 -92.6117 187.872 -92.2889C185.071 -91.9201 180.153 -91.5821 177.693 -92.7959C177.633 -92.0127 177.601 -91.0903 177.693 -90.2752C174.178 -94.1336 174.363 -98.5911 167.081 -98.1605C164.372 -97.9915 161.759 -97.1461 158.989 -97.6996C155.411 -98.4373 154.725 -100.22 151.583 -100.558C152.236 -101.358 151.054 -101.051 152.673 -101.865C147.972 -104.478 142.558 -97.8994 144.61 -103.279C142.278 -103.279 139.913 -104.555 137.453 -104.601C132.784 -104.693 133.874 -103.955 129.578 -103.279C129.578 -101.389 131.79 -101.496 131.79 -99.4669C129.983 -99.8975 128.367 -100.175 126.592 -100.282C126.996 -99.7133 128.086 -98.8678 127.682 -97.9303C125.566 -98.33 125.161 -99.9435 123.169 -100.312C123.261 -100.312 117.907 -100.374 117.627 -100.282C114.733 -99.5286 115.234 -96.7312 112.99 -96.7312C113.054 -96.7312 108.853 -100.312 108.541 -101.097C108.169 -102.05 109.755 -105.139 108.541 -106.568C106.642 -108.782 105.087 -106.384 103.127 -106.891C98.7383 -108.029 97.3681 -110.98 97.3681 -105.016C93.9455 -104.985 92.0141 -104.663 88.9355 -105.908C87.8139 -106.369 87.1602 -107.844 85.7579 -108.198C83.084 -108.874 78.2913 -107.614 75.3978 -107.614V-109.305C74.3683 -108.982 72.7206 -107.967 71.7869 -108.874C72.0353 -108.905 76.7327 -111.149 74.5563 -111.703C72.0956 -112.348 70.7291 -108.536 67.491 -109.074C67.9596 -106.215 63.1028 -106.461 60.4894 -106.461C63.2907 -106.722 75.6144 -114.131 75.8947 -115.638C77.0768 -122.216 64.473 -121.647 61.6082 -120.571C62.1691 -121.248 62.6053 -121.386 62.6053 -122.416C60.9546 -122.247 59.3674 -122.754 57.7488 -122.754C58.0007 -123.277 59.3356 -124.875 59.648 -125.136C53.2362 -125.629 52.9877 -123.446 49.0038 -121.432C49.5329 -120.771 49.4084 -120.956 49.5646 -120.248C45.1765 -121.263 44.8354 -118.312 41.1609 -117.912C39.8225 -117.79 37.3972 -119.373 35.4056 -119.142C35.0327 -119.096 30.9214 -116.621 29.0861 -116.176C27.2503 -115.76 25.7269 -115.546 23.4835 -114.777C22.7694 -114.5 18.8781 -113.147 18.4735 -112.517C16.6377 -109.827 21.8674 -111.641 18.6298 -109.305C15.0828 -106.737 8.45416 -110.042 4.84314 -106.891C5.80859 -104.632 12.218 -100.943 8.61041 -100.666C7.58093 -100.589 6.24194 -102.526 5.62067 -102.726C2.85162 -103.694 0.951904 -103.771 -1.7854 -103.187C-0.759399 -102.695 0.547241 -102.803 0.547241 -101.327C-7.70032 -101.849 1.88617 -99.9744 1.51276 -97.3925C0.174377 -99.4365 -3.37268 -98.0993 -4.99121 -100.113C-5.55261 -100.805 -4.89911 -104.279 -5.55267 -105.585C-5.83282 -105.369 -6.11304 -105.292 -6.45416 -105.369C-6.45416 -101.327 -8.88245 -102.956 -9.31586 -100.558C-9.31586 -100.543 -8.63412 -93.8569 -8.47791 -93.611C-6.11304 -89.7991 -6.76648 -93.2416 -3.87305 -92.1351C-0.29071 -90.7366 -0.478638 -88.892 -0.478638 -86.5711C-0.478638 -85.7409 2.32257 -85.3108 2.75897 -85.2491C-1.8493 -82.2518 -0.915527 -93.5801 -7.17114 -88.554C-7.17114 -88.554 -6.95148 -85.5562 -7.4201 -84.8185C-8.28989 -83.4201 -9.22369 -82.8974 -10.4381 -82.2518C-13.8002 -80.3767 -13.7363 -81.1448 -18.0321 -81.4372C-17.0984 -82.7896 -13.6117 -82.5594 -11.8399 -84.05C-10.2209 -85.4641 -9.09927 -87.0629 -9.09927 -89.3686C-11.6521 -89.1535 -12.554 -99.1289 -12.3056 -101.926H-10.8744C-10.1256 -105.585 -16.1968 -106.507 -18.8413 -104.555C-19.1825 -104.279 -23.3862 -97.5918 -23.4785 -97.2847C-22.7614 -99.2675 -22.7297 -92.5348 -23.3545 -93.7491C-22.7932 -92.5809 -21.7037 -92.8728 -20.9256 -91.2745C-20.4287 -90.2292 -18.0643 -90.2752 -18.4972 -88.6461C-19.2465 -85.7869 -22.14 -89.6914 -22.2645 -89.7374C-25.5021 -90.5985 -27.991 -91.7663 -31.1017 -92.7959C-32.7202 -93.3342 -38.5717 -96.332 -39.5055 -96.1777C-43.5816 -95.563 -31.8188 -90.9365 -39.6934 -87.8775C-39.6934 -93.9646 -52.5141 -83.4661 -50.1497 -90.383C-53.5406 -88.4153 -57.3996 -88.3385 -60.8256 -86.0789C-61.4153 -85.6796 -68.7925 -79.0086 -68.2927 -85.7409C-62.6931 -85.5562 -69.2265 -89.276 -72.4001 -89.276C-71.0013 -87.9084 -70.004 -80.9606 -71.4059 -80.1152C-71.0617 -80.2998 -74.7045 -81.1296 -75.7305 -80.9298C-76.5403 -80.776 -78.7802 -78.2705 -80.3675 -78.148C-79.9341 -77.5176 -78.7202 -75.6577 -78.8124 -74.7353C-81.0846 -75.9036 -83.7619 -74.7971 -85.6611 -77.1639C-90.2341 -74.7353 -83.3566 -74.4277 -83.3566 -73.0136C-83.3566 -71.9076 -86.8115 -72.4297 -87.0916 -72.5835C-90.5148 -74.1819 -88.803 -73.7826 -90.3264 -76.2724C-91.6043 -78.4399 -94.3421 -81.1756 -96.3976 -83.8349C-94.5618 -83.4969 -75.1731 -75.9036 -77.474 -84.8185C-78.0349 -86.9552 -83.2933 -88.938 -85.317 -89.6762C-88.4911 -90.8439 -93.2234 -89.9985 -94.6223 -90.8439C-93.0037 -94.1949 -99.54 -93.1187 -101.035 -94.4873C-98.5457 -94.4873 -99.8201 -95.6242 -101.095 -96.2855C-104.301 -97.9607 -102.994 -95.8554 -105.266 -95.8554C-105.018 -96.332 -104.706 -97.4846 -104.582 -97.9915C-105.299 -98.1605 -106.946 -98.1605 -107.631 -97.9915C-107.571 -96.885 -107.787 -96.2854 -107.631 -95.3019C-108.192 -96.67 -108.689 -96.4084 -109.779 -97.3925C-110.184 -94.9943 -111.274 -93.9798 -111.274 -97.0535C-110.898 -97.223 -110.06 -97.0692 -109.687 -97.0692V-98.4833C-110.621 -98.3452 -116.625 -95.1784 -114.448 -97.4997C-119.085 -97.9607 -118.68 -95.4709 -116.22 -94.118C-117.559 -94.6406 -119.333 -94.1949 -120.733 -94.6558C-120.733 -93.3955 -120.516 -93.0575 -121.418 -92.3507C-121.418 -93.9186 -123.722 -95.3479 -125.277 -95.1941C-124.656 -93.0114 -126.74 -89.6296 -127.144 -92.7959C-129.853 -90.1219 -127.333 -92.0279 -128.267 -89.1839C-130.539 -90.0911 -130.01 -89.4606 -130.691 -91.7046C-131.625 -91.3823 -132.154 -90.3982 -133.588 -89.7374C-133.184 -89.0149 -133.244 -89.3534 -133.244 -88.6461C-135.331 -88.6461 -136.575 -87.6777 -137.665 -86.2483C-135.36 -86.9704 -131.969 -89.0918 -129.509 -87.8775C-132.779 -87.1398 -137.601 -81.6523 -138.226 -77.7023C-139.315 -77.6097 -140.963 -76.5492 -141.897 -75.6577H-140.122C-140.373 -73.5059 -145.415 -71.354 -146.97 -71.692C-146.97 -70.8005 -147.126 -71.1694 -146.75 -70.0629C-152.757 -68.8329 -153.506 -65.3899 -154.718 -61.0862C-149.74 -61.2395 -156.493 -58.135 -151.948 -57.7657C-152.044 -56.5367 -152.665 -56.352 -152.509 -55.1838C-147.624 -55.1838 -145.819 -54.6303 -142.55 -58.688C-140.402 -58.3192 -138.783 -50.7567 -136.887 -48.6357C-136.358 -48.021 -138.101 -46.9448 -136.73 -46.453C-133.557 -45.2231 -134.927 -47.4983 -133.588 -47.9901C-131.192 -48.8199 -129.885 -49.6501 -127.83 -50.1419C-127.673 -50.5416 -127.673 -50.8801 -127.83 -51.2489C-129.012 -51.1255 -129.356 -51.1564 -130.038 -51.679C-129.356 -52.7552 -126.491 -56.2903 -126.275 -56.8433C-125.558 -58.6576 -122.849 -60.2251 -126.928 -60.2251C-126.928 -63.1151 -129.449 -65.8204 -126.399 -69.2938C-124.872 -71.0773 -122.042 -71.1694 -120.64 -73.0136C-119.707 -74.2127 -119.674 -77.6714 -117.498 -79.0238C-115.815 -80.0539 -111.959 -78.3013 -111.679 -76.3342C-111.025 -72.0917 -124.904 -69.7244 -118.524 -62.4078C-114.043 -57.2739 -106.2 -63.5143 -100.939 -60.5327C-103.865 -57.5815 -108.068 -58.8727 -111.554 -58.4421C-112.89 -58.2271 -117.715 -56.6591 -117.778 -56.5979C-117.278 -56.4132 -116.905 -56.1674 -116.44 -55.9832C-117.498 -55.9832 -118.212 -55.6143 -119.209 -55.3062C-117.995 -52.1708 -115.691 -55.7985 -114.882 -55.4296C-113.358 -54.692 -113.234 -53.8926 -111.896 -53.0006C-115.691 -48.236 -115.443 -53.8 -117.654 -53.0006C-120.328 -52.0479 -120.143 -46.3301 -120.204 -44.9154C-122.476 -44.9154 -125.401 -46.1454 -123.505 -43.0712C-126.928 -46.5147 -128.824 -42.8253 -132.591 -42.4873C-133.869 -42.3953 -139.344 -45.5615 -139.717 -42.0876C-141.151 -42.1797 -142.55 -42.7024 -143.328 -43.2867C-142.923 -47.0677 -137.448 -41.6879 -138.005 -48.4202C-138.815 -48.0513 -141.492 -47.1295 -141.989 -47.3137C-141.961 -47.9289 -141.555 -49.0349 -141.336 -49.6502C-141.772 -49.466 -142.238 -49.466 -142.642 -49.6502C-142.145 -53.2161 -143.079 -53.8617 -145.881 -51.0334C-147.84 -49.0658 -146.409 -46.9448 -146.502 -45.0389C-146.722 -40.12 -145.259 -42.8253 -149.118 -40.6123C-151.078 -39.4744 -154.501 -38.337 -156.709 -38.337C-153.879 -34.7402 -159.387 -35.109 -161.474 -33.5416C-161.69 -33.3873 -163.402 -29.4833 -164.023 -29.2991C-166.111 -28.6531 -167.385 -30.5286 -168.756 -30.4057C-165.518 -24.9029 -171.93 -28.7456 -173.858 -27.2703C-176.194 -25.4873 -173.237 -26.102 -172.491 -25.0259C-171.401 -23.5196 -170.123 -22.9049 -169.004 -20.6296C-162.716 -8.24084 -177.966 -15.8954 -184.161 -13.313C-182.979 -9.34735 -184.722 -4.70525 -183.725 -0.863022C-182.823 2.58098 -184.005 0.459045 -180.955 2.39485C-179.024 3.62579 -178.029 2.45804 -176.194 4.70244C-175.789 4.23955 -175.849 4.02551 -176.411 4.05685C-173.237 2.94885 -169.285 1.65865 -166.764 -0.648956C-165.738 -1.59972 -165.237 -0.400116 -164.46 -1.47676C-163.994 -2.12334 -165.394 -3.19899 -165.333 -3.26071C-164.957 -3.78336 -164.677 -5.96605 -163.899 -6.8884C-162.873 -8.11787 -158.392 -9.40858 -157.614 -10.0547C-156.68 -10.8232 -158.268 -12.422 -156.585 -13.436C-155.186 -14.2971 -152.634 -12.3598 -151.078 -12.6366C-150.485 -12.6983 -147.56 -16.203 -145.973 -15.9571C-143.828 -15.5878 -141.68 -11.5609 -139.905 -10.1467C-134.551 -6.02727 -125.092 -0.400101 -138.442 -0.400101C-134.863 5.77618 -129.229 -0.648941 -127.705 -4.30602H-129.605C-129.633 -4.70523 -129.573 -5.07457 -129.509 -5.47379C-128.576 -5.16667 -126.211 -4.70525 -125.497 -4.70525C-126.864 -7.3185 -130.691 -10.3309 -134.022 -10.8232C-133.681 -12.8829 -137.135 -15.4654 -138.691 -15.3424C-138.225 -22.2285 -133.741 -16.1109 -130.319 -13.6515C-127.986 -11.9606 -124.936 -10.7924 -123.629 -8.42502C-122.82 -6.94965 -121.698 -3.01483 -120.857 -1.41701C-121.762 -1.69424 -122.01 -1.87646 -122.849 -1.72266C-122.135 0.150452 -121.137 1.04442 -119.862 -0.431946C-118.524 6.33017 -113.98 -0.92276 -111.459 -1.32245C-111.864 -2.03123 -112.392 -2.61513 -113.234 -2.61513C-113.046 -2.18456 -113.046 -1.72264 -113.234 -1.32245C-114.541 -1.32245 -117.278 -5.3513 -116.873 -6.21194C-115.538 -5.47377 -114.789 -5.04372 -113.326 -5.6893C-113.451 -6.05815 -113.731 -6.21194 -114.104 -6.21194C-109.094 -13.4977 -106.325 5.40782 -105.547 5.40782C-104.674 5.40782 -104.862 2.94887 -104.862 2.61235C-102.931 4.30275 -101.376 3.96281 -99.8519 4.17981C-101.439 3.96281 -97.2996 3.13451 -97.3918 3.13451C-95.805 3.07181 -95.0909 5.03946 -92.5063 4.4257C-92.5381 3.78011 -92.5703 3.19475 -92.5063 2.51781C-87.6526 3.50334 -87.2767 5.16193 -89.052 10.265C-89.6446 12.0499 -91.9138 14.9399 -93.4718 15.6134C-95.3681 16.4128 -97.1434 14.5084 -98.9182 15.4307C-96.1491 16.7214 -94.2176 24.928 -91.0756 21.7642C-86.3746 26.6219 -85.2242 33.261 -82.1428 38.3636C-80.1825 41.5622 -76.1674 44.0804 -74.4878 47.7699C-72.2156 52.75 -75.2336 55.7624 -68.8535 55.8854C-65.9918 55.8854 -62.5974 53.181 -59.7678 52.0132C-56.5297 50.7225 -54.9424 49.3691 -52.3583 48.2009C-49.028 46.6961 -47.036 47.3417 -44.735 44.6976C-43.6451 43.5294 -41.4048 40.5169 -39.9742 41.0993C-39.9742 38.0266 -39.9102 37.9042 -37.638 36.9505C-37.8864 35.4736 -40.407 33.8146 -41.5292 32.8922C-43.5207 31.2023 -41.5292 29.4487 -44.3909 32.2471C-44.7033 30.9251 -45.108 28.0351 -46.1658 27.2357C-47.3802 28.712 -47.7531 28.8349 -47.941 31.1705C-52.3583 30.8021 -59.2671 30.9564 -51.144 29.5114C-51.2714 29.0177 -57.4952 27.2954 -57.8041 27.1127C-58.7701 26.4362 -61.7276 23.2092 -61.9761 21.7642C-62.8176 16.7214 -60.357 18.3805 -57.3391 20.4706C-53.6041 22.9922 -52.3296 24.16 -47.941 25.5766C-47.1923 25.822 -45.4204 25.3283 -44.3909 25.5766C-43.6134 25.7907 -43.4284 27.5129 -42.3702 27.9724C-40.407 28.8947 -35.5215 29.3257 -33.2176 29.4173C-27.8987 29.603 -26.4042 29.1401 -22.14 31.5388C-19.8362 32.8295 -19.6194 34.4602 -16.1646 35.1058C-22.2644 35.1058 -15.263 38.2407 -13.8607 38.7006C-11.5593 39.4403 -12.7707 35.6284 -10.3136 39.0406C-9.09915 40.6399 -10.0652 42.73 -9.75275 44.5115C-9.13089 48.0153 -7.8566 50.8137 -6.54645 54.1034C-5.6767 56.3164 -4.08972 63.5723 -1.90979 64.8316C0.391113 66.0939 2.6955 63.8182 3.96991 61.2054C4.8432 59.4518 4.84314 57.4244 5.05981 55.4572C5.18433 54.4119 4.77972 52.5046 5.12384 51.6449C6.27429 48.7236 6.02533 51.5822 8.17352 49.4916C12.3132 45.5568 17.1986 39.5946 21.0259 37.5045C22.4887 36.6732 28.9933 35.3512 29.0861 35.4139C30.3317 36.2103 33.1939 42.5757 33.1939 44.0207C36.9924 44.0207 32.6361 47.1561 35.4056 49.3094C37.2732 50.7539 39.3891 47.6787 39.7303 47.7699C42.6877 48.5693 44.7396 56.2566 44.6791 59.4205C44.6474 61.1138 42.0341 62.8958 43.1846 65.7858C43.8699 67.5076 46.5468 69.1069 47.5122 71.2881C48.6627 73.9327 51.0591 83.43 56.1935 81.0029C54.45 78.0218 54.4501 72.7331 52.6783 70.5519C50.0937 67.5076 47.0758 67.6619 46.3588 63.2328C46.2026 62.2189 45.2083 57.7928 46.8878 56.408C49.5964 54.2263 47.3564 55.8854 50.0015 57.302C52.3024 58.5295 52.0858 58.4697 54.1412 60.9913C54.6063 61.5737 56.2859 62.0362 56.5378 62.405C57.2837 63.6325 56.3176 64.7087 57.4075 66.5852C59.6162 63.5096 62.9784 62.7102 64.7214 60.3428C67.9596 55.9799 65.9358 52.3218 63.2908 48.9376C59.2751 43.7753 58.2174 37.5045 67.491 37.5045C68.0836 40.1456 64.0683 43.0351 65.6234 44.389C69.4219 47.7101 70.2282 37.9953 70.136 38.055C71.7869 36.5821 75.3657 36.4876 77.2332 35.9052C79.9709 35.0426 80.8724 34.4602 83.1768 32.7384C86.3826 30.371 92.2947 25.1769 93.0435 20.9021C93.6009 17.7667 91.9212 19.7025 91.6093 17.5811C91.4243 16.4128 92.5748 16.6617 92.1702 14.5681C91.6728 12.0499 88.1263 8.91452 88.1868 7.09824C88.3107 3.62582 91.8895 4.79358 93.1674 2.94888C94.2861 1.31873 94.2861 1.41275 90.9875 0.213654C89.5251 -0.277649 89.8981 1.90405 88.0018 1.90405C88.5309 -2.18456 83.1133 0.673096 85.5094 -3.1378C85.3567 -2.86104 89.8053 -4.79782 90.0542 -4.92078C94.9109 -6.73462 93.4769 -7.31848 91.4849 -2.27666C92.919 -3.07605 96.7466 -5.07458 98.3652 -4.36726C101.756 -2.86104 99.0793 -2.33836 99.3595 0.427704C104.59 -1.72264 103.002 6.45261 102.442 8.9429C106.177 9.34261 110.409 6.88416 110.316 3.3172C110.252 0.12204 106.145 -0.249268 106.986 -4.70525C107.171 -5.59674 108.822 -4.92076 108.978 -5.35132C109.038 -5.47379 109.567 -8.9173 109.88 -9.317C110.626 -10.3309 111.871 -12.3907 113.271 -13.0059C114.08 -13.3439 117.006 -12.6983 118.5 -13.1288C120.492 -13.6824 121.021 -14.1737 122.576 -15.5266C125.097 -17.6476 128.303 -21.6137 130.014 -24.1647C132.006 -27.0856 131.445 -29.4221 132.784 -32.4345C137.08 -42.3953 135.152 -22.7506 135.152 -20.0149C135.958 -20.8143 136.583 -20.3837 137.296 -21.9826C138.294 -21.0602 137.421 -20.322 139.537 -20.2299C138.947 -24.2265 134.622 -27.7621 140.627 -27.7621C140.783 -27.7621 137.765 -41.3495 137.641 -42.9483H136.767C136.923 -39.6899 135.866 -39.9358 135.866 -36.9229C133.345 -38.3987 133.842 -41.5959 129.237 -42.9483C128.708 -39.6282 127.089 -40.7347 125.69 -42.9483C125.814 -42.3027 125.814 -41.8417 125.69 -41.1962C123.73 -41.4724 125.721 -42.7024 124.259 -43.9319C121.145 -40.8582 124.195 -45.4998 125.345 -46.7601C127.089 -48.6666 128.924 -49.9573 130.823 -52.2938C134.807 -57.1514 138.386 -57.4585 144.393 -57.4585ZM-178.185 -55.4296C-179.212 -55.0608 -180.302 -53.8926 -180.518 -52.9085C-179.584 -53.1544 -176.503 -55.7368 -178.185 -55.4296C-178.062 -55.4296 -178.59 -55.3062 -178.185 -55.4296ZM-175.849 -30.9283C-173.609 -30.9283 -171.93 -32.4654 -170.652 -32.6805C-168.692 -32.9881 -165.922 -32.0657 -164.335 -32.7725C-161.534 -34.0334 -160.632 -36.7387 -161.378 -39.2285C-161.846 -40.8273 -163.06 -38.2758 -163.121 -38.337C-163.87 -39.1056 -163.746 -40.3659 -164.335 -40.8582C-165.333 -41.7188 -166.7 -43.7477 -168.006 -45.2539C-169.998 -47.5595 -170.25 -47.0065 -170.559 -48.8507C-170.747 -50.0802 -165.642 -54.8761 -173.204 -52.6626C-172.583 -53.7388 -172.491 -54.6302 -171.309 -55.3062C-173.797 -57.7657 -174.887 -53.9538 -175.821 -53.2161C-175.974 -53.0932 -181.016 -51.4023 -177.064 -50.7258C-177.408 -49.5884 -178.683 -47.9289 -178.619 -47.2216C-177.312 -47.0678 -175.665 -46.0225 -175.321 -47.4366C-175.633 -43.1638 -173.36 -45.5307 -171.742 -42.0876C-169.906 -38.0911 -173.673 -40.8273 -175.633 -38.46C-174.887 -38.2758 -174.294 -38.337 -173.425 -38.2449C-173.425 -37.0458 -176.411 -36.554 -175.416 -35.4166C-174.792 -34.7098 -171.681 -35.7546 -170.652 -34.771C-171.057 -34.4022 -177.22 -30.9283 -175.849 -30.9283ZM-177.749 -42.1797C-172.831 -42.8866 -185.56 -49.1275 -182.602 -43.2867C-184.939 -42.8562 -188.081 -39.6282 -184.254 -39.8129C-189.234 -32.6805 -182.293 -37.4147 -178.062 -36.4928C-177.905 -38.2141 -177.717 -40.0588 -177.749 -42.1797ZM-59.3311 124.287C-59.3311 120.075 -56.2807 111.406 -61.3229 109.439C-61.3229 110.915 -63.2827 114.358 -64.1843 115.158C-66.0523 116.849 -68.9456 116.14 -70.8449 117.954C-72.3078 119.367 -70.66 123.765 -70.8449 124.932C-71.1891 127.146 -72.1516 127.423 -72.6202 130.19C-73.2098 133.788 -72.3719 139.105 -67.5147 138.06C-62.8459 137.046 -64.3409 135.629 -63.5312 131.512C-63.4707 131.021 -62.2885 126.346 -62.1928 126.255C-61.8198 125.732 -59.3311 124.996 -59.3311 124.287ZM-96.0851 19.9798C-98.2015 14.9997 -99.4155 16.9071 -104.053 16.3531C-110.745 15.5537 -115.911 13.4317 -122.195 12.0186C-122.195 18.0121 -122.071 16.9071 -126.179 16.9668C-125.341 16.9071 -129.789 15.6761 -129.356 15.8623H-132.591C-132.935 15.3078 -133.152 14.7224 -133.244 14.1087C-135.204 13.4631 -141.119 12.5094 -142.333 10.8822C-144.606 7.86922 -139.781 7.3152 -143.889 4.70244C-142.799 3.8085 -142.923 3.68556 -141.431 3.3804C-143.516 -0.126297 -149.242 3.13449 -152.292 3.19475C-155.527 3.25745 -158.981 1.84088 -163.121 3.62582C-165.922 4.79358 -167.822 6.42422 -171.525 6.33018C-176.006 6.27042 -178.402 3.19475 -178.402 8.9429H-181.733C-180.238 14.263 -184.161 10.819 -185.031 12.5726C-186.434 15.3676 -185.965 18.6891 -187.243 20.4706C-188.02 21.5159 -190.946 22.9325 -192.128 24.4054C-193.403 25.9136 -194.93 28.4666 -196.329 30.494C-197.699 32.5244 -203.302 37.6872 -202.521 40.7623C-202.304 41.622 -199.161 40.394 -198.665 41.4393C-198.228 42.2671 -199.286 42.6668 -199.098 43.1581C-198.228 45.4338 -199.691 49.1864 -199.876 51.4906C-200.095 54.289 -200.344 56.6848 -197.202 59.8834C-193.871 63.3553 -190.758 66.2169 -187.023 69.412C-185.748 70.52 -185.126 73.0417 -182.386 73.5927C-179.304 74.1467 -178.9 72.856 -175.974 72.4877C-173.425 72.1791 -171.493 73.2871 -169.75 73.2244C-166.079 73.1014 -166.327 71.7196 -163.341 70.7028C-160.913 69.9063 -155.683 70.1203 -154.284 70.7028C-152.072 71.6878 -152.634 73.2871 -149.367 74.0238C-143.701 75.2547 -144.013 72.4877 -143.889 78.3901C-143.828 81.1572 -144.947 84.6923 -146.534 86.2598C-139.439 88.4728 -134.771 102.799 -135.921 109.624C-137.043 116.509 -141.244 116.786 -137.665 124.073C-135.456 128.622 -134.739 131.326 -133.464 136.306C-132.186 141.472 -128.11 144.976 -126.615 149.65C-125.341 153.645 -127.301 154.908 -125.277 157.089C-119.926 162.869 -105.764 156.044 -101.595 151.618C-99.9763 149.896 -97.2355 146.912 -96.3018 144.853C-95.368 142.826 -96.6142 139.936 -96.0851 138.705C-95.6199 137.723 -92.1017 137.106 -90.98 135.629C-87.962 131.757 -92.5063 130.099 -91.6365 126.041C-90.9512 122.751 -84.7878 121.061 -83.0125 119.461C-78.6274 115.586 -78.3755 111.251 -79.466 105.412C-80.0903 102.122 -83.1688 97.2335 -81.8938 93.2389C-80.2148 87.8591 -73.2416 82.6619 -69.0702 79.0352C-65.9918 76.3598 -62.9416 73.2871 -60.8862 69.6295C-59.4873 67.199 -58.5822 66.9849 -58.241 63.7271C-57.6802 58.5927 -56.8421 59.8202 -61.3229 59.7918C-67.5468 59.7604 -69.3821 62.0964 -73.7102 57.4244C-76.1991 54.6892 -80.2147 52.1357 -82.5791 49.0919C-84.9117 46.1108 -87.3402 39.286 -88.7713 35.7509C-90.9195 30.3397 -92.1656 24.7772 -96.0851 19.9798C-95.8366 20.2884 -96.2412 19.6114 -96.0851 19.9798ZM-321.159 187.338C-322.03 187.155 -321.968 185.802 -322.591 185.802C-322.31 185.802 -324.582 188.383 -324.582 188.355C-324.582 188.751 -320.474 191.89 -320.163 192.041C-320.35 192.318 -320.443 192.627 -320.381 192.935C-327.477 192.935 -321.813 199.111 -322.933 201.664C-322.279 201.573 -321.813 201.573 -321.159 201.664C-321.128 202.278 -321.47 202.618 -322.155 202.678C-321.003 203.877 -321.594 203.172 -320.474 203.446C-320.847 203.323 -315.806 209.688 -314.965 210.211C-310.733 212.792 -306.718 211.533 -302.672 211.224C-302.859 209.934 -307.932 208.489 -308.99 205.999C-309.986 203.6 -312.258 197.393 -308.212 197.792C-308.212 195.271 -303.077 192.441 -303.45 190.628C-303.855 188.478 -308.99 189.768 -307.217 185.493C-306.656 184.143 -303.855 184.879 -303.233 184.143C-302.704 183.466 -303.42 182.358 -302.672 181.558C-303.17 182.112 -300.058 176.764 -300.463 178.732C-299.747 175.228 -303.108 178.823 -302.361 173.628C-297.164 175.687 -296.137 173.811 -296.915 169.048C-292.62 169.171 -287.454 169.325 -285.493 165.204C-283.377 160.838 -287.423 161.823 -288.201 158.012C-283.408 158.625 -281.603 160.287 -277.899 157.026C-276.157 155.49 -274.787 149.311 -272.826 149.588C-273.107 150.45 -273.262 150.541 -273.045 151.341C-267.349 148.542 -268.936 140.581 -265.824 136.923C-263.801 134.524 -261 133.356 -258.137 132.557C-253.594 131.266 -252.348 131.572 -249.796 127.177C-246.778 121.983 -248.022 114.113 -245.595 109.929C-243.821 106.888 -239.931 105.072 -238.904 101.568C-238.188 99.2329 -238.343 99.3867 -238.935 97.2334C-240.242 92.5624 -240.18 95.6346 -243.136 93.33C-246.342 90.8715 -247.649 90.3175 -251.633 89.5813C-253.78 89.1497 -261.374 89.6724 -258.199 88.0418C-259.382 87.2419 -261.28 86.0741 -262.836 85.769C-266.727 85.0293 -265.855 85.8919 -268.594 87.0596C-268.345 86.6913 -267.194 84.1383 -267.162 83.9242C-268.189 83.8013 -269.621 83.3071 -270.617 83.0019C-271.613 82.6933 -271.053 85.215 -273.138 84.9696C-272.733 84.0467 -268.687 79.0352 -272.484 79.0352C-271.831 72.3966 -278.055 72.0561 -282.194 71.0113C-285.555 70.2119 -292.994 66.8306 -292.994 63.1099C-294.892 63.755 -298.284 62.8958 -295.328 61.5738C-297.289 59.0835 -301.365 62.5872 -302.517 62.5588C-306.749 62.405 -308.772 58.8978 -312.818 58.1611C-312.818 60.3144 -314.312 59.8202 -315.588 61.1138C-315.775 61.2965 -315.214 64.2492 -315.37 64.7405C-317.642 62.8958 -317.051 58.961 -314.717 57.5473C-318.451 56.502 -328.908 63.3553 -329.531 67.9984C-329.873 70.5798 -327.134 73.2871 -328.908 76.8535C-329.873 78.8212 -333.95 82.879 -336.098 83.6157C-335.724 86.9367 -337.124 87.5505 -333.67 87.7964C-335.101 90.2548 -338.462 91.7312 -336.533 95.7576C-336.066 96.774 -333.888 96.9885 -332.985 98.2474C-332.114 99.5097 -331.18 101.386 -330.62 102.736C-329.406 105.689 -328.286 110.606 -326.356 112.819C-323.711 115.832 -320.536 116.694 -317.237 119.244C-311.667 123.579 -313.721 132.802 -314.623 139.564C-315.121 143.254 -316.522 146.789 -316.957 150.201C-317.456 154.259 -316.957 158.502 -318.607 162.315C-320.443 166.558 -320.318 169.048 -321.47 173.811C-321.408 173.534 -321.501 176.947 -321.47 176.087C-321.501 176.824 -322.964 177.563 -322.653 178.486C-321.097 183.066 -319.758 176.21 -318.171 176.087C-319.323 179.285 -319.789 181.989 -320.194 185.616C-321.066 184.171 -321.283 184.97 -321.594 182.975C-322.621 183.525 -321.066 186.51 -321.159 187.338ZM-315.619 46.2337C-311.76 45.3741 -306.189 46.0197 -302.33 44.6976C-304.042 42.607 -309.302 43.284 -312.538 42.8529C-314.592 42.607 -318.824 40.2083 -319.167 43.4064C-319.385 45.4339 -317.518 46.6021 -315.619 46.2337C-315.183 46.1421 -315.899 46.2964 -315.619 46.2337ZM-326.014 45.5568C-326.916 44.175 -328.752 43.7121 -330.651 44.0207C-329.499 45.5568 -327.352 46.8788 -326.014 45.5568C-326.201 45.3114 -326.356 45.9251 -326.014 45.5568ZM-322.03 40.6683C-323.711 37.9953 -330.62 36.396 -333.546 35.288C-335.444 34.6145 -339.77 32.8609 -342.135 34.2148C-344.749 35.7195 -344.096 35.9365 -341.295 37.2556C-340.081 37.8728 -339.365 35.9963 -338.183 36.2103C-336.564 36.4592 -335.537 37.841 -334.665 38.1496C-330.091 39.7773 -327.228 40.6683 -322.03 40.6683ZM-215.128 -77.9325C-213.104 -78.2553 -212.387 -78.2092 -211.826 -76.1804C-213.353 -76.4571 -214.723 -76.4571 -216.247 -76.1804C-216.186 -75.7503 -216.091 -75.2889 -216.03 -74.8583C-211.517 -75.596 -215.004 -73.0753 -212.7 -72.2456C-212.202 -72.0917 -207.004 -71.5691 -206.724 -71.5995C-202.74 -71.7841 -202.396 -72.6144 -198.974 -74.4277C-196.08 -75.9957 -194.805 -73.813 -193.9 -76.8411C-193.527 -78.0402 -195.643 -78.0711 -196.112 -78.148C-195.146 -83.589 -202.648 -78.7471 -206.351 -79.2237C-206.909 -79.2697 -210.211 -79.7306 -209.618 -79.6694C-211.205 -79.8075 -209.493 -82.1289 -211.173 -80.1152C-215.22 -81.4524 -216.215 -77.7174 -215.128 -77.9325C-214.816 -77.9785 -215.437 -77.8708 -215.128 -77.9325ZM-283.315 -34.2175C-284.186 -33.6645 -289.321 -25.4873 -288.948 -24.8725C-288.17 -23.5809 -285.431 -24.8103 -283.937 -24.3803C-281.665 -23.7038 -281.167 -22.7815 -278.895 -21.7366C-275.441 -26.9014 -278.677 -28.6839 -283.75 -30.2827C-283.781 -30.1906 -280.669 -35.6934 -283.315 -34.2175C-283.035 -34.3405 -283.595 -34.0334 -283.315 -34.2175ZM-295.266 -29.3912C-297.475 -30.0981 -298.44 -31.0204 -300.588 -30.7133C-298.564 -29.5142 -297.257 -26.5629 -295.266 -29.3912C-295.359 -29.2374 -295.577 -29.4833 -295.266 -29.3912ZM-232.804 -88.1851C-232.182 -88.4153 -231.497 -87.5239 -230.998 -87.3857C-227.077 -86.1406 -227.077 -87.6164 -223.872 -88.8611C-221.009 -89.9524 -213.914 -91.4743 -212.916 -94.118C-216.775 -91.1364 -225.864 -98.0993 -216.186 -97.6996C-216.591 -97.7148 -211.858 -92.7959 -210.768 -97.0535C-210.364 -98.6219 -214.318 -102.403 -215.561 -103.079C-214.876 -103.678 -210.52 -100.543 -211.826 -104.601C-212.451 -106.507 -213.569 -106.538 -216.122 -105.692C-215.625 -106.461 -215.128 -106.399 -214.816 -107.106C-215.281 -107.245 -215.718 -107.429 -216.122 -107.675C-214.723 -107.691 -210.708 -105.754 -208.84 -106.999C-204.544 -109.827 -211.485 -108.813 -211.485 -110.181C-211.485 -110.519 -204.949 -110.826 -204.512 -111.595C-205.883 -112.932 -209.493 -115.237 -205.169 -115.591C-205.073 -119.127 -210.459 -119.111 -209.834 -121.109C-209.586 -121.924 -206.973 -122.232 -206.287 -121.985C-203.454 -120.91 -205.791 -120.679 -204.512 -118.158C-203.735 -122.693 -201.963 -123.784 -207.502 -123.784C-205.975 -125.459 -207.438 -124.245 -204.857 -125.475C-206.412 -127.826 -210.239 -125.567 -210.271 -125.582C-214.223 -128.733 -200.28 -137.264 -198.974 -138.894C-200.749 -138.786 -202.46 -139.093 -204.203 -139.14C-200.593 -139.877 -198.537 -139.77 -195.426 -141.768C-194.586 -142.306 -190.105 -141.753 -192.128 -144.704C-192.47 -145.226 -197.106 -144.981 -197.543 -144.934C-200.749 -144.55 -203.735 -143.997 -206.412 -143.305C-208.094 -142.829 -215.032 -139.201 -216.03 -139.37C-212.046 -144.304 -209.866 -145.042 -217.12 -146.103C-217.12 -143.244 -219.204 -143.536 -222.005 -143.075C-221.538 -145.395 -219.919 -144.473 -218.238 -145.257C-222.347 -148.27 -229.878 -143.597 -234.391 -144.289C-233.177 -147.87 -214.723 -148.162 -210.488 -148.639V-149.638C-214.723 -149.653 -216.619 -150.283 -219.888 -150.837C-224.806 -151.636 -229.599 -150.499 -234.391 -150.99C-230.874 -153.373 -223.716 -152.313 -218.675 -152.313C-219.236 -156.186 -241.362 -154.587 -244.226 -153.68C-247.275 -152.681 -244.537 -151.682 -248.365 -151.267C-250.606 -151.021 -252.473 -152.327 -254.776 -152.42C-256.892 -152.512 -261.094 -152.097 -263.459 -151.206C-262.743 -149.807 -261.063 -150.406 -261.063 -148.424C-261.965 -149.115 -265.948 -150.76 -264.673 -148.331C-264.984 -148.931 -257.639 -144.642 -259.724 -144.642C-264.392 -144.642 -267.909 -148.347 -272.858 -148.347C-272.858 -147.301 -269.808 -145.503 -269.372 -143.935C-272.329 -144.765 -274.321 -147.424 -277.495 -147.717C-276.686 -146.134 -276.437 -142.291 -279.051 -143.827C-279.051 -143.843 -277.806 -146.994 -279.549 -147.932C-281.634 -149.1 -288.263 -145.057 -289.663 -145.749C-288.138 -145.165 -285.555 -144.351 -284.373 -143.075C-286.489 -143.09 -288.263 -144.52 -290.473 -144.781C-291.904 -144.981 -291.531 -146.103 -293.429 -145.211C-295.266 -144.366 -293.803 -142.998 -294.301 -142.721C-296.043 -141.722 -299.653 -141.322 -302.952 -139.586C-304.26 -138.894 -307.434 -138.955 -307.247 -136.726C-305.349 -136.235 -304.384 -136.726 -302.61 -136.726C-301.334 -136.726 -302.672 -132.623 -302.921 -132.392C-303.513 -131.884 -306.282 -132.023 -307.154 -131.807C-309.426 -131.224 -313.503 -131.47 -315.806 -130.117C-323.306 -125.767 -309.457 -125.398 -305.38 -125.398C-306.189 -122.062 -314.561 -124.522 -314.561 -122.616C-314.561 -121.678 -310.92 -120.663 -310.141 -120.494C-310.764 -120.494 -310.827 -120.494 -311.013 -120.049C-309.893 -119.157 -307.745 -117.313 -306.096 -117.912C-306.22 -118.143 -306.936 -118.788 -306.562 -119.019C-304.073 -120.541 -293.367 -119.373 -290.41 -117.498C-286.146 -114.792 -282.878 -109.259 -282.474 -104.171H-281.416C-285.649 -96.67 -275.472 -102.834 -272.577 -96.0699C-275.316 -95.9935 -277.899 -97.8838 -280.42 -96.839C-279.798 -94.9791 -282.07 -91.9509 -278.211 -91.8588C-274.85 -91.7815 -273.76 -94.1488 -277.682 -94.7484C-272.11 -95.4096 -273.449 -93.2725 -271.893 -89.3989C-274.382 -89.5224 -276.344 -89.0918 -276.281 -86.6784C-281.821 -87.3857 -276.001 -80.2381 -275.658 -79.0855C-275.783 -79.3927 -274.009 -79.8384 -273.667 -79.1473C-273.418 -78.5629 -275.472 -77.8864 -274.912 -77.379C-275.783 -78.1789 -273.916 -74.3053 -274.133 -74.8583C-274.165 -74.9812 -271.986 -76.1191 -271.582 -76.0883C-273.293 -72.6448 -271.582 -66.8344 -267.816 -64.0375C-266.135 -62.7771 -257.857 -59.6104 -256.519 -60.348C-254.682 -61.3321 -255.18 -65.0823 -254.433 -66.7731C-253.967 -67.7876 -255.554 -68.0952 -254.931 -69.2938C-254.62 -69.9399 -252.971 -69.5094 -252.442 -70.4929C-250.201 -74.5507 -251.57 -78.4243 -245.968 -78.9009C-246.124 -81.545 -245.844 -79.6542 -244.412 -80.5457C-244.755 -73.6592 -232.866 -88.1699 -232.804 -88.1851ZM-353.587 -121.985C-351.223 -118.389 -340.579 -119.695 -336.657 -120.341C-335.599 -117.712 -329.313 -119.342 -329.562 -122.754C-330.153 -122.477 -330.744 -122.232 -331.335 -121.985C-331.522 -122.524 -331.709 -123.077 -331.896 -123.615C-329.375 -124.076 -329.499 -124.722 -330.122 -126.904C-326.947 -126.044 -324.271 -126.505 -326.481 -129.395C-326.823 -129.84 -323.151 -129.502 -323.151 -129.948C-323.151 -132.976 -328.784 -131.992 -330.215 -130.732C-330.371 -131.085 -330.526 -131.454 -330.651 -131.807C-327.041 -134.313 -323.12 -130.84 -319.727 -133.898C-320.381 -134.375 -321.034 -134.836 -321.688 -135.297C-319.416 -134.697 -317.238 -134.206 -314.717 -135.204C-315.806 -136.035 -315.65 -136.68 -317.051 -137.28C-311.822 -136.035 -305.66 -141.676 -300.805 -142.952C-302.361 -144.489 -306.531 -142.998 -309.208 -143.305C-307.03 -146.087 -294.923 -143.397 -294.145 -147.24C-293.647 -149.853 -304.664 -150.314 -307.31 -149.638C-308.337 -150.652 -312.538 -151.774 -315.183 -152.051C-316.21 -148.408 -328.099 -153.726 -327.228 -149.515C-330.558 -150.744 -337.903 -151.436 -340.423 -147.886C-337.622 -148.039 -334.572 -147.471 -333.203 -145.257C-336.004 -145.979 -339.738 -147.732 -342.166 -148.208C-344.718 -148.7 -346.803 -147.363 -347.519 -147.271C-350.196 -146.902 -355.549 -145.503 -358.785 -144.827C-358.817 -144.504 -358.847 -144.166 -358.879 -143.827C-356.14 -142.982 -355.953 -141.415 -352.903 -140.508C-348.546 -139.185 -348.391 -141.491 -344.625 -141.983C-352.187 -137.618 -340.454 -139.124 -338.4 -139.631C-334.168 -140.661 -331.242 -143.09 -326.792 -142.952C-328.566 -142.767 -330.277 -141.983 -331.678 -140.784C-330.06 -141.061 -328.69 -140.538 -327.134 -140.553C-329.375 -138.909 -336.502 -138.371 -339.738 -138.171V-137.08C-337.591 -136.189 -336.315 -134.621 -333.763 -134.667C-337.529 -133.652 -343.162 -137.31 -347.395 -137.833C-347.053 -134.267 -340.61 -131.408 -336.969 -131.592C-337.809 -130.624 -338.183 -129.902 -338.867 -129.102C-345.185 -135.22 -354.646 -125.721 -342.944 -127.781C-343.567 -127.443 -344.189 -127.119 -344.842 -126.797C-343.473 -124.583 -340.952 -125.306 -339.085 -127.227C-341.232 -121.571 -347.581 -126.935 -351.471 -126.443C-349.853 -123.969 -351.378 -122.954 -353.587 -121.985ZM-352.592 -129.102C-351.969 -129.84 -350.849 -129.379 -351.16 -131.393C-344.096 -130.332 -345.745 -134.636 -350.134 -137.356C-349.884 -137.187 -364.418 -144.412 -364.076 -142.306C-363.049 -142.091 -362.115 -142.829 -361.866 -141.537C-361.835 -141.353 -365.757 -140.861 -366.192 -140.892C-365.289 -140.292 -365.01 -139.401 -364.636 -139.032C-365.694 -139.201 -366.628 -138.863 -367.623 -138.924C-367.966 -138.171 -368.371 -136.511 -368.402 -135.527C-365.757 -132.899 -361.866 -135.143 -359.003 -132.792C-360.715 -132.684 -362.457 -131.838 -364.076 -131.592C-360.808 -128.703 -356.451 -127.612 -352.592 -129.102ZM-358.349 -125.367C-358.66 -124.86 -359.003 -124.353 -359.345 -123.83C-357.416 -123.261 -356.046 -123.384 -354.366 -124.168C-355.393 -126.09 -356.42 -125.736 -358.349 -125.367ZM-356.575 -112.149C-354.397 -112.594 -329.935 -110.611 -333.546 -116.176C-335.692 -119.526 -345.34 -115.929 -348.297 -116.007C-354.49 -116.145 -355.33 -122.477 -360.87 -120.879C-358.817 -117.39 -360.964 -113.655 -356.575 -112.149ZM-371.95 -111.703H-370.394C-371.078 -113.347 -371.078 -112.041 -371.95 -111.703ZM-368.526 -114.439C-367.375 -113.439 -361.368 -110.688 -361.991 -114.546C-362.489 -117.697 -367.5 -116.191 -368.526 -114.439ZM-363.08 -119.142C-360.622 -121.678 -364.232 -123.476 -366.846 -123.077C-372.23 -122.232 -365.57 -119.111 -363.08 -119.142ZM-367.623 -124.384C-365.632 -124.414 -363.702 -124.66 -361.773 -125.136V-126.228C-364.232 -126.566 -366.877 -126.766 -367.623 -124.384ZM-367.188 -127.119C-361.649 -128.457 -370.891 -130.932 -372.603 -130.394C-371.856 -127.796 -370.051 -126.213 -367.188 -127.119ZM-373.381 -135.297C-374.191 -136.818 -374.751 -137.649 -376.805 -137.28V-135.973C-375.311 -135.343 -374.751 -135.051 -373.381 -135.297ZM-374.813 -125.921C-373.195 -131.393 -384.118 -134.005 -388.227 -132.484C-386.639 -131.838 -385.83 -130.608 -384.679 -129.625H-386.546C-384.927 -127.412 -377.956 -127.104 -374.813 -125.921ZM-379.014 -125.69C-380.415 -126.228 -380.85 -127.027 -382.562 -126.566C-381.909 -124.691 -380.819 -125.306 -379.014 -125.69ZM-380.042 -116.176C-377.769 -117.282 -376.4 -116.421 -375.934 -113.885C-372.977 -114.008 -370.767 -115.023 -371.11 -118.143C-371.514 -121.571 -375 -120.126 -378.143 -121.325C-377.054 -120.571 -375.871 -119.434 -375.249 -118.266C-375.373 -118.465 -379.668 -120.11 -380.477 -120.218C-380.259 -119.296 -380.228 -118.435 -379.917 -117.498C-381.971 -119.05 -382.873 -121.586 -385.768 -121.878C-386.11 -118.573 -383.06 -116.913 -380.042 -116.176ZM-386.452 -115.299C-386.203 -115.13 -384.025 -112.656 -384.025 -115.207C-384.025 -116.652 -386.141 -115.299 -386.452 -115.299ZM-385.674 -123.507C-386.484 -124.799 -387.448 -125.736 -388.88 -126.336C-388.756 -124.153 -387.666 -122.923 -385.674 -123.507ZM-328.006 -84.265C-326.418 -83.8046 -322.03 -84.3576 -323.586 -86.8322C-324.956 -89.0301 -329.904 -87.3705 -328.006 -84.265ZM-363.765 -102.757C-363.111 -103.925 -362.022 -103.494 -362.084 -105.262C-359.003 -104.171 -357.727 -106.876 -356.109 -109.074C-358.381 -109.904 -363.173 -111.472 -365.196 -110.042C-367.001 -108.751 -367.78 -101.634 -363.765 -102.757ZM-373.506 -99.3596C-368.402 -99.3596 -367.375 -103.91 -372.292 -106.123C-368.557 -107.307 -371.483 -109.551 -373.599 -110.227C-373.972 -110.334 -376.96 -108.736 -378.703 -109.074C-375.591 -105.862 -377.987 -103.817 -381.442 -105.692C-381.286 -103.494 -375.56 -100.42 -373.506 -99.3596ZM-385.893 -106.246C-384.959 -109.243 -388.818 -109.842 -390.654 -108.198C-388.911 -106.584 -387.698 -105.493 -385.893 -106.246ZM-393.206 -108.751C-393.019 -108.567 -391.805 -107.183 -393.206 -108.751V-108.751ZM-403.943 -128.641H-396.069C-397.439 -131.546 -401.795 -130.701 -403.943 -128.641ZM-401.702 -123.83C-399.493 -123.845 -396.691 -124.091 -398.621 -126.228C-397.688 -126.643 -397.345 -126.259 -396.723 -127.319C-399.306 -127.565 -401.858 -127.457 -404.037 -126.028C-403.601 -124.553 -402.823 -124.353 -401.702 -123.83ZM-405.593 -125.797C-406.277 -127.211 -406.464 -128.149 -408.58 -127.781C-408.082 -125.982 -407.149 -126.151 -405.593 -125.797ZM-407.802 -120.341C-410.946 -119.434 -414.088 -116.237 -411.879 -114.485C-409.918 -112.917 -402.729 -114.531 -400.271 -114.315C-401.111 -113.347 -406.277 -114.285 -405.935 -112.517C-405.468 -110.472 -401.609 -111.748 -400.333 -111.979C-397.625 -112.471 -387.479 -113.777 -388.227 -117.498C-387.946 -116.068 -394.886 -121.279 -394.295 -121.109C-397.532 -122.047 -398.746 -120.187 -397.065 -117.282C-396.442 -117.036 -395.447 -117.421 -395.229 -116.667C-394.918 -115.483 -406.153 -119.772 -407.802 -120.341ZM-407.149 -122.416C-406.433 -122.108 -406.215 -120.956 -404.472 -121.325C-404.503 -121.678 -404.565 -122.062 -404.596 -122.416C-405.437 -122.201 -406.277 -122.201 -407.149 -122.416ZM-415.987 -117.712C-416.361 -117.282 -416.734 -116.836 -417.107 -116.406C-414.68 -116.437 -415.147 -115.991 -413.871 -118.266C-414.587 -118.081 -415.271 -117.897 -415.987 -117.712ZM-412.439 -120.464C-410.603 -121.094 -409.638 -122.524 -409.358 -124.599C-416.05 -126.213 -418.197 -120.141 -424.297 -119.48C-421.434 -115.176 -417.138 -119.08 -414.556 -121.432C-413.902 -119.526 -413.155 -120.879 -412.439 -120.464ZM-410.914 -91.9358C-406.122 -92.3193 -405.997 -89.8447 -402.263 -88.8611C-398.559 -87.8623 -395.727 -90.4442 -392.428 -91.059C-390.436 -91.4131 -377.303 -89.2917 -381.909 -92.9037C-380.073 -92.8728 -379.481 -93.8412 -378.361 -94.3335C-382.438 -97.1001 -384.118 -97.0844 -386.173 -100.927C-386.951 -102.418 -390.405 -109.658 -393.206 -106.215C-394.482 -104.601 -389.783 -100.835 -393.299 -101.097C-395.073 -101.25 -394.949 -105.939 -398.279 -106.123C-397.874 -105.447 -397.563 -104.647 -397.19 -103.94C-398.559 -103.387 -399.244 -103.172 -400.706 -102.849C-400.364 -103.464 -400.208 -104.355 -399.959 -105.016C-402.418 -105.939 -404.752 -105.477 -406.153 -104.601C-405.063 -108.689 -408.985 -106.737 -411.008 -105.862C-414.649 -104.263 -414.773 -103.464 -416.423 -100.666C-413.995 -99.729 -411.381 -101.266 -409.141 -99.5747C-410.946 -99.39 -412.657 -98.7449 -413.995 -97.6996C-411.537 -96.3932 -403.569 -98.3761 -402.263 -96.1777C-401.795 -95.3631 -411.008 -94.9482 -412.439 -94.118C-411.941 -93.3803 -411.412 -92.6578 -410.914 -91.9358ZM-392.428 -87.662C-390.436 -88.1851 -389.191 -88.6 -388.756 -90.2752C-390.81 -89.9064 -392.864 -89.1687 -394.638 -88.093C-393.891 -87.9544 -393.144 -87.8006 -392.428 -87.662ZM-423.301 -99.4669C-419.38 -98.883 -417.792 -104.048 -414.4 -105.769C-408.892 -108.567 -407.553 -109.397 -414.618 -110.826C-416.423 -111.195 -425.541 -113.316 -427.44 -111.748C-428.498 -110.873 -428.81 -104.432 -431.144 -101.865C-428.592 -101.711 -426.195 -100.343 -425.168 -97.9303C-424.546 -98.4373 -423.924 -98.9599 -423.301 -99.4669ZM-515.484 -59.8871C-520.152 -59.4879 -517.787 -62.8692 -515.484 -59.8871V-59.8871ZM-478.293 -62.2848C-477.764 -65.7587 -473.065 -61.4854 -470.637 -60.7786C-467.494 -59.8563 -464.506 -60.5327 -461.456 -59.5491C-456.072 -57.8274 -452.368 -52.9702 -446.953 -52.0479C-446.455 -50.9413 -446.051 -49.8343 -445.21 -48.9737C-444.931 -48.6666 -442.597 -47.6213 -442.316 -47.1295C-440.449 -44.3624 -439.36 -41.6571 -437.741 -39.5053C-434.879 -35.6934 -433.789 -35.3549 -429.712 -32.9572C-426.787 -31.2354 -423.301 -28.3151 -423.737 -24.2573C-427.036 -28.2538 -430.49 -33.7566 -436.123 -33.111C-433.478 -29.9756 -429.556 -28.8686 -427.876 -24.9338C-426.164 -20.8755 -428.373 -16.9407 -428.373 -13.5594C-428.436 -7.25725 -425.199 1.53572 -420.843 6.23859C-418.322 8.97429 -414.431 9.09723 -412.128 12.6323C-410.261 15.4307 -408.673 18.9972 -406.93 21.8872C-406.339 22.8095 -407.647 23.2695 -406.308 25.2053C-405.499 26.373 -403.258 27.4184 -402.169 28.5263C-401.422 29.263 -397.781 33.5065 -397.501 35.1058C-394.078 31.6618 -407.429 19.6114 -407.802 14.6627C-404.068 14.1998 -399.804 22.6239 -397.065 25.5452C-393.548 29.2631 -390.374 34.3059 -386.764 38.3636C-391.992 41.8674 -371.234 49.4916 -367.842 49.9829C-366.815 50.1372 -365.663 48.8778 -363.765 49.4318C-361.586 50.0461 -360.622 52.3219 -358.879 53.3353C-357.136 54.412 -351.44 55.3343 -351.253 55.0889C-348.235 57.179 -346.71 61.2652 -345.123 62.7729C-342.82 64.8635 -337.591 66.4623 -334.323 67.8759C-335.226 62.3418 -329.095 67.3846 -328.846 65.5399C-328.348 61.9137 -336.533 64.1865 -338.805 62.7102C-344.282 59.0835 -338.432 55.0257 -341.232 50.9998C-343.629 47.5872 -349.728 50.291 -352.685 49.0008C-350.071 46.1735 -346.181 37.1959 -351.814 37.5324C-356.918 37.8728 -354.428 41.3766 -357.571 43.8351C-360.465 46.1108 -365.134 44.6344 -367.406 42.6986C-372.386 38.3636 -372.199 26.4362 -369.211 22.0699C-365.103 16.1077 -358.567 21.8872 -354.024 20.4706C-355.113 16.7214 -350.818 17.2754 -348.142 17.4581C-348.39 17.4297 -342.042 18.6293 -342.851 18.0748C-340.859 19.4571 -337.622 29.7573 -335.537 29.5717C-333.017 29.3576 -337.467 15.6761 -334.074 11.8329C-331.896 9.34262 -327.321 8.72885 -326.014 5.77615C-324.894 3.25745 -326.511 2.02702 -327.228 -1.10889C-325.36 -0.617584 -326.325 -2.12332 -324.364 -0.126282C-323.648 -1.66238 -322.092 -5.75053 -320.972 -6.82669C-319.572 -8.05666 -315.962 -8.30255 -313.627 -8.94815C-317.02 -15.2807 -304.135 -19.8307 -299.342 -18.7237C-299.996 -18.8467 -303.979 -17.3096 -304.54 -16.203C-306.22 -12.8212 -301.552 -15.7112 -301.396 -15.7421C-297.413 -16.203 -292.931 -19.216 -291.718 -22.7202C-294.892 -21.2444 -295.794 -18.7237 -299.685 -20.7531C-304.851 -23.5197 -299.872 -25.9791 -301.054 -27.8238C-304.322 -32.8034 -312.538 -23.7655 -315.961 -21.6137C-315.059 -23.2733 -313.876 -24.7183 -312.413 -25.9174C-313.254 -26.102 -314.125 -26.3479 -314.965 -26.5629C-310.64 -25.6097 -308.15 -30.9592 -304.447 -32.0045C-301.987 -32.7113 -298.564 -31.8198 -296.075 -32.0045C-292.184 -32.3733 -292.589 -32.8034 -289.29 -34.2175C-286.271 -35.4475 -281.479 -35.9084 -282.91 -39.7208C-284.373 -43.6247 -289.508 -40.8582 -292.589 -40.5506C-291.126 -43.01 -288.138 -42.4873 -285.866 -44.3624C-289.756 -44.9772 -293.274 -46.453 -295.483 -49.8343C-293.087 -51.2793 -299.902 -58.5347 -301.116 -61.2087C-303.077 -59.0569 -303.077 -55.5835 -306.22 -54.8761C-309.271 -54.2306 -308.865 -57.366 -312.289 -56.4745C-310.141 -63.7911 -316.117 -66.3122 -321.875 -67.7567C-328.41 -69.4476 -332.767 -66.1584 -328.13 -59.457H-329.686C-330.184 -58.3192 -329.842 -57.6123 -330.558 -56.3824C-324.427 -53.8617 -325.827 -44.67 -332.892 -44.9154C-330.868 -42.7641 -329.064 -34.7402 -333.546 -34.3405C-337.903 -34.0334 -338.929 -42.3953 -338.525 -45.5615C-343.566 -46.3913 -346.616 -47.1295 -350.974 -49.3425C-352.903 -50.2957 -355.175 -51.0026 -356.887 -51.679C-358.411 -52.3246 -358.785 -50.9413 -360.092 -51.7407C-361.088 -52.3246 -361.244 -54.5073 -361.898 -55.3062C-364.138 -58.0429 -365.289 -56.4745 -364.854 -60.9324C-364.698 -62.7771 -362.831 -65.6975 -361.493 -67.0499C-360.061 -68.4641 -356.7 -68.8638 -357.042 -70.9235C-357.292 -72.2764 -362.769 -73.0445 -363.858 -73.4442C-360.995 -73.1679 -355.673 -70.5238 -354.895 -74.0898C-351.534 -72.0917 -349.947 -74.3665 -349.044 -77.1639C-352.094 -76.9641 -354.397 -78.4399 -357.011 -79.6694C-355.02 -79.593 -343.567 -76.8411 -348.266 -81.7595C-343.162 -82.144 -346.648 -74.0898 -348.92 -73.2291C-347.053 -71.2615 -346.337 -70.7697 -343.505 -70.8005C-343.66 -70.8005 -340.89 -72.0917 -340.081 -72.2456C-339.085 -72.3989 -337.996 -71.2306 -337.186 -71.354C-330.838 -72.4297 -343.318 -76.7642 -344.376 -79.0238C-341.513 -79.1316 -343.256 -79.0855 -342.073 -80.5457C-337.716 -80.868 -335.724 -84.5114 -338.649 -88.093C-332.705 -89.0918 -340.05 -92.9193 -342.166 -93.8877C-338.525 -94.4412 -334.635 -92.7347 -330.775 -94.118C-331.367 -94.6558 -331.958 -95.1941 -332.549 -95.7628C-328.504 -94.5946 -325.703 -92.166 -322.155 -89.5375C-320.661 -88.4462 -317.891 -86.771 -317.798 -84.5574C-317.673 -81.5759 -323.369 -81.6983 -320.816 -77.9325C-322.933 -77.4559 -330.464 -79.1007 -330.122 -75.4118C-329.779 -71.815 -324.271 -75.7503 -322.871 -75.596C-318.42 -75.043 -318.078 -71.9997 -315.245 -69.6935C-312.445 -67.4805 -307.994 -67.7876 -304.664 -66.0046C-304.54 -68.7717 -308.835 -70.155 -310.421 -72.5835C-307.496 -71.1694 -304.571 -69.7244 -301.801 -68.0952C-301.428 -68.7717 -300.836 -70.9852 -300.588 -71.815C-303.295 -74.3665 -306.438 -76.6721 -309.084 -80.1152C-307.06 -83.0355 -306.282 -81.0067 -303.918 -79.7772C-300.121 -77.7943 -301.77 -76.6721 -298.751 -77.4867C-298.969 -77.4407 -295.016 -80.5766 -295.048 -80.5457C-293.772 -82.8974 -293.554 -81.1448 -295.266 -83.2814C-296.977 -85.4489 -313.876 -90.0754 -305.442 -91.8123C-306.282 -92.043 -307.123 -92.2581 -307.994 -92.4736C-307.278 -92.9963 -307.434 -93.0575 -306.438 -93.4572C-307.745 -93.9798 -308.243 -94.9791 -309.862 -95.3019C-309.613 -95.7168 -309.364 -96.1008 -309.084 -96.5157C-312.196 -97.1613 -313.658 -97.8534 -316.491 -98.5911C-315.993 -98.9139 -315.464 -99.2524 -314.965 -99.5747C-320.567 -99.7133 -320.91 -102.849 -324.8 -104.063C-327.787 -104.985 -333.546 -101.681 -334.822 -102.357C-336.782 -103.371 -334.323 -104.417 -335.599 -106.23C-337.778 -109.351 -337.467 -108.951 -341.014 -108.306C-346.367 -107.322 -346.088 -103.079 -343.38 -99.5747C-348.982 -98.8522 -348.204 -107.122 -344.189 -109.074C-348.453 -109.243 -352.436 -108.782 -354.148 -104.294C-356.451 -98.1605 -351.845 -100.943 -349.604 -97.6996C-351.223 -98.0993 -352.187 -97.438 -353.681 -97.4997C-352.312 -95.563 -346.15 -94.9174 -343.505 -94.118C-345.123 -93.4728 -345.963 -82.7284 -350.258 -84.9263C-352.187 -85.9099 -350.196 -88.9076 -350.258 -88.9688C-351.969 -90.8596 -353.525 -90.1219 -354.117 -90.4442C-354.833 -90.8439 -358.1 -91.8892 -359.376 -93.78C-361.151 -96.3624 -361.617 -103.494 -367.032 -99.7593C-372.137 -96.2546 -361.555 -89.9373 -367.53 -91.1667C-366.628 -88.7078 -364.76 -88.8302 -362.644 -90.721C-362.707 -86.9703 -367.686 -88.2464 -366.192 -83.9427C-368.682 -85.6179 -368.091 -84.9263 -367.966 -87.4469C-370.3 -88.0774 -368.402 -87.5547 -369.615 -89.3068H-368.184C-368.059 -91.7511 -369.709 -93.2416 -372.167 -93.6722C-372.79 -93.0575 -374.253 -91.49 -374.813 -90.8439C-373.661 -90.3982 -372.759 -89.2147 -371.607 -88.7538C-374.253 -84.0348 -379.387 -86.1714 -383.776 -87.1707C-386.639 -87.8163 -386.982 -88.9223 -389.751 -87.7854C-393.829 -86.0789 -391.93 -85.8178 -392.521 -81.7595C-394.326 -88.1234 -402.854 -85.9868 -408.02 -86.4634C-407.584 -86.7093 -407.087 -87.8006 -405.593 -88.3081C-408.144 -90.3521 -416.734 -92.765 -419.753 -93.3494C-423.518 -94.0567 -427.191 -90.2292 -428.592 -94.7484C-429.681 -91.1055 -430.459 -93.4111 -432.202 -93.5032C-432.762 -93.5341 -433.385 -95.9779 -434.692 -96.1317C-436.434 -96.332 -435.345 -95.0403 -436.31 -94.8561C-438.239 -94.4256 -443.562 -91.5821 -445.864 -90.2752C-443.841 -92.9037 -440.542 -92.5348 -438.582 -94.8713C-442.316 -94.8561 -446.736 -92.8424 -450.47 -92.0739C-456.757 -90.7827 -459.278 -93.3494 -465.688 -94.0567C-470.512 -94.5794 -474.932 -95.563 -479.943 -95.9627C-485.233 -96.3932 -487.972 -98.2531 -493.45 -97.607C-493.263 -98.0067 -493.076 -98.4064 -492.889 -98.8061C-496.251 -99.4209 -500.794 -97.2999 -503.782 -96.4084C-507.89 -95.1941 -508.17 -92.7347 -511.033 -90.9977C-515.11 -88.554 -518.005 -91.1515 -514.737 -86.8939C-512.683 -84.2038 -508.233 -83.8349 -506.738 -80.3454C-509.073 -79.5773 -511.594 -79.7003 -511.718 -82.2979C-514.363 -80.438 -517.351 -81.0992 -519.561 -78.486C-516.698 -77.3329 -516.729 -75.0121 -514.27 -74.3974C-511.438 -73.6901 -507.704 -75.596 -505.058 -75.8424C-504.685 -67.8493 -514.083 -73.5059 -515.453 -66.4352C-515.795 -64.5292 -511.345 -56.5367 -508.481 -61.2087C-506.925 -59.7333 -506.489 -58.0121 -507.174 -55.9832C-504.373 -56.5367 -501.23 -55.5835 -499.861 -57.2739C-498.989 -57.2739 -497.838 -57.028 -496.655 -57.0588C-498.74 -47.898 -509.291 -49.4043 -514.239 -43.8089C-507.081 -42.0876 -495.192 -52.8776 -489.03 -56.2903C-489.59 -57.0897 -490.119 -57.8886 -490.68 -58.688C-486.914 -59.918 -485.514 -66.0972 -481.156 -63.2998C-484.237 -62.9304 -485.949 -61.1475 -485.046 -58.2574C-482.806 -59.5795 -480.285 -60.7174 -477.64 -60.9016C-477.857 -61.3321 -478.075 -61.8239 -478.293 -62.2848ZM-487.35 -53.3391V-55.3062C-489.59 -53.7079 -492.858 -53.2778 -491.022 -50.3878C-489.559 -51.0026 -488.221 -52.017 -487.35 -53.3391Z" fill="#1CB45F"/>
</g>
</svg>
