<svg width="241" height="241" viewBox="0 0 241 241" fill="none" xmlns="http://www.w3.org/2000/svg">
<path d="M205.69 204.655C252.507 157.837 252.507 81.9306 205.69 35.1129C158.872 -11.7048 82.9655 -11.7048 36.1479 35.1129C-10.6698 81.9306 -10.6698 157.837 36.1479 204.655C82.9656 251.472 158.872 251.472 205.69 204.655Z" fill="#73D4FF"/>
<mask id="mask0_8260_7686" style="mask-type:luminance" maskUnits="userSpaceOnUse" x="1" y="0" width="240" height="240">
<path d="M205.69 204.655C252.507 157.837 252.507 81.9306 205.69 35.1129C158.872 -11.7048 82.9655 -11.7048 36.1479 35.1129C-10.6698 81.9306 -10.6698 157.837 36.1479 204.655C82.9656 251.472 158.872 251.472 205.69 204.655Z" fill="white"/>
</mask>
<g mask="url(#mask0_8260_7686)">
<path d="M119.958 47.2328C120.966 53.0417 125.182 43.77 119.958 47.2328V47.2328ZM115.72 47.5747C117.14 47.5747 117.919 46.7319 117.69 45.6382C117.209 45.8662 113.337 47.5747 115.72 47.5747ZM124.197 19.2363C125.296 18.7238 125.96 18.0632 127.289 17.9263C125.319 16.0926 122.639 16.4345 120.119 16.4687C120.142 18.8947 121.791 19.8744 124.197 19.2363ZM370.355 143.775C369.44 144.936 370.08 151.36 372.508 149.151C373.883 147.943 370.815 144.253 370.355 143.775ZM470.719 226.078C471.315 227.991 472.852 230.27 474.66 230.771C474.799 230.384 474.799 229.997 474.66 229.654H476.011C476.082 228.037 476.54 227.694 476.54 226.169C475.303 226.512 470.583 225.212 470.719 226.078C470.79 226.351 470.698 225.987 470.719 226.078ZM475.761 223.755C475.761 224.576 476.493 225.145 477.159 225.257C477.135 224.028 476.631 223.755 475.761 223.755C475.876 223.755 475.761 223.845 475.761 223.755ZM469.828 223.344C468.934 223.778 469.506 224.482 470.147 224.711C470.194 224.576 470.353 223.139 469.828 223.344C469.919 223.3 469.69 223.391 469.828 223.344ZM508.84 236.626C511.475 236.626 512.094 231.728 515.28 231.088C513.882 228.173 519.174 228.63 515.371 226.327C512.347 224.529 513.56 227.604 511.772 229.563C510.194 231.317 507.214 231.751 506.07 233.778C505.199 235.35 505.474 237.058 508.84 236.626C508.911 236.626 508.727 236.626 508.84 236.626ZM506.802 237.422C506.527 237.627 506.435 237.765 506.229 238.038H507.536C507.604 237.604 507.489 236.92 506.802 237.422C506.917 237.331 506.687 237.513 506.802 237.422ZM517.156 219.334C517.156 220.132 517.227 222.206 517.227 222.388C517.227 222.206 515.943 222.297 515.92 223.253C515.92 224.482 516.858 223.162 517.065 223.937C517.02 223.845 518.395 226.852 519.174 226.624C519.472 226.533 520.251 225.075 520.731 224.62C523.159 222.341 524.832 219.61 519.929 220.475C519.906 219.152 519.357 217.102 518.44 219.108C517.433 218.469 517.295 216.397 516.127 215.236C513.95 213.048 517.156 218.516 517.156 219.334ZM501.028 190.61C502.267 192.502 503.344 194.05 505.978 194.323C505.772 193.183 502.084 190.563 501.028 190.61ZM448.499 176.189C446.437 176.555 449.552 176.987 450.284 176.919V176.28C449.803 176.236 447.88 176.236 448.499 176.189ZM466.896 177.011C464.465 179.994 467.742 187.307 462.335 185.849C462.358 185.849 457.387 182.683 457.296 182.432C456.356 180.404 458.281 179.334 458.898 177.738C456.149 177.374 453.47 175.984 450.836 175.984C451.361 176.441 451.293 176.782 452.234 177.33C451.75 177.034 448.98 178.879 448.246 179.334C446.047 180.724 449.461 180.997 445.794 181.704C444.581 181.93 444.03 180.246 442.062 180.973C440.434 181.566 440.227 183.731 438.372 183.731C438.649 184.323 438.717 185.28 439.038 185.849H437.616V184.755C435.463 184.641 434.731 189.196 432.279 190.36C430.424 191.247 427.56 191.522 425.521 192.317C424.627 192.637 424.031 195.553 422.978 193.115C422.084 195.826 421.878 197.421 423.391 200.085C420.137 198.627 423.665 203.617 424.329 205.394C425.704 208.994 427.032 211.34 424.285 213.687C426.161 213.687 427.262 215.758 429.666 215.371C431.041 215.189 431.728 213.549 433.264 213.23C434.477 212.912 435.761 214.095 436.793 213.822C437.891 213.503 437.914 212.637 438.832 212.273C439.702 211.932 440.664 210.953 441.649 210.542C442.336 210.246 442.932 211.249 443.755 210.953C446.667 209.859 449.965 208.172 453.378 209.95C455.417 211.044 457.387 218.788 459.564 211.818C461.122 212.341 459.494 213.412 459.724 214.734C461.648 213.593 460.916 215.189 460.777 216.92C463.94 216.327 462.518 219.085 464.854 220.977C465.131 221.203 468.017 222.092 468.589 222.115C470.194 222.159 469.69 220.542 470.698 220.496C471.704 220.475 471.728 222.388 472.392 222.25C475.646 221.567 479.059 220.337 480.251 217.331C481.03 215.371 481.212 213.344 482.449 211.249C484.924 207.057 485.381 202.66 483.091 198.149C482.587 197.102 481.923 196.782 481.145 195.963C480.617 195.394 480.617 194.368 480.251 193.936C480.136 193.822 478.463 193.344 478.05 192.956C477.525 192.455 477.569 191.247 476.997 190.677C476.218 189.95 474.294 189.402 473.699 188.674C472.232 186.873 471.82 183.344 470.719 181.613C470.377 181.065 469.368 180.654 468.843 179.835C468.223 178.832 468.544 176.371 467.055 176.007C466.964 176.35 466.916 176.668 466.896 177.011ZM494.27 173.843C494.73 174.549 495.234 174.323 495.83 174.094C495.532 173.297 493.789 172.819 494.27 173.843C494.34 173.957 494.225 173.775 494.27 173.843ZM486.298 168.398C486.298 169.082 487.88 169.949 488.314 169.856C487.924 168.855 486.756 168.24 486.756 167.283C486.549 167.26 486.322 167.283 486.115 167.351C486.254 167.829 486.298 167.943 486.298 168.398ZM476.905 167.442C477.088 169.516 483.068 168.491 482.519 165.256C482.221 165.3 476.905 168.216 476.905 167.442C476.929 167.694 476.905 167.307 476.905 167.442ZM449.62 171.498C449.62 171.816 451.957 172.182 450.836 169.949C449.874 170.085 449.461 170.61 449.62 171.498ZM441.236 170.519C441.396 171.361 442.29 171.179 443.024 170.859C442.405 170.313 442.083 170.7 441.236 170.519ZM455.004 167.283C454.479 167.624 454.019 168.398 454.019 169.082C454.019 170.404 457.09 165.893 455.004 167.283ZM452.714 164.687C454.202 164.024 456.081 165.324 457.524 165.984C458.739 166.553 459.93 166.212 460.777 167.694C461.922 169.674 460.618 169.152 460.869 170.29C460.939 170.586 459.267 170.54 459.975 171.862C460.296 172.478 462.175 171.088 462.816 171.246C464.854 171.816 465.657 173.64 468.2 172.865C469.757 172.408 469.69 170.176 472.256 171.088C473.262 171.452 473.492 172.681 474.386 173.182C476.103 174.186 475.256 173.866 477.593 174.414C481.121 175.21 479.953 175.461 478.212 173.047C477.958 172.681 476.241 172.886 475.944 172.636C476.103 172.772 474.982 169.812 475.209 170.563C475.141 170.313 473.011 168.764 475.761 169.014C475.233 168.034 472.713 166.212 471.453 165.506C469.07 164.139 467.214 163.684 464.557 162.886C460.801 161.68 461.007 162.408 458.028 162.886C456.172 163.206 454.157 162.317 451.567 162.977C451.844 163.98 452.234 164.936 452.714 164.687C452.806 164.663 452.644 164.731 452.714 164.687ZM439.77 161.202C438.35 161.519 441.053 161.862 441.558 161.771C441.558 160.836 440.549 161.064 439.77 161.202ZM456.632 159.97C456.724 160.701 456.836 160.859 456.792 161.701H458.418C458.166 160.927 457.73 161.293 457.73 159.97H456.632C457.043 159.926 456.653 160.085 456.632 159.97ZM449.782 160.061C449.393 160.017 449.048 160.108 448.726 160.404C450.423 161.384 452.255 162.795 454.5 161.771C452.623 158.33 451.5 160.721 449.782 160.061ZM449.393 159.516C445.566 158.785 451.614 157.283 449.393 159.516C449.254 159.492 449.644 159.243 449.393 159.516ZM447.743 161.519C448.337 161.792 448.591 163.297 448.841 161.384C448.018 161.519 447.927 161.589 447.743 161.519ZM444.832 163.388C444.832 163.98 448.246 164.526 449.231 164.526C449.024 162.704 445.13 163.206 444.832 163.388ZM443.528 163.616C443.092 163.525 442.658 163.411 442.198 163.32C442.977 165.209 443.87 163.821 443.528 163.616C443.64 163.684 443.321 163.525 443.528 163.616ZM445.543 154.822C444.375 156.418 443.549 156.644 443.641 158.923C443.803 162.135 444.605 158.239 446.529 158.536C446.643 157.465 446.092 156.532 445.13 156.599C445.36 155.961 445.543 155.461 445.543 154.822C445.543 154.983 445.383 155.051 445.543 154.822ZM430.241 163.478C430.241 163.478 431.911 165.576 431.707 165.347C431.637 165.256 431.958 167.216 432.026 167.442C433.194 166.667 432.92 164.344 432.92 163.068H433.905C434.02 163.593 435.784 167.512 436.472 167.192C437.708 166.646 435.418 162.34 434.708 161.428C442.245 161.428 430.241 157.054 430.241 163.478ZM439.678 156.599C438.419 157.054 431.203 156.098 431.545 159.105C433.905 158.011 434.548 158.239 437.068 157.738C437.846 157.556 438.097 158.445 439.038 158.057C439.54 157.829 441.442 155.869 439.678 156.599C440 156.462 439.587 156.644 439.678 156.599ZM437.982 174.003C437.982 175.415 443.481 172.728 444.077 172.135C441.923 171.064 438.35 173.365 437.982 174.003ZM437.319 175.37C436.655 175.461 436.495 175.711 436.837 176.189H437.799C437.891 175.781 437.87 175.188 437.319 175.37C437.433 175.324 437.089 175.461 437.319 175.37ZM432.188 172.068C433.607 173.479 438.053 172.317 439.678 171.634C438.372 171.407 432.805 171.407 432.188 172.068ZM431.615 173.115C429.575 173.731 433.309 174.731 433.973 174.687C433.699 174.367 432.324 172.977 431.615 173.115C431.707 173.092 431.362 173.182 431.615 173.115ZM427.536 171.725C426.368 171.816 430.468 172.068 431.294 172.068C431.041 172.135 430.996 171.998 431.132 171.634C429.781 171.634 428.819 171.498 427.536 171.725C427.789 171.701 427.33 171.748 427.536 171.725ZM409.874 168.991C411.729 170.449 414.364 170.883 417.547 171.202C420.069 171.475 423.208 172.772 425.91 172.385C425.155 170.883 423.574 170.472 421.854 170.815C421.969 169.674 422.795 170.222 423.642 169.721C418.992 168.947 414.706 168.855 409.874 168.991ZM404.903 166.646C404.558 167.397 404.788 167.761 404.903 166.646V166.646ZM416.47 155.62C414.317 157.122 415.671 159.835 416.883 161.428C418.647 163.821 419.382 163.569 422.748 164.118C426.14 164.708 425.063 165.576 426.987 162.751C427.078 162.613 427.421 160.381 427.789 159.744C428.291 158.923 430.149 158.559 430.722 157.328C428.568 155.94 429.164 155.573 428.683 152.499C430.332 152.59 429.828 151.496 431.454 150.927C431.592 151.314 427.536 148.125 427.881 148.081C426.598 148.172 425.657 150.357 424.651 151.246C422.405 153.229 418.488 157.122 416.47 155.62ZM399.289 160.404C399.381 161.475 401.168 164.118 402.222 164.344C401.994 162.886 399.289 160.518 399.289 160.404C399.313 160.654 399.289 160.243 399.289 160.404ZM396.678 156.828C397.091 157.603 397.87 157.829 398.236 158.627C398.236 157.647 397.961 156.94 396.929 156.509C396.631 157.283 396.908 156.896 396.678 156.828ZM395.463 154.708C395.463 154.458 394.961 153.775 394.961 154.503C394.961 155.165 395.371 155.461 395.944 155.552C396.15 155.142 395.99 154.869 395.463 154.708ZM396.035 150.997C395.12 150.997 394.616 150.085 393.746 150.199C394.135 152.088 397.136 153.957 398.144 155.232C399.726 157.169 401.03 160.038 402.702 162.203C403.85 163.637 406.552 167.58 408.086 167.603C411.478 167.694 409.552 164.435 412.234 163.616C411.936 161.519 409.989 160.745 408.316 161.93C408.133 159.539 399.244 151.36 396.035 150.997C396.404 151.041 395.899 150.997 396.035 150.997ZM438.144 145.391C436.38 145.573 434.843 146.758 435.784 148.718C437.204 145.3 439.289 149.219 441.558 150.199C440.755 148.489 442.198 148.125 442.221 148.081C442.268 147.761 442.932 143.613 441.487 143.613C440.021 143.613 439.77 146.485 438.144 145.391C438.259 145.482 437.891 145.438 438.144 145.391ZM433.333 137.875C433.286 138.466 435.165 143.068 436.516 142.818C435.829 144.321 438.259 145.347 437.663 142.408C437.386 141.155 434.707 138.101 433.333 137.875C433.424 137.92 433.309 138.101 433.333 137.875ZM435.693 137.647C437.731 139.058 439.082 141.769 441.283 142.202C441.283 139.72 438.967 139.149 438.967 136.94C437.64 136.94 436.976 137.647 435.693 137.647C435.944 137.829 435.944 137.647 435.693 137.647ZM432.598 139.105C431.386 141.428 428.27 143.751 427.627 145.664C430.332 145.664 432.598 141.769 432.598 139.105C432.598 139.378 432.554 139.219 432.598 139.105ZM433.861 129.606C431.454 130.903 432.049 135.778 434.799 136.644C434.684 135.095 438.165 129.606 433.861 129.606ZM435.439 119.377C435.439 118.603 432.209 121.222 432.69 124.206H433.654C433.654 122.202 435.439 121.222 435.439 119.377ZM476.997 83.1339C475.371 83.4301 474.318 84.7513 472.185 84.911C469.849 85.0932 468.772 84.6377 466.321 83.2708C466.229 83.9996 465.268 89.5352 464.282 87.5077C463.848 88.2594 462.382 91.7675 464.763 90.6514V91.4717C463.32 91.7221 462.633 96.3235 461.031 98.1245C461.031 97.6229 461.075 97.3478 461.031 96.8251C460.09 97.7372 459.816 98.0545 459.403 99.2392C459.037 98.7379 458.441 99.6032 458.671 98.192C457.615 98.943 457.226 99.9695 457.066 101.518C453.812 100.105 447.743 102.792 447.169 106.347C447.788 106.391 448.658 106.347 449.048 106.347C449.048 107.919 447.307 108.624 449.712 109.307C449.712 107.646 452.393 105.253 449.712 105.027C450.284 103.34 454.34 103.34 456.058 103.044C454.202 104.206 451.225 103.088 451.912 106.209C453.423 105.573 454.868 104.889 455.898 103.933C456.653 105.664 458.739 104.32 458.418 102.815C464.854 102.088 463.642 101.768 465.176 96.4146C466.023 93.4535 467.031 91.1298 464.214 88.8064C466.117 88.4416 469.3 90.2183 469.185 88.1458C470.583 88.4416 476.997 84.911 476.997 83.1339C476.997 83.225 476.882 83.1339 476.997 83.1339ZM480.021 81.5852C479.333 81.6988 478.991 82.1772 478.372 82.4962C479.38 83.0886 479.655 82.4508 480.021 81.5852C479.906 81.6077 479.885 81.9038 480.021 81.5852ZM487.995 72.9284C487.811 73.589 487.398 74.2042 487.009 74.7966C488.337 74.2496 487.971 73.202 487.995 72.9284ZM507.466 64.4088C507.306 64.4088 507.008 63.5888 506.574 63.9304C506.482 64.2269 506.459 64.5456 506.483 64.8647C506.757 64.9329 507.787 65.0465 507.466 64.4088ZM505.267 64.6596C504.946 63.7485 505.037 63.1787 504.191 62.5409C504.191 63.4066 504.374 64.1583 504.442 65.0011C505.017 65.1608 505.427 65.1833 505.267 64.6596C505.314 64.7732 505.221 64.5456 505.267 64.6596ZM501.007 55.8663C501.624 55.8663 502.037 55.1375 502.084 54.7045C500.662 54.1582 500.526 55.0239 499.975 55.8663C500.32 55.9349 500.662 55.9349 501.007 55.8663ZM538.647 44.5903C540.019 44.8183 541.922 45.4107 543.297 45.2281C542.129 42.9505 539.609 44.7043 538.647 44.5903C538.898 44.6132 538.509 44.545 538.647 44.5903ZM524.236 24.7266C526 25.1251 528.177 24.3393 530.01 24.3393C529.528 23.5988 528.039 22.5622 526.803 22.6304C526.366 22.642 522.862 24.3846 524.236 24.7266C524.328 24.7491 524.077 24.6921 524.236 24.7266ZM473.333 12.3457C474.935 12.9718 480.227 14.8854 480.227 11.9239C477.958 11.8103 474.501 12.129 473.56 10.5574C473.401 10.7167 472.828 12.129 473.333 12.3457C473.424 12.3682 473.194 12.2658 473.333 12.3457ZM463.55 17.5278C465.521 17.8352 467.285 17.4254 469.162 18.086C468.521 15.3297 465.45 16.0356 463.55 17.5278ZM465.176 15.489C466.253 15.489 464.261 14.578 463.642 14.6008C463.642 15.5801 464.305 15.489 465.176 15.489ZM459.081 11.8441C460.845 14.407 470.79 13.7123 471.453 10.4775C469.872 10.1813 467.878 9.23579 467.878 11.8103C467.536 11.753 467.214 11.753 466.896 11.8103C468.613 8.23364 464.854 10.2724 463.595 10.2383C461.075 10.1588 460.435 8.93961 459.081 11.8441ZM457.364 11.1951C457.226 10.8989 457.226 10.5574 457.364 10.2271C455.555 9.97625 456.47 11.867 457.364 11.1951C457.341 11.0924 457.204 11.3203 457.364 11.1951ZM456.47 14.6803C457.022 16.0015 456.951 16.7986 458.579 16.5826C458.143 15.9903 457.066 15.0788 456.47 14.6803ZM413.128 2.77787C412.668 1.92381 411.293 1.70711 410.378 2.14013C410.606 2.40219 413.517 3.75752 413.128 2.77787C413.172 2.89184 413.057 2.64103 413.128 2.77787ZM394.159 6.58214C394.707 6.39993 395.327 6.58214 395.876 6.58214C395.669 4.54335 394.799 6.14912 394.159 6.58214ZM401.236 3.66642C401.558 3.66642 409.278 2.02616 409.461 1.80983C411.363 -0.673233 405.658 -0.422785 405.224 -0.616247C405.614 -1.01515 405.773 -1.02641 405.888 -1.51605C402.519 -2.09716 400.87 3.66642 401.236 3.66642ZM396.035 -4.34102C390.356 -3.52072 391.156 -0.342932 396.38 0.13546C400.342 0.511131 400.619 0.602596 400.413 -1.75524C400.16 -4.9559 400.389 -3.37263 397.41 -3.37263C397.731 -3.908 397.708 -3.78278 397.823 -4.32941C397.206 -4.34102 396.631 -4.35191 396.035 -4.34102ZM391.135 -4.02162C393.401 -2.826 396.587 -5.95805 397.893 -6.77836C394.937 -8.19067 390.881 -8.35001 388.521 -5.24083C388.66 -4.97877 390.583 -4.28405 391.135 -4.02162C391.247 -3.95338 391.065 -4.07897 391.135 -4.02162ZM390.492 -3.29278C389.415 -3.29278 388.636 -3.908 387.515 -3.70293C387.651 -0.411167 391.982 -3.29278 390.492 -3.29278ZM387.147 -8.56634C384.698 -8.56634 386.598 -7.55257 386.415 -7.268C385.934 -6.47092 389.577 -8.56634 387.147 -8.56634ZM323.599 29.419C322.177 29.1798 319.817 27.5171 320.849 30.8771C321.764 30.8771 323.437 30.4099 323.599 29.419C323.575 29.5214 323.507 29.4077 323.599 29.419ZM329.874 17.6875C328.431 17.5507 325.454 21.2979 325.454 23.2685C326.301 23.0975 326.874 22.5622 327.354 23.5872C327.652 23.4507 327.767 23.234 327.676 22.9498C329.531 23.8834 328.248 24.9313 329.257 25.3755C330.561 25.945 333.083 25.74 334.526 25.74C334.343 23.7694 332.142 23.1433 332.006 21.3208C331.821 19.0657 333.723 17.7557 335.098 16.3776C338.352 13.154 341.397 11.3773 346.164 10.2271C347.56 9.88551 353.471 8.6663 352.852 7.15163C351.937 4.93063 348.524 7.42495 347.309 7.78937C344.353 8.7349 334.526 8.98535 334.526 12.5733C333.907 12.4934 333.358 12.4709 332.738 12.5733C334.251 15.1587 328.912 15.0676 329.393 16.7986C329.944 16.685 330.104 16.4799 330.7 16.5482C330.402 17.3115 331.204 17.7899 329.874 17.6875C330.128 17.7104 329.646 17.6646 329.874 17.6875ZM354.389 18.4163C355.67 18.4163 356.38 17.6189 356.725 17.4367C357.412 17.0723 352.347 18.4163 354.389 18.4163ZM342.751 -7.268C344.583 -4.52324 345.819 -7.13152 347.881 -7.50719C345.981 -8.57795 344.536 -6.67564 342.751 -7.268ZM338.763 -7.268C338.763 -6.32283 338.099 -6.59615 337.618 -5.80996C339.039 -5.35444 340.55 -5.32032 342.178 -5.60525C340.825 -7.30212 340.963 -8.54383 338.763 -7.268ZM338.19 -4.34102C337.756 -4.2158 337.343 -4.10147 336.886 -4.10147C337.113 -2.98535 337.848 -3.61182 338.763 -3.78278C338.671 -4.22705 338.741 -4.4775 338.19 -4.34102C338.305 -4.36353 338.054 -4.30654 338.19 -4.34102ZM332.487 -4.83067C333.243 -4.18132 333.358 -3.17916 334.526 -4.67132C334.526 -2.86011 336.886 -4.55735 337.205 -4.83067C337.228 -5.05825 337.205 -5.2637 337.113 -5.47966C335.67 -5.75298 333.381 -5.11523 332.487 -4.83067ZM327.835 -4.67132C329.186 -6.0379 332.051 -6.63027 334.113 -6.14026C333.632 -9.05635 336.794 -5.11524 337.205 -7.82625C336.496 -7.82625 335.877 -7.71228 335.166 -7.82625C335.441 -8.22479 335.969 -9.1587 336.152 -9.36378C335.03 -9.36378 334.296 -8.6578 333.7 -8.47523C334.09 -8.60046 331.73 -7.97434 331.502 -7.82625C330.906 -7.46183 330.699 -6.64151 329.874 -6.04951C328.729 -5.22921 328.18 -5.8673 327.835 -4.67132ZM321.33 -6.85821C318.923 -6.85821 318.327 -6.01503 316.038 -6.4593C316.153 -4.71669 319.153 -5.88981 320.528 -5.88981C317.687 -3.83977 322.475 -3.32726 323.873 -5.16098C326.118 -8.15656 323.988 -6.85821 321.33 -6.85821ZM274.663 -4.10147C275.191 -2.76902 278.147 -4.55736 278.719 -3.05394C277.917 -3.09931 277.091 -3.01982 276.268 -3.05394C277.757 1.05812 285.888 -2.60967 287.768 -3.70293C285.935 -5.71885 283.369 -4.04449 281.743 -4.52324C282.041 -5.12686 282.454 -5.01288 282.316 -5.73047C280.392 -4.97876 280.894 -5.62775 279.773 -3.70293C279.062 -5.54826 273.816 -5.96967 274.663 -4.10147C274.71 -3.95338 274.572 -4.28405 274.663 -4.10147ZM271.388 2.04902C271.388 2.49293 267.034 2.23124 266.509 3.99672C267.562 3.76877 270.861 3.01706 271.297 3.58655C270.631 4.01921 267.081 4.58907 267.034 4.88489C266.943 5.43188 270.129 6.96943 270.816 7.88048C272.923 6.29757 274.938 3.22213 274.938 1.03525C275.557 0.944145 276.657 0.921278 277.253 1.03525C276.978 3.00544 277.481 1.60476 278.33 2.74375C278.947 3.57531 277.666 4.28128 277.666 5.13534C279.911 3.7459 280.138 5.59123 281.009 5.45476C281.903 5.31792 283.507 4.36114 284.422 4.15606C283.437 2.85772 282.43 4.34953 282.43 2.45919C281.469 2.58441 274.985 -1.25399 274.802 -1.84635C274.527 -1.72113 274.023 -1.57304 273.495 -1.84635C273.702 -2.32474 273.976 -2.63218 274.091 -3.13343C271.64 -4.28404 271.571 -2.95122 270.427 -2.63218C270.976 -2.79188 269.554 -1.2656 269.394 -1.22023C269.76 -1.34545 268.775 -3.14505 268.615 -3.19042C268.845 -3.12219 265.89 -2.05142 265.936 -2.0859C266.255 -2.5868 266.394 -3.12218 266.669 -3.54358C265.226 -3.23579 259.155 -1.78936 263.987 -1.1175C263.987 -0.502636 264.102 1.04651 263.896 1.55902C263.004 1.11475 263.117 0.340542 262.019 0.100983C262.453 0.967024 264.193 3.81451 264.193 1.24034C265.226 1.33145 265.294 2.85773 266.736 2.36772C267.309 2.18551 267.63 1.13761 268.182 1.08098C268.25 1.06937 271.226 0.796057 271.388 2.04902C271.388 2.10601 271.341 1.76409 271.388 2.04902ZM472.92 54.4769C476.997 54.4769 477.684 52.7455 480.502 53.3379C482.06 53.6341 480.204 54.7044 481.808 55.1146C484.121 55.6616 483.366 53.3832 485.381 54.9328C485.543 53.862 486.254 54.7044 487.169 54.6137C486.664 52.5862 485.885 54.3858 486.688 52.2671C487.033 51.3332 489.163 49.2374 489.895 48.8276C492.529 47.3696 494.753 47.9391 494.753 50.9005C498.302 50.2399 499.196 45.4332 502.565 46.0938C500.32 47.9162 499.541 50.7866 497.042 52.837C493.88 55.4337 489.871 56.8688 488.75 60.2629C487.948 62.746 488.015 66.2312 488.499 68.5092C489.163 71.6304 488.818 72.1313 491.154 70.9012C493.653 69.6028 493.859 63.9761 497.777 64.9783C496.721 62.9965 497.524 60.3087 499.792 61.7439C499.06 60.1265 499.677 58.6227 499.471 57.6205C499.335 57.1193 498.394 57.4837 498.004 57.6205C498.075 56.8231 499.379 53.7023 499.884 53.2468C501.235 52.0167 501.397 52.7226 503.09 52.3357C504.008 52.1535 503.663 52.9731 504.282 52.9277C505.129 52.8595 505.359 51.4929 506.07 51.4472C506.94 51.4243 507.763 51.7205 508.657 51.6065C510.696 51.3789 509.025 52.837 510.628 53.1557C510.628 49.306 519.838 46.9369 522.449 46.1849C524.809 45.5243 525.059 48.2581 524.236 44.7272C523.502 41.5835 521.876 42.8361 519.838 41.4924C518.67 40.6267 524.67 40.8318 524.649 40.8543C526.39 40.1596 526.939 39.2144 526.115 37.4489C527.328 37.3691 527.511 38.6221 527.901 38.6674C528.13 38.6903 530.673 39.1458 530.995 39.3055C532.644 40.0801 532.231 40.581 534.34 41.0823C537.225 41.8115 535.004 41.5835 536.538 40.9912C537.798 40.5356 536.789 39.3055 537.523 38.6674C538.164 38.0867 542.562 39.932 540.777 36.7883C540.134 35.6722 535.6 34.8973 534.499 35.3419C535.508 36.025 535.759 37.6424 534.087 36.4697C533.491 36.0479 534.34 34.4305 533.561 33.7928C533.148 33.4625 532.37 33.7358 532.025 33.4396C531.408 32.9158 529.665 31.9133 529.048 31.5718C527.352 30.672 526.275 30.0567 524.487 29.1911C520.823 27.4143 512.92 26.0478 510.559 28.451C514.66 30.1025 504.123 31.583 509.734 27.9613C508.04 26.6967 506.619 28.4281 504.925 28.6673C502.863 28.9406 499.243 29.1911 497.432 28.2916C497.387 28.872 497.364 29.5555 497.432 30.1595C494.844 27.3004 494.98 23.9973 489.62 24.3164C487.626 24.4416 485.703 25.0681 483.664 24.6579C481.029 24.1113 480.525 22.7901 478.212 22.5397C478.693 21.9473 477.823 22.1749 479.015 21.5713C475.554 19.6352 471.568 24.5099 473.079 20.5234C471.362 20.5234 469.621 19.5778 467.81 19.5437C464.374 19.4755 465.176 20.0225 462.014 20.5234C462.014 21.9244 463.642 21.8446 463.642 23.3484C462.312 23.0293 461.122 22.8239 459.816 22.7444C460.113 23.1658 460.916 23.7923 460.618 24.487C459.06 24.1908 458.762 22.9952 457.296 22.7219C457.364 22.7219 453.423 22.6761 453.217 22.7444C451.086 23.3026 451.455 25.3755 449.803 25.3755C449.85 25.3755 446.758 22.7219 446.529 22.1408C446.254 21.4344 447.422 19.1452 446.529 18.086C445.13 16.4458 443.985 18.2225 442.543 17.8469C439.312 17.004 438.304 14.8172 438.304 19.2363C435.784 19.2592 434.363 19.4984 432.096 18.5757C431.271 18.2341 430.79 17.1405 429.757 16.8785C427.789 16.3776 424.261 17.3115 422.131 17.3115V16.0585C421.373 16.2977 420.16 17.0494 419.473 16.3776C419.656 16.3547 423.114 14.6916 421.512 14.2814C419.7 13.8034 418.695 16.628 416.311 16.2295C416.656 18.3481 413.081 18.1655 411.157 18.1655C413.219 17.9721 422.291 12.4818 422.497 11.3657C423.367 6.49102 414.089 6.91244 411.981 7.70988C412.393 7.20862 412.715 7.10627 412.715 6.34295C411.499 6.46817 410.331 6.0925 409.14 6.0925C409.325 5.70521 410.308 4.52084 410.538 4.32702C405.818 3.96223 405.635 5.57998 402.702 7.07178C403.092 7.56178 403 7.42494 403.115 7.94907C399.885 7.197 399.634 9.38389 396.929 9.68007C395.944 9.77118 394.159 8.59807 392.693 8.76902C392.418 8.80314 389.392 10.6369 388.041 10.9672C386.689 11.275 385.568 11.4339 383.917 12.0038C383.391 12.2089 380.526 13.211 380.229 13.6778C378.877 15.6712 382.727 14.3275 380.344 16.0585C377.733 17.9608 372.853 15.5119 370.195 17.8469C370.906 19.5212 375.624 22.2547 372.968 22.4598C372.21 22.5168 371.225 21.0816 370.767 20.9335C368.729 20.2159 367.331 20.159 365.316 20.5916C366.071 20.9564 367.033 20.8765 367.033 21.9698C360.962 21.5829 368.018 22.9723 367.744 24.8855C366.758 23.3709 364.147 24.3618 362.956 22.87C362.543 22.3571 363.024 19.7829 362.543 18.8149C362.336 18.9746 362.13 19.0316 361.879 18.9746C361.879 21.9698 360.092 20.7626 359.773 22.5397C359.773 22.5509 360.274 27.5054 360.389 27.6876C362.13 30.5123 361.649 27.9613 363.779 28.7813C366.416 29.8175 366.278 31.1845 366.278 32.9042C366.278 33.5195 368.34 33.8381 368.661 33.8839C365.269 36.1049 365.956 27.7105 361.351 31.4349C361.351 31.4349 361.513 33.6563 361.168 34.2029C360.528 35.2392 359.84 35.6265 358.946 36.1049C356.472 37.4943 356.519 36.9252 353.356 36.7085C354.044 35.7063 356.61 35.8769 357.915 34.7724C359.106 33.7245 359.932 32.5398 359.932 30.8313C358.053 30.9907 357.389 23.5988 357.572 21.5259H358.625C359.176 18.8149 354.707 18.1314 352.761 19.5778C352.51 19.7829 349.415 24.7378 349.347 24.9654C349.875 23.4961 349.898 28.4851 349.439 27.5853C349.852 28.451 350.654 28.2346 351.226 29.419C351.592 30.1936 353.333 30.1595 353.014 31.3667C352.463 33.4853 350.333 30.5921 350.241 30.558C347.858 29.9199 346.026 29.0546 343.736 28.2916C342.544 27.8927 338.237 25.6714 337.55 25.7857C334.549 26.2412 343.208 29.6694 337.411 31.9362C337.411 27.4256 327.974 35.2051 329.714 30.0796C327.218 31.5377 324.378 31.5946 321.856 33.269C321.422 33.5648 315.991 38.5081 316.359 33.5194C320.481 33.6563 315.672 30.8999 313.336 30.8999C314.365 31.9133 315.099 37.0617 314.067 37.6881C314.321 37.5513 311.639 36.9364 310.884 37.0845C310.288 37.1985 308.639 39.0551 307.471 39.1458C307.79 39.613 308.683 40.9912 308.615 41.6746C306.943 40.8089 304.972 41.6289 303.574 39.875C300.208 41.6746 305.27 41.9026 305.27 42.9505C305.27 43.77 302.727 43.3831 302.521 43.2691C300.001 42.0848 301.261 42.3806 300.14 40.5356C299.199 38.9295 297.184 36.9023 295.671 34.9318C297.022 35.1822 311.294 40.8089 309.601 34.2029C309.188 32.6197 305.317 31.1504 303.827 30.6034C301.491 29.7381 298.007 30.3645 296.978 29.7381C298.169 27.255 293.358 28.0524 292.257 27.0383C294.089 27.0383 293.151 26.1958 292.213 25.7058C289.853 24.4645 290.815 26.0245 289.142 26.0245C289.325 25.6714 289.555 24.8173 289.646 24.4416C289.119 24.3164 287.906 24.3164 287.401 24.4416C287.446 25.2616 287.286 25.7058 287.401 26.4347C286.989 25.4209 286.623 25.6147 285.82 24.8855C285.522 26.6626 284.72 27.4143 284.72 25.1367C284.997 25.0111 285.614 25.1251 285.888 25.1251V24.0772C285.201 24.1796 280.781 26.5262 282.384 24.806C278.97 24.4645 279.268 26.3095 281.079 27.312C280.094 26.9247 278.788 27.255 277.757 26.9134C277.757 27.8473 277.917 28.0978 277.253 28.6216C277.253 27.4597 275.557 26.4006 274.412 26.5145C274.87 28.1319 273.336 30.6378 273.038 28.2916C271.044 30.2731 272.899 28.8608 272.212 30.9681C270.539 30.2959 270.929 30.7631 270.427 29.1003C269.739 29.3391 269.35 30.0684 268.294 30.558C268.592 31.0934 268.547 30.8426 268.547 31.3667C267.011 31.3667 266.096 32.0843 265.294 33.1434C266.99 32.6084 269.486 31.0364 271.297 31.9362C268.89 32.4828 265.341 36.5491 264.881 39.4761C264.078 39.5447 262.866 40.3306 262.178 40.9912H263.485C263.3 42.5857 259.589 44.1802 258.444 43.9297C258.444 44.5904 258.329 44.317 258.606 45.137C254.184 46.0484 253.632 48.5997 252.741 51.7887C256.405 51.6751 251.434 53.9756 254.779 54.2493C254.709 55.16 254.251 55.2968 254.366 56.1625C257.963 56.1625 259.291 56.5726 261.697 53.5658C263.279 53.8391 264.47 59.443 265.866 61.0146C266.255 61.4702 264.972 62.2676 265.981 62.632C268.317 63.5435 267.309 61.8575 268.294 61.493C270.058 60.8782 271.02 60.2629 272.533 59.8985C272.648 59.6023 272.648 59.3515 272.533 59.0782C271.663 59.1697 271.41 59.1468 270.907 58.7595C271.41 57.9621 273.518 55.3426 273.678 54.9328C274.206 53.5883 276.2 52.4268 273.197 52.4268C273.197 50.2853 271.341 48.2806 273.587 45.7068C274.71 44.3853 276.793 44.317 277.825 42.9505C278.513 42.0619 278.536 39.499 280.138 38.4968C281.377 37.7335 284.216 39.0322 284.422 40.4899C284.903 43.6336 274.687 45.3878 279.383 50.8094C282.682 54.6137 288.455 49.9895 292.328 52.1989C290.174 54.3858 287.08 53.429 284.514 53.748C283.531 53.9074 279.979 55.0692 279.932 55.1146C280.301 55.2514 280.575 55.4336 280.917 55.5701C280.139 55.5701 279.613 55.8435 278.879 56.0718C279.773 58.3951 281.469 55.707 282.064 55.9803C283.186 56.5269 283.277 57.1193 284.263 57.7803C281.469 61.3108 281.652 57.1879 280.024 57.7803C278.055 58.4862 278.191 62.7232 278.147 63.7714C276.474 63.7714 274.321 62.86 275.717 65.138C273.197 62.5863 271.801 65.3202 269.028 65.5706C268.088 65.6389 264.058 63.2926 263.783 65.8668C262.727 65.7986 261.697 65.4113 261.125 64.9783C261.423 62.1765 265.453 66.163 265.043 61.1744C264.447 61.4477 262.476 62.1308 262.11 61.9943C262.131 61.5384 262.43 60.7188 262.591 60.2629C262.27 60.3994 261.927 60.3994 261.629 60.2629C261.996 57.6205 261.308 57.1422 259.246 59.2379C257.803 60.696 258.857 62.2676 258.788 63.6799C258.627 67.3249 259.704 65.3202 256.863 66.9601C255.42 67.8032 252.9 68.6461 251.275 68.6461C253.358 71.3113 249.304 71.038 247.767 72.1995C247.608 72.3139 246.348 75.2067 245.891 75.3432C244.354 75.8219 243.416 74.4321 242.407 74.5232C244.791 78.6008 240.07 75.7533 238.651 76.8466C236.932 78.1678 239.109 77.7123 239.658 78.5097C240.46 79.6258 241.401 80.0814 242.224 81.7673C246.853 90.9475 235.627 85.2755 231.067 87.189C231.937 90.1276 230.654 93.5674 231.388 96.4146C232.052 98.9666 231.182 97.3942 233.427 98.8287C234.848 99.7408 235.581 98.8755 236.932 100.539C237.23 100.196 237.185 100.037 236.772 100.06C239.109 99.2392 242.018 98.2831 243.873 96.5732C244.629 95.8687 244.997 96.7576 245.569 95.9598C245.912 95.4807 244.882 94.6836 244.927 94.6379C245.204 94.2506 245.41 92.6332 245.982 91.9497C246.738 91.0387 250.036 90.0822 250.609 89.6035C251.296 89.034 250.127 87.8493 251.366 87.0979C252.396 86.4598 254.275 87.8954 255.42 87.6903C255.856 87.6445 258.01 85.0475 259.178 85.2297C260.757 85.5034 262.338 88.4874 263.644 89.5353C267.586 92.5878 274.548 96.7576 264.721 96.7576C267.356 101.334 271.503 96.5732 272.625 93.8633H271.226C271.206 93.5675 271.25 93.2938 271.297 92.9979C271.984 93.2255 273.725 93.5674 274.25 93.5674C273.244 91.631 270.427 89.3988 267.975 89.034C268.226 87.5077 265.683 85.5941 264.538 85.6852C264.881 80.5826 268.182 85.1158 270.701 86.9382C272.418 88.1912 274.663 89.0568 275.625 90.8111C276.221 91.9043 277.047 94.8201 277.666 96.0041C277 95.7986 276.817 95.6636 276.2 95.7776C276.725 97.1656 277.46 97.828 278.398 96.734C279.383 101.745 282.728 96.3703 284.584 96.0741C284.286 95.5489 283.897 95.1162 283.277 95.1162C283.416 95.4353 283.416 95.7776 283.277 96.0741C282.315 96.0741 280.301 93.0887 280.598 92.451C281.581 92.998 282.133 93.3166 283.21 92.8382C283.118 92.5649 282.911 92.451 282.637 92.451C286.325 87.0522 288.363 101.061 288.936 101.061C289.578 101.061 289.44 99.2392 289.44 98.9898C290.862 100.242 292.006 99.9905 293.128 100.151C291.96 99.9905 295.007 99.3768 294.939 99.3768C296.107 99.3303 296.633 100.788 298.535 100.334C298.512 99.8552 298.488 99.4214 298.535 98.9198C302.108 99.6501 302.385 100.879 301.078 104.66C300.642 105.983 298.971 108.125 297.824 108.624C296.429 109.216 295.122 107.805 293.815 108.488C295.854 109.445 297.275 115.526 299.588 113.182C303.049 116.781 303.896 121.701 306.164 125.482C307.607 127.852 310.562 129.718 311.799 132.452C313.471 136.142 311.25 138.374 315.946 138.466C318.053 138.466 320.551 136.462 322.634 135.596C325.018 134.64 326.186 133.637 328.089 132.771C330.54 131.656 332.006 132.135 333.7 130.175C334.502 129.31 336.152 127.077 337.205 127.509C337.205 125.232 337.252 125.141 338.924 124.435C338.741 123.34 336.886 122.111 336.06 121.427C334.594 120.175 336.06 118.876 333.953 120.949C333.723 119.97 333.426 117.828 332.647 117.236C331.753 118.33 331.478 118.421 331.34 120.152C328.089 119.879 323.003 119.993 328.982 118.922C328.889 118.556 324.307 117.28 324.08 117.145C323.369 116.644 321.192 114.252 321.009 113.182C320.389 109.445 322.201 110.674 324.422 112.223C327.172 114.091 328.11 114.957 331.34 116.007C331.891 116.188 333.196 115.822 333.953 116.007C334.526 116.165 334.662 117.441 335.441 117.782C336.886 118.465 340.482 118.785 342.178 118.853C346.094 118.99 347.194 118.647 350.333 120.425C352.028 121.381 352.188 122.589 354.731 123.068C350.241 123.068 355.395 125.391 356.427 125.732C358.121 126.28 357.229 123.455 359.038 125.983C359.932 127.169 359.221 128.717 359.451 130.037C359.909 132.634 360.847 134.707 361.811 137.145C362.451 138.785 363.62 144.162 365.224 145.095C366.918 146.03 368.614 144.344 369.552 142.408C370.195 141.108 370.195 139.606 370.355 138.148C370.446 137.374 370.148 135.96 370.402 135.323C371.249 133.159 371.065 135.277 372.647 133.728C375.694 130.812 379.29 126.394 382.107 124.845C383.184 124.229 387.972 123.25 388.041 123.296C388.958 123.886 391.064 128.603 391.064 129.674C393.861 129.674 390.654 131.997 392.693 133.593C394.067 134.663 395.625 132.384 395.876 132.452C398.053 133.044 399.563 138.741 399.519 141.085C399.495 142.34 397.572 143.66 398.419 145.802C398.923 147.078 400.894 148.263 401.604 149.879C402.451 151.839 404.215 158.876 407.995 157.078C406.711 154.869 406.711 150.95 405.407 149.334C403.505 147.078 401.283 147.192 400.755 143.91C400.64 143.159 399.908 139.879 401.145 138.853C403.138 137.236 401.49 138.466 403.437 139.515C405.13 140.425 404.971 140.381 406.484 142.249C406.826 142.681 408.063 143.023 408.248 143.297C408.797 144.206 408.086 145.004 408.888 146.394C410.514 144.115 412.989 143.523 414.272 141.769C416.656 138.536 415.166 135.825 413.219 133.317C410.263 129.492 409.485 124.845 416.311 124.845C416.747 126.802 413.791 128.943 414.936 129.947C417.732 132.408 418.326 125.209 418.258 125.253C419.473 124.162 422.108 124.092 423.482 123.66C425.498 123.021 426.161 122.589 427.857 121.313C430.217 119.559 434.569 115.71 435.12 112.543C435.531 110.219 434.294 111.654 434.065 110.082C433.929 109.216 434.775 109.4 434.478 107.849C434.111 105.983 431.501 103.66 431.545 102.314C431.637 99.7408 434.271 100.606 435.212 99.2392C436.035 98.0312 436.035 98.1009 433.607 97.2124C432.53 96.8483 432.805 98.465 431.409 98.465C431.799 95.4353 427.811 97.5528 429.574 94.7289C429.462 94.934 432.737 93.4988 432.92 93.4077C436.495 92.0637 435.439 91.631 433.973 95.3671C435.029 94.7747 437.846 93.2938 439.038 93.8179C441.534 94.934 439.563 95.3213 439.77 97.371C443.62 95.7776 442.451 101.835 442.038 103.681C444.788 103.977 447.903 102.155 447.835 99.5121C447.788 97.1445 444.764 96.8694 445.383 93.5674C445.52 92.9068 446.735 93.4077 446.85 93.0887C446.894 92.998 447.284 90.4463 447.514 90.1501C448.063 89.3988 448.98 87.8725 450.01 87.4166C450.605 87.1662 452.759 87.6445 453.859 87.3255C455.325 86.9153 455.715 86.5513 456.86 85.5488C458.715 83.9771 461.075 81.0381 462.335 79.1478C463.801 76.9834 463.388 75.2521 464.374 73.0198C467.536 65.6389 466.117 80.1957 466.117 82.2229C466.71 81.6305 467.17 81.9496 467.695 80.7648C468.43 81.4483 467.787 81.9953 469.345 82.0635C468.911 79.1021 465.727 76.4822 470.147 76.4822C470.262 76.4822 468.04 66.4138 467.949 65.2291H467.306C467.421 67.6435 466.642 67.4613 466.642 69.6939C464.787 68.6003 465.153 66.2312 461.763 65.2291C461.373 67.6893 460.182 66.8693 459.152 65.2291C459.243 65.7075 459.243 66.049 459.152 66.5274C457.709 66.3227 459.175 65.4113 458.098 64.5002C455.806 66.7779 458.051 63.3384 458.898 62.4045C460.182 60.9918 461.533 60.0354 462.931 58.304C465.863 54.7045 468.498 54.4769 472.92 54.4769ZM235.466 55.9803C234.71 56.2536 233.908 57.1193 233.749 57.8485C234.436 57.6663 236.704 55.7527 235.466 55.9803C235.557 55.9803 235.168 56.0718 235.466 55.9803ZM237.185 74.136C238.834 74.136 240.071 72.997 241.011 72.8376C242.454 72.6097 244.493 73.2931 245.661 72.7694C247.723 71.8351 248.387 69.8304 247.838 67.9855C247.493 66.8007 246.599 68.6914 246.555 68.6461C246.003 68.0766 246.095 67.1427 245.661 66.7779C244.927 66.1401 243.92 64.6367 242.959 63.5206C241.492 61.8121 241.307 62.2219 241.079 60.8553C240.941 59.9443 244.699 56.3904 239.132 58.0307C239.59 57.2333 239.658 56.5727 240.528 56.0718C238.696 54.2493 237.894 57.0739 237.206 57.6205C237.094 57.7116 233.382 58.9646 236.291 59.4659C236.038 60.3087 235.1 61.5384 235.147 62.0625C236.109 62.1765 237.321 62.9511 237.574 61.9032C237.345 65.0694 239.017 63.3155 240.209 65.8668C241.56 68.8283 238.787 66.8007 237.345 68.5549C237.894 68.6914 238.33 68.6461 238.97 68.7143C238.97 69.6028 236.772 69.9673 237.504 70.8101C237.964 71.3338 240.254 70.5596 241.011 71.2885C240.713 71.5618 236.176 74.136 237.185 74.136ZM235.787 65.7986C239.407 65.2748 230.037 60.6502 232.214 64.9783C230.495 65.2973 228.182 67.6893 230.999 67.5524C227.333 72.8376 232.442 69.3295 235.557 70.0126C235.672 68.7372 235.811 67.3702 235.787 65.7986ZM322.956 189.152C322.956 186.031 325.201 179.607 321.49 178.149C321.49 179.243 320.047 181.794 319.383 182.387C318.008 183.64 315.878 183.115 314.48 184.459C313.404 185.506 314.616 188.765 314.48 189.63C314.227 191.27 313.518 191.475 313.174 193.526C312.739 196.192 313.356 200.132 316.932 199.357C320.368 198.606 319.268 197.556 319.864 194.505C319.909 194.142 320.779 190.677 320.849 190.61C321.124 190.223 322.956 189.677 322.956 189.152ZM295.901 111.859C294.343 108.169 293.449 109.582 290.036 109.172C285.109 108.579 281.307 107.007 276.681 105.96C276.681 110.401 276.772 109.582 273.748 109.627C274.365 109.582 271.091 108.67 271.41 108.808H269.028C268.775 108.397 268.615 107.964 268.547 107.509C267.105 107.03 262.751 106.324 261.857 105.118C260.184 102.885 263.736 102.475 260.712 100.539C261.514 99.8762 261.423 99.7851 262.521 99.559C260.987 96.9605 256.771 99.3767 254.526 99.4214C252.145 99.4679 249.602 98.4182 246.555 99.7408C244.493 100.606 243.094 101.814 240.368 101.745C237.07 101.7 235.306 99.4214 235.306 103.681H232.855C233.955 107.623 231.067 105.071 230.427 106.37C229.394 108.442 229.739 110.903 228.798 112.223C228.226 112.997 226.073 114.047 225.202 115.139C224.264 116.256 223.14 118.148 222.11 119.65C221.101 121.155 216.977 124.981 217.552 127.259C217.712 127.896 220.025 126.986 220.391 127.761C220.712 128.374 219.933 128.67 220.072 129.035C220.712 130.721 219.636 133.502 219.499 135.209C219.338 137.283 219.155 139.058 221.468 141.428C223.919 144.001 226.211 146.121 228.961 148.489C229.899 149.31 230.356 151.178 232.374 151.587C234.642 151.997 234.94 151.041 237.094 150.768C238.97 150.539 240.392 151.36 241.675 151.314C244.377 151.223 244.195 150.199 246.393 149.445C248.18 148.855 252.03 149.014 253.06 149.445C254.688 150.175 254.275 151.36 256.68 151.906C260.85 152.818 260.621 150.768 260.712 155.142C260.757 157.192 259.933 159.812 258.765 160.973C263.987 162.613 267.424 173.229 266.577 178.286C265.751 183.388 262.659 183.593 265.294 188.993C266.919 192.364 267.447 194.368 268.386 198.058C269.326 201.886 272.327 204.482 273.427 207.946C274.365 210.906 272.923 211.842 274.412 213.458C278.351 217.741 288.776 212.684 291.845 209.404C293.036 208.128 295.054 205.917 295.741 204.391C296.429 202.889 295.511 200.748 295.901 199.835C296.243 199.108 298.833 198.65 299.659 197.556C301.88 194.687 298.535 193.458 299.175 190.451C299.68 188.014 304.217 186.761 305.524 185.576C308.752 182.704 308.937 179.492 308.134 175.165C307.675 172.728 305.409 169.105 306.347 166.145C307.583 162.158 312.716 158.307 315.787 155.62C318.053 153.637 320.298 151.36 321.811 148.65C322.841 146.849 323.507 146.69 323.758 144.276C324.171 140.472 324.788 141.381 321.49 141.36C316.908 141.337 315.557 143.068 312.371 139.606C310.539 137.579 307.583 135.687 305.843 133.432C304.126 131.223 302.338 126.165 301.285 123.546C299.703 119.536 298.786 115.414 295.901 111.859C296.084 112.088 295.786 111.586 295.901 111.859ZM130.221 235.873C129.58 235.737 129.626 234.734 129.168 234.734C129.374 234.734 127.702 236.647 127.702 236.626C127.702 236.92 130.726 239.246 130.955 239.358C130.817 239.563 130.748 239.792 130.794 240.02C125.571 240.02 129.74 244.597 128.916 246.489C129.397 246.421 129.74 246.421 130.221 246.489C130.244 246.944 129.992 247.196 129.488 247.24C130.336 248.129 129.901 247.606 130.726 247.809C130.451 247.718 134.162 252.435 134.781 252.822C137.896 254.735 140.851 253.802 143.83 253.573C143.692 252.617 139.958 251.546 139.179 249.701C138.446 247.923 136.774 243.323 139.752 243.62C139.752 241.751 143.532 239.654 143.257 238.31C142.959 236.717 139.179 237.674 140.485 234.506C140.897 233.505 142.959 234.051 143.417 233.505C143.807 233.003 143.279 232.182 143.83 231.59C143.463 232.001 145.754 228.037 145.456 229.495C145.983 226.899 143.509 229.563 144.059 225.714C147.884 227.24 148.64 225.849 148.068 222.32C151.229 222.411 155.032 222.525 156.475 219.472C158.033 216.237 155.055 216.966 154.482 214.142C158.01 214.597 159.339 215.828 162.065 213.412C163.348 212.273 164.356 207.694 165.8 207.9C165.593 208.539 165.479 208.606 165.639 209.199C169.832 207.125 168.663 201.226 170.954 198.515C172.443 196.738 174.505 195.872 176.612 195.28C179.957 194.323 180.874 194.55 182.752 191.293C184.974 187.444 184.058 181.613 185.845 178.513C187.151 176.259 190.014 174.913 190.77 172.317C191.297 170.586 191.183 170.7 190.747 169.105C189.785 165.643 189.831 167.92 187.655 166.212C185.295 164.391 184.333 163.98 181.4 163.434C179.82 163.115 174.23 163.502 176.567 162.294C175.696 161.701 174.299 160.836 173.153 160.609C170.29 160.061 170.931 160.701 168.915 161.566C169.098 161.293 169.946 159.401 169.969 159.243C169.213 159.151 168.159 158.785 167.426 158.559C166.693 158.33 167.105 160.199 165.57 160.017C165.868 159.333 168.846 155.62 166.051 155.62C166.532 150.7 161.951 150.448 158.904 149.674C156.43 149.082 150.954 146.576 150.954 143.819C149.557 144.297 147.06 143.66 149.236 142.681C147.793 140.835 144.792 143.432 143.944 143.411C140.828 143.297 139.339 140.698 136.361 140.152C136.361 141.747 135.262 141.381 134.322 142.34C134.185 142.475 134.597 144.663 134.482 145.027C132.81 143.66 133.245 140.745 134.963 139.697C132.214 138.922 124.517 144.001 124.059 147.441C123.807 149.354 125.823 151.36 124.517 154.003C123.807 155.461 120.806 158.468 119.225 159.014C119.5 161.475 118.469 161.93 121.012 162.112C119.958 163.934 117.484 165.028 118.904 168.011C119.248 168.764 120.852 168.923 121.516 169.856C122.157 170.791 122.845 172.182 123.257 173.182C124.151 175.37 124.975 179.014 126.396 180.654C128.343 182.886 130.68 183.525 133.108 185.415C137.209 188.627 135.697 195.462 135.032 200.472C134.666 203.206 133.635 205.826 133.314 208.354C132.947 211.361 133.314 214.506 132.1 217.331C130.748 220.475 130.84 222.32 129.993 225.849C130.038 225.644 129.97 228.173 129.993 227.536C129.97 228.082 128.893 228.63 129.122 229.313C130.267 232.707 131.253 227.627 132.421 227.536C131.573 229.906 131.23 231.91 130.932 234.597C130.29 233.526 130.13 234.119 129.901 232.64C129.145 233.048 130.29 235.259 130.221 235.873ZM134.299 131.314C137.14 130.677 141.241 131.155 144.081 130.175C142.821 128.626 138.95 129.128 136.567 128.808C135.055 128.626 131.94 126.849 131.688 129.219C131.527 130.721 132.902 131.587 134.299 131.314C134.62 131.246 134.093 131.36 134.299 131.314ZM126.648 130.812C125.983 129.788 124.632 129.445 123.234 129.674C124.082 130.812 125.663 131.792 126.648 130.812C126.51 130.63 126.396 131.085 126.648 130.812ZM129.58 127.19C128.343 125.209 123.257 124.024 121.103 123.203C119.706 122.704 116.522 121.404 114.781 122.407C112.856 123.522 113.337 123.683 115.399 124.661C116.293 125.118 116.819 123.728 117.69 123.886C118.882 124.071 119.637 125.094 120.279 125.323C123.647 126.529 125.754 127.19 129.58 127.19ZM208.272 39.3055C209.762 39.0663 210.289 39.1005 210.702 40.6039C209.579 40.3988 208.57 40.3988 207.448 40.6039C207.493 40.9226 207.563 41.2645 207.608 41.5835C210.93 41.0369 208.364 42.9047 210.059 43.5196C210.426 43.6336 214.252 44.0208 214.458 43.9983C217.391 43.8615 217.644 43.2463 220.163 41.9026C222.293 40.7407 223.232 42.3581 223.898 40.1142C224.173 39.2257 222.615 39.2028 222.27 39.1458C222.981 35.114 217.459 38.7019 214.733 38.3487C214.322 38.3146 211.892 37.9731 212.328 38.0184C211.16 37.9161 212.42 36.196 211.183 37.6881C208.204 36.6972 207.472 39.4649 208.272 39.3055C208.502 39.2714 208.044 39.3513 208.272 39.3055ZM158.079 71.6986C157.437 72.1084 153.658 78.1678 153.932 78.6233C154.505 79.5805 156.521 78.6694 157.621 78.9881C159.293 79.4894 159.66 80.1728 161.332 80.9471C163.875 77.1199 161.493 75.7991 157.758 74.6143C157.736 74.6826 160.026 70.605 158.079 71.6986C158.285 71.6075 157.873 71.8351 158.079 71.6986ZM149.282 75.2749C147.655 74.7512 146.945 74.0677 145.364 74.2953C146.854 75.1838 147.816 77.3707 149.282 75.2749C149.213 75.3889 149.053 75.2067 149.282 75.2749ZM195.26 31.7082C195.719 31.5377 196.223 32.1982 196.59 32.3006C199.476 33.2233 199.476 32.1297 201.835 31.2074C203.943 30.3987 209.166 29.2709 209.9 27.312C207.059 29.5214 200.369 24.3618 207.493 24.6579C207.195 24.6467 210.679 28.2916 211.481 25.1367C211.779 23.9745 208.868 21.1727 207.953 20.6715C208.457 20.2276 211.664 22.5509 210.702 19.5437C210.243 18.1314 209.419 18.1089 207.54 18.7354C207.906 18.1655 208.272 18.2113 208.502 17.6875C208.159 17.5848 207.838 17.4483 207.54 17.2657C208.57 17.2545 211.526 18.6897 212.9 17.767C216.063 15.6712 210.953 16.4229 210.953 15.4092C210.953 15.1587 215.765 14.9311 216.086 14.3613C215.077 13.3707 212.42 11.6622 215.603 11.4002C215.673 8.78027 211.709 8.79189 212.169 7.31134C212.352 6.70737 214.275 6.47942 214.78 6.66199C216.865 7.45907 215.145 7.63002 216.086 9.49822C216.658 6.13786 217.963 5.32917 213.886 5.32917C215.01 4.08782 213.933 4.98762 215.833 4.07621C214.688 2.33396 211.871 4.00797 211.847 3.99672C208.938 1.66174 219.202 -4.65972 220.163 -5.86731C218.857 -5.78746 217.597 -6.01503 216.314 -6.04951C218.972 -6.59614 220.485 -6.5163 222.774 -7.99685C223.393 -8.39575 226.692 -7.98559 225.202 -10.1725C224.951 -10.5598 221.538 -10.3776 221.217 -10.3434C218.857 -10.0585 216.658 -9.64871 214.688 -9.13583C213.449 -8.78303 208.342 -6.09489 207.608 -6.22011C210.541 -9.87629 212.145 -10.4229 206.806 -11.2091C206.806 -9.09046 205.272 -9.3068 203.21 -8.96525C203.554 -10.685 204.745 -10.0015 205.982 -10.5826C202.958 -12.8149 197.414 -9.35253 194.092 -9.86504C194.986 -12.5187 208.57 -12.7354 211.688 -13.0886V-13.8286C208.57 -13.8399 207.174 -14.307 204.768 -14.7172C201.148 -15.3092 197.62 -14.4667 194.092 -14.8308C196.681 -16.5966 201.95 -15.8108 205.661 -15.8108C205.248 -18.6808 188.961 -17.4961 186.853 -16.8242C184.608 -16.0838 186.624 -15.3437 183.806 -15.0359C182.156 -14.8537 180.782 -15.8217 179.087 -15.8903C177.529 -15.9585 174.436 -15.6511 172.695 -14.9905C173.222 -13.9539 174.459 -14.3982 174.459 -12.9289C173.795 -13.4414 170.862 -14.6602 171.801 -12.8606C171.572 -13.3045 176.979 -10.1267 175.444 -10.1267C172.008 -10.1267 169.419 -12.8719 165.776 -12.8719C165.776 -12.0973 168.021 -10.7648 168.342 -9.60297C166.166 -10.2182 164.7 -12.1884 162.363 -12.4051C162.958 -11.232 163.142 -8.38449 161.218 -9.52312C161.218 -9.53474 162.134 -11.8697 160.851 -12.5644C159.316 -13.4301 154.437 -10.4345 153.406 -10.947C154.528 -10.514 156.43 -9.91078 157.3 -8.96525C155.742 -8.9765 154.437 -10.036 152.81 -10.2295C151.756 -10.3775 152.031 -11.2091 150.634 -10.5485C149.282 -9.92203 150.358 -8.90826 149.992 -8.70318C148.709 -7.96273 146.052 -7.66655 143.623 -6.37983C142.661 -5.86732 140.325 -5.91268 140.462 -4.26117C141.859 -3.89675 142.57 -4.26117 143.876 -4.26117C144.814 -4.26117 143.83 -1.22023 143.646 -1.04927C143.211 -0.673237 141.172 -0.775591 140.531 -0.616247C138.858 -0.18359 135.857 -0.365801 134.162 0.636717C128.641 3.85987 138.835 4.13318 141.836 4.13318C141.241 6.605 135.078 4.78254 135.078 6.19485C135.078 6.88957 137.758 7.64164 138.332 7.76687C137.873 7.76687 137.827 7.76687 137.69 8.09717C138.514 8.75777 140.095 10.1243 141.309 9.68007C141.218 9.50948 140.691 9.03108 140.966 8.86012C142.799 7.73238 150.679 8.59805 152.856 9.9875C155.995 11.9925 158.4 16.0926 158.698 19.8628H159.476C156.361 25.4209 163.852 20.8537 165.983 25.8655C163.967 25.9222 162.065 24.5215 160.209 25.2957C160.668 26.6739 158.995 28.9178 161.836 28.986C164.31 29.0433 165.112 27.2891 162.226 26.8448C166.327 26.3548 165.341 27.9385 166.487 30.8088C164.654 30.7173 163.21 31.0364 163.256 32.8247C159.179 32.3006 163.463 37.597 163.715 38.4511C163.623 38.2235 164.929 37.8932 165.181 38.4054C165.364 38.8384 163.852 39.3396 164.265 39.7157C163.623 39.123 164.998 41.9933 164.837 41.5835C164.814 41.4924 166.418 40.6492 166.716 40.6721C165.456 43.2238 166.716 47.5293 169.488 49.6018C170.725 50.5358 176.819 52.8824 177.804 52.3357C179.156 51.6065 178.789 48.8276 179.339 47.5747C179.682 46.823 178.514 46.595 178.972 45.7068C179.201 45.2281 180.415 45.5471 180.805 44.8183C182.454 41.8115 181.446 38.9411 185.57 38.5879C185.456 36.6286 185.662 38.0297 186.716 37.3691C186.463 42.4721 195.215 31.7195 195.26 31.7082ZM106.35 6.66199C108.091 9.3269 115.926 8.35887 118.813 7.88048C119.592 9.82853 124.219 8.62093 124.036 6.0925C123.601 6.29757 123.165 6.47942 122.73 6.66199C122.593 6.26309 122.455 5.8533 122.318 5.45476C124.174 5.11284 124.082 4.63445 123.624 3.01706C125.96 3.6548 127.93 3.31324 126.304 1.17173C126.052 0.841431 128.755 1.09225 128.755 0.761581C128.755 -1.48192 124.609 -0.753084 123.555 0.180834C123.44 -0.0808659 123.326 -0.354548 123.234 -0.616247C125.891 -2.47283 128.778 0.100979 131.276 -2.16539C130.794 -2.51856 130.313 -2.86011 129.832 -3.20203C131.504 -2.75776 133.108 -2.39334 134.963 -3.13343C134.162 -3.74866 134.276 -4.22705 133.245 -4.67132C137.094 -3.74866 141.63 -7.92861 145.204 -8.87414C144.059 -10.0131 140.989 -8.90825 139.019 -9.13583C140.622 -11.1975 149.534 -9.20444 150.107 -12.0519C150.473 -13.988 142.363 -14.3299 140.416 -13.8286C139.66 -14.5804 136.567 -15.4119 134.62 -15.6166C133.864 -12.9172 125.113 -16.8584 125.754 -13.7376C123.303 -14.6486 117.896 -15.1611 116.041 -12.5303C118.102 -12.6439 120.348 -12.2229 121.356 -10.5826C119.294 -11.1176 116.545 -12.4163 114.758 -12.7695C112.879 -13.1339 111.344 -12.143 110.818 -12.0748C108.847 -11.8011 104.907 -10.7648 102.524 -10.2636C102.501 -10.0244 102.479 -9.77393 102.456 -9.52312C104.472 -8.897 104.609 -7.73514 106.854 -7.06329C110.061 -6.08327 110.176 -7.79213 112.948 -8.15655C107.381 -4.92178 116.018 -6.0379 117.53 -6.41357C120.646 -7.17689 122.799 -8.9765 126.075 -8.87414C124.769 -8.7373 123.509 -8.15655 122.478 -7.268C123.67 -7.47308 124.677 -7.08579 125.823 -7.09704C124.174 -5.87856 118.927 -5.47967 116.545 -5.33194V-4.52324C118.125 -3.86264 119.065 -2.70078 120.944 -2.7349C118.171 -1.98319 114.024 -4.69383 110.909 -5.08111C111.161 -2.43871 115.903 -0.320066 118.584 -0.456905C117.965 0.260683 117.69 0.796061 117.186 1.38842C112.535 -3.14505 105.571 3.894 114.185 2.36772C113.727 2.61817 113.269 2.85772 112.788 3.09691C113.796 4.7368 115.651 4.20143 117.026 2.77787C115.445 6.96943 110.772 2.9942 107.908 3.35862C109.099 5.19233 107.977 5.9444 106.35 6.66199ZM107.083 1.38842C107.542 0.841431 108.366 1.18336 108.137 -0.308807C113.337 0.477018 112.123 -2.71203 108.893 -4.72795C109.076 -4.60273 98.3778 -9.95614 98.6297 -8.39574C99.3857 -8.23604 100.073 -8.78303 100.256 -7.82625C100.279 -7.68941 97.3926 -7.32498 97.0722 -7.34785C97.7365 -6.90358 97.9425 -6.24298 98.2177 -5.96966C97.4383 -6.09489 96.7513 -5.84444 96.0183 -5.88981C95.7661 -5.33193 95.4682 -4.10147 95.4452 -3.37263C97.3926 -1.42494 100.256 -3.08806 102.364 -1.34545C101.104 -1.2656 99.8212 -0.639116 98.6297 -0.456905C101.035 1.68424 104.242 2.49294 107.083 1.38842ZM102.845 4.15606C102.616 4.53173 102.364 4.90777 102.112 5.29506C103.532 5.71646 104.541 5.62536 105.777 5.04461C105.021 3.62068 104.265 3.88274 102.845 4.15606ZM104.151 13.9511C105.755 13.6212 123.761 15.0905 121.103 10.9672C119.523 8.48445 112.421 11.1497 110.245 11.0924C105.686 10.99 105.067 6.29756 100.99 7.48193C102.501 10.0674 100.921 12.835 104.151 13.9511ZM92.8338 14.2814H93.9789C93.4751 13.0633 93.4752 14.031 92.8338 14.2814ZM95.354 12.2542C96.2015 12.9947 100.623 15.0335 100.165 12.1744C99.7982 9.83977 96.1096 10.9559 95.354 12.2542ZM99.3627 8.76902C101.173 6.88958 98.5151 5.55711 96.5907 5.85329C92.6276 6.47941 97.5299 8.79189 99.3627 8.76902ZM96.0183 4.88489C97.4843 4.86202 98.9046 4.67982 100.325 4.32702V3.51832C98.5152 3.26751 96.5677 3.11978 96.0183 4.88489ZM96.3388 2.85772C100.417 1.86682 93.6128 0.0327435 92.3527 0.431282C92.9024 2.35646 94.2312 3.52958 96.3388 2.85772ZM91.78 -3.20203C91.1843 -4.32941 90.7718 -4.94464 89.2598 -4.67132V-3.70293C90.3597 -3.23579 90.7718 -3.01982 91.78 -3.20203ZM90.7262 3.74591C91.9173 -0.308809 83.8764 -2.24488 80.8521 -1.1175C82.0206 -0.639112 82.6163 0.272293 83.4639 1.00113H82.0896C83.2807 2.64102 88.4123 2.86898 90.7262 3.74591ZM87.6333 3.91687C86.6025 3.51833 86.2819 2.92596 85.0218 3.26751C85.5026 4.65732 86.3046 4.20144 87.6333 3.91687ZM86.8773 10.9672C88.5498 10.1472 89.5577 10.7849 89.9012 12.6644C92.0778 12.5733 93.704 11.8212 93.4522 9.50947C93.1547 6.96942 90.5886 8.04017 88.2746 7.15163C89.0766 7.70988 89.9472 8.55269 90.4053 9.41837C90.3137 9.27028 87.1522 8.05143 86.5568 7.97194C86.717 8.65505 86.7401 9.29278 86.969 9.9875C85.457 8.83725 84.7927 6.95817 82.662 6.74148C82.4101 9.19043 84.655 10.4205 86.8773 10.9672ZM82.1582 11.6165C82.3415 11.7417 83.9451 13.5754 83.9451 11.6851C83.9451 10.6143 82.3871 11.6165 82.1582 11.6165ZM82.7309 5.53425C82.1352 4.57747 81.425 3.88274 80.3711 3.43847C80.4627 5.05585 81.2646 5.96727 82.7309 5.53425ZM125.181 34.6131C126.35 34.9543 129.58 34.5445 128.435 32.7108C127.426 31.0821 123.784 32.3119 125.181 34.6131ZM98.859 20.9107C99.3401 20.045 100.142 20.364 100.096 19.0541C102.364 19.8628 103.303 17.8581 104.494 16.2295C102.822 15.6142 99.2941 14.4527 97.8051 15.5119C96.4764 16.4687 95.9033 21.7422 98.859 20.9107ZM91.6884 23.4278C95.4453 23.4278 96.2016 20.0562 92.5816 18.4163C95.331 17.5391 93.1773 15.8763 91.6197 15.375C91.3448 15.2956 89.1455 16.4799 87.8625 16.2295C90.1534 18.6098 88.3893 20.1248 85.8465 18.7354C85.9611 20.364 90.1761 22.642 91.6884 23.4278ZM82.5703 18.3252C83.2577 16.1042 80.417 15.66 79.0653 16.8785C80.3484 18.0744 81.2416 18.8831 82.5703 18.3252ZM77.1866 16.4687C77.3242 16.6051 78.2178 17.6305 77.1866 16.4687V16.4687ZM69.283 1.72998H75.0793C74.0711 -0.422783 70.864 0.203699 69.283 1.72998ZM70.9325 5.29506C72.5591 5.2838 74.6211 5.10159 73.2004 3.51832C73.8878 3.21052 74.14 3.49545 74.5981 2.70962C72.6967 2.52741 70.8179 2.60728 69.2143 3.66642C69.5352 4.75968 70.1075 4.90777 70.9325 5.29506ZM68.0689 3.83738C67.5652 2.78949 67.4275 2.0944 65.8696 2.36772C66.2361 3.70054 66.9235 3.57531 68.0689 3.83738ZM66.4423 7.88048C64.1284 8.55269 61.8149 10.9218 63.4411 12.2201C64.8848 13.382 70.1766 12.186 71.9864 12.3457C71.3677 13.0633 67.5652 12.3682 67.817 13.6778C68.1605 15.1932 71.0015 14.2477 71.9408 14.0767C73.9338 13.7123 81.4022 12.7442 80.8521 9.9875C81.0584 11.047 75.9499 7.18576 76.385 7.31134C74.0024 6.61626 73.1089 7.99445 74.3459 10.1472C74.8044 10.3294 75.5374 10.0445 75.6976 10.6027C75.9268 11.48 67.6564 8.30224 66.4423 7.88048ZM66.9234 6.34295C67.4505 6.57089 67.6107 7.42494 68.8938 7.15163C68.8708 6.88957 68.8252 6.60501 68.8022 6.34295C68.1835 6.50229 67.5651 6.50229 66.9234 6.34295ZM60.4172 9.82853C60.1424 10.1472 59.8675 10.4775 59.5927 10.7966C61.3795 10.7737 61.0359 11.1036 61.9751 9.41837C61.448 9.55484 60.9443 9.69169 60.4172 9.82853ZM63.029 7.78937C64.3803 7.32259 65.0907 6.26308 65.2969 4.72555C60.3712 3.52957 58.7906 8.02893 54.3004 8.51822C56.4081 11.7076 59.57 8.81475 61.4711 7.07178C61.9522 8.48445 62.5022 7.48193 63.029 7.78937ZM64.1514 28.929C67.6794 28.6448 67.7711 30.4785 70.5201 31.2074C73.2465 31.9474 75.3311 30.0342 77.7596 29.5787C79.2259 29.3163 88.8934 30.8883 85.5026 28.2118C86.8543 28.2346 87.2897 27.517 88.1143 27.1523C85.1131 25.1022 83.8764 25.1138 82.3641 22.2663C81.7914 21.1615 79.2486 15.7964 77.1866 18.3481C76.2474 19.5437 79.7067 22.3346 77.118 22.1408C75.8123 22.0268 75.9039 18.5528 73.4528 18.4163C73.7506 18.9172 73.9794 19.5096 74.2543 20.0337C73.2464 20.4435 72.7423 20.6032 71.6658 20.8424C71.9177 20.3865 72.0323 19.7259 72.2156 19.2363C70.4054 18.5528 68.6876 18.8947 67.6564 19.5437C68.4584 16.5144 65.5718 17.9608 64.0828 18.6098C61.4024 19.7945 61.3108 20.3865 60.0968 22.4598C61.8836 23.1542 63.8079 22.0155 65.4571 23.2685C64.1284 23.4053 62.8684 23.8834 61.8836 24.6579C63.6934 25.626 69.5583 24.1567 70.5201 25.7857C70.864 26.3893 64.0828 26.6967 63.029 27.312C63.3954 27.8586 63.7849 28.394 64.1514 28.929ZM77.7596 32.0959C79.2259 31.7082 80.1422 31.4008 80.4627 30.1595C78.9507 30.4328 77.4389 30.9794 76.1328 31.7765C76.6829 31.8792 77.2325 31.9932 77.7596 32.0959ZM55.0337 23.3484C57.92 23.781 59.0885 19.9539 61.5857 18.6784C65.6404 16.6051 66.6259 15.9903 61.4254 14.9311C60.0967 14.6578 53.3843 13.0858 51.9866 14.2477C51.208 14.8966 50.9786 19.6693 49.2604 21.5713C51.1389 21.6852 52.9031 22.699 53.6591 24.487C54.1172 24.1113 54.5753 23.724 55.0337 23.3484ZM-12.8233 52.6773C-16.2597 52.9731 -14.5185 50.4675 -12.8233 52.6773V52.6773ZM14.5533 50.9005C14.9425 48.3264 18.4018 51.4929 20.1886 52.0167C22.5025 52.7001 24.7018 52.1989 26.9471 52.9277C30.9105 54.2036 33.6367 57.8027 37.6227 58.4862C37.9892 59.3062 38.2871 60.1265 38.9058 60.7642C39.1117 60.9918 40.8298 61.7664 41.0361 62.1308C42.4108 64.1812 43.2124 66.1859 44.4039 67.7804C46.5111 70.605 47.3132 70.8558 50.3144 72.6325C52.4677 73.9084 55.0338 76.0724 54.7129 79.0792C52.2844 76.1178 49.7416 72.0402 45.5949 72.5186C47.5423 74.8419 50.429 75.6622 51.6661 78.578C52.9258 81.5852 51.2996 84.5009 51.2996 87.0064C51.2536 91.6764 53.636 98.192 56.8432 101.677C58.699 103.704 61.5627 103.795 63.2579 106.415C64.6326 108.488 65.801 111.131 67.0841 113.273C67.5192 113.956 66.5569 114.297 67.5421 115.731C68.1379 116.597 69.7871 117.371 70.5891 118.192C71.1388 118.738 73.8192 121.883 74.0255 123.068C76.5452 120.516 66.7172 111.586 66.4423 107.919C69.1913 107.576 72.3303 113.819 74.3459 115.983C76.9347 118.738 79.2716 122.475 81.929 125.482C78.0805 128.078 93.3605 133.728 95.8577 134.092C96.6137 134.206 97.4613 133.273 98.859 133.683C100.463 134.139 101.172 135.825 102.456 136.576C103.739 137.374 107.931 138.057 108.069 137.875C110.291 139.424 111.413 142.452 112.581 143.569C114.277 145.118 118.125 146.303 120.531 147.351C119.867 143.25 124.379 146.987 124.563 145.62C124.93 142.933 118.904 144.617 117.232 143.523C113.2 140.835 117.507 137.829 115.445 134.845C113.681 132.316 109.191 134.32 107.015 133.364C108.939 131.269 111.803 124.616 107.656 124.866C103.899 125.118 105.732 127.714 103.418 129.536C101.287 131.223 97.8507 130.129 96.1785 128.694C92.5129 125.482 92.6506 116.644 94.8499 113.408C97.8738 108.99 102.685 113.273 106.029 112.223C105.228 109.445 108.389 109.855 110.359 109.991C110.176 109.97 114.849 110.859 114.254 110.448C115.72 111.472 118.102 119.104 119.637 118.967C121.493 118.808 118.217 108.67 120.714 105.822C122.318 103.977 125.685 103.522 126.648 101.334C127.472 99.4679 126.281 98.5561 125.754 96.2324C127.129 96.5964 126.419 95.4807 127.862 96.9605C128.389 95.8222 129.534 92.7929 130.359 91.9954C131.39 91.084 134.047 90.9018 135.765 90.4234C133.268 85.731 142.753 82.3593 146.281 83.1797C145.8 83.0885 142.867 84.2276 142.455 85.0475C141.218 87.5534 144.654 85.4119 144.769 85.3891C147.701 85.0475 151 82.8149 151.893 80.2182C149.557 81.3118 148.893 83.1797 146.029 81.6759C142.226 79.6258 145.891 77.8034 145.021 76.4364C142.615 72.7465 136.567 79.4436 134.047 81.0382C134.712 79.8084 135.582 78.7377 136.659 77.8491C136.04 77.7123 135.399 77.5301 134.781 77.3707C137.965 78.0771 139.798 74.1131 142.524 73.3385C144.334 72.8148 146.854 73.4753 148.686 73.3385C151.55 73.0652 151.252 72.7465 153.68 71.6986C155.903 70.7872 159.43 70.4456 158.377 67.6207C157.3 64.7278 153.52 66.7779 151.252 67.0058C152.329 65.1833 154.528 65.5706 156.201 64.1812C153.337 63.7257 150.748 62.632 149.122 60.1265C150.886 59.0557 145.869 53.6794 144.975 51.698C143.532 53.2925 143.532 55.8663 141.218 56.3904C138.973 56.8688 139.271 54.5455 136.751 55.2061C138.332 49.7844 133.933 47.9162 129.694 46.8458C124.884 45.5929 121.677 48.0302 125.09 52.996H123.944C123.578 53.8391 123.83 54.3629 123.303 55.2743C127.816 57.1422 126.785 63.9532 121.585 63.7714C123.074 65.3656 124.402 71.3113 121.103 71.6075C117.896 71.8351 117.14 65.6389 117.438 63.2926C113.727 62.6778 111.482 62.1308 108.275 60.4909C106.854 59.7846 105.182 59.2608 103.922 58.7595C102.799 58.2811 102.524 59.3062 101.562 58.7138C100.829 58.2811 100.714 56.6638 100.233 56.0718C98.5837 54.0439 97.7365 55.2061 98.057 51.9027C98.1716 50.5358 99.5463 48.3717 100.531 47.3696C101.585 46.3217 104.059 46.0255 103.807 44.4992C103.624 43.4967 99.5919 42.9276 98.7903 42.6314C100.898 42.8361 104.815 44.7954 105.388 42.153C107.862 43.6336 109.03 41.9479 109.695 39.875C107.45 40.0231 105.755 38.9295 103.83 38.0184C105.296 38.0751 113.727 40.1142 110.268 36.4697C114.024 36.1847 111.459 42.153 109.786 42.7908C111.161 44.2488 111.688 44.6132 113.773 44.5903C113.658 44.5903 115.697 43.6336 116.293 43.5196C117.026 43.406 117.828 44.2717 118.423 44.1802C123.097 43.3831 113.91 40.1712 113.131 38.4968C115.239 38.417 113.956 38.4511 114.826 37.3691C118.034 37.1303 119.5 34.4305 117.347 31.7765C121.722 31.0364 116.316 28.2002 114.758 27.4826C117.438 27.0724 120.302 28.337 123.143 27.312C122.707 26.9134 122.272 26.5145 121.837 26.0931C124.815 26.9588 126.877 28.7584 129.488 30.7061C130.588 31.5148 132.627 32.7561 132.696 34.3964C132.788 36.6058 128.595 36.515 130.474 39.3055C128.916 39.6587 123.372 38.4398 123.624 41.1734C123.876 43.8386 127.931 40.9226 128.961 41.0369C132.237 41.4467 132.489 43.7018 134.574 45.4106C136.636 47.0505 139.912 46.823 142.363 48.1442C142.455 46.0938 139.293 45.0687 138.125 43.2691C140.279 44.317 142.432 45.3878 144.471 46.595C144.746 46.0938 145.181 44.4535 145.364 43.8386C143.372 41.9479 141.058 40.2394 139.11 37.6881C140.6 35.5241 141.172 37.0275 142.913 37.9386C145.708 39.4079 144.494 40.2394 146.716 39.6358C146.556 39.6699 149.465 37.3462 149.442 37.3691C150.381 35.6265 150.542 36.9252 149.282 35.3419C148.022 33.7358 135.582 30.3075 141.791 29.0205C141.172 28.8495 140.554 28.6902 139.912 28.5304C140.439 28.1432 140.325 28.0978 141.058 27.8016C140.095 27.4143 139.729 26.6739 138.537 26.4347C138.721 26.1273 138.904 25.8427 139.11 25.5352C136.819 25.0568 135.743 24.544 133.658 23.9973C134.024 23.7582 134.414 23.5073 134.781 23.2685C130.657 23.1658 130.405 20.8424 127.541 19.9426C125.342 19.2592 121.103 21.7078 120.164 21.2069C118.721 20.4551 120.531 19.6806 119.592 18.3365C117.988 16.0244 118.217 16.3206 115.606 16.7986C111.665 17.5278 111.871 20.6715 113.865 23.2685C109.741 23.8039 110.314 17.6759 113.269 16.2295C110.13 16.1042 107.198 16.4458 105.938 19.7717C104.242 24.3164 107.633 22.2547 109.283 24.6579C108.091 24.3618 107.381 24.8518 106.281 24.806C107.289 26.2412 111.825 26.7196 113.773 27.312C112.581 27.79 111.963 35.7517 108.802 34.1231C107.381 33.3942 108.847 31.1729 108.802 31.1275C107.541 29.7264 106.396 30.2731 105.961 30.0342C105.434 29.7381 103.028 28.9635 102.089 27.5624C100.783 25.6489 100.44 20.364 96.4534 23.1317C92.6962 25.7287 100.486 30.4099 96.087 29.4988C96.7513 31.3209 98.126 31.2302 99.6836 29.8292C99.6376 32.6084 95.9723 31.6629 97.0722 34.8519C95.2393 33.6106 95.6745 34.1231 95.7661 32.2552C94.0479 31.7881 95.4452 32.1754 94.552 30.8771H95.6058C95.6975 29.0658 94.4834 27.9613 92.6736 27.6423C92.2152 28.0978 91.1383 29.2593 90.7262 29.7381C91.5738 30.0684 92.2381 30.9453 93.086 31.2868C91.1383 34.7837 87.3588 33.2004 84.1283 32.46C82.0206 31.9816 81.7683 31.162 79.7297 32.0044C76.7284 33.269 78.1261 33.4625 77.691 36.4697C76.3623 31.754 70.085 33.3372 66.2821 32.9841C66.603 32.8019 66.9691 31.9932 68.0689 31.6171C66.1905 30.1025 59.8675 28.3145 57.6452 27.8815C54.8736 27.3573 52.1701 30.1936 51.1389 26.8448C50.3373 29.5442 49.7646 27.8357 48.4816 27.7675C48.0694 27.7446 47.6109 25.9338 46.6487 25.8198C45.366 25.6714 46.168 26.6285 45.4577 26.765C44.0373 27.084 40.1195 29.1911 38.4247 30.1595C39.9136 28.2118 42.3421 28.4851 43.785 26.7537C41.036 26.765 37.7829 28.2571 35.0339 28.8266C30.4061 29.7834 28.5507 27.8815 23.8316 27.3573C20.2806 26.9701 17.0275 26.2412 13.3389 25.945C9.44439 25.626 7.4284 24.2478 3.39631 24.7266C3.53392 24.4304 3.67109 24.1342 3.8087 23.838C1.33455 23.3825 -2.01018 24.9541 -4.20947 25.6147C-7.23335 26.5145 -7.43956 28.337 -9.54719 29.6241C-12.5485 31.4349 -14.6792 29.5101 -12.2736 32.665C-10.7617 34.6585 -7.48556 34.9318 -6.38573 37.5175C-8.10391 38.0867 -9.95966 37.9956 -10.0513 36.0708C-11.9984 37.4489 -14.1976 36.9589 -15.8242 38.8954C-13.7169 39.7498 -13.7396 41.4695 -11.9298 41.9251C-9.84509 42.4492 -7.09612 41.0369 -5.14866 40.8543C-4.87383 46.7772 -11.7921 42.5857 -12.8003 47.8251C-13.0526 49.2374 -9.77647 55.16 -7.66881 51.698C-6.52335 52.7912 -6.20245 54.0667 -6.70655 55.5701C-4.64452 55.16 -2.33104 55.8663 -1.32316 54.6137C-0.681477 54.6137 0.166133 54.7959 1.03669 54.7731C-0.498218 61.5613 -8.26451 60.4452 -11.9068 64.5913C-6.63792 65.8668 2.11359 57.8714 6.64978 55.3426C6.2373 54.7502 5.84781 54.1582 5.43533 53.5658C8.20735 52.6544 9.23815 48.0756 12.4457 50.1485C10.1777 50.4222 8.91764 51.7434 9.58199 53.8849C11.2312 52.9052 13.0871 52.062 15.0341 51.9256C14.8739 51.6065 14.7136 51.2421 14.5533 50.9005ZM7.88652 57.5294V56.0718C6.23729 57.2561 3.83176 57.5748 5.18346 59.7163C6.25992 59.2608 7.24513 58.5091 7.88652 57.5294Z" fill="#1CB45F"/>
</g>
</svg>
