<svg width="241" height="241" viewBox="0 0 241 241" fill="none" xmlns="http://www.w3.org/2000/svg">
<path d="M205.69 204.655C252.507 157.837 252.507 81.9306 205.69 35.1129C158.872 -11.7048 82.9655 -11.7048 36.1479 35.1129C-10.6698 81.9306 -10.6698 157.837 36.1479 204.655C82.9656 251.472 158.872 251.472 205.69 204.655Z" fill="#73D4FF"/>
<mask id="mask0_8260_7685" style="mask-type:luminance" maskUnits="userSpaceOnUse" x="1" y="0" width="240" height="240">
<path d="M205.69 204.655C252.507 157.837 252.507 81.9306 205.69 35.1129C158.872 -11.7048 82.9655 -11.7048 36.1479 35.1129C-10.6698 81.9306 -10.6698 157.837 36.1479 204.655C82.9656 251.472 158.872 251.472 205.69 204.655Z" fill="white"/>
</mask>
<g mask="url(#mask0_8260_7685)">
<path d="M-110.02 88.0166C-108.547 96.5326 -102.383 82.9402 -110.02 88.0166V88.0166ZM-116.218 88.5178C-114.141 88.5178 -113.002 87.2822 -113.337 85.679C-114.04 86.0131 -119.702 88.5178 -116.218 88.5178ZM-103.823 46.9732C-102.215 46.2219 -101.244 45.2534 -99.3007 45.0528C-102.181 42.3645 -106.101 42.8658 -109.786 42.9158C-109.753 46.4725 -107.341 47.9087 -103.823 46.9732ZM256.125 229.549C254.788 231.252 255.724 240.67 259.274 237.431C261.285 235.66 256.798 230.25 256.125 229.549ZM402.885 350.207C403.756 353.011 406.003 356.353 408.648 357.088C408.85 356.52 408.85 355.952 408.648 355.45H410.623C410.726 353.08 411.396 352.577 411.396 350.34C409.588 350.843 402.686 348.938 402.885 350.207C402.988 350.607 402.854 350.074 402.885 350.207ZM410.257 346.801C410.257 348.005 411.327 348.839 412.301 349.003C412.267 347.201 411.529 346.801 410.257 346.801C410.425 346.801 410.257 346.934 410.257 346.801ZM401.581 346.199C400.274 346.835 401.111 347.868 402.048 348.203C402.116 348.005 402.349 345.898 401.581 346.199C401.715 346.134 401.379 346.267 401.581 346.199ZM458.628 365.671C462.48 365.671 463.385 358.49 468.044 357.553C465.999 353.278 473.738 353.948 468.178 350.573C463.756 347.936 465.529 352.444 462.915 355.316C460.607 357.888 456.25 358.524 454.576 361.496C453.303 363.8 453.705 366.304 458.628 365.671C458.731 365.671 458.463 365.671 458.628 365.671ZM455.647 366.837C455.245 367.138 455.111 367.34 454.81 367.74H456.721C456.82 367.104 456.652 366.102 455.647 366.837C455.815 366.704 455.479 366.971 455.647 366.837ZM470.788 340.32C470.788 341.49 470.891 344.531 470.891 344.797C470.891 344.531 469.014 344.664 468.98 346.066C468.98 347.868 470.352 345.932 470.654 347.068C470.589 346.934 472.599 351.342 473.738 351.008C474.174 350.874 475.313 348.736 476.016 348.07C479.566 344.729 482.012 340.724 474.842 341.993C474.808 340.054 474.006 337.048 472.665 339.989C471.193 339.052 470.991 336.015 469.282 334.312C466.099 331.105 470.788 339.121 470.788 340.32ZM447.205 298.21C449.016 300.984 450.59 303.254 454.442 303.654C454.141 301.982 448.748 298.142 447.205 298.21ZM370.393 277.069C367.378 277.606 371.933 278.239 373.004 278.14V277.203C372.3 277.138 369.487 277.138 370.393 277.069ZM397.294 278.273C393.74 282.647 398.531 293.368 390.625 291.23C390.659 291.23 383.39 286.59 383.257 286.221C381.881 283.249 384.697 281.679 385.599 279.34C381.579 278.807 377.662 276.769 373.81 276.769C374.578 277.438 374.478 277.938 375.854 278.742C375.147 278.307 371.096 281.012 370.022 281.679C366.808 283.717 371.799 284.118 366.438 285.154C364.664 285.485 363.858 283.016 360.98 284.083C358.599 284.952 358.298 288.126 355.584 288.126C355.989 288.994 356.088 290.396 356.558 291.23H354.48V289.627C351.331 289.459 350.26 296.138 346.675 297.844C343.962 299.144 339.774 299.547 336.793 300.713C335.486 301.182 334.614 305.457 333.075 301.883C331.767 305.857 331.466 308.195 333.678 312.101C328.92 309.964 334.08 317.279 335.05 319.884C337.06 325.161 339.002 328.601 334.985 332.041C337.729 332.041 339.338 335.078 342.854 334.51C344.865 334.244 345.869 331.84 348.116 331.371C349.89 330.906 351.766 332.64 353.276 332.24C354.881 331.771 354.915 330.503 356.257 329.969C357.529 329.469 358.936 328.033 360.376 327.431C361.381 326.997 362.253 328.468 363.457 328.033C367.714 326.43 372.536 323.957 377.528 326.563C380.509 328.167 383.39 339.52 386.574 329.302C388.852 330.069 386.471 331.638 386.807 333.577C389.62 331.904 388.549 334.244 388.347 336.781C392.971 335.912 390.892 339.955 394.309 342.728C394.714 343.06 398.933 344.363 399.77 344.397C402.116 344.462 401.379 342.092 402.854 342.024C404.325 341.993 404.36 344.797 405.331 344.596C410.089 343.594 415.08 341.791 416.822 337.383C417.961 334.51 418.229 331.539 420.036 328.468C423.655 322.323 424.324 315.877 420.976 309.263C420.239 307.727 419.268 307.259 418.129 306.058C417.357 305.224 417.357 303.719 416.822 303.087C416.654 302.919 414.208 302.218 413.604 301.65C412.836 300.915 412.902 299.144 412.065 298.309C410.926 297.242 408.113 296.439 407.242 295.372C405.097 292.732 404.494 287.558 402.885 285.02C402.384 284.217 400.909 283.615 400.141 282.414C399.235 280.944 399.705 277.336 397.526 276.803C397.393 277.305 397.324 277.771 397.294 278.273ZM437.322 273.629C437.994 274.665 438.732 274.334 439.603 273.998C439.167 272.829 436.619 272.128 437.322 273.629C437.425 273.797 437.257 273.53 437.322 273.629ZM425.665 265.647C425.665 266.649 427.978 267.922 428.612 267.785C428.043 266.318 426.334 265.415 426.334 264.013C426.033 263.979 425.7 264.013 425.398 264.112C425.6 264.813 425.665 264.98 425.665 265.647ZM411.931 264.245C412.198 267.286 420.942 265.784 420.139 261.041C419.704 261.106 411.931 265.381 411.931 264.245C411.965 264.615 411.931 264.047 411.931 264.245ZM372.033 270.192C372.033 270.658 375.449 271.194 373.81 267.922C372.403 268.12 371.799 268.889 372.033 270.192ZM359.773 268.756C360.006 269.99 361.313 269.724 362.386 269.255C361.481 268.455 361.011 269.022 359.773 268.756ZM379.905 264.013C379.137 264.512 378.465 265.647 378.465 266.649C378.465 268.588 382.955 261.975 379.905 264.013ZM376.557 260.206C378.732 259.235 381.48 261.14 383.589 262.108C385.366 262.942 387.109 262.443 388.347 264.615C390.021 267.518 388.114 266.752 388.481 268.421C388.584 268.855 386.138 268.787 387.174 270.726C387.644 271.628 390.391 269.59 391.328 269.823C394.309 270.658 395.482 273.332 399.201 272.196C401.478 271.526 401.379 268.253 405.132 269.59C406.603 270.124 406.939 271.926 408.247 272.661C410.757 274.132 409.519 273.663 412.936 274.467C418.095 275.633 416.386 276.002 413.841 272.463C413.47 271.926 410.96 272.227 410.524 271.861C410.757 272.059 409.118 267.72 409.451 268.821C409.351 268.455 406.236 266.184 410.257 266.55C409.485 265.114 405.801 262.443 403.958 261.407C400.473 259.403 397.76 258.736 393.873 257.566C388.381 255.799 388.684 256.866 384.327 257.566C381.613 258.035 378.667 256.732 374.88 257.7C375.284 259.17 375.854 260.572 376.557 260.206C376.691 260.172 376.454 260.272 376.557 260.206ZM357.628 255.097C355.553 255.563 359.505 256.065 360.243 255.932C360.243 254.561 358.767 254.896 357.628 255.097ZM382.286 253.292C382.42 254.363 382.584 254.595 382.519 255.829H384.896C384.529 254.694 383.891 255.231 383.891 253.292H382.286C382.886 253.227 382.317 253.46 382.286 253.292ZM372.269 253.426C371.7 253.361 371.196 253.494 370.726 253.928C373.206 255.365 375.885 257.433 379.167 255.932C376.423 250.888 374.78 254.393 372.269 253.426ZM371.699 252.625C366.105 251.555 374.948 249.352 371.699 252.625C371.497 252.591 372.067 252.225 371.699 252.625ZM369.288 255.562C370.156 255.963 370.527 258.168 370.893 255.365C369.689 255.563 369.556 255.665 369.288 255.562ZM365.031 258.302C365.031 259.17 370.022 259.971 371.463 259.971C371.161 257.3 365.467 258.035 365.031 258.302ZM363.124 258.637C362.486 258.504 361.851 258.336 361.179 258.202C362.318 260.973 363.625 258.938 363.124 258.637C363.288 258.736 362.822 258.504 363.124 258.637ZM366.07 245.744C364.362 248.084 363.155 248.416 363.289 251.756C363.526 256.466 364.699 250.754 367.512 251.189C367.679 249.619 366.873 248.251 365.467 248.35C365.803 247.414 366.07 246.681 366.07 245.744C366.07 245.981 365.837 246.08 366.07 245.744ZM343.694 258.435C343.694 258.435 346.137 261.509 345.839 261.174C345.735 261.041 346.206 263.914 346.305 264.245C348.014 263.11 347.612 259.704 347.612 257.833H349.053C349.221 258.603 351.801 264.348 352.806 263.88C354.614 263.079 351.265 256.766 350.226 255.43C361.248 255.43 343.694 249.017 343.694 258.435ZM357.495 248.35C355.653 249.017 345.101 247.615 345.602 252.023C349.053 250.42 349.993 250.754 353.677 250.019C354.816 249.753 355.183 251.055 356.558 250.488C357.293 250.152 360.074 247.28 357.495 248.35C357.965 248.148 357.361 248.416 357.495 248.35ZM355.015 273.865C355.015 275.934 363.055 271.994 363.927 271.126C360.778 269.556 355.553 272.928 355.015 273.865ZM354.044 275.869C353.073 276.002 352.84 276.368 353.341 277.069H354.747C354.88 276.471 354.85 275.602 354.044 275.869C354.212 275.801 353.708 276.002 354.044 275.869ZM346.542 271.027C348.617 273.096 355.117 271.393 357.495 270.391C355.584 270.059 347.444 270.059 346.542 271.027ZM345.705 272.562C342.72 273.465 348.181 274.932 349.152 274.867C348.751 274.398 346.741 272.36 345.705 272.562C345.839 272.528 345.334 272.661 345.705 272.562ZM339.739 270.524C338.031 270.658 344.027 271.027 345.235 271.027C344.864 271.126 344.799 270.924 344.998 270.391C343.022 270.391 341.616 270.192 339.739 270.524C340.11 270.49 339.438 270.558 339.739 270.524ZM313.912 266.516C316.626 268.654 320.478 269.29 325.133 269.758C328.821 270.158 333.41 272.059 337.362 271.491C336.257 269.29 333.946 268.688 331.431 269.19C331.599 267.518 332.807 268.322 334.045 267.586C327.246 266.451 320.979 266.318 313.912 266.516ZM306.644 263.079C306.14 264.18 306.476 264.714 306.644 263.079V263.079ZM323.559 246.914C320.409 249.116 322.389 253.094 324.162 255.43C326.742 258.938 327.816 258.568 332.738 259.372C337.699 260.237 336.124 261.509 338.937 257.369C339.07 257.166 339.572 253.894 340.11 252.96C340.844 251.756 343.561 251.223 344.398 249.418C341.249 247.383 342.12 246.846 341.417 242.338C343.828 242.472 343.091 240.868 345.468 240.034C345.67 240.601 339.739 235.926 340.244 235.861C338.367 235.995 336.992 239.199 335.52 240.502C332.237 243.409 326.509 249.116 323.559 246.914ZM298.435 253.928C298.569 255.498 301.183 259.372 302.723 259.704C302.39 257.566 298.435 254.095 298.435 253.928C298.47 254.294 298.435 253.692 298.435 253.928ZM294.617 248.685C295.221 249.821 296.36 250.152 296.895 251.322C296.895 249.886 296.493 248.85 294.984 248.217C294.548 249.352 294.953 248.785 294.617 248.685ZM292.84 245.577C292.84 245.211 292.106 244.209 292.106 245.276C292.106 246.247 292.706 246.681 293.543 246.815C293.845 246.213 293.612 245.813 292.84 245.577ZM293.677 240.136C292.339 240.136 291.601 238.799 290.329 238.967C290.898 241.736 295.286 244.476 296.761 246.346C299.073 249.185 300.98 253.391 303.426 256.564C305.104 258.668 309.055 264.447 311.299 264.481C316.259 264.615 313.443 259.838 317.364 258.637C316.928 255.563 314.081 254.428 311.635 256.164C311.367 252.659 298.37 240.67 293.677 240.136C294.216 240.201 293.478 240.136 293.677 240.136ZM355.252 231.918C352.672 232.186 350.425 233.922 351.801 236.795C353.876 231.785 356.925 237.531 360.243 238.967C359.07 236.46 361.179 235.926 361.213 235.861C361.282 235.393 362.253 229.313 360.14 229.313C357.996 229.313 357.628 233.523 355.252 231.918C355.42 232.052 354.881 231.987 355.252 231.918ZM348.216 220.9C348.147 221.766 350.895 228.513 352.87 228.147C351.865 230.349 355.42 231.853 354.548 227.545C354.143 225.709 350.226 221.232 348.216 220.9C348.349 220.965 348.181 221.232 348.216 220.9ZM351.667 220.565C354.648 222.634 356.623 226.608 359.841 227.244C359.841 223.605 356.455 222.768 356.455 219.529C354.514 219.529 353.543 220.565 351.667 220.565C352.034 220.832 352.034 220.565 351.667 220.565ZM347.142 222.703C345.369 226.109 340.813 229.515 339.873 232.319C343.828 232.319 347.142 226.608 347.142 222.703C347.142 223.103 347.077 222.87 347.142 222.703ZM348.988 208.777C345.468 210.679 346.339 217.826 350.36 219.095C350.191 216.824 355.283 208.777 348.988 208.777ZM351.296 193.782C351.296 192.646 346.573 196.487 347.276 200.861H348.686C348.686 197.923 351.296 196.487 351.296 193.782ZM412.065 140.648C409.687 141.083 408.147 143.02 405.028 143.254C401.612 143.521 400.038 142.853 396.453 140.849C396.319 141.917 394.913 150.033 393.472 147.06C392.837 148.162 390.694 153.305 394.175 151.669V152.872C392.065 153.239 391.06 159.984 388.718 162.625C388.718 161.889 388.783 161.486 388.718 160.72C387.342 162.057 386.941 162.522 386.337 164.259C385.802 163.524 384.931 164.793 385.267 162.724C383.723 163.825 383.154 165.33 382.92 167.6C378.162 165.528 369.288 169.467 368.448 174.679C369.353 174.744 370.626 174.679 371.196 174.679C371.196 176.984 368.65 178.017 372.166 179.019C372.166 176.584 376.087 173.075 372.166 172.744C373.003 170.271 378.934 170.271 381.445 169.837C378.732 171.54 374.379 169.902 375.384 174.477C377.593 173.544 379.706 172.542 381.212 171.14C382.317 173.678 385.366 171.708 384.896 169.501C394.309 168.435 392.536 167.966 394.779 160.118C396.017 155.777 397.492 152.37 393.373 148.964C396.155 148.43 400.81 151.034 400.641 147.996C402.686 148.43 412.065 143.254 412.065 140.648C412.065 140.782 411.896 140.648 412.065 140.648ZM416.486 138.378C415.481 138.544 414.98 139.246 414.075 139.713C415.549 140.582 415.951 139.647 416.486 138.378C416.318 138.411 416.287 138.845 416.486 138.378ZM428.146 125.687C427.878 126.655 427.274 127.557 426.705 128.426C428.647 127.624 428.112 126.088 428.146 125.687ZM456.617 113.197C456.384 113.197 455.949 111.995 455.314 112.496C455.18 112.93 455.146 113.398 455.18 113.865C455.582 113.965 457.087 114.132 456.617 113.197ZM453.403 113.565C452.933 112.229 453.067 111.394 451.829 110.459C451.829 111.728 452.096 112.83 452.196 114.065C453.036 114.299 453.636 114.332 453.403 113.565C453.472 113.731 453.335 113.398 453.403 113.565ZM447.174 100.674C448.076 100.674 448.679 99.605 448.748 98.9702C446.669 98.1694 446.471 99.4385 445.664 100.674C446.169 100.774 446.669 100.774 447.174 100.674ZM502.213 84.1427C504.22 84.4769 507.002 85.3453 509.012 85.0777C507.304 81.7386 503.62 84.3098 502.213 84.1427C502.58 84.1763 502.011 84.0762 502.213 84.1427ZM481.141 55.022C483.72 55.6063 486.904 54.4543 489.583 54.4543C488.879 53.3687 486.701 51.849 484.894 51.949C484.255 51.9661 479.131 54.5208 481.141 55.022C481.274 55.055 480.908 54.9715 481.141 55.022ZM406.706 36.8715C409.049 37.7894 416.788 40.5947 416.788 36.2531C413.47 36.0866 408.415 36.5538 407.039 34.2497C406.806 34.4833 405.968 36.5538 406.706 36.8715C406.84 36.9045 406.504 36.7544 406.706 36.8715ZM392.402 44.4685C395.283 44.9192 397.863 44.3185 400.607 45.2869C399.67 41.246 395.18 42.281 392.402 44.4685ZM394.779 41.4796C396.354 41.4796 393.442 40.144 392.536 40.1775C392.536 41.6132 393.506 41.4796 394.779 41.4796ZM385.867 36.1361C388.446 39.8934 402.988 38.8749 403.958 34.1327C401.647 33.6985 398.731 32.3123 398.731 36.0866C398.23 36.0025 397.76 36.0025 397.294 36.0866C399.805 30.8431 394.309 33.832 392.467 33.782C388.783 33.6655 387.846 31.8781 385.867 36.1361ZM383.356 35.1847C383.154 34.7505 383.154 34.2497 383.356 33.7655C380.711 33.3978 382.049 36.1696 383.356 35.1847C383.322 35.0341 383.123 35.3682 383.356 35.1847ZM382.049 40.2941C382.855 42.231 382.752 43.3995 385.133 43.0829C384.495 42.2145 382.92 40.8783 382.049 40.2941ZM318.67 22.8448C317.998 21.5928 315.988 21.2751 314.65 21.9099C314.983 22.2941 319.24 24.281 318.67 22.8448C318.736 23.0119 318.567 22.6442 318.67 22.8448ZM290.933 28.422C291.735 28.1548 292.641 28.422 293.444 28.422C293.142 25.4331 291.869 27.7872 290.933 28.422ZM301.282 24.1475C301.752 24.1475 313.041 21.7428 313.309 21.4257C316.091 17.7855 307.749 18.1526 307.114 17.869C307.683 17.2842 307.917 17.2677 308.084 16.5499C303.159 15.6979 300.747 24.1475 301.282 24.1475ZM293.677 12.4084C285.372 13.611 286.542 18.2697 294.181 18.971C299.975 19.5218 300.38 19.6558 300.078 16.1992C299.708 11.507 300.044 13.8281 295.687 13.8281C296.157 13.0432 296.123 13.2268 296.291 12.4254C295.389 12.4084 294.548 12.3924 293.677 12.4084ZM286.512 12.8767C289.825 14.6295 294.483 10.0378 296.394 8.83522C292.072 6.76475 286.141 6.53115 282.69 11.0893C282.892 11.4735 285.705 12.4919 286.512 12.8767C286.676 12.9767 286.409 12.7926 286.512 12.8767ZM285.571 13.9452C283.997 13.9452 282.858 13.0432 281.218 13.3439C281.417 18.1697 287.75 13.9452 285.571 13.9452ZM280.68 6.21401C277.098 6.21401 279.877 7.70022 279.609 8.1174C278.906 9.28593 284.233 6.21401 280.68 6.21401ZM187.756 61.9012C185.677 61.5506 182.226 59.113 183.735 64.0388C185.073 64.0388 187.519 63.3539 187.756 61.9012C187.721 62.0513 187.622 61.8848 187.756 61.9012ZM196.932 44.7027C194.822 44.5021 190.469 49.9956 190.469 52.8845C191.708 52.6339 192.545 51.849 193.248 53.3517C193.683 53.1516 193.851 52.834 193.718 52.4173C196.431 53.7859 194.554 55.3221 196.03 55.9735C197.937 56.8084 201.624 56.5077 203.734 56.5077C203.466 53.6188 200.249 52.7009 200.05 50.0292C199.779 46.7231 202.561 44.8027 204.571 42.7822C209.329 38.0565 213.781 35.4518 220.752 33.7655C222.793 33.2648 231.437 31.4774 230.532 29.2569C229.194 26.0008 224.203 29.6575 222.426 30.1918C218.103 31.578 203.734 31.9451 203.734 37.2051C202.829 37.0881 202.026 37.0551 201.12 37.2051C203.332 40.9954 195.525 40.8618 196.229 43.3995C197.035 43.233 197.268 42.9323 198.139 43.0323C197.703 44.1514 198.877 44.8527 196.932 44.7027C197.302 44.7362 196.599 44.6691 196.932 44.7027ZM232.779 45.7711C234.652 45.7711 235.691 44.6021 236.195 44.335C237.2 43.8007 229.794 45.7711 232.779 45.7711ZM215.761 8.1174C218.44 12.1413 220.248 8.31748 223.263 7.76674C220.484 6.19699 218.371 8.98582 215.761 8.1174ZM209.929 8.1174C209.929 9.50304 208.958 9.10235 208.255 10.2549C210.334 10.9227 212.543 10.9727 214.924 10.555C212.945 8.06738 213.147 6.247 209.929 8.1174ZM209.092 12.4084C208.458 12.592 207.854 12.7596 207.185 12.7596C207.518 14.3959 208.591 13.4774 209.929 13.2268C209.795 12.5755 209.898 12.2083 209.092 12.4084C209.261 12.3754 208.893 12.459 209.092 12.4084ZM200.753 11.6906C201.858 12.6425 202.026 14.1117 203.734 11.9242C203.734 14.5794 207.185 12.0913 207.651 11.6906C207.686 11.3569 207.651 11.0557 207.518 10.7391C205.408 10.3385 202.06 11.2734 200.753 11.6906ZM193.95 11.9242C195.926 9.92075 200.115 9.05233 203.13 9.77069C202.427 5.49565 207.051 11.2734 207.651 7.299C206.616 7.299 205.71 7.46608 204.671 7.299C205.072 6.71473 205.844 5.34559 206.111 5.04495C204.472 5.04495 203.398 6.07992 202.527 6.34758C203.096 6.164 199.645 7.08189 199.312 7.299C198.441 7.83324 198.139 9.03584 196.932 9.90373C195.258 11.1063 194.455 10.1708 193.95 11.9242ZM184.438 8.71816C180.919 8.71816 180.048 9.95428 176.7 9.30297C176.868 11.8577 181.255 10.1379 183.265 10.1379C179.111 13.1433 186.113 13.8946 188.157 11.2063C191.44 6.81476 188.325 8.71816 184.438 8.71816ZM116.199 12.7596C116.971 14.713 121.293 12.0913 122.13 14.2953C120.957 14.2288 119.749 14.3453 118.545 14.2953C120.724 20.3237 132.613 14.9466 135.361 13.3439C132.682 10.3885 128.929 12.8431 126.552 12.1413C126.987 11.2564 127.591 11.4234 127.389 10.3714C124.576 11.4735 125.31 10.522 123.671 13.3439C122.631 10.6386 114.961 10.0208 116.199 12.7596C116.268 12.9767 116.065 12.4919 116.199 12.7596ZM111.41 21.7763C111.41 22.4271 105.044 22.0435 104.276 24.6317C105.816 24.2975 110.639 23.1955 111.276 24.0304C110.302 24.6647 105.112 25.5001 105.044 25.9338C104.91 26.7357 109.568 28.9897 110.574 30.3254C113.654 28.0048 116.6 23.4961 116.6 20.2901C117.506 20.1566 119.115 20.123 119.986 20.2901C119.585 23.1785 120.319 21.125 121.561 22.7948C122.463 24.0139 120.59 25.0489 120.59 26.3009C123.873 24.264 124.205 26.9693 125.478 26.7692C126.785 26.5686 129.131 25.1659 130.469 24.8653C129.028 22.9619 127.557 25.1489 127.557 22.3776C126.15 22.5612 116.669 16.9341 116.402 16.0656C116 16.2492 115.263 16.4663 114.491 16.0656C114.793 15.3643 115.194 14.9136 115.362 14.1788C111.778 12.4919 111.678 14.4459 110.004 14.9136C110.807 14.6795 108.728 16.917 108.495 16.9836C109.03 16.8 107.589 14.1617 107.355 14.0952C107.692 14.1952 103.37 15.765 103.438 15.7145C103.905 14.9801 104.107 14.1953 104.509 13.5775C102.399 14.0287 93.5213 16.1492 100.588 17.1341C100.588 18.0356 100.756 20.3066 100.454 21.058C99.1504 20.4067 99.3153 19.2717 97.7097 18.9205C98.3444 20.1901 100.889 24.3646 100.889 20.5908C102.399 20.7244 102.498 22.9619 104.608 22.2436C105.445 21.9764 105.915 20.4402 106.721 20.3572C106.821 20.3401 111.173 19.9395 111.41 21.7763C111.41 21.8599 111.342 21.3586 111.41 21.7763ZM406.102 98.6366C412.065 98.6366 413.07 96.0984 417.189 96.9668C419.467 97.401 416.754 98.9702 419.1 99.5715C422.482 100.373 421.378 97.0333 424.324 99.3049C424.561 97.7352 425.6 98.9702 426.938 98.8372C426.201 95.8648 425.062 98.503 426.235 95.397C426.739 94.0279 429.854 90.9555 430.924 90.3547C434.776 88.2172 438.029 89.0521 438.029 93.3936C443.218 92.4252 444.526 85.3783 449.452 86.3468C446.169 89.0185 445.03 93.2265 441.376 96.2325C436.752 100.039 430.89 102.143 429.25 107.119C428.077 110.759 428.176 115.869 428.883 119.208C429.854 123.784 429.35 124.518 432.766 122.715C436.42 120.812 436.721 112.563 442.45 114.032C440.907 111.126 442.08 107.186 445.397 109.29C444.326 106.919 445.229 104.714 444.927 103.245C444.728 102.51 443.352 103.045 442.783 103.245C442.886 102.076 444.793 97.501 445.531 96.8332C447.507 95.0299 447.743 96.0648 450.22 95.4976C451.561 95.2305 451.057 96.432 451.963 96.3655C453.201 96.2655 453.537 94.262 454.576 94.195C455.849 94.1615 457.053 94.5957 458.36 94.4286C461.341 94.0949 458.898 96.2325 461.242 96.6997C461.242 91.056 474.709 87.5829 478.527 86.4803C481.978 85.5119 482.344 89.5198 481.141 84.3434C480.067 79.7347 477.69 81.571 474.709 79.6011C473.001 78.332 481.776 78.6327 481.745 78.6656C484.29 77.6472 485.092 76.2615 483.889 73.6733C485.662 73.5562 485.929 75.3931 486.499 75.4596C486.835 75.4931 490.553 76.161 491.023 76.3951C493.435 77.5306 492.831 78.265 495.915 78.9998C500.134 80.0688 496.886 79.7347 499.129 78.8663C500.971 78.1984 499.497 76.3951 500.57 75.4596C501.507 74.6082 507.938 77.3135 505.328 72.7048C504.388 71.0686 497.757 69.9325 496.148 70.5844C497.624 71.5858 497.99 73.9569 495.545 72.2377C494.673 71.6193 495.915 69.2482 494.776 68.3133C494.173 67.8291 493.034 68.2297 492.529 67.7955C491.627 67.0277 489.079 65.558 488.176 65.0573C485.696 63.7381 484.122 62.8362 481.508 61.5671C476.15 58.9624 464.593 56.9589 461.142 60.4821C467.138 62.9032 451.729 65.0737 459.934 59.7643C457.458 57.9104 455.379 60.4486 452.902 60.7992C449.887 61.1999 444.594 61.5671 441.946 60.2485C441.881 61.0993 441.847 62.1013 441.946 62.9868C438.162 58.7953 438.361 53.953 430.523 54.4207C427.607 54.6043 424.794 55.5228 421.813 54.9215C417.961 54.1201 417.223 52.1832 413.841 51.816C414.544 50.9476 413.272 51.2812 415.015 50.3963C409.955 47.558 404.126 54.7044 406.336 48.8601C403.825 48.8601 401.279 47.4739 398.631 47.4239C393.606 47.3239 394.779 48.1258 390.155 48.8601C390.155 50.9141 392.536 50.797 392.536 53.0016C390.591 52.5338 388.852 52.2327 386.941 52.1161C387.376 52.7339 388.55 53.6524 388.114 54.6708C385.836 54.2366 385.4 52.4838 383.257 52.0831C383.356 52.0831 377.593 52.0161 377.291 52.1161C374.176 52.9345 374.715 55.9735 372.3 55.9735C372.369 55.9735 367.847 52.0831 367.512 51.2312C367.11 50.1957 368.818 46.8396 367.512 45.2869C365.467 42.8823 363.793 45.487 361.684 44.9363C356.96 43.7007 355.485 40.4947 355.485 46.9732C351.801 47.0067 349.722 47.3574 346.408 46.0047C345.201 45.504 344.497 43.9008 342.988 43.5166C340.11 42.7822 334.951 44.1514 331.836 44.1514V42.3145C330.728 42.6652 328.954 43.7672 327.949 42.7822C328.217 42.7487 333.273 40.3106 330.93 39.7093C328.282 39.0085 326.811 43.1494 323.325 42.5651C323.83 45.6711 318.602 45.4035 315.789 45.4035C318.804 45.1198 332.069 37.071 332.371 35.4347C333.643 28.2884 320.077 28.9062 316.993 30.0753C317.597 29.3404 318.067 29.1904 318.067 28.0713C316.29 28.2549 314.581 27.7041 312.839 27.7041C313.11 27.1364 314.547 25.4001 314.883 25.1159C307.982 24.5811 307.714 26.9528 303.426 29.1398C303.995 29.8582 303.862 29.6575 304.03 30.4259C299.306 29.3234 298.939 32.5294 294.984 32.9636C293.543 33.0972 290.933 31.3774 288.789 31.628C288.388 31.678 283.962 34.3663 281.987 34.8505C280.011 35.3017 278.371 35.5348 275.956 36.3702C275.188 36.6709 270.999 38.14 270.564 38.8243C268.588 41.7467 274.217 39.7768 270.732 42.3145C266.914 45.1033 259.779 41.5131 255.892 44.9363C256.931 47.3909 263.83 51.3983 259.947 51.699C258.839 51.7825 257.398 49.6785 256.729 49.4614C253.748 48.4094 251.703 48.3259 248.757 48.9601C249.861 49.4949 251.268 49.3778 251.268 50.9806C242.39 50.4133 252.709 52.4503 252.307 55.2551C250.867 53.0346 247.049 54.4873 245.306 52.3002C244.702 51.5484 245.406 47.7746 244.702 46.3554C244.4 46.5896 244.099 46.6731 243.732 46.5896C243.732 50.9806 241.118 49.2108 240.651 51.816C240.651 51.8325 241.385 59.0959 241.553 59.3631C244.099 63.504 243.396 59.7643 246.51 60.9663C250.366 62.4855 250.164 64.4895 250.164 67.0107C250.164 67.9126 253.179 68.3798 253.649 68.4468C248.688 71.7029 249.693 59.3966 242.96 64.8566C242.96 64.8566 243.196 68.1132 242.692 68.9146C241.756 70.4338 240.751 71.0015 239.443 71.7029C235.824 73.7398 235.893 72.9055 231.269 72.5878C232.274 71.1186 236.027 71.3687 237.935 69.7495C239.677 68.2132 240.885 66.4764 240.885 63.9717C238.137 64.2053 237.166 53.3687 237.433 50.3298H238.974C239.78 46.3554 233.245 45.3534 230.398 47.4739C230.031 47.7746 225.506 55.0385 225.407 55.3722C226.179 53.2182 226.213 60.5321 225.54 59.213C226.145 60.4821 227.317 60.1649 228.155 61.9012C228.69 63.0368 231.235 62.9868 230.769 64.7566C229.962 67.8626 226.848 63.6211 226.714 63.571C223.229 62.6356 220.55 61.367 217.201 60.2485C215.459 59.6637 209.161 56.4071 208.156 56.5747C203.768 57.2426 216.43 62.2684 207.953 65.5915C207.953 58.9789 194.153 70.3838 196.698 62.8697C193.048 65.0072 188.895 65.0908 185.207 67.5454C184.572 67.9791 176.631 75.226 177.169 67.9126C183.197 68.1132 176.164 64.0723 172.748 64.0723C174.254 65.558 175.327 73.1055 173.818 74.024C174.189 73.8234 170.268 72.922 169.163 73.1391C168.292 73.3061 165.881 76.0279 164.172 76.161C164.639 76.8458 165.945 78.8663 165.846 79.8682C163.4 78.5991 160.519 79.8012 158.474 77.23C153.552 79.8682 160.955 80.2024 160.955 81.7386C160.955 82.9401 157.236 82.3729 156.934 82.2058C153.25 80.4695 155.092 80.9032 153.453 78.1984C152.077 75.8438 149.13 72.8719 146.918 69.9831C148.894 70.3502 169.763 78.5991 167.287 68.9146C166.683 66.5935 161.023 64.4395 158.845 63.6376C155.428 62.369 150.334 63.2874 148.829 62.369C150.571 58.7288 143.535 59.8978 141.926 58.4111C144.605 58.4111 143.234 57.176 141.861 56.4577C138.41 54.6378 139.817 56.9249 137.371 56.9249C137.639 56.4071 137.975 55.1551 138.108 54.6043C137.337 54.4207 135.563 54.4207 134.826 54.6043C134.891 55.8064 134.658 56.4577 134.826 57.5262C134.222 56.04 133.687 56.3241 132.514 55.2551C132.078 57.8603 130.905 58.9624 130.905 55.6233C131.31 55.4392 132.212 55.6063 132.613 55.6063V54.0701C131.608 54.2201 125.145 57.6603 127.489 55.1386C122.497 54.6379 122.933 57.3426 125.581 58.8123C124.14 58.2445 122.23 58.7288 120.724 58.228C120.724 59.5972 120.957 59.9643 119.986 60.7322C119.986 59.0289 117.506 57.4762 115.832 57.6432C116.501 60.0144 114.258 63.6881 113.822 60.2485C110.906 63.1533 113.619 61.0828 112.614 64.1723C110.168 63.1868 110.738 63.8717 110.004 61.4341C108.999 61.7842 108.429 62.8532 106.886 63.571C107.321 64.3559 107.256 63.9882 107.256 64.7566C105.01 64.7566 103.671 65.8086 102.498 67.3613C104.979 66.577 108.628 64.2724 111.276 65.5915C107.757 66.3929 102.567 72.3542 101.894 76.6452C100.721 76.7458 98.9481 77.8978 97.943 78.8663H99.8534C99.5828 81.2038 94.1559 83.5415 92.482 83.1743C92.482 84.1427 92.3139 83.7421 92.7185 84.9441C86.2524 86.2803 85.4464 90.0205 84.1424 94.6957C89.5009 94.5292 82.2321 97.9017 87.1235 98.3029C87.0205 99.638 86.3517 99.8386 86.5198 101.108C91.7785 101.108 93.7204 101.709 97.2396 97.3009C99.5518 97.7016 101.295 105.917 103.336 108.221C103.905 108.889 102.028 110.058 103.504 110.592C106.92 111.928 105.445 109.457 106.886 108.922C109.465 108.021 110.872 107.119 113.084 106.585C113.253 106.151 113.253 105.783 113.084 105.382C111.812 105.516 111.441 105.483 110.707 104.915C111.441 103.746 114.525 99.9057 114.758 99.3049C115.53 97.334 118.446 95.6312 114.055 95.6312C114.055 92.4917 111.342 89.5528 114.625 85.7795C116.268 83.8421 119.314 83.7421 120.823 81.7386C121.828 80.436 121.863 76.6787 124.205 75.2095C126.016 74.0905 130.168 75.9944 130.469 78.1314C131.173 82.7401 116.233 85.3118 123.101 93.26C127.924 98.8372 136.366 92.058 142.029 95.297C138.88 98.503 134.356 97.1003 130.603 97.5681C129.166 97.8017 123.972 99.505 123.904 99.5715C124.442 99.7721 124.843 100.039 125.344 100.239C124.205 100.239 123.437 100.64 122.363 100.975C123.671 104.381 126.15 100.44 127.022 100.841C128.661 101.642 128.795 102.51 130.236 103.479C126.15 108.655 126.418 102.611 124.037 103.479C121.159 104.514 121.358 110.726 121.293 112.263C118.847 112.263 115.698 110.926 117.739 114.266C114.055 110.525 112.014 114.533 107.96 114.9C106.584 115 100.691 111.561 100.289 115.334C98.7458 115.234 97.2395 114.667 96.4025 114.032C96.8381 109.924 102.731 115.769 102.131 108.455C101.26 108.856 98.3785 109.857 97.8431 109.657C97.8741 108.989 98.3102 107.787 98.5467 107.119C98.077 107.319 97.5759 107.319 97.1403 107.119C97.6756 103.245 96.6704 102.544 93.6547 105.616C91.5452 107.754 93.0857 110.058 92.9858 112.128C92.7494 117.472 94.3241 114.533 90.1697 116.937C88.0603 118.173 84.3758 119.409 81.9989 119.409C85.0451 123.316 79.117 122.916 76.8704 124.618C76.6371 124.786 74.7951 129.027 74.1263 129.227C71.8792 129.929 70.5073 127.891 69.032 128.025C72.5175 134.003 65.6154 129.828 63.5401 131.431C61.0255 133.368 64.209 132.7 65.0118 133.869C66.1851 135.505 67.5605 136.173 68.7647 138.645C75.5328 152.103 59.1183 143.788 52.45 146.593C53.7225 150.901 51.8464 155.944 52.9198 160.118C53.8907 163.859 52.6182 161.554 55.9009 163.657C57.9794 164.994 59.05 163.726 61.0255 166.164C61.4616 165.661 61.3965 165.429 60.7922 165.463C64.2089 164.259 68.4625 162.857 71.1761 160.351C72.2806 159.318 72.8191 160.621 73.656 159.451C74.1572 158.749 72.651 157.58 72.7161 157.513C73.1213 156.946 73.4228 154.574 74.2597 153.572C75.3646 152.237 80.1873 150.835 81.0248 150.133C82.0299 149.298 80.3212 147.561 82.1323 146.46C83.6386 145.524 86.3859 147.629 88.0603 147.328C88.6982 147.261 91.8474 143.454 93.5555 143.721C95.864 144.122 98.1763 148.497 100.087 150.033C105.85 154.508 116.031 160.621 101.661 160.621C105.514 167.33 111.579 160.351 113.218 156.378H111.173C111.143 155.944 111.208 155.543 111.276 155.109C112.281 155.443 114.827 155.944 115.595 155.944C114.124 153.105 110.004 149.833 106.419 149.298C106.786 147.06 103.068 144.255 101.394 144.389C101.895 136.908 106.721 143.554 110.405 146.226C112.916 148.062 116.199 149.331 117.606 151.903C118.477 153.506 119.684 157.78 120.59 159.516C119.615 159.215 119.348 159.017 118.446 159.184C119.214 161.219 120.288 162.19 121.66 160.586C123.101 167.932 127.992 160.053 130.706 159.619C130.27 158.849 129.701 158.215 128.795 158.215C128.997 158.682 128.997 159.184 128.795 159.619C127.389 159.619 124.442 155.242 124.878 154.307C126.315 155.109 127.121 155.576 128.696 154.875C128.562 154.474 128.26 154.307 127.859 154.307C133.251 146.393 136.232 166.93 137.069 166.93C138.009 166.93 137.807 164.259 137.807 163.893C139.885 165.73 141.559 165.36 143.199 165.596C141.491 165.36 145.947 164.461 145.847 164.461C147.555 164.393 148.324 166.53 151.106 165.863C151.072 165.162 151.037 164.526 151.106 163.791C156.331 164.861 156.735 166.663 154.824 172.207C154.186 174.146 151.744 177.285 150.067 178.017C148.026 178.885 146.115 176.816 144.204 177.818C147.185 179.221 149.264 188.136 152.646 184.699C157.706 189.976 158.944 197.188 162.261 202.731C164.371 206.206 168.693 208.942 170.501 212.949C172.947 218.359 169.698 221.632 176.566 221.766C179.646 221.766 183.3 218.828 186.345 217.559C189.831 216.157 191.539 214.687 194.321 213.418C197.906 211.783 200.05 212.484 202.527 209.612C203.7 208.343 206.111 205.07 207.651 205.703C207.651 202.365 207.72 202.232 210.166 201.196C209.898 199.592 207.185 197.789 205.977 196.787C203.834 194.952 205.977 193.047 202.897 196.087C202.561 194.65 202.125 191.511 200.987 190.643C199.679 192.246 199.278 192.38 199.076 194.917C194.321 194.517 186.884 194.684 195.628 193.115C195.491 192.578 188.792 190.707 188.459 190.509C187.419 189.774 184.236 186.268 183.969 184.699C183.063 179.221 185.711 181.023 188.96 183.293C192.98 186.033 194.352 187.301 199.076 188.84C199.882 189.107 201.789 188.57 202.897 188.84C203.734 189.073 203.933 190.944 205.072 191.443C207.185 192.445 212.444 192.913 214.924 193.013C220.649 193.214 222.258 192.711 226.848 195.317C229.327 196.719 229.561 198.491 233.28 199.192C226.714 199.192 234.25 202.598 235.759 203.097C238.237 203.901 236.933 199.76 239.577 203.467C240.885 205.204 239.845 207.474 240.181 209.41C240.85 213.216 242.222 216.256 243.632 219.83C244.569 222.234 246.277 230.116 248.623 231.484C251.1 232.855 253.58 230.383 254.952 227.545C255.892 225.64 255.892 223.437 256.125 221.3C256.259 220.165 255.824 218.093 256.194 217.159C257.432 213.985 257.164 217.091 259.477 214.82C263.933 210.545 269.191 204.068 273.311 201.798C274.885 200.895 281.887 199.459 281.987 199.527C283.328 200.392 286.408 207.307 286.408 208.877C290.497 208.877 285.808 212.283 288.789 214.622C290.799 216.191 293.077 212.85 293.444 212.949C296.627 213.818 298.836 222.169 298.771 225.606C298.737 227.445 295.924 229.381 297.162 232.521C297.9 234.391 300.781 236.129 301.82 238.498C303.059 241.371 305.638 251.688 311.165 249.052C309.288 245.813 309.288 240.068 307.381 237.698C304.599 234.391 301.351 234.559 300.579 229.747C300.411 228.646 299.341 223.838 301.148 222.333C304.064 219.963 301.653 221.766 304.5 223.304C306.977 224.638 306.743 224.573 308.956 227.312C309.457 227.945 311.264 228.447 311.536 228.848C312.338 230.182 311.299 231.351 312.472 233.389C314.849 230.048 318.468 229.18 320.344 226.608C323.83 221.868 321.651 217.894 318.804 214.218C314.482 208.61 313.343 201.798 323.325 201.798C323.963 204.667 319.641 207.806 321.315 209.277C325.404 212.885 326.272 202.331 326.172 202.396C327.949 200.796 331.802 200.693 333.812 200.06C336.759 199.123 337.729 198.491 340.209 196.62C343.66 194.049 350.024 188.406 350.83 183.762C351.43 180.356 349.622 182.459 349.286 180.154C349.087 178.885 350.325 179.156 349.89 176.881C349.354 174.146 345.537 170.74 345.602 168.767C345.736 164.994 349.588 166.263 350.963 164.259C352.167 162.488 352.167 162.59 348.617 161.288C347.043 160.754 347.444 163.124 345.403 163.124C345.973 158.682 340.141 161.787 342.72 157.647C342.556 157.948 347.344 155.844 347.612 155.71C352.84 153.74 351.296 153.105 349.152 158.582C350.696 157.714 354.816 155.543 356.558 156.311C360.208 157.948 357.327 158.515 357.628 161.52C363.258 159.184 361.549 168.065 360.946 170.771C364.966 171.205 369.522 168.534 369.422 164.659C369.353 161.188 364.932 160.785 365.837 155.944C366.036 154.976 367.813 155.71 367.981 155.242C368.046 155.109 368.616 151.368 368.952 150.934C369.755 149.833 371.096 147.595 372.602 146.927C373.473 146.56 376.622 147.261 378.231 146.793C380.375 146.192 380.944 145.658 382.618 144.189C385.332 141.884 388.783 137.576 390.625 134.805C392.769 131.632 392.165 129.093 393.606 125.821C398.23 115 396.155 136.341 396.155 139.313C397.022 138.444 397.695 138.912 398.463 137.175C399.537 138.177 398.597 138.979 400.875 139.079C400.24 134.738 395.585 130.897 402.048 130.897C402.216 130.897 398.968 116.136 398.834 114.4H397.894C398.062 117.939 396.923 117.672 396.923 120.945C394.21 119.342 394.745 115.869 389.788 114.4C389.218 118.006 387.476 116.804 385.97 114.4C386.104 115.101 386.104 115.602 385.97 116.303C383.86 116.003 386.004 114.667 384.43 113.331C381.078 116.67 384.361 111.628 385.599 110.259C387.476 108.188 389.451 106.785 391.496 104.247C395.784 98.9702 399.636 98.6366 406.102 98.6366ZM58.882 100.841C57.7771 101.241 56.6039 102.51 56.3712 103.579C57.3763 103.312 60.6931 100.507 58.882 100.841C59.0154 100.841 58.4464 100.975 58.882 100.841ZM61.3966 127.457C63.8076 127.457 65.6154 125.787 66.9909 125.554C69.1009 125.22 72.082 126.222 73.7901 125.454C76.8053 124.084 77.7763 121.145 76.9735 118.44C76.4691 116.704 75.1624 119.475 75.0973 119.409C74.2908 118.574 74.4247 117.205 73.7901 116.67C72.7162 115.735 71.2446 113.531 69.8386 111.895C67.6945 109.39 67.4234 109.991 67.0908 107.987C66.8885 106.652 72.3835 101.442 64.2436 103.847C64.9124 102.677 65.0117 101.709 66.2841 100.975C63.6052 98.3029 62.4321 102.444 61.427 103.245C61.2626 103.379 55.8357 105.216 60.0894 105.951C59.7189 107.186 58.3466 108.989 58.4155 109.757C59.8219 109.924 61.5951 111.06 61.9655 109.524C61.6298 114.165 64.0756 111.594 65.8178 115.334C67.7938 119.676 63.7393 116.704 61.6298 119.275C62.4321 119.475 63.0704 119.409 64.0066 119.509C64.0066 120.812 60.7924 121.346 61.8631 122.581C62.5351 123.349 65.8833 122.214 66.9909 123.283C66.5553 123.683 59.9212 127.457 61.3966 127.457ZM59.3516 115.234C64.645 114.467 50.9443 107.687 54.1277 114.032C51.6131 114.5 48.2307 118.006 52.3503 117.806C46.9892 125.554 54.4602 120.411 59.0154 121.412C59.1835 119.542 59.3863 117.538 59.3516 115.234ZM186.816 296.073C186.816 291.497 190.099 282.08 184.672 279.942C184.672 281.546 182.562 285.287 181.592 286.156C179.581 287.992 176.467 287.222 174.422 289.192C172.848 290.728 174.621 295.505 174.422 296.773C174.052 299.178 173.016 299.479 172.511 302.485C171.877 306.394 172.779 312.169 178.007 311.034C183.032 309.933 181.423 308.394 182.295 303.921C182.36 303.388 183.632 298.309 183.735 298.21C184.137 297.642 186.816 296.842 186.816 296.073ZM147.254 182.76C144.976 177.35 143.669 179.422 138.678 178.82C131.474 177.952 125.914 175.647 119.149 174.112C119.149 180.623 119.283 179.422 114.861 179.487C115.763 179.422 110.975 178.085 111.441 178.287H107.96C107.589 177.685 107.355 177.049 107.256 176.382C105.147 175.681 98.7799 174.645 97.4727 172.877C95.027 169.604 100.221 169.002 95.7988 166.164C96.972 165.193 96.8381 165.059 98.4437 164.728C96.2003 160.918 90.0363 164.461 86.7531 164.526C83.2713 164.594 79.5532 163.055 75.0973 164.994C72.0821 166.263 70.037 168.034 66.0509 167.932C61.2278 167.867 58.6487 164.526 58.6487 170.771H55.064C56.6727 176.55 52.4501 172.809 51.5134 174.714C50.0039 177.75 50.5083 181.358 49.1327 183.293C48.2958 184.429 45.1471 185.968 43.8741 187.568C42.5018 189.206 40.8587 191.98 39.353 194.182C37.8776 196.388 31.8472 201.996 32.6879 205.337C32.9211 206.271 36.3036 204.937 36.8386 206.072C37.3087 206.972 36.1697 207.406 36.372 207.94C37.3088 210.412 35.7342 214.488 35.5351 216.991C35.2986 220.031 35.0311 222.634 38.4131 226.109C41.9978 229.88 45.3494 232.989 49.3697 236.46C50.742 237.664 51.4108 240.403 54.3609 241.002C57.6777 241.603 58.1133 240.201 61.2625 239.801C64.0066 239.466 66.0856 240.67 67.9618 240.601C71.9133 240.468 71.6459 238.967 74.8603 237.862C77.4742 236.997 83.1033 237.229 84.6096 237.862C86.9902 238.932 86.3858 240.67 89.9023 241.47C96.0012 242.807 95.6654 239.801 95.7988 246.213C95.864 249.219 94.6599 253.059 92.9518 254.762C100.588 257.166 105.613 272.73 104.375 280.144C103.167 287.623 98.6459 287.923 102.498 295.84C104.876 300.782 105.647 303.719 107.02 309.129C108.395 314.741 112.783 318.547 114.392 323.625C115.763 327.965 113.654 329.336 115.832 331.707C121.592 337.985 136.836 330.571 141.323 325.763C143.065 323.892 146.016 320.65 147.021 318.414C148.026 316.212 146.684 313.072 147.254 311.735C147.755 310.668 151.542 309.998 152.749 308.394C155.998 304.188 151.106 302.386 152.042 297.978C152.78 294.404 159.414 292.568 161.325 290.83C166.045 286.621 166.316 281.911 165.143 275.568C164.471 271.994 161.157 266.683 162.529 262.344C164.337 256.5 171.842 250.854 176.332 246.914C179.646 244.008 182.929 240.67 185.142 236.696C186.647 234.056 187.622 233.823 187.989 230.284C188.593 224.707 189.495 226.04 184.672 226.009C177.972 225.975 175.997 228.513 171.338 223.438C168.659 220.466 164.337 217.692 161.792 214.386C159.281 211.147 156.667 203.733 155.126 199.893C152.814 194.015 151.473 187.972 147.254 182.76C147.521 183.095 147.086 182.36 147.254 182.76ZM-95.0131 364.566C-95.9509 364.368 -95.8842 362.898 -96.554 362.898C-96.2525 362.898 -98.6977 365.702 -98.6977 365.671C-98.6977 366.102 -94.2759 369.511 -93.9408 369.676C-94.142 369.977 -94.2429 370.312 -94.1756 370.647C-101.813 370.647 -95.7166 377.356 -96.9223 380.13C-96.2188 380.03 -95.7166 380.03 -95.0131 380.13C-94.9794 380.797 -95.3478 381.166 -96.0849 381.231C-94.8455 382.534 -95.4816 381.768 -94.2758 382.065C-94.6778 381.932 -89.2511 388.846 -88.3464 389.414C-83.7907 392.219 -79.4692 390.85 -75.1143 390.515C-75.3155 389.114 -80.7759 387.544 -81.9144 384.839C-82.9867 382.233 -85.4319 375.489 -81.0774 375.923C-81.0774 373.184 -75.5498 370.11 -75.9517 368.14C-76.3873 365.805 -81.9144 367.207 -80.0056 362.562C-79.4025 361.095 -76.3873 361.896 -75.7175 361.095C-75.1479 360.36 -75.9187 359.156 -75.1143 358.288C-75.6502 358.89 -72.3006 353.08 -72.7357 355.217C-71.9655 351.411 -75.5834 355.316 -74.779 349.674C-69.1852 351.91 -68.0798 349.872 -68.9167 344.698C-64.2943 344.831 -58.7335 344.999 -56.623 340.522C-54.3449 335.779 -58.6999 336.849 -59.5373 332.708C-54.3785 333.375 -52.4356 335.181 -48.4489 331.638C-46.5732 329.969 -45.0989 323.257 -42.9884 323.557C-43.29 324.494 -43.4576 324.593 -43.2233 325.462C-37.0925 322.422 -38.801 313.773 -35.451 309.8C-33.2738 307.193 -30.2587 305.925 -27.1773 305.056C-22.2863 303.654 -20.946 303.986 -18.1993 299.212C-14.9497 293.57 -16.2895 285.02 -13.6767 280.475C-11.7674 277.172 -7.58002 275.199 -6.47458 271.393C-5.70383 268.855 -5.87137 269.022 -6.50815 266.683C-7.91461 261.609 -7.8479 264.946 -11.0302 262.443C-14.4805 259.772 -15.8881 259.17 -20.1758 258.371C-22.487 257.902 -30.6611 258.469 -27.2439 256.698C-28.5169 255.829 -30.5602 254.561 -32.2352 254.229C-36.4226 253.426 -35.4848 254.363 -38.4328 255.631C-38.1649 255.231 -36.9253 252.458 -36.8917 252.225C-37.9971 252.092 -39.5382 251.555 -40.61 251.223C-41.6824 250.888 -41.0792 253.627 -43.3237 253.361C-42.8881 252.358 -38.5331 246.914 -42.6201 246.914C-41.9166 239.702 -48.6165 239.332 -53.0718 238.197C-56.6897 237.329 -64.6962 233.656 -64.6962 229.614C-66.7394 230.315 -70.391 229.381 -67.2086 227.945C-69.3192 225.24 -73.7072 229.046 -74.9471 229.015C-79.5028 228.848 -81.6801 225.038 -86.0351 224.238C-86.0351 226.577 -87.6427 226.04 -89.0167 227.445C-89.2174 227.644 -88.6143 230.851 -88.7824 231.385C-91.2276 229.381 -90.5914 225.107 -88.0789 223.571C-92.0987 222.435 -103.354 229.88 -104.024 234.924C-104.392 237.729 -101.445 240.67 -103.354 244.544C-104.392 246.681 -108.781 251.09 -111.093 251.89C-110.691 255.498 -112.198 256.164 -108.479 256.431C-110.02 259.102 -113.638 260.706 -111.561 265.08C-111.059 266.184 -108.714 266.417 -107.743 267.785C-106.805 269.156 -105.8 271.194 -105.197 272.661C-103.89 275.869 -102.684 281.211 -100.607 283.615C-97.7598 286.887 -94.3427 287.824 -90.792 290.595C-84.7957 295.303 -87.0066 305.323 -87.9781 312.668C-88.514 316.677 -90.0218 320.517 -90.4905 324.224C-91.0269 328.632 -90.4905 333.242 -92.2664 337.383C-94.2429 341.993 -94.1082 344.698 -95.3477 349.872C-95.2809 349.571 -95.3813 353.278 -95.3477 352.345C-95.3813 353.145 -96.956 353.948 -96.6208 354.95C-94.9459 359.926 -93.5051 352.478 -91.7971 352.345C-93.0365 355.819 -93.5387 358.756 -93.9743 362.696C-94.9127 361.126 -95.147 361.995 -95.4817 359.827C-96.5871 360.425 -94.9127 363.667 -95.0131 364.566ZM-89.0502 211.281C-84.896 210.347 -78.8997 211.048 -74.746 209.612C-76.5885 207.341 -82.2502 208.076 -85.7336 207.608C-87.9444 207.341 -92.5001 204.735 -92.8689 208.209C-93.1032 210.412 -91.0935 211.681 -89.0502 211.281C-88.5811 211.181 -89.3513 211.349 -89.0502 211.281ZM-100.239 210.545C-101.21 209.044 -103.187 208.541 -105.23 208.877C-103.99 210.545 -101.679 211.981 -100.239 210.545C-100.44 210.279 -100.607 210.945 -100.239 210.545ZM-95.9508 205.235C-97.7598 202.331 -105.197 200.594 -108.346 199.39C-110.389 198.658 -115.045 196.753 -117.591 198.224C-120.405 199.859 -119.702 200.095 -116.687 201.528C-115.381 202.198 -114.61 200.159 -113.337 200.392C-111.595 200.662 -110.49 202.163 -109.551 202.499C-104.627 204.267 -101.545 205.235 -95.9508 205.235ZM19.1175 76.3951C21.2957 76.0444 22.0676 76.0944 22.6713 78.2985C21.0284 77.9978 19.5535 77.9978 17.9132 78.2985C17.9789 78.7657 18.0813 79.2669 18.1465 79.7347C23.0043 78.9333 19.2514 81.6716 21.7312 82.573C22.2667 82.7401 27.8616 83.3078 28.1632 83.2748C32.4515 83.0742 32.8219 82.1723 36.5059 80.2024C39.6205 78.4991 40.9928 80.8702 41.9669 77.5807C42.3683 76.278 40.0906 76.2445 39.5862 76.161C40.6255 70.2502 32.5508 75.5102 28.5646 74.9924C27.9646 74.9424 24.4103 74.4417 25.0487 74.5082C23.3401 74.3581 25.1825 71.8364 23.3747 74.024C19.0181 72.5713 17.9479 76.6287 19.1175 76.3951C19.4537 76.3451 18.7849 76.4621 19.1175 76.3951ZM-54.2782 123.884C-55.216 124.485 -60.7431 133.368 -60.3412 134.036C-59.5037 135.439 -56.5558 134.103 -54.948 134.571C-52.5023 135.305 -51.9665 136.307 -49.5208 137.442C-45.8025 131.832 -49.2864 129.895 -54.7468 128.159C-54.7799 128.259 -51.4305 122.281 -54.2782 123.884C-53.9766 123.75 -54.5797 124.084 -54.2782 123.884ZM-67.142 129.127C-69.5199 128.359 -70.5585 127.357 -72.8703 127.691C-70.6925 128.993 -69.2856 132.199 -67.142 129.127C-67.2423 129.294 -67.4767 129.027 -67.142 129.127ZM0.0912781 65.2573C0.76123 65.0072 1.49832 65.9757 2.03476 66.1257C6.25525 67.4784 6.25528 65.8751 9.70554 64.523C12.7875 63.3374 20.4247 61.6842 21.4981 58.8123C17.3443 62.0513 7.56186 54.4873 17.9789 54.9215C17.5428 54.905 22.637 60.2485 23.8102 55.6233C24.2458 53.9195 19.9891 49.8121 18.6509 49.0772C19.3886 48.4264 24.0778 51.8325 22.6713 47.4239C21.9993 45.3534 20.7951 45.3205 18.0473 46.2389C18.5826 45.4035 19.1174 45.4705 19.4537 44.7027C18.9529 44.5521 18.4828 44.352 18.0473 44.0843C19.5536 44.0679 23.8754 46.1718 25.8857 44.8192C30.5096 41.7467 23.0385 42.8488 23.0385 41.3626C23.0385 40.9954 30.074 40.6618 30.5442 39.8263C29.0689 38.3742 25.1826 35.8695 29.8371 35.4853C29.9401 31.6445 24.1429 31.6615 24.8155 29.491C25.0829 28.6056 27.8958 28.2714 28.6335 28.539C31.6829 29.7076 29.1682 29.9582 30.5442 32.697C31.3806 27.7706 33.2885 26.5851 27.3263 26.5851C28.9698 24.7653 27.3951 26.0844 30.1733 24.7482C28.4994 22.1941 24.3799 24.6482 24.3452 24.6317C20.0916 21.2086 35.0995 11.9412 36.5059 10.1708C34.595 10.2879 32.753 9.95428 30.8768 9.90373C34.7632 9.10236 36.9756 9.21941 40.324 7.0489C41.2292 6.4641 46.0523 7.0654 43.8741 3.85938C43.5068 3.29161 38.5162 3.55873 38.0459 3.60875C34.5951 4.02647 31.3807 4.62724 28.4994 5.37913C26.6884 5.89634 19.2204 9.83721 18.1465 9.65363C22.4348 4.2936 24.7812 3.49223 16.9738 2.33966C16.9738 5.44563 14.7303 5.12848 11.7156 5.62921C12.2179 3.10803 13.9602 4.11001 15.7697 3.25809C11.3474 -0.0144339 3.24051 5.06145 -1.61731 4.31009C-0.310638 0.419777 19.5536 0.102104 24.1119 -0.415647V-1.50063C19.5536 -1.51713 17.5124 -2.20197 13.9938 -2.80326C8.70047 -3.67115 3.54156 -2.4361 -1.61731 -2.96981C2.16818 -5.55857 9.87317 -4.40653 15.2994 -4.40653C14.6957 -8.61399 -9.12091 -6.87717 -12.2029 -5.89222C-15.4855 -4.80669 -12.5376 -3.72171 -16.6583 -3.27048C-19.0704 -3.00335 -21.08 -4.4225 -23.5588 -4.52307C-25.8369 -4.62311 -30.3595 -4.17241 -32.9051 -3.20396C-32.1348 -1.68423 -30.326 -2.33554 -30.326 -0.181521C-31.2974 -0.932873 -35.5851 -2.71973 -34.2123 -0.0814896C-34.5469 -0.73227 -26.6407 3.92643 -28.8852 3.92643C-33.9101 3.92643 -37.6957 -0.0979719 -43.0222 -0.0979719C-43.0222 1.03757 -39.7394 2.99098 -39.2702 4.69429C-42.4525 3.79235 -44.5967 0.903993 -48.0133 0.586318C-47.1428 2.30612 -46.8747 6.48061 -49.6882 4.81135C-49.6882 4.79432 -48.3485 1.37119 -50.2241 0.35272C-52.4687 -0.916382 -59.604 3.4752 -61.1114 2.72385C-59.47 3.35867 -56.6897 4.24304 -55.4166 5.62921C-57.6948 5.61271 -59.6041 4.05947 -61.983 3.77585C-63.5235 3.55875 -63.1215 2.33965 -65.1648 3.30811C-67.1419 4.22655 -65.5673 5.71275 -66.1032 6.0134C-67.9789 7.09892 -71.8646 7.53312 -75.4158 9.41948C-76.8228 10.1708 -80.2395 10.1043 -80.0388 12.5255C-77.9956 13.0597 -76.9568 12.5255 -75.047 12.5255C-73.6741 12.5255 -75.1143 16.9836 -75.3822 17.2342C-76.019 17.7855 -79 17.6354 -79.9379 17.869C-82.3835 18.5033 -86.7723 18.2362 -89.2511 19.7059C-97.3243 24.4311 -82.4172 24.8318 -78.0291 24.8318C-78.8996 28.4555 -87.9108 25.7837 -87.9108 27.8542C-87.9108 28.8727 -83.9919 29.9752 -83.1538 30.1588C-83.8242 30.1588 -83.8916 30.1588 -84.0923 30.643C-82.8865 31.6115 -80.5747 33.6149 -78.7994 32.9636C-78.9334 32.7135 -79.704 32.0122 -79.3016 31.7615C-76.6216 30.1082 -65.0981 31.3773 -61.9157 33.4143C-57.3259 36.3537 -53.8084 42.3645 -53.3733 47.8917H-52.2344C-56.7901 56.04 -45.8361 49.3443 -42.7205 56.6918C-45.6685 56.7748 -48.4489 54.7214 -51.1625 55.8564C-50.4921 57.8768 -52.9379 61.1664 -48.7841 61.2664C-45.1663 61.3505 -43.9935 58.7788 -48.2145 58.1275C-42.2176 57.4091 -43.6588 59.7307 -41.9839 63.9387C-44.6634 63.8046 -46.7745 64.2724 -46.7073 66.8941C-52.67 66.1257 -46.4051 73.8904 -46.0368 75.1425C-46.1713 74.8088 -44.2614 74.3246 -43.8931 75.0754C-43.6252 75.7103 -45.8361 76.4451 -45.2329 76.9964C-46.1713 76.1274 -44.1611 80.3354 -44.3953 79.7347C-44.429 79.6011 -42.0841 78.365 -41.6487 78.3985C-43.4912 82.1393 -41.6487 88.4513 -37.5952 91.4897C-35.7863 92.8588 -26.8756 96.299 -25.435 95.4976C-23.4584 94.4286 -23.9943 90.3547 -23.1905 88.5178C-22.6882 87.4158 -24.3963 87.0816 -23.7264 85.7795C-23.3917 85.0777 -21.6165 85.5454 -21.047 84.4769C-18.6349 80.0688 -20.1086 75.8608 -14.0786 75.3431C-14.2462 72.4707 -13.9445 74.5247 -12.4036 73.5562C-12.7724 81.0373 0.0246277 65.2738 0.0912781 65.2573ZM-129.919 28.539C-127.373 32.4458 -115.916 31.0267 -111.695 30.3254C-110.556 33.1812 -103.79 31.4109 -104.058 27.7041C-104.694 28.0048 -105.331 28.2714 -105.967 28.539C-106.168 27.9542 -106.369 27.3535 -106.57 26.7692C-103.856 26.268 -103.99 25.5666 -104.661 23.1955C-101.244 24.1304 -98.3631 23.6297 -100.742 20.4902C-101.11 20.006 -97.1572 20.3737 -97.1572 19.8889C-97.1572 16.5999 -103.22 17.6684 -104.761 19.0375C-104.929 18.6539 -105.096 18.2527 -105.23 17.869C-101.345 15.1472 -97.1236 18.9205 -93.4716 15.5979C-94.1757 15.0802 -94.879 14.5795 -95.5825 14.0782C-93.1368 14.7295 -90.7921 15.2637 -88.0789 14.1788C-89.2511 13.2768 -89.0835 12.5755 -90.5914 11.9242C-84.9633 13.2768 -78.3301 7.14894 -73.104 5.76277C-74.779 4.09298 -79.268 5.71276 -82.1493 5.37913C-79.8044 2.35669 -66.7731 5.27854 -65.9356 1.10408C-65.3997 -1.73424 -77.2583 -2.23549 -80.106 -1.50063C-81.2114 -2.60265 -85.7334 -3.82175 -88.5811 -4.12186C-89.6865 -0.164501 -102.483 -5.94224 -101.545 -1.36709C-105.13 -2.7027 -113.036 -3.45406 -115.749 0.402736C-112.734 0.236183 -109.451 0.853451 -107.977 3.25809C-110.992 2.47375 -115.012 0.569827 -117.625 0.0520759C-120.372 -0.482171 -122.616 0.970525 -123.387 1.07056C-126.268 1.47178 -132.03 2.99096 -135.514 3.72582C-135.547 4.07648 -135.58 4.44366 -135.614 4.81135C-132.666 5.72925 -132.465 7.43257 -129.182 8.41752C-124.492 9.85424 -124.325 7.34902 -120.271 6.81477C-128.411 11.557 -115.783 9.92076 -113.572 9.37001C-109.015 8.25097 -105.867 5.61271 -101.076 5.76277C-102.986 5.96338 -104.828 6.81477 -106.335 8.1174C-104.594 7.81675 -103.12 8.38452 -101.445 8.36803C-103.856 10.1544 -111.528 10.7391 -115.012 10.9557V12.1413C-112.701 13.1097 -111.327 14.813 -108.58 14.763C-112.634 15.865 -118.697 11.8912 -123.253 11.3234C-122.885 15.1972 -115.95 18.3032 -112.031 18.1026C-112.935 19.1546 -113.337 19.9395 -114.074 20.8079C-120.874 14.1617 -131.058 24.4811 -118.462 22.2436C-119.132 22.6107 -119.802 22.9619 -120.506 23.3126C-119.031 25.7167 -116.318 24.9318 -114.309 22.8448C-116.62 28.9897 -123.454 23.162 -127.641 23.6962C-125.899 26.3845 -127.541 27.487 -129.919 28.539ZM-128.847 20.8079C-128.177 20.006 -126.971 20.5072 -127.306 18.3197C-119.702 19.4717 -121.477 14.7965 -126.201 11.8412C-125.932 12.0247 -141.577 4.17653 -141.208 6.46411C-140.103 6.69824 -139.098 5.89633 -138.83 7.299C-138.796 7.49961 -143.017 8.03386 -143.486 8.00034C-142.515 8.65165 -142.213 9.6201 -141.811 10.0208C-142.951 9.83721 -143.955 10.2044 -145.027 10.1379C-145.396 10.9557 -145.831 12.7596 -145.865 13.8281C-143.017 16.6834 -138.83 14.2453 -135.748 16.8C-137.591 16.917 -139.466 17.8355 -141.208 18.1026C-137.691 21.2416 -133.001 22.4271 -128.847 20.8079ZM-135.044 24.8653C-135.379 25.416 -135.748 25.9673 -136.116 26.5351C-134.039 27.1529 -132.565 27.0193 -130.757 26.1679C-131.862 24.0804 -132.968 24.4646 -135.044 24.8653ZM-133.135 39.225C-130.79 38.7413 -104.46 40.8954 -108.346 34.8505C-110.657 31.2108 -121.042 35.1181 -124.224 35.0341C-130.891 34.884 -131.795 28.0048 -137.758 29.7411C-135.547 33.5314 -137.858 37.5888 -133.135 39.225ZM-149.684 39.7093H-148.009C-148.746 37.9235 -148.746 39.3421 -149.684 39.7093ZM-145.998 36.7374C-144.759 37.8229 -138.294 40.8118 -138.964 36.6203C-139.5 33.1977 -144.894 34.834 -145.998 36.7374ZM-140.137 31.628C-137.49 28.8727 -141.376 26.9193 -144.19 27.3535C-149.985 28.2714 -142.817 31.6615 -140.137 31.628ZM-145.027 25.9338C-142.883 25.9003 -140.806 25.6331 -138.73 25.1159V23.9304C-141.376 23.5627 -144.224 23.3461 -145.027 25.9338ZM-144.558 22.9619C-138.596 21.5092 -148.545 18.8204 -150.387 19.4047C-149.583 22.2271 -147.64 23.9469 -144.558 22.9619ZM-151.225 14.0782C-152.096 12.4254 -152.699 11.5235 -154.91 11.9242V13.3439C-153.301 14.0287 -152.699 14.3453 -151.225 14.0782ZM-152.766 24.264C-151.024 18.3197 -162.782 15.4814 -167.204 17.1341C-165.495 17.8355 -164.624 19.1716 -163.385 20.2401H-165.394C-163.653 22.6442 -156.149 22.9784 -152.766 24.264ZM-157.288 24.5146C-158.795 23.9304 -159.264 23.0619 -161.107 23.5627C-160.404 25.6001 -159.231 24.9318 -157.288 24.5146ZM-158.394 34.8505C-155.948 33.6484 -154.474 34.5834 -153.972 37.3387C-150.789 37.2051 -148.411 36.1026 -148.779 32.7135C-149.214 28.9897 -152.967 30.5595 -156.35 29.2569C-155.178 30.0753 -153.905 31.3108 -153.235 32.5799C-153.369 32.3628 -157.992 30.576 -158.862 30.4595C-158.628 31.4609 -158.594 32.3958 -158.26 33.4143C-160.47 31.728 -161.442 28.9732 -164.557 28.6556C-164.926 32.2458 -161.643 34.0491 -158.394 34.8505ZM-165.294 35.8025C-165.026 35.986 -162.681 38.6743 -162.681 35.903C-162.681 34.3333 -164.959 35.8025 -165.294 35.8025ZM-164.457 26.8857C-165.328 25.4831 -166.366 24.4646 -167.907 23.8133C-167.773 26.1844 -166.601 27.5206 -164.457 26.8857ZM-102.383 69.5159C-100.674 70.0161 -95.9509 69.4153 -97.6259 66.727C-99.1001 64.3394 -104.426 66.1422 -102.383 69.5159ZM-140.873 49.4279C-140.17 48.1588 -138.998 48.6265 -139.065 46.7061C-135.748 47.8916 -134.375 44.9527 -132.633 42.5651C-135.078 41.6632 -140.237 39.9604 -142.414 41.5131C-144.357 42.9158 -145.195 50.647 -140.873 49.4279ZM-151.358 53.1181C-145.865 53.1181 -144.759 48.1753 -150.052 45.7711C-146.032 44.485 -149.181 42.0474 -151.459 41.3125C-151.861 41.196 -155.077 42.9323 -156.953 42.5651C-153.603 46.0548 -156.183 48.2758 -159.901 46.2389C-159.733 48.6265 -153.57 51.9661 -151.358 53.1181ZM-164.692 45.6376C-163.686 42.3815 -167.84 41.7303 -169.817 43.5166C-167.941 45.2699 -166.634 46.4554 -164.692 45.6376ZM-172.564 42.9158C-172.363 43.1159 -171.056 44.6191 -172.564 42.9158V42.9158ZM-184.121 21.3086H-175.645C-177.12 18.1526 -181.809 19.0711 -184.121 21.3086ZM-181.709 26.5351C-179.331 26.5186 -176.315 26.2515 -178.393 23.9304C-177.388 23.4791 -177.019 23.8968 -176.349 22.7448C-179.129 22.4777 -181.877 22.5947 -184.222 24.1475C-183.752 25.7502 -182.915 25.9673 -181.709 26.5351ZM-185.896 24.3981C-186.633 22.8619 -186.834 21.8429 -189.112 22.2436C-188.576 24.1975 -187.571 24.0139 -185.896 24.3981ZM-188.275 30.3254C-191.658 31.3108 -195.041 34.784 -192.663 36.6874C-190.552 38.3907 -182.814 36.6373 -180.168 36.8715C-181.073 37.9235 -186.633 36.9045 -186.265 38.8243C-185.762 41.0459 -181.608 39.6598 -180.235 39.4091C-177.32 38.8749 -166.4 37.4557 -167.204 33.4143C-166.902 34.9675 -174.372 29.3069 -173.736 29.491C-177.22 28.472 -178.527 30.4924 -176.718 33.6484C-176.047 33.9156 -174.976 33.4978 -174.741 34.3162C-174.406 35.6024 -186.5 30.9437 -188.275 30.3254ZM-187.571 28.0713C-186.801 28.4055 -186.566 29.6575 -184.69 29.2569C-184.724 28.8727 -184.79 28.4555 -184.824 28.0713C-185.729 28.3049 -186.633 28.3049 -187.571 28.0713ZM-197.085 33.1812C-197.487 33.6484 -197.889 34.1327 -198.291 34.6004C-195.678 34.5669 -196.18 35.0506 -194.807 32.5799C-195.578 32.78 -196.314 32.9806 -197.085 33.1812ZM-193.266 30.1918C-191.29 29.5075 -190.251 27.9542 -189.95 25.7002C-197.152 23.9468 -199.464 30.543 -206.03 31.2603C-202.948 35.936 -198.324 31.695 -195.544 29.1398C-194.841 31.2108 -194.036 29.7411 -193.266 30.1918ZM-191.625 61.1829C-186.466 60.7663 -186.332 63.4545 -182.312 64.523C-178.325 65.608 -175.277 62.8032 -171.726 62.1354C-169.582 61.7507 -155.445 64.0553 -160.404 60.1314C-158.427 60.1649 -157.79 59.1129 -156.585 58.5782C-160.973 55.5728 -162.782 55.5898 -164.993 51.4153C-165.831 49.7956 -169.549 41.9303 -172.564 45.6711C-173.937 47.4239 -168.879 51.5154 -172.664 51.2312C-174.574 51.0641 -174.44 45.9712 -178.024 45.7711C-177.588 46.5055 -177.254 47.3739 -176.852 48.1423C-178.326 48.743 -179.063 48.9772 -180.637 49.3278C-180.268 48.6595 -180.101 47.691 -179.833 46.9732C-182.48 45.9712 -184.992 46.4725 -186.5 47.4239C-185.327 42.9828 -189.548 45.1033 -191.725 46.0548C-195.645 47.7916 -195.778 48.6595 -197.554 51.699C-194.941 52.7169 -192.127 51.0476 -189.716 52.8845C-191.658 53.0851 -193.501 53.7859 -194.941 54.9215C-192.295 56.3406 -183.719 54.1866 -182.312 56.5747C-181.809 57.4597 -191.725 57.9104 -193.266 58.8123C-192.73 59.6137 -192.161 60.3986 -191.625 61.1829ZM-171.726 65.8256C-169.582 65.2573 -168.242 64.8066 -167.773 62.9868C-169.984 63.3875 -172.195 64.1888 -174.105 65.3574C-173.301 65.508 -172.497 65.675 -171.726 65.8256ZM-204.957 53.0016C-200.737 53.6359 -199.028 48.0252 -195.377 46.1553C-189.448 43.1159 -188.006 42.2145 -195.611 40.6618C-197.554 40.2611 -207.369 37.9565 -209.413 39.6598C-210.551 40.6112 -210.887 47.608 -213.399 50.3963C-210.653 50.5634 -208.073 52.0496 -206.967 54.6708C-206.297 54.1201 -205.628 53.5523 -204.957 53.0016ZM-304.182 95.9983C-309.207 96.432 -306.661 92.7588 -304.182 95.9983V95.9983ZM-264.15 93.3936C-263.581 89.6198 -258.523 94.262 -255.91 95.0299C-252.527 96.0318 -249.311 95.297 -246.027 96.3655C-240.232 98.2359 -236.245 103.512 -230.417 104.514C-229.881 105.716 -229.445 106.919 -228.541 107.854C-228.239 108.188 -225.727 109.323 -225.426 109.857C-223.415 112.863 -222.243 115.802 -220.501 118.14C-217.42 122.281 -216.247 122.648 -211.858 125.253C-208.71 127.124 -204.957 130.296 -205.426 134.704C-208.978 130.363 -212.696 124.385 -218.759 125.086C-215.912 128.492 -211.691 129.695 -209.882 133.969C-208.04 138.378 -210.418 142.652 -210.418 146.326C-210.485 153.172 -207.001 162.724 -202.311 167.833C-199.598 170.805 -195.41 170.938 -192.931 174.778C-190.921 177.818 -189.213 181.693 -187.337 184.832C-186.7 185.834 -188.107 186.334 -186.667 188.437C-185.796 189.705 -183.384 190.841 -182.211 192.045C-181.407 192.845 -177.488 197.455 -177.186 199.192C-173.502 195.451 -187.873 182.36 -188.275 176.984C-184.255 176.481 -179.665 185.633 -176.718 188.806C-172.932 192.845 -169.515 198.323 -165.629 202.731C-171.257 206.537 -148.913 214.82 -145.262 215.354C-144.156 215.521 -142.917 214.153 -140.873 214.755C-138.528 215.422 -137.49 217.894 -135.614 218.995C-133.738 220.165 -127.607 221.167 -127.406 220.9C-124.157 223.171 -122.516 227.61 -120.807 229.248C-118.328 231.519 -112.7 233.256 -109.183 234.791C-110.154 228.779 -103.555 234.258 -103.288 232.254C-102.751 228.314 -111.561 230.783 -114.007 229.18C-119.903 225.24 -113.605 220.832 -116.62 216.458C-119.199 212.751 -125.765 215.688 -128.947 214.287C-126.134 211.215 -121.946 201.463 -128.009 201.828C-133.503 202.198 -130.823 206.004 -134.207 208.675C-137.322 211.147 -142.348 209.543 -144.793 207.44C-150.153 202.731 -149.951 189.774 -146.736 185.031C-142.314 178.554 -135.279 184.832 -130.388 183.293C-131.561 179.221 -126.938 179.822 -124.057 180.021C-124.325 179.99 -117.491 181.293 -118.362 180.691C-116.218 182.192 -112.734 193.382 -110.49 193.18C-107.777 192.948 -112.566 178.085 -108.915 173.91C-106.57 171.205 -101.646 170.538 -100.239 167.33C-99.0329 164.594 -100.774 163.258 -101.545 159.851C-99.5351 160.385 -100.574 158.749 -98.4633 160.918C-97.6925 159.25 -96.0177 154.809 -94.8119 153.64C-93.3045 152.303 -89.4186 152.036 -86.9062 151.335C-90.5577 144.456 -76.6888 139.513 -71.53 140.715C-72.2335 140.582 -76.5212 142.252 -77.1244 143.454C-78.9333 147.127 -73.9085 143.988 -73.7409 143.954C-69.4532 143.454 -64.629 140.181 -63.3228 136.374C-66.7395 137.977 -67.7109 140.715 -71.8983 138.511C-77.4596 135.505 -72.0996 132.834 -73.3726 130.83C-76.8902 125.42 -85.7335 135.238 -89.4185 137.576C-88.4471 135.773 -87.1741 134.203 -85.5995 132.901C-86.5042 132.7 -87.4422 132.433 -88.3464 132.199C-83.6903 133.235 -81.0102 127.424 -77.024 126.288C-74.377 125.52 -70.6925 126.489 -68.0125 126.288C-63.8251 125.887 -64.2606 125.42 -60.71 123.884C-57.4604 122.548 -52.3017 122.047 -53.8421 117.906C-55.4167 113.665 -60.9443 116.67 -64.2606 117.004C-62.686 114.332 -59.47 114.9 -57.0242 112.863C-61.2117 112.195 -64.9978 110.592 -67.3757 106.919C-64.7966 105.349 -72.1326 97.4675 -73.4393 94.5627C-75.5498 96.9003 -75.5497 100.674 -78.9333 101.442C-82.2165 102.143 -81.7804 98.7371 -85.4656 99.7056C-83.1539 91.7573 -89.5863 89.0185 -95.7839 87.4493C-102.818 85.6124 -107.508 89.1856 -102.517 96.4655H-104.192C-104.728 97.7016 -104.359 98.4695 -105.13 99.8056C-98.5305 102.544 -100.038 112.529 -107.642 112.263C-105.464 114.6 -103.522 123.316 -108.346 123.75C-113.036 124.084 -114.141 115 -113.705 111.561C-119.132 110.659 -122.415 109.857 -127.105 107.453C-129.182 106.418 -131.628 105.65 -133.47 104.915C-135.111 104.214 -135.514 105.716 -136.921 104.848C-137.992 104.214 -138.16 101.843 -138.864 100.975C-141.276 98.0018 -142.515 99.7056 -142.046 94.8628C-141.878 92.8588 -139.868 89.6863 -138.428 88.2172C-136.887 86.6809 -133.269 86.2467 -133.638 84.0092C-133.906 82.5395 -139.801 81.7051 -140.974 81.2709C-137.892 81.571 -132.163 84.4434 -131.326 80.5696C-127.708 82.7401 -126 80.2689 -125.028 77.23C-128.311 77.4471 -130.79 75.8438 -133.604 74.5082C-131.46 74.5912 -119.132 77.5807 -124.191 72.2377C-118.697 71.8199 -122.449 80.5696 -124.894 81.5045C-122.885 83.642 -122.114 84.1763 -119.066 84.1427C-119.233 84.1427 -116.252 82.7401 -115.381 82.573C-114.309 82.4064 -113.136 83.6755 -112.265 83.5415C-105.431 82.3729 -118.864 77.6642 -120.003 75.2095C-116.921 75.0925 -118.798 75.1425 -117.525 73.5562C-112.834 73.2061 -110.691 69.2482 -113.839 65.3574C-107.441 64.2724 -115.347 60.1144 -117.625 59.0624C-113.706 58.4611 -109.518 60.315 -105.364 58.8123C-106.001 58.2281 -106.637 57.6432 -107.274 57.0255C-102.919 58.2946 -99.904 60.9328 -96.0849 63.7882C-94.4767 64.9737 -91.4956 66.7935 -91.3952 69.1982C-91.2607 72.4372 -97.3915 72.3042 -94.6441 76.3951C-96.9223 76.9128 -105.029 75.126 -104.661 79.1334C-104.292 83.0407 -98.3629 78.7657 -96.8555 78.9333C-92.065 79.5341 -91.6967 82.8401 -88.6479 85.3453C-85.6332 87.7494 -80.8427 87.4158 -77.2584 89.3527C-77.1245 86.3468 -81.7473 84.8441 -83.4554 82.2058C-80.3067 83.742 -77.1579 85.3118 -74.1758 87.0816C-73.7745 86.3468 -73.1377 83.9421 -72.8703 83.0407C-75.7841 80.2689 -79.1676 77.7642 -82.0152 74.024C-79.8374 70.8515 -79.0001 73.0555 -76.4546 74.3911C-72.3675 76.5452 -74.1428 77.7642 -70.8932 76.8793C-71.1281 76.9293 -66.8735 73.5227 -66.9071 73.5562C-65.5337 71.0015 -65.2994 72.9055 -67.142 70.5844C-68.984 68.2297 -87.1742 63.2039 -78.0959 61.317C-79.0001 61.0664 -79.9047 60.8327 -80.8426 60.5986C-80.0723 60.0309 -80.2395 59.9643 -79.1677 59.5301C-80.5747 58.9624 -81.1106 57.8769 -82.8528 57.5262C-82.5849 57.0755 -82.3168 56.6583 -82.0152 56.2076C-85.3652 55.5063 -86.9393 54.7544 -89.9882 53.953C-89.4523 53.6023 -88.8828 53.2346 -88.3464 52.8845C-94.3763 52.7339 -94.745 49.3278 -98.9324 48.0087C-102.148 47.0067 -108.346 50.5964 -109.719 49.8621C-111.829 48.7601 -109.183 47.6245 -110.556 45.6541C-112.902 42.2645 -112.566 42.6987 -116.385 43.3995C-122.147 44.4685 -121.846 49.0772 -118.931 52.8845C-124.961 53.6694 -124.124 44.6856 -119.802 42.5651C-124.392 42.3815 -128.68 42.8823 -130.522 47.7581C-133.001 54.4207 -128.043 51.3983 -125.631 54.9215C-127.373 54.4873 -128.411 55.2056 -130.02 55.1386C-128.546 57.2426 -121.913 57.9439 -119.066 58.8123C-120.807 59.5131 -121.712 71.1851 -126.335 68.7975C-128.411 67.729 -126.268 64.4725 -126.335 64.4059C-128.177 62.352 -129.852 63.1533 -130.489 62.8032C-131.259 62.369 -134.776 61.2335 -136.15 59.1795C-138.06 56.3741 -138.562 48.6265 -144.391 52.6839C-149.885 56.4912 -138.495 63.3539 -144.927 62.0183C-143.955 64.6895 -141.945 64.5565 -139.667 62.5026C-139.735 66.577 -145.094 65.1908 -143.486 69.866C-146.166 68.0462 -145.53 68.7975 -145.396 66.0592C-147.908 65.3744 -145.865 65.9422 -147.171 64.0388H-145.63C-145.496 61.3835 -147.271 59.7643 -149.918 59.2965C-150.588 59.9643 -152.163 61.6671 -152.766 62.369C-151.526 62.8532 -150.555 64.1388 -149.315 64.6395C-152.163 69.766 -157.689 67.4449 -162.413 66.3594C-165.495 65.658 -165.864 64.4565 -168.845 65.6915C-173.234 67.5454 -171.19 67.8291 -171.826 72.2377C-173.769 65.3244 -182.948 67.6455 -188.509 67.1277C-188.04 66.8606 -187.505 65.675 -185.896 65.1238C-188.643 62.9032 -197.889 60.282 -201.139 59.6472C-205.191 58.8788 -209.145 63.0368 -210.652 58.1275C-211.825 62.0848 -212.662 59.5802 -214.538 59.4801C-215.141 59.4466 -215.811 56.7918 -217.218 56.6248C-219.094 56.4071 -217.921 57.8103 -218.96 58.0104C-221.037 58.4781 -226.766 61.5671 -229.244 62.9868C-227.067 60.1314 -223.516 60.5321 -221.406 57.9939C-225.426 58.0104 -230.183 60.1979 -234.202 61.0328C-240.969 62.4355 -243.682 59.6472 -250.583 58.8788C-255.775 58.3111 -260.532 57.2426 -265.926 56.8083C-271.621 56.3406 -274.569 54.3202 -280.465 55.022C-280.264 54.5878 -280.063 54.1536 -279.862 53.7194C-283.48 53.0516 -288.371 55.3557 -291.586 56.3241C-296.008 57.6432 -296.31 60.315 -299.392 62.2019C-303.78 64.8566 -306.896 62.0348 -303.378 66.66C-301.168 69.5824 -296.377 69.9831 -294.769 73.7739C-297.281 74.6082 -299.995 74.4747 -300.129 71.6528C-302.976 73.6733 -306.192 72.9549 -308.57 75.7938C-305.489 77.0464 -305.522 79.5676 -302.876 80.2354C-299.827 81.0038 -295.808 78.9333 -292.96 78.6656C-292.558 87.3487 -302.674 81.2039 -304.149 88.885C-304.517 90.9555 -299.727 99.638 -296.645 94.5627C-294.97 96.1654 -294.501 98.0353 -295.238 100.239C-292.223 99.638 -288.84 100.674 -287.366 98.8372C-286.428 98.8372 -285.188 99.1043 -283.915 99.0708C-286.16 109.022 -297.516 107.386 -302.842 113.465C-295.138 115.334 -282.34 103.613 -275.707 99.9057C-276.311 99.0373 -276.88 98.1694 -277.483 97.3009C-273.43 95.9648 -271.923 89.2521 -267.232 92.2911C-270.549 92.6923 -272.391 94.6292 -271.42 97.7687C-269.008 96.3325 -266.294 95.0964 -263.447 94.8963C-263.682 94.4286 -263.916 93.8943 -264.15 93.3936ZM-273.899 103.112V100.975C-276.311 102.711 -279.828 103.178 -277.852 106.318C-276.277 105.65 -274.837 104.548 -273.899 103.112Z" fill="#1CB45F"/>
</g>
</svg>
