<svg width="241" height="241" viewBox="0 0 241 241" fill="none" xmlns="http://www.w3.org/2000/svg">
<path d="M205.69 204.655C252.507 157.837 252.507 81.9306 205.69 35.1129C158.872 -11.7048 82.9655 -11.7048 36.1479 35.1129C-10.6698 81.9306 -10.6698 157.837 36.1479 204.655C82.9656 251.472 158.872 251.472 205.69 204.655Z" fill="#73D4FF"/>
<mask id="mask0_8260_7682" style="mask-type:luminance" maskUnits="userSpaceOnUse" x="1" y="0" width="240" height="240">
<path d="M205.69 204.655C252.507 157.837 252.507 81.9306 205.69 35.1129C158.872 -11.7048 82.9655 -11.7048 36.1479 35.1129C-10.6698 81.9306 -10.6698 157.837 36.1479 204.655C82.9656 251.472 158.872 251.472 205.69 204.655Z" fill="white"/>
</mask>
<g mask="url(#mask0_8260_7682)">
<path d="M-90.4663 -13.8566C-89.1019 -5.96097 -83.3953 -18.5632 -90.4663 -13.8566V-13.8566ZM-96.2041 -13.3919C-94.2813 -13.3919 -93.2267 -14.5375 -93.537 -16.0239C-94.1879 -15.7141 -99.4295 -13.3919 -96.2041 -13.3919ZM-84.7287 -51.9101C-83.2403 -52.6067 -82.3408 -53.5046 -80.542 -53.6906C-83.209 -56.183 -86.8378 -55.7183 -90.2495 -55.6719C-90.2183 -52.3743 -87.9857 -51.0427 -84.7287 -51.9101ZM248.514 117.365C247.275 118.944 248.142 127.676 251.429 124.673C253.29 123.031 249.136 118.015 248.514 117.365ZM384.385 229.234C385.191 231.834 387.272 234.932 389.72 235.613C389.907 235.087 389.907 234.56 389.72 234.095H391.549C391.644 231.897 392.264 231.431 392.264 229.357C390.59 229.824 384.2 228.057 384.385 229.234C384.48 229.605 384.356 229.11 384.385 229.234ZM391.21 226.076C391.21 227.192 392.2 227.966 393.102 228.118C393.07 226.447 392.388 226.076 391.21 226.076C391.365 226.076 391.21 226.199 391.21 226.076ZM383.178 225.518C381.968 226.108 382.742 227.065 383.61 227.376C383.673 227.192 383.889 225.239 383.178 225.518C383.302 225.457 382.991 225.581 383.178 225.518ZM435.992 243.571C439.558 243.571 440.396 236.913 444.709 236.044C442.817 232.081 449.981 232.702 444.833 229.573C440.739 227.128 442.381 231.308 439.961 233.971C437.824 236.355 433.791 236.945 432.241 239.7C431.062 241.837 431.434 244.158 435.992 243.571C436.087 243.571 435.839 243.571 435.992 243.571ZM433.232 244.652C432.86 244.932 432.736 245.119 432.457 245.49H434.226C434.318 244.9 434.162 243.971 433.232 244.652C433.388 244.529 433.076 244.776 433.232 244.652ZM447.25 220.068C447.25 221.152 447.345 223.971 447.345 224.218C447.345 223.971 445.608 224.094 445.576 225.394C445.576 227.065 446.846 225.27 447.126 226.323C447.065 226.199 448.926 230.286 449.981 229.976C450.384 229.852 451.439 227.87 452.09 227.252C455.377 224.155 457.641 220.442 451.003 221.618C450.972 219.82 450.229 217.033 448.987 219.76C447.625 218.891 447.438 216.076 445.856 214.497C442.909 211.523 447.25 218.955 447.25 220.068ZM425.416 181.025C427.093 183.596 428.551 185.701 432.117 186.072C431.838 184.522 426.845 180.961 425.416 181.025ZM354.303 161.424C351.512 161.922 355.729 162.508 356.72 162.417V161.548C356.069 161.488 353.465 161.488 354.303 161.424ZM379.208 162.54C375.918 166.595 380.354 176.535 373.034 174.554C373.066 174.554 366.336 170.251 366.213 169.909C364.939 167.153 367.546 165.698 368.382 163.529C364.659 163.035 361.033 161.145 357.467 161.145C358.178 161.766 358.086 162.23 359.359 162.975C358.705 162.572 354.954 165.08 353.961 165.698C350.985 167.588 355.606 167.959 350.642 168.919C349 169.227 348.253 166.938 345.589 167.927C343.385 168.732 343.106 171.675 340.593 171.675C340.968 172.48 341.06 173.78 341.495 174.554H339.571V173.067C336.655 172.911 335.664 179.103 332.346 180.685C329.834 181.89 325.956 182.265 323.196 183.346C321.986 183.78 321.18 187.743 319.754 184.43C318.544 188.114 318.264 190.283 320.313 193.904C315.908 191.922 320.684 198.704 321.583 201.12C323.444 206.012 325.242 209.202 321.523 212.391C324.063 212.391 325.553 215.207 328.808 214.681C330.669 214.433 331.599 212.204 333.679 211.77C335.321 211.339 337.059 212.946 338.456 212.575C339.942 212.141 339.974 210.965 341.216 210.47C342.394 210.007 343.696 208.675 345.03 208.117C345.96 207.715 346.767 209.079 347.882 208.675C351.823 207.188 356.288 204.896 360.909 207.312C363.669 208.799 366.336 219.326 369.284 209.852C371.393 210.563 369.189 212.017 369.5 213.815C372.104 212.265 371.113 214.433 370.926 216.786C375.206 215.981 373.282 219.729 376.445 222.3C376.82 222.607 380.726 223.816 381.501 223.847C383.673 223.907 382.991 221.71 384.356 221.647C385.718 221.618 385.75 224.218 386.649 224.031C391.054 223.102 395.675 221.431 397.288 217.344C398.342 214.681 398.59 211.926 400.264 209.079C403.614 203.381 404.233 197.404 401.134 191.272C400.451 189.849 399.552 189.414 398.498 188.301C397.783 187.528 397.783 186.133 397.288 185.546C397.133 185.391 394.868 184.741 394.309 184.214C393.598 183.533 393.658 181.89 392.883 181.117C391.829 180.128 389.225 179.383 388.418 178.393C386.433 175.945 385.874 171.148 384.385 168.796C383.921 168.051 382.555 167.493 381.844 166.38C381.005 165.017 381.44 161.672 379.424 161.177C379.3 161.643 379.236 162.074 379.208 162.54ZM416.267 158.234C416.889 159.195 417.572 158.888 418.379 158.577C417.975 157.492 415.616 156.843 416.267 158.234C416.362 158.39 416.206 158.143 416.267 158.234ZM405.475 150.834C405.475 151.763 407.616 152.943 408.203 152.816C407.676 151.456 406.094 150.619 406.094 149.318C405.815 149.287 405.507 149.318 405.227 149.411C405.415 150.061 405.475 150.216 405.475 150.834ZM392.759 149.534C393.007 152.353 401.102 150.961 400.359 146.564C399.956 146.624 392.759 150.587 392.759 149.534C392.791 149.877 392.759 149.351 392.759 149.534ZM355.821 155.048C355.821 155.48 358.985 155.977 357.467 152.943C356.164 153.127 355.605 153.84 355.821 155.048ZM344.471 153.716C344.687 154.861 345.897 154.614 346.891 154.179C346.053 153.438 345.618 153.963 344.471 153.716ZM363.11 149.318C362.398 149.782 361.776 150.834 361.776 151.763C361.776 153.561 365.933 147.429 363.11 149.318ZM360.01 145.79C362.024 144.889 364.568 146.655 366.521 147.553C368.166 148.326 369.779 147.863 370.926 149.877C372.475 152.569 370.71 151.858 371.05 153.405C371.145 153.809 368.88 153.745 369.839 155.543C370.274 156.379 372.818 154.49 373.685 154.705C376.445 155.479 377.531 157.959 380.974 156.906C383.083 156.285 382.991 153.25 386.465 154.49C387.827 154.985 388.138 156.656 389.349 157.337C391.673 158.701 390.527 158.266 393.69 159.011C398.466 160.092 396.885 160.435 394.528 157.153C394.185 156.656 391.86 156.934 391.457 156.595C391.673 156.779 390.155 152.756 390.463 153.776C390.371 153.437 387.487 151.332 391.21 151.671C390.495 150.34 387.084 147.863 385.378 146.903C382.152 145.045 379.64 144.426 376.042 143.342C370.957 141.703 371.237 142.692 367.204 143.342C364.691 143.777 361.964 142.568 358.457 143.466C358.832 144.829 359.359 146.129 360.01 145.79C360.134 145.758 359.915 145.85 360.01 145.79ZM342.486 141.053C340.565 141.484 344.223 141.95 344.906 141.826C344.906 140.555 343.54 140.866 342.486 141.053ZM365.314 139.379C365.438 140.371 365.59 140.587 365.53 141.731H367.731C367.391 140.679 366.8 141.177 366.8 139.379H365.314C365.87 139.319 365.343 139.534 365.314 139.379ZM356.04 139.503C355.513 139.443 355.047 139.566 354.611 139.968C356.908 141.3 359.388 143.219 362.427 141.826C359.886 137.15 358.365 140.4 356.04 139.503ZM355.513 138.761C350.333 137.768 358.521 135.726 355.513 138.761C355.326 138.729 355.853 138.39 355.513 138.761ZM353.281 141.484C354.084 141.855 354.427 143.9 354.767 141.301C353.652 141.484 353.529 141.579 353.281 141.484ZM349.339 144.024C349.339 144.829 353.96 145.571 355.294 145.571C355.015 143.095 349.743 143.777 349.339 144.024ZM347.574 144.335C346.983 144.211 346.395 144.055 345.773 143.932C346.828 146.5 348.037 144.613 347.574 144.335C347.726 144.426 347.294 144.211 347.574 144.335ZM350.302 132.381C348.72 134.55 347.603 134.858 347.726 137.955C347.946 142.321 349.032 137.026 351.636 137.429C351.791 135.974 351.045 134.705 349.743 134.797C350.054 133.929 350.302 133.25 350.302 132.381C350.302 132.6 350.086 132.692 350.302 132.381ZM329.586 144.147C329.586 144.147 331.847 146.998 331.571 146.687C331.475 146.564 331.911 149.227 332.003 149.534C333.585 148.482 333.213 145.324 333.213 143.589H334.547C334.702 144.303 337.091 149.629 338.021 149.195C339.695 148.453 336.595 142.6 335.633 141.361C345.837 141.361 329.586 135.415 329.586 144.147ZM342.362 134.797C340.657 135.415 330.888 134.116 331.352 138.203C334.547 136.716 335.417 137.026 338.828 136.344C339.882 136.098 340.222 137.305 341.495 136.779C342.175 136.468 344.75 133.805 342.362 134.797C342.797 134.61 342.238 134.858 342.362 134.797ZM340.066 158.453C340.066 160.372 347.51 156.719 348.317 155.914C345.402 154.458 340.565 157.585 340.066 158.453ZM339.168 160.311C338.269 160.435 338.053 160.774 338.516 161.424H339.818C339.942 160.869 339.914 160.064 339.168 160.311C339.323 160.248 338.856 160.435 339.168 160.311ZM332.222 155.822C334.143 157.74 340.161 156.161 342.362 155.232C340.593 154.924 333.057 154.924 332.222 155.822ZM331.447 157.245C328.684 158.082 333.74 159.443 334.639 159.382C334.267 158.948 332.406 157.058 331.447 157.245C331.571 157.214 331.104 157.337 331.447 157.245ZM325.924 155.356C324.343 155.48 329.894 155.822 331.012 155.822C330.669 155.914 330.609 155.727 330.793 155.232C328.964 155.232 327.661 155.048 325.924 155.356C326.267 155.324 325.645 155.387 325.924 155.356ZM302.013 151.64C304.526 153.622 308.092 154.211 312.402 154.645C315.816 155.016 320.065 156.779 323.724 156.253C322.701 154.211 320.56 153.653 318.232 154.119C318.388 152.569 319.506 153.314 320.652 152.632C314.358 151.58 308.556 151.456 302.013 151.64ZM295.284 148.453C294.817 149.474 295.129 149.969 295.284 148.453V148.453ZM310.944 133.466C308.028 135.508 309.861 139.195 311.503 141.361C313.891 144.613 314.885 144.271 319.443 145.016C324.035 145.818 322.577 146.998 325.181 143.158C325.305 142.971 325.769 139.937 326.267 139.071C326.947 137.955 329.462 137.461 330.237 135.787C327.321 133.9 328.128 133.402 327.477 129.223C329.71 129.347 329.027 127.86 331.228 127.086C331.415 127.613 325.924 123.278 326.391 123.218C324.654 123.342 323.381 126.313 322.018 127.521C318.979 130.216 313.675 135.508 310.944 133.466ZM287.684 139.968C287.808 141.424 290.228 145.016 291.654 145.324C291.346 143.342 287.684 140.124 287.684 139.968C287.716 140.308 287.684 139.75 287.684 139.968ZM284.149 135.108C284.709 136.161 285.763 136.468 286.259 137.552C286.259 136.221 285.887 135.26 284.489 134.674C284.086 135.726 284.461 135.2 284.149 135.108ZM282.504 132.226C282.504 131.887 281.825 130.958 281.825 131.947C281.825 132.847 282.381 133.25 283.156 133.374C283.435 132.816 283.219 132.445 282.504 132.226ZM283.28 127.182C282.041 127.182 281.358 125.942 280.18 126.097C280.707 128.665 284.769 131.205 286.134 132.939C288.275 135.571 290.041 139.471 292.305 142.413C293.858 144.363 297.517 149.722 299.594 149.753C304.186 149.877 301.578 145.448 305.209 144.335C304.805 141.484 302.169 140.432 299.905 142.042C299.657 138.792 287.624 127.676 283.28 127.182C283.778 127.242 283.095 127.182 283.28 127.182ZM340.285 119.562C337.897 119.81 335.817 121.42 337.091 124.084C339.012 119.439 341.835 124.766 344.906 126.097C343.82 123.773 345.773 123.278 345.805 123.218C345.868 122.784 346.767 117.146 344.811 117.146C342.826 117.146 342.486 121.05 340.285 119.562C340.441 119.686 339.942 119.626 340.285 119.562ZM333.772 109.347C333.708 110.149 336.252 116.405 338.081 116.065C337.15 118.107 340.441 119.502 339.634 115.507C339.26 113.805 335.633 109.654 333.772 109.347C333.895 109.407 333.74 109.654 333.772 109.347ZM336.967 109.036C339.727 110.954 341.556 114.639 344.534 115.228C344.534 111.855 341.4 111.078 341.4 108.076C339.602 108.076 338.704 109.036 336.967 109.036C337.307 109.283 337.307 109.036 336.967 109.036ZM332.778 111.018C331.136 114.176 326.918 117.334 326.048 119.933C329.71 119.933 332.778 114.639 332.778 111.018C332.778 111.389 332.717 111.173 332.778 111.018ZM334.486 98.1068C331.228 99.87 332.034 106.496 335.757 107.673C335.601 105.567 340.314 98.1068 334.486 98.1068ZM336.624 84.204C336.624 83.1512 332.25 86.7118 332.902 90.7671H334.207C334.207 88.0433 336.624 86.7118 336.624 84.204ZM392.883 34.9411C390.682 35.3437 389.257 37.1395 386.369 37.3566C383.207 37.6042 381.749 36.985 378.43 35.1271C378.306 36.1177 377.004 43.6419 375.67 40.886C375.083 41.9078 373.098 46.676 376.321 45.159V46.2739C374.368 46.6143 373.438 52.8686 371.269 55.3166C371.269 54.6348 371.329 54.2609 371.269 53.5504C369.995 54.7903 369.623 55.2215 369.065 56.8318C368.569 56.1504 367.762 57.3266 368.074 55.4084C366.645 56.4292 366.117 57.8244 365.901 59.9295C361.496 58.0084 353.28 61.6607 352.503 66.4931C353.341 66.5528 354.519 66.4931 355.047 66.4931C355.047 68.6298 352.69 69.5874 355.945 70.5164C355.945 68.2588 359.575 65.0056 355.945 64.6983C356.72 62.4057 362.211 62.4057 364.536 62.0031C362.024 63.5823 357.994 62.0633 358.924 66.3056C360.969 65.4403 362.925 64.5113 364.32 63.2113C365.342 65.5641 368.166 63.7377 367.731 61.6923C376.445 60.7036 374.803 60.2689 376.88 52.9924C378.027 48.9677 379.392 45.8092 375.578 42.6512C378.154 42.1554 382.463 44.5704 382.308 41.7533C384.2 42.1554 392.883 37.3566 392.883 34.9411C392.883 35.0649 392.728 34.9411 392.883 34.9411ZM396.977 32.836C396.046 32.9904 395.582 33.6406 394.744 34.0743C396.11 34.8794 396.481 34.0126 396.977 32.836C396.821 32.8665 396.793 33.2691 396.977 32.836ZM407.771 21.0694C407.523 21.9673 406.965 22.8036 406.437 23.6087C408.235 22.8652 407.74 21.4414 407.771 21.0694ZM434.131 9.48941C433.915 9.48941 433.512 8.37493 432.924 8.83918C432.8 9.24225 432.768 9.67542 432.8 10.1091C433.172 10.2018 434.566 10.3562 434.131 9.48941ZM431.155 9.83031C430.72 8.592 430.844 7.81744 429.697 6.95061C429.697 8.12727 429.945 9.14899 430.037 10.2946C430.815 10.5116 431.371 10.5422 431.155 9.83031C431.219 9.98473 431.092 9.6754 431.155 9.83031ZM425.388 -2.1217C426.223 -2.1217 426.781 -3.11235 426.845 -3.70092C424.92 -4.44342 424.737 -3.26677 423.99 -2.1217C424.457 -2.02845 424.921 -2.02845 425.388 -2.1217ZM476.344 -17.4482C478.201 -17.1384 480.777 -16.3333 482.638 -16.5814C481.057 -19.6772 477.646 -17.2933 476.344 -17.4482C476.683 -17.4172 476.156 -17.5099 476.344 -17.4482ZM456.835 -44.4476C459.222 -43.9059 462.17 -44.974 464.65 -44.974C463.999 -45.9804 461.982 -47.3895 460.309 -47.2967C459.718 -47.2809 454.974 -44.9123 456.835 -44.4476C456.958 -44.417 456.619 -44.4944 456.835 -44.4476ZM387.922 -61.2759C390.092 -60.4249 397.256 -57.8239 397.256 -61.8492C394.185 -62.0036 389.504 -61.5704 388.231 -63.7067C388.015 -63.4901 387.239 -61.5704 387.922 -61.2759C388.046 -61.2453 387.735 -61.3845 387.922 -61.2759ZM374.679 -54.2323C377.347 -53.8144 379.735 -54.3714 382.276 -53.4735C381.409 -57.22 377.252 -56.2605 374.679 -54.2323ZM376.88 -57.0035C378.338 -57.0035 375.642 -58.2418 374.803 -58.2107C374.803 -56.8796 375.702 -57.0035 376.88 -57.0035ZM368.629 -61.9577C371.018 -58.4742 384.48 -59.4184 385.378 -63.8152C383.238 -64.2178 380.539 -65.503 380.539 -62.0036C380.075 -62.0816 379.64 -62.0816 379.208 -62.0036C381.533 -66.8651 376.445 -64.0939 374.74 -64.1403C371.329 -64.2484 370.462 -65.9056 368.629 -61.9577ZM366.305 -62.8398C366.117 -63.2424 366.117 -63.7067 366.305 -64.1556C363.856 -64.4965 365.095 -61.9266 366.305 -62.8398C366.273 -62.9795 366.089 -62.6696 366.305 -62.8398ZM365.095 -58.1027C365.841 -56.3069 365.746 -55.2234 367.95 -55.517C367.359 -56.3221 365.901 -57.561 365.095 -58.1027ZM306.418 -74.2807C305.796 -75.4416 303.935 -75.7361 302.696 -75.1476C303.005 -74.7914 306.946 -72.9492 306.418 -74.2807C306.479 -74.1258 306.323 -74.4667 306.418 -74.2807ZM280.739 -69.1099C281.482 -69.3576 282.32 -69.1099 283.064 -69.1099C282.784 -71.8811 281.606 -69.6985 280.739 -69.1099ZM290.32 -73.073C290.755 -73.073 301.207 -75.3025 301.454 -75.5965C304.03 -78.9716 296.307 -78.6311 295.719 -78.8941C296.247 -79.4363 296.462 -79.4516 296.618 -80.1171C292.057 -80.907 289.825 -73.073 290.32 -73.073ZM283.28 -83.9569C275.591 -82.8419 276.674 -78.5226 283.746 -77.8724C289.11 -77.3617 289.485 -77.2374 289.206 -80.4422C288.863 -84.7927 289.173 -82.6406 285.141 -82.6406C285.575 -83.3683 285.544 -83.1981 285.699 -83.9411C284.864 -83.9569 284.086 -83.9717 283.28 -83.9569ZM276.646 -83.5228C279.713 -81.8977 284.026 -86.1548 285.795 -87.2698C281.793 -89.1894 276.302 -89.406 273.107 -85.1799C273.295 -84.8237 275.899 -83.8795 276.646 -83.5228C276.798 -83.43 276.55 -83.6007 276.646 -83.5228ZM275.775 -82.5321C274.317 -82.5321 273.263 -83.3683 271.745 -83.0896C271.929 -78.6153 277.792 -82.5321 275.775 -82.5321ZM271.246 -89.7C267.931 -89.7 270.503 -88.3221 270.255 -87.9353C269.605 -86.8519 274.536 -89.7 271.246 -89.7ZM185.217 -38.0695C183.292 -38.3946 180.097 -40.6547 181.495 -36.0877C182.733 -36.0877 184.998 -36.7226 185.217 -38.0695C185.185 -37.9304 185.093 -38.0848 185.217 -38.0695ZM193.712 -54.0152C191.759 -54.2012 187.729 -49.1078 187.729 -46.4294C188.875 -46.6618 189.65 -47.3894 190.301 -45.9962C190.704 -46.1817 190.86 -46.4763 190.736 -46.8626C193.248 -45.5936 191.511 -44.1693 192.877 -43.5655C194.642 -42.7914 198.056 -43.0701 200.009 -43.0701C199.762 -45.7486 196.783 -46.5996 196.599 -49.0767C196.348 -52.1419 198.923 -53.9225 200.784 -55.7957C205.189 -60.1772 209.312 -62.5922 215.765 -64.1556C217.655 -64.6199 225.658 -66.2771 224.819 -68.3358C223.581 -71.3547 218.96 -67.9643 217.315 -67.469C213.313 -66.1838 200.009 -65.8434 200.009 -60.9666C199.171 -61.0751 198.428 -61.1057 197.589 -60.9666C199.638 -57.4524 192.41 -57.5762 193.061 -55.2234C193.807 -55.3778 194.023 -55.6566 194.83 -55.5638C194.426 -54.5263 195.512 -53.8761 193.712 -54.0152C194.055 -53.9841 193.404 -54.0463 193.712 -54.0152ZM226.899 -53.0246C228.633 -53.0246 229.596 -54.1084 230.062 -54.3561C230.993 -54.8514 224.136 -53.0246 226.899 -53.0246ZM211.144 -87.9353C213.624 -84.2046 215.298 -87.7498 218.089 -88.2604C215.517 -89.7158 213.561 -87.1302 211.144 -87.9353ZM205.745 -87.9353C205.745 -86.6506 204.846 -87.0221 204.196 -85.9535C206.12 -85.3344 208.165 -85.288 210.369 -85.6753C208.537 -87.9817 208.724 -89.6695 205.745 -87.9353ZM204.97 -83.9569C204.383 -83.7867 203.824 -83.6313 203.205 -83.6313C203.513 -82.1142 204.506 -82.9657 205.745 -83.1981C205.621 -83.802 205.717 -84.1424 204.97 -83.9569C205.126 -83.9875 204.786 -83.91 204.97 -83.9569ZM197.25 -84.6224C198.272 -83.7398 198.428 -82.3777 200.009 -84.4059C200.009 -81.944 203.205 -84.2509 203.636 -84.6224C203.668 -84.9318 203.636 -85.211 203.513 -85.5046C201.559 -85.8761 198.46 -85.0092 197.25 -84.6224ZM190.952 -84.4059C192.781 -86.2633 196.659 -87.0685 199.451 -86.4025C198.8 -90.3661 203.081 -85.0092 203.636 -88.6941C202.677 -88.6941 201.839 -88.5392 200.877 -88.6941C201.248 -89.2358 201.963 -90.5052 202.21 -90.7839C200.692 -90.7839 199.698 -89.8244 198.892 -89.5762C199.419 -89.7464 196.224 -88.8954 195.916 -88.6941C195.109 -88.1988 194.83 -87.0838 193.712 -86.2791C192.162 -85.1641 191.419 -86.0315 190.952 -84.4059ZM182.145 -87.3783C178.887 -87.3783 178.08 -86.2323 174.981 -86.8361C175.137 -84.4675 179.199 -86.062 181.06 -86.062C177.214 -83.2756 183.696 -82.579 185.588 -85.0714C188.627 -89.1431 185.744 -87.3783 182.145 -87.3783ZM118.969 -83.6313C119.683 -81.8202 123.685 -84.2509 124.46 -82.2075C123.374 -82.2691 122.256 -82.1611 121.141 -82.2075C123.158 -76.6183 134.166 -81.6036 136.71 -83.0896C134.229 -85.8297 130.755 -83.5538 128.554 -84.2046C128.957 -85.025 129.516 -84.8701 129.329 -85.8455C126.724 -84.8237 127.404 -85.7058 125.886 -83.0896C124.924 -85.5978 117.822 -86.1706 118.969 -83.6313C119.033 -83.43 118.845 -83.8795 118.969 -83.6313ZM114.536 -75.2714C114.536 -74.668 108.641 -75.0237 107.93 -72.6241C109.356 -72.9339 113.821 -73.9556 114.412 -73.1816C113.51 -72.5935 108.705 -71.8189 108.641 -71.4168C108.517 -70.6733 112.83 -68.5835 113.761 -67.3452C116.613 -69.4967 119.34 -73.6769 119.34 -76.6493C120.179 -76.7732 121.668 -76.8043 122.475 -76.6493C122.103 -73.9714 122.783 -75.8753 123.933 -74.3271C124.768 -73.1968 123.034 -72.2373 123.034 -71.0764C126.074 -72.965 126.381 -70.4567 127.56 -70.6422C128.77 -70.8282 130.942 -72.1287 132.18 -72.4075C130.847 -74.1722 129.484 -72.1445 129.484 -74.7139C128.182 -74.5437 119.404 -79.7609 119.157 -80.5661C118.785 -80.3959 118.102 -80.1946 117.388 -80.5661C117.667 -81.2163 118.038 -81.6342 118.194 -82.3155C114.876 -83.8795 114.783 -82.0679 113.234 -81.6342C113.977 -81.8513 112.052 -79.7767 111.836 -79.715C112.332 -79.8853 110.998 -82.3313 110.782 -82.393C111.093 -82.3002 107.092 -80.8448 107.155 -80.8917C107.587 -81.5725 107.774 -82.3002 108.146 -82.873C106.193 -82.4546 97.9739 -80.4886 104.516 -79.5754C104.516 -78.7397 104.672 -76.634 104.392 -75.9374C103.185 -76.5413 103.338 -77.5936 101.852 -77.9192C102.439 -76.7421 104.795 -72.8717 104.795 -76.3706C106.193 -76.2467 106.285 -74.1722 108.238 -74.8382C109.013 -75.0859 109.448 -76.5102 110.194 -76.5872C110.286 -76.603 114.316 -76.9745 114.536 -75.2714C114.536 -75.1939 114.472 -75.6587 114.536 -75.2714ZM387.363 -4.01025C392.883 -4.01025 393.814 -6.36355 397.628 -5.5584C399.737 -5.15582 397.224 -3.70093 399.397 -3.14343C402.528 -2.39995 401.505 -5.49673 404.233 -3.39059C404.453 -4.84599 405.415 -3.70093 406.653 -3.82426C405.971 -6.58015 404.916 -4.13409 406.002 -7.0138C406.469 -8.2832 409.353 -11.1318 410.344 -11.6888C413.91 -13.6706 416.921 -12.8966 416.921 -8.87128C421.726 -9.76918 422.936 -16.3027 427.497 -15.4048C424.457 -12.9276 423.403 -9.02619 420.02 -6.23923C415.739 -2.70977 410.312 -0.759048 408.794 3.85431C407.708 7.22935 407.8 11.9665 408.454 15.0628C409.353 19.3052 408.886 19.986 412.049 18.314C415.432 16.5493 415.711 8.90134 421.015 10.2635C419.585 7.56978 420.672 3.91647 423.742 5.8672C422.752 3.66882 423.587 1.62486 423.308 0.262703C423.123 -0.418617 421.85 0.0767059 421.323 0.262703C421.418 -0.821198 423.184 -5.06307 423.866 -5.68223C425.696 -7.35421 425.915 -6.39463 428.208 -6.92055C429.449 -7.16821 428.982 -6.05421 429.821 -6.11588C430.968 -6.20863 431.279 -8.06612 432.241 -8.12828C433.419 -8.15936 434.534 -7.75679 435.744 -7.91171C438.503 -8.22104 436.242 -6.23923 438.412 -5.80607C438.412 -11.0386 450.88 -14.2587 454.415 -15.2809C457.609 -16.1788 457.949 -12.4629 456.835 -17.2622C455.84 -21.5352 453.64 -19.8326 450.88 -21.659C449.299 -22.8357 457.422 -22.5569 457.393 -22.5264C459.75 -23.4706 460.493 -24.7553 459.379 -27.155C461.02 -27.2635 461.268 -25.5605 461.795 -25.4988C462.106 -25.4677 465.549 -24.8486 465.984 -24.6315C468.217 -23.5787 467.658 -22.8978 470.513 -22.2165C474.419 -21.2254 471.411 -21.5352 473.488 -22.3403C475.194 -22.9595 473.828 -24.6315 474.822 -25.4988C475.689 -26.2882 481.644 -23.78 479.227 -28.0529C478.357 -29.57 472.218 -30.6233 470.729 -30.0189C472.094 -29.0904 472.434 -26.892 470.17 -28.4861C469.363 -29.0593 470.513 -31.2577 469.458 -32.1246C468.9 -32.5735 467.845 -32.202 467.378 -32.6046C466.543 -33.3165 464.183 -34.6792 463.348 -35.1434C461.052 -36.3664 459.595 -37.2027 457.175 -38.3793C452.214 -40.7943 441.514 -42.6518 438.319 -39.3853C443.871 -37.1405 429.605 -35.1281 437.201 -40.0508C434.909 -41.7697 432.984 -39.4164 430.691 -39.0912C427.9 -38.7197 422.999 -38.3793 420.548 -39.6019C420.487 -38.813 420.456 -37.884 420.548 -37.063C417.044 -40.9492 417.229 -45.4387 409.972 -45.0051C407.273 -44.8349 404.669 -43.9833 401.909 -44.5408C398.342 -45.2838 397.659 -47.0796 394.528 -47.42C395.179 -48.2252 394.001 -47.9159 395.615 -48.7363C390.93 -51.3679 385.534 -44.7421 387.579 -50.1606C385.255 -50.1606 382.898 -51.4458 380.447 -51.4922C375.794 -51.5849 376.88 -50.8415 372.599 -50.1606C372.599 -48.2563 374.803 -48.3648 374.803 -46.3209C373.003 -46.7545 371.393 -47.0337 369.623 -47.1418C370.027 -46.569 371.113 -45.7175 370.71 -44.7732C368.601 -45.1758 368.197 -46.8009 366.213 -47.1724C366.305 -47.1724 360.969 -47.2345 360.69 -47.1418C357.806 -46.383 358.305 -43.5655 356.069 -43.5655C356.133 -43.5655 351.947 -47.1724 351.636 -47.9622C351.264 -48.9223 352.846 -52.0339 351.636 -53.4735C349.743 -55.703 348.193 -53.288 346.24 -53.7986C341.867 -54.9442 340.501 -57.9166 340.501 -51.9101C337.091 -51.879 335.166 -51.5539 332.098 -52.808C330.98 -53.2722 330.329 -54.7587 328.932 -55.1149C326.267 -55.7957 321.491 -54.5263 318.607 -54.5263V-56.2294C317.581 -55.9043 315.939 -54.8825 315.009 -55.7957C315.257 -55.8268 319.938 -58.0874 317.769 -58.6448C315.317 -59.2946 313.955 -55.4553 310.728 -55.997C311.195 -53.1173 306.355 -53.3655 303.751 -53.3655C306.542 -53.6284 318.823 -61.0909 319.102 -62.608C320.281 -69.2337 307.721 -68.6609 304.866 -67.577C305.425 -68.2584 305.859 -68.3975 305.859 -69.435C304.214 -69.2648 302.633 -69.7754 301.02 -69.7754C301.271 -70.3018 302.601 -71.9116 302.912 -72.1751C296.523 -72.6709 296.275 -70.472 292.305 -68.4444C292.832 -67.7783 292.708 -67.9643 292.864 -67.2519C288.491 -68.2742 288.151 -65.3017 284.489 -64.8991C283.156 -64.7753 280.739 -66.3698 278.754 -66.1374C278.382 -66.091 274.285 -63.5986 272.457 -63.1497C270.627 -62.7313 269.109 -62.5152 266.873 -61.7407C266.162 -61.4619 262.284 -60.0998 261.881 -59.4653C260.051 -56.7558 265.263 -58.5822 262.036 -56.2294C258.502 -53.6437 251.896 -56.9724 248.298 -53.7986C249.26 -51.5228 255.647 -47.8073 252.052 -47.5286C251.026 -47.4511 249.692 -49.4018 249.073 -49.6031C246.313 -50.5785 244.42 -50.656 241.692 -50.0679C242.715 -49.5721 244.017 -49.6806 244.017 -48.1946C235.798 -48.7205 245.351 -46.832 244.979 -44.2315C243.645 -46.2903 240.11 -44.9434 238.497 -46.9711C237.938 -47.6682 238.589 -51.1671 237.938 -52.4828C237.659 -52.2658 237.38 -52.1883 237.04 -52.2658C237.04 -48.1946 234.62 -49.8355 234.188 -47.42C234.188 -47.4047 234.867 -40.6704 235.023 -40.4228C237.38 -36.5835 236.728 -40.0508 239.612 -38.9363C243.182 -37.5278 242.994 -35.6698 242.994 -33.3323C242.994 -32.4961 245.786 -32.0629 246.221 -32.0007C241.628 -28.9819 242.559 -40.3917 236.325 -35.3294C236.325 -35.3294 236.544 -32.3101 236.077 -31.5671C235.21 -30.1585 234.28 -29.6321 233.069 -28.9819C229.719 -27.0933 229.783 -27.8669 225.502 -28.1614C226.432 -29.5236 229.907 -29.2917 231.673 -30.793C233.286 -32.2173 234.404 -33.8276 234.404 -36.1498C231.86 -35.9333 230.961 -45.9804 231.209 -48.798H232.635C233.381 -52.4828 227.331 -53.4118 224.695 -51.4458C224.355 -51.1671 220.166 -44.4323 220.074 -44.1229C220.789 -46.12 220.821 -39.3389 220.198 -40.5619C220.757 -39.3853 221.843 -39.6793 222.618 -38.0695C223.114 -37.0167 225.47 -37.063 225.038 -35.4221C224.292 -32.5424 221.408 -36.475 221.284 -36.5213C218.058 -37.3887 215.578 -38.5648 212.478 -39.6019C210.865 -40.1441 205.034 -43.1634 204.103 -43.008C200.041 -42.3888 211.763 -37.7291 203.916 -34.6481C203.916 -40.779 191.14 -30.2049 193.496 -37.1716C190.117 -35.1898 186.271 -35.1123 182.857 -32.8365C182.269 -32.4344 174.918 -25.7154 175.416 -32.4961C180.996 -32.3101 174.485 -36.0566 171.323 -36.0566C172.717 -34.6792 173.71 -27.6814 172.313 -26.8299C172.656 -27.0159 169.026 -27.8516 168.004 -27.6503C167.197 -27.4954 164.965 -24.9719 163.383 -24.8486C163.815 -24.2136 165.025 -22.3403 164.933 -21.4114C162.668 -22.588 160 -21.4735 158.108 -23.8574C153.551 -21.4114 160.404 -21.1015 160.404 -19.6772C160.404 -18.5632 156.961 -19.0891 156.682 -19.2441C153.271 -20.8539 154.977 -20.4518 153.459 -22.9595C152.185 -25.1426 149.457 -27.898 147.409 -30.5764C149.238 -30.236 168.559 -22.588 166.266 -31.5671C165.707 -33.7191 160.467 -35.7162 158.451 -36.4597C155.287 -37.6358 150.572 -36.7843 149.178 -37.6358C150.791 -41.0109 144.277 -39.927 142.788 -41.3054C145.268 -41.3054 143.998 -42.4505 142.727 -43.1165C139.533 -44.8038 140.835 -42.6833 138.57 -42.6833C138.818 -43.1634 139.129 -44.3242 139.253 -44.8349C138.538 -45.0051 136.897 -45.0051 136.214 -44.8349C136.274 -43.7204 136.058 -43.1165 136.214 -42.1258C135.655 -43.5038 135.16 -43.2403 134.073 -44.2315C133.67 -41.816 132.584 -40.7943 132.584 -43.8901C132.959 -44.0608 133.794 -43.9059 134.165 -43.9059V-45.3302C133.235 -45.1911 127.252 -42.0015 129.421 -44.3395C124.8 -44.8038 125.203 -42.2961 127.655 -40.9334C126.321 -41.4598 124.553 -41.0109 123.158 -41.4751C123.158 -40.2057 123.374 -39.8653 122.475 -39.1534C122.475 -40.7326 120.179 -42.1722 118.629 -42.0173C119.249 -39.8189 117.172 -36.4128 116.768 -39.6019C114.069 -36.9086 116.581 -38.8283 115.65 -35.9639C113.386 -36.8775 113.913 -36.2426 113.234 -38.5027C112.303 -38.178 111.776 -37.1869 110.347 -36.5213C110.75 -35.7936 110.69 -36.1346 110.69 -35.4221C108.61 -35.4221 107.371 -34.4468 106.285 -33.0072C108.581 -33.7344 111.96 -35.8711 114.412 -34.6481C111.154 -33.9051 106.348 -28.378 105.726 -24.3996C104.64 -24.3064 102.998 -23.2383 102.068 -22.3403H103.836C103.586 -20.173 98.5614 -18.0057 97.0117 -18.3461C97.0117 -17.4482 96.856 -17.8197 97.2307 -16.7053C91.2443 -15.4664 90.4981 -11.9986 89.2908 -7.66403C94.2517 -7.81845 87.5222 -4.69158 92.0508 -4.31959C91.9554 -3.08176 91.3362 -2.89577 91.4919 -1.71912C96.3604 -1.71912 98.1582 -1.16163 101.416 -5.24858C103.557 -4.87708 105.17 2.73982 107.06 4.87605C107.587 5.49521 105.85 6.57912 107.216 7.07445C110.378 8.31326 109.013 6.02162 110.347 5.5263C112.735 4.69055 114.037 3.85432 116.085 3.35899C116.241 2.95641 116.241 2.61551 116.085 2.24401C114.907 2.36834 114.564 2.33724 113.884 1.81084C114.564 0.726936 117.419 -2.8336 117.635 -3.39059C118.35 -5.21798 121.049 -6.79671 116.984 -6.79671C116.984 -9.7075 114.472 -12.4323 117.512 -15.9307C119.033 -17.727 121.853 -17.8197 123.25 -19.6772C124.18 -20.885 124.212 -24.3685 126.381 -25.7307C128.058 -26.7682 131.901 -25.003 132.18 -23.0217C132.832 -18.7487 119.001 -16.3644 125.359 -8.99512C129.824 -3.82426 137.64 -10.1096 142.883 -7.10654C139.967 -4.13409 135.779 -5.43457 132.304 -5.00091C130.974 -4.78432 126.165 -3.2051 126.102 -3.14343C126.601 -2.95744 126.972 -2.70978 127.436 -2.52428C126.381 -2.52428 125.67 -2.15276 124.676 -1.84245C125.886 1.31552 128.182 -2.33826 128.989 -1.96677C130.507 -1.22378 130.631 -0.418625 131.964 0.479774C128.182 5.27863 128.43 -0.325386 126.226 0.479774C123.561 1.43935 123.746 7.19828 123.685 8.62309C121.421 8.62309 118.505 7.38427 120.395 10.4806C116.984 7.01228 115.095 10.7282 111.341 11.0686C110.067 11.1614 104.612 7.97236 104.239 11.4712C102.811 11.3785 101.416 10.8521 100.641 10.2635C101.045 6.45529 106.501 11.8738 105.945 5.09313C105.139 5.46463 102.471 6.39312 101.975 6.20762C102.004 5.58797 102.407 4.47396 102.626 3.85431C102.192 4.03981 101.728 4.03981 101.324 3.85431C101.82 0.262688 100.889 -0.387543 98.0974 2.46108C96.1444 4.44289 97.5706 6.57912 97.4781 8.49876C97.2592 13.453 98.7171 10.7282 94.871 12.9572C92.9181 14.1033 89.5069 15.2488 87.3064 15.2488C90.1266 18.8715 84.6383 18.5 82.5583 20.0788C82.3424 20.2342 80.6371 24.1662 80.0179 24.3517C77.9374 25.0025 76.6674 23.1134 75.3015 23.2372C78.5284 28.7796 72.1384 24.9092 70.2171 26.3952C67.889 28.191 70.8364 27.5718 71.5796 28.6557C72.6658 30.1728 73.9392 30.792 75.054 33.0836C81.32 45.5615 66.1234 37.8519 59.9498 40.4529C61.1279 44.4471 59.391 49.1226 60.3847 52.9924C61.2836 56.4612 60.1056 54.324 63.1447 56.2737C65.0689 57.5135 66.0602 56.3374 67.889 58.5979C68.2928 58.1317 68.2325 57.9161 67.6731 57.9477C70.8362 56.8317 74.7743 55.5322 77.2866 53.208C78.3091 52.2504 78.8076 53.4587 79.5825 52.3743C80.0465 51.7231 78.652 50.6397 78.7123 50.5775C79.0874 50.0511 79.3666 47.8527 80.1414 46.9237C81.1643 45.6854 85.6292 44.3854 86.4045 43.7347C87.3351 42.9606 85.7532 41.3503 87.4299 40.329C88.8244 39.4617 91.3679 41.4129 92.918 41.1342C93.5086 41.072 96.4242 37.5421 98.0055 37.7897C100.143 38.1617 102.284 42.2176 104.052 43.6419C109.388 47.791 118.814 53.4587 105.51 53.4587C109.077 59.6794 114.691 53.2081 116.209 49.5247H114.316C114.288 49.1226 114.348 48.7506 114.412 48.3485C115.342 48.6578 117.699 49.1226 118.41 49.1226C117.048 46.4905 113.234 43.4564 109.915 42.9606C110.255 40.886 106.812 38.285 105.262 38.4089C105.726 31.4733 110.195 37.6348 113.605 40.112C115.93 41.815 118.969 42.9916 120.272 45.376C121.078 46.862 122.196 50.8251 123.034 52.4345C122.132 52.1552 121.885 51.9717 121.049 52.1266C121.76 54.0132 122.755 54.9136 124.025 53.4266C125.359 60.2374 129.887 52.9323 132.399 52.5297C131.996 51.8158 131.469 51.2277 130.631 51.2277C130.818 51.6614 130.818 52.1266 130.631 52.5297C129.329 52.5297 126.601 48.4718 127.004 47.605C128.335 48.3485 129.081 48.7817 130.539 48.1314C130.415 47.7599 130.135 47.605 129.764 47.605C134.756 40.2669 137.516 59.3084 138.291 59.3084C139.161 59.3084 138.974 56.8317 138.974 56.4928C140.898 58.1954 142.448 57.853 143.966 58.0715C142.384 57.853 146.51 57.0187 146.418 57.0187C147.999 56.9556 148.711 58.9374 151.286 58.3192C151.255 57.669 151.223 57.0794 151.286 56.3976C156.123 57.3902 156.498 59.0607 154.729 64.2005C154.138 65.9983 151.877 68.9091 150.324 69.5874C148.434 70.3926 146.665 68.4744 144.897 69.4034C147.656 70.7034 149.581 78.969 152.712 75.7825C157.397 80.6751 158.543 87.362 161.614 92.5013C163.567 95.7229 167.569 98.2592 169.242 101.975C171.507 106.991 168.499 110.025 174.857 110.149C177.709 110.149 181.091 107.425 183.911 106.249C187.138 104.949 188.72 103.586 191.295 102.409C194.614 100.894 196.599 101.544 198.892 98.8808C199.978 97.7042 202.21 94.6701 203.636 95.2567C203.636 92.1619 203.7 92.0385 205.964 91.078C205.716 89.5905 203.205 87.9195 202.086 86.9905C200.102 85.2885 202.086 83.5222 199.235 86.3408C198.923 85.0092 198.52 82.0984 197.466 81.2933C196.256 82.7802 195.884 82.9041 195.697 85.2564C191.295 84.8854 184.41 85.0408 192.505 83.5854C192.378 83.0881 186.176 81.3535 185.868 81.1694C184.905 80.4881 181.958 77.2379 181.711 75.7825C180.872 70.7034 183.324 72.3744 186.331 74.4795C190.053 77.0193 191.323 78.1955 195.697 79.6223C196.443 79.8694 198.209 79.3721 199.235 79.6223C200.009 79.8379 200.194 81.5725 201.248 82.0353C203.205 82.9642 208.073 83.3984 210.369 83.4906C215.67 83.6776 217.159 83.2114 221.408 85.6273C223.704 86.9273 223.92 88.5697 227.363 89.22C221.284 89.22 228.261 92.3775 229.659 92.8407C231.952 93.5857 230.745 89.7464 233.194 93.1831C234.404 94.7939 233.441 96.8991 233.753 98.6934C234.372 102.222 235.642 105.041 236.948 108.354C237.814 110.583 239.396 117.891 241.568 119.16C243.861 120.431 246.158 118.139 247.428 115.507C248.298 113.741 248.298 111.699 248.514 109.718C248.638 108.665 248.234 106.744 248.577 105.878C249.724 102.936 249.476 105.815 251.617 103.709C255.742 99.7462 260.61 93.7411 264.424 91.6359C265.882 90.7987 272.364 89.4672 272.457 89.5303C273.698 90.3325 276.55 96.7436 276.55 98.199C280.335 98.199 275.994 101.357 278.754 103.526C280.615 104.981 282.724 101.883 283.064 101.975C286.011 102.78 288.056 110.523 287.995 113.71C287.964 115.415 285.36 117.21 286.506 120.121C287.189 121.855 289.857 123.466 290.819 125.663C291.965 128.326 294.353 137.892 299.47 135.447C297.732 132.445 297.732 127.118 295.967 124.921C293.391 121.855 290.384 122.01 289.669 117.549C289.514 116.528 288.523 112.07 290.196 110.675C292.896 108.478 290.663 110.149 293.299 111.576C295.592 112.812 295.376 112.752 297.425 115.292C297.888 115.878 299.562 116.344 299.813 116.716C300.556 117.952 299.593 119.036 300.68 120.926C302.881 117.828 306.231 117.023 307.968 114.639C311.195 110.244 309.178 106.56 306.542 103.151C302.541 97.9519 301.487 91.6359 310.728 91.6359C311.319 94.2961 307.317 97.2064 308.867 98.5701C312.652 101.915 313.456 92.1303 313.364 92.1905C315.009 90.707 318.575 90.6117 320.436 90.0251C323.165 89.1563 324.063 88.5697 326.359 86.8356C329.554 84.4512 335.446 79.2197 336.192 74.9142C336.747 71.7562 335.073 73.706 334.763 71.5692C334.578 70.3926 335.725 70.6432 335.321 68.5346C334.826 65.9982 331.292 62.8403 331.352 61.011C331.475 57.5136 335.042 58.6897 336.315 56.8318C337.43 55.1899 337.43 55.2846 334.143 54.0768C332.686 53.582 333.057 55.7794 331.168 55.7794C331.695 51.6614 326.296 54.5396 328.684 50.7013C328.532 50.98 332.965 49.0293 333.213 48.9055C338.053 47.0786 336.624 46.4905 334.639 51.5686C336.068 50.7635 339.882 48.7506 341.495 49.463C344.874 50.98 342.207 51.5065 342.486 54.2924C347.698 52.1266 346.116 60.3607 345.557 62.8689C349.279 63.2715 353.497 60.7953 353.404 57.2027C353.341 53.9846 349.248 53.6106 350.086 49.1226C350.27 48.2247 351.915 48.9055 352.071 48.4718C352.131 48.3485 352.658 44.8802 352.97 44.4776C353.713 43.4564 354.954 41.3819 356.349 40.7622C357.155 40.4218 360.071 41.072 361.56 40.6384C363.545 40.0809 364.072 39.586 365.622 38.2234C368.134 36.0871 371.329 32.0925 373.034 29.5231C375.019 26.5812 374.46 24.2279 375.794 21.1938C380.075 11.1614 378.154 30.9474 378.154 33.7028C378.957 32.8976 379.58 33.3313 380.291 31.721C381.285 32.6499 380.415 33.3934 382.524 33.4862C381.936 29.4609 377.626 25.8999 383.61 25.8999C383.765 25.8999 380.758 12.2147 380.634 10.6044H379.764C379.919 13.8862 378.865 13.6385 378.865 16.6731C376.353 15.1867 376.849 11.9666 372.259 10.6044C371.732 13.9484 370.119 12.8339 368.725 10.6044C368.849 11.2546 368.849 11.7189 368.725 12.3691C366.772 12.0909 368.756 10.8521 367.299 9.61373C364.196 12.7095 367.235 8.03451 368.382 6.76511C370.119 4.84496 371.948 3.54498 373.841 1.19167C377.811 -3.70092 381.377 -4.01025 387.363 -4.01025ZM65.9046 -1.96677C64.8817 -1.59528 63.7955 -0.418633 63.58 0.572517C64.5106 0.324852 67.5813 -2.2761 65.9046 -1.96677C66.0281 -1.96677 65.5013 -1.84245 65.9046 -1.96677ZM68.2326 22.7108C70.4647 22.7108 72.1384 21.1627 73.4119 20.9461C75.3653 20.6363 78.1253 21.5653 79.7066 20.8534C82.4981 19.5835 83.397 16.8587 82.6538 14.3509C82.1868 12.7406 80.9771 15.3105 80.9168 15.2488C80.1701 14.4748 80.2942 13.2054 79.7066 12.7095C78.7123 11.8427 77.3499 9.79925 76.0483 8.28218C74.0633 5.95996 73.8123 6.51694 73.5044 4.65947C73.3171 3.42114 78.4044 -1.40928 70.8684 0.82019C71.4876 -0.26371 71.5795 -1.16161 72.7576 -1.84245C70.2773 -4.31958 69.1913 -0.480293 68.2608 0.262703C68.1086 0.386536 63.0843 2.08959 67.0224 2.77092C66.6794 3.91649 65.4089 5.58796 65.4727 6.30036C66.7748 6.45528 68.4164 7.50809 68.7594 6.08378C68.4485 10.3873 70.7128 8.00344 72.3258 11.4712C74.1552 15.4965 70.4015 12.7406 68.4485 15.125C69.1913 15.3105 69.7822 15.2488 70.649 15.3416C70.649 16.5493 67.6732 17.0446 68.6645 18.1902C69.2867 18.9021 72.3865 17.8498 73.4119 18.8405C73.0086 19.212 66.8667 22.7108 68.2326 22.7108ZM66.3394 11.3785C71.24 10.6666 58.5558 4.38073 61.503 10.2635C59.175 10.6972 56.0435 13.9483 59.8575 13.7624C54.8941 20.9461 61.8109 16.1778 66.0281 17.1063C66.1837 15.3727 66.3715 13.5147 66.3394 11.3785ZM184.346 179.043C184.346 174.801 187.386 166.069 182.361 164.088C182.361 165.575 180.408 169.043 179.51 169.848C177.648 171.551 174.765 170.838 172.872 172.664C171.415 174.087 173.057 178.517 172.872 179.693C172.529 181.922 171.57 182.201 171.103 184.988C170.516 188.612 171.351 193.967 176.191 192.915C180.844 191.894 179.354 190.467 180.161 186.32C180.221 185.825 181.399 181.117 181.495 181.025C181.866 180.499 184.346 179.757 184.346 179.043ZM147.72 73.9852C145.611 68.9693 144.401 70.8904 139.78 70.3324C133.111 69.5272 127.963 67.39 121.7 65.9667C121.7 72.0034 121.824 70.8904 117.73 70.9505C118.566 70.8904 114.133 69.6506 114.564 69.8381H111.341C110.997 69.2796 110.782 68.69 110.69 68.0718C108.737 67.4216 102.842 66.461 101.632 64.8221C99.3679 61.7875 104.176 61.2295 100.082 58.5979C101.169 57.6976 101.045 57.5737 102.531 57.2664C100.454 53.7345 94.7474 57.0187 91.7078 57.0794C88.4844 57.1425 85.0421 55.7158 80.9168 57.5136C78.1253 58.6897 76.232 60.3321 72.5416 60.2374C68.0763 60.1772 65.6886 57.0794 65.6886 62.8689H62.3698C63.8592 68.2272 59.9499 64.7585 59.0827 66.5247C57.6852 69.3398 58.1521 72.6852 56.8786 74.4795C56.1038 75.5323 53.1887 76.9591 52.0101 78.4426C50.7397 79.9617 49.2185 82.5331 47.8245 84.5751C46.4586 86.62 40.8756 91.82 41.6539 94.9172C41.8698 95.7831 45.0014 94.5462 45.4966 95.599C45.9319 96.4328 44.8774 96.8354 45.0647 97.3302C45.932 99.6224 44.4742 103.402 44.2899 105.723C44.071 108.541 43.8232 110.954 46.9543 114.176C50.2731 117.673 53.376 120.555 57.0981 123.773C58.3686 124.889 58.9877 127.429 61.7189 127.984C64.7897 128.542 65.1929 127.242 68.1085 126.871C70.649 126.56 72.5737 127.676 74.3107 127.613C77.969 127.489 77.7215 126.097 80.6974 125.073C83.1174 124.271 88.3288 124.486 89.7234 125.073C91.9273 126.065 91.3678 127.676 94.6234 128.418C100.27 129.658 99.9589 126.871 100.082 132.816C100.143 135.603 99.028 139.163 97.4466 140.742C104.516 142.971 109.169 157.401 108.022 164.275C106.904 171.209 102.718 171.487 106.285 178.828C108.486 183.409 109.2 186.133 110.471 191.149C111.744 196.351 115.806 199.88 117.296 204.589C118.566 208.612 116.613 209.884 118.629 212.081C123.961 217.902 138.075 211.028 142.229 206.57C143.842 204.836 146.573 201.83 147.504 199.757C148.435 197.715 147.193 194.804 147.72 193.565C148.183 192.575 151.689 191.954 152.807 190.467C155.815 186.567 151.286 184.896 152.153 180.809C152.836 177.496 158.978 175.793 160.747 174.183C165.117 170.28 165.368 165.913 164.281 160.032C163.659 156.719 160.591 151.795 161.862 147.771C163.535 142.353 170.484 137.118 174.641 133.466C177.709 130.771 180.748 127.676 182.797 123.992C184.191 121.544 185.093 121.329 185.433 118.047C185.991 112.876 186.827 114.112 182.361 114.084C176.159 114.052 174.33 116.405 170.017 111.699C167.537 108.944 163.535 106.372 161.179 103.307C158.854 100.304 156.434 93.4303 155.008 89.8697C152.868 84.4196 151.626 78.8171 147.72 73.9852C147.968 74.296 147.564 73.6142 147.72 73.9852ZM-76.5725 242.547C-77.4407 242.363 -77.3789 241 -77.9991 241C-77.7199 241 -79.9837 243.6 -79.9837 243.571C-79.9837 243.971 -75.89 247.132 -75.5797 247.284C-75.766 247.563 -75.8594 247.874 -75.7972 248.185C-82.8682 248.185 -77.2238 254.406 -78.3401 256.977C-77.6887 256.885 -77.2238 256.885 -76.5725 256.977C-76.5413 257.595 -76.8823 257.937 -77.5648 257.998C-76.4173 259.206 -77.0063 258.495 -75.8899 258.771C-76.2621 258.648 -71.238 265.059 -70.4004 265.585C-66.1827 268.185 -62.1819 266.917 -58.15 266.606C-58.3363 265.306 -63.3916 263.851 -64.4456 261.343C-65.4384 258.927 -67.7022 252.674 -63.6708 253.077C-63.6708 250.537 -58.5533 247.687 -58.9253 245.861C-59.3286 243.695 -64.4456 244.995 -62.6785 240.689C-62.1201 239.329 -59.3286 240.071 -58.7085 239.329C-58.1812 238.647 -58.8947 237.531 -58.15 236.726C-58.6462 237.284 -55.5452 231.897 -55.948 233.879C-55.2349 230.35 -58.5843 233.971 -57.8397 228.739C-52.6608 230.813 -51.6375 228.923 -52.4123 224.126C-48.1328 224.25 -42.9846 224.405 -41.0307 220.255C-38.9216 215.857 -42.9535 216.849 -43.7288 213.01C-38.9527 213.628 -37.154 215.302 -33.4631 212.017C-31.7265 210.47 -30.3616 204.247 -28.4077 204.525C-28.6869 205.394 -28.8421 205.486 -28.6252 206.292C-22.9492 203.473 -24.531 195.454 -21.4296 191.77C-19.4139 189.354 -16.6224 188.178 -13.7696 187.372C-9.24161 186.072 -8.00073 186.38 -5.45776 181.954C-2.44928 176.722 -3.6897 168.796 -1.27075 164.582C0.496887 161.519 4.37363 159.69 5.39703 156.161C6.1106 153.809 5.95551 153.963 5.36597 151.795C4.06384 147.09 4.12561 150.184 1.17941 147.863C-2.01486 145.387 -3.31802 144.829 -7.28766 144.087C-9.42737 143.653 -16.995 144.179 -13.8313 142.537C-15.0099 141.731 -16.9016 140.555 -18.4523 140.248C-22.3291 139.503 -21.4608 140.371 -24.1901 141.548C-23.942 141.177 -22.7944 138.605 -22.7633 138.39C-23.7867 138.266 -25.2135 137.768 -26.2058 137.461C-27.1986 137.15 -26.6401 139.69 -28.7181 139.443C-28.3148 138.513 -24.2829 133.466 -28.0667 133.466C-27.4154 126.779 -33.6182 126.436 -37.743 125.384C-41.0924 124.579 -48.5049 121.173 -48.5049 117.426C-50.3965 118.075 -53.7772 117.21 -50.8309 115.878C-52.7849 113.37 -56.8474 116.899 -57.9953 116.871C-62.213 116.716 -64.2287 113.183 -68.2606 112.441C-68.2606 114.61 -69.749 114.112 -71.021 115.415C-71.2068 115.599 -70.6484 118.573 -70.8041 119.068C-73.0679 117.21 -72.4789 113.247 -70.1528 111.823C-73.8744 110.77 -84.2948 117.673 -84.915 122.349C-85.2559 124.949 -82.5271 127.676 -84.2947 131.268C-85.2558 133.25 -89.319 137.337 -91.4592 138.079C-91.0871 141.424 -92.4821 142.042 -89.0397 142.29C-90.4664 144.766 -93.8159 146.253 -91.8931 150.308C-91.4281 151.332 -89.2571 151.548 -88.3577 152.816C-87.4895 154.087 -86.559 155.977 -86.0006 157.337C-84.791 160.311 -83.6746 165.264 -81.7518 167.493C-79.1154 170.527 -75.9518 171.396 -72.6646 173.964C-67.1132 178.33 -69.16 187.62 -70.0594 194.43C-70.5556 198.146 -71.9515 201.707 -72.3855 205.144C-72.8821 209.23 -72.3855 213.504 -74.0296 217.344C-75.8595 221.618 -75.7348 224.126 -76.8822 228.923C-76.8204 228.644 -76.9134 232.081 -76.8822 231.216C-76.9134 231.957 -78.3713 232.702 -78.0609 233.631C-76.5102 238.245 -75.1764 231.339 -73.5951 231.216C-74.7425 234.437 -75.2075 237.16 -75.6108 240.813C-76.4795 239.358 -76.6965 240.163 -77.0063 238.153C-78.0297 238.707 -76.4796 241.713 -76.5725 242.547ZM-71.052 100.428C-67.206 99.5622 -61.6546 100.212 -57.8091 98.8808C-59.5149 96.7752 -64.7565 97.457 -67.9814 97.0229C-70.0283 96.7752 -74.2459 94.3593 -74.5874 97.5804C-74.8043 99.6224 -72.9437 100.799 -71.052 100.428C-70.6177 100.336 -71.3308 100.491 -71.052 100.428ZM-81.4104 99.7462C-82.3097 98.3544 -84.1395 97.8882 -86.0317 98.199C-84.8837 99.7462 -82.7441 101.078 -81.4104 99.7462C-81.5967 99.499 -81.7518 100.117 -81.4104 99.7462ZM-77.4407 94.8225C-79.1154 92.1303 -86.0006 90.5195 -88.9162 89.4035C-90.8079 88.7251 -95.1185 86.9589 -97.4757 88.3226C-100.081 89.8382 -99.4296 90.0567 -96.6385 91.3853C-95.4288 92.007 -94.7156 90.1169 -93.537 90.3325C-91.9241 90.5831 -90.9007 91.9749 -90.032 92.2857C-85.4733 93.9251 -82.62 94.8225 -77.4407 94.8225ZM29.0903 -24.6315C31.107 -24.9566 31.8216 -24.9102 32.3805 -22.8668C30.8595 -23.1455 29.494 -23.1455 27.9754 -22.8668C28.0362 -22.4336 28.1311 -21.9688 28.1914 -21.5352C32.6888 -22.2782 29.2143 -19.7394 31.5102 -18.9036C32.0059 -18.7487 37.1857 -18.2223 37.4649 -18.2529C41.4351 -18.4389 41.778 -19.2751 45.1887 -21.1015C48.0721 -22.6808 49.3426 -20.4824 50.2445 -23.5323C50.6161 -24.74 48.5074 -24.7711 48.0404 -24.8486C49.0026 -30.3288 41.5269 -25.4519 37.8365 -25.932C37.2811 -25.9783 33.9905 -26.4426 34.5815 -26.3809C32.9997 -26.5201 34.7054 -28.8581 33.0317 -26.8299C28.9983 -28.1767 28.0076 -24.4149 29.0903 -24.6315C29.4016 -24.6779 28.7824 -24.5693 29.0903 -24.6315ZM-38.8598 19.3979C-39.7281 19.9549 -44.8452 28.191 -44.473 28.8102C-43.6977 30.1112 -40.9684 28.8728 -39.48 29.306C-37.2158 29.9873 -36.7197 30.9163 -34.4554 31.9686C-31.013 26.7667 -34.2384 24.9714 -39.2937 23.3611C-39.3244 23.4538 -36.2234 17.9115 -38.8598 19.3979C-38.5806 19.2741 -39.139 19.5835 -38.8598 19.3979ZM-50.7692 24.259C-52.9707 23.5471 -53.9323 22.6181 -56.0725 22.9274C-54.0563 24.1351 -52.7538 27.1076 -50.7692 24.259C-50.8621 24.4139 -51.0791 24.1662 -50.7692 24.259ZM11.4758 -34.9579C12.096 -35.1898 12.7784 -34.2919 13.2751 -34.1528C17.1824 -32.8986 17.1824 -34.3851 20.3767 -35.6387C23.23 -36.7379 30.3006 -38.2708 31.2944 -40.9334C27.4487 -37.9304 18.3921 -44.9434 28.0362 -44.5408C27.6325 -44.5561 32.3488 -39.6018 33.4349 -43.8901C33.8382 -45.4698 29.8973 -49.278 28.6584 -49.9593C29.3413 -50.5627 33.6826 -47.4048 32.3805 -51.4922C31.7583 -53.4118 30.6435 -53.4424 28.0995 -52.5909C28.5952 -53.3655 29.0903 -53.3033 29.4016 -54.0152C28.938 -54.1548 28.5027 -54.3403 28.0995 -54.5885C29.494 -54.6038 33.4953 -52.653 35.3564 -53.9072C39.6373 -56.7558 32.7204 -55.7341 32.7204 -57.112C32.7204 -57.4524 39.2339 -57.7617 39.6693 -58.5363C38.3034 -59.8827 34.7055 -62.2049 39.0146 -62.5611C39.11 -66.1221 33.7429 -66.1063 34.3655 -68.1187C34.6131 -68.9397 37.2174 -69.2495 37.9003 -69.0014C40.7235 -67.9179 38.3954 -67.6856 39.6693 -65.1463C40.4436 -69.7138 42.2099 -70.8129 36.6901 -70.8129C38.2116 -72.5002 36.7538 -71.2772 39.3259 -72.516C37.7762 -74.8841 33.9623 -72.6088 33.9302 -72.6241C29.9922 -75.7978 43.8865 -84.3901 45.1887 -86.0315C43.4196 -85.9229 41.7142 -86.2323 39.9772 -86.2791C43.5753 -87.0221 45.6235 -86.9136 48.7234 -88.926C49.5615 -89.4682 54.0268 -88.9107 52.0101 -91.8831C51.6701 -92.4096 47.0498 -92.1619 46.6144 -92.1155C43.4196 -91.7282 40.4437 -91.1712 37.7762 -90.4741C36.0995 -89.9946 29.1856 -86.3408 28.1914 -86.511C32.1615 -91.4806 34.3339 -92.2236 27.1057 -93.2922C27.1057 -90.4125 25.0287 -90.7065 22.2376 -90.2423C22.7027 -92.5798 24.3157 -91.6508 25.9909 -92.4406C21.8968 -95.4748 14.3913 -90.7687 9.89395 -91.4653C11.1037 -95.0722 29.494 -95.3667 33.7142 -95.8468V-96.8527C29.494 -96.868 27.6044 -97.5029 24.3468 -98.0604C19.4462 -98.8651 14.67 -97.72 9.89395 -98.2149C13.3986 -100.615 20.5319 -99.5469 25.5556 -99.5469C24.9967 -103.448 2.94705 -101.838 0.09375 -100.924C-2.94537 -99.9179 -0.216187 -98.912 -4.03113 -98.4936C-6.26425 -98.2459 -8.12469 -99.5617 -10.4196 -99.655C-12.5287 -99.7477 -16.7158 -99.3298 -19.0725 -98.4319C-18.3593 -97.0229 -16.6847 -97.6268 -16.6847 -95.6297C-17.5841 -96.3263 -21.5537 -97.983 -20.2827 -95.5369C-20.5925 -96.1403 -13.2729 -91.821 -15.3509 -91.821C-20.0029 -91.821 -23.5077 -95.5522 -28.4389 -95.5522C-28.4389 -94.4994 -25.3998 -92.6883 -24.9654 -91.1091C-27.9116 -91.9453 -29.8967 -94.6232 -33.0598 -94.9178C-32.2538 -93.3233 -32.0057 -89.4529 -34.6104 -91.0005C-34.6104 -91.0163 -33.3701 -94.1901 -35.1066 -95.1344C-37.1846 -96.311 -43.7905 -92.2393 -45.1861 -92.936C-43.6665 -92.3474 -41.0924 -91.5274 -39.9138 -90.2423C-42.0229 -90.2575 -43.7906 -91.6976 -45.993 -91.9606C-47.4192 -92.1619 -47.0471 -93.2922 -48.9387 -92.3943C-50.7691 -91.5427 -49.3114 -90.1648 -49.8075 -89.886C-51.544 -88.8796 -55.1415 -88.477 -58.4292 -86.7281C-59.7318 -86.0315 -62.895 -86.0931 -62.7092 -83.8484C-60.8176 -83.353 -59.8559 -83.8484 -58.0878 -83.8484C-56.8168 -83.8484 -58.15 -79.715 -58.3981 -79.4827C-58.9877 -78.9716 -61.7475 -79.1107 -62.6157 -78.8941C-64.8799 -78.306 -68.9431 -78.5537 -71.238 -77.191C-78.7122 -72.81 -64.9111 -72.4386 -60.8486 -72.4386C-61.6546 -69.0788 -69.9971 -71.5559 -69.9971 -69.6363C-69.9971 -68.692 -66.369 -67.6698 -65.5931 -67.4996C-66.2138 -67.4996 -66.2761 -67.4996 -66.4619 -67.0506C-65.3456 -66.1527 -63.2053 -64.2952 -61.5617 -64.8991C-61.6858 -65.131 -62.3992 -65.7812 -62.0267 -66.0136C-59.5455 -67.5465 -48.877 -66.3698 -45.9307 -64.4812C-41.6814 -61.756 -38.4249 -56.183 -38.0221 -51.0585H-36.9677C-41.1854 -43.5038 -31.0441 -49.7117 -28.1596 -42.8994C-30.8889 -42.8225 -33.463 -44.7263 -35.9754 -43.674C-35.3547 -41.8007 -37.619 -38.7508 -33.7734 -38.6581C-30.424 -38.5801 -29.3382 -40.9645 -33.2461 -41.5684C-27.6941 -42.2344 -29.0283 -40.0819 -27.4777 -36.1804C-29.9584 -36.3048 -31.9129 -35.8711 -31.8506 -33.4403C-37.371 -34.1527 -31.5709 -26.9537 -31.2299 -25.7929C-31.3544 -26.1022 -29.5863 -26.5511 -29.2453 -25.855C-28.9972 -25.2664 -31.0441 -24.5851 -30.4857 -24.074C-31.3544 -24.8797 -29.4933 -20.9782 -29.7102 -21.5352C-29.7414 -21.659 -27.5705 -22.8051 -27.1673 -22.774C-28.8732 -19.3057 -27.1674 -13.4536 -23.4147 -10.6365C-21.74 -9.3671 -13.4904 -6.17756 -12.1566 -6.92055C-10.3267 -7.9117 -10.8228 -11.6888 -10.0786 -13.3919C-9.61362 -14.4136 -11.195 -14.7235 -10.5748 -15.9307C-10.2649 -16.5814 -8.62143 -16.1478 -8.09418 -17.1384C-5.86102 -21.2254 -7.22537 -25.1268 -1.64279 -25.6069C-1.79794 -28.27 -1.51871 -26.3656 -0.092041 -27.2635C-0.433502 -20.3275 11.414 -34.9426 11.4758 -34.9579ZM-108.888 -69.0014C-106.532 -65.3791 -95.9249 -66.6949 -92.0171 -67.3452C-90.9625 -64.6973 -84.698 -66.3387 -84.946 -69.7754C-85.5351 -69.4967 -86.1246 -69.2495 -86.7136 -69.0014C-86.8999 -69.5435 -87.0858 -70.1005 -87.2721 -70.6422C-84.7598 -71.107 -84.8837 -71.7572 -85.5045 -73.9556C-82.3408 -73.0888 -79.6739 -73.553 -81.8759 -76.4638C-82.2169 -76.9128 -78.5575 -76.5719 -78.5575 -77.0213C-78.5575 -80.0707 -84.1707 -79.0801 -85.5974 -77.8107C-85.7525 -78.1664 -85.9072 -78.5384 -86.0317 -78.8941C-82.4342 -81.4176 -78.5265 -77.9192 -75.1454 -80.9997C-75.7972 -81.4798 -76.4483 -81.944 -77.0997 -82.4088C-74.8354 -81.8049 -72.6647 -81.3096 -70.1528 -82.3155C-71.238 -83.1518 -71.0828 -83.802 -72.4788 -84.4059C-67.2683 -83.1517 -61.1273 -88.8332 -56.2889 -90.1184C-57.8396 -91.6666 -61.9956 -90.1648 -64.6631 -90.4741C-62.4922 -93.2764 -50.4277 -90.5674 -49.6524 -94.4377C-49.1562 -97.0693 -60.135 -97.534 -62.7714 -96.8527C-63.7948 -97.8744 -67.9813 -99.0047 -70.6177 -99.283C-71.6411 -95.6139 -83.4882 -100.971 -82.62 -96.7289C-85.9388 -97.9672 -93.2579 -98.6638 -95.7697 -95.088C-92.9787 -95.2424 -89.9391 -94.6701 -88.5748 -92.4406C-91.3663 -93.1678 -95.0873 -94.9331 -97.5067 -95.4131C-100.05 -95.9084 -102.128 -94.5616 -102.841 -94.4688C-105.508 -94.0968 -110.843 -92.6883 -114.068 -92.007C-114.099 -91.6819 -114.13 -91.3414 -114.161 -91.0005C-111.432 -90.1495 -111.245 -88.5703 -108.206 -87.6571C-103.865 -86.325 -103.709 -88.6477 -99.9568 -89.1431C-107.493 -84.7463 -95.8009 -86.2633 -93.7541 -86.774C-89.5359 -87.8115 -86.6208 -90.2575 -82.1857 -90.1184C-83.9538 -89.9324 -85.6591 -89.143 -87.0546 -87.9353C-85.4421 -88.2141 -84.0778 -87.6877 -82.5271 -87.7029C-84.7597 -86.0468 -91.8619 -85.5046 -95.0873 -85.3038V-84.2046C-92.9476 -83.3067 -91.676 -81.7274 -89.1326 -81.7738C-92.8858 -80.7521 -98.4996 -84.4364 -102.717 -84.9629C-102.376 -81.3712 -95.9561 -78.4915 -92.3274 -78.6775C-93.165 -77.7022 -93.537 -76.9745 -94.219 -76.1693C-100.515 -82.3313 -109.943 -72.7637 -98.282 -74.8382C-98.9022 -74.4978 -99.5225 -74.1722 -100.174 -73.8471C-98.8089 -71.6181 -96.297 -72.3458 -94.4365 -74.2807C-96.5762 -68.5835 -102.903 -73.9867 -106.78 -73.4914C-105.167 -70.9989 -106.687 -69.9767 -108.888 -69.0014ZM-107.896 -76.1693C-107.276 -76.9128 -106.16 -76.448 -106.469 -78.4762C-99.4295 -77.4081 -101.073 -81.7427 -105.446 -84.4828C-105.198 -84.3126 -119.681 -91.5891 -119.34 -89.4682C-118.317 -89.2511 -117.386 -89.9946 -117.138 -88.6941C-117.107 -88.5081 -121.015 -88.0128 -121.449 -88.0439C-120.55 -87.44 -120.271 -86.5421 -119.898 -86.1706C-120.953 -86.3408 -121.883 -86.0004 -122.876 -86.062C-123.217 -85.3038 -123.62 -83.6313 -123.652 -82.6406C-121.015 -79.9933 -117.138 -82.2538 -114.285 -79.8853C-115.991 -79.7767 -117.727 -78.9252 -119.34 -78.6775C-116.084 -75.7672 -111.742 -74.668 -107.896 -76.1693ZM-113.634 -72.4075C-113.944 -71.8968 -114.285 -71.3857 -114.626 -70.8593C-112.703 -70.2865 -111.338 -70.4104 -109.664 -71.1997C-110.688 -73.1352 -111.711 -72.779 -113.634 -72.4075ZM-111.866 -59.0938C-109.695 -59.5423 -85.3182 -57.5452 -88.9162 -63.1497C-91.0555 -66.5242 -100.67 -62.9015 -103.616 -62.9795C-109.788 -63.1186 -110.625 -69.4967 -116.146 -67.8869C-114.099 -64.3727 -116.239 -60.6109 -111.866 -59.0938ZM-127.187 -58.6448H-125.637C-126.319 -60.3005 -126.319 -58.9853 -127.187 -58.6448ZM-123.775 -61.4002C-122.628 -60.3938 -116.642 -57.6226 -117.262 -61.5088C-117.759 -64.682 -122.752 -63.165 -123.775 -61.4002ZM-118.348 -66.1374C-115.898 -68.692 -119.496 -70.5031 -122.101 -70.1006C-127.466 -69.2495 -120.829 -66.1063 -118.348 -66.1374ZM-122.876 -71.4168C-120.891 -71.4479 -118.968 -71.6956 -117.045 -72.1751V-73.2743C-119.496 -73.6152 -122.132 -73.816 -122.876 -71.4168ZM-122.442 -74.1722C-116.921 -75.5191 -126.132 -78.012 -127.838 -77.4703C-127.094 -74.8535 -125.295 -73.259 -122.442 -74.1722ZM-128.613 -82.4088C-129.42 -83.9411 -129.978 -84.7773 -132.025 -84.4059V-83.0896C-130.536 -82.4546 -129.978 -82.1611 -128.613 -82.4088ZM-130.04 -72.965C-128.428 -78.4762 -139.313 -81.1078 -143.407 -79.5754C-141.825 -78.9252 -141.019 -77.6864 -139.871 -76.6957H-141.732C-140.12 -74.4667 -133.173 -74.1569 -130.04 -72.965ZM-134.227 -72.7326C-135.623 -73.2743 -136.057 -74.0795 -137.762 -73.6152C-137.112 -71.7261 -136.026 -72.3458 -134.227 -72.7326ZM-135.251 -63.1497C-132.986 -64.2642 -131.622 -63.3973 -131.157 -60.8427C-128.21 -60.9666 -126.009 -61.9888 -126.35 -65.131C-126.752 -68.5835 -130.226 -67.1281 -133.359 -68.3358C-132.273 -67.577 -131.095 -66.4315 -130.474 -65.2548C-130.598 -65.4561 -134.878 -67.1128 -135.684 -67.2208C-135.468 -66.2923 -135.436 -65.4255 -135.126 -64.4812C-137.173 -66.0447 -138.073 -68.5988 -140.957 -68.8933C-141.298 -65.5646 -138.259 -63.8927 -135.251 -63.1497ZM-141.639 -62.2671C-141.391 -62.0968 -139.22 -59.6044 -139.22 -62.1738C-139.22 -63.6292 -141.329 -62.2671 -141.639 -62.2671ZM-140.864 -70.5342C-141.67 -71.8347 -142.632 -72.779 -144.058 -73.3828C-143.934 -71.1844 -142.849 -69.9456 -140.864 -70.5342ZM-83.3954 -31.0096C-81.8136 -30.5458 -77.4407 -31.1028 -78.9914 -33.5953C-80.3563 -35.8089 -85.2871 -34.1375 -83.3954 -31.0096ZM-119.03 -49.6342C-118.379 -50.8109 -117.294 -50.3772 -117.356 -52.1577C-114.285 -51.0585 -113.014 -53.7833 -111.401 -55.997C-113.665 -56.8333 -118.441 -58.412 -120.457 -56.9724C-122.255 -55.6719 -123.031 -48.5039 -119.03 -49.6342ZM-128.737 -46.2128C-123.651 -46.2128 -122.628 -50.7956 -127.528 -53.0246C-123.806 -54.217 -126.722 -56.477 -128.83 -57.1584C-129.203 -57.2664 -132.18 -55.6566 -133.917 -55.997C-130.815 -52.7616 -133.204 -50.7023 -136.646 -52.5909C-136.491 -50.3772 -130.785 -47.2809 -128.737 -46.2128ZM-141.081 -53.1484C-140.151 -56.1672 -143.996 -56.7711 -145.826 -55.1149C-144.089 -53.4893 -142.88 -52.3901 -141.081 -53.1484ZM-148.37 -55.6719C-148.183 -55.4864 -146.974 -54.0927 -148.37 -55.6719V-55.6719ZM-159.069 -75.7051H-151.222C-152.587 -78.6311 -156.929 -77.7796 -159.069 -75.7051ZM-156.836 -70.8593C-154.634 -70.8746 -151.843 -71.1223 -153.766 -73.2743C-152.835 -73.6927 -152.494 -73.3054 -151.874 -74.3735C-154.448 -74.6212 -156.991 -74.5126 -159.162 -73.073C-158.728 -71.587 -157.953 -71.3857 -156.836 -70.8593ZM-160.713 -72.8406C-161.395 -74.2649 -161.581 -75.2097 -163.69 -74.8382C-163.194 -73.0266 -162.264 -73.1968 -160.713 -72.8406ZM-162.915 -67.3452C-166.047 -66.4315 -169.179 -63.2113 -166.978 -61.4466C-165.023 -59.8674 -157.859 -61.493 -155.409 -61.2759C-156.247 -60.3006 -161.395 -61.2453 -161.054 -59.4653C-160.589 -57.4055 -156.743 -58.6907 -155.471 -58.9231C-152.773 -59.4184 -142.663 -60.7342 -143.407 -64.4812C-143.128 -63.0411 -150.044 -68.2894 -149.455 -68.1187C-152.68 -69.0635 -153.89 -67.1902 -152.215 -64.2642C-151.594 -64.0165 -150.602 -64.4038 -150.385 -63.645C-150.075 -62.4526 -161.271 -66.7719 -162.915 -67.3452ZM-162.264 -69.435C-161.55 -69.1252 -161.333 -67.9643 -159.596 -68.3358C-159.627 -68.692 -159.689 -69.0788 -159.72 -69.435C-160.558 -69.2184 -161.395 -69.2184 -162.264 -69.435ZM-171.071 -64.6973C-171.444 -64.2641 -171.816 -63.8152 -172.188 -63.3816C-169.769 -63.4126 -170.234 -62.9642 -168.962 -65.2548C-169.676 -65.0693 -170.358 -64.8833 -171.071 -64.6973ZM-167.536 -67.469C-165.706 -68.1034 -164.745 -69.5436 -164.466 -71.6334C-171.134 -73.259 -173.274 -67.1434 -179.352 -66.4783C-176.499 -62.1432 -172.218 -66.0753 -169.645 -68.4444C-168.994 -66.5242 -168.249 -67.8869 -167.536 -67.469ZM-166.016 -38.7355C-161.24 -39.1218 -161.116 -36.6294 -157.394 -35.6387C-153.704 -34.6328 -150.882 -37.2332 -147.594 -37.8524C-145.609 -38.2091 -132.521 -36.0724 -137.112 -39.7104C-135.282 -39.6793 -134.692 -40.6547 -133.576 -41.1505C-137.639 -43.937 -139.313 -43.9212 -141.36 -47.7915C-142.136 -49.2933 -145.578 -56.5856 -148.37 -53.1173C-149.641 -51.4922 -144.958 -47.6988 -148.462 -47.9622C-150.23 -48.1172 -150.106 -52.8391 -153.424 -53.0246C-153.021 -52.3437 -152.711 -51.5386 -152.339 -50.8262C-153.704 -50.2692 -154.386 -50.0521 -155.843 -49.727C-155.502 -50.3466 -155.347 -51.2445 -155.099 -51.9101C-157.55 -52.839 -159.875 -52.3743 -161.271 -51.4922C-160.186 -55.6097 -164.093 -53.6437 -166.109 -52.7616C-169.738 -51.1513 -169.862 -50.3466 -171.505 -47.5286C-169.086 -46.5848 -166.481 -48.1325 -164.249 -46.4294C-166.047 -46.2434 -167.753 -45.5936 -169.086 -44.5408C-166.636 -43.225 -158.697 -45.2221 -157.394 -43.008C-156.929 -42.1875 -166.109 -41.7696 -167.536 -40.9334C-167.04 -40.1904 -166.512 -39.4627 -166.016 -38.7355ZM-147.594 -34.431C-145.609 -34.9579 -144.368 -35.3758 -143.934 -37.063C-145.981 -36.6915 -148.028 -35.9486 -149.796 -34.8652C-149.052 -34.7255 -148.307 -34.5706 -147.594 -34.431ZM-178.36 -46.3209C-174.452 -45.7328 -172.87 -50.9347 -169.49 -52.6684C-164.001 -55.4864 -162.666 -56.3221 -169.707 -57.7617C-171.505 -58.1332 -180.593 -60.27 -182.485 -58.6907C-183.539 -57.8086 -183.849 -51.3215 -186.175 -48.7363C-183.632 -48.5814 -181.244 -47.2035 -180.22 -44.7732C-179.6 -45.2838 -178.98 -45.8102 -178.36 -46.3209ZM-270.223 -6.4563C-274.875 -6.05421 -272.518 -9.45984 -270.223 -6.4563V-6.4563ZM-233.161 -8.87128C-232.634 -12.3701 -227.951 -8.06613 -225.532 -7.35422C-222.399 -6.42523 -219.422 -7.10654 -216.382 -6.11588C-211.017 -4.38174 -207.326 0.510361 -201.93 1.43935C-201.434 2.55383 -201.031 3.66881 -200.193 4.53563C-199.914 4.84496 -197.588 5.8978 -197.309 6.39313C-195.448 9.18008 -194.363 11.9049 -192.75 14.0722C-189.897 17.9115 -188.811 18.2524 -184.748 20.6674C-181.833 22.4015 -178.359 25.3429 -178.794 29.4298C-182.082 25.4045 -185.524 19.8622 -191.138 20.5125C-188.501 23.6704 -184.593 24.7854 -182.919 28.7485C-181.213 32.836 -183.415 36.7991 -183.415 40.2047C-183.477 46.5522 -180.252 55.4084 -175.91 60.1451C-173.398 62.9005 -169.521 63.0243 -167.226 66.5849C-165.365 69.4034 -163.783 72.9955 -162.046 75.9063C-161.457 76.8353 -162.76 77.2985 -161.426 79.2483C-160.619 80.4244 -158.387 81.4773 -157.301 82.5932C-156.557 83.3352 -152.928 87.6092 -152.649 89.22C-149.238 85.7512 -162.543 73.6142 -162.915 68.6298C-159.193 68.1636 -154.944 76.6483 -152.215 79.5907C-148.711 83.3353 -145.547 88.4143 -141.949 92.5013C-147.159 96.0302 -126.474 103.709 -123.093 104.204C-122.07 104.36 -120.922 103.091 -119.03 103.649C-116.859 104.268 -115.898 106.56 -114.161 107.581C-112.424 108.665 -106.749 109.594 -106.562 109.347C-103.554 111.452 -102.035 115.568 -100.453 117.086C-98.158 119.192 -92.9476 120.802 -89.691 122.226C-90.5904 116.652 -84.4811 121.731 -84.233 119.873C-83.7364 116.221 -91.8931 118.51 -94.1573 117.023C-99.6154 113.37 -93.7852 109.283 -96.5763 105.228C-98.9641 101.791 -105.043 104.514 -107.989 103.215C-105.384 100.367 -101.507 91.3251 -107.121 91.6641C-112.207 92.0069 -109.726 95.5359 -112.858 98.0121C-115.742 100.304 -120.395 98.8172 -122.659 96.8675C-127.621 92.5013 -127.435 80.4881 -124.457 76.0903C-120.364 70.0852 -113.851 75.9063 -109.323 74.4795C-110.408 70.7034 -106.128 71.2614 -103.461 71.4454C-103.709 71.4168 -97.3827 72.625 -98.1891 72.0665C-96.2041 73.4588 -92.9788 83.833 -90.9008 83.6461C-88.389 83.4305 -92.8235 69.6506 -89.4429 65.7797C-87.2721 63.2715 -82.7135 62.6533 -81.4104 59.6794C-80.294 57.1425 -81.9064 55.9033 -82.62 52.7448C-80.759 53.2396 -81.7206 51.7231 -79.7667 53.7345C-79.0531 52.1873 -77.5025 48.0697 -76.3862 46.9859C-74.9906 45.747 -71.3931 45.4994 -69.0671 44.8491C-72.4477 38.4711 -59.6078 33.8883 -54.8317 35.0032C-55.483 34.8794 -59.4526 36.4276 -60.011 37.5421C-61.6857 40.9482 -57.0338 38.0374 -56.8786 38.0063C-52.909 37.5421 -48.4427 34.5074 -47.2334 30.978C-50.3966 32.4645 -51.2959 35.0032 -55.1727 32.9593C-60.3214 30.1728 -55.359 27.6957 -56.5376 25.8377C-59.7941 20.8223 -67.9813 29.9252 -71.393 32.0925C-70.4936 30.421 -69.3151 28.9656 -67.8573 27.7578C-68.6949 27.5719 -69.5633 27.3242 -70.4004 27.1076C-66.0898 28.0677 -63.6085 22.6797 -59.9181 21.6269C-57.4675 20.915 -54.0564 21.8129 -51.5751 21.6269C-47.6984 21.2554 -48.1017 20.8223 -44.8145 19.3979C-41.806 18.1591 -37.03 17.6949 -38.4561 13.8551C-39.9139 9.92307 -45.0314 12.7095 -48.1016 13.0194C-46.6438 10.5422 -43.6665 11.0686 -41.4022 9.18008C-45.2789 8.56092 -48.7841 7.07445 -50.9856 3.66882C-48.5978 2.21342 -55.3896 -5.09415 -56.5993 -7.78738C-58.5532 -5.62007 -58.5532 -2.12169 -61.6857 -1.40929C-64.7253 -0.759041 -64.3216 -3.91702 -67.7334 -3.01911C-65.5931 -10.3884 -71.5483 -12.9276 -77.2861 -14.3825C-83.7987 -16.0856 -88.1403 -12.7727 -83.5194 -6.02314H-85.0701C-85.5663 -4.87708 -85.2252 -4.16516 -85.9388 -2.92635C-79.8289 -0.387543 -81.2245 8.87026 -88.2644 8.62309C-86.2482 10.7899 -84.45 18.8715 -88.9162 19.2741C-93.2579 19.5834 -94.2813 11.1614 -93.878 7.97235C-98.9022 7.1366 -101.941 6.39312 -106.284 4.16415C-108.206 3.20407 -110.471 2.49216 -112.176 1.81084C-113.696 1.16059 -114.068 2.55383 -115.371 1.74867C-116.363 1.16059 -116.518 -1.03778 -117.17 -1.84245C-119.403 -4.59882 -120.55 -3.0191 -120.116 -7.50912C-119.961 -9.3671 -118.1 -12.3085 -116.766 -13.6706C-115.34 -15.095 -111.99 -15.4975 -112.331 -17.5721C-112.58 -18.9347 -118.038 -19.7083 -119.123 -20.1109C-116.27 -19.8326 -110.966 -17.1695 -110.191 -20.7611C-106.842 -18.7487 -105.26 -21.0399 -104.361 -23.8574C-107.4 -23.6561 -109.695 -25.1426 -112.3 -26.3809C-110.315 -26.304 -98.9023 -23.5323 -103.585 -28.4861C-98.4995 -28.8734 -101.973 -20.7611 -104.237 -19.8943C-102.376 -17.9125 -101.663 -17.4172 -98.8405 -17.4482C-98.9952 -17.4482 -96.2353 -18.7487 -95.4288 -18.9036C-94.4365 -19.0581 -93.3508 -17.8814 -92.5443 -18.0057C-86.2175 -19.0891 -98.6542 -23.4548 -99.7087 -25.7307C-96.8554 -25.8392 -98.5924 -25.7929 -97.4138 -27.2635C-93.0716 -27.5882 -91.0871 -31.2577 -94.0017 -34.8652C-88.0786 -35.8711 -95.3977 -39.7262 -97.5067 -40.7015C-93.8781 -41.259 -90.0014 -39.5402 -86.1553 -40.9334C-86.7449 -41.4751 -87.3339 -42.0173 -87.9234 -42.5901C-83.8915 -41.4134 -81.1005 -38.9674 -77.5648 -36.32C-76.0759 -35.2208 -73.3159 -33.5336 -73.223 -31.3041C-73.0985 -28.3011 -78.7744 -28.4244 -76.2309 -24.6315C-78.34 -24.1515 -85.8454 -25.8082 -85.5045 -22.0927C-85.163 -18.47 -79.6738 -22.4336 -78.2782 -22.2782C-73.8431 -21.7212 -73.5022 -18.656 -70.6795 -16.3333C-67.8885 -14.1043 -63.4534 -14.4136 -60.1351 -12.6178C-60.0111 -15.4048 -64.2909 -16.798 -65.8723 -19.2441C-62.9572 -17.8197 -60.0421 -16.3643 -57.2812 -14.7234C-56.9096 -15.4048 -56.3201 -17.6342 -56.0725 -18.47C-58.7702 -21.0399 -61.9026 -23.3621 -64.539 -26.8299C-62.5228 -29.7713 -61.7475 -27.7278 -59.3909 -26.4895C-55.6071 -24.4924 -57.2506 -23.3621 -54.2422 -24.1825C-54.4596 -24.1362 -50.5206 -27.2946 -50.5518 -27.2635C-49.2803 -29.6321 -49.0634 -27.8669 -50.7692 -30.0189C-52.4746 -32.202 -69.3152 -36.8618 -60.9104 -38.6112C-61.7475 -38.8436 -62.5851 -39.0602 -63.4533 -39.2772C-62.7402 -39.8036 -62.895 -39.8653 -61.9027 -40.2679C-63.2053 -40.7943 -63.7015 -41.8007 -65.3144 -42.1258C-65.0663 -42.5437 -64.8182 -42.9305 -64.539 -43.3484C-67.6404 -43.9986 -69.0977 -44.6957 -71.9204 -45.4387C-71.4242 -45.7638 -70.897 -46.1048 -70.4004 -46.4294C-75.983 -46.569 -76.3243 -49.727 -80.201 -50.95C-83.1779 -51.879 -88.9161 -48.5508 -90.1876 -49.2316C-92.1411 -50.2534 -89.691 -51.3062 -90.9625 -53.1331C-93.1338 -56.2758 -92.8235 -55.8732 -96.3588 -55.2234C-101.693 -54.2323 -101.415 -49.9593 -98.7159 -46.4294C-104.298 -45.7017 -103.523 -54.031 -99.5224 -55.997C-103.771 -56.1672 -107.741 -55.703 -109.447 -51.1824C-111.742 -45.0051 -107.152 -47.8073 -104.919 -44.5408C-106.532 -44.9434 -107.493 -44.2774 -108.982 -44.3395C-107.617 -42.3888 -101.477 -41.7386 -98.8405 -40.9334C-100.453 -40.2837 -101.291 -29.4619 -105.57 -31.6756C-107.493 -32.6663 -105.508 -35.6856 -105.57 -35.7473C-107.276 -37.6516 -108.827 -36.9086 -109.416 -37.2332C-110.129 -37.6358 -113.386 -38.6886 -114.657 -40.593C-116.425 -43.194 -116.89 -50.3772 -122.287 -46.6154C-127.373 -43.0854 -116.828 -36.7226 -122.783 -37.961C-121.883 -35.4843 -120.022 -35.6076 -117.914 -37.512C-117.976 -33.7344 -122.938 -35.0196 -121.449 -30.685C-123.93 -32.3722 -123.341 -31.6756 -123.217 -34.2144C-125.543 -34.8494 -123.652 -34.3229 -124.861 -36.0877H-123.434C-123.31 -38.5495 -124.954 -40.0508 -127.404 -40.4845C-128.024 -39.8653 -129.482 -38.2866 -130.04 -37.6358C-128.893 -37.1869 -127.993 -35.9949 -126.845 -35.5307C-129.482 -30.7777 -134.599 -32.9297 -138.972 -33.9362C-141.825 -34.5864 -142.167 -35.7004 -144.927 -34.5553C-148.99 -32.8365 -147.098 -32.5735 -147.687 -28.4861C-149.485 -34.8957 -157.984 -32.7437 -163.132 -33.2238C-162.697 -33.4714 -162.202 -34.5706 -160.713 -35.0817C-163.256 -37.1405 -171.816 -39.5708 -174.824 -40.1593C-178.576 -40.8717 -182.236 -37.0167 -183.632 -41.5684C-184.717 -37.8993 -185.493 -40.2215 -187.23 -40.3143C-187.788 -40.3453 -188.408 -42.8067 -189.711 -42.9616C-191.447 -43.1634 -190.362 -41.8624 -191.323 -41.6769C-193.246 -41.2432 -198.55 -38.3793 -200.844 -37.063C-198.829 -39.7104 -195.541 -39.3389 -193.588 -41.6922C-197.309 -41.6769 -201.713 -39.6487 -205.435 -38.8747C-211.7 -37.5742 -214.212 -40.1593 -220.6 -40.8717C-225.407 -41.3981 -229.811 -42.3888 -234.805 -42.7914C-240.077 -43.2251 -242.806 -45.0983 -248.265 -44.4476C-248.079 -44.8501 -247.893 -45.2527 -247.707 -45.6553C-251.056 -46.2745 -255.584 -44.1382 -258.561 -43.2403C-262.655 -42.0173 -262.934 -39.5402 -265.787 -37.7908C-269.851 -35.3294 -272.735 -37.9456 -269.478 -33.6574C-267.432 -30.9479 -262.996 -30.5764 -261.508 -27.0618C-263.834 -26.2882 -266.346 -26.412 -266.47 -29.0283C-269.106 -27.155 -272.083 -27.821 -274.285 -25.189C-271.432 -24.0276 -271.463 -21.6901 -269.013 -21.071C-266.191 -20.3586 -262.469 -22.2782 -259.833 -22.5264C-259.461 -14.4758 -268.827 -20.173 -270.191 -13.0515C-270.533 -11.1318 -266.098 -3.08176 -263.245 -7.78738C-261.694 -6.30139 -261.259 -4.56775 -261.942 -2.52428C-259.15 -3.08176 -256.018 -2.1217 -254.654 -3.82426C-253.785 -3.82426 -252.638 -3.57658 -251.459 -3.60767C-253.537 5.61906 -264.051 4.10198 -268.982 9.73757C-261.849 11.4712 -250.001 0.6036 -243.86 -2.8336C-244.419 -3.63876 -244.946 -4.44343 -245.505 -5.24858C-241.752 -6.4874 -240.356 -12.7111 -236.014 -9.8935C-239.084 -9.52151 -240.79 -7.72571 -239.891 -4.81491C-237.658 -6.14648 -235.146 -7.29253 -232.51 -7.47803C-232.727 -7.91169 -232.944 -8.40703 -233.161 -8.87128ZM-242.186 0.13887V-1.84245C-244.419 -0.232628 -247.675 0.200539 -245.846 3.11134C-244.388 2.49217 -243.054 1.47043 -242.186 0.13887Z" fill="#1CB45F"/>
</g>
</svg>
