<svg width="241" height="241" viewBox="0 0 241 241" fill="none" xmlns="http://www.w3.org/2000/svg">
<path d="M205.69 204.655C252.507 157.837 252.507 81.9306 205.69 35.1129C158.872 -11.7048 82.9655 -11.7048 36.1479 35.1129C-10.6698 81.9306 -10.6698 157.837 36.1479 204.655C82.9656 251.472 158.872 251.472 205.69 204.655Z" fill="#73D4FF"/>
<mask id="mask0_8260_7684" style="mask-type:luminance" maskUnits="userSpaceOnUse" x="1" y="0" width="240" height="240">
<path d="M205.69 204.655C252.507 157.837 252.507 81.9306 205.69 35.1129C158.872 -11.7048 82.9655 -11.7048 36.1479 35.1129C-10.6698 81.9306 -10.6698 157.837 36.1479 204.655C82.9656 251.472 158.872 251.472 205.69 204.655Z" fill="white"/>
</mask>
<g mask="url(#mask0_8260_7684)">
<path d="M111.141 4.01569C112.71 13.0393 119.271 -1.36328 111.141 4.01569V4.01569ZM104.543 4.54683C106.754 4.54683 107.967 3.2376 107.61 1.53877C106.862 1.89286 100.835 4.54683 104.543 4.54683ZM117.738 -39.4739C119.45 -40.2701 120.484 -41.2963 122.552 -41.5088C119.486 -44.3573 115.313 -43.8262 111.39 -43.7732C111.426 -40.0045 113.993 -38.4827 117.738 -39.4739ZM500.909 153.984C499.485 155.788 500.482 165.767 504.261 162.336C506.401 160.459 501.625 154.726 500.909 153.984ZM657.137 281.834C658.064 284.805 660.456 288.345 663.272 289.124C663.487 288.522 663.487 287.921 663.272 287.389H665.375C665.484 284.877 666.197 284.344 666.197 281.975C664.272 282.507 656.925 280.489 657.137 281.834C657.247 282.258 657.104 281.692 657.137 281.834ZM664.984 278.224C664.984 279.5 666.123 280.384 667.16 280.558C667.124 278.649 666.339 278.224 664.984 278.224C665.163 278.224 664.984 278.365 664.984 278.224ZM655.749 277.587C654.358 278.261 655.249 279.355 656.246 279.71C656.319 279.5 656.567 277.268 655.749 277.587C655.892 277.517 655.534 277.659 655.749 277.587ZM716.476 298.219C720.577 298.219 721.54 290.61 726.5 289.617C724.323 285.087 732.561 285.797 726.642 282.221C721.935 279.427 723.823 284.203 721.04 287.247C718.583 289.972 713.945 290.646 712.163 293.795C710.808 296.237 711.236 298.89 716.476 298.219C716.586 298.219 716.3 298.219 716.476 298.219ZM713.303 299.455C712.875 299.774 712.733 299.987 712.412 300.411H714.446C714.552 299.738 714.373 298.676 713.303 299.455C713.482 299.314 713.124 299.596 713.303 299.455ZM729.421 271.358C729.421 272.597 729.53 275.819 729.53 276.101C729.53 275.819 727.533 275.96 727.496 277.445C727.496 279.355 728.957 277.304 729.279 278.507C729.209 278.365 731.349 283.036 732.561 282.682C733.025 282.54 734.237 280.275 734.986 279.569C738.765 276.028 741.369 271.786 733.737 273.13C733.7 271.075 732.846 267.89 731.419 271.006C729.852 270.013 729.637 266.796 727.818 264.991C724.429 261.593 729.421 270.086 729.421 271.358ZM704.316 226.737C706.244 229.676 707.92 232.082 712.021 232.506C711.7 230.734 705.959 226.665 704.316 226.737ZM622.549 204.336C619.339 204.905 624.188 205.576 625.328 205.471V204.478C624.579 204.409 621.584 204.409 622.549 204.336ZM651.185 205.612C647.402 210.246 652.503 221.607 644.086 219.342C644.122 219.342 636.384 214.424 636.242 214.033C634.778 210.884 637.776 209.221 638.736 206.742C634.456 206.177 630.286 204.018 626.186 204.018C627.004 204.728 626.898 205.257 628.362 206.108C627.61 205.648 623.297 208.514 622.154 209.221C618.733 211.381 624.046 211.805 618.338 212.903C616.45 213.254 615.592 210.638 612.528 211.768C609.994 212.689 609.673 216.052 606.784 216.052C607.216 216.972 607.321 218.458 607.821 219.342H605.609V217.642C602.256 217.465 601.117 224.541 597.301 226.349C594.413 227.726 589.954 228.154 586.781 229.39C585.389 229.886 584.462 234.416 582.823 230.629C581.431 234.84 581.11 237.318 583.465 241.456C578.4 239.191 583.893 246.942 584.926 249.704C587.065 255.294 589.133 258.94 584.856 262.585C587.777 262.585 589.491 265.803 593.233 265.201C595.373 264.919 596.443 262.371 598.835 261.875C600.723 261.382 602.72 263.219 604.327 262.795C606.035 262.299 606.072 260.955 607.5 260.389C608.855 259.86 610.352 258.338 611.886 257.7C612.956 257.24 613.884 258.799 615.165 258.338C619.697 256.639 624.831 254.019 630.144 256.78C633.317 258.48 636.384 270.51 639.773 259.683C642.198 260.495 639.664 262.158 640.021 264.212C643.016 262.44 641.877 264.919 641.661 267.608C646.583 266.687 644.37 270.97 648.008 273.909C648.439 274.26 652.93 275.641 653.821 275.677C656.319 275.746 655.534 273.235 657.104 273.162C658.67 273.13 658.707 276.101 659.74 275.887C664.805 274.826 670.119 272.916 671.973 268.245C673.186 265.201 673.47 262.053 675.395 258.799C679.247 252.287 679.959 245.457 676.395 238.449C675.61 236.822 674.577 236.325 673.365 235.053C672.543 234.169 672.543 232.575 671.973 231.904C671.795 231.727 669.191 230.984 668.548 230.383C667.73 229.603 667.8 227.726 666.909 226.842C665.696 225.712 662.702 224.86 661.775 223.73C659.492 220.932 658.849 215.45 657.137 212.761C656.604 211.91 655.033 211.272 654.216 210C653.251 208.442 653.752 204.619 651.433 204.054C651.291 204.587 651.217 205.079 651.185 205.612ZM693.796 200.691C694.512 201.789 695.296 201.438 696.224 201.082C695.76 199.843 693.047 199.101 693.796 200.691C693.905 200.869 693.726 200.586 693.796 200.691ZM681.387 192.234C681.387 193.295 683.849 194.643 684.524 194.499C683.918 192.944 682.099 191.988 682.099 190.502C681.778 190.465 681.423 190.502 681.102 190.607C681.318 191.35 681.387 191.527 681.387 192.234ZM666.766 190.748C667.051 193.97 676.359 192.379 675.505 187.353C675.041 187.422 666.766 191.951 666.766 190.748C666.802 191.14 666.766 190.538 666.766 190.748ZM624.294 197.049C624.294 197.543 627.931 198.111 626.186 194.643C624.689 194.854 624.046 195.669 624.294 197.049ZM611.243 195.528C611.491 196.836 612.883 196.553 614.026 196.056C613.062 195.209 612.561 195.81 611.243 195.528ZM632.675 190.502C631.856 191.031 631.141 192.234 631.141 193.295C631.141 195.35 635.921 188.342 632.675 190.502ZM629.11 186.468C631.426 185.439 634.351 187.458 636.596 188.484C638.488 189.368 640.343 188.838 641.661 191.14C643.443 194.216 641.413 193.404 641.804 195.172C641.913 195.633 639.309 195.56 640.412 197.615C640.912 198.571 643.837 196.412 644.835 196.658C648.007 197.543 649.256 200.376 653.215 199.173C655.64 198.463 655.534 194.995 659.529 196.412C661.095 196.977 661.453 198.887 662.844 199.665C665.517 201.224 664.199 200.727 667.836 201.579C673.328 202.815 671.509 203.206 668.8 199.456C668.405 198.887 665.733 199.205 665.269 198.818C665.517 199.028 663.772 194.43 664.126 195.596C664.02 195.209 660.705 192.803 664.984 193.19C664.163 191.669 660.241 188.838 658.279 187.74C654.57 185.617 651.681 184.911 647.544 183.671C641.698 181.798 642.019 182.929 637.382 183.671C634.493 184.168 631.356 182.787 627.325 183.813C627.756 185.371 628.362 186.856 629.11 186.468C629.253 186.432 629.001 186.538 629.11 186.468ZM608.961 181.055C606.751 181.548 610.958 182.081 611.744 181.939C611.744 180.486 610.173 180.841 608.961 181.055ZM635.209 179.142C635.351 180.276 635.526 180.522 635.457 181.83H637.988C637.597 180.628 636.918 181.197 636.918 179.142H635.209C635.848 179.073 635.242 179.32 635.209 179.142ZM624.546 179.283C623.94 179.215 623.403 179.356 622.903 179.816C625.543 181.338 628.395 183.53 631.889 181.939C628.968 176.595 627.219 180.309 624.546 179.283ZM623.939 178.435C617.984 177.301 627.398 174.967 623.939 178.435C623.724 178.399 624.33 178.011 623.939 178.435ZM621.372 181.548C622.296 181.972 622.691 184.309 623.081 181.338C621.8 181.548 621.658 181.657 621.372 181.548ZM616.841 184.45C616.841 185.371 622.154 186.219 623.688 186.219C623.366 183.389 617.305 184.168 616.841 184.45ZM614.811 184.806C614.132 184.664 613.456 184.487 612.74 184.345C613.953 187.28 615.344 185.124 614.811 184.806C614.986 184.911 614.489 184.664 614.811 184.806ZM617.947 171.145C616.129 173.623 614.844 173.975 614.986 177.515C615.238 182.505 616.487 176.453 619.482 176.914C619.66 175.25 618.802 173.801 617.305 173.906C617.663 172.913 617.947 172.137 617.947 171.145C617.947 171.395 617.699 171.5 617.947 171.145ZM594.128 184.591C594.128 184.591 596.728 187.849 596.41 187.494C596.3 187.353 596.801 190.397 596.907 190.748C598.726 189.545 598.298 185.936 598.298 183.954H599.832C600.011 184.77 602.757 190.857 603.827 190.361C605.751 189.513 602.187 182.823 601.081 181.407C612.814 181.407 594.128 174.612 594.128 184.591ZM608.818 173.906C606.858 174.612 595.625 173.127 596.158 177.798C599.832 176.098 600.833 176.453 604.754 175.674C605.967 175.392 606.357 176.772 607.821 176.171C608.603 175.815 611.564 172.772 608.818 173.906C609.319 173.692 608.676 173.975 608.818 173.906ZM606.178 200.941C606.178 203.134 614.738 198.959 615.665 198.039C612.313 196.376 606.751 199.949 606.178 200.941ZM605.145 203.064C604.112 203.206 603.863 203.594 604.396 204.336H605.893C606.035 203.703 606.003 202.782 605.145 203.064C605.324 202.992 604.787 203.206 605.145 203.064ZM597.159 197.934C599.368 200.126 606.288 198.321 608.818 197.26C606.784 196.908 598.119 196.908 597.159 197.934ZM596.268 199.561C593.091 200.517 598.904 202.072 599.938 202.003C599.51 201.506 597.37 199.347 596.268 199.561C596.41 199.525 595.873 199.665 596.268 199.561ZM589.917 197.401C588.099 197.543 594.482 197.934 595.767 197.934C595.373 198.039 595.304 197.825 595.515 197.26C593.412 197.26 591.915 197.049 589.917 197.401C590.312 197.365 589.596 197.437 589.917 197.401ZM562.424 193.154C565.313 195.419 569.414 196.093 574.369 196.589C578.295 197.013 583.18 199.028 587.387 198.426C586.211 196.093 583.75 195.455 581.073 195.988C581.252 194.216 582.538 195.067 583.856 194.288C576.618 193.086 569.947 192.944 562.424 193.154ZM554.686 189.513C554.15 190.679 554.508 191.245 554.686 189.513V189.513ZM572.693 172.384C569.34 174.718 571.448 178.932 573.335 181.407C576.082 185.124 577.225 184.733 582.465 185.585C587.745 186.501 586.069 187.849 589.063 183.461C589.205 183.247 589.739 179.78 590.312 178.79C591.093 177.515 593.986 176.95 594.876 175.037C591.524 172.881 592.451 172.312 591.703 167.535C594.27 167.677 593.485 165.978 596.016 165.093C596.231 165.695 589.917 160.741 590.454 160.672C588.457 160.814 586.993 164.209 585.426 165.59C581.931 168.67 575.833 174.718 572.693 172.384ZM545.948 179.816C546.091 181.479 548.873 185.585 550.513 185.936C550.158 183.671 545.948 179.993 545.948 179.816C545.985 180.204 545.948 179.566 545.948 179.816ZM541.884 174.261C542.527 175.464 543.739 175.815 544.309 177.055C544.309 175.533 543.882 174.435 542.275 173.765C541.811 174.967 542.242 174.366 541.884 174.261ZM539.992 170.967C539.992 170.58 539.211 169.518 539.211 170.648C539.211 171.677 539.85 172.137 540.741 172.279C541.062 171.641 540.814 171.217 539.992 170.967ZM540.884 165.202C539.459 165.202 538.674 163.785 537.319 163.963C537.925 166.898 542.596 169.8 544.166 171.782C546.628 174.79 548.658 179.247 551.261 182.61C553.047 184.838 557.254 190.962 559.642 190.998C564.922 191.14 561.924 186.078 566.098 184.806C565.634 181.548 562.603 180.345 560 182.186C559.715 178.472 545.879 165.767 540.884 165.202C541.457 165.271 540.672 165.202 540.884 165.202ZM606.43 156.494C603.684 156.777 601.292 158.618 602.757 161.662C604.966 156.353 608.212 162.441 611.744 163.963C610.495 161.307 612.74 160.741 612.777 160.672C612.85 160.176 613.884 153.733 611.634 153.733C609.352 153.733 608.961 158.194 606.43 156.494C606.609 156.636 606.035 156.567 606.43 156.494ZM598.941 144.82C598.868 145.736 601.793 152.886 603.896 152.498C602.826 154.832 606.609 156.426 605.681 151.86C605.251 149.914 601.081 145.171 598.941 144.82C599.083 144.888 598.904 145.171 598.941 144.82ZM602.614 144.464C605.788 146.657 607.891 150.867 611.316 151.541C611.316 147.686 607.712 146.798 607.712 143.367C605.645 143.367 604.612 144.464 602.614 144.464C603.005 144.747 603.005 144.464 602.614 144.464ZM597.798 146.729C595.91 150.339 591.061 153.948 590.06 156.918C594.27 156.918 597.798 150.867 597.798 146.729C597.798 147.153 597.728 146.906 597.798 146.729ZM599.763 131.974C596.016 133.989 596.943 141.562 601.223 142.907C601.044 140.5 606.463 131.974 599.763 131.974ZM602.22 116.085C602.22 114.882 597.191 118.951 597.94 123.586H599.441C599.441 120.473 602.22 118.951 602.22 116.085ZM666.909 59.7845C664.378 60.2446 662.739 62.297 659.419 62.545C655.782 62.8281 654.106 62.1205 650.29 59.9971C650.147 61.1292 648.651 69.7283 647.117 66.5787C646.441 67.7464 644.159 73.1958 647.865 71.4621V72.7363C645.619 73.1254 644.549 80.2731 642.056 83.0708C642.056 82.2916 642.125 81.8643 642.056 81.0523C640.591 82.4693 640.164 82.9621 639.521 84.8024C638.951 84.0237 638.024 85.3679 638.382 83.1757C636.739 84.3423 636.133 85.9368 635.884 88.3427C630.819 86.1471 621.372 90.3212 620.478 95.8439C621.442 95.9122 622.797 95.8439 623.403 95.8439C623.403 98.2859 620.693 99.3803 624.436 100.442C624.436 97.8619 628.61 94.144 624.436 93.7927C625.328 91.1726 631.641 91.1726 634.314 90.7125C631.426 92.5173 626.792 90.7813 627.862 95.6297C630.213 94.6407 632.463 93.579 634.066 92.0933C635.242 94.7823 638.488 92.6949 637.988 90.3573C648.008 89.2274 646.12 88.7306 648.508 80.4146C649.826 75.8148 651.396 72.2052 647.011 68.5961C649.972 68.0294 654.928 70.7894 654.749 67.5699C656.925 68.0294 666.909 62.545 666.909 59.7845C666.909 59.926 666.73 59.7845 666.909 59.7845ZM671.615 57.3786C670.545 57.5551 670.012 58.2982 669.049 58.7939C670.619 59.7141 671.046 58.7234 671.615 57.3786C671.437 57.4136 671.404 57.8737 671.615 57.3786ZM684.028 43.9312C683.742 44.9574 683.1 45.9131 682.493 46.8332C684.561 45.9835 683.991 44.3563 684.028 43.9312ZM714.336 30.6969C714.088 30.6969 713.624 29.4232 712.949 29.9538C712.806 30.4144 712.77 30.9095 712.806 31.4051C713.233 31.5111 714.836 31.6875 714.336 30.6969ZM710.914 31.0865C710.414 29.6713 710.557 28.786 709.238 27.7954C709.238 29.1401 709.523 30.3078 709.629 31.6171C710.524 31.8651 711.163 31.9001 710.914 31.0865C710.988 31.263 710.842 30.9094 710.914 31.0865ZM704.283 17.427C705.244 17.427 705.886 16.2949 705.959 15.6222C703.746 14.7736 703.535 16.1184 702.676 17.427C703.213 17.5336 703.746 17.5336 704.283 17.427ZM762.874 -0.0890198C765.01 0.265068 767.971 1.18526 770.111 0.901642C768.293 -2.63641 764.371 0.088028 762.874 -0.0890198C763.264 -0.0534973 762.658 -0.1595 762.874 -0.0890198ZM740.442 -30.9454C743.187 -30.3263 746.576 -31.547 749.428 -31.547C748.679 -32.6972 746.361 -34.3075 744.437 -34.2015C743.757 -34.1835 738.302 -31.4765 740.442 -30.9454C740.584 -30.9104 740.193 -30.999 740.442 -30.9454ZM661.205 -50.1778C663.699 -49.2052 671.937 -46.2326 671.937 -50.833C668.405 -51.0094 663.023 -50.5144 661.559 -52.9558C661.311 -52.7083 660.419 -50.5144 661.205 -50.1778C661.347 -50.1428 660.989 -50.3018 661.205 -50.1778ZM645.977 -42.1279C649.044 -41.6504 651.791 -42.2869 654.712 -41.2607C653.715 -45.5425 648.935 -44.4458 645.977 -42.1279ZM648.508 -45.295C650.184 -45.295 647.084 -46.7102 646.12 -46.6747C646.12 -45.1535 647.153 -45.295 648.508 -45.295ZM639.021 -50.957C641.767 -46.9758 657.246 -48.0549 658.279 -53.0798C655.819 -53.5399 652.714 -55.0087 652.714 -51.0094C652.182 -51.0985 651.681 -51.0985 651.185 -51.0094C653.858 -56.5655 648.008 -53.3984 646.047 -53.4514C642.125 -53.5749 641.128 -55.4688 639.021 -50.957ZM636.348 -51.9651C636.133 -52.4252 636.133 -52.9558 636.348 -53.4689C633.532 -53.8585 634.957 -50.9215 636.348 -51.9651C636.312 -52.1247 636.1 -51.7706 636.348 -51.9651ZM634.957 -46.5512C635.815 -44.4988 635.705 -43.2607 638.24 -43.5961C637.561 -44.5163 635.884 -45.9321 634.957 -46.5512ZM567.489 -65.0404C566.773 -66.3671 564.634 -66.7037 563.209 -66.0311C563.564 -65.624 568.095 -63.5186 567.489 -65.0404C567.559 -64.8634 567.38 -65.253 567.489 -65.0404ZM537.962 -59.1309C538.817 -59.4139 539.781 -59.1309 540.635 -59.1309C540.314 -62.2979 538.959 -59.8035 537.962 -59.1309ZM548.979 -63.6602C549.479 -63.6602 561.497 -66.2081 561.781 -66.5442C564.743 -70.4014 555.863 -70.0123 555.187 -70.3128C555.793 -70.9325 556.042 -70.95 556.22 -71.7106C550.977 -72.6133 548.409 -63.6602 548.979 -63.6602ZM540.884 -76.0989C532.043 -74.8246 533.288 -69.8883 541.42 -69.1451C547.588 -68.5616 548.018 -68.4195 547.697 -72.0822C547.303 -77.054 547.661 -74.5946 543.023 -74.5946C543.523 -75.4263 543.487 -75.2317 543.666 -76.0809C542.706 -76.0989 541.811 -76.1158 540.884 -76.0989ZM533.256 -75.6027C536.782 -73.7455 541.742 -78.6108 543.776 -79.8851C539.174 -82.0789 532.861 -82.3265 529.187 -77.4967C529.403 -77.0896 532.397 -76.0104 533.256 -75.6027C533.431 -75.4967 533.146 -75.6918 533.256 -75.6027ZM532.254 -74.4706C530.579 -74.4706 529.366 -75.4263 527.621 -75.1077C527.833 -69.9943 534.574 -74.4706 532.254 -74.4706ZM527.047 -82.6625C523.235 -82.6625 526.193 -81.0877 525.908 -80.6457C525.16 -79.4075 530.83 -82.6625 527.047 -82.6625ZM428.128 -23.6562C425.915 -24.0277 422.242 -26.6106 423.849 -21.3912C425.272 -21.3912 427.876 -22.1169 428.128 -23.6562C428.092 -23.4972 427.986 -23.6736 428.128 -23.6562ZM437.896 -41.8798C435.651 -42.0924 431.017 -36.2714 431.017 -33.2103C432.335 -33.4759 433.226 -34.3075 433.974 -32.7153C434.438 -32.9273 434.617 -33.2639 434.475 -33.7054C437.363 -32.2552 435.366 -30.6274 436.936 -29.9373C438.966 -29.0526 442.892 -29.3712 445.137 -29.3712C444.853 -32.4322 441.428 -33.4048 441.216 -36.2358C440.927 -39.7389 443.888 -41.7738 446.028 -43.9147C451.093 -48.9221 455.833 -51.6821 463.253 -53.4689C465.426 -53.9994 474.628 -55.8934 473.664 -58.2462C472.24 -61.6963 466.927 -57.8217 465.035 -57.2556C460.434 -55.7868 445.137 -55.3977 445.137 -49.8242C444.174 -49.9483 443.319 -49.9832 442.355 -49.8242C444.71 -45.8081 436.399 -45.9496 437.148 -43.2607C438.006 -43.4371 438.254 -43.7557 439.182 -43.6497C438.718 -42.464 439.967 -41.7208 437.896 -41.8798C438.291 -41.8443 437.542 -41.9153 437.896 -41.8798ZM476.056 -40.7477C478.05 -40.7477 479.156 -41.9864 479.693 -42.2694C480.763 -42.8355 472.879 -40.7477 476.056 -40.7477ZM457.94 -80.6457C460.792 -76.382 462.716 -80.4337 465.926 -81.0172C462.968 -82.6805 460.719 -79.7255 457.94 -80.6457ZM451.733 -80.6457C451.733 -79.1774 450.699 -79.602 449.951 -78.3807C452.163 -77.6731 454.515 -77.6201 457.049 -78.0627C454.942 -80.6987 455.158 -82.6275 451.733 -80.6457ZM450.842 -76.0989C450.166 -75.9044 449.523 -75.7268 448.811 -75.7268C449.165 -73.993 450.308 -74.9662 451.733 -75.2317C451.59 -75.9219 451.7 -76.3109 450.842 -76.0989C451.021 -76.1339 450.63 -76.0453 450.842 -76.0989ZM441.965 -76.8595C443.14 -75.8508 443.319 -74.2941 445.137 -76.612C445.137 -73.7985 448.811 -76.4349 449.307 -76.8595C449.344 -77.213 449.307 -77.5322 449.165 -77.8677C446.919 -78.2922 443.355 -77.3016 441.965 -76.8595ZM434.723 -76.612C436.826 -78.7348 441.285 -79.655 444.495 -78.8938C443.746 -83.4237 448.669 -77.3016 449.307 -81.5128C448.205 -81.5128 447.241 -81.3358 446.135 -81.5128C446.562 -82.1319 447.384 -83.5827 447.668 -83.9012C445.923 -83.9012 444.779 -82.8046 443.852 -82.521C444.458 -82.7155 440.785 -81.7429 440.43 -81.5128C439.503 -80.9468 439.181 -79.6725 437.896 -78.7529C436.114 -77.4786 435.26 -78.4698 434.723 -76.612ZM424.597 -80.0091C420.851 -80.0091 419.923 -78.6993 416.359 -79.3894C416.538 -76.6825 421.209 -78.5048 423.348 -78.5048C418.926 -75.3203 426.379 -74.5241 428.556 -77.3726C432.05 -82.0259 428.735 -80.0091 424.597 -80.0091ZM351.955 -75.7268C352.776 -73.657 357.378 -76.435 358.269 -74.0996C357.02 -74.17 355.735 -74.0466 354.453 -74.0996C356.772 -67.7119 369.428 -73.4094 372.354 -75.1077C369.501 -78.2392 365.507 -75.6383 362.976 -76.382C363.439 -77.3196 364.082 -77.1426 363.867 -78.2573C360.872 -77.0896 361.654 -78.0977 359.909 -75.1077C358.802 -77.9742 350.637 -78.6288 351.955 -75.7268C352.028 -75.4967 351.813 -76.0104 351.955 -75.7268ZM346.858 -66.1726C346.858 -65.483 340.08 -65.8896 339.262 -63.1471C340.902 -63.5012 346.036 -64.6689 346.715 -63.7842C345.678 -63.1121 340.153 -62.2269 340.08 -61.7674C339.937 -60.9177 344.897 -58.5293 345.967 -57.1141C349.246 -59.5729 352.382 -64.3503 352.382 -67.7474C353.346 -67.8889 355.059 -67.9245 355.987 -67.7474C355.559 -64.6869 356.341 -66.8627 357.663 -65.0934C358.623 -63.8017 356.629 -62.705 356.629 -61.3783C360.124 -63.5367 360.478 -60.6702 361.833 -60.8822C363.224 -61.0947 365.722 -62.581 367.146 -62.8996C365.612 -64.9164 364.046 -62.599 364.046 -65.5355C362.548 -65.3409 352.456 -71.3035 352.171 -72.2237C351.743 -72.0292 350.958 -71.7991 350.137 -72.2237C350.458 -72.9668 350.885 -73.4444 351.064 -74.223C347.249 -76.0104 347.142 -73.94 345.36 -73.4444C346.215 -73.6925 344.002 -71.3215 343.754 -71.2511C344.323 -71.4456 342.789 -74.2411 342.541 -74.3116C342.899 -74.2056 338.298 -72.5422 338.371 -72.5958C338.868 -73.3739 339.083 -74.2056 339.511 -74.8602C337.265 -74.382 327.814 -72.1352 335.337 -71.0915C335.337 -70.1364 335.516 -67.7299 335.194 -66.9338C333.807 -67.6239 333.982 -68.8266 332.273 -69.1987C332.949 -67.8534 335.658 -63.4301 335.658 -67.4288C337.265 -67.2873 337.37 -64.9164 339.616 -65.6776C340.507 -65.9606 341.007 -67.5884 341.866 -67.6764C341.972 -67.6944 346.605 -68.119 346.858 -66.1726C346.858 -66.0841 346.784 -66.6152 346.858 -66.1726ZM660.562 15.2687C666.909 15.2687 667.979 12.5792 672.364 13.4994C674.789 13.9595 671.9 15.6222 674.398 16.2593C677.998 17.109 676.823 13.5699 679.959 15.9769C680.212 14.3136 681.318 15.6222 682.742 15.4812C681.957 12.3317 680.744 15.1272 681.993 11.8361C682.53 10.3853 685.846 7.12975 686.985 6.49318C691.086 4.22826 694.548 5.11291 694.548 9.71323C700.072 8.68705 701.464 1.22021 706.708 2.24638C703.213 5.07739 702.001 9.53619 698.112 12.7213C693.189 16.755 686.949 18.9843 685.203 24.2568C683.954 28.1139 684.06 33.5279 684.812 37.0665C685.846 41.9149 685.309 42.693 688.946 40.7822C692.835 38.7653 693.156 30.0248 699.255 31.5815C697.612 28.503 698.861 24.3278 702.391 26.5572C701.252 24.0448 702.212 21.7088 701.891 20.1521C701.679 19.3734 700.215 19.9395 699.609 20.1521C699.719 18.9133 701.749 14.0655 702.534 13.3579C704.638 11.447 704.889 12.5437 707.526 11.9426C708.953 11.6596 708.417 12.9327 709.381 12.8623C710.699 12.7563 711.057 10.6334 712.163 10.5624C713.518 10.5268 714.8 10.9869 716.191 10.8099C719.364 10.4564 716.764 12.7213 719.258 13.2163C719.258 7.23631 733.595 3.55618 737.659 2.38791C741.333 1.36173 741.723 5.60853 740.442 0.12355C739.298 -4.75981 736.768 -2.81403 733.595 -4.90134C731.777 -6.24609 741.117 -5.92752 741.084 -5.89256C743.793 -6.97174 744.648 -8.43998 743.367 -11.1825C745.254 -11.3065 745.539 -9.36015 746.145 -9.28967C746.503 -9.25415 750.461 -8.54653 750.962 -8.29845C753.529 -7.09522 752.886 -6.31712 756.169 -5.53847C760.661 -4.40572 757.203 -4.75982 759.591 -5.67999C761.552 -6.3876 759.982 -8.29845 761.124 -9.28967C762.121 -10.1918 768.968 -7.32527 766.189 -12.2086C765.189 -13.9424 758.13 -15.1462 756.417 -14.4555C757.988 -13.3944 758.378 -10.8819 755.775 -12.7037C754.847 -13.3589 756.169 -15.8713 754.957 -16.862C754.314 -17.375 753.102 -16.9505 752.565 -17.4106C751.605 -18.2242 748.891 -19.7815 747.931 -20.312C745.291 -21.7098 743.615 -22.6655 740.833 -24.0102C735.128 -26.7702 722.826 -28.893 719.152 -25.1599C725.535 -22.5944 709.133 -20.2946 717.867 -25.9205C715.23 -27.8849 713.018 -25.1954 710.381 -24.8239C707.172 -24.3993 701.537 -24.0102 698.718 -25.4074C698.649 -24.5059 698.612 -23.4441 698.718 -22.5059C694.69 -26.9472 694.902 -32.0781 686.558 -31.5825C683.454 -31.388 680.46 -30.4148 677.286 -31.052C673.186 -31.9011 672.4 -33.9534 668.8 -34.3425C669.549 -35.2627 668.194 -34.9091 670.049 -35.8468C664.663 -38.8543 658.458 -31.282 660.81 -37.4746C658.137 -37.4746 655.428 -38.9434 652.609 -38.9964C647.259 -39.1024 648.508 -38.2527 643.586 -37.4746C643.586 -35.2982 646.12 -35.4222 646.12 -33.0863C644.049 -33.5819 642.198 -33.901 640.164 -34.0245C640.628 -33.3699 641.877 -32.3967 641.413 -31.3175C638.989 -31.7776 638.524 -33.6349 636.242 -34.0595C636.348 -34.0595 630.213 -34.1305 629.892 -34.0245C626.576 -33.1573 627.15 -29.9373 624.579 -29.9373C624.652 -29.9373 619.839 -34.0595 619.482 -34.9622C619.054 -36.0594 620.872 -39.6155 619.482 -41.2607C617.305 -43.8087 615.523 -41.0487 613.277 -41.6323C608.249 -42.9415 606.679 -46.3386 606.679 -39.4739C602.757 -39.4384 600.544 -39.0669 597.016 -40.5001C595.731 -41.0307 594.982 -42.7295 593.375 -43.1366C590.312 -43.9147 584.82 -42.464 581.504 -42.464V-44.4103C580.325 -44.0388 578.437 -42.871 577.367 -43.9147C577.651 -43.9502 583.034 -46.5337 580.54 -47.1708C577.721 -47.9134 576.155 -43.5257 572.445 -44.1448C572.981 -40.8537 567.416 -41.1373 564.422 -41.1373C567.632 -41.4378 581.753 -49.9663 582.074 -51.7001C583.428 -59.2724 568.986 -58.6178 565.704 -57.3791C566.346 -58.1577 566.846 -58.3167 566.846 -59.5024C564.955 -59.3079 563.136 -59.8915 561.282 -59.8915C561.57 -60.4931 563.1 -62.3329 563.458 -62.634C556.111 -63.2006 555.826 -60.6876 551.261 -58.3703C551.867 -57.6091 551.725 -57.8217 551.904 -57.0075C546.876 -58.1758 546.485 -54.7787 542.275 -54.3186C540.741 -54.177 537.962 -55.9994 535.68 -55.7338C535.253 -55.6808 530.542 -52.8323 528.439 -52.3192C526.335 -51.8411 524.59 -51.5941 522.019 -50.7089C521.201 -50.3904 516.742 -48.8336 516.279 -48.1085C514.175 -45.0119 520.168 -47.0993 516.458 -44.4103C512.393 -41.4553 504.798 -45.2594 500.661 -41.6323C501.767 -39.0313 509.111 -34.7851 504.977 -34.4665C503.798 -34.378 502.263 -36.6074 501.551 -36.8375C498.379 -37.9522 496.202 -38.0407 493.065 -37.3686C494.241 -36.8019 495.738 -36.926 495.738 -35.2277C486.288 -35.8288 497.272 -33.6704 496.844 -30.6984C495.311 -33.0513 491.247 -31.512 489.392 -33.8294C488.749 -34.6261 489.498 -38.6248 488.749 -40.1286C488.428 -39.8805 488.107 -39.792 487.716 -39.8805C487.716 -35.2277 484.933 -37.103 484.437 -34.3425C484.437 -34.325 485.218 -26.6287 485.397 -26.3456C488.107 -21.9579 487.358 -25.9205 490.673 -24.6468C494.778 -23.0371 494.563 -20.9137 494.563 -18.2422C494.563 -17.2865 497.772 -16.7915 498.272 -16.7204C492.992 -13.2703 494.062 -26.3101 486.894 -20.5246C486.894 -20.5246 487.146 -17.074 486.609 -16.2248C485.612 -14.6151 484.542 -14.0135 483.151 -13.2703C479.298 -11.112 479.372 -11.9961 474.449 -12.3327C475.519 -13.8894 479.514 -13.6244 481.544 -15.3402C483.4 -16.9679 484.685 -18.8083 484.685 -21.4623C481.76 -21.2147 480.726 -32.6972 481.011 -35.9173H482.651C483.509 -40.1286 476.552 -41.1903 473.522 -38.9434C473.131 -38.6248 468.314 -30.9279 468.209 -30.5744C469.03 -32.8568 469.067 -25.1069 468.351 -26.5046C468.994 -25.1599 470.242 -25.4959 471.134 -23.6562C471.703 -22.4529 474.412 -22.5059 473.916 -20.6306C473.058 -17.3395 469.742 -21.8338 469.6 -21.8868C465.89 -22.8781 463.038 -24.2223 459.474 -25.4074C457.619 -26.0271 450.914 -29.4777 449.844 -29.3001C445.174 -28.5925 458.652 -23.2671 449.629 -19.746C449.629 -26.7527 434.939 -14.6681 437.648 -22.63C433.762 -20.365 429.341 -20.2765 425.415 -17.6756C424.739 -17.216 416.286 -9.53719 416.859 -17.2865C423.275 -17.074 415.789 -21.3557 412.153 -21.3557C413.755 -19.7815 414.898 -11.7841 413.292 -10.8109C413.686 -11.0234 409.512 -11.9786 408.337 -11.7486C407.409 -11.5715 404.842 -8.68748 403.023 -8.54652C403.52 -7.82087 404.911 -5.67999 404.805 -4.61829C402.202 -5.96304 399.134 -4.68933 396.958 -7.41378C391.718 -4.61829 399.598 -4.26421 399.598 -2.63643C399.598 -1.36329 395.64 -1.96434 395.319 -2.14139C391.396 -3.98118 393.358 -3.52164 391.612 -6.3876C390.148 -8.88257 387.011 -12.0316 384.656 -15.0926C386.759 -14.7036 408.975 -5.96304 406.339 -16.2248C405.696 -18.6843 399.671 -20.9667 397.352 -21.8164C393.715 -23.1605 388.293 -22.1874 386.69 -23.1605C388.544 -27.0177 381.055 -25.779 379.342 -27.3543C382.194 -27.3543 380.734 -28.663 379.273 -29.4242C375.6 -31.3525 377.097 -28.9291 374.493 -28.9291C374.778 -29.4777 375.136 -30.8044 375.278 -31.388C374.456 -31.5825 372.569 -31.5825 371.784 -31.388C371.853 -30.1143 371.605 -29.4242 371.784 -28.292C371.141 -29.8668 370.572 -29.5657 369.322 -30.6984C368.858 -27.9379 367.609 -26.7702 367.609 -30.3083C368.041 -30.5033 369.001 -30.3263 369.428 -30.3263V-31.9541C368.358 -31.7951 361.479 -28.1499 363.973 -30.8219C358.659 -31.3525 359.123 -28.4865 361.942 -26.9292C360.409 -27.5308 358.375 -27.0177 356.772 -27.5483C356.772 -26.0976 357.02 -25.7085 355.987 -24.8949C355.987 -26.6997 353.346 -28.345 351.565 -28.1679C352.277 -25.6555 349.888 -21.7628 349.425 -25.4074C346.321 -22.3295 349.209 -24.5233 348.139 -21.2497C345.535 -22.2939 346.142 -21.5683 345.36 -24.1512C344.291 -23.7802 343.684 -22.6475 342.041 -21.8868C342.505 -21.0552 342.435 -21.4448 342.435 -20.6306C340.044 -20.6306 338.619 -19.5159 337.37 -17.8707C340.011 -18.7018 343.896 -21.1437 346.715 -19.746C342.969 -18.8968 337.444 -12.5802 336.728 -8.03344C335.479 -7.92687 333.591 -6.70617 332.521 -5.67999H334.555C334.267 -3.20307 328.49 -0.726143 326.708 -1.11519C326.708 -0.0890121 326.529 -0.51358 326.96 0.760117C320.076 2.1759 319.218 6.13909 317.83 11.0929C323.535 10.9165 315.797 14.49 321.004 14.9152C320.894 16.3298 320.182 16.5424 320.361 17.8871C325.959 17.8871 328.026 18.5243 331.773 13.8535C334.234 14.278 336.089 22.9831 338.262 25.4245C338.868 26.1321 336.87 27.3708 338.441 27.9369C342.077 29.3527 340.507 26.7337 342.041 26.1676C344.787 25.2125 346.284 24.2568 348.639 23.6907C348.819 23.2306 348.819 22.841 348.639 22.4164C347.285 22.5585 346.891 22.523 346.109 21.9214C346.891 20.6826 350.173 16.6134 350.421 15.9769C351.243 13.8884 354.347 12.0842 349.673 12.0842C349.673 8.75754 346.784 5.64347 350.279 1.64532C352.028 -0.407593 355.271 -0.513588 356.877 -2.63643C357.947 -4.01669 357.984 -7.99793 360.478 -9.55467C362.406 -10.7404 366.825 -8.72301 367.146 -6.45865C367.895 -1.57528 351.992 1.14971 359.302 9.5717C364.437 15.4812 373.423 8.298 379.452 11.7301C376.1 15.1272 371.284 13.6409 367.288 14.1365C365.758 14.384 360.23 16.1889 360.157 16.2593C360.73 16.4719 361.157 16.7549 361.691 16.9669C360.478 16.9669 359.66 17.3915 358.517 17.7462C359.909 21.3553 362.549 17.1795 363.476 17.6041C365.221 18.4532 365.364 19.3734 366.897 20.4001C362.548 25.8846 362.833 19.48 360.299 20.4001C357.235 21.4968 357.447 28.0784 357.378 29.7068C354.774 29.7068 351.422 28.291 353.595 31.8296C349.673 27.8659 347.5 32.1127 343.184 32.5017C341.72 32.6077 335.446 28.9631 335.019 32.9618C333.376 32.8558 331.772 32.2542 330.881 31.5815C331.345 27.2293 337.619 33.4219 336.98 25.6726C336.053 26.0971 332.985 27.1582 332.415 26.9463C332.448 26.2381 332.912 24.9649 333.164 24.2568C332.664 24.4688 332.13 24.4688 331.667 24.2568C332.237 20.152 331.167 19.4089 327.956 22.6645C325.711 24.9294 327.351 27.3708 327.244 29.5647C326.993 35.2267 328.669 32.1127 324.247 34.6601C322.001 35.9698 318.079 37.2791 315.549 37.2791C318.791 41.4193 312.481 40.9947 310.089 42.799C309.841 42.9766 307.88 47.4704 307.168 47.6824C304.776 48.4261 303.316 46.2672 301.745 46.4087C305.455 52.7428 298.108 48.3195 295.899 50.0178C293.222 52.0701 296.611 51.3625 297.465 52.6013C298.714 54.335 300.179 55.0426 301.46 57.6617C308.665 71.9221 291.192 63.1111 284.093 66.0837C285.448 70.6485 283.451 75.9919 284.593 80.4146C285.627 84.3789 284.272 81.9364 287.767 84.1647C289.979 85.5816 291.119 84.2374 293.222 86.8209C293.686 86.2881 293.617 86.0417 292.974 86.0778C296.611 84.8024 301.139 83.3172 304.028 80.661C305.203 79.5666 305.776 80.9474 306.667 79.7081C307.201 78.9639 305.598 77.7257 305.667 77.6547C306.098 77.0531 306.419 74.5406 307.31 73.4789C308.486 72.0637 313.62 70.578 314.512 69.8343C315.582 68.9496 313.763 67.1093 315.691 65.9422C317.294 64.9509 320.219 67.1809 322.001 66.8623C322.68 66.7913 326.032 62.757 327.851 63.0401C330.308 63.4652 332.77 68.1005 334.803 69.7283C340.938 74.4701 351.776 80.9475 336.479 80.9475C340.581 88.0569 347.036 80.661 348.782 76.4514H346.605C346.573 75.9919 346.642 75.5668 346.715 75.1073C347.785 75.4608 350.495 75.9919 351.312 75.9919C349.746 72.9838 345.36 69.5163 341.544 68.9496C341.935 66.5787 337.977 63.6062 336.195 63.7477C336.728 55.8213 341.866 62.8631 345.788 65.6941C348.461 67.6404 351.955 68.9851 353.453 71.7101C354.38 73.4084 355.665 77.9377 356.629 79.7769C355.592 79.4578 355.307 79.248 354.347 79.4251C355.165 81.5812 356.308 82.6102 357.769 80.9108C359.302 88.6945 364.509 80.3459 367.398 79.8858C366.934 79.0699 366.328 78.3978 365.364 78.3978C365.579 78.8934 365.579 79.4251 365.364 79.8858C363.867 79.8858 360.73 75.2482 361.194 74.2576C362.724 75.1073 363.582 75.6023 365.258 74.8592C365.116 74.4346 364.794 74.2576 364.367 74.2576C370.107 65.8711 373.281 87.6328 374.172 87.6328C375.172 87.6328 374.957 84.8024 374.957 84.415C377.17 86.3608 378.951 85.9695 380.697 86.2193C378.879 85.9695 383.622 85.0161 383.516 85.0161C385.335 84.9439 386.153 87.2088 389.114 86.5023C389.078 85.7592 389.041 85.0854 389.114 84.3062C394.676 85.4406 395.106 87.3498 393.072 93.2238C392.393 95.2784 389.793 98.605 388.008 99.3803C385.835 100.3 383.801 98.1083 381.767 99.17C384.94 100.656 387.153 110.102 390.754 106.46C396.14 112.052 397.458 119.694 400.989 125.568C403.235 129.249 407.836 132.148 409.76 136.395C412.364 142.127 408.906 145.595 416.216 145.736C419.496 145.736 423.385 142.624 426.627 141.279C430.337 139.794 432.156 138.236 435.117 136.891C438.933 135.159 441.216 135.902 443.852 132.859C445.101 131.514 447.668 128.046 449.307 128.717C449.307 125.18 449.381 125.039 451.984 123.941C451.7 122.241 448.811 120.331 447.526 119.27C445.244 117.324 447.526 115.306 444.246 118.527C443.888 117.005 443.425 113.679 442.213 112.758C440.821 114.458 440.394 114.599 440.179 117.288C435.117 116.864 427.201 117.041 436.509 115.378C436.363 114.81 429.231 112.827 428.877 112.617C427.77 111.838 424.382 108.124 424.097 106.46C423.133 100.656 425.952 102.565 429.41 104.971C433.69 107.874 435.15 109.218 440.179 110.849C441.037 111.131 443.067 110.563 444.246 110.849C445.137 111.095 445.349 113.078 446.562 113.606C448.811 114.668 454.409 115.164 457.049 115.27C463.144 115.483 464.856 114.951 469.742 117.712C472.382 119.197 472.631 121.074 476.589 121.818C469.6 121.818 477.622 125.426 479.229 125.956C481.866 126.807 480.478 122.419 483.293 126.347C484.685 128.188 483.578 130.594 483.936 132.644C484.649 136.677 486.109 139.899 487.61 143.685C488.607 146.233 490.425 154.585 492.923 156.034C495.559 157.487 498.2 154.868 499.66 151.86C500.661 149.842 500.661 147.508 500.909 145.244C501.052 144.04 500.588 141.845 500.982 140.855C502.3 137.493 502.015 140.783 504.477 138.377C509.22 133.847 514.818 126.984 519.203 124.579C520.879 123.622 528.333 122.1 528.439 122.172C529.866 123.089 533.146 130.416 533.146 132.079C537.498 132.079 532.507 135.688 535.68 138.167C537.82 139.83 540.244 136.29 540.635 136.395C544.024 137.315 546.375 146.164 546.306 149.806C546.27 151.755 543.275 153.806 544.593 157.133C545.379 159.115 548.446 160.956 549.552 163.466C550.87 166.51 553.616 177.443 559.5 174.649C557.502 171.217 557.502 165.13 555.472 162.619C552.51 159.115 549.052 159.292 548.231 154.194C548.052 153.027 546.912 147.932 548.837 146.338C551.94 143.827 549.374 145.736 552.404 147.367C555.041 148.78 554.793 148.711 557.148 151.614C557.681 152.284 559.605 152.817 559.894 153.241C560.749 154.654 559.642 155.893 560.891 158.053C563.421 154.513 567.274 153.592 569.271 150.867C572.981 145.845 570.663 141.635 567.632 137.739C563.03 131.797 561.819 124.579 572.445 124.579C573.124 127.619 568.523 130.945 570.305 132.503C574.657 136.326 575.581 125.144 575.475 125.212C577.367 123.517 581.468 123.408 583.607 122.738C586.745 121.745 587.777 121.074 590.418 119.093C594.091 116.367 600.865 110.389 601.723 105.468C602.362 101.859 600.438 104.087 600.08 101.645C599.868 100.3 601.186 100.587 600.723 98.1771C600.153 95.2784 596.089 91.6693 596.158 89.5786C596.3 85.5816 600.401 86.9258 601.865 84.8024C603.147 82.926 603.147 83.0342 599.368 81.6539C597.692 81.0884 598.119 83.5997 595.947 83.5997C596.553 78.8934 590.345 82.1828 593.091 77.7962C592.916 78.1147 598.013 75.8853 598.298 75.7438C603.863 73.6559 602.22 72.9839 599.938 78.7874C601.581 77.8672 605.967 75.5668 607.821 76.3809C611.707 78.1147 608.639 78.7164 608.961 81.9003C614.953 79.4251 613.135 88.8355 612.492 91.702C616.772 92.1621 621.621 89.3322 621.515 85.2264C621.442 81.5485 616.735 81.1211 617.699 75.9919C617.911 74.9657 619.802 75.7438 619.981 75.2482C620.051 75.1073 620.657 71.1435 621.015 70.6834C621.87 69.5163 623.297 67.1454 624.9 66.4372C625.828 66.0481 629.18 66.7913 630.893 66.2957C633.175 65.6585 633.781 65.093 635.563 63.5357C638.452 61.0943 642.125 56.5289 644.086 53.5925C646.368 50.2303 645.726 47.5409 647.259 44.0733C652.181 32.6077 649.972 55.2203 649.972 58.3693C650.896 57.4491 651.612 57.9447 652.43 56.1044C653.573 57.166 652.572 58.0158 654.997 58.1218C654.321 53.5214 649.366 49.4517 656.246 49.4517C656.425 49.4517 652.967 33.8115 652.824 31.9711H651.824C652.003 35.7218 650.791 35.4387 650.791 38.9069C647.902 37.208 648.472 33.5279 643.195 31.9711C642.589 35.7928 640.734 34.5191 639.13 31.9711C639.273 32.7143 639.273 33.2448 639.13 33.988C636.885 33.67 639.167 32.2542 637.491 30.839C633.923 34.377 637.418 29.0341 638.736 27.5834C640.734 25.3889 642.837 23.9032 645.013 21.2137C649.578 15.6222 653.679 15.2687 660.562 15.2687ZM290.94 17.6041C289.764 18.0287 288.515 19.3734 288.267 20.5061C289.337 20.2231 292.868 17.2506 290.94 17.6041C291.082 17.6041 290.477 17.7462 290.94 17.6041ZM293.617 45.8071C296.184 45.8071 298.108 44.0378 299.572 43.7902C301.818 43.4361 304.992 44.4978 306.81 43.6842C310.02 42.2329 311.053 39.1189 310.199 36.2529C309.662 34.4125 308.271 37.3495 308.202 37.2791C307.343 36.3944 307.486 34.9437 306.81 34.377C305.667 33.3864 304.1 31.051 302.604 29.3172C300.321 26.6632 300.033 27.2998 299.679 25.1769C299.463 23.7617 305.313 18.2412 296.648 20.7892C297.36 19.5504 297.465 18.5243 298.82 17.7462C295.968 14.9152 294.719 19.3029 293.649 20.1521C293.474 20.2936 287.697 22.2399 292.225 23.0186C291.831 24.3278 290.37 26.2381 290.444 27.0522C291.941 27.2293 293.828 28.4325 294.223 26.8047C293.865 31.7231 296.469 28.9986 298.323 32.9618C300.427 37.5621 296.111 34.4125 293.865 37.1375C294.719 37.3495 295.399 37.2791 296.395 37.3851C296.395 38.7653 292.974 39.3314 294.114 40.6406C294.829 41.4543 298.393 40.2516 299.572 41.3838C299.109 41.8083 292.046 45.8071 293.617 45.8071ZM291.44 32.8558C297.075 32.0422 282.49 24.8584 285.879 31.5815C283.202 32.0771 279.602 35.7928 283.987 35.5802C278.28 43.7902 286.233 38.3408 291.082 39.4019C291.261 37.4206 291.477 35.2972 291.44 32.8558ZM427.128 224.473C427.128 219.624 430.623 209.645 424.845 207.38C424.845 209.08 422.6 213.044 421.567 213.964C419.426 215.91 416.111 215.095 413.935 217.182C412.258 218.809 414.146 223.871 413.935 225.215C413.54 227.763 412.437 228.082 411.9 231.267C411.225 235.409 412.185 241.529 417.75 240.326C423.1 239.159 421.387 237.528 422.315 232.789C422.384 232.224 423.739 226.842 423.849 226.737C424.276 226.136 427.128 225.288 427.128 224.473ZM385.014 104.406C382.589 98.6738 381.197 100.869 375.884 100.232C368.216 99.3115 362.297 96.869 355.095 95.2423C355.095 102.141 355.238 100.869 350.531 100.938C351.491 100.869 346.394 99.4525 346.891 99.6667H343.184C342.789 99.0285 342.541 98.3547 342.435 97.6482C340.19 96.9051 333.412 95.8073 332.021 93.9342C329.417 90.4661 334.946 89.8284 330.239 86.8209C331.488 85.7919 331.345 85.6504 333.054 85.2991C330.666 81.2626 324.104 85.0161 320.609 85.0854C316.903 85.1576 312.945 83.527 308.202 85.5816C304.992 86.9258 302.815 88.8028 298.572 88.6945C293.437 88.6258 290.692 85.0854 290.692 91.702H286.876C288.588 97.8258 284.093 93.8615 283.096 95.88C281.489 99.0973 282.026 102.921 280.562 104.971C279.671 106.174 276.319 107.805 274.964 109.501C273.503 111.237 271.754 114.175 270.151 116.509C268.581 118.846 262.161 124.789 263.056 128.329C263.304 129.318 266.905 127.905 267.475 129.108C267.975 130.061 266.763 130.521 266.978 131.086C267.975 133.706 266.299 138.025 266.087 140.678C265.835 143.899 265.551 146.657 269.151 150.339C272.967 154.335 276.535 157.629 280.814 161.307C282.275 162.582 282.987 165.485 286.127 166.119C289.658 166.757 290.122 165.271 293.474 164.847C296.395 164.492 298.609 165.767 300.606 165.695C304.812 165.554 304.528 163.963 307.949 162.792C310.732 161.876 316.724 162.122 318.328 162.792C320.862 163.926 320.218 165.767 323.962 166.615C330.454 168.032 330.097 164.847 330.239 171.641C330.308 174.826 329.026 178.896 327.208 180.7C335.337 183.247 340.686 199.738 339.368 207.594C338.083 215.519 333.27 215.837 337.37 224.226C339.901 229.462 340.723 232.575 342.184 238.307C343.648 244.254 348.319 248.287 350.031 253.667C351.491 258.266 349.246 259.719 351.565 262.23C357.695 268.883 373.923 261.027 378.7 255.932C380.555 253.95 383.695 250.515 384.765 248.145C385.835 245.812 384.407 242.485 385.014 241.068C385.547 239.938 389.578 239.227 390.863 237.528C394.321 233.071 389.114 231.162 390.111 226.491C390.896 222.704 397.958 220.759 399.993 218.918C405.017 214.457 405.306 209.467 404.056 202.746C403.341 198.959 399.814 193.331 401.274 188.733C403.198 182.541 411.188 176.558 415.968 172.384C419.495 169.304 422.99 165.767 425.346 161.557C426.949 158.759 427.986 158.513 428.377 154.763C429.019 148.853 429.98 150.266 424.845 150.233C417.714 150.197 415.611 152.886 410.651 147.508C407.8 144.36 403.198 141.42 400.489 137.917C397.816 134.485 395.034 126.629 393.394 122.56C390.932 116.331 389.505 109.929 385.014 104.406C385.298 104.762 384.835 103.982 385.014 104.406ZM127.116 297.049C126.118 296.838 126.189 295.28 125.476 295.28C125.797 295.28 123.194 298.252 123.194 298.219C123.194 298.676 127.901 302.288 128.258 302.463C128.044 302.781 127.936 303.136 128.008 303.492C119.877 303.492 126.368 310.601 125.084 313.54C125.833 313.434 126.368 313.434 127.116 313.54C127.152 314.246 126.76 314.637 125.975 314.706C127.295 316.087 126.618 315.275 127.901 315.59C127.473 315.449 133.25 322.776 134.213 323.377C139.063 326.349 143.663 324.899 148.299 324.544C148.085 323.059 142.272 321.396 141.06 318.529C139.919 315.768 137.316 308.622 141.951 309.083C141.951 306.18 147.835 302.923 147.408 300.835C146.944 298.361 141.06 299.846 143.092 294.925C143.734 293.371 146.944 294.219 147.657 293.371C148.263 292.592 147.443 291.316 148.299 290.396C147.729 291.034 151.294 284.877 150.831 287.142C151.651 283.109 147.8 287.247 148.656 281.268C154.611 283.638 155.787 281.478 154.896 275.996C159.817 276.137 165.737 276.315 167.983 271.571C170.408 266.546 165.772 267.68 164.881 263.292C170.373 263.998 172.441 265.911 176.685 262.158C178.681 260.389 180.251 253.277 182.497 253.595C182.176 254.588 181.998 254.693 182.247 255.614C188.774 252.392 186.955 243.228 190.521 239.018C192.839 236.256 196.048 234.912 199.329 233.992C204.535 232.506 205.962 232.857 208.886 227.799C212.345 221.82 210.919 212.761 213.7 207.945C215.733 204.445 220.19 202.354 221.367 198.321C222.188 195.633 222.009 195.81 221.331 193.331C219.834 187.955 219.905 191.491 216.518 188.838C212.845 186.008 211.346 185.371 206.782 184.523C204.322 184.026 195.62 184.628 199.258 182.751C197.903 181.83 195.728 180.486 193.944 180.135C189.487 179.283 190.485 180.276 187.347 181.621C187.632 181.197 188.952 178.258 188.988 178.011C187.811 177.87 186.17 177.301 185.029 176.95C183.888 176.595 184.53 179.497 182.141 179.215C182.604 178.152 187.24 172.384 182.89 172.384C183.638 164.742 176.506 164.35 171.764 163.148C167.912 162.227 159.389 158.335 159.389 154.052C157.214 154.795 153.327 153.806 156.715 152.284C154.468 149.418 149.797 153.451 148.477 153.418C143.627 153.241 141.31 149.204 136.674 148.356C136.674 150.835 134.962 150.266 133.5 151.755C133.286 151.965 133.928 155.364 133.749 155.929C131.146 153.806 131.823 149.277 134.498 147.65C130.219 146.446 118.237 154.335 117.524 159.68C117.132 162.651 120.27 165.767 118.237 169.873C117.132 172.137 112.46 176.808 109.999 177.656C110.427 181.479 108.823 182.186 112.781 182.469C111.141 185.298 107.289 186.998 109.5 191.633C110.035 192.803 112.531 193.049 113.565 194.499C114.564 195.952 115.634 198.111 116.276 199.665C117.667 203.064 118.95 208.725 121.161 211.272C124.192 214.74 127.83 215.733 131.61 218.668C137.993 223.657 135.639 234.274 134.605 242.057C134.035 246.305 132.43 250.374 131.931 254.302C131.36 258.972 131.931 263.857 130.04 268.245C127.936 273.13 128.08 275.996 126.76 281.478C126.831 281.159 126.724 285.087 126.76 284.099C126.724 284.946 125.048 285.797 125.405 286.859C127.188 292.131 128.722 284.24 130.54 284.099C129.221 287.78 128.686 290.892 128.222 295.067C127.223 293.403 126.974 294.324 126.618 292.027C125.441 292.66 127.223 296.096 127.116 297.049ZM133.464 134.627C137.886 133.637 144.269 134.38 148.691 132.859C146.73 130.452 140.703 131.231 136.995 130.735C134.641 130.452 129.792 127.691 129.399 131.372C129.149 133.706 131.289 135.051 133.464 134.627C133.963 134.521 133.143 134.699 133.464 134.627ZM121.554 133.847C120.52 132.257 118.416 131.724 116.24 132.079C117.56 133.847 120.02 135.369 121.554 133.847C121.339 133.565 121.161 134.271 121.554 133.847ZM126.118 128.22C124.192 125.144 116.276 123.303 112.923 122.027C110.748 121.252 105.792 119.233 103.081 120.792C100.086 122.524 100.835 122.774 104.044 124.292C105.435 125.003 106.255 122.843 107.61 123.089C109.465 123.375 110.641 124.966 111.64 125.321C116.882 127.195 120.163 128.22 126.118 128.22ZM248.61 -8.29845C250.929 -8.67001 251.751 -8.61701 252.393 -6.28161C250.644 -6.60017 249.074 -6.60017 247.328 -6.28161C247.398 -5.78657 247.507 -5.25542 247.577 -4.75982C252.748 -5.60895 248.753 -2.70747 251.393 -1.75234C251.963 -1.57529 257.919 -0.973679 258.24 -1.00864C262.805 -1.2212 263.199 -2.1769 267.121 -4.26421C270.436 -6.06905 271.897 -3.55659 272.934 -7.04222C273.361 -8.42249 270.936 -8.45801 270.4 -8.54652C271.506 -14.8096 262.91 -9.2361 258.667 -9.78471C258.028 -9.83771 254.245 -10.3683 254.924 -10.2978C253.105 -10.4568 255.067 -13.1288 253.142 -10.8109C248.504 -12.3502 247.365 -8.05093 248.61 -8.29845C248.968 -8.35145 248.256 -8.2274 248.61 -8.29845ZM170.479 42.0209C169.481 42.6575 163.597 52.0701 164.025 52.7778C164.917 54.2646 168.055 52.8493 169.766 53.3444C172.37 54.123 172.94 55.1847 175.544 56.3874C179.502 50.4423 175.793 48.3906 169.98 46.5502C169.945 46.6562 173.511 40.3221 170.479 42.0209C170.8 41.8794 170.158 42.2329 170.479 42.0209ZM156.786 47.5764C154.254 46.7628 153.149 45.7011 150.688 46.0546C153.006 47.4348 154.504 50.832 156.786 47.5764C156.679 47.7534 156.429 47.4704 156.786 47.5764ZM228.357 -20.1C229.07 -20.365 229.854 -19.3389 230.425 -19.1799C234.918 -17.7466 234.918 -19.4454 238.591 -20.8781C241.872 -22.1344 250.002 -23.8862 251.144 -26.9292C246.723 -23.4971 236.309 -31.5121 247.398 -31.052C246.934 -31.0694 252.357 -25.4074 253.606 -30.3083C254.069 -32.1137 249.538 -36.4659 248.114 -37.2446C248.899 -37.9341 253.891 -34.325 252.393 -38.9964C251.678 -41.1903 250.396 -41.2252 247.471 -40.252C248.041 -41.1373 248.61 -41.0662 248.968 -41.8798C248.435 -42.0394 247.935 -42.2514 247.471 -42.535C249.074 -42.5525 253.675 -40.3231 255.815 -41.7563C260.737 -45.0119 252.784 -43.8442 252.784 -45.419C252.784 -45.8081 260.274 -46.1616 260.774 -47.0468C259.204 -48.5855 255.067 -51.2395 260.021 -51.6466C260.131 -55.7163 253.96 -55.6983 254.676 -57.9981C254.96 -58.9364 257.955 -59.2905 258.74 -59.0068C261.986 -57.7687 259.309 -57.5031 260.774 -54.6011C261.665 -59.821 263.695 -61.0772 257.349 -61.0772C259.098 -63.0056 257.422 -61.6078 260.379 -63.0236C258.597 -65.73 254.212 -63.1296 254.175 -63.1471C249.647 -66.7742 265.623 -76.594 267.121 -78.4698C265.086 -78.3458 263.125 -78.6993 261.128 -78.7529C265.265 -79.602 267.62 -79.478 271.185 -81.7779C272.148 -82.3975 277.283 -81.7604 274.964 -85.1575C274.573 -85.7591 269.26 -85.476 268.76 -85.423C265.086 -84.9804 261.665 -84.3438 258.597 -83.5471C256.67 -82.9991 248.72 -78.8234 247.577 -79.0179C252.142 -84.6974 254.639 -85.5465 246.328 -86.7678C246.328 -83.4767 243.94 -83.8127 240.731 -83.2822C241.266 -85.9536 243.12 -84.8919 245.046 -85.7946C240.339 -89.2622 231.709 -83.8838 226.538 -84.6799C227.929 -88.8021 249.074 -89.1387 253.927 -89.6873V-90.837C249.074 -90.8544 246.902 -91.5801 243.156 -92.2172C237.521 -93.1368 232.029 -91.8282 226.538 -92.3937C230.567 -95.1368 238.77 -93.9161 244.546 -93.9161C243.903 -98.3743 218.55 -96.5339 215.269 -95.4903C211.775 -94.3401 214.913 -93.1904 210.526 -92.7123C207.959 -92.4292 205.819 -93.933 203.181 -94.0395C200.756 -94.1455 195.941 -93.668 193.231 -92.6418C194.051 -91.0315 195.977 -91.7216 195.977 -89.4392C194.943 -90.2354 190.378 -92.1287 191.84 -89.3332C191.484 -90.0228 199.9 -85.0864 197.511 -85.0864C192.162 -85.0864 188.132 -89.3507 182.462 -89.3507C182.462 -88.1475 185.956 -86.0776 186.456 -84.2728C183.068 -85.2285 180.785 -88.289 177.148 -88.6256C178.075 -86.8033 178.36 -82.38 175.365 -84.1488C175.365 -84.1668 176.792 -87.794 174.795 -88.8731C172.406 -90.2179 164.81 -85.5645 163.205 -86.3607C164.953 -85.688 167.912 -84.7509 169.267 -83.2822C166.842 -83.2996 164.81 -84.9455 162.277 -85.246C160.638 -85.476 161.065 -86.7678 158.89 -85.7416C156.786 -84.7684 158.462 -83.1936 157.891 -82.8751C155.895 -81.7248 151.758 -81.2648 147.978 -79.266C146.48 -78.4698 142.843 -78.5403 143.057 -75.9749C145.232 -75.4088 146.338 -75.9749 148.371 -75.9749C149.832 -75.9749 148.299 -71.2511 148.014 -70.9855C147.336 -70.4014 144.163 -70.5604 143.164 -70.3128C140.561 -69.6408 135.889 -69.9238 133.25 -68.3665C124.656 -63.3596 140.525 -62.9351 145.196 -62.9351C144.269 -59.0954 134.677 -61.9264 134.677 -59.7325C134.677 -58.6533 138.849 -57.4851 139.741 -57.2905C139.027 -57.2905 138.955 -57.2905 138.742 -56.7774C140.025 -55.7513 142.486 -53.6284 144.376 -54.3186C144.234 -54.5836 143.413 -55.3267 143.842 -55.5923C146.694 -57.3441 158.961 -55.9994 162.349 -53.841C167.235 -50.7264 170.979 -44.3573 171.443 -38.5008H172.655C167.805 -29.8668 179.466 -36.9615 182.783 -29.1761C179.645 -29.0881 176.685 -31.264 173.796 -30.0613C174.51 -27.9204 171.906 -24.4348 176.328 -24.3288C180.179 -24.2397 181.428 -26.9647 176.934 -27.6549C183.318 -28.416 181.784 -25.956 183.567 -21.4972C180.714 -21.6393 178.467 -21.1437 178.539 -18.3657C172.191 -19.1799 178.86 -10.9524 179.252 -9.62572C179.109 -9.97924 181.142 -10.4923 181.534 -9.69676C181.82 -9.02411 179.466 -8.24545 180.108 -7.66132C179.109 -8.58206 181.249 -4.12325 181 -4.75982C180.964 -4.90134 183.46 -6.21114 183.924 -6.17561C181.962 -2.21186 183.924 4.47634 188.239 7.69583C190.164 9.14658 199.65 12.7918 201.183 11.9426C203.287 10.8099 202.717 6.49319 203.573 4.54683C204.107 3.37913 202.289 3.02502 203.002 1.64532C203.359 0.901627 205.248 1.39723 205.855 0.265053C208.422 -4.40575 206.853 -8.86454 213.272 -9.41315C213.094 -12.4567 213.415 -10.2803 215.056 -11.3065C214.663 -3.37956 228.286 -20.0826 228.357 -20.1ZM89.9588 -59.0068C92.6686 -54.8672 104.864 -56.3709 109.358 -57.1141C110.57 -54.088 117.774 -55.9638 117.488 -59.8915C116.811 -59.5729 116.133 -59.2905 115.456 -59.0068C115.242 -59.6265 115.028 -60.2631 114.814 -60.8822C117.702 -61.4133 117.56 -62.1564 116.846 -64.6689C120.484 -63.6782 123.55 -64.2088 121.018 -67.5354C120.626 -68.0485 124.834 -67.6589 124.834 -68.1725C124.834 -71.6576 118.38 -70.5254 116.739 -69.0747C116.561 -69.4812 116.383 -69.9063 116.24 -70.3128C120.376 -73.1969 124.87 -69.1987 128.757 -72.7193C128.008 -73.2679 127.259 -73.7985 126.51 -74.3296C129.114 -73.6395 131.61 -73.0734 134.498 -74.223C133.25 -75.1787 133.429 -75.9219 131.823 -76.612C137.815 -75.1787 144.876 -81.6718 150.439 -83.1406C148.656 -84.9099 143.877 -83.1936 140.81 -83.5471C143.306 -86.7497 157.178 -83.6537 158.07 -88.077C158.64 -91.0845 146.017 -91.6156 142.985 -90.837C141.809 -92.0047 136.995 -93.2964 133.963 -93.6144C132.787 -89.4212 119.164 -95.5433 120.163 -90.6955C116.347 -92.1107 107.931 -92.9068 105.043 -88.8201C108.252 -88.9966 111.747 -88.3426 113.316 -85.7946C110.106 -86.6257 105.828 -88.6431 103.046 -89.1917C100.122 -89.7578 97.7323 -88.2185 96.9124 -88.1125C93.8452 -87.6874 87.7115 -86.0777 84.0028 -85.299C83.967 -84.9274 83.9318 -84.5384 83.896 -84.1488C87.0342 -83.1762 87.2485 -81.3713 90.743 -80.3277C95.7352 -78.8053 95.9136 -81.4598 100.229 -82.0259C91.5634 -77.001 105.007 -78.7348 107.361 -79.3184C112.211 -80.5041 115.563 -83.2996 120.662 -83.1406C118.629 -82.9281 116.668 -82.0259 115.064 -80.6457C116.918 -80.9642 118.487 -80.3626 120.27 -80.3801C117.702 -78.4873 109.536 -77.8677 105.828 -77.6382V-76.382C108.288 -75.3558 109.75 -73.551 112.674 -73.604C108.359 -72.4363 101.904 -76.6469 97.0544 -77.2486C97.4465 -73.1438 104.829 -69.8528 109.001 -70.0653C108.038 -68.9506 107.61 -68.119 106.826 -67.1988C99.5865 -74.2411 88.7457 -63.3066 102.154 -65.6776C101.441 -65.2885 100.728 -64.9164 99.979 -64.5448C101.548 -61.9974 104.437 -62.8291 106.576 -65.0404C104.116 -58.5293 96.8409 -64.7044 92.3833 -64.1383C94.2374 -61.2898 92.4902 -60.1215 89.9588 -59.0068ZM91.0998 -67.1988C91.8129 -68.0485 93.0965 -67.5173 92.7402 -69.8353C100.835 -68.6146 98.945 -73.5684 93.9164 -76.7C94.2022 -76.5054 77.5486 -84.8214 77.9407 -82.3975C79.1174 -82.1494 80.1875 -82.9991 80.4727 -81.5128C80.5085 -81.3003 76.0151 -80.7342 75.5162 -80.7697C76.5503 -80.0796 76.8709 -79.0534 77.2993 -78.6288C76.0862 -78.8234 75.0168 -78.4343 73.8758 -78.5048C73.4832 -77.6382 73.0195 -75.7268 72.9837 -74.5946C76.015 -71.5691 80.4727 -74.1526 83.7535 -71.4456C81.792 -71.3215 79.7953 -70.3484 77.9407 -70.0653C81.6852 -66.7393 86.6775 -65.483 91.0998 -67.1988ZM84.5024 -62.8996C84.1461 -62.316 83.7535 -61.7318 83.3614 -61.1302C85.5723 -60.4756 87.1416 -60.6171 89.0667 -61.5193C87.8899 -63.7312 86.7133 -63.3241 84.5024 -62.8996ZM86.5354 -47.6839C89.0315 -48.1965 117.06 -45.9141 112.923 -52.3192C110.463 -56.1758 99.4086 -52.0356 96.021 -52.1247C88.9241 -52.2837 87.9616 -59.5729 81.6142 -57.7332C83.9671 -53.717 81.5068 -49.4177 86.5354 -47.6839ZM68.9188 -47.1708H70.7012C69.917 -49.0631 69.9171 -47.5599 68.9188 -47.1708ZM72.8416 -50.3199C74.161 -49.1696 81.0437 -46.0026 80.33 -50.4439C79.7595 -54.0705 74.0178 -52.3367 72.8416 -50.3199ZM79.0817 -55.7338C81.8988 -58.6533 77.7623 -60.7232 74.7667 -60.2631C68.5978 -59.2905 76.2288 -55.6983 79.0817 -55.7338ZM73.8758 -61.7674C76.1577 -61.8029 78.3686 -62.0859 80.5795 -62.634V-63.8902C77.7624 -64.2798 74.731 -64.5093 73.8758 -61.7674ZM74.3747 -64.9164C80.7221 -66.4557 70.1313 -69.3047 68.1698 -68.6856C69.0256 -65.695 71.0939 -63.8727 74.3747 -64.9164ZM67.2784 -74.3296C66.3511 -76.0809 65.709 -77.0366 63.3555 -76.612V-75.1077C65.0675 -74.382 65.709 -74.0465 67.2784 -74.3296ZM65.638 -63.5367C67.4921 -69.8353 54.9756 -72.8428 50.268 -71.0915C52.0868 -70.3484 53.0142 -68.9326 54.3336 -67.8004H52.1943C54.0484 -65.253 62.0362 -64.8989 65.638 -63.5367ZM60.8237 -63.2711C59.2191 -63.8902 58.7201 -64.8104 56.7586 -64.2798C57.5069 -62.1209 58.7554 -62.8291 60.8237 -63.2711ZM59.6468 -52.3192C62.2503 -53.5929 63.8192 -52.6023 64.3538 -49.6827C67.742 -49.8242 70.2734 -50.9925 69.8813 -54.5836C69.4182 -58.5293 65.4238 -56.866 61.8219 -58.2462C63.0703 -57.3791 64.4255 -56.0698 65.1386 -54.7251C64.996 -54.9551 60.0747 -56.8485 59.1479 -56.972C59.3974 -55.9108 59.4332 -54.9202 59.7895 -53.841C57.436 -55.6278 56.4019 -58.5468 53.0853 -58.8834C52.6932 -55.0792 56.1876 -53.1684 59.6468 -52.3192ZM52.3011 -51.3105C52.5864 -51.116 55.0825 -48.2675 55.0825 -51.204C55.0825 -52.8673 52.6574 -51.3105 52.3011 -51.3105ZM53.1926 -60.7587C52.2653 -62.2449 51.1597 -63.3241 49.5193 -64.0143C49.6619 -61.5018 50.9101 -60.086 53.1926 -60.7587ZM119.271 -15.5877C121.09 -15.0577 126.118 -15.6942 124.335 -18.5427C122.766 -21.0727 117.096 -19.1624 119.271 -15.5877ZM78.2975 -36.873C79.0464 -38.2177 80.2943 -37.7221 80.2227 -39.757C83.7535 -38.5008 85.2154 -41.6148 87.0694 -44.1448C84.4665 -45.1005 78.9749 -46.9047 76.6572 -45.2594C74.5889 -43.7732 73.6968 -35.5812 78.2975 -36.873ZM67.1358 -32.9628C72.9838 -32.9628 74.1611 -38.2003 68.5262 -40.7477C72.8059 -42.1104 69.4534 -44.6934 67.0289 -45.472C66.601 -45.5955 63.1776 -43.7557 61.1804 -44.1448C64.7464 -40.4471 62.0004 -38.0937 58.0423 -40.252C58.2207 -37.7221 64.7818 -34.1835 67.1358 -32.9628ZM52.9426 -40.8892C54.0125 -44.3393 49.5907 -45.0294 47.4866 -43.1366C49.4839 -41.2788 50.8743 -40.0226 52.9426 -40.8892ZM44.5622 -43.7732C44.7764 -43.5612 46.1674 -41.9683 44.5622 -43.7732V-43.7732ZM32.2595 -66.6682H41.282C39.7126 -70.0123 34.7204 -69.0391 32.2595 -66.6682ZM34.8271 -61.1302C37.359 -61.1477 40.5688 -61.4308 38.3574 -63.8902C39.4273 -64.3683 39.82 -63.9257 40.5331 -65.1464C37.5733 -65.4295 34.6487 -65.3054 32.1526 -63.6602C32.652 -61.9619 33.543 -61.7318 34.8271 -61.1302ZM30.3696 -63.3946C29.5855 -65.0224 29.3713 -66.1021 26.9462 -65.6776C27.5167 -63.6072 28.5866 -63.8017 30.3696 -63.3946ZM27.8376 -57.1141C24.2358 -56.0698 20.6347 -52.3897 23.166 -50.3729C25.4132 -48.568 33.6505 -50.4259 36.4677 -50.1778C35.5045 -49.0631 29.5855 -50.1428 29.9776 -48.1085C30.5123 -45.7545 34.9346 -47.2233 36.3966 -47.4888C39.4989 -48.0549 51.1243 -49.5587 50.268 -53.841C50.5891 -52.1952 42.6371 -58.1932 43.3144 -57.9981C39.6058 -59.0779 38.2148 -56.937 40.1405 -53.5929C40.8541 -53.3099 41.995 -53.7525 42.2445 -52.8853C42.6013 -51.5225 29.7275 -56.4589 27.8376 -57.1141ZM28.5865 -59.5024C29.407 -59.1484 29.6564 -57.8217 31.6537 -58.2462C31.6179 -58.6533 31.5469 -59.0954 31.5111 -59.5024C30.548 -59.2549 29.5854 -59.2549 28.5865 -59.5024ZM18.459 -54.0879C18.0312 -53.5929 17.6033 -53.0798 17.1755 -52.5842C19.9568 -52.6197 19.4221 -52.1072 20.884 -54.7251C20.0636 -54.5131 19.2795 -54.3005 18.459 -54.0879ZM22.5244 -57.2556C24.6279 -57.9807 25.7337 -59.6265 26.0547 -62.0149C18.3874 -63.8727 15.927 -56.8834 8.93752 -56.1234C12.2183 -51.169 17.1402 -55.6628 20.0994 -58.3703C20.8483 -56.1758 21.7045 -57.7331 22.5244 -57.2556ZM24.2716 -24.4173C29.7633 -24.8588 29.906 -22.0103 34.1852 -20.8781C38.4291 -19.7285 41.674 -22.7004 45.4542 -23.4081C47.7367 -23.8157 62.7851 -21.3738 57.507 -25.5315C59.6111 -25.4959 60.2888 -26.6106 61.5724 -27.1773C56.9007 -30.3618 54.9757 -30.3438 52.6216 -34.7671C51.7301 -36.4834 47.772 -44.8174 44.5622 -40.8536C43.1002 -38.9964 48.4851 -34.6611 44.4554 -34.9622C42.4229 -35.1392 42.5656 -40.5357 38.7502 -40.7477C39.2137 -39.9696 39.5699 -39.0494 39.9978 -38.2352C38.429 -37.5986 37.6442 -37.3506 35.9686 -36.979C36.3607 -37.6872 36.5391 -38.7133 36.8243 -39.4739C34.0066 -40.5356 31.3327 -40.0045 29.7275 -38.9964C30.9759 -43.7021 26.4826 -41.4553 24.1648 -40.4471C19.9925 -38.6068 19.85 -37.6872 17.9601 -34.4665C20.7415 -33.3879 23.7369 -35.1567 26.3041 -33.2103C24.2358 -32.9978 22.2745 -32.2552 20.7415 -31.052C23.5587 -29.5482 32.688 -31.8306 34.1852 -29.3001C34.7204 -28.3625 24.1648 -27.8849 22.5244 -26.9292C23.0949 -26.0801 23.7011 -25.2484 24.2716 -24.4173ZM45.4542 -19.4979C47.7367 -20.1 49.1629 -20.5776 49.6618 -22.5059C47.3083 -22.0814 44.9549 -21.2322 42.9218 -19.994C43.7781 -19.8345 44.6337 -19.6574 45.4542 -19.4979ZM10.079 -33.0863C14.5718 -32.4142 16.3907 -38.3593 20.2778 -40.3406C26.5894 -43.5612 28.1235 -44.5163 20.0283 -46.1616C17.96 -46.5861 7.51144 -49.0281 5.33579 -47.2233C4.12387 -46.2151 3.76683 -38.8013 1.0923 -35.8468C4.01627 -35.6698 6.7625 -34.095 7.93925 -31.3175C8.6524 -31.9011 9.36536 -32.5027 10.079 -33.0863ZM-95.5476 12.4732C-100.897 12.9327 -98.1863 9.04059 -95.5476 12.4732V12.4732ZM-52.9329 9.71323C-52.3272 5.71452 -46.9424 10.6334 -44.1611 11.447C-40.5592 12.5087 -37.1358 11.7301 -33.6408 12.8623C-27.4712 14.8441 -23.2278 20.4351 -17.023 21.4968C-16.4525 22.7705 -15.9888 24.0448 -15.0257 25.0354C-14.7053 25.3889 -12.0308 26.5922 -11.7098 27.1583C-9.56987 30.3434 -8.32217 33.4574 -6.4675 35.9343C-3.18732 40.3221 -1.93885 40.7117 2.73286 43.4717C6.08469 45.4535 10.0791 48.8151 9.57963 53.4859C5.79937 48.8856 1.8413 42.5515 -4.61349 43.2946C-1.58212 46.9037 2.91127 48.178 4.83691 52.7073C6.79778 57.3786 4.26642 61.9079 4.26642 65.8001C4.19482 73.0544 7.90336 83.1757 12.8956 88.5891C15.7843 91.7381 20.242 91.8796 22.8808 95.9488C25.0206 99.17 26.8394 103.275 28.8366 106.602C29.5139 107.664 28.016 108.193 29.5496 110.421C30.477 111.765 33.0442 112.969 34.2925 114.244C35.1482 115.092 39.3206 119.977 39.6416 121.818C43.5639 117.853 28.2655 103.982 27.8376 98.2859C32.1168 97.7531 37.0029 107.45 40.1405 110.813C44.1702 115.092 47.8078 120.897 51.9443 125.568C45.9537 129.601 69.7387 138.377 73.6258 138.942C74.8026 139.12 76.1219 137.67 78.2975 138.308C80.7937 139.015 81.8988 141.635 83.896 142.801C85.8932 144.04 92.4192 145.102 92.6334 144.82C96.092 147.226 97.8392 151.929 99.6581 153.665C102.297 156.071 108.288 157.911 112.032 159.539C110.998 153.168 118.023 158.973 118.308 156.85C118.879 152.676 109.5 155.292 106.897 153.592C100.621 149.418 107.325 144.747 104.116 140.113C101.37 136.185 94.3806 139.297 90.993 137.812C93.988 134.557 98.4455 124.223 91.9913 124.611C86.1427 125.003 88.9956 129.036 85.3938 131.866C82.0778 134.485 76.7281 132.786 74.1252 130.558C68.4193 125.568 68.6336 111.838 72.057 106.812C76.764 99.9492 84.2529 106.602 89.4587 104.971C88.211 100.656 93.1323 101.293 96.1989 101.504C95.9136 101.471 103.188 102.852 102.261 102.214C104.543 103.805 108.252 115.661 110.641 115.447C113.529 115.201 108.431 99.4525 112.318 95.0286C114.814 92.1621 120.055 91.4556 121.554 88.0568C122.837 85.1576 120.983 83.7413 120.163 80.1316C122.303 80.6971 121.197 78.9639 123.444 81.2626C124.264 79.4945 126.047 74.7887 127.331 73.5499C128.935 72.1342 133.072 71.8511 135.746 71.108C131.859 63.8187 146.623 58.5813 152.115 59.8555C151.366 59.714 146.801 61.4833 146.159 62.757C144.234 66.6497 149.583 63.3231 149.761 63.2876C154.325 62.757 159.461 59.2889 160.851 55.2552C157.214 56.9541 156.18 59.8555 151.722 57.5196C145.802 54.335 151.508 51.504 150.153 49.3806C146.409 43.6487 136.995 54.052 133.072 56.5289C134.106 54.6187 135.461 52.9553 137.137 51.5751C136.174 51.3625 135.176 51.0795 134.213 50.832C139.17 51.9292 142.023 45.7715 146.266 44.5683C149.084 43.7547 153.006 44.7809 155.859 44.5683C160.317 44.1438 159.853 43.6487 163.633 42.0209C167.092 40.6051 172.583 40.0746 170.944 35.6862C169.267 31.1925 163.383 34.377 159.853 34.7311C161.529 31.9001 164.953 32.5017 167.556 30.3434C163.099 29.6357 159.068 27.9369 156.537 24.0448C159.282 22.3815 151.473 14.0299 150.082 10.952C147.835 13.4289 147.835 17.427 144.234 18.2412C140.739 18.9844 141.203 15.3752 137.28 16.4014C139.741 7.97943 132.893 5.07738 126.296 3.41464C118.808 1.46828 113.815 5.25443 119.129 12.9682H117.346C116.775 14.278 117.167 15.0917 116.347 16.5074C123.372 19.4089 121.767 29.9893 113.673 29.7068C115.991 32.1832 118.059 41.4193 112.923 41.8794C107.931 42.2329 106.754 32.6077 107.218 28.9631C101.441 28.0079 97.9466 27.1583 92.9538 24.6109C90.7429 23.5136 88.1394 22.7 86.1785 21.9214C84.4313 21.1782 84.0029 22.7705 82.5051 21.8503C81.3642 21.1782 81.1857 18.6658 80.4368 17.7462C77.8691 14.596 76.5504 16.4014 77.0492 11.27C77.2276 9.14658 79.3675 5.78499 80.9005 4.22825C82.5409 2.60046 86.3921 2.14038 86.0001 -0.230545C85.7142 -1.78785 79.4385 -2.67194 78.1907 -3.13203C81.471 -2.81403 87.5695 0.229546 88.4605 -3.87517C92.3117 -1.57529 94.1306 -4.19373 95.1647 -7.41378C91.6702 -7.18373 89.0315 -8.88258 86.0359 -10.2978C88.3178 -10.2098 101.441 -7.04222 96.0562 -12.7037C101.904 -13.1463 97.9107 -3.87516 95.3072 -2.88451C97.4465 -0.619583 98.2671 -0.0534973 101.512 -0.0890198C101.334 -0.0890198 104.508 -1.57529 105.435 -1.75234C106.576 -1.92882 107.824 -0.584061 108.752 -0.726143C116.026 -1.96432 101.726 -6.95371 100.514 -9.55467C103.795 -9.67872 101.797 -9.62572 103.152 -11.3065C108.145 -11.6775 110.427 -15.8713 107.076 -19.994C113.886 -21.1437 105.471 -25.5495 103.046 -26.6642C107.218 -27.3013 111.675 -25.3369 116.098 -26.9292C115.42 -27.5483 114.743 -28.1679 114.065 -28.8226C118.701 -27.4778 121.91 -24.6823 125.975 -21.6568C127.687 -20.4006 130.861 -18.4723 130.968 -15.9243C131.111 -12.4922 124.585 -12.6332 127.509 -8.29845C125.084 -7.74984 116.454 -9.6432 116.846 -5.39697C117.239 -1.25673 123.55 -5.78656 125.155 -5.60896C130.255 -4.97238 130.647 -1.46929 133.892 1.18523C137.101 3.73264 142.201 3.37912 146.017 5.43148C146.159 2.24638 141.238 0.654106 139.42 -2.14139C142.772 -0.513596 146.123 1.14973 149.298 3.02503C149.725 2.24638 150.403 -0.301582 150.688 -1.25671C147.586 -4.19373 143.984 -6.84769 140.953 -10.8109C143.271 -14.1725 144.162 -11.8371 146.872 -10.4218C151.223 -8.13943 149.333 -6.8477 152.792 -7.78536C152.542 -7.73236 157.071 -11.342 157.036 -11.3065C158.498 -14.0135 158.747 -11.9961 156.786 -14.4555C154.825 -16.9505 135.461 -22.2759 145.125 -24.2752C144.163 -24.5408 143.199 -24.7883 142.201 -25.0364C143.021 -25.638 142.843 -25.7085 143.984 -26.1686C142.486 -26.7702 141.916 -27.9204 140.061 -28.292C140.346 -28.7696 140.632 -29.2116 140.953 -29.6892C137.387 -30.4323 135.711 -31.229 132.465 -32.0781C133.036 -32.4497 133.642 -32.8393 134.213 -33.2103C127.794 -33.3699 127.402 -36.979 122.944 -38.3767C119.521 -39.4384 112.923 -35.6348 111.461 -36.4129C109.215 -37.5806 112.032 -38.7838 110.57 -40.8717C108.074 -44.4633 108.43 -44.0032 104.366 -43.2607C98.2318 -42.1279 98.5523 -37.2446 101.655 -33.2103C95.2363 -32.3787 96.1278 -41.8979 100.728 -44.1448C95.8425 -44.3393 91.2776 -43.8087 89.3167 -38.6423C86.6774 -31.5825 91.9554 -34.7851 94.5231 -31.052C92.6685 -31.5121 91.5633 -30.7509 89.8513 -30.8219C91.4201 -28.5925 98.4807 -27.8494 101.512 -26.9292C99.658 -26.1866 98.6948 -13.8189 93.7742 -16.3489C91.5633 -17.481 93.8452 -20.9317 93.7742 -21.0022C91.8127 -23.1786 90.0298 -22.3294 89.3519 -22.7004C88.532 -23.1605 84.7876 -24.3638 83.3257 -26.5402C81.2926 -29.5127 80.7579 -37.7221 74.5531 -33.4229C68.7046 -29.3887 80.8295 -22.1169 73.9826 -23.5321C75.0168 -20.7017 77.1567 -20.8426 79.5812 -23.019C79.5096 -18.7017 73.8042 -20.1705 75.5162 -15.2167C72.6632 -17.145 73.3406 -16.3489 73.4832 -19.2503C70.8087 -19.976 72.9837 -19.3744 71.5933 -21.3912H73.2337C73.3764 -24.2048 71.4866 -25.9205 68.6694 -26.4161C67.9558 -25.7085 66.2796 -23.9042 65.638 -23.1605C66.9574 -22.6474 67.9914 -21.2852 69.3114 -20.7547C66.2795 -15.3227 60.3964 -17.7821 55.3678 -18.9323C52.087 -19.6755 51.6942 -20.9486 48.5208 -19.64C43.8491 -17.6756 46.0247 -17.375 45.3474 -12.7037C43.2791 -20.029 33.5078 -17.5696 27.5883 -18.1182C28.0877 -18.4012 28.6576 -19.6574 30.3696 -20.2416C27.4457 -22.5944 17.6033 -25.3719 14.1441 -26.0446C9.82972 -26.8587 5.62155 -22.4529 4.01637 -27.6549C2.7686 -23.4616 1.87711 -26.1156 -0.120125 -26.2216C-0.761627 -26.2571 -1.47538 -29.0701 -2.97311 -29.2471C-4.96983 -29.4777 -3.7214 -27.9909 -4.82712 -27.7789C-7.03799 -27.2833 -13.1366 -24.0102 -15.7747 -22.5059C-13.457 -25.5315 -9.67685 -25.1069 -7.43075 -27.7964C-11.7099 -27.7789 -16.7737 -25.461 -21.0528 -24.5763C-28.2565 -23.0901 -31.1445 -26.0445 -38.4903 -26.8587C-44.0178 -27.4603 -49.0817 -28.5925 -54.8234 -29.0526C-60.8855 -29.5482 -64.0236 -31.6891 -70.3 -30.9454C-70.0858 -31.4055 -69.8723 -31.8656 -69.6581 -32.3257C-73.5093 -33.0333 -78.7158 -30.5919 -82.1392 -29.5657C-86.8462 -28.168 -87.1672 -25.337 -90.4479 -23.3376C-95.1197 -20.5246 -98.4364 -23.5146 -94.6919 -18.6138C-92.3384 -15.5172 -87.2388 -15.0926 -85.5268 -11.0759C-88.2013 -10.1918 -91.09 -10.3333 -91.2326 -13.3233C-94.2634 -11.1825 -97.6868 -11.9436 -100.219 -8.93557C-96.9385 -7.60831 -96.9738 -4.93687 -94.1566 -4.22926C-90.9116 -3.41508 -86.6326 -5.60896 -83.6011 -5.89256C-83.1733 3.30807 -93.9423 -3.20306 -95.5118 4.93587C-95.9044 7.12975 -90.8048 16.3298 -87.524 10.952C-85.741 12.6502 -85.2415 14.6315 -86.0262 16.9669C-82.8164 16.3298 -79.2152 17.427 -77.6463 15.4812C-76.6475 15.4812 -75.3281 15.7643 -73.973 15.7288C-76.3622 26.2736 -88.4513 24.5398 -94.1208 30.9805C-85.9193 32.9618 -72.2967 20.5417 -65.2356 16.6134C-65.8777 15.6933 -66.484 14.7736 -67.1261 13.8535C-62.8111 12.4377 -61.2066 5.32491 -56.2137 8.54497C-59.744 8.9701 -61.7055 11.0225 -60.6713 14.3491C-58.1042 12.8273 -55.2153 11.5175 -52.1845 11.3055C-52.434 10.8099 -52.6835 10.2438 -52.9329 9.71323ZM-63.3105 20.0105V17.7462C-65.8777 19.586 -69.6222 20.081 -67.5181 23.4076C-65.8425 22.7 -64.3089 21.5323 -63.3105 20.0105Z" fill="#1CB45F"/>
</g>
</svg>
