<svg width="241" height="241" viewBox="0 0 241 241" fill="none" xmlns="http://www.w3.org/2000/svg">
<path d="M205.69 204.655C252.507 157.837 252.507 81.9306 205.69 35.1129C158.872 -11.7048 82.9655 -11.7048 36.1479 35.1129C-10.6698 81.9306 -10.6698 157.837 36.1479 204.655C82.9656 251.472 158.872 251.472 205.69 204.655Z" fill="#73D4FF"/>
<mask id="mask0_8260_7683" style="mask-type:luminance" maskUnits="userSpaceOnUse" x="1" y="0" width="240" height="240">
<path d="M205.69 204.655C252.507 157.837 252.507 81.9306 205.69 35.1129C158.872 -11.7048 82.9655 -11.7048 36.1479 35.1129C-10.6698 81.9306 -10.6698 157.837 36.1479 204.655C82.9656 251.472 158.872 251.472 205.69 204.655Z" fill="white"/>
</mask>
<g mask="url(#mask0_8260_7683)">
<path d="M-214.308 65.8531C-213.139 72.6208 -208.247 61.8189 -214.308 65.8531V65.8531ZM-219.226 66.2514C-217.578 66.2514 -216.674 65.2695 -216.94 63.9954C-217.498 64.261 -221.991 66.2514 -219.226 66.2514ZM-209.39 33.2359C-208.114 32.6388 -207.343 31.8691 -205.802 31.7097C-208.088 29.5733 -211.198 29.9717 -214.122 30.0114C-214.096 32.8379 -212.182 33.9793 -209.39 33.2359ZM76.246 178.329C75.1845 179.682 75.9275 187.167 78.7451 184.593C80.3402 183.185 76.7797 178.886 76.246 178.329ZM192.707 274.217C193.398 276.445 195.181 279.1 197.28 279.684C197.441 279.233 197.441 278.782 197.28 278.383H198.848C198.929 276.499 199.461 276.1 199.461 274.322C198.026 274.722 192.549 273.208 192.707 274.217C192.789 274.535 192.682 274.11 192.707 274.217ZM198.557 271.51C198.557 272.466 199.406 273.129 200.179 273.26C200.152 271.828 199.567 271.51 198.557 271.51C198.69 271.51 198.557 271.615 198.557 271.51ZM191.672 271.031C190.635 271.537 191.299 272.358 192.043 272.624C192.097 272.466 192.282 270.792 191.672 271.031C191.779 270.979 191.512 271.086 191.672 271.031ZM236.941 286.506C239.998 286.506 240.717 280.799 244.414 280.054C242.791 276.657 248.932 277.189 244.52 274.507C241.011 272.412 242.418 275.994 240.344 278.277C238.512 280.32 235.055 280.826 233.727 283.187C232.716 285.019 233.035 287.009 236.941 286.506C237.023 286.506 236.811 286.506 236.941 286.506ZM234.576 287.432C234.257 287.672 234.151 287.832 233.912 288.15H235.428C235.507 287.645 235.373 286.848 234.576 287.432C234.709 287.327 234.443 287.538 234.576 287.432ZM246.591 266.36C246.591 267.289 246.673 269.705 246.673 269.917C246.673 269.705 245.184 269.811 245.157 270.925C245.157 272.358 246.246 270.819 246.485 271.722C246.433 271.615 248.028 275.119 248.932 274.853C249.278 274.746 250.182 273.048 250.74 272.518C253.557 269.863 255.498 266.68 249.809 267.689C249.782 266.148 249.145 263.759 248.081 266.096C246.913 265.351 246.752 262.938 245.396 261.585C242.87 259.036 246.591 265.406 246.591 266.36ZM227.877 232.894C229.314 235.098 230.563 236.903 233.62 237.221C233.381 235.892 229.102 232.84 227.877 232.894ZM166.923 216.094C164.53 216.52 168.145 217.023 168.995 216.944V216.2C168.436 216.148 166.204 216.148 166.923 216.094ZM188.27 217.051C185.45 220.526 189.252 229.046 182.978 227.348C183.005 227.348 177.237 223.66 177.131 223.366C176.039 221.004 178.274 219.757 178.99 217.898C175.8 217.474 172.691 215.855 169.634 215.855C170.244 216.387 170.165 216.784 171.256 217.423C170.696 217.078 167.481 219.227 166.629 219.757C164.078 221.377 168.039 221.695 163.784 222.518C162.377 222.782 161.737 220.82 159.453 221.667C157.564 222.358 157.325 224.88 155.171 224.88C155.493 225.57 155.572 226.684 155.944 227.348H154.295V226.073C151.796 225.94 150.947 231.247 148.102 232.603C145.949 233.636 142.625 233.957 140.26 234.884C139.222 235.256 138.531 238.653 137.309 235.813C136.272 238.971 136.032 240.83 137.788 243.934C134.012 242.235 138.107 248.048 138.877 250.119C140.472 254.312 142.013 257.046 138.825 259.78C141.003 259.78 142.28 262.193 145.07 261.742C146.665 261.53 147.462 259.62 149.245 259.248C150.653 258.878 152.142 260.256 153.339 259.938C154.613 259.566 154.641 258.557 155.705 258.133C156.715 257.736 157.831 256.595 158.974 256.117C159.772 255.772 160.464 256.94 161.419 256.595C164.797 255.32 168.624 253.356 172.585 255.426C174.95 256.701 177.237 265.723 179.763 257.603C181.571 258.212 179.682 259.459 179.948 261C182.18 259.671 181.331 261.53 181.17 263.547C184.84 262.856 183.19 266.069 185.901 268.273C186.223 268.536 189.571 269.572 190.235 269.599C192.097 269.651 191.512 267.767 192.682 267.713C193.85 267.689 193.877 269.917 194.648 269.757C198.423 268.961 202.384 267.528 203.767 264.025C204.671 261.742 204.883 259.381 206.317 256.94C209.189 252.057 209.72 246.934 207.063 241.678C206.478 240.458 205.708 240.085 204.804 239.131C204.192 238.468 204.192 237.272 203.767 236.77C203.634 236.636 201.692 236.079 201.213 235.628C200.604 235.044 200.656 233.636 199.991 232.973C199.088 232.125 196.855 231.487 196.164 230.639C194.463 228.54 193.984 224.429 192.707 222.412C192.31 221.774 191.139 221.295 190.529 220.341C189.81 219.173 190.183 216.306 188.455 215.882C188.349 216.281 188.294 216.651 188.27 217.051ZM220.034 213.36C220.568 214.183 221.153 213.92 221.845 213.653C221.499 212.724 219.477 212.167 220.034 213.36C220.116 213.493 219.983 213.281 220.034 213.36ZM210.784 207.017C210.784 207.813 212.619 208.824 213.123 208.715C212.671 207.549 211.315 206.832 211.315 205.717C211.076 205.69 210.811 205.717 210.572 205.797C210.733 206.353 210.784 206.487 210.784 207.017ZM199.885 205.902C200.097 208.319 207.036 207.125 206.399 203.356C206.054 203.408 199.885 206.805 199.885 205.902C199.912 206.196 199.885 205.745 199.885 205.902ZM168.224 210.628C168.224 210.998 170.935 211.425 169.634 208.824C168.518 208.982 168.039 209.593 168.224 210.628ZM158.495 209.487C158.68 210.468 159.718 210.256 160.569 209.884C159.851 209.248 159.478 209.699 158.495 209.487ZM174.471 205.717C173.861 206.115 173.328 207.017 173.328 207.813C173.328 209.354 176.891 204.098 174.471 205.717ZM171.814 202.693C173.54 201.921 175.721 203.435 177.395 204.204C178.805 204.867 180.188 204.47 181.17 206.196C182.499 208.503 180.985 207.894 181.277 209.221C181.358 209.566 179.417 209.511 180.24 211.052C180.612 211.77 182.793 210.15 183.536 210.335C185.901 210.998 186.832 213.123 189.783 212.221C191.591 211.688 191.512 209.087 194.49 210.15C195.657 210.574 195.924 212.006 196.962 212.59C198.954 213.759 197.971 213.387 200.683 214.026C204.777 214.952 203.421 215.246 201.401 212.433C201.107 212.006 199.115 212.245 198.769 211.954C198.954 212.112 197.653 208.664 197.917 209.539C197.838 209.248 195.366 207.443 198.557 207.734C197.944 206.593 195.021 204.47 193.559 203.647C190.793 202.054 188.64 201.524 185.556 200.595C181.198 199.19 181.437 200.038 177.98 200.595C175.827 200.967 173.489 199.932 170.484 200.701C170.805 201.869 171.256 202.984 171.814 202.693C171.921 202.666 171.733 202.745 171.814 202.693ZM156.794 198.633C155.147 199.002 158.283 199.402 158.868 199.296C158.868 198.206 157.698 198.472 156.794 198.633ZM176.36 197.198C176.467 198.049 176.597 198.233 176.546 199.214H178.432C178.141 198.312 177.635 198.739 177.635 197.198H176.36C176.837 197.146 176.385 197.331 176.36 197.198ZM168.412 197.304C167.96 197.252 167.56 197.358 167.187 197.703C169.155 198.845 171.281 200.489 173.886 199.296C171.708 195.287 170.405 198.073 168.412 197.304ZM167.96 196.668C163.52 195.817 170.538 194.067 167.96 196.668C167.799 196.64 168.251 196.35 167.96 196.668ZM166.046 199.002C166.735 199.32 167.029 201.073 167.32 198.845C166.365 199.002 166.259 199.084 166.046 199.002ZM162.668 201.179C162.668 201.869 166.629 202.505 167.772 202.505C167.532 200.383 163.014 200.967 162.668 201.179ZM161.155 201.446C160.649 201.339 160.145 201.206 159.611 201.1C160.515 203.302 161.552 201.685 161.155 201.446C161.285 201.524 160.915 201.339 161.155 201.446ZM163.493 191.2C162.137 193.059 161.179 193.323 161.285 195.977C161.473 199.72 162.404 195.181 164.637 195.527C164.77 194.279 164.13 193.192 163.014 193.271C163.281 192.526 163.493 191.944 163.493 191.2C163.493 191.387 163.308 191.466 163.493 191.2ZM145.736 201.285C145.736 201.285 147.675 203.728 147.438 203.462C147.356 203.356 147.729 205.639 147.808 205.902C149.164 205 148.845 202.293 148.845 200.807H149.989C150.122 201.419 152.169 205.984 152.967 205.612C154.401 204.976 151.744 199.959 150.92 198.896C159.666 198.896 145.736 193.8 145.736 201.285ZM156.688 193.271C155.226 193.8 146.853 192.687 147.25 196.19C149.989 194.915 150.735 195.181 153.658 194.597C154.562 194.385 154.853 195.42 155.944 194.969C156.527 194.703 158.734 192.42 156.688 193.271C157.06 193.11 156.581 193.323 156.688 193.271ZM154.719 213.547C154.719 215.192 161.1 212.061 161.792 211.37C159.293 210.123 155.147 212.803 154.719 213.547ZM153.949 215.14C153.179 215.246 152.994 215.537 153.391 216.094H154.507C154.613 215.618 154.589 214.928 153.949 215.14C154.082 215.085 153.683 215.246 153.949 215.14ZM147.996 211.292C149.643 212.936 154.801 211.582 156.688 210.786C155.171 210.523 148.712 210.523 147.996 211.292ZM147.332 212.512C144.963 213.229 149.297 214.395 150.067 214.343C149.749 213.971 148.154 212.352 147.332 212.512C147.438 212.485 147.038 212.59 147.332 212.512ZM142.598 210.892C141.242 210.998 146.001 211.292 146.959 211.292C146.665 211.37 146.613 211.21 146.771 210.786C145.203 210.786 144.087 210.628 142.598 210.892C142.892 210.865 142.358 210.919 142.598 210.892ZM122.103 207.707C124.256 209.406 127.313 209.911 131.007 210.283C133.934 210.601 137.576 212.112 140.712 211.661C139.835 209.911 138 209.433 136.005 209.832C136.138 208.503 137.096 209.142 138.079 208.557C132.684 207.656 127.711 207.549 122.103 207.707ZM116.335 204.976C115.935 205.851 116.202 206.275 116.335 204.976V204.976ZM129.758 192.129C127.259 193.879 128.83 197.04 130.237 198.896C132.284 201.685 133.136 201.391 137.042 202.03C140.978 202.717 139.729 203.728 141.961 200.437C142.067 200.277 142.465 197.676 142.892 196.934C143.474 195.977 145.63 195.554 146.295 194.119C143.796 192.502 144.487 192.075 143.929 188.493C145.843 188.599 145.257 187.324 147.144 186.661C147.304 187.113 142.598 183.397 142.998 183.346C141.509 183.452 140.418 185.998 139.25 187.034C136.645 189.344 132.099 193.879 129.758 192.129ZM109.821 197.703C109.927 198.951 112.001 202.03 113.224 202.293C112.959 200.595 109.821 197.836 109.821 197.703C109.848 197.994 109.821 197.516 109.821 197.703ZM106.791 193.537C107.27 194.439 108.174 194.703 108.599 195.632C108.599 194.491 108.28 193.668 107.082 193.165C106.737 194.067 107.058 193.616 106.791 193.537ZM105.381 191.067C105.381 190.776 104.798 189.98 104.798 190.828C104.798 191.599 105.275 191.944 105.939 192.051C106.178 191.572 105.993 191.254 105.381 191.067ZM106.045 186.743C104.984 186.743 104.398 185.68 103.388 185.814C103.84 188.015 107.322 190.192 108.492 191.678C110.327 193.934 111.841 197.276 113.781 199.798C115.113 201.47 118.248 206.063 120.029 206.09C123.965 206.196 121.73 202.4 124.842 201.446C124.496 199.002 122.236 198.1 120.296 199.48C120.083 196.695 109.769 187.167 106.045 186.743C106.473 186.795 105.887 186.743 106.045 186.743ZM154.908 180.212C152.86 180.424 151.077 181.805 152.169 184.088C153.816 180.106 156.236 184.672 158.868 185.814C157.937 183.821 159.611 183.397 159.638 183.346C159.693 182.974 160.464 178.141 158.787 178.141C157.085 178.141 156.794 181.487 154.908 180.212C155.041 180.318 154.613 180.267 154.908 180.212ZM149.324 171.456C149.27 172.144 151.45 177.506 153.018 177.215C152.22 178.965 155.041 180.161 154.349 176.737C154.028 175.277 150.92 171.72 149.324 171.456C149.43 171.508 149.297 171.72 149.324 171.456ZM152.063 171.19C154.428 172.834 155.996 175.992 158.549 176.497C158.549 173.606 155.863 172.94 155.863 170.366C154.322 170.366 153.552 171.19 152.063 171.19C152.354 171.402 152.354 171.19 152.063 171.19ZM148.472 172.888C147.065 175.595 143.45 178.302 142.704 180.53C145.843 180.53 148.472 175.992 148.472 172.888C148.472 173.206 148.421 173.021 148.472 172.888ZM149.937 161.822C147.144 163.333 147.835 169.013 151.026 170.021C150.892 168.216 154.932 161.822 149.937 161.822ZM151.769 149.905C151.769 149.003 148.02 152.055 148.579 155.531H149.697C149.697 153.196 151.769 152.055 151.769 149.905ZM199.991 107.68C198.105 108.025 196.883 109.564 194.408 109.75C191.697 109.962 190.448 109.432 187.603 107.839C187.497 108.688 186.381 115.138 185.237 112.775C184.734 113.651 183.033 117.738 185.795 116.438V117.394C184.121 117.685 183.324 123.046 181.465 125.144C181.465 124.56 181.516 124.24 181.465 123.631C180.373 124.693 180.054 125.063 179.575 126.443C179.151 125.859 178.459 126.867 178.726 125.223C177.501 126.098 177.049 127.294 176.864 129.098C173.088 127.452 166.046 130.582 165.379 134.724C166.098 134.775 167.108 134.724 167.56 134.724C167.56 136.556 165.54 137.377 168.33 138.173C168.33 136.238 171.442 133.449 168.33 133.186C168.995 131.221 173.701 131.221 175.694 130.876C173.54 132.229 170.086 130.927 170.884 134.564C172.636 133.822 174.313 133.026 175.509 131.911C176.385 133.928 178.805 132.363 178.432 130.609C185.901 129.762 184.494 129.389 186.275 123.152C187.257 119.702 188.428 116.995 185.159 114.288C187.366 113.863 191.06 115.933 190.927 113.519C192.549 113.863 199.991 109.75 199.991 107.68C199.991 107.786 199.858 107.68 199.991 107.68ZM203.5 105.875C202.702 106.008 202.305 106.565 201.587 106.937C202.757 107.627 203.076 106.884 203.5 105.875C203.367 105.902 203.342 106.247 203.5 105.875ZM212.753 95.7897C212.54 96.5593 212.061 97.2761 211.609 97.9662C213.15 97.329 212.726 96.1086 212.753 95.7897ZM235.346 85.864C235.161 85.864 234.816 84.9087 234.312 85.3066C234.206 85.6521 234.179 86.0234 234.206 86.3951C234.524 86.4746 235.719 86.607 235.346 85.864ZM232.796 86.1562C232.423 85.0948 232.529 84.4308 231.546 83.6879C231.546 84.6964 231.759 85.5722 231.837 86.5541C232.505 86.7402 232.981 86.7664 232.796 86.1562C232.85 86.2885 232.741 86.0234 232.796 86.1562ZM227.852 75.9116C228.568 75.9116 229.047 75.0625 229.102 74.558C227.452 73.9215 227.294 74.9301 226.654 75.9116C227.055 75.9915 227.452 75.9915 227.852 75.9116ZM271.529 62.7746C273.121 63.0401 275.329 63.7303 276.924 63.5175C275.569 60.864 272.645 62.9073 271.529 62.7746C271.82 62.8012 271.368 62.7217 271.529 62.7746ZM254.807 39.6323C256.853 40.0966 259.38 39.1811 261.506 39.1811C260.948 38.3184 259.219 37.1107 257.785 37.1902C257.278 37.2037 253.212 39.2339 254.807 39.6323C254.913 39.6585 254.622 39.5921 254.807 39.6323ZM195.739 25.208C197.599 25.9374 203.74 28.1668 203.74 24.7166C201.107 24.5842 197.095 24.9555 196.004 23.1245C195.818 23.3101 195.154 24.9555 195.739 25.208C195.846 25.2342 195.579 25.1149 195.739 25.208ZM184.388 31.2454C186.674 31.6035 188.721 31.1261 190.899 31.8958C190.156 28.6844 186.593 29.5069 184.388 31.2454ZM186.275 28.8701C187.524 28.8701 185.213 27.8087 184.494 27.8353C184.494 28.9762 185.264 28.8701 186.275 28.8701ZM179.202 24.6236C181.249 27.6095 192.789 26.8001 193.559 23.0314C191.724 22.6864 189.41 21.5848 189.41 24.5842C189.013 24.5174 188.64 24.5174 188.27 24.5842C190.262 20.4172 185.901 22.7925 184.44 22.7528C181.516 22.6602 180.773 21.2397 179.202 24.6236ZM177.21 23.8675C177.049 23.5224 177.049 23.1245 177.21 22.7397C175.111 22.4475 176.173 24.6502 177.21 23.8675C177.183 23.7478 177.025 24.0134 177.21 23.8675ZM176.173 27.9279C176.812 29.4672 176.731 30.3958 178.62 30.1442C178.114 29.4541 176.864 28.3922 176.173 27.9279ZM125.879 14.061C125.345 13.066 123.75 12.8135 122.688 13.318C122.953 13.6233 126.331 15.2023 125.879 14.061C125.93 14.1938 125.797 13.9016 125.879 14.061ZM103.867 18.4931C104.504 18.2809 105.223 18.4931 105.86 18.4931C105.621 16.1179 104.611 17.9887 103.867 18.4931ZM112.08 15.0962C112.453 15.0962 121.412 13.1852 121.624 12.9332C123.831 10.0403 117.212 10.3321 116.708 10.1067C117.16 9.64194 117.345 9.62882 117.478 9.05836C113.569 8.38134 111.656 15.0962 112.08 15.0962ZM106.045 5.76713C99.4551 6.72283 100.383 10.4251 106.445 10.9825C111.043 11.4201 111.364 11.5267 111.125 8.77969C110.831 5.05077 111.097 6.89536 107.641 6.89536C108.013 6.27162 107.986 6.41751 108.12 5.78066C107.404 5.76713 106.737 5.75444 106.045 5.76713ZM100.359 6.13925C102.988 7.5322 106.685 3.88321 108.201 2.92752C104.771 1.28211 100.065 1.09646 97.3262 4.71881C97.4868 5.02413 99.719 5.83351 100.359 6.13925C100.489 6.21875 100.277 6.07244 100.359 6.13925ZM99.6126 6.98839C98.3636 6.98839 97.4597 6.27162 96.1585 6.51055C96.3164 10.3456 101.342 6.98839 99.6126 6.98839ZM95.731 0.844434C92.8893 0.844434 95.094 2.02553 94.8817 2.35706C94.3239 3.2857 98.5511 0.844434 95.731 0.844434ZM21.9914 45.0992C20.3416 44.8205 17.6033 42.8833 18.8011 46.7979C19.8625 46.7979 21.8037 46.2536 21.9914 45.0992C21.9643 45.2184 21.8851 45.0861 21.9914 45.0992ZM29.2729 31.4314C27.599 31.272 24.1448 35.6378 24.1448 37.9336C25.1275 37.7344 25.7917 37.1107 26.3495 38.3049C26.6952 38.1459 26.8286 37.8934 26.7227 37.5623C28.8757 38.6499 27.3865 39.8708 28.5572 40.3884C30.0706 41.0519 32.997 40.8129 34.671 40.8129C34.4588 38.5171 31.9054 37.7877 31.7474 35.6644C31.5323 33.0371 33.74 31.5109 35.3351 29.9053C39.1108 26.1497 42.6442 24.0798 48.1756 22.7397C49.7953 22.3417 56.6551 20.9213 55.9363 19.1566C54.8748 16.5691 50.914 19.4751 49.5039 19.8996C46.0739 21.0012 34.671 21.293 34.671 25.4731C33.9526 25.3801 33.3155 25.3539 32.5967 25.4731C34.3524 28.4853 28.1569 28.3791 28.7152 30.3958C29.3548 30.2635 29.5399 30.0245 30.2312 30.104C29.8855 30.9933 30.8164 31.5507 29.2729 31.4314C29.5673 31.4581 29.0091 31.4048 29.2729 31.4314ZM57.7195 32.2806C59.2057 32.2806 60.0305 31.3515 60.4304 31.1392C61.2279 30.7147 55.3509 32.2806 57.7195 32.2806ZM44.2149 2.35706C46.3408 5.55485 47.7753 2.51607 50.1681 2.07839C47.963 0.830908 46.2865 3.04719 44.2149 2.35706ZM39.5874 2.35706C39.5874 3.45823 38.8169 3.1398 38.2591 4.05575C39.9085 4.58646 41.6616 4.62621 43.5507 4.29425C41.9801 2.31731 42.1407 0.870653 39.5874 2.35706ZM38.9232 5.76713C38.4196 5.91302 37.9405 6.04622 37.4098 6.04622C37.6737 7.34656 38.5255 6.61669 39.5874 6.41752C39.481 5.89992 39.5628 5.60813 38.9232 5.76713C39.0566 5.74091 38.7652 5.8073 38.9232 5.76713ZM32.3057 5.19668C33.1821 5.9532 33.3156 7.12076 34.671 5.38232C34.671 7.49246 37.4097 5.5151 37.7795 5.19668C37.807 4.93153 37.7795 4.69217 37.6736 4.44056C35.9993 4.12214 33.3426 4.86514 32.3057 5.19668ZM26.9073 5.38232C28.4753 3.79019 31.7992 3.10005 34.1919 3.67093C33.6341 0.273551 37.3034 4.86513 37.7795 1.70667C36.9578 1.70667 36.239 1.83946 35.4144 1.70667C35.7328 1.24236 36.3454 0.154302 36.5576 -0.0846233C35.2564 -0.0846233 34.4041 0.737872 33.7129 0.950579C34.1649 0.804687 31.4264 1.53414 31.1621 1.70667C30.4709 2.13124 30.231 3.08695 29.2729 3.77666C27.9446 4.73236 27.3076 3.98894 26.9073 5.38232ZM19.359 2.83449C16.5664 2.83449 15.8747 3.81683 13.2181 3.29923C13.3515 5.32946 16.8331 3.96272 18.4283 3.96272C15.1317 6.35112 20.6877 6.94821 22.3099 4.81184C24.9149 1.32185 22.4434 2.83449 19.359 2.83449ZM-34.7923 6.04622C-34.1799 7.5986 -30.7498 5.51509 -30.0856 7.26664C-31.0166 7.21378 -31.9747 7.30639 -32.9303 7.26664C-31.2017 12.0574 -21.7666 7.78425 -19.5861 6.51055C-21.7124 4.1619 -24.6901 6.11261 -26.5768 5.55484C-26.2311 4.8516 -25.7521 4.98438 -25.9126 4.14836C-28.1448 5.02413 -27.5624 4.26804 -28.8632 6.51055C-29.6882 4.36065 -35.775 3.86968 -34.7923 6.04622C-34.7377 6.21875 -34.8982 5.83351 -34.7923 6.04622ZM-38.5921 13.2118C-38.5921 13.729 -43.6445 13.4241 -44.254 15.481C-43.032 15.2154 -39.2047 14.3397 -38.6985 15.0031C-39.4716 15.5072 -43.5903 16.1711 -43.6445 16.5158C-43.7508 17.153 -40.0539 18.9444 -39.2563 20.0058C-36.8119 18.1616 -34.4738 14.5786 -34.4738 12.0308C-33.755 11.9246 -32.4784 11.898 -31.7867 12.0308C-32.1057 14.3261 -31.5227 12.6943 -30.5375 14.0212C-29.8217 14.99 -31.308 15.8125 -31.308 16.8076C-28.7027 15.1888 -28.4388 17.3387 -27.4286 17.1797C-26.3917 17.0203 -24.5297 15.9056 -23.4682 15.6666C-24.6115 14.154 -25.7792 15.892 -25.7792 13.6897C-26.8953 13.8356 -34.4191 9.36368 -34.6313 8.67355C-34.9503 8.81944 -35.5352 8.99197 -36.1476 8.67355C-35.908 8.1162 -35.5899 7.75802 -35.4565 7.17403C-38.3008 5.83352 -38.3799 7.38631 -39.7082 7.75802C-39.0712 7.57196 -40.721 9.35015 -40.9061 9.40301C-40.4812 9.25712 -41.6249 7.16049 -41.81 7.10764C-41.5432 7.18714 -44.9727 8.43463 -44.9185 8.39445C-44.5483 7.81089 -44.3878 7.18715 -44.0689 6.69619C-45.7433 7.05478 -52.788 8.73994 -47.1804 9.52269C-47.1804 10.239 -47.047 12.0439 -47.2868 12.641C-48.3211 12.1234 -48.1902 11.2214 -49.4643 10.9423C-48.9607 11.9513 -46.9411 15.2687 -46.9411 12.2697C-45.7433 12.3758 -45.6646 14.154 -43.9902 13.5831C-43.326 13.3709 -42.9532 12.15 -42.3132 12.084C-42.2344 12.0705 -38.7802 11.7521 -38.5921 13.2118C-38.5921 13.2782 -38.6467 12.8799 -38.5921 13.2118ZM195.26 74.2928C199.991 74.2928 200.789 72.2757 204.058 72.9659C205.866 73.3109 203.712 74.558 205.574 75.0358C208.258 75.6731 207.382 73.0187 209.72 74.824C209.908 73.5765 210.733 74.558 211.794 74.4522C211.209 72.0901 210.305 74.1867 211.236 71.7184C211.637 70.6303 214.108 68.1886 214.957 67.7112C218.014 66.0125 220.595 66.676 220.595 70.1262C224.713 69.3566 225.751 63.7565 229.66 64.5261C227.055 66.6494 226.151 69.9935 223.252 72.3823C219.582 75.4075 214.93 77.0796 213.629 81.0339C212.698 83.9268 212.777 87.9872 213.338 90.6412C214.108 94.2775 213.708 94.8611 216.419 93.4279C219.318 91.9153 219.558 85.3599 224.104 86.5275C222.879 84.2186 223.81 81.0872 226.442 82.7592C225.593 80.8749 226.309 79.1229 226.069 77.9554C225.911 77.3714 224.82 77.7959 224.368 77.9554C224.45 77.0263 225.963 73.3904 226.548 72.8597C228.116 71.4266 228.304 72.2491 230.269 71.7983C231.334 71.586 230.934 72.5409 231.652 72.488C232.635 72.4085 232.902 70.8164 233.727 70.7631C234.736 70.7365 235.692 71.0815 236.729 70.9487C239.094 70.6836 237.156 72.3823 239.016 72.7536C239.016 68.2685 249.703 65.5084 252.733 64.6322C255.471 63.8626 255.762 67.0477 254.807 62.934C253.955 59.2715 252.068 60.7308 249.703 59.1653C248.347 58.1568 255.31 58.3957 255.286 58.4219C257.305 57.6125 257.942 56.5113 256.987 54.4545C258.394 54.3614 258.607 55.8212 259.059 55.8741C259.325 55.9007 262.276 56.4314 262.649 56.6175C264.563 57.5199 264.084 58.1035 266.531 58.6875C269.879 59.537 267.301 59.2715 269.082 58.5813C270.543 58.0506 269.373 56.6175 270.225 55.8741C270.968 55.1975 276.072 57.3474 274 53.6848C273.255 52.3845 267.993 51.4817 266.716 51.9997C267.887 52.7955 268.178 54.6799 266.237 53.3136C265.546 52.8222 266.531 50.9378 265.627 50.1949C265.148 49.81 264.244 50.1285 263.844 49.7834C263.128 49.1732 261.106 48.0052 260.39 47.6073C258.422 46.559 257.172 45.8422 255.098 44.8336C250.846 42.7637 241.675 41.1715 238.936 43.9714C243.695 45.8955 231.467 47.6204 237.978 43.4009C236.013 41.9276 234.364 43.9447 232.398 44.2234C230.005 44.5418 225.805 44.8336 223.704 43.7857C223.652 44.4619 223.625 45.2582 223.704 45.9619C220.701 42.6309 220.859 38.7827 214.639 39.1544C212.325 39.3003 210.093 40.0302 207.727 39.5523C204.671 38.9155 204.085 37.3762 201.401 37.0844C201.959 36.3943 200.95 36.6595 202.333 35.9562C198.317 33.7006 193.692 39.3798 195.445 34.7354C193.453 34.7354 191.433 33.6338 189.331 33.594C185.344 33.5145 186.275 34.1518 182.605 34.7354C182.605 36.3677 184.494 36.2746 184.494 38.0266C182.951 37.6549 181.571 37.4156 180.054 37.3229C180.4 37.8139 181.331 38.5438 180.985 39.3532C179.178 39.0081 178.832 37.6151 177.131 37.2967C177.21 37.2967 172.636 37.2434 172.397 37.3229C169.925 37.9733 170.353 40.3884 168.436 40.3884C168.491 40.3884 164.903 37.2967 164.637 36.6197C164.318 35.7968 165.673 33.1297 164.637 31.8958C163.014 29.9848 161.686 32.0548 160.012 31.6171C156.263 30.6352 155.093 28.0873 155.093 33.2359C152.169 33.2625 150.519 33.5412 147.89 32.4662C146.932 32.0683 146.373 30.7942 145.176 30.4889C142.892 29.9053 138.798 30.9933 136.326 30.9933V29.5336C135.447 29.8122 134.04 30.688 133.242 29.9053C133.454 29.8786 137.467 27.941 135.608 27.4632C133.506 26.9063 132.339 30.1971 129.573 29.7327C129.973 32.2011 125.824 31.9884 123.592 31.9884C125.985 31.763 136.511 25.3666 136.751 24.0662C137.761 18.387 126.995 18.878 124.548 19.807C125.027 19.223 125.399 19.1038 125.399 18.2145C123.989 18.3604 122.634 17.9227 121.251 17.9227C121.466 17.4715 122.607 16.0916 122.873 15.8658C117.397 15.4408 117.184 17.3256 113.781 19.0636C114.233 19.6345 114.127 19.4751 114.26 20.0857C110.512 19.2095 110.221 21.7573 107.082 22.1024C105.939 22.2085 103.867 20.8418 102.166 21.041C101.848 21.0807 98.3361 23.2171 96.7685 23.6019C95.2004 23.9605 93.8991 24.1457 91.9829 24.8096C91.373 25.0485 88.0491 26.2161 87.7035 26.7599C86.1355 29.0824 90.6025 27.5169 87.837 29.5336C84.8073 31.7499 79.1454 28.8967 76.0609 31.6171C76.8856 33.5678 82.3603 36.7525 79.2788 36.9914C78.3994 37.0578 77.2557 35.3857 76.7251 35.2132C74.3598 34.3772 72.7372 34.3108 70.399 34.8149C71.2754 35.2399 72.3915 35.1468 72.3915 36.4205C65.3467 35.9697 73.5352 37.5885 73.2162 39.8175C72.073 38.0528 69.0432 39.2073 67.6607 37.4693C67.1812 36.8717 67.7394 33.8727 67.1812 32.7449C66.9419 32.931 66.7025 32.9973 66.4112 32.931C66.4112 36.4205 64.337 35.014 63.9668 37.0844C63.9668 37.0976 64.5491 42.8698 64.6825 43.0821C66.7025 46.3729 66.1444 43.4009 68.6159 44.3562C71.6757 45.5635 71.5152 47.1561 71.5152 49.1596C71.5152 49.8764 73.908 50.2477 74.2807 50.301C70.3445 52.8886 71.142 43.1087 65.7987 47.4478C65.7987 47.4478 65.9863 50.0358 65.5861 50.6727C64.8431 51.88 64.0455 52.3312 63.0082 52.8886C60.1364 54.5073 60.191 53.8443 56.5216 53.5918C57.3192 52.4242 60.2974 52.623 61.8108 51.3362C63.1938 50.1154 64.1518 48.7351 64.1518 46.7446C61.9712 46.9303 61.2008 38.3184 61.4131 35.9033H62.6355C63.2751 32.7449 58.0893 31.9486 55.8304 33.6338C55.539 33.8727 51.9484 39.6454 51.8696 39.9105C52.4821 38.1987 52.5091 44.0111 51.9754 42.9628C52.4549 43.9714 53.3855 43.7193 54.0501 45.0992C54.4745 46.0016 56.4942 45.9619 56.1244 47.3684C55.4844 49.8367 53.0128 46.4659 52.9065 46.4262C50.141 45.6828 48.0151 44.6746 45.3581 43.7857C43.9755 43.321 38.9774 40.733 38.1798 40.8662C34.6981 41.3969 44.7456 45.391 38.0193 48.0318C38.0193 42.7768 27.0683 51.8403 29.0878 45.8688C26.1915 47.5675 22.8953 47.6339 19.9688 49.5846C19.4652 49.9293 13.1638 55.6884 13.5907 49.8764C18.3737 50.0358 12.7931 46.8245 10.0823 46.8245C11.2772 48.0052 12.129 54.0033 10.9315 54.7332C11.2255 54.5737 8.11395 53.8574 7.23758 54.0299C6.5459 54.1627 4.63269 56.3257 3.27682 56.4314C3.64703 56.9757 4.68393 58.5813 4.60513 59.3776C2.66434 58.369 0.377472 59.3243 -1.24478 57.281C-5.15091 59.3776 0.723633 59.6432 0.723633 60.864C0.723633 61.8188 -2.22739 61.3681 -2.46671 61.2353C-5.39062 59.8554 -3.9285 60.2001 -5.22971 58.0506C-6.32126 56.1794 -8.65979 53.8176 -10.4155 51.5218C-8.84744 51.8136 7.71371 58.369 5.74835 50.6727C5.26929 48.8281 0.77774 47.1163 -0.950836 46.479C-3.66211 45.4709 -7.70422 46.2008 -8.89911 45.4709C-7.51657 42.578 -13.0996 43.5071 -14.3763 42.3256C-12.2504 42.3256 -13.339 41.3441 -14.4279 40.7732C-17.1663 39.3269 -16.0502 41.1445 -17.991 41.1445C-17.7787 40.733 -17.5119 39.738 -17.406 39.3003C-18.0185 39.1544 -19.4256 39.1544 -20.011 39.3003C-19.9593 40.2556 -20.1444 40.7732 -20.011 41.6223C-20.49 40.4412 -20.9144 40.667 -21.8459 39.8175C-22.1915 41.8879 -23.1226 42.7637 -23.1226 40.1101C-22.8011 39.9638 -22.0852 40.0966 -21.7667 40.0966V38.8757C-22.5643 38.995 -27.6928 41.7289 -25.8333 39.7249C-29.7946 39.327 -29.4486 41.4764 -27.3473 42.6444C-28.4905 42.1932 -30.0063 42.578 -31.2017 42.1801C-31.2017 43.2681 -31.0167 43.5599 -31.7867 44.1701C-31.7867 42.8165 -33.755 41.5826 -35.0833 41.7154C-34.5526 43.5997 -36.3328 46.5192 -36.6784 43.7857C-38.9924 46.0942 -36.8394 44.4488 -37.637 46.904C-39.5778 46.1209 -39.1258 46.6651 -39.7082 44.7279C-40.5058 45.0062 -40.9577 45.8557 -42.1827 46.4262C-41.8371 47.0499 -41.8887 46.7577 -41.8887 47.3684C-43.6715 47.3684 -44.7335 48.2044 -45.6645 49.4383C-43.6962 48.815 -40.7999 46.9835 -38.6985 48.0318C-41.4911 48.6687 -45.6099 53.4062 -46.1436 56.8162C-47.0746 56.8962 -48.4817 57.8117 -49.2792 58.5813H-47.7632C-47.9779 60.439 -52.2845 62.2967 -53.6128 62.0049C-53.6128 62.7746 -53.7462 62.4561 -53.4251 63.4114C-58.5562 64.4732 -59.1959 67.4456 -60.2307 71.161C-55.9785 71.0287 -61.7466 73.7088 -57.865 74.0277C-57.9468 75.0887 -58.4775 75.2481 -58.3441 76.2567C-54.1711 76.2567 -52.63 76.7345 -49.8374 73.2314C-48.0025 73.5498 -46.6196 80.0786 -44.9998 81.9097C-44.5483 82.4404 -46.0372 83.3694 -44.8665 83.794C-42.1556 84.8558 -43.3259 82.8916 -42.1827 82.467C-40.1356 81.7507 -39.0195 81.0339 -37.2638 80.6093C-37.1304 80.2643 -37.1304 79.9721 -37.2638 79.6536C-38.2736 79.7602 -38.5676 79.7335 -39.1504 79.2823C-38.5676 78.3533 -36.1206 75.3014 -35.9355 74.824C-35.3231 73.2576 -33.0091 71.9044 -36.4934 71.9044C-36.4934 69.4095 -38.6467 67.0739 -36.0414 64.0753C-34.7376 62.5356 -32.3204 62.4561 -31.1229 60.864C-30.3253 59.8288 -30.2979 56.8429 -28.4388 55.6753C-27.0016 54.786 -23.7075 56.2991 -23.4682 57.9973C-22.91 61.6599 -34.7648 63.7036 -29.3152 70.0201C-25.4878 74.4522 -18.7886 69.0648 -14.2946 71.6389C-16.7936 74.1867 -20.3837 73.072 -23.3618 73.4437C-24.5025 73.6293 -28.6238 74.983 -28.678 75.0358C-28.2507 75.1952 -27.9326 75.4075 -27.5349 75.5665C-28.4387 75.5665 -29.0483 75.885 -29.9005 76.1509C-28.8632 78.8578 -26.8952 75.726 -26.2039 76.0444C-24.9027 76.6812 -24.7965 77.3714 -23.6533 78.1414C-26.8953 82.2547 -26.6831 77.4513 -28.5722 78.1414C-30.8561 78.9639 -30.6981 83.9001 -30.7498 85.1214C-32.6906 85.1214 -35.1896 84.0596 -33.5699 86.7135C-36.4933 83.7407 -38.1131 86.9258 -41.3306 87.2176C-42.4221 87.2971 -47.0986 84.5636 -47.4176 87.5627C-48.6421 87.4832 -49.8375 87.032 -50.5017 86.5275C-50.156 83.2633 -45.4794 87.9077 -45.9555 82.0957C-46.6468 82.4142 -48.9336 83.21 -49.3585 83.051C-49.3339 82.5199 -48.9878 81.565 -48.8002 81.0339C-49.1729 81.1929 -49.5706 81.1929 -49.9162 81.0339C-49.4914 77.9554 -50.2891 77.398 -52.6822 79.8397C-54.3562 81.5384 -53.1338 83.3694 -53.213 85.0148C-53.4006 89.2614 -52.151 86.9258 -55.4477 88.8364C-57.1216 89.8187 -60.0454 90.8006 -61.9316 90.8006C-59.5143 93.9058 -64.2186 93.5874 -66.0014 94.9406C-66.1865 95.0738 -67.6482 98.4441 -68.1789 98.6031C-69.9622 99.1609 -71.0508 97.5417 -72.2215 97.6478C-69.4556 102.398 -74.9328 99.0809 -76.5796 100.355C-78.575 101.894 -76.0488 101.363 -75.4117 102.292C-74.4807 103.593 -73.3892 104.123 -72.4336 106.088C-67.0628 116.783 -80.0884 110.175 -85.3801 112.404C-84.3703 115.828 -85.8591 119.835 -85.0073 123.152C-84.2368 126.126 -85.2466 124.294 -82.6417 125.965C-80.9923 127.028 -80.1427 126.019 -78.575 127.957C-78.229 127.557 -78.2807 127.373 -78.7602 127.4C-76.0489 126.443 -72.6734 125.329 -70.52 123.337C-69.6436 122.516 -69.2163 123.552 -68.5521 122.622C-68.1544 122.064 -69.3496 121.136 -69.298 121.082C-68.9765 120.631 -68.7372 118.747 -68.0731 117.951C-67.1963 116.889 -63.3692 115.775 -62.7046 115.217C-61.907 114.554 -63.2629 113.173 -61.8258 112.298C-60.6305 111.555 -58.4504 113.227 -57.1216 112.988C-56.6155 112.935 -54.1164 109.909 -52.7609 110.121C-50.929 110.44 -49.0941 113.917 -47.5781 115.138C-43.0049 118.694 -34.9253 123.552 -46.3287 123.552C-43.2714 128.884 -38.4588 123.337 -37.1576 120.18H-38.7802C-38.8044 119.835 -38.7527 119.516 -38.6985 119.172C-37.9009 119.437 -35.8809 119.835 -35.2714 119.835C-36.4391 117.579 -39.7082 114.979 -42.5529 114.554C-42.2615 112.775 -45.2125 110.546 -46.5408 110.652C-46.1435 104.707 -42.3132 109.989 -39.3897 112.112C-37.3972 113.572 -34.7922 114.58 -33.6758 116.624C-32.9845 117.898 -32.0264 121.295 -31.308 122.674C-32.0811 122.435 -32.2932 122.277 -33.009 122.41C-32.3995 124.027 -31.5474 124.799 -30.4584 123.524C-29.3152 129.362 -25.4335 123.101 -23.2805 122.756C-23.6262 122.144 -24.0777 121.64 -24.7965 121.64C-24.636 122.011 -24.636 122.41 -24.7965 122.756C-25.9126 122.756 -28.2507 119.277 -27.9051 118.535C-26.7644 119.172 -26.1248 119.543 -24.8752 118.986C-24.9816 118.667 -25.2213 118.535 -25.5394 118.535C-21.2605 112.245 -18.8949 128.566 -18.2307 128.566C-17.4849 128.566 -17.6453 126.443 -17.6453 126.153C-15.9959 127.612 -14.6677 127.318 -13.3661 127.506C-14.7219 127.318 -11.186 126.603 -11.2647 126.603C-9.90933 126.549 -9.29941 128.248 -7.09174 127.718C-7.11887 127.161 -7.14639 126.655 -7.09174 126.071C-2.94586 126.922 -2.62482 128.354 -4.14117 132.759C-4.64737 134.3 -6.5856 136.795 -7.91644 137.377C-9.53616 138.067 -11.0526 136.423 -12.5685 137.219C-10.2033 138.333 -8.55344 145.418 -5.86969 142.687C-1.85425 146.88 -0.871613 152.612 1.76044 157.017C3.43488 159.778 6.86447 161.952 8.2991 165.137C10.2399 169.437 7.66208 172.038 13.1117 172.144C15.5561 172.144 18.4555 169.809 20.8724 168.801C23.6383 167.687 24.9941 166.518 27.2014 165.51C30.046 164.211 31.7475 164.768 33.7129 162.485C34.6439 161.477 36.5575 158.876 37.7795 159.379C37.7795 156.726 37.8341 156.62 39.7749 155.797C39.5627 154.522 37.4097 153.09 36.4512 152.294C34.7501 150.835 36.4512 149.321 34.0068 151.737C33.74 150.595 33.3943 148.1 32.4908 147.41C31.4535 148.685 31.135 148.791 30.9744 150.807C27.2013 150.489 21.3001 150.622 28.2386 149.375C28.1297 148.949 22.8136 147.462 22.5497 147.304C21.7246 146.72 19.1984 143.934 18.9862 142.687C18.2674 138.333 20.3691 139.765 22.9469 141.57C26.1373 143.747 27.2259 144.755 30.9744 145.978C31.614 146.19 33.1275 145.763 34.0068 145.978C34.671 146.163 34.829 147.649 35.7329 148.046C37.4098 148.842 41.5828 149.215 43.5507 149.294C48.0939 149.454 49.3705 149.054 53.0128 151.125C54.9807 152.239 55.1658 153.647 58.1169 154.204C52.9065 154.204 58.8869 156.911 60.0847 157.308C62.0505 157.946 61.0158 154.656 63.1146 157.601C64.1519 158.982 63.3268 160.787 63.5936 162.325C64.1248 165.349 65.2132 167.765 66.3323 170.605C67.0753 172.516 68.4308 178.78 70.2928 179.867C72.2581 180.957 74.2265 178.992 75.3151 176.737C76.061 175.223 76.0609 173.472 76.246 171.774C76.3524 170.872 76.0067 169.225 76.3007 168.483C77.2834 165.961 77.0707 168.429 78.9056 166.624C82.4416 163.227 86.6146 158.08 89.8837 156.275C91.1332 155.558 96.6892 154.416 96.7685 154.47C97.8324 155.158 100.277 160.653 100.277 161.901C103.522 161.901 99.8008 164.608 102.166 166.467C103.762 167.714 105.569 165.059 105.86 165.137C108.387 165.828 110.139 172.464 110.087 175.196C110.06 176.657 107.828 178.196 108.811 180.691C109.396 182.177 111.683 183.558 112.507 185.441C113.49 187.724 115.537 195.923 119.923 193.828C118.433 191.254 118.434 186.689 116.92 184.805C114.712 182.177 112.135 182.31 111.522 178.487C111.389 177.611 110.539 173.79 111.974 172.595C114.288 170.711 112.374 172.144 114.634 173.367C116.599 174.426 116.414 174.375 118.17 176.552C118.567 177.055 120.002 177.454 120.217 177.772C120.854 178.832 120.029 179.761 120.96 181.381C122.846 178.726 125.718 178.036 127.207 175.992C129.973 172.225 128.244 169.067 125.985 166.146C122.555 161.689 121.651 156.275 129.573 156.275C130.079 158.555 126.649 161.05 127.977 162.219C131.222 165.086 131.911 156.699 131.832 156.751C133.242 155.479 136.299 155.397 137.894 154.895C140.233 154.15 141.003 153.647 142.971 152.161C145.709 150.117 150.759 145.633 151.399 141.942C151.875 139.236 150.44 140.907 150.174 139.075C150.016 138.067 150.998 138.281 150.653 136.474C150.228 134.3 147.199 131.593 147.25 130.025C147.356 127.028 150.413 128.036 151.505 126.443C152.46 125.036 152.46 125.117 149.643 124.082C148.393 123.658 148.712 125.541 147.092 125.541C147.544 122.011 142.917 124.478 144.963 121.188C144.833 121.427 148.633 119.755 148.845 119.649C152.994 118.083 151.769 117.579 150.067 121.932C151.292 121.242 154.562 119.516 155.944 120.127C158.841 121.427 156.554 121.879 156.794 124.267C161.261 122.41 159.905 129.468 159.426 131.618C162.617 131.963 166.232 129.84 166.152 126.761C166.098 124.003 162.589 123.682 163.308 119.835C163.466 119.066 164.876 119.649 165.009 119.277C165.061 119.172 165.513 116.199 165.78 115.854C166.417 114.979 167.481 113.2 168.676 112.669C169.367 112.377 171.866 112.935 173.143 112.563C174.844 112.085 175.296 111.661 176.624 110.493C178.778 108.662 181.516 105.238 182.978 103.036C184.679 100.514 184.2 98.497 185.343 95.8963C189.013 87.2971 187.366 104.257 187.366 106.618C188.055 105.928 188.588 106.3 189.198 104.92C190.05 105.716 189.304 106.353 191.112 106.433C190.608 102.982 186.914 99.9301 192.043 99.9301C192.176 99.9301 189.598 88.1999 189.492 86.8197H188.746C188.879 89.6326 187.976 89.4204 187.976 92.0215C185.823 90.7473 186.247 87.9872 182.314 86.8197C181.862 89.6859 180.479 88.7307 179.284 86.8197C179.39 87.377 179.39 87.775 179.284 88.3323C177.61 88.0938 179.311 87.032 178.062 85.9705C175.402 88.6241 178.007 84.6169 178.99 83.5288C180.479 81.883 182.047 80.7687 183.669 78.7516C187.072 74.558 190.129 74.2928 195.26 74.2928ZM-80.276 76.0444C-81.1528 76.3628 -82.0838 77.3714 -82.2685 78.2209C-81.4709 78.0086 -78.8388 75.7792 -80.276 76.0444C-80.1701 76.0444 -80.6216 76.151 -80.276 76.0444ZM-78.2806 97.1966C-76.3673 97.1966 -74.9327 95.8696 -73.8412 95.684C-72.1668 95.4184 -69.8011 96.2147 -68.4457 95.6045C-66.053 94.516 -65.2825 92.1805 -65.9195 90.031C-66.3198 88.6507 -67.3567 90.8535 -67.4084 90.8006C-68.0484 90.1371 -67.9421 89.0491 -68.4457 88.6241C-69.2979 87.8811 -70.4657 86.1295 -71.5814 84.8292C-73.2829 82.8387 -73.498 83.3161 -73.7619 81.724C-73.9225 80.6626 -69.5619 76.5222 -76.0213 78.4332C-75.4906 77.5042 -75.4118 76.7345 -74.402 76.1509C-76.528 74.0277 -77.4588 77.3185 -78.2564 77.9554C-78.3869 78.0615 -82.6934 79.5213 -79.3179 80.1053C-79.6119 81.0872 -80.7009 82.5199 -80.6462 83.1305C-79.5301 83.2633 -78.123 84.1657 -77.8291 82.9449C-78.0955 86.6336 -76.1547 84.5903 -74.7721 87.5627C-73.2041 91.0129 -76.4215 88.6507 -78.0955 90.6945C-77.4589 90.8535 -76.9523 90.8006 -76.2094 90.8801C-76.2094 91.9153 -78.7601 92.3399 -77.9104 93.3218C-77.3771 93.932 -74.7201 93.03 -73.8412 93.8792C-74.1869 94.1976 -79.4513 97.1966 -78.2806 97.1966ZM-79.9034 87.4832C-75.7028 86.873 -86.575 81.4851 -84.0488 86.5275C-86.0442 86.8992 -88.7283 89.6859 -85.4592 89.5265C-89.7136 95.684 -83.7849 91.5969 -80.1702 92.3927C-80.0367 90.9068 -79.8758 89.3142 -79.9034 87.4832ZM21.2455 231.196C21.2455 227.559 23.851 220.075 19.5441 218.377C19.5441 219.651 17.8701 222.624 17.1 223.315C15.5044 224.774 13.033 224.162 11.4107 225.728C10.1612 226.948 11.5687 230.745 11.4107 231.753C11.1167 233.664 10.2946 233.903 9.89432 236.291C9.39066 239.398 10.1064 243.988 14.2553 243.086C18.2432 242.21 16.9662 240.987 17.6579 237.433C17.7096 237.009 18.7193 232.973 18.8011 232.894C19.1197 232.443 21.2455 231.807 21.2455 231.196ZM-10.1486 141.146C-11.9564 136.847 -12.9933 138.493 -16.9541 138.015C-22.6706 137.325 -27.0829 135.493 -32.4512 134.273C-32.4512 139.447 -32.345 138.493 -35.8538 138.545C-35.138 138.493 -38.9378 137.431 -38.5676 137.591H-41.3306C-41.625 137.113 -41.81 136.607 -41.8887 136.077C-43.5627 135.52 -48.6151 134.697 -49.6524 133.292C-51.5932 130.691 -47.4719 130.213 -50.9807 127.957C-50.0497 127.185 -50.156 127.079 -48.8819 126.816C-50.6621 123.788 -55.5536 126.603 -58.159 126.655C-60.9219 126.71 -63.8724 125.487 -67.4084 127.028C-69.8011 128.036 -71.4239 129.443 -74.5872 129.362C-78.4145 129.311 -80.4611 126.655 -80.4611 131.618H-83.3058C-82.0292 136.211 -85.38 133.237 -86.1234 134.751C-87.3212 137.164 -86.921 140.032 -88.0125 141.57C-88.6767 142.472 -91.1754 143.695 -92.1855 144.967C-93.2745 146.269 -94.5784 148.473 -95.7733 150.223C-96.944 151.976 -101.729 156.433 -101.062 159.088C-100.877 159.83 -98.193 158.77 -97.7686 159.672C-97.3954 160.387 -98.2993 160.732 -98.1388 161.156C-97.3954 163.121 -98.6449 166.36 -98.8029 168.35C-98.9906 170.766 -99.2029 172.834 -96.5191 175.595C-93.6744 178.593 -91.0148 181.063 -87.8245 183.821C-86.7355 184.778 -86.2048 186.955 -83.8637 187.431C-81.2317 187.909 -80.886 186.795 -78.387 186.477C-76.2094 186.21 -74.5596 187.167 -73.0708 187.113C-69.9351 187.006 -70.1472 185.814 -67.5965 184.936C-65.5222 184.248 -61.0553 184.433 -59.86 184.936C-57.9708 185.786 -58.4504 187.167 -55.6599 187.803C-50.8202 188.865 -51.0866 186.477 -50.9807 191.572C-50.929 193.961 -51.8846 197.013 -53.24 198.366C-47.1804 200.277 -43.1926 212.645 -44.1753 218.537C-45.1334 224.48 -48.7214 224.719 -45.6645 231.011C-43.778 234.938 -43.1654 237.272 -42.0764 241.572C-40.9849 246.031 -37.5031 249.056 -36.2265 253.092C-35.1379 256.541 -36.8119 257.63 -35.0833 259.514C-30.513 264.503 -18.4158 258.612 -14.8553 254.79C-13.4724 253.304 -11.1313 250.727 -10.3337 248.95C-9.5361 247.2 -10.6005 244.705 -10.1486 243.643C-9.75125 242.795 -6.74612 242.262 -5.78799 240.987C-3.21014 237.645 -7.09167 236.213 -6.34875 232.71C-5.76337 229.87 -0.49881 228.41 1.01758 227.03C4.76318 223.684 4.97827 219.942 4.04684 214.901C3.51358 212.061 0.884094 207.84 1.97308 204.391C3.40729 199.747 9.36353 195.26 12.9266 192.129C15.5561 189.819 18.1614 187.167 19.9171 184.009C21.112 181.911 21.8851 181.726 22.1765 178.913C22.6556 174.481 23.3715 175.541 19.5441 175.516C14.2279 175.489 12.6602 177.506 8.96326 173.472C6.83734 171.111 3.40735 168.907 1.38779 166.279C-0.604675 163.705 -2.67902 157.813 -3.9014 154.761C-5.73636 150.09 -6.80066 145.288 -10.1486 141.146C-9.93637 141.412 -10.282 140.828 -10.1486 141.146ZM-202.399 285.628C-203.143 285.47 -203.09 284.302 -203.622 284.302C-203.383 284.302 -205.323 286.53 -205.323 286.506C-205.323 286.848 -201.814 289.558 -201.548 289.688C-201.708 289.927 -201.788 290.194 -201.735 290.46C-207.796 290.46 -202.957 295.792 -203.914 297.996C-203.356 297.917 -202.957 297.917 -202.399 297.996C-202.373 298.526 -202.665 298.819 -203.25 298.871C-202.266 299.907 -202.771 299.298 -201.814 299.534C-202.133 299.428 -197.827 304.923 -197.109 305.374C-193.494 307.603 -190.064 306.516 -186.609 306.249C-186.768 305.135 -191.101 303.888 -192.005 301.738C-192.856 299.667 -194.796 294.308 -191.341 294.653C-191.341 292.476 -186.954 290.033 -187.273 288.468C-187.619 286.612 -192.005 287.726 -190.49 284.035C-190.011 282.869 -187.619 283.505 -187.087 282.869C-186.635 282.285 -187.247 281.328 -186.609 280.638C-187.034 281.117 -184.376 276.499 -184.721 278.198C-184.11 275.173 -186.981 278.277 -186.343 273.792C-181.904 275.57 -181.026 273.95 -181.69 269.838C-178.022 269.944 -173.61 270.077 -171.935 266.52C-170.127 262.751 -173.583 263.601 -174.247 260.31C-170.154 260.84 -168.612 262.275 -165.448 259.459C-163.96 258.133 -162.79 252.799 -161.115 253.038C-161.354 253.782 -161.487 253.861 -161.302 254.552C-156.436 252.135 -157.792 245.262 -155.134 242.105C-153.406 240.033 -151.013 239.025 -148.568 238.335C-144.687 237.221 -143.623 237.484 -141.444 233.691C-138.865 229.206 -139.928 222.412 -137.855 218.8C-136.34 216.175 -133.017 214.607 -132.14 211.582C-131.528 209.566 -131.661 209.699 -132.166 207.84C-133.282 203.807 -133.229 206.46 -135.755 204.47C-138.493 202.348 -139.61 201.869 -143.012 201.234C-144.846 200.861 -151.333 201.312 -148.621 199.905C-149.631 199.214 -151.253 198.206 -152.582 197.942C-155.905 197.304 -155.161 198.049 -157.5 199.057C-157.287 198.739 -156.304 196.535 -156.277 196.35C-157.154 196.244 -158.377 195.817 -159.228 195.554C-160.079 195.287 -159.6 197.464 -161.381 197.252C-161.036 196.456 -157.58 192.129 -160.823 192.129C-160.265 186.398 -165.581 186.104 -169.117 185.202C-171.988 184.512 -178.341 181.593 -178.341 178.381C-179.963 178.938 -182.86 178.196 -180.335 177.055C-182.01 174.905 -185.492 177.929 -186.476 177.905C-190.091 177.772 -191.819 174.744 -195.275 174.108C-195.275 175.967 -196.55 175.541 -197.641 176.657C-197.8 176.815 -197.321 179.364 -197.455 179.788C-199.395 178.196 -198.89 174.799 -196.897 173.578C-200.087 172.676 -209.018 178.593 -209.55 182.601C-209.842 184.83 -207.503 187.167 -209.018 190.246C-209.842 191.944 -213.325 195.448 -215.159 196.084C-214.84 198.951 -216.036 199.48 -213.085 199.693C-214.308 201.815 -217.179 203.09 -215.531 206.566C-215.133 207.443 -213.272 207.628 -212.501 208.715C-211.757 209.805 -210.959 211.425 -210.48 212.59C-209.444 215.14 -208.487 219.385 -206.839 221.295C-204.579 223.896 -201.867 224.641 -199.05 226.842C-194.291 230.584 -196.046 238.547 -196.817 244.384C-197.242 247.57 -198.438 250.622 -198.81 253.568C-199.236 257.071 -198.81 260.734 -200.22 264.025C-201.788 267.689 -201.681 269.838 -202.665 273.95C-202.612 273.711 -202.691 276.657 -202.665 275.915C-202.691 276.551 -203.941 277.189 -203.675 277.986C-202.346 281.94 -201.203 276.021 -199.847 275.915C-200.831 278.676 -201.229 281.01 -201.575 284.141C-202.32 282.894 -202.506 283.584 -202.771 281.861C-203.648 282.337 -202.32 284.913 -202.399 285.628ZM-197.667 163.811C-194.371 163.069 -189.612 163.627 -186.316 162.485C-187.778 160.68 -192.271 161.265 -195.035 160.893C-196.79 160.68 -200.405 158.61 -200.698 161.371C-200.884 163.121 -199.289 164.129 -197.667 163.811C-197.295 163.732 -197.906 163.865 -197.667 163.811ZM-206.546 163.227C-207.317 162.034 -208.885 161.634 -210.507 161.901C-209.523 163.227 -207.689 164.368 -206.546 163.227C-206.706 163.015 -206.839 163.545 -206.546 163.227ZM-203.143 159.007C-204.579 156.699 -210.48 155.318 -212.98 154.362C-214.601 153.78 -218.296 152.266 -220.316 153.435C-222.549 154.734 -221.991 154.922 -219.599 156.06C-218.562 156.593 -217.95 154.973 -216.94 155.158C-215.558 155.373 -214.681 156.566 -213.936 156.832C-210.029 158.237 -207.583 159.007 -203.143 159.007ZM-111.831 56.6175C-110.103 56.3388 -109.49 56.3786 -109.011 58.1301C-110.315 57.8912 -111.485 57.8912 -112.787 58.1301C-112.735 58.5014 -112.653 58.8997 -112.602 59.2715C-108.747 58.6346 -111.725 60.8107 -109.757 61.5271C-109.332 61.6598 -104.892 62.1111 -104.653 62.0848C-101.25 61.9254 -100.956 61.2086 -98.0325 59.6432C-95.561 58.2895 -94.472 60.1739 -93.699 57.5597C-93.3804 56.5245 -95.1879 56.4978 -95.5881 56.4314C-94.7635 51.7341 -101.171 55.9142 -104.334 55.5028C-104.81 55.463 -107.631 55.0651 -107.124 55.118C-108.48 54.9987 -107.018 52.9947 -108.453 54.7332C-111.91 53.5787 -112.759 56.8031 -111.831 56.6175C-111.564 56.5777 -112.095 56.6708 -111.831 56.6175ZM-170.074 94.357C-170.818 94.8344 -175.204 101.894 -174.885 102.425C-174.221 103.54 -171.881 102.478 -170.606 102.85C-168.665 103.434 -168.24 104.23 -166.299 105.132C-163.348 100.673 -166.113 99.1342 -170.446 97.754C-170.472 97.8335 -167.814 93.0829 -170.074 94.357C-169.835 94.2509 -170.313 94.516 -170.074 94.357ZM-180.282 98.5236C-182.169 97.9134 -182.993 97.1171 -184.828 97.3823C-183.1 98.4175 -181.983 100.965 -180.282 98.5236C-180.362 98.6564 -180.548 98.4441 -180.282 98.5236ZM-126.929 47.7663C-126.398 47.5675 -125.813 48.3372 -125.387 48.4564C-122.038 49.5313 -122.038 48.2572 -119.3 47.1827C-116.854 46.2405 -110.794 44.9267 -109.942 42.6444C-113.238 45.2185 -121.001 39.2073 -112.735 39.5523C-113.081 39.5392 -109.038 43.7858 -108.107 40.1101C-107.762 38.7561 -111.139 35.4919 -112.201 34.9079C-111.616 34.3907 -107.895 37.0975 -109.011 33.594C-109.544 31.9486 -110.5 31.9224 -112.68 32.6523C-112.256 31.9884 -111.831 32.0417 -111.564 31.4314C-111.962 31.3118 -112.335 31.1528 -112.68 30.9401C-111.485 30.927 -108.055 32.599 -106.46 31.5241C-102.791 29.0824 -108.72 29.9581 -108.72 28.7771C-108.72 28.4853 -103.137 28.2201 -102.763 27.5562C-103.934 26.4022 -107.018 24.4117 -103.325 24.1064C-103.243 21.0541 -107.843 21.0676 -107.309 19.3427C-107.097 18.639 -104.865 18.3735 -104.28 18.5862C-101.86 19.5148 -103.855 19.714 -102.763 21.8905C-102.1 17.9755 -100.586 17.0334 -105.317 17.0334C-104.013 15.5871 -105.262 16.6355 -103.058 15.5736C-104.386 13.5438 -107.655 15.4941 -107.683 15.481C-111.058 12.7606 -99.1486 5.39584 -98.0325 3.98893C-99.5489 4.08196 -101.011 3.81683 -102.499 3.77666C-99.4154 3.13981 -97.6598 3.23283 -95.0027 1.50792C-94.2844 1.04318 -90.457 1.52103 -92.1855 -1.02679C-92.477 -1.478 -96.4373 -1.26572 -96.8105 -1.22597C-99.5488 -0.894012 -102.1 -0.416574 -104.386 0.180948C-105.823 0.591984 -111.749 3.72379 -112.602 3.5779C-109.199 -0.681722 -107.337 -1.31857 -113.532 -2.23452C-113.532 0.233803 -115.312 -0.0182381 -117.705 0.379687C-117.306 -1.6239 -115.924 -0.827616 -114.488 -1.50464C-117.997 -4.10532 -124.43 -0.0715122 -128.285 -0.668612C-127.248 -3.76026 -111.485 -4.01271 -107.868 -4.42417V-5.28641C-111.485 -5.29952 -113.105 -5.84376 -115.897 -6.32161C-120.097 -7.01132 -124.191 -6.02982 -128.285 -6.45397C-125.281 -8.51126 -119.167 -7.59573 -114.861 -7.59573C-115.34 -10.9394 -134.24 -9.55915 -136.685 -8.77641C-139.29 -7.91374 -136.951 -7.05151 -140.221 -6.69291C-142.135 -6.48062 -143.73 -7.60842 -145.697 -7.68834C-147.505 -7.76785 -151.093 -7.40968 -153.113 -6.64004C-152.502 -5.43231 -151.067 -5.94991 -151.067 -4.23811C-151.838 -4.83521 -155.24 -6.25523 -154.151 -4.15861C-154.416 -4.67579 -148.142 -0.973513 -149.924 -0.973513C-153.911 -0.973513 -156.915 -4.17171 -161.142 -4.17171C-161.142 -3.2693 -158.537 -1.71692 -158.165 -0.363294C-160.69 -1.08007 -162.391 -3.37545 -165.103 -3.62791C-164.412 -2.26117 -164.199 1.0563 -166.432 -0.270264C-166.432 -0.283795 -165.369 -3.00416 -166.857 -3.81355C-168.638 -4.8221 -174.3 -1.3321 -175.497 -1.9292C-174.194 -1.42471 -171.988 -0.721903 -170.978 0.379687C-172.785 0.366578 -174.3 -0.867783 -176.188 -1.09318C-177.411 -1.26571 -177.092 -2.23453 -178.713 -1.46489C-180.282 -0.735008 -179.033 0.446082 -179.458 0.685007C-180.946 1.54767 -184.03 1.89273 -186.848 3.39183C-187.964 3.98893 -190.676 3.93608 -190.516 5.86016C-188.895 6.28473 -188.071 5.86016 -186.555 5.86016C-185.466 5.86016 -186.609 9.40301 -186.821 9.60218C-187.326 10.0403 -189.692 9.92103 -190.436 10.1067C-192.377 10.6107 -195.86 10.3985 -197.827 11.5664C-204.233 15.3216 -192.404 15.64 -188.922 15.64C-189.612 18.5198 -196.763 16.3965 -196.763 18.0419C-196.763 18.8513 -193.653 19.7275 -192.988 19.8734C-193.52 19.8734 -193.574 19.8734 -193.733 20.2582C-192.776 21.0279 -190.942 22.62 -189.533 22.1024C-189.639 21.9036 -190.251 21.3463 -189.931 21.1471C-187.805 19.8332 -178.66 20.8418 -176.135 22.4606C-172.493 24.7965 -169.701 29.5733 -169.356 33.9657H-168.452C-172.067 40.4412 -163.375 35.1202 -160.902 40.9592C-163.242 41.0252 -165.448 39.3933 -167.602 40.2953C-167.07 41.901 -169.011 44.5152 -165.714 44.5947C-162.843 44.6615 -161.913 42.6178 -165.262 42.1002C-160.503 41.5293 -161.647 43.3743 -160.318 46.7184C-162.444 46.6118 -164.12 46.9835 -164.066 49.067C-168.798 48.4564 -163.826 54.627 -163.534 55.622C-163.641 55.3569 -162.125 54.9721 -161.833 55.5687C-161.62 56.0732 -163.375 56.6572 -162.896 57.0953C-163.641 56.4048 -162.046 59.7489 -162.232 59.2715C-162.258 59.1653 -160.398 58.183 -160.052 58.2096C-161.514 61.1824 -160.052 66.1986 -156.835 68.6132C-155.4 69.7012 -148.329 72.4351 -147.186 71.7983C-145.617 70.9487 -146.042 67.7112 -145.404 66.2514C-145.006 65.3757 -146.361 65.1101 -145.83 64.0753C-145.564 63.5175 -144.155 63.8892 -143.704 63.0401C-141.789 59.537 -142.959 56.1929 -138.174 55.7814C-138.307 53.4988 -138.067 55.1311 -136.845 54.3614C-137.137 60.3066 -126.982 47.7794 -126.929 47.7663ZM-230.098 18.5862C-228.078 21.6909 -218.987 20.5631 -215.637 20.0058C-214.734 22.2753 -209.364 20.8684 -209.577 17.9227C-210.081 18.1616 -210.587 18.3735 -211.092 18.5862C-211.251 18.1214 -211.411 17.644 -211.57 17.1797C-209.417 16.7813 -209.523 16.224 -210.055 14.3397C-207.343 15.0827 -205.058 14.6847 -206.945 12.1898C-207.237 11.8049 -204.101 12.0972 -204.101 11.7119C-204.101 9.09812 -208.912 9.94726 -210.135 11.0353C-210.268 10.7304 -210.4 10.4116 -210.507 10.1067C-207.424 7.94367 -204.074 10.9423 -201.176 8.30185C-201.735 7.89039 -202.293 7.49247 -202.851 7.09412C-200.91 7.61172 -199.05 8.03628 -196.897 7.17403C-197.827 6.45726 -197.694 5.89991 -198.89 5.38232C-194.424 6.45726 -189.16 1.58742 -185.013 0.485832C-186.342 -0.841151 -189.905 0.446092 -192.191 0.180948C-190.33 -2.22098 -179.989 0.101017 -179.325 -3.21644C-178.9 -5.47206 -188.31 -5.8704 -190.57 -5.28641C-191.447 -6.16218 -195.035 -7.13101 -197.295 -7.36951C-198.172 -4.22458 -208.327 -8.81616 -207.583 -5.18028C-210.427 -6.2417 -216.701 -6.8388 -218.854 -3.7738C-216.462 -3.90616 -213.856 -3.41561 -212.687 -1.50464C-215.08 -2.12796 -218.269 -3.64101 -220.343 -4.05247C-222.523 -4.47704 -224.304 -3.32258 -224.915 -3.24307C-227.201 -2.92423 -231.774 -1.71693 -234.538 -1.13294C-234.565 -0.854264 -234.591 -0.56247 -234.618 -0.270264C-232.279 0.459197 -232.119 1.81282 -229.514 2.59556C-225.792 3.73733 -225.659 1.74643 -222.443 1.32186C-228.902 5.09053 -218.881 3.79019 -217.126 3.35252C-213.511 2.46321 -211.012 0.366582 -207.21 0.485832C-208.726 0.645256 -210.188 1.32186 -211.384 2.35706C-210.002 2.11814 -208.832 2.56934 -207.503 2.55624C-209.417 3.97583 -215.504 4.44056 -218.269 4.61267V5.55484C-216.435 6.32447 -215.345 7.67809 -213.165 7.63834C-216.382 8.51412 -221.194 5.3561 -224.809 4.90489C-224.517 7.98342 -219.014 10.4517 -215.903 10.2923C-216.621 11.1283 -216.94 11.7521 -217.525 12.4422C-222.921 7.1605 -231.003 15.3613 -221.007 13.5831C-221.539 13.8749 -222.071 14.154 -222.629 14.4327C-221.459 16.3432 -219.306 15.7195 -217.711 14.061C-219.545 18.9444 -224.968 14.313 -228.291 14.7376C-226.909 16.874 -228.211 17.7501 -230.098 18.5862ZM-229.248 12.4422C-228.716 11.8049 -227.76 12.2033 -228.025 10.4649C-221.991 11.3804 -223.4 7.66499 -227.148 5.31634C-226.935 5.46223 -239.35 -0.774753 -239.057 1.04319C-238.18 1.22925 -237.383 0.591974 -237.17 1.70667C-237.143 1.8661 -240.493 2.29067 -240.865 2.26403C-240.094 2.78163 -239.855 3.55126 -239.536 3.86969C-240.44 3.7238 -241.237 4.01558 -242.088 3.96272C-242.38 4.61268 -242.726 6.04623 -242.753 6.89536C-240.493 9.16451 -237.17 7.22689 -234.724 9.25712C-236.186 9.35015 -237.675 10.08 -239.057 10.2923C-236.266 12.7869 -232.545 13.729 -229.248 12.4422ZM-234.166 15.6666C-234.432 16.1043 -234.724 16.5424 -235.017 16.9936C-233.368 17.4846 -232.199 17.3784 -230.764 16.7018C-231.641 15.0429 -232.518 15.3482 -234.166 15.6666ZM-232.651 27.0784C-230.79 26.694 -209.896 28.4058 -212.98 23.6019C-214.813 20.7094 -223.054 23.8146 -225.579 23.7478C-230.87 23.6285 -231.587 18.1616 -236.319 19.5414C-234.565 22.5536 -236.399 25.778 -232.651 27.0784ZM-245.783 27.4632H-244.454C-245.039 26.044 -245.039 27.1714 -245.783 27.4632ZM-242.859 25.1014C-241.875 25.9641 -236.744 28.3394 -237.276 25.0084C-237.702 22.2884 -241.982 23.5888 -242.859 25.1014ZM-238.207 21.041C-236.107 18.8513 -239.19 17.2989 -241.423 17.644C-246.022 18.3735 -240.334 21.0676 -238.207 21.041ZM-242.088 16.5158C-240.387 16.4891 -238.738 16.2769 -237.09 15.8658V14.9236C-239.19 14.6314 -241.45 14.4593 -242.088 16.5158ZM-241.716 14.154C-236.984 12.9996 -244.879 10.8628 -246.341 11.3271C-245.703 13.57 -244.161 14.9368 -241.716 14.154ZM-247.006 7.09412C-247.697 5.78067 -248.176 5.06389 -249.93 5.38232V6.51055C-248.654 7.05479 -248.176 7.3064 -247.006 7.09412ZM-248.229 15.1888C-246.846 10.4649 -256.177 8.20924 -259.686 9.52269C-258.33 10.08 -257.639 11.1419 -256.655 11.991H-258.25C-256.868 13.9016 -250.914 14.1671 -248.229 15.1888ZM-251.817 15.388C-253.014 14.9237 -253.386 14.2335 -254.848 14.6314C-254.29 16.2506 -253.359 15.7195 -251.817 15.388ZM-252.695 23.6019C-250.754 22.6466 -249.584 23.3896 -249.186 25.5793C-246.66 25.4731 -244.773 24.5969 -245.065 21.9036C-245.411 18.9443 -248.388 20.1918 -251.073 19.1566C-250.143 19.807 -249.132 20.7889 -248.601 21.7975C-248.707 21.625 -252.376 20.2049 -253.067 20.1123C-252.881 20.9082 -252.854 21.6512 -252.588 22.4606C-254.343 21.1205 -255.114 18.9312 -257.586 18.6788C-257.878 21.5319 -255.273 22.965 -252.695 23.6019ZM-258.171 24.3584C-257.958 24.5043 -256.097 26.6407 -256.097 24.4383C-256.097 23.1909 -257.905 24.3584 -258.171 24.3584ZM-257.506 17.2723C-258.197 16.1576 -259.021 15.3482 -260.244 14.8306C-260.138 16.715 -259.207 17.7768 -257.506 17.2723ZM-208.247 51.1505C-206.892 51.548 -203.143 51.0706 -204.473 48.9343C-205.642 47.0368 -209.869 48.4695 -208.247 51.1505ZM-238.791 35.1866C-238.233 34.178 -237.303 34.5497 -237.356 33.0236C-234.724 33.9657 -233.634 31.6302 -232.252 29.7327C-234.193 29.016 -238.287 27.6628 -240.014 28.8967C-241.556 30.0114 -242.221 36.1554 -238.791 35.1866ZM-247.112 38.1192C-242.753 38.1192 -241.875 34.1911 -246.076 32.2806C-242.885 31.2585 -245.384 29.3213 -247.192 28.7373C-247.511 28.6447 -250.063 30.0245 -251.552 29.7327C-248.893 32.506 -250.94 34.2711 -253.891 32.6523C-253.758 34.5497 -248.867 37.2037 -247.112 38.1192ZM-257.692 32.1744C-256.895 29.5868 -260.191 29.0693 -261.76 30.4889C-260.271 31.8822 -259.234 32.8244 -257.692 32.1744ZM-263.94 30.0114C-263.78 30.1704 -262.743 31.3651 -263.94 30.0114V30.0114ZM-273.111 12.8401H-266.385C-267.555 10.3321 -271.276 11.062 -273.111 12.8401ZM-271.197 16.9936C-269.309 16.9805 -266.916 16.7682 -268.565 14.9236C-267.767 14.5651 -267.475 14.897 -266.943 13.9815C-269.149 13.7692 -271.33 13.8622 -273.19 15.0962C-272.818 16.3699 -272.154 16.5424 -271.197 16.9936ZM-274.52 15.2954C-275.104 14.0745 -275.264 13.2647 -277.072 13.5831C-276.646 15.1359 -275.849 14.99 -274.52 15.2954ZM-276.407 20.0058C-279.092 20.7889 -281.776 23.549 -279.889 25.0617C-278.214 26.4153 -272.074 25.0219 -269.974 25.208C-270.692 26.044 -275.104 25.2342 -274.812 26.7599C-274.413 28.5254 -271.117 27.4239 -270.027 27.2247C-267.714 26.8001 -259.048 25.6723 -259.686 22.4606C-259.447 23.6949 -265.375 19.1964 -264.87 19.3427C-267.634 18.5329 -268.671 20.1386 -267.236 22.6466C-266.704 22.8589 -265.853 22.527 -265.667 23.1773C-265.401 24.1994 -274.998 20.4972 -276.407 20.0058ZM-275.849 18.2145C-275.237 18.48 -275.051 19.4751 -273.562 19.1566C-273.589 18.8513 -273.642 18.5198 -273.669 18.2145C-274.387 18.4001 -275.104 18.4001 -275.849 18.2145ZM-283.398 22.2753C-283.717 22.6466 -284.036 23.0314 -284.355 23.4031C-282.282 23.3765 -282.68 23.7609 -281.591 21.7975C-282.202 21.9565 -282.787 22.1159 -283.398 22.2753ZM-280.368 19.8996C-278.8 19.3558 -277.975 18.1214 -277.736 16.3301C-283.452 14.9368 -285.286 20.1787 -290.496 20.7488C-288.05 24.4646 -284.381 21.0942 -282.175 19.0636C-281.617 20.7094 -280.979 19.5415 -280.368 19.8996ZM-279.065 44.5283C-274.971 44.1972 -274.865 46.3336 -271.675 47.1827C-268.512 48.045 -266.093 45.816 -263.275 45.2853C-261.573 44.9795 -250.355 46.811 -254.29 43.6927C-252.721 43.7194 -252.216 42.8833 -251.259 42.4583C-254.742 40.0699 -256.177 40.0835 -257.932 36.766C-258.596 35.4788 -261.547 29.2283 -263.94 32.2011C-265.029 33.594 -261.015 36.8455 -264.019 36.6197C-265.534 36.4869 -265.428 32.4396 -268.272 32.2806C-267.927 32.8641 -267.661 33.5543 -267.342 34.1649C-268.512 34.6423 -269.097 34.8284 -270.346 35.1071C-270.053 34.5759 -269.92 33.8063 -269.708 33.2359C-271.808 32.4396 -273.802 32.8379 -274.998 33.594C-274.068 30.0647 -277.417 31.7499 -279.145 32.506C-282.255 33.8862 -282.361 34.5759 -283.77 36.9914C-281.697 37.8004 -279.464 36.4738 -277.55 37.9336C-279.092 38.093 -280.554 38.6499 -281.697 39.5523C-279.597 40.6801 -272.791 38.9683 -271.675 40.8662C-271.276 41.5695 -279.145 41.9276 -280.368 42.6444C-279.942 43.2813 -279.491 43.905 -279.065 44.5283ZM-263.275 48.2179C-261.573 47.7663 -260.51 47.4081 -260.138 45.9619C-261.892 46.2803 -263.647 46.9171 -265.162 47.8458C-264.524 47.9655 -263.886 48.0982 -263.275 48.2179ZM-289.645 38.0266C-286.296 38.5307 -284.94 34.0719 -282.042 32.5859C-277.338 30.1704 -276.194 29.4541 -282.228 28.2201C-283.77 27.9017 -291.559 26.0702 -293.181 27.4239C-294.085 28.18 -294.351 33.7403 -296.344 35.9562C-294.165 36.089 -292.118 37.2701 -291.24 39.3532C-290.709 38.9155 -290.177 38.4643 -289.645 38.0266ZM-368.385 72.1962C-372.373 72.5409 -370.352 69.6218 -368.385 72.1962V72.1962ZM-336.618 70.1262C-336.166 67.1272 -332.152 70.8164 -330.079 71.4266C-327.394 72.2228 -324.842 71.6389 -322.236 72.488C-317.637 73.9744 -314.474 78.1676 -309.849 78.9639C-309.423 79.9192 -309.078 80.8749 -308.36 81.6179C-308.121 81.883 -306.127 82.7854 -305.888 83.21C-304.293 85.5988 -303.362 87.9344 -301.98 89.7921C-299.535 93.0829 -298.604 93.3751 -295.121 95.4451C-292.623 96.9315 -289.645 99.4527 -290.018 102.956C-292.836 99.5055 -295.786 94.7549 -300.598 95.3123C-298.338 98.0191 -294.988 98.9748 -293.553 102.372C-292.091 105.875 -293.978 109.272 -293.978 112.191C-294.032 117.632 -291.267 125.223 -287.546 129.283C-285.392 131.645 -282.069 131.751 -280.102 134.803C-278.507 137.219 -277.151 140.298 -275.662 142.793C-275.157 143.589 -276.274 143.986 -275.131 145.657C-274.439 146.665 -272.526 147.568 -271.595 148.524C-270.957 149.16 -267.847 152.824 -267.608 154.204C-264.684 151.231 -276.088 140.828 -276.407 136.556C-273.217 136.156 -269.575 143.429 -267.236 145.951C-264.232 149.16 -261.52 153.514 -258.437 157.017C-262.902 160.042 -245.172 166.624 -242.274 167.048C-241.397 167.181 -240.413 166.094 -238.791 166.572C-236.931 167.103 -236.107 169.067 -234.618 169.942C-233.129 170.872 -228.264 171.668 -228.105 171.456C-225.526 173.26 -224.224 176.788 -222.868 178.09C-220.901 179.895 -216.435 181.275 -213.644 182.495C-214.415 177.718 -209.178 182.071 -208.965 180.479C-208.54 177.348 -215.531 179.31 -217.472 178.036C-222.15 174.905 -217.153 171.402 -219.545 167.926C-221.592 164.98 -226.802 167.314 -229.328 166.2C-227.095 163.759 -223.772 156.009 -228.583 156.299C-232.943 156.593 -230.816 159.618 -233.501 161.741C-235.973 163.705 -239.961 162.431 -241.902 160.759C-246.155 157.017 -245.995 146.72 -243.443 142.95C-239.935 137.803 -234.352 142.793 -230.471 141.57C-231.401 138.333 -227.733 138.811 -225.447 138.969C-225.659 138.945 -220.237 139.98 -220.928 139.502C-219.226 140.695 -216.462 149.587 -214.681 149.427C-212.528 149.242 -216.329 137.431 -213.431 134.113C-211.57 131.963 -207.663 131.433 -206.546 128.884C-205.589 126.71 -206.971 125.647 -207.583 122.94C-205.988 123.364 -206.812 122.064 -205.137 123.788C-204.525 122.462 -203.196 118.933 -202.24 118.004C-201.043 116.942 -197.96 116.73 -195.966 116.172C-198.864 110.705 -187.858 106.777 -183.764 107.733C-184.322 107.627 -187.725 108.954 -188.204 109.909C-189.639 112.829 -185.652 110.334 -185.519 110.307C-182.116 109.909 -178.288 107.308 -177.251 104.283C-179.963 105.557 -180.734 107.733 -184.056 105.981C-188.47 103.593 -184.216 101.469 -185.226 99.8768C-188.018 95.5779 -195.035 103.38 -197.96 105.238C-197.189 103.805 -196.179 102.558 -194.929 101.523C-195.647 101.363 -196.391 101.151 -197.109 100.965C-193.414 101.788 -191.287 97.17 -188.124 96.2676C-186.023 95.6573 -183.1 96.427 -180.973 96.2676C-177.65 95.9491 -177.996 95.5778 -175.178 94.357C-172.599 93.2952 -168.506 92.8972 -169.728 89.606C-170.978 86.2357 -175.364 88.6241 -177.996 88.8896C-176.746 86.7664 -174.194 87.2176 -172.253 85.5988C-175.576 85.0681 -178.581 83.794 -180.468 80.8749C-178.421 79.6274 -184.242 73.3638 -185.279 71.0553C-186.954 72.913 -186.954 75.9116 -189.639 76.5222C-192.244 77.0796 -191.898 74.3727 -194.823 75.1424C-192.988 68.8259 -198.093 66.6494 -203.011 65.4023C-208.593 63.9425 -212.314 66.7821 -208.354 72.5675H-209.683C-210.108 73.5498 -209.816 74.1601 -210.427 75.2219C-205.19 77.398 -206.387 85.3333 -212.421 85.1214C-210.693 86.9787 -209.151 93.9058 -212.98 94.2509C-216.701 94.516 -217.578 87.2971 -217.233 84.5636C-221.539 83.8473 -224.144 83.21 -227.866 81.2995C-229.514 80.4765 -231.455 79.8663 -232.917 79.2823C-234.219 78.725 -234.538 79.9192 -235.655 79.229C-236.505 78.725 -236.638 76.8407 -237.197 76.1509C-239.111 73.7883 -240.094 75.1424 -239.722 71.2938C-239.589 69.7012 -237.994 67.1801 -236.851 66.0125C-235.628 64.7917 -232.757 64.4466 -233.05 62.6684C-233.263 61.5004 -237.941 60.8374 -238.871 60.4923C-236.426 60.7308 -231.88 63.0135 -231.215 59.9349C-228.344 61.6598 -226.989 59.696 -226.218 57.281C-228.823 57.4535 -230.79 56.1794 -233.023 55.118C-231.322 55.1839 -221.539 57.5596 -225.553 53.3136C-221.194 52.9816 -224.171 59.9349 -226.111 60.6779C-224.517 62.3766 -223.905 62.8012 -221.486 62.7746C-221.619 62.7746 -219.253 61.6598 -218.562 61.5271C-217.711 61.3947 -216.781 62.4033 -216.089 62.2967C-210.666 61.3681 -221.326 57.626 -222.23 55.6753C-219.785 55.5823 -221.273 55.622 -220.263 54.3614C-216.541 54.0832 -214.84 50.9378 -217.339 47.8458C-212.262 46.9835 -218.535 43.6792 -220.343 42.8432C-217.233 42.3653 -213.91 43.8386 -210.613 42.6444C-211.118 42.1801 -211.623 41.7154 -212.129 41.2244C-208.673 42.233 -206.28 44.3296 -203.25 46.5987C-201.974 47.5409 -199.608 48.9871 -199.528 50.8981C-199.422 53.4721 -204.287 53.3664 -202.106 56.6175C-203.914 57.0289 -210.347 55.6089 -210.055 58.7936C-209.762 61.8988 -205.057 58.5014 -203.861 58.6346C-200.06 59.112 -199.768 61.7393 -197.348 63.7302C-194.956 65.6408 -191.154 65.3757 -188.31 66.9149C-188.204 64.5261 -191.872 63.3319 -193.228 61.2353C-190.729 62.4561 -188.23 63.7036 -185.864 65.1101C-185.545 64.5261 -185.04 62.6151 -184.828 61.8988C-187.14 59.696 -189.825 57.7055 -192.085 54.7332C-190.357 52.212 -189.692 53.9635 -187.672 55.0249C-184.429 56.7367 -185.838 57.7055 -183.259 57.0023C-183.445 57.042 -180.069 54.3348 -180.096 54.3614C-179.006 52.3312 -178.82 53.8443 -180.282 51.9997C-181.744 50.1285 -196.179 46.1344 -188.975 44.6349C-189.692 44.4357 -190.41 44.2501 -191.154 44.064C-190.543 43.6128 -190.676 43.5599 -189.825 43.2149C-190.942 42.7637 -191.367 41.901 -192.749 41.6223C-192.537 41.2641 -192.324 40.9326 -192.085 40.5744C-194.743 40.0171 -195.992 39.4196 -198.412 38.7827C-197.986 38.504 -197.535 38.2118 -197.109 37.9336C-201.894 37.8139 -202.186 35.1071 -205.509 34.0588C-208.061 33.2625 -212.979 36.1152 -214.069 35.5316C-215.744 34.6559 -213.644 33.7534 -214.733 32.1875C-216.595 29.4938 -216.329 29.8389 -219.359 30.3958C-223.931 31.2454 -223.692 34.9079 -221.379 37.9336C-226.164 38.5573 -225.5 31.4179 -222.071 29.7327C-225.712 29.5868 -229.115 29.9848 -230.577 33.8596C-232.545 39.1544 -228.61 36.7525 -226.696 39.5523C-228.079 39.2073 -228.902 39.7782 -230.179 39.7249C-229.009 41.3969 -223.746 41.9543 -221.486 42.6444C-222.868 43.2013 -223.586 52.4771 -227.254 50.5797C-228.902 49.7305 -227.201 47.1425 -227.254 47.0897C-228.716 45.4574 -230.046 46.0942 -230.551 45.816C-231.162 45.4709 -233.953 44.5685 -235.043 42.9362C-236.559 40.7068 -236.957 34.5497 -241.583 37.7741C-245.943 40.7998 -236.904 46.2536 -242.008 45.1922C-241.237 47.3151 -239.642 47.2094 -237.834 45.5771C-237.888 48.815 -242.141 47.7134 -240.865 51.4288C-242.992 49.9826 -242.487 50.5797 -242.38 48.4036C-244.374 47.8593 -242.753 48.3105 -243.789 46.7979H-242.566C-242.46 44.6877 -243.869 43.4009 -245.969 43.0292C-246.501 43.5599 -247.75 44.9131 -248.229 45.4709C-247.245 45.8557 -246.474 46.8774 -245.49 47.2753C-247.75 51.3493 -252.136 49.5047 -255.885 48.6421C-258.33 48.0847 -258.623 47.1298 -260.989 48.1113C-264.471 49.5846 -262.849 49.81 -263.354 53.3136C-264.896 47.8196 -272.18 49.6641 -276.593 49.2527C-276.221 49.0404 -275.796 48.0982 -274.52 47.6601C-276.699 45.8955 -284.036 43.8124 -286.615 43.3079C-289.831 42.6973 -292.968 46.0016 -294.165 42.1002C-295.095 45.2451 -295.759 43.2546 -297.248 43.1751C-297.726 43.1485 -298.259 41.0387 -299.375 40.906C-300.863 40.733 -299.933 41.8481 -300.757 42.0071C-302.405 42.3788 -306.951 44.8336 -308.918 45.9619C-307.19 43.6927 -304.372 44.0111 -302.698 41.994C-305.888 42.0071 -309.663 43.7456 -312.853 44.4091C-318.223 45.5238 -320.375 43.3079 -325.851 42.6973C-329.972 42.2461 -333.747 41.3969 -338.027 41.0519C-342.546 40.6801 -344.885 39.0745 -349.564 39.6323C-349.404 39.2872 -349.245 38.9421 -349.086 38.5971C-351.957 38.0664 -355.838 39.8974 -358.39 40.667C-361.899 41.7153 -362.138 43.8386 -364.583 45.3381C-368.066 47.4478 -370.539 45.2053 -367.747 48.881C-365.993 51.2034 -362.191 51.5218 -360.915 54.5344C-362.909 55.1975 -365.062 55.0913 -365.168 52.8488C-367.428 54.4545 -369.98 53.8836 -371.867 56.1396C-369.422 57.1351 -369.448 59.1387 -367.348 59.6694C-364.929 60.28 -361.739 58.6346 -359.48 58.4219C-359.161 65.3224 -367.188 60.439 -368.358 66.5432C-368.651 68.1886 -364.85 75.0887 -362.404 71.0553C-361.075 72.329 -360.702 73.815 -361.287 75.5665C-358.895 75.0887 -356.21 75.9116 -355.04 74.4522C-354.296 74.4522 -353.312 74.6645 -352.302 74.6379C-354.083 82.5465 -363.095 81.2462 -367.321 86.0767C-361.208 87.5627 -351.053 78.2476 -345.789 75.3014C-346.267 74.6113 -346.719 73.9215 -347.198 73.2314C-343.982 72.1696 -342.785 66.835 -339.063 69.25C-341.695 69.5689 -343.157 71.1082 -342.386 73.6031C-340.473 72.4618 -338.319 71.4794 -336.06 71.3204C-336.246 70.9487 -336.432 70.5242 -336.618 70.1262ZM-344.354 77.8492V76.1509C-346.268 77.5308 -349.059 77.9021 -347.49 80.397C-346.241 79.8663 -345.098 78.9906 -344.354 77.8492Z" fill="#1CB45F"/>
</g>
</svg>
