<svg width="240" height="240" viewBox="0 0 240 240" fill="none" xmlns="http://www.w3.org/2000/svg">
<g clip-path="url(#clip0_8148_4433)">
<path d="M120 240C186.274 240 240 186.274 240 120C240 53.7258 186.274 0 120 0C53.7258 0 0 53.7258 0 120C0 186.274 53.7258 240 120 240Z" fill="#FFDA44"/>
<path d="M138.249 238.62C157.766 235.643 175.732 227.957 190.963 216.768L120 120L138.249 238.62Z" fill="#D80027"/>
<path d="M101.749 1.37939C82.233 4.35689 64.2677 12.0425 49.0352 23.2311L119.999 120L101.749 1.37939Z" fill="#D80027"/>
<path d="M49.0352 216.768C64.2667 227.957 82.232 235.643 101.748 238.621L119.999 120L49.0352 216.768Z" fill="#D80027"/>
<path d="M23.2306 49.0361C12.0416 64.2686 4.35687 82.2335 1.37891 101.75L119.999 120L23.2306 49.0361Z" fill="#D80027"/>
<path d="M1.37891 138.249C4.35641 157.766 12.042 175.732 23.2311 190.963L119.999 120L1.37891 138.249Z" fill="#D80027"/>
<path d="M238.62 101.75C235.642 82.2335 227.957 64.2682 216.768 49.0361L120 120L238.62 101.75Z" fill="#D80027"/>
<path d="M190.963 23.2306C175.731 12.042 157.766 4.35689 138.249 1.37939L120 120L190.963 23.2306Z" fill="#D80027"/>
<path d="M216.769 190.964C227.958 175.732 235.643 157.766 238.621 138.25L120 120L216.769 190.964Z" fill="#D80027"/>
<path d="M119.999 161.739C143.05 161.739 161.738 143.051 161.738 120C161.738 96.9479 143.05 78.2607 119.999 78.2607C96.9469 78.2607 78.2598 96.9479 78.2598 120C78.2598 143.051 96.9469 161.739 119.999 161.739Z" fill="#D80027"/>
<path d="M120 151.304C137.289 151.304 151.304 137.289 151.304 120C151.304 102.711 137.289 88.6953 120 88.6953C102.711 88.6953 88.6953 102.711 88.6953 120C88.6953 137.289 102.711 151.304 120 151.304Z" fill="#FFDA44"/>
</g>
<defs>
<clipPath id="clip0_8148_4433">
<rect width="240" height="240" fill="white"/>
</clipPath>
</defs>
</svg>
