<svg width="240" height="240" viewBox="0 0 240 240" fill="none" xmlns="http://www.w3.org/2000/svg">
<g clip-path="url(#clip0_8148_4450)">
<path d="M161.739 7.46344C148.739 2.64047 134.678 6.23894e-08 120 6.23894e-08C105.321 -0.000468688 91.2609 2.64047 78.261 7.46344L67.8262 120L78.261 232.536C91.2604 237.36 105.321 240 120 240C134.678 240 148.739 237.36 161.739 232.536L172.173 120L161.739 7.46344Z" fill="#FFDA44"/>
<path d="M239.999 120C239.999 68.4046 207.434 24.4186 161.738 7.46387V232.537C207.434 215.58 239.999 171.596 239.999 120Z" fill="#D80027"/>
<path d="M0 120C0 171.596 32.565 215.58 78.2602 232.537L78.2606 7.46436C32.565 24.419 0 68.4037 0 120H0Z" fill="#0052B4"/>
</g>
<defs>
<clipPath id="clip0_8148_4450">
<rect width="240" height="240" fill="white"/>
</clipPath>
</defs>
</svg>
