<svg width="240" height="240" viewBox="0 0 240 240" fill="none" xmlns="http://www.w3.org/2000/svg">
<g clip-path="url(#clip0_8148_4454)">
<path d="M120 240C186.274 240 240 186.274 240 120C240 53.7258 186.274 0 120 0C53.7258 0 0 53.7258 0 120C0 186.274 53.7258 240 120 240Z" fill="#F0F0F0"/>
<path d="M232.536 161.739C237.36 148.739 240 134.678 240 120C240 105.321 237.36 91.2606 232.536 78.2607H7.46391C2.64047 91.2606 0 105.321 0 120C0 134.678 2.64047 148.739 7.46391 161.739L120 172.173L232.536 161.739Z" fill="#0052B4"/>
<path d="M120.001 240C171.597 240 215.582 207.435 232.537 161.739H7.46484C24.42 207.435 68.4052 240 120.001 240Z" fill="#D80027"/>
</g>
<defs>
<clipPath id="clip0_8148_4454">
<rect width="240" height="240" fill="white"/>
</clipPath>
</defs>
</svg>
