<svg width="240" height="240" viewBox="0 0 240 240" fill="none" xmlns="http://www.w3.org/2000/svg">
<g clip-path="url(#clip0_8148_4458)">
<path d="M0 120C0 140.789 5.28891 160.343 14.5908 177.392L120 187.827L225.409 177.392C234.711 160.343 240 140.789 240 120L120 109.565L0 120Z" fill="#FFDA44"/>
<path d="M225.409 62.6086C205.057 25.3073 165.485 0 120 0C74.5148 0 34.9434 25.3073 14.5908 62.6086C5.28891 79.6575 0 99.2109 0 120H240C240 99.2109 234.711 79.6575 225.409 62.6086Z" fill="#338AF3"/>
<path d="M119.999 240C165.484 240 205.056 214.693 225.408 177.392H14.5898C34.9425 214.693 74.5139 240 119.999 240Z" fill="#496E2D"/>
<path d="M135.652 70.2288L150.308 77.1227L142.504 91.3164L158.418 88.2724L160.435 104.348L171.519 92.5244L182.604 104.348L184.62 88.2724L200.534 91.3155L192.73 77.1222L207.385 70.2288L192.73 63.3358L200.534 49.1421L184.62 52.1861L182.603 36.1104L171.519 47.9341L160.434 36.1104L158.418 52.1861L142.504 49.1421L150.308 63.3363L135.652 70.2288Z" fill="#FFDA44"/>
</g>
<defs>
<clipPath id="clip0_8148_4458">
<rect width="240" height="240" fill="white"/>
</clipPath>
</defs>
</svg>
