<svg width="240" height="240" viewBox="0 0 240 240" fill="none" xmlns="http://www.w3.org/2000/svg">
<g clip-path="url(#clip0_8148_4463)">
<path d="M120 240C186.274 240 240 186.274 240 120C240 53.7258 186.274 0 120 0C53.7258 0 0 53.7258 0 120C0 186.274 53.7258 240 120 240Z" fill="#F0F0F0"/>
<path d="M120 4.44542e-05C119.888 -0.0843306 -0.0318686 119.969 6.35322e-06 120C6.35322e-06 53.7263 53.7262 4.44542e-05 120 4.44542e-05Z" fill="#D80027"/>
<path d="M120 4.44543e-05C120.112 -0.0843306 240.032 119.968 240 120C240 53.7263 186.274 4.44543e-05 120 4.44543e-05Z" fill="#D80027"/>
<path d="M120 240C119.888 240.084 -0.0318686 120.032 6.35322e-06 120C6.35322e-06 186.274 53.7262 240 120 240Z" fill="#0052B4"/>
<path d="M120 240C120.112 240.084 240.032 120.032 240 120C240 186.274 186.274 240 120 240Z" fill="#0052B4"/>
<path d="M119.999 62.6084L132.95 102.466H174.859L140.953 127.099L153.904 166.956L119.999 142.323L86.0947 166.956L99.0453 127.099L65.1406 102.466H107.049L119.999 62.6084Z" fill="#FFDA44"/>
</g>
<defs>
<clipPath id="clip0_8148_4463">
<rect width="240" height="240" fill="white"/>
</clipPath>
</defs>
</svg>
