<svg width="240" height="240" viewBox="0 0 240 240" fill="none" xmlns="http://www.w3.org/2000/svg">
<g clip-path="url(#clip0_8148_4472)">
<path d="M11.9072 67.8264C4.27875 83.6027 0 101.301 0 120C0 138.699 4.27875 156.398 11.9072 172.174L120 182.609L228.093 172.174C235.721 156.398 240 138.699 240 120C240 101.301 235.721 83.6027 228.093 67.8264L120 57.3916L11.9072 67.8264Z" fill="#F0F0F0"/>
<path d="M11.9121 172.174C31.3212 212.313 72.4259 240 120.001 240C167.576 240 208.68 212.313 228.089 172.174H11.9121Z" fill="#496E2D"/>
<path d="M11.9121 67.8262H228.089C208.68 27.6867 167.576 0 120.001 0C72.4254 0 31.3212 27.6867 11.9121 67.8262Z" fill="black"/>
<path d="M35.1471 35.1465C-11.7157 82.0093 -11.7157 157.989 35.1471 204.853C54.5126 185.487 73.1374 166.862 120 120L35.1471 35.1465Z" fill="#D80027"/>
<path d="M151.305 119.999C151.305 102.516 163.592 87.91 180 84.3269C177.478 83.7761 174.862 83.4775 172.174 83.4775C152.003 83.4775 135.652 99.8285 135.652 119.999C135.652 140.17 152.003 156.521 172.174 156.521C174.861 156.521 177.478 156.222 180 155.672C163.592 152.088 151.305 137.483 151.305 119.999Z" fill="#D80027"/>
<path d="M181.535 96.5215L186.716 112.466H203.479L189.917 122.318L195.098 138.261L181.535 128.408L167.974 138.261L173.155 122.318L159.592 112.466H176.355L181.535 96.5215Z" fill="#D80027"/>
</g>
<defs>
<clipPath id="clip0_8148_4472">
<rect width="240" height="240" fill="white"/>
</clipPath>
</defs>
</svg>
