<svg width="240" height="240" viewBox="0 0 240 240" fill="none" xmlns="http://www.w3.org/2000/svg">
<g clip-path="url(#clip0_8148_4480)">
<path d="M240 120C240 186.274 186.274 240 120 240C53.7262 240 0 186.274 0 120C41.2172 78.7828 76.1738 43.8263 120 0C186.274 0 240 53.7262 240 120Z" fill="#D80027"/>
<path d="M120 120C120 53.7262 120 45.9131 120 0C53.7262 0 0 53.7262 0 120H120Z" fill="#0052B4"/>
<path d="M96.1195 78.2617L98.0625 84.2406H104.348L99.2625 87.9348L101.205 93.9138L96.1195 90.2186L91.0336 93.9138L92.9766 87.9348L87.8906 84.2406H94.1766L96.1195 78.2617Z" fill="#F0F0F0"/>
<path d="M64.5467 31.3047L67.7844 41.2698H78.2619L69.785 47.4269L73.0236 57.3916L64.5467 51.2327L56.0703 57.3916L59.3084 47.4269L50.832 41.2698H61.3086L64.5467 31.3047Z" fill="#F0F0F0"/>
<path d="M95.8514 41.7393L99.0891 51.7049H109.566L101.09 57.8619L104.327 67.8266L95.8514 61.6677L87.375 67.8266L90.6131 57.8619L82.1367 51.7049H92.6133L95.8514 41.7393Z" fill="#F0F0F0"/>
<path d="M71.1073 83.4785L74.3454 93.4437H84.822L76.3455 99.6007L79.5837 109.565L71.1073 103.407L62.6309 109.565L65.869 99.6007L57.3926 93.4437H67.8696L71.1073 83.4785Z" fill="#F0F0F0"/>
<path d="M43.6771 57.3916L46.9152 67.3568H57.3923L48.9154 73.5138L52.1535 83.4785L43.6771 77.32L35.2012 83.4785L38.4388 73.5138L29.9629 67.3568H40.4395L43.6771 57.3916Z" fill="#F0F0F0"/>
</g>
<defs>
<clipPath id="clip0_8148_4480">
<rect width="240" height="240" fill="white"/>
</clipPath>
</defs>
</svg>
