<svg width="240" height="240" viewBox="0 0 240 240" fill="none" xmlns="http://www.w3.org/2000/svg">
<g clip-path="url(#clip0_8148_4489)">
<path d="M240 120C240 186.273 186.274 240 120 240C53.7262 240 0 186.273 0 120C5.21719 120 120 104.348 120 104.348L240 120Z" fill="#338AF3"/>
<path d="M0 120C0 53.7262 53.7262 0 120 0C186.274 0 240 53.7262 240 120" fill="#F0F0F0"/>
<path d="M167.633 82.8018L120 130.435L72.3678 82.8018C66.208 91.9457 62.6094 102.951 62.6094 114.782V130.434C62.6094 155.567 78.8492 176.976 101.385 184.725C98.3773 190.62 98.8845 197.977 103.292 203.478C109.146 198.786 115.206 193.929 120.348 189.81C125.489 193.93 131.55 198.786 137.403 203.478C141.862 197.913 142.333 190.446 139.206 184.516C161.435 176.599 177.391 155.346 177.391 130.434V114.783C177.392 102.951 173.793 91.9461 167.633 82.8018Z" fill="#6DA544"/>
<path d="M120.001 172.174C96.9855 172.174 78.2617 153.45 78.2617 130.435V114.783C78.2617 91.7677 96.9859 73.0439 120.001 73.0439C143.015 73.0439 161.74 91.7682 161.74 114.783V130.435C161.74 153.45 143.016 172.174 120.001 172.174Z" fill="#FFDA44"/>
<path d="M146.088 130.435V114.783C146.088 100.399 134.385 88.6963 120.001 88.6963C105.617 88.6963 93.9141 100.399 93.9141 114.783V130.435L120.001 135.652L146.088 130.435Z" fill="#338AF3"/>
<path d="M93.9141 130.435C93.9141 144.819 105.617 156.521 120.001 156.521C134.385 156.521 146.088 144.819 146.088 130.435H93.9141Z" fill="#6DA544"/>
<path d="M151.304 73.0432C151.304 64.399 144.296 57.3912 135.652 57.3912C131.642 57.3912 127.987 58.9005 125.217 61.3798V52.1735H130.434V41.7387H125.217V36.5215H114.782V41.7387H109.565V52.1735H114.782V61.3798C112.012 58.9005 108.357 57.3912 104.347 57.3912C95.7031 57.3912 88.6953 64.399 88.6953 73.0432C88.6953 77.6777 90.7114 81.8402 93.9125 84.7066V93.9129H146.086V84.7066C149.288 81.8402 151.304 77.6777 151.304 73.0432Z" fill="#FFDA44"/>
</g>
<defs>
<clipPath id="clip0_8148_4489">
<rect width="240" height="240" fill="white"/>
</clipPath>
</defs>
</svg>
