<svg width="240" height="240" viewBox="0 0 240 240" fill="none" xmlns="http://www.w3.org/2000/svg">
<g clip-path="url(#clip0_8148_4497)">
<path d="M120 240C186.274 240 240 186.274 240 120C240 53.7258 186.274 0 120 0C53.7258 0 0 53.7258 0 120C0 186.274 53.7258 240 120 240Z" fill="#FFDA44"/>
<path d="M73.0447 78.2611H232.537C215.582 32.565 171.597 0 120.001 0C86.8634 0 56.8667 13.4339 35.1523 35.1511L73.0447 78.2611Z" fill="#6DA544"/>
<path d="M73.0447 161.739H232.537C215.582 207.435 171.597 240 120.001 240C86.8634 240 56.8667 226.566 35.1523 204.849L73.0447 161.739Z" fill="#6DA544"/>
<path d="M35.1471 35.1465C-11.7157 82.0093 -11.7157 157.989 35.1471 204.853C54.5126 185.487 73.1374 166.862 120 120L35.1471 35.1465Z" fill="#D80027"/>
<path d="M152.377 99.1299L157.557 115.073H174.321L160.759 124.926L165.939 140.869L152.377 131.016L138.815 140.869L143.995 124.926L130.434 115.073H147.197L152.377 99.1299Z" fill="black"/>
<path d="M204.553 99.1299L209.733 115.073H226.497L212.935 124.926L218.115 140.869L204.553 131.016L190.991 140.869L196.171 124.926L182.609 115.073H199.373L204.553 99.1299Z" fill="black"/>
</g>
<defs>
<clipPath id="clip0_8148_4497">
<rect width="240" height="240" fill="white"/>
</clipPath>
</defs>
</svg>
