<svg width="240" height="240" viewBox="0 0 240 240" fill="none" xmlns="http://www.w3.org/2000/svg">
<g clip-path="url(#clip0_8148_4505)">
<path d="M120 240C186.274 240 240 186.274 240 120C240 53.7258 186.274 0 120 0C53.7258 0 0 53.7258 0 120C0 186.274 53.7258 240 120 240Z" fill="#F0F0F0"/>
<path d="M238.984 104.348H135.653H135.652V1.01578C130.529 0.34875 125.305 0 120 0C114.695 0 109.471 0.34875 104.348 1.01578V104.347V104.348H1.01578C0.34875 109.471 0 114.695 0 120C0 125.305 0.34875 130.529 1.01578 135.652H104.347H104.348V238.984C109.471 239.651 114.695 240 120 240C125.305 240 130.529 239.652 135.652 238.984V135.653V135.652H238.984C239.651 130.529 240 125.305 240 120C240 114.695 239.651 109.471 238.984 104.348Z" fill="#D80027"/>
<path d="M177.392 41.7393C167.667 41.7393 159.496 48.3904 157.18 57.3913L177.392 62.6085L197.604 57.3913C195.287 48.3908 187.116 41.7393 177.392 41.7393Z" fill="black"/>
<path d="M156.522 88.6953L182.609 93.9125V82.8204C189.942 80.9323 195.715 75.1587 197.602 67.8256L177.392 62.6084H151.305L156.522 78.2604V88.6953Z" fill="black"/>
<path d="M197.604 57.3916H151.305V67.8264V78.2613H156.522V67.8264H197.602C198.032 66.1591 198.261 64.4107 198.261 62.6093C198.261 60.8074 198.033 59.0589 197.604 57.3916Z" fill="#ACABB1"/>
<path d="M67.8253 41.7393C58.1006 41.7393 49.9298 48.3904 47.6133 57.3913L67.8253 62.6085L88.0373 57.3913C85.7208 48.3908 77.55 41.7393 67.8253 41.7393Z" fill="black"/>
<path d="M46.9559 88.6953L73.0428 93.9125V82.8204C80.3764 80.9323 86.1486 75.1587 88.0362 67.8256L67.8256 62.6084H41.7383L46.9555 78.2604V88.6953H46.9559Z" fill="black"/>
<path d="M88.0377 57.3916H41.7383V67.8264V78.2613H46.9555V67.8264H88.0358C88.4652 66.1591 88.6948 64.4107 88.6948 62.6093C88.6948 60.8074 88.467 59.0589 88.0377 57.3916Z" fill="#ACABB1"/>
<path d="M177.392 146.087C167.667 146.087 159.496 152.738 157.18 161.739L177.392 166.956L197.604 161.739C195.287 152.738 187.116 146.087 177.392 146.087Z" fill="black"/>
<path d="M156.522 193.044L182.609 198.261V187.169C189.942 185.281 195.715 179.507 197.602 172.174L177.392 166.957H151.305L156.522 182.609V193.044Z" fill="black"/>
<path d="M197.604 161.739H151.305V172.174V182.609H156.522V172.174H197.602C198.032 170.507 198.261 168.758 198.261 166.957C198.261 165.156 198.033 163.407 197.604 161.739Z" fill="#ACABB1"/>
<path d="M67.8253 146.087C58.1006 146.087 49.9298 152.738 47.6133 161.739L67.8253 166.956L88.0373 161.739C85.7208 152.738 77.55 146.087 67.8253 146.087Z" fill="black"/>
<path d="M46.9559 193.044L73.0428 198.261V187.169C80.3764 185.281 86.1486 179.507 88.0362 172.174L67.8256 166.957H41.7383L46.9555 182.609V193.044H46.9559Z" fill="black"/>
<path d="M88.0377 161.739H41.7383V172.174V182.609H46.9555V172.174H88.0358C88.4652 170.507 88.6948 168.758 88.6948 166.957C88.6948 165.156 88.467 163.407 88.0377 161.739Z" fill="#ACABB1"/>
</g>
<defs>
<clipPath id="clip0_8148_4505">
<rect width="240" height="240" fill="white"/>
</clipPath>
</defs>
</svg>
