<svg width="240" height="240" viewBox="0 0 240 240" fill="none" xmlns="http://www.w3.org/2000/svg">
<g clip-path="url(#clip0_8148_4520)">
<path d="M120 240C186.274 240 240 186.274 240 120C240 53.7258 186.274 0 120 0C53.7258 0 0 53.7258 0 120C0 186.274 53.7258 240 120 240Z" fill="#6DA544"/>
<path d="M67.8281 143.479C67.8281 152.123 74.8359 159.131 83.4802 159.131H130.437C130.437 166.334 136.276 172.174 143.48 172.174H159.132C166.336 172.174 172.176 166.334 172.176 159.131V143.479H67.8281Z" fill="#F0F0F0"/>
<path d="M173.478 67.8262V104.348C173.478 110.102 168.797 114.783 163.043 114.783V130.435C177.428 130.435 189.13 118.732 189.13 104.348V67.8262H173.478Z" fill="#F0F0F0"/>
<path d="M61.3059 104.348C61.3059 110.102 56.625 114.783 50.8711 114.783V130.435C65.2556 130.435 76.958 118.732 76.958 104.348V67.8262H61.3059V104.348Z" fill="#F0F0F0"/>
<path d="M150 67.8262H165.652V104.348H150V67.8262Z" fill="#F0F0F0"/>
<path d="M126.524 88.6959C126.524 90.1344 125.354 91.3044 123.915 91.3044C122.477 91.3044 121.307 90.134 121.307 88.6959V67.8262H105.655V88.6959C105.655 90.1344 104.484 91.3044 103.046 91.3044C101.608 91.3044 100.438 90.134 100.438 88.6959V67.8262H84.7852V88.6959C84.7852 98.7651 92.977 106.957 103.046 106.957C106.924 106.957 110.52 105.738 113.481 103.668C116.441 105.738 120.038 106.957 123.916 106.957C124.697 106.957 125.465 106.902 126.22 106.806C125.111 111.376 120.995 114.783 116.09 114.783V130.435C130.474 130.435 142.177 118.732 142.177 104.348V88.6959V67.8262H126.525V88.6959H126.524Z" fill="#F0F0F0"/>
<path d="M84.7852 114.783H108.263V130.435H84.7852V114.783Z" fill="#F0F0F0"/>
</g>
<defs>
<clipPath id="clip0_8148_4520">
<rect width="240" height="240" fill="white"/>
</clipPath>
</defs>
</svg>
