<svg width="240" height="240" viewBox="0 0 240 240" fill="none" xmlns="http://www.w3.org/2000/svg">
<g clip-path="url(#clip0_8148_4536)">
<path d="M172.173 11.9072C156.397 4.27875 138.698 0 119.999 0C101.301 0 83.6017 4.27875 67.8255 11.9072L57.3906 120L67.8255 228.093C83.6017 235.721 101.301 240 119.999 240C138.698 240 156.397 235.721 172.173 228.093L182.608 120L172.173 11.9072Z" fill="#FFDA44"/>
<path d="M120 78.2617L130.359 110.146H163.888L136.764 129.854L147.124 161.74L120 142.033L92.8753 161.74L103.237 129.854L76.1133 110.146H109.64L120 78.2617Z" fill="#496E2D"/>
<path d="M67.8262 11.9116C27.6872 31.3212 0 72.4254 0 120C0 167.575 27.6872 208.679 67.8262 228.089V11.9116Z" fill="#496E2D"/>
<path d="M172.172 11.9116V228.089C212.311 208.679 239.998 167.575 239.998 120C239.998 72.4254 212.311 31.3212 172.172 11.9116Z" fill="#D80027"/>
</g>
<defs>
<clipPath id="clip0_8148_4536">
<rect width="240" height="240" fill="white"/>
</clipPath>
</defs>
</svg>
