<svg width="240" height="240" viewBox="0 0 240 240" fill="none" xmlns="http://www.w3.org/2000/svg">
<g clip-path="url(#clip0_8148_4542)">
<path d="M120 240C186.274 240 240 186.274 240 120C240 53.7258 186.274 0 120 0C53.7258 0 0 53.7258 0 120C0 186.274 53.7258 240 120 240Z" fill="#F0F0F0"/>
<path d="M120 0C53.7262 0 0 53.7262 0 120C0 134.678 2.64047 148.74 7.46391 161.739H232.537C237.36 148.74 240 134.678 240 120C240 53.7262 186.274 0 120 0Z" fill="#0052B4"/>
<path d="M120.001 0C68.4052 0 24.42 32.565 7.46484 78.2611H232.538C215.582 32.565 171.597 0 120.001 0Z" fill="#D80027"/>
<path d="M31.0312 67.8262V127.688C31.0312 161.74 75.5161 172.174 75.5161 172.174C75.5161 172.174 120 161.74 120 127.688V67.8262H31.0312Z" fill="#D80027"/>
<path d="M49.4277 78.2616H101.602V57.3919L91.1671 62.6091L75.5151 46.957L59.8626 62.6091L49.4277 57.3919V78.2616Z" fill="#FFDA44"/>
<path d="M109.565 136.023L75.6514 102.11L41.7383 136.023L52.8059 147.091L75.6514 124.246L98.4969 147.091L109.565 136.023Z" fill="#FFDA44"/>
<path d="M109.565 104.348H93.7414C94.6311 102.813 95.1486 101.034 95.1486 99.1321C95.1486 93.3684 90.4766 88.6973 84.7137 88.6973C80.7317 88.6973 77.2738 90.9276 75.5145 94.2065C73.7553 90.928 70.2973 88.6973 66.3153 88.6973C60.5525 88.6973 55.8805 93.3684 55.8805 99.1321C55.8805 101.034 56.398 102.813 57.2877 104.348H41.7383C41.7383 110.112 46.7581 114.783 52.5205 114.783H52.1731C52.1731 120.546 56.8447 125.218 62.608 125.218C62.608 130.321 66.2727 134.56 71.1125 135.468L62.8906 154.031C66.8309 155.633 71.1369 156.523 75.6519 156.523C80.1669 156.523 84.4728 155.633 88.4131 154.031L80.1913 135.468C85.0311 134.561 88.6958 130.321 88.6958 125.218C94.4591 125.218 99.1306 120.546 99.1306 114.783H98.7833C104.545 114.783 109.565 110.111 109.565 104.348Z" fill="#F0F0F0"/>
</g>
<defs>
<clipPath id="clip0_8148_4542">
<rect width="240" height="240" fill="white"/>
</clipPath>
</defs>
</svg>
