<svg width="240" height="240" viewBox="0 0 240 240" fill="none" xmlns="http://www.w3.org/2000/svg">
<g clip-path="url(#clip0_8148_4552)">
<path d="M120 240C186.274 240 240 186.274 240 120C240 53.7258 186.274 0 120 0C53.7258 0 0 53.7258 0 120C0 186.274 53.7258 240 120 240Z" fill="#F0F0F0"/>
<path d="M201.004 31.4705C179.657 11.9273 151.222 0 120 0C114.888 0 109.852 0.322031 104.908 0.942187L46.9561 67.8262L3.79688 150.061C6.585 160.871 10.8478 171.087 16.3477 180.491L120 120L201.004 31.4705Z" fill="#FFDA44"/>
<path d="M219.905 186.486L52.0137 218.886C71.3398 232.199 94.7576 240 120 240C161.681 240 198.394 218.745 219.905 186.486Z" fill="#6DA544"/>
<path d="M201.021 31.4863L16.416 180.607C21.2446 188.842 27.0257 196.451 33.6102 203.28L239.999 120C239.999 84.9566 224.976 53.4248 201.021 31.4863Z" fill="#D80027"/>
<path d="M0 120C0 130.382 1.31906 140.455 3.79734 150.062L104.909 0.942383C45.7584 8.36457 0 58.8377 0 120Z" fill="#0052B4"/>
</g>
<defs>
<clipPath id="clip0_8148_4552">
<rect width="240" height="240" fill="white"/>
</clipPath>
</defs>
</svg>
