<svg width="240" height="240" viewBox="0 0 240 240" fill="none" xmlns="http://www.w3.org/2000/svg">
<g clip-path="url(#clip0_8148_4558)">
<path d="M232.536 161.739C237.36 148.739 240 134.678 240 120C240 105.321 237.36 91.2609 232.536 78.261L120 67.8262L7.46391 78.261C2.64 91.2609 0 105.321 0 120C0 134.678 2.64 148.739 7.46391 161.739L120 172.174L232.536 161.739Z" fill="#F0F0F0"/>
<path d="M119.999 240C171.595 240 215.58 207.435 232.535 161.739H7.46289C24.4185 207.435 68.4032 240 119.999 240Z" fill="#338AF3"/>
<path d="M119.999 0C68.4032 0 24.4185 32.565 7.46289 78.2611H232.536C215.58 32.565 171.595 0 119.999 0Z" fill="#6DA544"/>
</g>
<defs>
<clipPath id="clip0_8148_4558">
<rect width="240" height="240" fill="white"/>
</clipPath>
</defs>
</svg>
