<svg width="240" height="240" viewBox="0 0 240 240" fill="none" xmlns="http://www.w3.org/2000/svg">
<g clip-path="url(#clip0_8148_4562)">
<path d="M120 240C186.274 240 240 186.274 240 120C240 53.7258 186.274 0 120 0C53.7258 0 0 53.7258 0 120C0 186.274 53.7258 240 120 240Z" fill="#F0F0F0"/>
<path d="M0 120C0 53.7263 53.7262 0 120 0C186.274 0 240 53.7263 240 120" fill="#D80027"/>
<path d="M73.0431 62.6082C73.0431 45.1247 85.3305 30.5194 101.739 26.9358C99.2167 26.3855 96.6006 26.0869 93.9123 26.0869C73.7416 26.0869 57.3906 42.4379 57.3906 62.6086C57.3906 82.7794 73.7416 99.1303 93.9123 99.1303C96.5997 99.1303 99.2163 98.8318 101.739 98.281C85.3305 94.6974 73.0431 80.0921 73.0431 62.6082Z" fill="#F0F0F0"/>
<path d="M119.999 28.6953L122.589 36.6664H130.971L124.19 41.5934L126.78 49.5645L119.999 44.6384L113.218 49.5645L115.808 41.5934L109.027 36.6664H117.409L119.999 28.6953Z" fill="#F0F0F0"/>
<path d="M99.6678 44.3477L102.258 52.3192H110.639L103.858 57.2458L106.449 65.2169L99.6678 60.2908L92.8859 65.2169L95.4767 57.2458L88.6953 52.3192H97.077L99.6678 44.3477Z" fill="#F0F0F0"/>
<path d="M140.333 44.3477L142.924 52.3192H151.305L144.524 57.2458L147.114 65.2169L140.333 60.2908L133.552 65.2169L136.142 57.2458L129.361 52.3192H137.743L140.333 44.3477Z" fill="#F0F0F0"/>
<path d="M132.507 67.8262L135.097 75.7977H143.478L136.697 80.7243L139.288 88.6954L132.507 83.7693L125.726 88.6954L128.316 80.7243L121.535 75.7977H129.916L132.507 67.8262Z" fill="#F0F0F0"/>
<path d="M107.494 67.8262L110.083 75.7977H118.466L111.684 80.7243L114.275 88.6954L107.494 83.7693L100.712 88.6954L103.302 80.7243L96.5215 75.7977H104.903L107.494 67.8262Z" fill="#F0F0F0"/>
</g>
<defs>
<clipPath id="clip0_8148_4562">
<rect width="240" height="240" fill="white"/>
</clipPath>
</defs>
</svg>
