<svg width="240" height="240" viewBox="0 0 240 240" fill="none" xmlns="http://www.w3.org/2000/svg">
<g clip-path="url(#clip0_8148_4587)">
<path d="M109.565 130.435C109.565 130.435 35.2168 35.1305 35.1465 35.1473C56.8618 13.4316 86.8623 0 120 0C186.273 0 240 53.7263 240 120L109.565 130.435Z" fill="#D80027"/>
<path d="M109.565 120C109.565 120 35.2168 204.87 35.1465 204.853C56.8618 226.568 86.8623 240 120 240C186.273 240 240 186.274 240 120H109.565Z" fill="#0052B4"/>
<path d="M35.1471 35.1465C-11.7157 82.0093 -11.7157 157.989 35.1471 204.853C54.5126 185.487 73.1374 166.862 120 120L35.1471 35.1465Z" fill="#F0F0F0"/>
<path d="M13.1531 120.001C13.0875 120.863 13.043 121.731 13.043 122.609C13.043 141.338 28.2267 156.522 46.9561 156.522C65.6855 156.522 80.8692 141.338 80.8692 122.609C80.8692 121.731 80.8247 120.862 80.7591 120.001H13.1531Z" fill="#FFDA44"/>
<path d="M46.9563 104.348C52.7193 104.348 57.3912 99.6764 57.3912 93.9134C57.3912 88.1504 52.7193 83.4785 46.9563 83.4785C41.1933 83.4785 36.5215 88.1504 36.5215 93.9134C36.5215 99.6764 41.1933 104.348 46.9563 104.348Z" fill="#FFDA44"/>
<path d="M23.4785 91.3047V125.218C23.4785 143.19 46.9568 148.696 46.9568 148.696C46.9568 148.696 70.4351 143.19 70.4351 125.218V91.3047H23.4785Z" fill="#D80027"/>
<path d="M46.9673 137.775C42.6116 136.208 33.9121 132.202 33.9121 125.218V101.739H59.9995V125.218C59.9995 132.225 51.3009 136.221 46.9673 137.775Z" fill="#338AF3"/>
<path d="M52.1743 114.783V109.566L46.9571 106.957L41.7395 109.566V114.783L39.1309 117.392V127.827H54.7834V117.392L52.1743 114.783Z" fill="#F3F3F3"/>
</g>
<defs>
<clipPath id="clip0_8148_4587">
<rect width="240" height="240" fill="white"/>
</clipPath>
</defs>
</svg>
