<svg width="240" height="240" viewBox="0 0 240 240" fill="none" xmlns="http://www.w3.org/2000/svg">
<g clip-path="url(#clip0_8148_4572)">
<path d="M52.3652 219.13C71.6243 232.295 94.9104 240 120 240C145.089 240 168.376 232.295 187.634 219.13L120 208.695L52.3652 219.13Z" fill="#D80027"/>
<path d="M187.634 20.8697C168.376 7.70484 145.089 0 120 0C94.9104 0 71.6234 7.70484 52.3652 20.8697L120 31.3045L187.634 20.8697Z" fill="#D80027"/>
<path d="M52.3652 219.13C71.6243 232.295 94.9104 240 120 240C145.089 240 168.376 232.295 187.634 219.13L120 208.695L52.3652 219.13Z" fill="#D80027"/>
<path d="M187.634 20.8697C168.376 7.70484 145.089 0 120 0C94.9104 0 71.6234 7.70484 52.3652 20.8697L120 31.3045L187.634 20.8697Z" fill="#D80027"/>
<path d="M239.694 112.174C236.851 75.1377 214.348 39.1302 187.634 20.8691H52.3652C22.7702 41.1009 2.69508 74.2359 0.251953 112.174L120 120L239.694 112.174Z" fill="#0052B4"/>
<path d="M0.251953 127.826C2.69508 165.765 22.7698 198.899 52.3648 219.131H187.634C217.23 198.9 237.304 165.765 239.747 127.826L120 120L0.251953 127.826Z" fill="#0052B4"/>
<path d="M239.694 112.174H127.826V15.6523H112.174V112.174H0.252656C0.08625 114.761 0 117.371 0 120C0 122.63 0.0857812 125.239 0.252187 127.826H112.174V224.348H127.826V127.826H239.748C239.914 125.239 240 122.63 240 120C240 117.39 239.895 114.779 239.694 112.174Z" fill="#D80027"/>
<path d="M46.957 120L120 74.0898L193.044 120L120 165.911L46.957 120Z" fill="#F0F0F0"/>
<path d="M78.2617 140.87H172.174L151.305 109.565L140.87 120L130.435 114.783L120.001 130.435H99.1309L88.6961 120L78.2617 140.87Z" fill="#6DA544"/>
<path d="M120 88.6953L122.591 96.6664H130.971L124.191 101.593L126.781 109.565L120 104.638L113.219 109.565L115.81 101.593L109.029 96.6664H117.41L120 88.6953Z" fill="#FFDA44"/>
<path d="M119.999 60.9727L26.0859 120L119.999 179.028L213.912 120L119.999 60.9727ZM55.4991 120L119.999 79.4597L184.499 120L119.999 160.541L55.4991 120Z" fill="#D80027"/>
</g>
<defs>
<clipPath id="clip0_8148_4572">
<rect width="240" height="240" fill="white"/>
</clipPath>
</defs>
</svg>
