<svg width="240" height="240" viewBox="0 0 240 240" fill="none" xmlns="http://www.w3.org/2000/svg">
<g clip-path="url(#clip0_8148_4597)">
<path d="M120 240C186.274 240 240 186.274 240 120C240 53.7258 186.274 0 120 0C53.7258 0 0 53.7258 0 120C0 186.274 53.7258 240 120 240Z" fill="#F0F0F0"/>
<path d="M120 240C186.274 240 240 186.273 240 120C240 105.321 237.36 91.2601 232.536 78.2607H7.46391C2.64047 91.2601 0 105.321 0 120C0 186.273 53.7262 240 120 240Z" fill="#0052B4"/>
<path d="M120.001 240C171.597 240 215.582 207.435 232.537 161.739H7.46484C24.42 207.435 68.4052 240 120.001 240Z" fill="#D80027"/>
<path d="M31.0312 67.8262V127.688C31.0312 161.74 75.5161 172.174 75.5161 172.174C75.5161 172.174 120 161.74 120 127.688V67.8262H31.0312Z" fill="#F0F0F0"/>
<path d="M41.4648 67.8262V127.688C41.4648 131.686 42.3527 135.461 44.1114 139.001H106.918C108.677 135.462 109.564 131.686 109.564 127.688V67.8262H41.4648Z" fill="#D80027"/>
<path d="M96.3834 109.565H80.7319V99.13H91.1667V88.6951H80.7319V78.2607H70.297V88.6951H59.8627V99.13H70.297V109.565H54.6445V120H70.297V130.434H80.7319V120H96.3834V109.565Z" fill="#F0F0F0"/>
<path d="M58.3459 153.567C65.0702 157.793 71.9786 160.247 75.5153 161.338C79.052 160.247 85.9605 157.793 92.6847 153.567C99.4656 149.305 104.219 144.431 106.918 139.001C103.941 136.895 100.309 135.653 96.385 135.653C94.9562 135.653 93.5683 135.822 92.2337 136.133C89.4058 129.707 82.9863 125.218 75.5158 125.218C68.0453 125.218 61.6253 129.707 58.7978 136.133C57.4633 135.822 56.0748 135.653 54.6466 135.653C50.7227 135.653 47.0903 136.895 44.1133 139.001C46.8109 144.431 51.5645 149.305 58.3459 153.567Z" fill="#0052B4"/>
</g>
<defs>
<clipPath id="clip0_8148_4597">
<rect width="240" height="240" fill="white"/>
</clipPath>
</defs>
</svg>
