<svg width="240" height="240" viewBox="0 0 240 240" fill="none" xmlns="http://www.w3.org/2000/svg">
<g clip-path="url(#clip0_8148_4605)">
<path d="M120 240C186.274 240 240 186.274 240 120C240 53.7258 186.274 0 120 0C53.7258 0 0 53.7258 0 120C0 186.274 53.7258 240 120 240Z" fill="#F0F0F0"/>
<path d="M232.536 78.2616H104.348V46.957H41.7389V78.2616H7.46391C2.64047 91.2609 0 105.322 0 120C0 134.679 2.64047 148.74 7.46391 161.739L120 172.174L232.536 161.739C237.36 148.74 240 134.679 240 120C240 105.322 237.36 91.2609 232.536 78.2616Z" fill="#0052B4"/>
<path d="M120.001 240C171.597 240 215.582 207.435 232.537 161.739H7.46484C24.42 207.435 68.4052 240 120.001 240Z" fill="#D80027"/>
<path d="M41.7383 78.2611V88.6955C41.7383 112.658 73.0428 120.001 73.0428 120.001C73.0428 120.001 104.347 112.658 104.347 88.6955V78.2611L93.9125 88.696L73.0428 73.0439L52.1731 88.696L41.7383 78.2611Z" fill="#F0F0F0"/>
</g>
<defs>
<clipPath id="clip0_8148_4605">
<rect width="240" height="240" fill="white"/>
</clipPath>
</defs>
</svg>
