<svg width="240" height="240" viewBox="0 0 240 240" fill="none" xmlns="http://www.w3.org/2000/svg">
<g clip-path="url(#clip0_8148_4610)">
<path d="M204.856 204.856C249.861 159.85 251.638 87.9983 210.205 40.8613L119.999 119.999L40.8613 210.205C87.9983 251.638 159.85 249.861 204.856 204.856Z" fill="#496E2D"/>
<path d="M35.1438 35.144C80.1488 -9.86107 152.001 -11.6381 199.138 29.7942L120 120.001L29.7944 199.138C-11.6383 152.001 -9.86083 80.1491 35.1438 35.144Z" fill="#0052B4"/>
<path d="M199.137 29.7939L29.793 199.138C31.5048 201.086 33.2823 202.996 35.1428 204.856C37.0028 206.716 38.9139 208.493 40.862 210.206L210.205 40.862C208.493 38.9139 206.715 37.0033 204.854 35.1428C202.995 33.2838 201.084 31.5058 199.137 29.7939Z" fill="#FFDA44"/>
<path d="M50.5599 41.7354L53.1507 49.7074H61.5324L54.7515 54.6335L57.3413 62.6055L50.5599 57.6784L43.7785 62.6055L46.3693 54.6335L39.5879 49.7074H47.9701L50.5599 41.7354Z" fill="#F0F0F0"/>
<path d="M93.3744 41.7354L95.9651 49.7074H104.346L97.5654 54.6335L100.156 62.6055L93.3744 57.6784L86.593 62.6055L89.1837 54.6335L82.4023 49.7074H90.784L93.3744 41.7354Z" fill="#F0F0F0"/>
<path d="M50.5599 83.4756L53.1507 91.4476H61.5324L54.7515 96.3742L57.3413 104.346L50.5599 99.4191L43.7785 104.346L46.3693 96.3742L39.5879 91.4476H47.9701L50.5599 83.4756Z" fill="#F0F0F0"/>
<path d="M93.3744 83.4756L95.9651 91.4476H104.346L97.5654 96.3742L100.156 104.346L93.3744 99.4191L86.593 104.346L89.1837 96.3742L82.4023 91.4476H90.784L93.3744 83.4756Z" fill="#F0F0F0"/>
<path d="M71.9686 62.6055L74.5593 70.5775H82.9406L76.1597 75.504L78.75 83.476L71.9686 78.549L65.1872 83.476L67.7775 75.504L60.9961 70.5775H69.3783L71.9686 62.6055Z" fill="#F0F0F0"/>
</g>
<defs>
<clipPath id="clip0_8148_4610">
<rect width="240" height="240" fill="white"/>
</clipPath>
</defs>
</svg>
