<svg width="240" height="240" viewBox="0 0 240 240" fill="none" xmlns="http://www.w3.org/2000/svg">
<g clip-path="url(#clip0_8148_4623)">
<path d="M232.536 161.739C237.36 148.739 240 134.678 240 120C240 105.321 237.36 91.2609 232.536 78.261L120 67.8262L7.46391 78.261C2.64047 91.2609 0 105.321 0 120C0 134.678 2.64047 148.739 7.46391 161.739L120 172.174L232.536 161.739Z" fill="#F0F0F0"/>
<path d="M119.999 240C171.595 240 215.58 207.435 232.535 161.739H7.46289C24.4185 207.435 68.4032 240 119.999 240Z" fill="#D80027"/>
<path d="M119.999 0C68.4032 0 24.4185 32.565 7.46289 78.2611H232.536C215.58 32.565 171.595 0 119.999 0Z" fill="#496E2D"/>
<path d="M120 93.9131L126.475 113.841H147.429L130.477 126.158L136.952 146.087L120 133.771L103.047 146.087L109.523 126.158L92.5703 113.841H113.525L120 93.9131Z" fill="black"/>
<path d="M155.652 23.4785V47.8259C155.652 51.6626 152.531 54.7826 148.695 54.7826V65.2174C158.285 65.2174 166.086 57.416 166.086 47.8259V23.4785H155.652Z" fill="#F0F0F0"/>
<path d="M80.8688 47.8259C80.8688 51.6626 77.7484 54.7826 73.9121 54.7826V65.2174C83.5023 65.2174 91.3037 57.416 91.3037 47.8259V23.4785H80.8688V47.8259Z" fill="#F0F0F0"/>
<path d="M139.998 23.4785H150.433V47.8259H139.998V23.4785Z" fill="#F0F0F0"/>
<path d="M124.346 37.391C124.346 38.3501 123.565 39.1305 122.607 39.1305C121.648 39.1305 120.867 38.3501 120.867 37.391V23.4785H110.432V37.391C110.432 38.3501 109.652 39.1305 108.693 39.1305C107.734 39.1305 106.954 38.3501 106.954 37.391V23.4785H96.5195V37.391C96.5195 44.1045 101.98 49.5654 108.693 49.5654C111.279 49.5654 113.677 48.753 115.65 47.3735C117.624 48.753 120.021 49.5654 122.606 49.5654C123.127 49.5654 123.639 49.5288 124.142 49.4646C123.403 52.511 120.659 54.7826 117.389 54.7826V65.2174C126.979 65.2174 134.78 57.416 134.78 47.8259V37.391V23.4785H124.345L124.346 37.391Z" fill="#F0F0F0"/>
<path d="M96.5215 54.7832H112.174V65.218H96.5215V54.7832Z" fill="#F0F0F0"/>
</g>
<defs>
<clipPath id="clip0_8148_4623">
<rect width="240" height="240" fill="white"/>
</clipPath>
</defs>
</svg>
