<svg width="240" height="240" viewBox="0 0 240 240" fill="none" xmlns="http://www.w3.org/2000/svg">
<g clip-path="url(#clip0_8148_4663)">
<path d="M120 240C186.274 240 240 186.274 240 120C240 53.7258 186.274 0 120 0C53.7258 0 0 53.7258 0 120C0 186.274 53.7258 240 120 240Z" fill="#F0F0F0"/>
<path d="M230.638 73.478C212.465 30.3103 169.775 0 119.999 0C86.8615 0 56.8648 13.4339 35.1504 35.1511L65.202 73.478H230.638Z" fill="black"/>
<path d="M65.5427 166.088L35.1504 204.849C56.8648 226.566 86.8615 240 119.999 240C169.943 240 212.755 209.488 230.823 166.088H65.5427Z" fill="#496E2D"/>
<path d="M26.0859 88.2607V151.304H235.866C238.557 141.324 239.999 130.831 239.999 120C239.999 109.011 238.519 98.3707 235.752 88.2607H26.0859Z" fill="#A2001D"/>
<path d="M35.1471 35.1465C-11.7157 82.0093 -11.7157 157.989 35.1471 204.853C54.5126 185.487 73.1374 166.862 120 120L35.1471 35.1465Z" fill="#0052B4"/>
<path d="M39.087 90.165L53.733 110.603L77.6993 102.988L62.7879 123.235L77.434 143.674L53.5709 135.749L38.659 155.995L38.823 130.85L14.959 122.924L38.9234 115.309L39.087 90.165Z" fill="#FFDA44"/>
</g>
<defs>
<clipPath id="clip0_8148_4663">
<rect width="240" height="240" fill="white"/>
</clipPath>
</defs>
</svg>
