<svg width="240" height="240" viewBox="0 0 240 240" fill="none" xmlns="http://www.w3.org/2000/svg">
<g clip-path="url(#clip0_8148_4634)">
<path d="M120 240C186.274 240 240 186.274 240 120C240 53.7258 186.274 0 120 0C53.7258 0 0 53.7258 0 120C0 186.274 53.7258 240 120 240Z" fill="#F0F0F0"/>
<path d="M35.1471 204.853C-11.7157 157.989 -11.7157 82.0098 35.1471 35.1465C35.1438 35.1516 104.348 120 104.348 120L35.1471 204.853Z" fill="black"/>
<path d="M104.347 120L15.9148 60.2402C13.173 65.006 10.7552 69.9804 8.67773 75.1291L53.4476 120L8.67914 164.874C10.7548 170.019 13.1702 174.99 15.9101 179.752L104.347 120Z" fill="#FFDA44"/>
<path d="M238.984 104.348H104.344L35.1453 35.1484C27.6884 42.6053 21.2098 51.0386 15.9148 60.2406L75.5581 120L15.9102 179.751C21.2052 188.956 27.6866 197.392 35.1453 204.85L104.344 135.652H238.984C239.651 130.528 239.999 125.305 239.999 120C239.999 114.695 239.651 109.471 238.984 104.348Z" fill="#6DA544"/>
<path d="M46.9395 215.193C67.1749 230.747 92.5048 240 120 240C175.443 240 222.096 202.397 235.866 151.305H110.828L46.9395 215.193Z" fill="#0052B4"/>
<path d="M235.866 88.6955C222.096 37.6036 175.443 0 120 0C92.5048 0 67.1749 9.25359 46.9395 24.8077L110.827 88.6955H235.866Z" fill="#D80027"/>
</g>
<defs>
<clipPath id="clip0_8148_4634">
<rect width="240" height="240" fill="white"/>
</clipPath>
</defs>
</svg>
