<svg width="240" height="240" viewBox="0 0 240 240" fill="none" xmlns="http://www.w3.org/2000/svg">
<g clip-path="url(#clip0_8148_4641)">
<path d="M120 240C186.274 240 240 186.274 240 120C240 53.7258 186.274 0 120 0C53.7258 0 0 53.7258 0 120C0 186.274 53.7258 240 120 240Z" fill="#F0F0F0"/>
<path d="M161.74 120C161.74 130.434 143.052 156.521 120.001 156.521C96.9489 156.521 78.2617 130.434 78.2617 120C78.2617 96.9475 96.9489 78.2607 120.001 78.2607C143.052 78.2607 161.74 96.9475 161.74 120Z" fill="#D80027"/>
<path d="M161.74 120C161.74 143.052 143.052 161.739 120.001 161.739C96.9489 161.739 78.2617 143.052 78.2617 120" fill="#0052B4"/>
<path d="M164.238 156.895L175.304 145.829L182.682 153.206L171.616 164.272L164.238 156.895Z" fill="black"/>
<path d="M145.789 175.339L156.855 164.273L164.232 171.65L153.167 182.716L145.789 175.339Z" fill="black"/>
<path d="M186.371 179.025L197.437 167.959L204.815 175.337L193.749 186.403L186.371 179.025Z" fill="black"/>
<path d="M167.924 197.473L178.99 186.407L186.367 193.784L175.301 204.85L167.924 197.473Z" fill="black"/>
<path d="M175.305 167.961L186.371 156.895L193.748 164.272L182.682 175.338L175.305 167.961Z" fill="black"/>
<path d="M156.861 186.404L167.927 175.338L175.305 182.716L164.239 193.782L156.861 186.404Z" fill="black"/>
<path d="M186.42 83.126L156.911 53.6166L164.288 46.2391L193.797 75.7485L186.42 83.126Z" fill="black"/>
<path d="M156.906 75.752L145.84 64.686L153.217 57.3089L164.283 68.3748L156.906 75.752Z" fill="black"/>
<path d="M175.35 94.1992L164.284 83.1332L171.661 75.7561L182.727 86.8221L175.35 94.1992Z" fill="black"/>
<path d="M179.035 53.6152L167.969 42.5493L175.347 35.1718L186.413 46.2378L179.035 53.6152Z" fill="black"/>
<path d="M197.488 72.0654L186.422 60.9994L193.8 53.622L204.866 64.688L197.488 72.0654Z" fill="black"/>
<path d="M42.541 167.939L72.0504 197.449L64.673 204.826L35.1636 175.317L42.541 167.939Z" fill="black"/>
<path d="M72.0488 175.312L83.1148 186.378L75.7377 193.755L64.6717 182.689L72.0488 175.312Z" fill="black"/>
<path d="M53.6035 156.872L64.6695 167.938L57.2921 175.315L46.2261 164.25L53.6035 156.872Z" fill="black"/>
<path d="M64.6719 145.803L94.1813 175.312L86.8039 182.69L57.2944 153.18L64.6719 145.803Z" fill="black"/>
<path d="M72.0469 42.5264L42.5375 72.0358L35.16 64.6583L64.6694 35.1489L72.0469 42.5264Z" fill="black"/>
<path d="M83.1133 53.5918L53.6039 83.1012L46.2264 75.7238L75.7358 46.2144L83.1133 53.5918Z" fill="black"/>
<path d="M94.1895 64.6641L64.68 94.1735L57.3029 86.7964L86.8123 57.287L94.1895 64.6641Z" fill="black"/>
</g>
<defs>
<clipPath id="clip0_8148_4641">
<rect width="240" height="240" fill="white"/>
</clipPath>
</defs>
</svg>
