<svg width="240" height="240" viewBox="0 0 240 240" fill="none" xmlns="http://www.w3.org/2000/svg">
<g clip-path="url(#clip0_8148_4675)">
<path d="M120 240C186.274 240 240 186.274 240 120C240 53.7257 186.274 0 120 0C53.7257 0 0 53.7257 0 120C0 186.274 53.7257 240 120 240Z" fill="#FFDA44"/>
<path d="M93.913 20.8701H52.3653C50.524 22.1287 48.7221 23.4389 46.9563 24.795L36.5215 120L46.9563 215.205C48.7221 216.562 50.524 217.872 52.3653 219.13H93.913V20.8701Z" fill="#FF9811"/>
<path d="M0 120.001C0 158.787 18.4069 193.27 46.9567 215.206V24.7949C18.4069 46.7315 0 81.2138 0 120.001Z" fill="#6DA544"/>
<path d="M193.043 73.1553V76.1576L193.155 76.1745L193.043 73.1553Z" fill="#FFDA44"/>
<path d="M230.436 151.305H207.827L198.262 161.74V182.609H177.392V172.174H187.827V151.305H140.871V164.348H130.436V139.49C127.234 136.624 125.218 132.461 125.218 127.826V60.0005C125.218 51.3563 132.226 44.3484 140.871 44.3484V140.87H161.74L168.901 134.903C167.65 131.924 166.957 128.652 166.957 125.218V109.566H151.305V78.2621H182.61C182.61 73.0449 190.436 67.8272 190.436 67.8272C190.436 67.8272 198.262 73.0444 198.262 78.2621V86.0884V109.567C204.067 109.636 213.289 109.485 223.252 109.567C220.635 104.992 219.131 99.5631 219.131 93.9146C219.131 84.7079 223.106 76.4307 229.434 70.7026C220.313 50.4924 205.761 33.2601 187.635 20.8701H109.566V219.131H187.636C209.676 204.065 226.434 181.841 234.564 155.808L230.436 151.305Z" fill="#A2001D"/>
</g>
<defs>
<clipPath id="clip0_8148_4675">
<rect width="240" height="240" fill="white"/>
</clipPath>
</defs>
</svg>
