<svg width="240" height="240" viewBox="0 0 240 240" fill="none" xmlns="http://www.w3.org/2000/svg">
<g clip-path="url(#clip0_8148_4682)">
<path d="M120 240C186.274 240 240 186.274 240 120C240 53.7258 186.274 0 120 0C53.7258 0 0 53.7258 0 120C0 186.274 53.7258 240 120 240Z" fill="#F0F0F0"/>
<path d="M214.259 96.5219H174.781C174.781 89.3183 168.941 83.4785 161.738 83.4785L151.303 104.348C151.303 104.348 162.433 135.652 162.085 135.652H175.129C182.333 135.652 188.172 129.813 188.172 122.609C195.376 122.609 201.215 116.77 201.215 109.566H200.781C207.985 109.565 214.259 103.726 214.259 96.5219Z" fill="#ACABB1"/>
<path d="M25.7383 96.5219H65.2164C65.2164 89.3183 71.0562 83.4785 78.2598 83.4785L88.6948 104.348C88.6948 104.348 77.5641 135.652 77.9122 135.652H64.8688C57.6648 135.652 51.8255 129.813 51.8255 122.609C44.6214 122.609 38.7821 116.77 38.7821 109.566H39.2165C32.0125 109.565 25.7383 103.726 25.7383 96.5219Z" fill="#ACABB1"/>
<path d="M161.738 166.956V172.173H78.2601V166.956H57.3906V187.826H78.2601V193.043H161.738V187.826H182.608V166.956H161.738Z" fill="#FFDA44"/>
<path d="M78.2598 83.478V135.651C78.2598 167.601 119.999 177.391 119.999 177.391C119.999 177.391 161.738 167.601 161.738 135.651V83.478L119.999 78.2607L78.2598 83.478Z" fill="#0052B4"/>
<path d="M78.2617 104.35H161.74V135.654H78.2617V104.35Z" fill="#D80027"/>
<path d="M140.868 57.391V65.2171L135.651 67.826L130.434 62.6083V46.9561H109.564V62.6083L104.347 67.826L99.1292 65.2171V57.391H78.2598V83.4777H161.738V57.391H140.868Z" fill="#FFDA44"/>
</g>
<defs>
<clipPath id="clip0_8148_4682">
<rect width="240" height="240" fill="white"/>
</clipPath>
</defs>
</svg>
