<svg width="240" height="240" viewBox="0 0 240 240" fill="none" xmlns="http://www.w3.org/2000/svg">
<g clip-path="url(#clip0_8148_4696)">
<path d="M177.391 14.5908C160.343 5.28891 140.789 0 120 0C99.211 0 79.6576 5.28891 62.6087 14.5908L52.1738 120L62.6087 225.409C79.6576 234.711 99.211 240 120 240C140.789 240 160.343 234.711 177.391 225.409L187.826 120L177.391 14.5908Z" fill="#FFDA44"/>
<path d="M62.6086 225.408V14.5898C25.3073 34.943 0 74.5144 0 120C0 165.485 25.3073 205.056 62.6086 225.408Z" fill="#338AF3"/>
<path d="M239.999 120C239.999 74.5144 214.692 34.943 177.391 14.5898V225.408C214.692 205.056 239.999 165.485 239.999 120Z" fill="#6DA544"/>
<path d="M93.9131 151.304L73.043 120L93.9127 88.6953L114.783 120L93.9131 151.304Z" fill="#6DA544"/>
<path d="M146.086 151.304L125.217 120L146.086 88.6953L166.956 120L146.086 151.304Z" fill="#6DA544"/>
<path d="M120.001 193.043L99.1309 161.739L120.001 130.435L140.87 161.739L120.001 193.043Z" fill="#6DA544"/>
</g>
<defs>
<clipPath id="clip0_8148_4696">
<rect width="240" height="240" fill="white"/>
</clipPath>
</defs>
</svg>
