<svg width="240" height="240" viewBox="0 0 240 240" fill="none" xmlns="http://www.w3.org/2000/svg">
<g clip-path="url(#clip0_8148_4704)">
<path d="M11.9072 67.8264C4.27875 83.6027 0 101.301 0 120C0 138.699 4.27875 156.398 11.9072 172.174L120 182.609L228.093 172.174C235.721 156.398 240 138.699 240 120C240 101.301 235.721 83.6027 228.093 67.8264L120 57.3916L11.9072 67.8264Z" fill="#F0F0F0"/>
<path d="M11.9121 172.174C31.3212 212.313 72.4254 240 120.001 240C167.576 240 208.68 212.313 228.089 172.174H11.9121Z" fill="black"/>
<path d="M11.9121 67.8262H228.089C208.68 27.6867 167.576 0 120.001 0C72.4254 0 31.3212 27.6867 11.9121 67.8262Z" fill="#D80027"/>
<path d="M35.1471 35.1465C-11.7157 82.0093 -11.7157 157.989 35.1471 204.853C54.5126 185.487 73.1374 166.862 120 120L35.1471 35.1465Z" fill="#496E2D"/>
</g>
<defs>
<clipPath id="clip0_8148_4704">
<rect width="240" height="240" fill="white"/>
</clipPath>
</defs>
</svg>
