<svg width="240" height="240" viewBox="0 0 240 240" fill="none" xmlns="http://www.w3.org/2000/svg">
<g clip-path="url(#clip0_8148_4709)">
<path d="M120 240C186.274 240 240 186.274 240 120C240 53.7258 186.274 0 120 0C53.7258 0 0 53.7258 0 120C0 186.274 53.7258 240 120 240Z" fill="#F0F0F0"/>
<path d="M232.536 78.2607H7.46344C2.64047 91.2611 0 105.321 0 120C0 134.678 2.64047 148.739 7.46344 161.739H232.536C237.36 148.739 240 134.678 240 120C240 105.321 237.36 91.2611 232.536 78.2607Z" fill="#A2001D"/>
<path d="M120.347 240C161.448 240 197.718 219.332 219.345 187.826H21.3496C42.9768 219.332 79.2459 240 120.347 240Z" fill="#6DA544"/>
<path d="M120.347 0.000976562C161.448 0.000976562 197.718 20.6691 219.345 52.1747H21.3496C42.9768 20.6691 79.2459 0.000976562 120.347 0.000976562Z" fill="#6DA544"/>
<path d="M120 78.2607L130.36 110.145H163.888L136.764 129.853L147.125 161.739L120 142.033L92.8763 161.739L103.238 129.853L76.1133 110.145H109.641L120 78.2607Z" fill="#FFDA44"/>
</g>
<defs>
<clipPath id="clip0_8148_4709">
<rect width="240" height="240" fill="white"/>
</clipPath>
</defs>
</svg>
