<svg width="240" height="240" viewBox="0 0 240 240" fill="none" xmlns="http://www.w3.org/2000/svg">
<g clip-path="url(#clip0_8148_4716)">
<path d="M228.093 172.174C235.721 156.398 240 138.698 240 120C240 101.301 235.721 83.6018 228.093 67.8261L120 62.6084L11.9072 67.8256C4.27875 83.6018 0 101.301 0 120C0 138.698 4.27875 156.398 11.9072 172.174L120 177.391L228.093 172.174Z" fill="#FFDA44"/>
<path d="M119.999 0C72.4237 0 31.3162 27.6867 11.9062 67.8262H228.091C208.682 27.6867 167.574 0 119.999 0Z" fill="black"/>
<path d="M119.999 240C72.4237 240 31.3162 212.313 11.9062 172.174H228.091C208.682 212.313 167.574 240 119.999 240Z" fill="#0052B4"/>
<path d="M234.333 83.4785H5.66672C1.99078 94.9952 0 107.265 0 120C0 132.736 1.99078 145.005 5.66672 156.522H234.333C238.009 145.005 240 132.736 240 120C240 107.265 238.009 94.9952 234.333 83.4785Z" fill="#A2001D"/>
<path d="M41.7383 114.783H198.26V125.218H41.7383V114.783Z" fill="#FFDA44"/>
<path d="M62.6074 93.9131H177.39V104.348H62.6074V93.9131Z" fill="#FFDA44"/>
<path d="M178.137 120C178.137 120 151.304 151.304 120 151.304C88.6958 151.304 88.6953 120 88.6953 120C88.6953 120 88.6953 88.6953 120 88.6953C151.304 88.6953 178.137 120 178.137 120Z" fill="#F0F0F0"/>
<path d="M120 151.304C88.6955 151.304 61.8633 120 61.8633 120C61.8633 120 88.6955 88.6953 120 88.6953" fill="black"/>
<path d="M99.1309 109.565H109.566V130.435H99.1309V109.565Z" fill="#F0F0F0"/>
<path d="M130.436 109.565H140.87V130.435H130.436V109.565Z" fill="black"/>
<path d="M41.7395 130.435C47.5025 130.435 52.1744 125.763 52.1744 120C52.1744 114.237 47.5025 109.565 41.7395 109.565C35.9765 109.565 31.3047 114.237 31.3047 120C31.3047 125.763 35.9765 130.435 41.7395 130.435Z" fill="#0052B4"/>
<path d="M198.261 130.435C204.024 130.435 208.696 125.763 208.696 120C208.696 114.237 204.024 109.565 198.261 109.565C192.498 109.565 187.826 114.237 187.826 120C187.826 125.763 192.498 130.435 198.261 130.435Z" fill="#0052B4"/>
</g>
<defs>
<clipPath id="clip0_8148_4716">
<rect width="240" height="240" fill="white"/>
</clipPath>
</defs>
</svg>
