<svg width="240" height="240" viewBox="0 0 240 240" fill="none" xmlns="http://www.w3.org/2000/svg">
<g clip-path="url(#clip0_8148_4748)">
<path d="M240 120C240 186.274 186.274 240 120 240C53.7262 240 0 186.274 0 120C41.2172 78.7828 76.1738 43.8263 120 0C186.274 0 240 53.7262 240 120Z" fill="#D80027"/>
<path d="M120 120C120 53.7262 120 45.9131 120 0C53.7262 0 0 53.7262 0 120H120Z" fill="#0052B4"/>
<path d="M104.348 70.2288L89.6926 77.1232L97.4963 91.3164L81.5827 88.2714L79.5657 104.348L68.4816 92.5244L57.3966 104.348L55.3805 88.2714L39.4665 91.3155L47.2702 77.1222L32.6152 70.2288L47.2707 63.3358L39.4665 49.1421L55.3801 52.1866L57.3971 36.1104L68.4816 47.9341L79.5662 36.1104L81.5827 52.1866L97.4968 49.1421L89.6926 63.3363L104.348 70.2288Z" fill="#F0F0F0"/>
<path d="M68.4838 92.5634C80.8204 92.5634 90.8212 82.5626 90.8212 70.226C90.8212 57.8894 80.8204 47.8887 68.4838 47.8887C56.1473 47.8887 46.1465 57.8894 46.1465 70.226C46.1465 82.5626 56.1473 92.5634 68.4838 92.5634Z" fill="#0052B4"/>
<path d="M68.4821 82.1312C61.9191 82.1312 56.5801 76.7916 56.5801 70.2287C56.5801 63.6657 61.9196 58.3262 68.4821 58.3262C75.0451 58.3262 80.3846 63.6657 80.3846 70.2287C80.3841 76.7916 75.0441 82.1312 68.4821 82.1312Z" fill="#F0F0F0"/>
</g>
<defs>
<clipPath id="clip0_8148_4748">
<rect width="240" height="240" fill="white"/>
</clipPath>
</defs>
</svg>
