<svg width="240" height="240" viewBox="0 0 240 240" fill="none" xmlns="http://www.w3.org/2000/svg">
<g clip-path="url(#clip0_8148_4754)">
<path d="M11.9072 67.8264C4.27875 83.6027 0 101.302 0 120C0 138.699 4.27875 156.398 11.9072 172.174L120 182.609L228.093 172.174C235.721 156.398 240 138.699 240 120C240 101.302 235.721 83.6027 228.093 67.8264L120 57.3916L11.9072 67.8264Z" fill="#F0F0F0"/>
<path d="M11.9121 172.174C31.3216 212.313 72.4259 240 120.001 240C167.576 240 208.68 212.313 228.089 172.174H11.9121Z" fill="#6DA544"/>
<path d="M11.9121 67.8262H228.089C208.68 27.6872 167.576 0 120.001 0C72.4259 0 31.3216 27.6872 11.9121 67.8262Z" fill="#D80027"/>
<path d="M99.1289 151.304H140.868V133.565L132.52 137.739L119.999 125.217L107.477 137.739L99.1289 133.565V151.304Z" fill="#FFDA44"/>
<path d="M75.2484 130.435L77.1914 136.413H83.4773L78.3914 140.108L80.3344 146.087L75.2484 142.392L70.1625 146.087L72.1055 140.108L67.0195 136.413H73.3055L75.2484 130.435Z" fill="#FFDA44"/>
<path d="M81.2719 109.564L83.2148 115.543H89.5008L84.4148 119.238L86.3573 125.216L81.2719 121.522L76.1859 125.216L78.1289 119.238L73.043 115.543H79.3289L81.2719 109.564Z" fill="#FFDA44"/>
<path d="M98.4887 93.9131L100.432 99.8915H106.717L101.632 103.587L103.574 109.565L98.4887 105.87L93.4032 109.565L95.3457 103.587L90.2598 99.8915H96.5462L98.4887 93.9131Z" fill="#FFDA44"/>
<path d="M164.75 130.435L162.807 136.413H156.521L161.607 140.108L159.664 146.087L164.75 142.392L169.836 146.087L167.893 140.108L172.979 136.413H166.693L164.75 130.435Z" fill="#FFDA44"/>
<path d="M158.727 109.564L156.784 115.543H150.498L155.584 119.238L153.641 125.216L158.727 121.522L163.813 125.216L161.87 119.238L166.956 115.543H160.67L158.727 109.564Z" fill="#FFDA44"/>
<path d="M141.508 93.9131L139.565 99.8915H133.279L138.364 103.587L136.422 109.565L141.508 105.87L146.593 109.565L144.651 103.587L149.736 99.8915H143.45L141.508 93.9131Z" fill="#FFDA44"/>
<path d="M119.998 86.0859L121.941 92.0644H128.227L123.141 95.7595L125.084 101.738L119.998 98.0433L114.912 101.738L116.855 95.7595L111.77 92.0644H118.055L119.998 86.0859Z" fill="#FFDA44"/>
</g>
<defs>
<clipPath id="clip0_8148_4754">
<rect width="240" height="240" fill="white"/>
</clipPath>
</defs>
</svg>
