<svg width="240" height="240" viewBox="0 0 240 240" fill="none" xmlns="http://www.w3.org/2000/svg">
<g clip-path="url(#clip0_8148_4767)">
<path d="M120 240C186.274 240 240 186.274 240 120C240 53.7258 186.274 0 120 0C53.7258 0 0 53.7258 0 120C0 186.274 53.7258 240 120 240Z" fill="#FFDA44"/>
<path d="M35.1466 204.853C40.1805 209.887 45.5514 214.376 51.1853 218.328L218.327 51.1858C214.376 45.5519 209.886 40.1809 204.852 35.147C199.818 30.1131 194.447 25.6244 188.814 21.6719L21.6719 188.815C25.6234 194.447 30.1131 199.818 35.1466 204.853Z" fill="black"/>
<path d="M35.1461 35.1465C-2.71104 73.0047 -9.97901 129.86 13.3286 175.021L175.02 13.3295C129.859 -9.97814 73.0038 -2.7097 35.1461 35.1465Z" fill="#6DA544"/>
<path d="M204.854 204.854C242.711 166.996 249.979 110.14 226.672 64.9795L64.9805 226.671C110.14 249.979 166.996 242.711 204.854 204.854Z" fill="#338AF3"/>
</g>
<defs>
<clipPath id="clip0_8148_4767">
<rect width="240" height="240" fill="white"/>
</clipPath>
</defs>
</svg>
