<svg width="240" height="240" viewBox="0 0 240 240" fill="none" xmlns="http://www.w3.org/2000/svg">
<g clip-path="url(#clip0_8148_4772)">
<path d="M120 240C186.274 240 240 186.274 240 120C240 53.7258 186.274 0 120 0C53.7258 0 0 53.7258 0 120C0 186.274 53.7258 240 120 240Z" fill="#F0F0F0"/>
<path d="M232.536 78.2607H7.46391C2.64 91.2606 0 105.321 0 120C0 134.678 2.64 148.739 7.46391 161.739H232.537C237.36 148.739 240 134.678 240 120C240 105.321 237.36 91.2606 232.536 78.2607Z" fill="#0052B4"/>
<path d="M120.001 0C83.6305 0 51.0416 16.1831 29.0352 41.7389H210.967C188.961 16.1831 156.372 0 120.001 0Z" fill="#D80027"/>
<path d="M210.967 198.261H29.0352C51.0416 223.817 83.6305 240 120.001 240C156.372 240 188.961 223.817 210.967 198.261Z" fill="#D80027"/>
</g>
<defs>
<clipPath id="clip0_8148_4772">
<rect width="240" height="240" fill="white"/>
</clipPath>
</defs>
</svg>
