<svg width="240" height="240" viewBox="0 0 240 240" fill="none" xmlns="http://www.w3.org/2000/svg">
<g clip-path="url(#clip0_8148_4778)">
<path d="M120 240C186.274 240 240 186.274 240 120C240 53.7258 186.274 0 120 0C53.7258 0 0 53.7258 0 120C0 186.274 53.7258 240 120 240Z" fill="#F0F0F0"/>
<path d="M52.3672 20.8697C71.6258 7.70437 94.9123 0 120.002 0C145.091 0 168.378 7.70437 187.636 20.8697L120.002 26.0869L52.3672 20.8697Z" fill="#FFDA44"/>
<path d="M35.1534 204.847L90.4856 149.516L120 99.1307L149.511 149.512L204.847 204.847C226.564 183.133 240 153.138 240 120C240 78.8156 219.249 42.4809 187.635 20.8701H52.3655C20.7511 42.4809 0 78.8156 0 120C0 153.138 13.4363 183.133 35.1534 204.847Z" fill="#D80027"/>
<path d="M230.884 165.948L143.148 129.593L149.508 149.507L204.847 204.847C215.897 193.799 224.802 180.607 230.884 165.948Z" fill="#0052B4"/>
<path d="M240 120C240 103.723 236.756 88.2048 230.884 74.0527L120 120H240Z" fill="#0052B4"/>
<path d="M204.847 35.1539C199.572 29.8804 193.812 25.0931 187.635 20.8701H161.077L120 120L204.847 35.1539Z" fill="#0052B4"/>
<path d="M119.999 20.8701H78.9219L119.999 120V20.8701Z" fill="#0052B4"/>
<path d="M35.1539 35.1543C24.1045 46.2027 15.1997 59.3938 9.11719 74.053L120 120.001L35.1539 35.1543Z" fill="#0052B4"/>
<path d="M0 120C0 136.277 3.24422 151.795 9.11625 165.947L120 120H0Z" fill="#0052B4"/>
<path d="M52.3672 219.13C71.6253 232.295 94.9123 240 120.002 240C145.091 240 168.378 232.295 187.636 219.13H52.3672Z" fill="#FFDA44"/>
<path d="M120.001 120L149.515 149.514C157.068 141.96 161.74 131.526 161.74 120C161.74 96.9475 143.053 78.2607 120.001 78.2607C96.9494 78.2607 78.2617 96.9475 78.2617 120C78.2617 131.525 82.9333 141.96 90.4872 149.514L120.001 120Z" fill="#FFDA44"/>
<path d="M138.264 179.999C138.264 190.085 130.088 193.043 120.003 193.043C109.919 193.043 101.742 190.085 101.742 179.999C101.742 169.914 109.919 161.738 120.003 161.738C130.088 161.738 138.264 169.914 138.264 179.999Z" fill="#FFDA44"/>
<path d="M138.26 180C138.26 190.085 130.084 198.261 119.999 198.261C109.915 198.261 101.738 190.085 101.738 180" fill="#0052B4"/>
</g>
<defs>
<clipPath id="clip0_8148_4778">
<rect width="240" height="240" fill="white"/>
</clipPath>
</defs>
</svg>
