<svg width="240" height="240" viewBox="0 0 240 240" fill="none" xmlns="http://www.w3.org/2000/svg">
<g clip-path="url(#clip0_8148_4794)">
<path d="M120 240C186.274 240 240 186.274 240 120C240 53.7258 186.274 0 120 0C53.7258 0 0 53.7258 0 120C0 186.274 53.7258 240 120 240Z" fill="#FFDA44"/>
<path d="M120.002 0C119.915 0.0009375 114.785 48 114.785 48H216.008C194.115 18.8545 159.261 0 120.002 0Z" fill="#496E2D"/>
<path d="M120.001 240C159.26 240 194.114 221.145 216.006 192H23.9961C45.8886 221.145 80.7425 240 120.001 240Z" fill="#496E2D"/>
<path d="M237.6 96H114.785L120.002 144H237.6C239.175 136.245 240.002 128.22 240.002 120C240.002 111.78 239.174 103.755 237.6 96Z" fill="#496E2D"/>
<path d="M120 144C120 118.957 120 28.1737 120 0C53.7262 0 0 53.7262 0 120C0 128.22 0.82875 136.245 2.40281 144H120Z" fill="#D80027"/>
<path d="M66.2155 57.3916L73.9855 81.3049H99.1316L78.7892 96.086L86.5583 120L66.2155 105.221L45.8727 120L53.6431 96.086L33.3008 81.3049H58.4459L66.2155 57.3916Z" fill="#F0F0F0"/>
</g>
<defs>
<clipPath id="clip0_8148_4794">
<rect width="240" height="240" fill="white"/>
</clipPath>
</defs>
</svg>
