<svg width="240" height="240" viewBox="0 0 240 240" fill="none" xmlns="http://www.w3.org/2000/svg">
<g clip-path="url(#clip0_8148_4802)">
<path d="M120 240C186.274 240 240 186.274 240 120C240 53.7258 186.274 0 120 0C53.7258 0 0 53.7258 0 120C0 186.274 53.7258 240 120 240Z" fill="#FFDA44"/>
<path d="M193.043 57.3914C191.967 62.5641 191.478 68.0733 191.478 73.5652C191.478 105.222 210.35 132.621 237.394 144.955C239.097 136.904 240 128.557 240 120C240 53.7262 186.274 0 120 0C53.7262 0 0 53.7262 0 120C0 186.274 53.7262 240 120 240C161.101 240 197.371 219.332 218.998 187.826H67.8262V172.174H228.093C229.733 168.782 231.215 165.3 232.537 161.739H67.8262L193.043 57.3914Z" fill="#0052B4"/>
<path d="M88.1556 62.6084L90.7459 70.58H99.1272L92.3467 75.507L94.937 83.4781L88.1556 78.552L81.3752 83.4781L83.965 75.507L77.1836 70.58H85.5653L88.1556 62.6084Z" fill="#F0F0F0"/>
<path d="M54.1088 120L57.3469 129.965H67.8234L59.347 136.122L62.5852 146.087L54.1088 139.928L45.6328 146.087L48.8705 136.122L40.3945 129.965H50.8711L54.1088 120Z" fill="#F0F0F0"/>
<path d="M54.1088 36.5215L57.3469 46.4866H67.8234L59.347 52.6437L62.5852 62.6084L54.1088 56.4499L45.6328 62.6084L48.8705 52.6437L40.3945 46.4866H50.8711L54.1088 36.5215Z" fill="#F0F0F0"/>
<path d="M28.0228 83.4785L31.2609 93.4437H41.737L33.2611 99.6007L36.4992 109.565L28.0228 103.407L19.5469 109.565L22.7845 99.6007L14.3086 93.4437H24.7847L28.0228 83.4785Z" fill="#F0F0F0"/>
</g>
<defs>
<clipPath id="clip0_8148_4802">
<rect width="240" height="240" fill="white"/>
</clipPath>
</defs>
</svg>
