<svg width="240" height="240" viewBox="0 0 240 240" fill="none" xmlns="http://www.w3.org/2000/svg">
<g clip-path="url(#clip0_8148_4810)">
<path d="M120 240C186.274 240 240 186.274 240 120C240 53.7258 186.274 0 120 0C53.7258 0 0 53.7258 0 120C0 186.274 53.7258 240 120 240Z" fill="#F0F0F0"/>
<path d="M78.2616 62.6091V46.957H62.6091V62.6091H46.957V78.2616H62.6091V93.9136H78.2616V78.2616H93.9136V62.6091H78.2616Z" fill="#D80027"/>
<path d="M120 0V120C53.7262 120 27.3867 120 0 120C0 186.274 53.7262 240 120 240C186.274 240 240 186.274 240 120C240 53.7262 186.274 0 120 0Z" fill="#D80027"/>
</g>
<defs>
<clipPath id="clip0_8148_4810">
<rect width="240" height="240" fill="white"/>
</clipPath>
</defs>
</svg>
