<svg width="240" height="240" viewBox="0 0 240 240" fill="none" xmlns="http://www.w3.org/2000/svg">
<g clip-path="url(#clip0_8148_4815)">
<path d="M235.867 88.6955C222.097 37.6036 175.444 0 120.001 0C64.5576 0 17.9048 37.6036 4.13477 88.6955L120.001 93.9131L235.867 88.6955Z" fill="#A2001D"/>
<path d="M4.13477 151.305C17.9048 202.396 64.5576 240 120.001 240C175.444 240 222.097 202.396 235.867 151.305L120.001 146.087L4.13477 151.305Z" fill="#A2001D"/>
<path d="M235.866 88.6953H4.13391C1.44375 98.6764 0 109.168 0 120C0 130.831 1.44375 141.323 4.13391 151.304H235.867C238.556 141.323 240 130.831 240 120C240 109.168 238.556 98.6764 235.866 88.6953Z" fill="#6DA544"/>
</g>
<defs>
<clipPath id="clip0_8148_4815">
<rect width="240" height="240" fill="white"/>
</clipPath>
</defs>
</svg>
