<svg width="240" height="240" viewBox="0 0 240 240" fill="none" xmlns="http://www.w3.org/2000/svg">
<g clip-path="url(#clip0_8148_4820)">
<path d="M64.9753 13.3242C54.2325 18.8691 44.1483 26.137 35.1427 35.1427C26.1366 44.1487 18.8686 54.233 13.3242 64.9758L90.4837 149.514L175.022 226.674C185.766 221.129 195.85 213.861 204.855 204.856C213.862 195.85 221.129 185.766 226.674 175.023L149.514 90.4838L64.9753 13.3242Z" fill="#F0F0F0"/>
<path d="M204.856 204.857C209.89 199.823 214.38 194.452 218.333 188.818L51.1833 21.668C45.5494 25.62 40.178 30.1097 35.1441 35.1436C30.1102 40.1775 25.6205 45.5489 21.668 51.1833L188.817 218.332C194.451 214.38 199.823 209.891 204.856 204.857Z" fill="black"/>
<path d="M35.1431 204.857C73.0026 242.716 129.861 249.984 175.023 226.675L13.3251 64.9766C-9.98347 110.139 -2.71457 166.997 35.1431 204.857Z" fill="#D80027"/>
<path d="M204.856 35.1437C166.997 -2.71537 110.139 -9.98287 64.9766 13.3248L226.674 175.024C249.983 129.862 242.716 73.0028 204.856 35.1437Z" fill="#D80027"/>
</g>
<defs>
<clipPath id="clip0_8148_4820">
<rect width="240" height="240" fill="white"/>
</clipPath>
</defs>
</svg>
