<svg width="240" height="240" viewBox="0 0 240 240" fill="none" xmlns="http://www.w3.org/2000/svg">
<g clip-path="url(#clip0_8148_4826)">
<path d="M120 240C186.274 240 240 186.274 240 120C240 53.7258 186.274 0 120 0C53.7258 0 0 53.7258 0 120C0 186.274 53.7258 240 120 240Z" fill="#D80027"/>
<path d="M120.001 177.391C151.697 177.391 177.392 151.696 177.392 120C177.392 88.3034 151.697 62.6084 120.001 62.6084C88.3044 62.6084 62.6094 88.3034 62.6094 120C62.6094 151.696 88.3044 177.391 120.001 177.391Z" fill="#F0F0F0"/>
<path d="M127.071 98.0557L136.917 111.624L152.863 106.453L143.001 120.01L152.846 133.577L136.906 128.387L127.045 141.943L127.055 125.18L111.115 119.99L127.061 114.82L127.071 98.0557Z" fill="#D80027"/>
<path d="M133.044 153.913C114.315 153.913 99.1309 138.729 99.1309 120C99.1309 101.271 114.315 86.087 133.044 86.087C138.884 86.087 144.379 87.5636 149.176 90.1632C141.65 82.8034 131.359 78.2607 120.001 78.2607C96.9494 78.2607 78.2617 96.9479 78.2617 120C78.2617 143.051 96.9494 161.739 120.001 161.739C131.359 161.739 141.651 157.196 149.176 149.836C144.379 152.437 138.884 153.913 133.044 153.913Z" fill="#D80027"/>
</g>
<defs>
<clipPath id="clip0_8148_4826">
<rect width="240" height="240" fill="white"/>
</clipPath>
</defs>
</svg>
