<svg width="240" height="240" viewBox="0 0 240 240" fill="none" xmlns="http://www.w3.org/2000/svg">
<g clip-path="url(#clip0_8148_4865)">
<path d="M240 120C240 186.274 186.274 240 120 240C53.7262 240 0 186.274 0 120C0 120.029 120 0.013125 120 0C186.274 0 240 53.7262 240 120Z" fill="#0052B4"/>
<path d="M119.68 120H120.001C120.001 119.892 120.001 119.787 120.001 119.679C119.894 119.786 119.787 119.893 119.68 120Z" fill="#F0F0F0"/>
<path d="M120 62.6086C120 41.4938 120 27.6586 120 0H119.98C53.7145 0.01125 0 53.7323 0 120H62.6086V84.7448L97.8638 120H119.679C119.786 119.893 119.893 119.786 120 119.679C120 111.594 120 104.381 120 97.8647L84.7444 62.6086H120Z" fill="#F0F0F0"/>
<path d="M60.7105 15.6523C41.9422 26.3394 26.3389 41.9422 15.6523 60.7105V120H46.9569V46.9578V46.9569H120C120 37.0836 120 27.6777 120 15.6523H60.7105Z" fill="#D80027"/>
<path d="M120.001 105.244L77.3656 62.6094H62.6094V62.6103L120 120H120.001C120.001 120 120.001 109.825 120.001 105.244Z" fill="#D80027"/>
<path d="M135.652 62.6084V119.999C135.652 147.956 172.174 156.522 172.174 156.522C172.174 156.522 208.696 147.956 208.696 119.999V62.6084H135.652Z" fill="#FFDA44"/>
<path d="M166.956 83.4778C166.956 89.2411 162.284 104.347 156.521 104.347C150.757 104.347 146.086 89.2411 146.086 83.4778C146.086 77.7145 156.521 73.043 156.521 73.043C156.521 73.043 166.956 77.7145 166.956 83.4778Z" fill="#FF9811"/>
<path d="M194.646 94.8427C196.33 90.7341 197.639 84.7284 197.639 81.7387C197.639 76.9359 191.378 73.043 191.378 73.043C191.378 73.043 185.117 76.9364 185.117 81.7387C185.117 84.7284 186.427 90.7341 188.111 94.8427L184.496 103.004C186.62 103.867 188.943 104.347 191.378 104.347C193.813 104.347 196.135 103.867 198.26 103.004L194.646 94.8427Z" fill="#A2001D"/>
<path d="M164.348 120C164.348 120 159.131 130.435 159.131 140.87H185.218C185.217 130.435 180 120 180 120L172.174 114.783L164.348 120Z" fill="#6DA544"/>
<path d="M180 120V117.392C180 113.07 176.496 109.565 172.174 109.565C167.852 109.565 164.348 113.069 164.348 117.392V120H180Z" fill="#D80027"/>
</g>
<defs>
<clipPath id="clip0_8148_4865">
<rect width="240" height="240" fill="white"/>
</clipPath>
</defs>
</svg>
