<svg width="240" height="240" viewBox="0 0 240 240" fill="none" xmlns="http://www.w3.org/2000/svg">
<g clip-path="url(#clip0_8148_4832)">
<path d="M120 240C186.274 240 240 186.274 240 120C240 53.7258 186.274 0 120 0C53.7258 0 0 53.7258 0 120C0 186.274 53.7258 240 120 240Z" fill="#D80027"/>
<path d="M115.087 98.0557L124.933 111.624L140.879 106.453L131.017 120.01L140.862 133.577L124.922 128.387L115.061 141.943L115.071 125.18L99.1309 119.99L115.077 114.82L115.087 98.0557Z" fill="#F0F0F0"/>
<path d="M88.2159 153.913C69.4866 153.913 54.3028 138.729 54.3028 120C54.3028 101.271 69.4866 86.087 88.2159 86.087C94.0556 86.087 99.5503 87.564 104.348 90.1632C96.8217 82.8029 86.5294 78.2607 75.1725 78.2607C52.1203 78.2607 33.4336 96.9479 33.4336 120C33.4336 143.051 52.1208 161.739 75.1725 161.739C86.5303 161.739 96.8222 157.196 104.348 149.836C99.5503 152.436 94.0556 153.913 88.2159 153.913Z" fill="#F0F0F0"/>
</g>
<defs>
<clipPath id="clip0_8148_4832">
<rect width="240" height="240" fill="white"/>
</clipPath>
</defs>
</svg>
