<svg width="240" height="240" viewBox="0 0 240 240" fill="none" xmlns="http://www.w3.org/2000/svg">
<g clip-path="url(#clip0_8148_4837)">
<path d="M119.999 0C111.039 0 102.312 0.990469 93.9125 2.85234L88.6953 120L93.9125 237.147C102.312 239.009 111.04 240 119.999 240C186.273 240 239.999 186.274 239.999 120C239.998 53.7258 186.273 0 119.999 0V0Z" fill="#496E2D"/>
<path d="M31.3041 39.1738C11.8584 60.5001 0 88.8641 0 119.999C0 151.135 11.8589 179.499 31.3045 200.826L36.5217 119.999L31.3041 39.1738Z" fill="#496E2D"/>
<path d="M175.51 90.5151C181.414 74.0591 174.781 56.1618 160.546 47.248C163.107 47.5813 165.67 48.1841 168.199 49.0912C187.185 55.903 197.054 76.8149 190.242 95.8002C183.43 114.787 162.518 124.655 143.533 117.843C141.003 116.936 138.641 115.771 136.453 114.401C153.108 116.57 169.606 106.971 175.51 90.5151Z" fill="#F0F0F0"/>
<path d="M142.764 42.7373L137.634 49.3664L129.745 46.5356L134.464 53.4628L129.334 60.0909L137.38 57.7443L142.099 64.6706L142.353 56.2931L150.399 53.9461L142.511 51.1162L142.764 42.7373Z" fill="#F0F0F0"/>
<path d="M156.616 64.3369L151.486 70.9655L143.597 68.1347L148.316 75.0619L143.186 81.69L151.232 79.3425L155.951 86.2702L156.205 77.8922L164.251 75.5447L156.362 72.7144L156.616 64.3369Z" fill="#F0F0F0"/>
<path d="M118.34 50.6035L113.21 57.2316L105.321 54.4018L110.04 61.3285L104.91 67.9571L112.956 65.6101L117.675 72.5368L117.929 64.1593L125.975 61.8123L118.087 58.9815L118.34 50.6035Z" fill="#F0F0F0"/>
<path d="M117.778 75.3457L112.648 81.9743L104.759 79.144L109.479 86.0712L104.348 92.6993L112.395 90.3527L117.114 97.279L117.367 88.9015L125.414 86.5545L117.524 83.7237L117.778 75.3457Z" fill="#F0F0F0"/>
<path d="M141.321 83.793L136.191 90.4211L128.302 87.5908L133.022 94.518L127.891 101.146L135.938 98.7991L140.657 105.726L140.91 97.3478L148.957 95.0013L141.067 92.1709L141.321 83.793Z" fill="#F0F0F0"/>
<path d="M31.3047 39.1741V200.826C47.6547 218.757 69.3719 231.707 93.9133 237.147V2.85254C69.3714 8.29285 47.6552 21.2421 31.3047 39.1741Z" fill="#D80027"/>
<path d="M55.1966 63.1802L44.7148 55.3718V44.3295L55.1966 36.5215H70.0208L80.5025 44.3295V55.3718L70.0208 63.1802H55.1966Z" fill="#F0F0F0"/>
<path d="M62.6089 36.5215H55.1966L44.7148 44.3295V49.728H62.6089V36.5215Z" fill="#FF9811"/>
<path d="M62.6094 63.1807H70.0213L80.503 55.3722V49.7393H62.6094V63.1807Z" fill="#FF9811"/>
<path d="M55.1966 203.477L44.7148 195.669V184.627L55.1966 176.818H70.0208L80.5025 184.627V195.669L70.0208 203.477H55.1966Z" fill="#F0F0F0"/>
<path d="M62.6089 176.818H55.1966L44.7148 184.627V190.025H62.6089V176.818Z" fill="#FF9811"/>
<path d="M62.6094 203.477H70.0213L80.503 195.669V190.036H62.6094V203.477Z" fill="#FF9811"/>
<path d="M55.1966 133.329L44.7148 125.52V114.478L55.1966 106.67H70.0208L80.5025 114.478V125.52L70.0208 133.329H55.1966Z" fill="#496E2D"/>
<path d="M80.8689 150.508H76.3033V145.943H68.2806L62.6078 140.271L56.9355 145.943H48.9128V150.508H44.3477V159.639H48.9128V164.204H56.935L62.6083 169.877L68.2806 164.204H76.3033V159.639H80.8689V150.508Z" fill="#496E2D"/>
<path d="M80.8689 80.3595H76.3033V75.7939H68.2806L62.6078 70.1211L56.9355 75.7939H48.9128V80.3595H44.3477V89.4898H48.9128V94.055H56.935L62.6083 99.7288L68.2806 94.055H76.3033V89.4898H80.8689V80.3595Z" fill="#496E2D"/>
<path d="M57.3906 114.782H67.8255V125.217H57.3906V114.782Z" fill="#D80027"/>
<path d="M62.6078 90.1404C65.4892 90.1404 67.825 87.8046 67.825 84.9232C67.825 82.0419 65.4892 79.7061 62.6078 79.7061C59.7264 79.7061 57.3906 82.0419 57.3906 84.9232C57.3906 87.8046 59.7264 90.1404 62.6078 90.1404Z" fill="#D80027"/>
<path d="M62.6078 160.293C65.4892 160.293 67.825 157.957 67.825 155.076C67.825 152.194 65.4892 149.858 62.6078 149.858C59.7264 149.858 57.3906 152.194 57.3906 155.076C57.3906 157.957 59.7264 160.293 62.6078 160.293Z" fill="#D80027"/>
</g>
<defs>
<clipPath id="clip0_8148_4837">
<rect width="240" height="240" fill="white"/>
</clipPath>
</defs>
</svg>
