<svg width="240" height="240" viewBox="0 0 240 240" fill="none" xmlns="http://www.w3.org/2000/svg">
<g clip-path="url(#clip0_8148_4879)">
<path d="M240 120C240 186.274 186.274 240 120 240C53.7263 240 0 186.274 0 120C0 120.029 120 0.013125 120 0C186.274 0 240 53.7262 240 120Z" fill="#338AF3"/>
<path d="M57.3906 120.001H97.8634L62.6078 78.2617L57.3906 93.9138V120.001Z" fill="#0052B4"/>
<path d="M119.999 97.8649L78.2598 57.3916H119.999L119.999 97.8649Z" fill="#0052B4"/>
<path d="M119.68 120H120.001C120.001 119.892 120.001 119.787 120.001 119.679C119.894 119.786 119.787 119.893 119.68 120Z" fill="#F0F0F0"/>
<path d="M120 62.6086C120 41.4938 120 27.6581 120 0H119.98C53.715 0.01125 0 53.7323 0 120H62.6091V84.7448L97.8642 120H119.68C119.787 119.893 119.894 119.786 120.001 119.679C120.001 111.594 120.001 104.381 120.001 97.8647L84.7444 62.6086H120Z" fill="#F0F0F0"/>
<path d="M60.7105 15.6523C41.9422 26.3394 26.3394 41.9422 15.6523 60.7105V120H46.9569V46.9578V46.9569H120C120 37.0836 120 27.6777 120 15.6523H60.7105Z" fill="#D80027"/>
<path d="M120.001 105.244L77.3656 62.6094H62.6094V62.6103L120 120H120.001C120.001 120 120.001 109.825 120.001 105.244Z" fill="#D80027"/>
<path d="M130.972 198.261L133.562 206.232H141.944L135.163 211.159L137.753 219.13L130.972 214.204L124.191 219.13L126.781 211.159L120 206.232H128.381L130.972 198.261Z" fill="#FFDA44"/>
<path d="M197.724 146.087L200.314 154.058H208.696L201.915 158.986L204.506 166.957L197.724 162.031L190.944 166.957L193.534 158.986L186.752 154.058H195.134L197.724 146.087Z" fill="#FFDA44"/>
<path d="M214.45 67.8262L217.04 75.7977H225.422L218.642 80.7243L221.231 88.6954L214.45 83.7693L207.67 88.6954L210.26 80.7243L203.479 75.7977H211.86L214.45 67.8262Z" fill="#FFDA44"/>
<path d="M218.593 125.217L221.183 133.189H229.565L222.784 138.115L225.375 146.086L218.593 141.16L211.813 146.086L214.403 138.115L207.621 133.189H216.003L218.593 125.217Z" fill="#FFDA44"/>
<path d="M142.99 179.512L150.459 183.318L156.386 177.392L155.075 185.669L162.543 189.475L154.264 190.786L152.953 199.065L149.148 191.596L140.869 192.908L146.796 186.982L142.99 179.512Z" fill="#FFDA44"/>
<path d="M142.99 148.208L150.459 152.013L156.386 146.087L155.075 154.365L162.543 158.17L154.264 159.481L152.953 167.76L149.148 160.292L140.869 161.603L146.796 155.677L142.99 148.208Z" fill="#FFDA44"/>
<path d="M169.078 168.274L176.547 172.08L182.474 166.153L181.163 174.431L188.631 178.236L180.352 179.548L179.04 187.826L175.236 180.357L166.957 181.67L172.883 175.743L169.078 168.274Z" fill="#FFDA44"/>
<path d="M169.078 101.251L176.547 105.056L182.474 99.1299L181.163 107.408L188.631 111.213L180.352 112.524L179.04 120.803L175.236 113.335L166.957 114.646L172.883 108.72L169.078 101.251Z" fill="#FFDA44"/>
<path d="M194.361 100.448L201.83 104.254L207.757 98.3271L206.446 106.605L213.914 110.41L205.635 111.722L204.324 120L200.519 112.532L192.24 113.844L198.167 107.917L194.361 100.448Z" fill="#FFDA44"/>
</g>
<defs>
<clipPath id="clip0_8148_4879">
<rect width="240" height="240" fill="white"/>
</clipPath>
</defs>
</svg>
