<svg width="240" height="240" viewBox="0 0 240 240" fill="none" xmlns="http://www.w3.org/2000/svg">
<g clip-path="url(#clip0_8148_4901)">
<path d="M209.434 200C228.439 178.769 240 150.737 240 120C240 89.2633 228.438 61.2306 209.434 40L120 31.3047L30.5662 40C11.5617 61.2306 0 89.2633 0 120C0 150.737 11.5613 178.769 30.5658 200L120 208.696L209.434 200Z" fill="#FFDA44"/>
<path d="M30.5664 39.9998H209.434C187.462 15.4528 155.537 0 120 0C84.4628 0 52.5386 15.4528 30.5664 39.9998Z" fill="black"/>
<path d="M0 120L120 130.435L240 120C240 105.973 237.585 92.5119 233.162 80H6.83813C2.41453 92.5119 0 105.973 0 120H0Z" fill="#D80027"/>
<path d="M6.83813 160H233.163C237.585 147.488 240 134.027 240 120H0C0 134.027 2.41453 147.488 6.83813 160Z" fill="black"/>
<path d="M209.435 200H30.5664C52.5386 224.548 84.4628 240 120.001 240C155.538 240 187.463 224.548 209.435 200Z" fill="#D80027"/>
<path d="M160.044 120C160.044 142.117 142.117 160.044 120 160.044C97.8834 160.044 79.957 142.117 79.957 120C79.957 97.8834 97.8834 79.957 120 79.957C142.117 79.957 160.044 97.8834 160.044 120Z" fill="#F0F0F0"/>
<path d="M134.669 122.042L119.999 115.686C119.999 115.686 123.431 104.294 123.614 103.514C123.748 102.944 123.819 102.351 123.819 101.74C123.819 99.5788 122.943 97.6223 121.526 96.2066L125.215 92.5176C122.855 90.1574 119.594 88.6973 115.992 88.6973C112.39 88.6973 109.129 90.157 106.769 92.5176L110.458 96.2066C109.042 97.6227 108.166 99.5793 108.166 101.74C108.166 102.531 108.285 103.292 108.503 104.012L102.949 109.566H113.044C113.044 109.566 108.87 115.835 106.592 120.983C104.313 126.131 106.623 132.415 111.889 134.756L114.934 136.109L119.999 140.87V146.087L114.782 151.304H125.217V140.87L129.978 136.109H139.825C139.873 136.011 139.922 135.915 139.967 135.815C142.307 130.549 139.935 124.382 134.669 122.042Z" fill="black"/>
</g>
<defs>
<clipPath id="clip0_8148_4901">
<rect width="240" height="240" fill="white"/>
</clipPath>
</defs>
</svg>
