<svg width="240" height="240" viewBox="0 0 240 240" fill="none" xmlns="http://www.w3.org/2000/svg">
<g clip-path="url(#clip0_8148_4912)">
<path d="M120 240C186.274 240 240 186.274 240 120C240 53.7258 186.274 0 120 0C53.7258 0 0 53.7258 0 120C0 186.274 53.7258 240 120 240Z" fill="#F0F0F0"/>
<path d="M67.8262 161.739L78.261 232.537C91.2604 237.361 105.321 240 120 240C171.595 240 215.581 207.435 232.536 161.739H67.8262Z" fill="black"/>
<path d="M67.8262 78.2611L78.261 7.46297C91.2604 2.63906 105.321 0 120 0C171.595 0 215.581 32.565 232.536 78.2611H67.8262Z" fill="#6DA544"/>
<path d="M0 120C0 171.596 32.5655 215.581 78.2611 232.536V7.46387C32.5655 24.419 0 68.4042 0 120Z" fill="#A2001D"/>
</g>
<defs>
<clipPath id="clip0_8148_4912">
<rect width="240" height="240" fill="white"/>
</clipPath>
</defs>
</svg>
