<svg width="240" height="240" viewBox="0 0 240 240" fill="none" xmlns="http://www.w3.org/2000/svg">
<g clip-path="url(#clip0_8148_4917)">
<path d="M120 240C186.274 240 240 186.274 240 120C240 53.7258 186.274 0 120 0C53.7258 0 0 53.7258 0 120C0 186.274 53.7258 240 120 240Z" fill="#F0F0F0"/>
<path d="M24.8071 46.9414C15.381 59.2053 8.27336 73.3405 4.13477 88.6962H66.562L24.8071 46.9414Z" fill="#0052B4"/>
<path d="M235.868 88.6968C231.729 73.3414 224.621 59.2063 215.195 46.9424L173.441 88.6968H235.868Z" fill="#0052B4"/>
<path d="M4.13477 151.305C8.27383 166.66 15.3815 180.795 24.8071 193.059L66.5605 151.305H4.13477Z" fill="#0052B4"/>
<path d="M193.059 24.8066C180.795 15.3805 166.66 8.27285 151.305 4.13379V66.5605L193.059 24.8066Z" fill="#0052B4"/>
<path d="M46.9434 215.193C59.2073 224.619 73.3424 231.727 88.6977 235.866V173.439L46.9434 215.193Z" fill="#0052B4"/>
<path d="M88.6973 4.13379C73.342 8.27285 59.2068 15.3805 46.9434 24.8061L88.6973 66.56V4.13379Z" fill="#0052B4"/>
<path d="M151.305 235.866C166.66 231.727 180.795 224.619 193.059 215.193L151.305 173.439V235.866Z" fill="#0052B4"/>
<path d="M173.441 151.305L215.195 193.059C224.621 180.796 231.729 166.66 235.868 151.305H173.441Z" fill="#0052B4"/>
<path d="M238.984 104.348H135.653H135.652V1.01578C130.529 0.34875 125.305 0 120 0C114.694 0 109.471 0.34875 104.348 1.01578V104.347V104.348H1.01578C0.34875 109.471 0 114.695 0 120C0 125.306 0.34875 130.529 1.01578 135.652H104.347H104.348V238.984C109.471 239.651 114.694 240 120 240C125.305 240 130.529 239.652 135.652 238.984V135.653V135.652H238.984C239.651 130.529 240 125.306 240 120C240 114.695 239.651 109.471 238.984 104.348Z" fill="#D80027"/>
<path d="M151.305 151.305L204.853 204.853C207.316 202.391 209.665 199.817 211.907 197.149L166.062 151.305H151.305V151.305Z" fill="#D80027"/>
<path d="M88.6951 151.305H88.6941L35.1465 204.852C37.6084 207.315 40.1823 209.665 42.8504 211.906L88.6951 166.06V151.305Z" fill="#D80027"/>
<path d="M88.6956 88.696V88.6951L35.1475 35.1465C32.6847 37.6084 30.3353 40.1823 28.0938 42.8504L73.9389 88.6955H88.6956V88.696Z" fill="#D80027"/>
<path d="M151.305 88.6961L204.853 35.147C202.391 32.6842 199.817 30.3348 197.149 28.0938L151.305 73.9389V88.6961Z" fill="#D80027"/>
</g>
<defs>
<clipPath id="clip0_8148_4917">
<rect width="240" height="240" fill="white"/>
</clipPath>
</defs>
</svg>
