<svg width="240" height="240" viewBox="0 0 240 240" fill="none" xmlns="http://www.w3.org/2000/svg">
<g clip-path="url(#clip0_8148_4939)">
<path d="M120 240C186.274 240 240 186.274 240 120C240 53.7258 186.274 0 120 0C53.7258 0 0 53.7258 0 120C0 186.274 53.7258 240 120 240Z" fill="#F0F0F0"/>
<path d="M114.783 120H240C240 109.169 238.557 98.6764 235.866 88.6953H114.783V120Z" fill="#D80027"/>
<path d="M114.783 57.3914H222.388C215.042 45.4046 205.649 34.8094 194.699 26.0869H114.783V57.3914Z" fill="#D80027"/>
<path d="M120.001 240C148.243 240 174.201 230.239 194.699 213.913H45.3027C65.8012 230.239 91.7591 240 120.001 240Z" fill="#D80027"/>
<path d="M17.6137 182.608H222.388C228.285 172.985 232.859 162.467 235.867 151.304H4.13477C7.14273 162.467 11.7163 172.985 17.6137 182.608Z" fill="#D80027"/>
<path d="M55.5863 18.7397H66.5217L56.3498 26.1295L60.2353 38.0869L50.0639 30.697L39.8925 38.0869L43.2487 27.757C34.2928 35.2172 26.4431 43.9575 19.9744 53.6963H23.4783L17.0034 58.4002C15.9947 60.083 15.0272 61.7925 14.1 63.5273L17.1919 73.0434L11.4234 68.8523C9.98953 71.8903 8.67797 74.9967 7.49906 78.1678L10.9055 88.6528H23.4783L13.3064 96.0427L17.1919 108L7.02047 100.61L0.927656 105.037C0.317813 109.939 0 114.932 0 120H120C120 53.7262 120 45.9131 120 0C96.2944 0 74.1961 6.87656 55.5863 18.7397ZM60.2353 108L50.0639 100.61L39.8925 108L43.778 96.0427L33.6061 88.6528H46.1789L50.0639 76.6955L53.9489 88.6528H66.5217L56.3498 96.0427L60.2353 108ZM56.3498 61.0861L60.2353 73.0434L50.0639 65.6536L39.8925 73.0434L43.778 61.0861L33.6061 53.6963H46.1789L50.0639 41.7389L53.9489 53.6963H66.5217L56.3498 61.0861ZM103.279 108L93.1073 100.61L82.9359 108L86.8214 96.0427L76.6495 88.6528H89.2223L93.1073 76.6955L96.9923 88.6528H109.565L99.3933 96.0427L103.279 108ZM99.3933 61.0861L103.279 73.0434L93.1073 65.6536L82.9359 73.0434L86.8214 61.0861L76.6495 53.6963H89.2223L93.1073 41.7389L96.9923 53.6963H109.565L99.3933 61.0861ZM99.3933 26.1295L103.279 38.0869L93.1073 30.697L82.9359 38.0869L86.8214 26.1295L76.6495 18.7397H89.2223L93.1073 6.78234L96.9923 18.7397H109.565L99.3933 26.1295Z" fill="#0052B4"/>
</g>
<defs>
<clipPath id="clip0_8148_4939">
<rect width="240" height="240" fill="white"/>
</clipPath>
</defs>
</svg>
