<svg width="240" height="240" viewBox="0 0 240 240" fill="none" xmlns="http://www.w3.org/2000/svg">
<g clip-path="url(#clip0_8148_4934)">
<path d="M120 240C186.274 240 240 186.274 240 120C240 53.7258 186.274 0 120 0C53.7258 0 0 53.7258 0 120C0 186.274 53.7258 240 120 240Z" fill="#338AF3"/>
<path d="M119.653 78.2617C96.6003 78.2617 77.9141 96.9489 77.9141 120.001C77.9141 143.052 96.6008 161.74 119.653 161.74C142.704 161.74 161.392 143.052 161.392 120.001C161.392 96.9489 142.704 78.2617 119.653 78.2617ZM109.218 120.001C109.218 114.238 113.89 109.566 119.653 109.566C125.416 109.566 130.088 114.238 130.088 120.001C130.088 125.764 125.416 130.435 119.653 130.435C113.89 130.435 109.218 125.764 109.218 120.001ZM130.472 102.151C128.852 101.167 127.087 100.403 125.218 99.887V89.1995C129.924 90.0442 134.264 91.9375 137.989 94.6347L130.472 102.151ZM114.783 99.7084C112.825 100.177 110.975 100.921 109.276 101.897L101.724 94.3455C105.542 91.6727 109.98 89.8262 114.783 89.0748V99.7084ZM109.275 138.104C110.975 139.08 112.825 139.825 114.783 140.292V150.925C109.979 150.175 105.542 148.328 101.724 145.655L109.275 138.104ZM125.218 140.114C127.087 139.598 128.853 138.835 130.472 137.851L137.988 145.367C134.263 148.064 129.924 149.957 125.218 150.802V140.115H125.218V140.114ZM137.756 130.379C138.675 128.779 139.394 127.048 139.865 125.218H150.516C149.732 129.888 147.916 134.205 145.308 137.929L137.756 130.379ZM139.865 114.783C139.394 112.953 138.675 111.224 137.756 109.623L145.308 102.072C147.916 105.797 149.732 110.113 150.515 114.783H139.865V114.783H139.865ZM94.2866 101.665L101.803 109.182C100.758 110.902 99.9552 112.785 99.4405 114.783H88.7895C89.6019 109.943 91.5233 105.482 94.2866 101.665ZM88.7895 125.218H99.4405C99.9547 127.217 100.758 129.099 101.803 130.819L94.2866 138.336C91.5233 134.52 89.6019 130.059 88.7895 125.218Z" fill="#F0F0F0"/>
<path d="M187.48 120C187.48 101.447 180.027 84.6372 167.957 72.3916L156.89 83.4593C166.128 92.8718 171.828 105.77 171.828 120C171.828 148.815 148.468 172.174 119.654 172.174C90.8384 172.174 67.4802 148.815 67.4802 120C67.4802 105.592 73.3194 92.5488 82.7614 83.1077L71.6938 72.04C59.4195 84.3143 51.8281 101.271 51.8281 120C51.8281 151.038 72.6767 177.207 101.134 185.267C98.0141 191.193 98.4894 198.656 102.946 204.217C108.8 199.526 114.86 194.669 120.002 190.549C125.143 194.669 131.204 199.526 137.057 204.217C141.558 198.6 142.001 191.043 138.777 185.088C166.924 176.831 187.48 150.818 187.48 120Z" fill="#F0F0F0"/>
</g>
<defs>
<clipPath id="clip0_8148_4934">
<rect width="240" height="240" fill="white"/>
</clipPath>
</defs>
</svg>
