<svg width="240" height="240" viewBox="0 0 240 240" fill="none" xmlns="http://www.w3.org/2000/svg">
<g clip-path="url(#clip0_8148_4947)">
<path d="M120 240C186.274 240 240 186.274 240 120C240 53.7258 186.274 0 120 0C53.7258 0 0 53.7258 0 120C0 186.274 53.7258 240 120 240Z" fill="#F0F0F0"/>
<path d="M120 88.6952H235.866C232.857 77.5323 228.284 67.0131 222.387 57.3906H120V88.6952Z" fill="#338AF3"/>
<path d="M45.3019 213.913H194.699C205.65 205.19 215.042 194.596 222.387 182.608H17.6133C24.9591 194.595 34.3509 205.19 45.3019 213.913Z" fill="#338AF3"/>
<path d="M120 0V26.0869H194.699C174.2 9.76125 148.242 0 120 0Z" fill="#338AF3"/>
<path d="M120 88.6952H235.866C232.857 77.5323 228.284 67.0131 222.387 57.3906H120V88.6952Z" fill="#338AF3"/>
<path d="M0 120C0 130.831 1.44375 141.323 4.13391 151.305H235.867C238.556 141.323 240 130.831 240 120H0Z" fill="#338AF3"/>
<path d="M104.348 70.2288L89.6921 77.1227L97.4963 91.3164L81.5823 88.2724L79.5657 104.348L68.4816 92.5244L57.3966 104.348L55.3805 88.2724L39.4665 91.3155L47.2702 77.1222L32.6152 70.2288L47.2707 63.3358L39.4665 49.1421L55.3801 52.1861L57.3971 36.1104L68.4816 47.9341L79.5662 36.1104L81.5823 52.1861L97.4968 49.1421L89.6926 63.3363L104.348 70.2288Z" fill="#FFDA44"/>
</g>
<defs>
<clipPath id="clip0_8148_4947">
<rect width="240" height="240" fill="white"/>
</clipPath>
</defs>
</svg>
