<svg width="240" height="240" viewBox="0 0 240 240" fill="none" xmlns="http://www.w3.org/2000/svg">
<g clip-path="url(#clip0_8148_4957)">
<path d="M5.66625 83.4784C1.99031 94.9946 -0.000468667 107.263 8.276e-08 119.999C-0.000468667 132.735 1.99078 145.004 5.66672 156.52L120 161.739L234.333 156.521C238.009 145.005 240 132.735 240 120C240 107.264 238.009 94.9947 234.333 83.4779L120 78.2607L5.66625 83.4784Z" fill="#F0F0F0"/>
<path d="M234.332 83.4789L119.999 78.2617L5.665 83.4789C4.57562 86.8933 3.63766 90.3747 2.85156 93.9138H237.144C236.359 90.3742 235.421 86.8923 234.332 83.4789Z" fill="#D80027"/>
<path d="M2.85352 146.087C3.63867 149.626 4.57664 153.107 5.66602 156.521L5.67727 156.522L119.999 161.739L234.332 156.522C235.421 153.107 236.359 149.626 237.145 146.087H2.85352Z" fill="#D80027"/>
<path d="M119.999 240C173.538 240 218.88 204.936 234.332 156.521H5.66602C21.1184 204.935 66.4615 240 119.999 240Z" fill="#6DA544"/>
<path d="M119.999 4.69973e-09C66.4615 0.000468755 21.1193 35.0644 5.66602 83.4783L234.332 83.4788C218.881 35.0639 173.538 -0.000468745 119.999 4.69973e-09Z" fill="#338AF3"/>
<path d="M54.8376 49.5657C54.8376 38.3265 62.7365 28.9374 73.2848 26.634C71.6638 26.2796 69.9815 26.0879 68.2537 26.0879C55.2871 26.0879 44.7754 36.5991 44.7754 49.5662C44.7754 62.5332 55.2862 73.0445 68.2537 73.0445C69.9815 73.0445 71.6634 72.8523 73.2848 72.4984C62.737 70.194 54.8376 60.8049 54.8376 49.5657Z" fill="#F0F0F0"/>
<path d="M87.1609 60.2373L88.7499 65.1287H93.893L89.7324 68.1521L91.3215 73.0436L87.1609 70.0206L82.9993 73.0436L84.5888 68.1521L80.4277 65.1287H85.5709L87.1609 60.2373Z" fill="#F0F0F0"/>
<path d="M103.578 60.2373L105.167 65.1287H110.311L106.149 68.1521L107.739 73.0436L103.578 70.0206L99.4168 73.0436L101.006 68.1521L96.8457 65.1287H101.988L103.578 60.2373Z" fill="#F0F0F0"/>
<path d="M119.993 60.2373L121.582 65.1287H126.726L122.564 68.1521L124.154 73.0436L119.993 70.0206L115.831 73.0436L117.421 68.1521L113.26 65.1287H118.403L119.993 60.2373Z" fill="#F0F0F0"/>
<path d="M136.409 60.2373L137.998 65.1287H143.141L138.98 68.1521L140.57 73.0436L136.409 70.0206L132.247 73.0436L133.837 68.1521L129.676 65.1287H134.819L136.409 60.2373Z" fill="#F0F0F0"/>
<path d="M152.826 60.2373L154.415 65.1287H159.559L155.398 68.1521L156.987 73.0436L152.826 70.0206L148.665 73.0436L150.254 68.1521L146.094 65.1287H151.236L152.826 60.2373Z" fill="#F0F0F0"/>
<path d="M103.578 43.1621L105.167 48.053H110.311L106.149 51.077L107.739 55.9679L103.578 52.9449L99.4168 55.9679L101.006 51.077L96.8457 48.053H101.988L103.578 43.1621Z" fill="#F0F0F0"/>
<path d="M119.993 43.1621L121.582 48.053H126.726L122.564 51.077L124.154 55.9679L119.993 52.9449L115.831 55.9679L117.421 51.077L113.26 48.053H118.403L119.993 43.1621Z" fill="#F0F0F0"/>
<path d="M136.409 43.1621L137.998 48.053H143.141L138.98 51.077L140.57 55.9679L136.409 52.9449L132.247 55.9679L133.837 51.077L129.676 48.053H134.819L136.409 43.1621Z" fill="#F0F0F0"/>
<path d="M152.826 43.1621L154.415 48.053H159.559L155.398 51.077L156.987 55.9679L152.826 52.9449L148.665 55.9679L150.254 51.077L146.094 48.053H151.236L152.826 43.1621Z" fill="#F0F0F0"/>
<path d="M119.993 26.0869L121.582 30.9788H126.726L122.564 34.0018L124.154 38.8936L119.993 35.8707L115.831 38.8936L117.421 34.0018L113.26 30.9788H118.403L119.993 26.0869Z" fill="#F0F0F0"/>
<path d="M136.409 26.0869L137.998 30.9788H143.141L138.98 34.0018L140.57 38.8936L136.409 35.8707L132.247 38.8936L133.837 34.0018L129.676 30.9788H134.819L136.409 26.0869Z" fill="#F0F0F0"/>
<path d="M152.826 26.0869L154.415 30.9788H159.559L155.398 34.0018L156.987 38.8936L152.826 35.8707L148.665 38.8936L150.254 34.0018L146.094 30.9788H151.236L152.826 26.0869Z" fill="#F0F0F0"/>
</g>
<defs>
<clipPath id="clip0_8148_4957">
<rect width="240" height="240" fill="white"/>
</clipPath>
</defs>
</svg>
