<svg width="240" height="240" viewBox="0 0 240 240" fill="none" xmlns="http://www.w3.org/2000/svg">
<g clip-path="url(#clip0_8148_4978)">
<path d="M240 120C240 114.696 239.651 109.472 238.984 104.348H104.347C79.8306 79.8338 35.1452 35.1512 35.147 35.1475C-11.7157 82.0102 -11.7157 157.99 35.147 204.853L104.348 135.653H238.984C239.651 130.529 240 125.305 240 120Z" fill="black"/>
<path d="M239.964 122.729C239.959 122.96 239.954 123.193 239.947 123.424C239.953 123.192 239.959 122.96 239.964 122.729Z" fill="#F0F0F0"/>
<path d="M239.849 126.009C239.839 126.238 239.823 126.466 239.811 126.695C239.823 126.467 239.838 126.238 239.849 126.009Z" fill="#F0F0F0"/>
<path d="M239.688 128.624C239.664 128.961 239.64 129.298 239.613 129.634C239.64 129.298 239.663 128.961 239.688 128.624Z" fill="#F0F0F0"/>
<path d="M239.287 106.921C239.331 107.322 239.375 107.723 239.415 108.125C239.375 107.722 239.331 107.322 239.287 106.921Z" fill="#F0F0F0"/>
<path d="M239.811 113.305C239.823 113.533 239.839 113.762 239.849 113.991C239.838 113.762 239.823 113.533 239.811 113.305Z" fill="#F0F0F0"/>
<path d="M239.947 116.576C239.954 116.808 239.959 117.04 239.964 117.272C239.959 117.039 239.953 116.808 239.947 116.576Z" fill="#F0F0F0"/>
<path d="M239.613 110.365C239.64 110.701 239.664 111.038 239.688 111.375C239.663 111.038 239.64 110.701 239.613 110.365Z" fill="#F0F0F0"/>
<path d="M238.984 104.347C239.038 104.758 239.086 105.172 239.135 105.584C232.013 46.108 181.395 0 120 0C86.8626 0 56.8622 13.432 35.1465 35.1487L104.345 104.348H238.984V104.347Z" fill="#D80027"/>
<path d="M238.984 135.653H104.345L35.1465 204.852C56.8622 226.568 86.8626 240 120 240C181.395 240 232.014 193.892 239.135 134.416C239.086 134.828 239.037 135.241 238.984 135.653Z" fill="#6DA544"/>
<path d="M239.415 131.875C239.375 132.277 239.331 132.678 239.287 133.079C239.331 132.678 239.376 132.278 239.415 131.875Z" fill="#F0F0F0"/>
<path d="M239.688 111.376C239.733 112.018 239.774 112.661 239.809 113.305C239.774 112.661 239.733 112.018 239.688 111.376Z" fill="black"/>
<path d="M239.135 105.584C239.189 106.029 239.24 106.475 239.288 106.921C239.239 106.475 239.188 106.029 239.135 105.584Z" fill="black"/>
<path d="M239.414 108.125C239.487 108.87 239.553 109.617 239.613 110.366C239.554 109.617 239.488 108.869 239.414 108.125Z" fill="black"/>
<path d="M239.999 120C239.999 120.913 239.985 121.822 239.965 122.729C239.985 121.821 239.999 120.912 239.999 120Z" fill="black"/>
<path d="M239.811 126.695C239.776 127.34 239.734 127.983 239.689 128.625C239.734 127.983 239.775 127.34 239.811 126.695Z" fill="black"/>
<path d="M239.613 129.635C239.553 130.383 239.487 131.131 239.414 131.875C239.488 131.131 239.554 130.383 239.613 129.635Z" fill="black"/>
<path d="M239.288 133.079C239.24 133.525 239.189 133.971 239.135 134.416C239.188 133.971 239.239 133.525 239.288 133.079Z" fill="black"/>
<path d="M239.965 117.271C239.985 118.179 239.999 119.088 239.999 120C239.999 119.088 239.985 118.179 239.965 117.271Z" fill="black"/>
<path d="M239.85 113.991C239.892 114.85 239.924 115.712 239.948 116.575C239.924 115.712 239.892 114.85 239.85 113.991Z" fill="black"/>
<path d="M239.948 123.425C239.924 124.288 239.892 125.15 239.85 126.009C239.893 125.15 239.924 124.288 239.948 123.425Z" fill="black"/>
<path d="M239.885 114.739H99.9372L28.0512 42.8643C25.7276 45.3149 23.2091 48.7367 21.6514 51.1738L90.3977 119.956L21.5938 188.761C22.9559 191.185 25.9236 194.772 28.0072 197.106L99.9386 125.174H239.901C239.976 123.444 239.999 121.706 239.999 119.957C239.999 117.614 239.934 115.887 239.885 114.739Z" fill="#FFDA44"/>
<path d="M29.1495 145.581V135.53C39.1798 135.53 47.3393 127.369 47.3393 117.34C47.3393 110.244 41.5657 104.47 34.4698 104.47C29.6356 104.47 25.7023 108.403 25.7023 113.238C25.7023 116.33 28.2172 118.845 31.309 118.845C33.0565 118.845 34.4782 117.422 34.4782 115.675H44.5292C44.5292 122.965 38.5985 128.896 31.3095 128.896C22.6756 128.896 15.6523 121.872 15.6523 113.239C15.6523 102.863 24.0945 94.4209 34.4703 94.4209C47.1087 94.4209 57.3912 104.703 57.3912 117.341C57.3907 132.912 44.7218 145.581 29.1495 145.581Z" fill="#FFDA44"/>
</g>
<defs>
<clipPath id="clip0_8148_4978">
<rect width="240" height="240" fill="white"/>
</clipPath>
</defs>
</svg>
