<svg width="240" height="240" viewBox="0 0 240 240" fill="none" xmlns="http://www.w3.org/2000/svg">
<g clip-path="url(#clip0_8148_5004)">
<path d="M120 0C186.273 0 240 53.7262 240 120C240 186.274 186.273 240 120 240C120 234.783 104.348 120 104.348 120L120 0Z" fill="#F0F0F0"/>
<path d="M120 240C53.7262 240 0 186.274 0 120C0 53.7262 53.7262 0 120 0" fill="#FFDA44"/>
<path d="M165.952 104.421L188.504 134.255C184.951 139.635 184.97 146.884 189.079 152.32C194.292 159.216 204.108 160.581 211.004 155.368C217.9 150.156 219.265 140.339 214.051 133.444C209.943 128.008 202.973 126.013 196.828 127.964L161.681 81.4668L153.357 87.7593L140.869 97.1971L153.454 113.845L165.952 104.421ZM198.419 138.719C200.718 136.981 203.99 137.437 205.728 139.735C207.465 142.034 207.011 145.306 204.712 147.044C202.414 148.781 199.141 148.327 197.404 146.028C195.666 143.729 196.121 140.457 198.419 138.719Z" fill="#ACABB1"/>
<path d="M204.633 113.845L217.218 97.1971L204.731 87.7583L196.407 81.4658L161.26 127.963C155.115 126.012 148.145 128.007 144.036 133.443C138.823 140.339 140.188 150.155 147.084 155.367C153.98 160.58 163.796 159.215 169.008 152.319C173.117 146.883 173.136 139.634 169.583 134.254L192.135 104.42L204.633 113.845ZM160.684 146.028C158.947 148.327 155.675 148.781 153.376 147.044C151.077 145.306 150.623 142.033 152.36 139.735C154.098 137.437 157.37 136.981 159.669 138.719C161.967 140.457 162.422 143.729 160.684 146.028Z" fill="#FFDA44"/>
</g>
<defs>
<clipPath id="clip0_8148_5004">
<rect width="240" height="240" fill="white"/>
</clipPath>
</defs>
</svg>
