<svg width="240" height="240" viewBox="0 0 240 240" fill="none" xmlns="http://www.w3.org/2000/svg">
<g clip-path="url(#clip0_8148_5009)">
<path d="M228.093 172.174C235.722 156.398 240 138.699 240 120C240 101.301 235.722 83.6027 228.093 67.8264L120 57.3916L11.9072 67.8264C4.27828 83.6027 0 101.301 0 120C0 138.699 4.27828 156.398 11.9072 172.174L120 182.609L228.093 172.174Z" fill="#0052B4"/>
<path d="M119.999 240C167.574 240 208.682 212.313 228.092 172.174H11.9062C31.3162 212.313 72.4237 240 119.999 240Z" fill="#D80027"/>
<path d="M207.828 143.556L201.49 148.509L204.24 156.066L197.571 151.569L191.233 156.521L193.449 148.789L186.781 144.291L194.82 144.01L197.038 136.278L199.79 143.836L207.828 143.556Z" fill="#F0F0F0"/>
<path d="M191.597 115.444L187.336 122.266L192.506 128.426L184.701 126.483L180.439 133.303L179.876 125.279L172.072 123.333L179.531 120.319L178.97 112.295L184.14 118.458L191.597 115.444Z" fill="#F0F0F0"/>
<path d="M166.732 94.5791L165.06 102.447L172.026 106.469L164.027 107.312L162.354 115.178L159.082 107.831L151.082 108.67L157.06 103.288L153.789 95.9408L160.755 99.9618L166.732 94.5791Z" fill="#F0F0F0"/>
<path d="M136.228 83.4785L137.349 91.444L145.27 92.8399L138.041 96.3677L139.16 104.333L133.573 98.5465L126.342 102.072L130.119 94.9694L124.531 89.1841L132.453 90.5805L136.228 83.4785Z" fill="#F0F0F0"/>
<path d="M103.769 83.4785L107.546 90.5805L115.466 89.1832L109.88 94.9709L113.655 102.073L106.426 98.5465L100.837 104.331L101.958 96.3677L94.7285 92.8418L102.65 91.444L103.769 83.4785Z" fill="#F0F0F0"/>
<path d="M73.2673 94.5791L79.2457 99.9618L86.2099 95.9408L82.9394 103.291L88.9165 108.672L80.9173 107.831L77.6445 115.178L75.9743 107.311L67.9746 106.471L74.9402 102.448L73.2673 94.5791Z" fill="#F0F0F0"/>
<path d="M48.4012 115.445L55.8604 118.458L61.0288 112.297L60.4696 120.322L67.9265 123.336L60.1223 125.281L59.5602 133.303L55.2993 126.484L47.4941 128.428L52.6645 122.267L48.4012 115.445Z" fill="#F0F0F0"/>
<path d="M32.1719 143.556L40.2119 143.836L42.9616 136.279L45.1811 144.012L53.2187 144.293L46.5503 148.791L48.7666 156.522L42.4291 151.57L35.7602 156.067L38.5112 148.509L32.1719 143.556Z" fill="#F0F0F0"/>
<path d="M228.092 67.8262C208.682 27.6867 167.574 0 119.999 0C72.4237 0 31.3162 27.6867 11.9062 67.8262H228.092Z" fill="#FFDA44"/>
</g>
<defs>
<clipPath id="clip0_8148_5009">
<rect width="240" height="240" fill="white"/>
</clipPath>
</defs>
</svg>
