<svg width="240" height="240" viewBox="0 0 240 240" fill="none" xmlns="http://www.w3.org/2000/svg">
<g clip-path="url(#clip0_8148_5025)">
<path d="M120 240C186.274 240 240 186.274 240 120C240 53.7258 186.274 0 120 0C53.7258 0 0 53.7258 0 120C0 186.274 53.7258 240 120 240Z" fill="#FCFCFC"/>
<path d="M140.381 83.8344C140.381 72.5788 131.256 63.4541 120 63.4541C108.744 63.4541 99.6196 72.5788 99.6196 83.8344H54.7832C54.7832 94.9161 64.4366 103.901 75.5184 103.901H74.8509C74.8509 114.983 83.834 123.968 94.9176 123.968C94.9176 133.781 101.965 141.934 111.272 143.677L111.22 143.794H128.781L128.729 143.677C138.037 141.933 145.084 133.78 145.084 123.968C156.167 123.968 165.15 114.983 165.15 103.901H164.482C175.564 103.901 185.218 94.9161 185.218 83.8344H140.381Z" fill="#FFDA44"/>
<path d="M111.041 141.715L98.4043 170.244C105.072 172.955 112.359 174.461 120.001 174.461C127.642 174.461 134.929 172.955 141.596 170.244L128.96 141.715H111.041Z" fill="#FFDA44"/>
<path d="M93.9141 93.8564V128.962C93.9141 148.929 120.001 155.048 120.001 155.048C120.001 155.048 146.088 148.929 146.088 128.962V93.8564H93.9141Z" fill="#F0F0F0"/>
<path d="M29.1005 120.845L43.2094 160.306L57.1716 120.845H67.8272L47.4712 173.018H38.947L18.4453 120.845H29.1005Z" fill="#338AF3"/>
<path d="M193.045 173.018V120.845H203.185V173.018H193.045Z" fill="#338AF3"/>
<path d="M104.348 105.192V147.733C107.934 150.373 111.793 152.188 114.783 153.351V105.192H104.348Z" fill="#D80027"/>
<path d="M135.652 105.192V147.733C132.065 150.373 128.206 152.188 125.217 153.351V105.192H135.652Z" fill="#D80027"/>
<path d="M93.9141 93.8555H146.088V110.41H93.9141V93.8555Z" fill="#0052B4"/>
</g>
<defs>
<clipPath id="clip0_8148_5025">
<rect width="240" height="240" fill="white"/>
</clipPath>
</defs>
</svg>
