<svg width="240" height="240" viewBox="0 0 240 240" fill="none" xmlns="http://www.w3.org/2000/svg">
<g clip-path="url(#clip0_8148_5038)">
<path d="M120 240C186.274 240 240 186.274 240 120C240 53.7258 186.274 0 120 0C53.7258 0 0 53.7258 0 120C0 186.274 53.7258 240 120 240Z" fill="#F0F0F0"/>
<path d="M240 120C240 186.274 186.274 240 120 240C53.7262 240 0 186.274 0 120" fill="#496E2D"/>
<path d="M207.662 83.5048C203.371 71.3347 191.775 62.6094 178.137 62.6094H151.304C134.015 62.6094 119.999 76.625 119.999 93.9139C119.999 99.5623 121.503 104.991 124.12 109.566C114.156 109.484 104.934 109.635 99.1297 109.566C99.1297 97.4928 99.1297 82.1131 99.1297 78.8952L100.362 77.6623C105.897 72.1283 104.051 62.9052 104.051 62.9052C104.051 62.9052 94.8289 61.0606 89.2948 66.5947L82.8453 73.0442H75.6514C59.803 73.0442 46.9559 85.8917 46.9559 101.74H67.8256V125.218C67.8256 128.652 68.518 131.923 69.7691 134.903L62.608 140.87H52.1731V130.435H41.7383V151.305H88.6948V172.175H78.26V182.609H99.1297V161.74L108.695 150.261H131.304L140.869 161.74V172.175H130.434V182.609H172.173V125.218C172.173 116.573 179.18 109.565 187.825 109.565C188.047 109.565 188.267 109.573 188.487 109.582C188.055 107.91 187.825 106.156 187.825 104.348C187.826 93.1691 196.616 84.0434 207.662 83.5048ZM151.304 172.174V150.261H152.173L161.738 161.739V172.174H151.304Z" fill="#D80027"/>
</g>
<defs>
<clipPath id="clip0_8148_5038">
<rect width="240" height="240" fill="white"/>
</clipPath>
</defs>
</svg>
