<svg width="240" height="240" viewBox="0 0 240 240" fill="none" xmlns="http://www.w3.org/2000/svg">
<g clip-path="url(#clip0_8148_5042)">
<path d="M120 240C186.274 240 240 186.274 240 120C240 53.7258 186.274 0 120 0C53.7258 0 0 53.7258 0 120C0 186.274 53.7258 240 120 240Z" fill="#F0F0F0"/>
<path d="M120.001 240C171.597 240 215.582 207.435 232.537 161.739H7.46484C24.42 207.435 68.4052 240 120.001 240Z" fill="black"/>
<path d="M120.001 0C68.4052 0 24.42 32.565 7.46484 78.2611H232.538C215.582 32.565 171.597 0 120.001 0Z" fill="#D80027"/>
</g>
<defs>
<clipPath id="clip0_8148_5042">
<rect width="240" height="240" fill="white"/>
</clipPath>
</defs>
</svg>
