<svg width="240" height="240" viewBox="0 0 240 240" fill="none" xmlns="http://www.w3.org/2000/svg">
<g clip-path="url(#clip0_8148_5046)">
<path d="M120 240C186.274 240 240 186.274 240 120C240 53.7258 186.274 0 120 0C53.7258 0 0 53.7258 0 120C0 186.274 53.7258 240 120 240Z" fill="#496E2D"/>
<path d="M166.957 120H120V240C134.027 240 147.488 237.585 160 233.163L166.957 120Z" fill="#D80027"/>
<path d="M199.999 209.434C224.547 187.462 240 155.537 240 120H193.043L199.999 209.434Z" fill="#FF9811"/>
<path d="M160 120V233.163C174.905 227.894 188.458 219.766 200 209.435V120H160Z" fill="black"/>
<path d="M221.739 78.261H190.434C190.434 72.4982 185.762 67.8262 179.999 67.8262C174.236 67.8262 169.564 72.4982 169.564 78.261H138.26C138.26 84.0243 143.28 88.6959 149.042 88.6959H148.695C148.695 94.4591 153.366 99.1307 159.129 99.1307C159.129 104.894 163.801 109.566 169.564 109.566H190.434C196.197 109.566 200.869 104.894 200.869 99.1307C206.632 99.1307 211.304 94.4591 211.304 88.6959H210.956C216.719 88.6954 221.739 84.0238 221.739 78.261Z" fill="#FF9811"/>
</g>
<defs>
<clipPath id="clip0_8148_5046">
<rect width="240" height="240" fill="white"/>
</clipPath>
</defs>
</svg>
