<svg width="240" height="240" viewBox="0 0 240 240" fill="none" xmlns="http://www.w3.org/2000/svg">
<g clip-path="url(#clip0_8148_5052)">
<path d="M120 240C186.274 240 240 186.274 240 120C240 53.7258 186.274 0 120 0C53.7258 0 0 53.7258 0 120C0 186.274 53.7258 240 120 240Z" fill="#F0F0F0"/>
<path d="M228.514 68.7202C222.418 55.8418 214.097 44.2247 204.047 34.3599L120 26.0869L35.9532 34.3604C35.6851 34.6233 35.4235 34.8924 35.1582 35.1582L68.7207 68.7207L120 70.2868L228.514 68.7202Z" fill="#FFDA44"/>
<path d="M35.1562 204.843C35.5978 205.285 36.0384 205.727 36.4866 206.162L120 213.913L203.512 206.162C213.665 196.318 222.088 184.7 228.27 171.802L73.0425 166.957C59.6864 180.313 44.2814 195.717 35.1562 204.843Z" fill="#FFDA44"/>
<path d="M238.807 103.081L99.1309 99.1304L120.001 120C113.819 126.181 104.591 135.409 99.1309 140.87L238.734 137.441C239.564 131.746 240.001 125.925 240.001 120C240.001 114.256 239.588 108.609 238.807 103.081Z" fill="black"/>
<path d="M120 0C87.2681 0 57.6028 13.1109 35.9531 34.3603H204.047C182.397 13.1109 152.732 0 120 0Z" fill="#6DA544"/>
<path d="M103.081 103.081H238.807C237.095 90.9497 233.572 79.4026 228.515 68.7202H68.7207L103.081 103.081Z" fill="#D80027"/>
<path d="M68.1992 171.802H228.272C233.388 161.127 236.967 149.579 238.735 137.441H102.56C89.2531 150.748 77.9759 162.025 68.1992 171.802Z" fill="#D80027"/>
<path d="M120 240C152.464 240 181.91 227.104 203.512 206.162H36.4883C58.0902 227.104 87.537 240 120 240Z" fill="#6DA544"/>
<path d="M42.8504 28.0942C40.1827 30.3358 37.6088 32.6856 35.1465 35.1471L120 120L35.1465 204.853C37.6084 207.315 40.1827 209.665 42.8504 211.906L134.756 120L42.8504 28.0942Z" fill="black"/>
<path d="M48.2467 88.6953L56.0163 112.609H81.1623L60.8195 127.39L68.5895 151.304L48.2467 136.524L27.9034 151.304L35.6744 127.39L15.332 112.609H40.4767L48.2467 88.6953Z" fill="#D80027"/>
<path d="M69.6184 121.957L49.3694 114.783C49.3694 114.783 47.8731 100.747 47.7827 100.271C47.0955 96.6511 43.9141 93.9131 40.0937 93.9131C35.7719 93.9131 32.2675 97.417 32.2675 101.739C32.2675 102.456 32.372 103.147 32.5525 103.807L26.875 109.522H36.97C36.97 120 29.1512 120 29.1512 130.435L33.4886 140.87H59.5755L63.9236 130.435H63.9217C64.3572 129.434 64.6216 128.401 64.7308 127.369C68.4789 125.853 69.6184 121.957 69.6184 121.957Z" fill="#FFDA44"/>
</g>
<defs>
<clipPath id="clip0_8148_5052">
<rect width="240" height="240" fill="white"/>
</clipPath>
</defs>
</svg>
