<svg width="240" height="240" viewBox="0 0 240 240" fill="none" xmlns="http://www.w3.org/2000/svg">
<g clip-path="url(#clip0_8148_3184)">
<path d="M120 240C186.274 240 240 186.274 240 120C240 53.7258 186.274 0 120 0C53.7258 0 0 53.7258 0 120C0 186.274 53.7258 240 120 240Z" fill="#6DA544"/>
<path d="M119.999 46.9565L219.13 120L119.999 193.043L20.8691 120L119.999 46.9565Z" fill="#FFDA44"/>
<path d="M120.001 161.739C143.052 161.739 161.74 143.052 161.74 120C161.74 96.9484 143.052 78.2612 120.001 78.2612C96.9489 78.2612 78.2617 96.9484 78.2617 120C78.2617 143.052 96.9489 161.739 120.001 161.739Z" fill="#F0F0F0"/>
<path d="M99.1295 117.392C91.8714 117.392 84.8669 118.496 78.2734 120.544C78.5655 143.344 97.1298 161.74 119.999 161.74C134.14 161.74 146.63 154.7 154.18 143.942C141.263 127.772 121.387 117.392 99.1295 117.392Z" fill="#0052B4"/>
<path d="M160.965 127.997C161.468 125.408 161.739 122.736 161.739 120C161.739 96.9479 143.052 78.2612 120 78.2612C102.8 78.2612 88.0345 88.668 81.6445 103.526C87.293 102.356 93.1411 101.74 99.1312 101.74C123.374 101.739 145.305 111.816 160.965 127.997Z" fill="#0052B4"/>
</g>
<defs>
<clipPath id="clip0_8148_3184">
<rect width="240" height="240" fill="white"/>
</clipPath>
</defs>
</svg>
