<svg width="16" height="16" viewBox="0 0 16 16" fill="none" xmlns="http://www.w3.org/2000/svg">
<path d="M7 2C6.73828 2 6.4707 2.0918 6.28125 2.28125C6.0918 2.4707 6 2.73828 6 3V3.5H3V4.5H3.5V12.5C3.5 13.3223 4.17773 14 5 14H11C11.8223 14 12.5 13.3223 12.5 12.5V4.5H13V3.5H10V3C10 2.73828 9.9082 2.4707 9.71875 2.28125C9.5293 2.0918 9.26172 2 9 2H7ZM7 3H9V3.5H7V3ZM4.5 4.5H11.5V12.5C11.5 12.7773 11.2773 13 11 13H5C4.72266 13 4.5 12.7773 4.5 12.5V4.5ZM5.5 6V11.5H6.5V6H5.5ZM7.5 6V11.5H8.5V6H7.5ZM9.5 6V11.5H10.5V6H9.5Z" fill="#DF3F3F"/>
</svg>
