<svg width="32" height="32" viewBox="0 0 32 32" fill="none" xmlns="http://www.w3.org/2000/svg">
<g clip-path="url(#clip0_13131_4150)">
<path d="M16 32C24.8366 32 32 24.8366 32 16C32 7.16344 24.8366 0 16 0C7.16344 0 0 7.16344 0 16C0 24.8366 7.16344 32 16 32Z" fill="#6DA544"/>
<path d="M15.9996 6.26086L29.217 16L15.9996 25.7391L2.78223 16L15.9996 6.26086Z" fill="#FFDA44"/>
<path d="M15.9998 21.5652C19.0733 21.5652 21.5649 19.0736 21.5649 16C21.5649 12.9264 19.0733 10.4348 15.9998 10.4348C12.9262 10.4348 10.4346 12.9264 10.4346 16C10.4346 19.0736 12.9262 21.5652 15.9998 21.5652Z" fill="#F0F0F0"/>
<path d="M13.2173 15.6522C12.2496 15.6522 11.3156 15.7994 10.4365 16.0725C10.4755 19.1125 12.9507 21.5653 16 21.5653C17.8855 21.5653 19.5507 20.6267 20.5574 19.1923C18.8351 17.0362 16.185 15.6522 13.2173 15.6522V15.6522Z" fill="#0052B4"/>
<path d="M21.4619 17.0663C21.5289 16.721 21.5651 16.3648 21.5651 16C21.5651 12.9264 19.0734 10.4348 15.9999 10.4348C13.7065 10.4348 11.7377 11.8224 10.8857 13.8035C11.6389 13.6474 12.4186 13.5653 13.2173 13.5653C16.4496 13.5652 19.3737 14.9088 21.4619 17.0663V17.0663Z" fill="#0052B4"/>
</g>
<defs>
<clipPath id="clip0_13131_4150">
<rect width="32" height="32" fill="white"/>
</clipPath>
</defs>
</svg>
