<svg width="126" height="31" viewBox="0 0 126 31" fill="none" xmlns="http://www.w3.org/2000/svg">
<path d="M60.1545 30.446C57.6345 30.446 55.5569 29.568 53.9218 27.8119L56.5476 25.4093C57.6441 26.6444 58.8176 27.2619 60.068 27.2619C60.7413 27.2619 61.251 27.1171 61.5973 26.8277C61.9628 26.5189 62.1455 26.1426 62.1455 25.6988C62.1455 25.4286 62.0782 25.197 61.9436 25.004C61.8281 24.8111 61.5684 24.6277 61.1645 24.4541C60.7797 24.2804 60.193 24.1067 59.4043 23.933C58.0577 23.605 57.0574 23.1997 56.4034 22.7173C55.7493 22.2348 55.3165 21.6945 55.1049 21.0963C54.8933 20.498 54.7875 19.8805 54.7875 19.2437C54.7875 17.9314 55.278 16.8411 56.2591 15.9727C57.2594 15.085 58.6348 14.6412 60.3854 14.6412C61.5973 14.6412 62.6361 14.8245 63.5017 15.1912C64.3674 15.5578 65.185 16.2429 65.9544 17.2464L63.1266 19.4174C62.7611 18.8384 62.3475 18.4235 61.8858 18.1727C61.4434 17.9218 60.9721 17.7964 60.4719 17.7964C59.9333 17.7964 59.4813 17.9025 59.1158 18.1148C58.7695 18.327 58.5964 18.6648 58.5964 19.1279C58.5964 19.3788 58.7118 19.6296 58.9426 19.8805C59.1735 20.1121 59.7313 20.3437 60.6162 20.5752C62.0782 20.9419 63.194 21.3761 63.9634 21.8778C64.7329 22.3603 65.2619 22.9102 65.5505 23.5278C65.839 24.1453 65.9833 24.8304 65.9833 25.583C65.9833 26.5093 65.7236 27.3391 65.2042 28.0724C64.704 28.8057 64.0115 29.3846 63.1266 29.8092C62.261 30.2337 61.2703 30.446 60.1545 30.446Z" fill="#9DD3A1"/>
<path d="M74.9751 30.446C73.4361 30.446 72.0799 30.089 70.9065 29.375C69.733 28.661 68.8193 27.7154 68.1652 26.5382C67.5304 25.3418 67.213 24.0199 67.213 22.5725C67.213 21.1252 67.5497 19.8033 68.223 18.6069C68.8962 17.3911 69.81 16.4262 70.9642 15.7122C72.1376 14.9982 73.4746 14.6412 74.9751 14.6412C76.4755 14.6412 77.7933 14.9982 78.9282 15.7122C80.0825 16.4262 80.977 17.3911 81.6118 18.6069C82.2658 19.8033 82.5929 21.1252 82.5929 22.5725C82.5929 22.7848 82.5832 23.0067 82.564 23.2383C82.5448 23.4699 82.5159 23.7111 82.4774 23.962H71.2528C71.4644 24.8497 71.8876 25.5733 72.5224 26.133C73.1764 26.6926 73.994 26.9724 74.9751 26.9724C75.8215 26.9724 76.5525 26.7794 77.1681 26.3935C77.8029 26.0075 78.2934 25.5251 78.6397 24.9462L81.6695 27.2329C81.0731 28.1785 80.1786 28.9504 78.986 29.5487C77.7933 30.1469 76.4563 30.446 74.9751 30.446ZM74.9174 17.999C73.994 17.999 73.2053 18.2788 72.5512 18.8384C71.8972 19.3981 71.4644 20.1314 71.2528 21.0384H78.6685C78.4569 20.2086 78.0145 19.4946 77.3412 18.8963C76.6872 18.2981 75.8792 17.999 74.9174 17.999Z" fill="#9DD3A1"/>
<path d="M91.5792 30.446C90.0403 30.446 88.6841 30.089 87.5106 29.375C86.3372 28.661 85.4235 27.7154 84.7694 26.5382C84.1346 25.3418 83.8172 24.0199 83.8172 22.5725C83.8172 21.1252 84.1538 19.8033 84.8271 18.6069C85.5004 17.3911 86.4142 16.4262 87.5684 15.7122C88.7418 14.9982 90.0788 14.6412 91.5792 14.6412C93.0797 14.6412 94.3974 14.9982 95.5324 15.7122C96.6866 16.4262 97.5811 17.3911 98.2159 18.6069C98.87 19.8033 99.197 21.1252 99.197 22.5725C99.197 22.7848 99.1874 23.0067 99.1682 23.2383C99.1489 23.4699 99.1201 23.7111 99.0816 23.962H87.8569C88.0685 24.8497 88.4917 25.5733 89.1265 26.133C89.7806 26.6926 90.5982 26.9724 91.5792 26.9724C92.4257 26.9724 93.1566 26.7794 93.7722 26.3935C94.407 26.0075 94.8976 25.5251 95.2438 24.9462L98.2736 27.2329C97.6773 28.1785 96.7828 28.9504 95.5901 29.5487C94.3974 30.1469 93.0605 30.446 91.5792 30.446ZM91.5215 17.999C90.5981 17.999 89.8094 18.2788 89.1554 18.8384C88.5013 19.3981 88.0685 20.1314 87.8569 21.0384H95.2727C95.0611 20.2086 94.6186 19.4946 93.9454 18.8963C93.2913 18.2981 92.4834 17.999 91.5215 17.999Z" fill="#9DD3A1"/>
<path d="M101.196 30.0697V8.93872H105.091V21.0963L110.718 15.0175H116.258L109.189 22.0226L116.287 30.0697H111.122L105.091 22.9199V30.0697H101.196Z" fill="#9DD3A1"/>
<path d="M117.575 30.0697V15.0175H121.355V17.8832C121.605 16.8025 122.114 15.9824 122.884 15.4227C123.653 14.8438 124.692 14.5929 126 14.6701V18.3463H125.452C124.336 18.3463 123.394 18.7034 122.624 19.4174C121.855 20.1314 121.47 21.1156 121.47 22.3699V30.0697H117.575Z" fill="#9DD3A1"/>
<path d="M7.7332 30.446C6.13654 30.446 4.66493 30.1082 3.31835 29.4328C1.99101 28.7381 0.884894 27.6188 0 26.075L3.49148 23.8461C4.01088 24.8882 4.66493 25.6505 5.45364 26.1329C6.24235 26.5961 7.07915 26.8276 7.96404 26.8276C8.90665 26.8276 9.64726 26.6154 10.1859 26.1908C10.7245 25.7663 10.9938 25.2066 10.9938 24.5119C10.9938 23.8365 10.7822 23.2962 10.359 22.8909C9.93582 22.4857 9.36833 22.1576 8.65657 21.9067C7.96404 21.6559 7.20419 21.4243 6.377 21.212C4.81882 20.8068 3.57805 20.141 2.65468 19.2147C1.73131 18.2691 1.26963 17.0341 1.26963 15.5095C1.26963 14.2938 1.5678 13.2324 2.16414 12.3254C2.76048 11.4184 3.58767 10.7141 4.64569 10.2123C5.72295 9.71059 6.97335 9.45972 8.39687 9.45972C9.97429 9.45972 11.292 9.78778 12.35 10.4439C13.4081 11.1 14.3122 12.0263 15.0624 13.2228L11.5998 15.3648C11.1189 14.5736 10.6187 13.9947 10.0993 13.628C9.57993 13.2614 8.94512 13.078 8.19488 13.078C7.38694 13.078 6.71365 13.2807 6.17502 13.6859C5.65562 14.0912 5.39593 14.6315 5.39593 15.3069C5.39593 16.0595 5.70372 16.6095 6.31929 16.9569C6.95411 17.2849 7.71396 17.584 8.59886 17.8542C9.1952 18.0472 9.85887 18.2788 10.5899 18.5489C11.3401 18.7998 12.0615 19.1568 12.754 19.62C13.4465 20.0638 14.014 20.662 14.4565 21.4146C14.8989 22.1672 15.1201 23.1225 15.1201 24.2803C15.1201 25.4961 14.822 26.5671 14.2256 27.4934C13.6293 28.4197 12.7829 29.1434 11.6864 29.6644C10.5899 30.1854 9.27215 30.446 7.7332 30.446Z" fill="white"/>
<path d="M28.467 30.0697V15.0175H32.3048V17.2174C33.0935 15.5192 34.6228 14.6701 36.8927 14.6701C37.9508 14.6701 38.903 14.921 39.7494 15.4227C40.5958 15.9051 41.2691 16.5999 41.7693 17.5069C42.2694 16.5999 42.9042 15.9051 43.6737 15.4227C44.4624 14.921 45.5205 14.6701 46.8478 14.6701C47.9251 14.6701 48.8965 14.921 49.7622 15.4227C50.6278 15.9244 51.3107 16.6385 51.8109 17.5647C52.311 18.491 52.5611 19.591 52.5611 20.8647V30.0697H48.6657V21.8199C48.6657 20.5076 48.3867 19.5621 47.8289 18.9831C47.271 18.3849 46.5496 18.0858 45.6647 18.0858C44.7606 18.0858 44.02 18.3463 43.4429 18.8673C42.885 19.3884 42.6061 20.3726 42.6061 21.8199V30.0697H38.7106V21.8199C38.7106 20.5076 38.4124 19.5621 37.8161 18.9831C37.2198 18.3849 36.4407 18.0858 35.4788 18.0858C34.6516 18.0858 33.9207 18.3849 33.2858 18.9831C32.6703 19.5621 32.3625 20.5076 32.3625 21.8199V30.0697H28.467Z" fill="white"/>
<mask id="mask0_13149_7445" style="mask-type:alpha" maskUnits="userSpaceOnUse" x="30" y="-3" width="24" height="19">
<path d="M53.5107 14.0654C53.2981 13.9097 53.076 13.7649 52.8447 13.6309C51.636 12.9302 50.2796 12.5802 48.7754 12.5801C46.9218 12.5801 43.1728 12.5795 41.7539 15.4199C40.7402 12.5798 36.8896 12.5794 35.0654 13.0645C33.1904 13.0645 31.6096 13.3098 30.4033 14.001V-2.43457H53.5107V14.0654Z" fill="black"/>
</mask>
<g mask="url(#mask0_13149_7445)">
<path d="M37.1655 10.7911C37.1655 10.0475 36.8368 9.38625 36.3241 8.92236L34.4573 10.7911L36.3241 12.6598C36.8368 12.1959 37.1655 11.5346 37.1655 10.7911Z" fill="#C1EDC4"/>
<path d="M41.3724 10.7911C41.3724 8.88619 40.5672 7.1754 39.2953 5.94824L38.1121 7.13263C39.0784 8.05382 39.6897 9.35007 39.6897 10.7911C39.6897 12.2321 39.0784 13.5283 38.1121 14.4495L39.2953 15.6339C40.5672 14.41 41.3724 12.696 41.3724 10.7911Z" fill="#9DD3A1"/>
<path d="M45.5793 10.7911C45.5793 7.72484 44.3009 4.96455 42.2665 2.97412L41.0833 4.15851C42.812 5.84298 43.8966 8.19201 43.8966 10.7911C43.8966 13.3902 42.812 15.7392 41.0833 17.4237L42.2665 18.6081C44.3009 16.6176 45.5793 13.8573 45.5793 10.7911Z" fill="#46AF4D"/>
<path d="M49.7861 10.7911C49.7861 6.56678 48.0344 2.75371 45.2375 -1.99032e-07L44.0543 1.18439C46.5455 3.63213 48.1034 7.03067 48.1034 10.7911C48.1034 14.5515 46.5455 17.9501 44.0543 20.3978L45.2375 21.5822C48.0344 18.8285 49.7861 15.0154 49.7861 10.7911Z" fill="#2A7E2F"/>
</g>
<path fill-rule="evenodd" clip-rule="evenodd" d="M17.3296 21.0958C18.6065 19.6097 19.2342 17.6862 19.8475 15.8254C19.9072 15.644 19.9913 14.7425 20.0472 14.5269C20.1834 14.0018 20.3014 13.4756 20.4905 12.9831C20.587 12.7316 20.9603 12.7988 21.1912 12.7709C20.9571 12.5424 20.5956 12.5417 20.3416 12.1089C20.296 12.0311 20.2598 11.9263 20.2994 11.8527C20.3321 11.7919 20.4596 11.7476 20.5393 11.7661L21.024 11.8789C21.147 11.7423 20.8273 11.4286 20.7876 10.9865C20.6284 11.0136 20.4233 11.0203 20.3707 10.8359C20.2731 10.4938 21.1094 10.589 21.3051 10.5458C21.1498 10.3522 20.9205 10.4435 20.6824 10.3852C20.6053 9.91935 20.8033 9.33494 21.258 9.1068C21.5631 8.95365 21.979 8.88487 22.3243 8.95498C22.9154 9.07499 23.2847 9.6573 23.391 10.2121C23.5176 10.2084 23.6286 10.1998 23.6913 10.2499C23.7469 10.2944 23.7746 10.4097 23.7388 10.477C23.6405 10.6622 23.3856 10.5113 23.4438 10.7035C23.4536 10.7361 23.5162 10.7352 23.5661 10.7346L24.7322 10.7192L24.9529 10.3207C25.2885 10.1692 25.4787 10.5021 25.7298 10.5915C26.1355 10.7359 26.6324 10.5955 27.0666 10.5821L28.3422 10.5427C28.3897 10.399 28.4483 10.2246 28.579 10.1938C28.8986 10.1186 29.1805 10.2831 29.4352 10.4772L29.994 10.4719L30.0354 11.144C29.8469 11.2396 29.593 11.1202 29.4995 11.2208C29.4615 11.2618 29.4138 11.3616 29.418 11.4113L29.6209 11.4199C29.6546 11.4213 29.6807 11.4599 29.695 11.5337C29.4341 11.811 29.1354 12.001 28.8621 12.2577C28.2005 12.8793 27.717 13.6746 27.0195 14.2412C26.3582 14.7785 25.5423 15.0841 24.8379 15.5507C24.4643 15.7981 24.0369 15.8309 23.6219 15.7245L22.8423 15.5248C22.9071 15.6966 23.0593 15.7805 23.1998 15.8618L23.3511 16.7252C23.5654 17.9485 23.196 19.2017 22.3523 20.1131L22.2479 20.2258C21.3248 21.2231 20.5926 22.3813 20.0878 23.643C19.9736 23.9285 19.5984 24.0659 19.3148 24.1698L19.3092 24.1719C18.4848 24.4739 17.7492 24.8362 17.1623 25.4834C16.8434 25.6132 17.3721 23.6828 17.41 23.5126C17.8139 21.7012 19.271 21.2002 19.8475 19.4782C19.4545 20.1943 17.4105 22.4185 16.8783 22.8633L16.2467 23.3912C16.1689 23.4562 16.0756 23.5486 15.9425 23.4918L17.1725 21.2789C17.2259 21.2165 17.2783 21.1555 17.3296 21.0958ZM28.0119 11.3337C27.9054 11.5069 27.675 11.7107 27.737 11.9732C27.0614 12.3036 27.0137 12.5598 26.4792 13.1335C26.4548 12.9821 26.4816 12.8863 26.38 12.7881L25.9204 13.6082C25.8836 13.6737 25.7867 13.7487 25.741 13.713C25.8002 13.5851 25.8713 13.4925 25.8771 13.3822C25.5611 13.3883 25.3527 13.6066 25.0949 13.7571C25.021 13.6516 25.2066 13.6202 25.1723 13.4846C24.3273 13.7098 23.4419 13.6314 22.6813 13.252C22.8232 13.2469 22.9049 13.2771 23.0548 13.3062C23.138 13.1953 23.1987 13.0763 23.2692 12.9269L23.0063 12.7397C23.2307 12.6899 23.4568 12.7145 23.6042 12.5433L23.6324 11.6443C23.7253 11.6016 23.8388 11.5472 23.8044 11.4416C23.7811 11.3702 23.7166 11.3089 23.6253 11.1872L24.428 11.1773L24.6226 11.3603C24.1729 11.4847 24.5422 11.7274 24.3826 12.2571L24.0712 13.2907C24.4989 13.3869 24.9282 13.2809 25.2704 13.0205C25.5068 12.8407 25.748 12.3182 25.3929 12.1481C25.6443 12.1358 25.8117 11.6685 25.8387 11.5145C25.8511 11.4438 25.7636 11.4225 25.6632 11.3913C25.6795 11.3343 25.7636 11.1997 25.8379 11.1827L28.1681 11.1797C28.254 11.1796 28.3351 11.2176 28.3274 11.3249L28.0119 11.3337Z" fill="#9DD3A1"/>
<path d="M20.5433 28.9645C20.5664 28.1952 20.5042 27.4667 20.4744 26.7059L20.3839 24.3957L20.3839 24.3439C20.3839 23.7521 20.5104 23.1671 20.7551 22.6282C20.9702 22.1546 21.2602 21.7187 21.614 21.3373L23.7148 19.0725C23.7912 19.2984 23.9273 19.7362 23.8929 19.9561L22.6831 27.6855L22.203 30.2792L20.6363 30.2861C20.5912 29.8332 20.6213 29.4216 20.5433 28.9645Z" fill="#9DD3A1"/>
<path d="M30.169 11.3436L30.1616 10.3513C30.1608 10.2468 30.3128 10.2341 30.3804 10.2325C30.7291 10.2241 31.0526 10.1985 31.3942 10.1778L32.7999 10.0923C32.8805 10.2793 32.9011 10.4574 32.9551 10.683C33.0442 10.5448 32.896 9.95307 33.0925 10.0676C33.1187 10.0829 33.1743 10.1404 33.1741 10.1714L33.1678 11.4735C32.8934 11.5665 32.6753 11.4537 32.4236 11.4503C31.8245 11.4422 31.2437 11.3782 30.6459 11.3589L30.169 11.3436Z" fill="#9DD3A1"/>
</svg>
