<svg width="375" height="23" viewBox="0 0 375 23" fill="none" xmlns="http://www.w3.org/2000/svg">
<g opacity="0.3">
<path d="M-262 14.6274C-257.503 14.6274 -253.858 11.4932 -253.858 7.62744H-242.017C-242.017 11.4932 -238.372 14.6274 -233.875 14.6274C-229.378 14.6274 -225.733 11.4932 -225.733 7.62744H-213.892C-213.892 11.4932 -210.247 14.6274 -205.75 14.6274C-201.253 14.6274 -197.608 11.4932 -197.608 7.62744H-185.767C-185.767 11.4932 -182.122 14.6274 -177.625 14.6274C-173.128 14.6274 -169.483 11.4932 -169.483 7.62744H-157.642C-157.642 11.4932 -153.997 14.6274 -149.5 14.6274C-145.003 14.6274 -141.358 11.4932 -141.358 7.62744H-129.517C-129.517 11.4932 -125.872 14.6274 -121.375 14.6274C-116.878 14.6274 -113.233 11.4932 -113.233 7.62744H-101.392C-101.392 11.4932 -97.7468 14.6274 -93.2499 14.6274C-88.753 14.6274 -85.1076 11.4932 -85.1076 7.62744H-73.2674C-73.2674 11.4932 -69.6217 14.6274 -65.125 14.6274C-60.6283 14.6274 -56.9827 11.4932 -56.9827 7.62744H-45.1422C-45.1422 11.4932 -41.4968 14.6274 -36.9999 14.6274C-32.503 14.6274 -28.8575 11.4932 -28.8575 7.62744H-17.0173C-17.0173 11.4932 -13.3719 14.6274 -8.87496 14.6274C-4.37804 14.6274 -0.732612 11.4932 -0.732612 7.62744H11.1076C11.1076 11.4932 14.7532 14.6274 19.2501 14.6274C23.747 14.6274 27.3925 11.4932 27.3925 7.62744H39.2327C39.2327 11.4932 42.8783 14.6274 47.375 14.6274C51.8718 14.6274 55.5174 11.4932 55.5174 7.62744H67.3576C67.3576 11.4932 71.0033 14.6274 75.5002 14.6274C79.9971 14.6274 83.6423 11.4932 83.6423 7.62744H95.4827C95.4827 11.4932 99.1281 14.6274 103.625 14.6274C108.122 14.6274 111.767 11.4932 111.767 7.62744H123.608C123.608 11.4932 127.253 14.6274 131.75 14.6274C136.247 14.6274 139.892 11.4932 139.892 7.62744H151.733C151.733 11.4932 155.378 14.6274 159.875 14.6274C164.372 14.6274 168.017 11.4932 168.017 7.62744H179.858C179.858 11.4932 183.503 14.6274 188 14.6274C192.497 14.6274 196.142 11.4932 196.142 7.62744H207.983C207.983 11.4932 211.628 14.6274 216.125 14.6274C220.622 14.6274 224.267 11.4932 224.267 7.62744H236.108C236.108 11.4932 239.753 14.6274 244.25 14.6274C248.747 14.6274 252.392 11.4932 252.392 7.62744H264.233C264.233 11.4932 267.878 14.6274 272.375 14.6274C276.872 14.6274 280.517 11.4932 280.517 7.62744H292.358C292.358 11.4932 296.003 14.6274 300.5 14.6274C304.997 14.6274 308.642 11.4932 308.642 7.62744H320.483C320.483 11.4932 324.128 14.6274 328.625 14.6274C333.122 14.6274 336.767 11.4932 336.767 7.62744H348.608C348.608 11.4932 352.253 14.6274 356.75 14.6274C361.247 14.6274 364.892 11.4932 364.892 7.62744H376.733C376.733 11.4932 380.378 14.6274 384.875 14.6274C389.372 14.6274 393.017 11.4932 393.017 7.62744H404.858C404.858 11.4932 408.503 14.6274 413 14.6274C417.497 14.6274 421.142 11.4932 421.142 7.62744H432.983C432.983 11.4932 436.628 14.6274 441.125 14.6274C445.622 14.6274 449.267 11.4932 449.267 7.62744H461.108C461.108 11.4932 464.753 14.6274 469.25 14.6274C473.747 14.6274 477.392 11.4932 477.392 7.62744H489.233C489.233 11.4932 492.878 14.6274 497.375 14.6274C501.872 14.6274 505.517 11.4932 505.517 7.62744H517.358C517.358 11.4932 521.003 14.6274 525.5 14.6274C529.997 14.6274 533.642 11.4932 533.642 7.62744H545.483C545.483 11.4932 549.128 14.6274 553.625 14.6274C558.122 14.6274 561.767 11.4932 561.767 7.62744H573.608C573.608 11.4932 577.253 14.6274 581.75 14.6274C586.247 14.6274 589.892 11.4932 589.892 7.62744H601.733C601.733 11.4932 605.378 14.6274 609.875 14.6274C614.372 14.6274 618.017 11.4932 618.017 7.62744H629.858C629.858 11.4932 633.503 14.6274 638 14.6274" stroke="url(#paint0_linear_11223_11662)"/>
</g>
<defs>
<linearGradient id="paint0_linear_11223_11662" x1="-262" y1="11.1274" x2="638" y2="11.1274" gradientUnits="userSpaceOnUse">
<stop offset="0.291064" stop-color="#BDBDBD" stop-opacity="0"/>
<stop offset="0.395844" stop-color="#BDBDBD"/>
<stop offset="0.604006" stop-color="#BDBDBD"/>
<stop offset="0.70737" stop-color="#BDBDBD" stop-opacity="0"/>
</linearGradient>
</defs>
</svg>
