<svg width="900" height="23" viewBox="0 0 900 23" fill="none" xmlns="http://www.w3.org/2000/svg">
<g opacity="0.3">
<path d="M0 14.6274C4.49691 14.6274 8.14234 11.4932 8.14234 7.62744H19.9826C19.9826 11.4932 23.6282 14.6274 28.1249 14.6274C32.622 14.6274 36.2673 11.4932 36.2673 7.62744H48.1077C48.1077 11.4932 51.7531 14.6274 56.25 14.6274C60.7469 14.6274 64.3924 11.4932 64.3924 7.62744H76.2326C76.2326 11.4932 79.8782 14.6274 84.3749 14.6274C88.8717 14.6274 92.5173 11.4932 92.5173 7.62744H104.358C104.358 11.4932 108.003 14.6274 112.5 14.6274C116.997 14.6274 120.642 11.4932 120.642 7.62744H132.483C132.483 11.4932 136.128 14.6274 140.625 14.6274C145.122 14.6274 148.767 11.4932 148.767 7.62744H160.608C160.608 11.4932 164.253 14.6274 168.75 14.6274C173.247 14.6274 176.892 11.4932 176.892 7.62744H188.733C188.733 11.4932 192.378 14.6274 196.875 14.6274C201.372 14.6274 205.017 11.4932 205.017 7.62744H216.858C216.858 11.4932 220.503 14.6274 225 14.6274C229.497 14.6274 233.142 11.4932 233.142 7.62744H244.983C244.983 11.4932 248.628 14.6274 253.125 14.6274C257.622 14.6274 261.267 11.4932 261.267 7.62744H273.108C273.108 11.4932 276.753 14.6274 281.25 14.6274C285.747 14.6274 289.392 11.4932 289.392 7.62744H301.233C301.233 11.4932 304.878 14.6274 309.375 14.6274C313.872 14.6274 317.517 11.4932 317.517 7.62744H329.358C329.358 11.4932 333.003 14.6274 337.5 14.6274C341.997 14.6274 345.642 11.4932 345.642 7.62744H357.483C357.483 11.4932 361.128 14.6274 365.625 14.6274C370.122 14.6274 373.767 11.4932 373.767 7.62744H385.608C385.608 11.4932 389.253 14.6274 393.75 14.6274C398.247 14.6274 401.892 11.4932 401.892 7.62744H413.733C413.733 11.4932 417.378 14.6274 421.875 14.6274C426.372 14.6274 430.017 11.4932 430.017 7.62744H441.858C441.858 11.4932 445.503 14.6274 450 14.6274C454.497 14.6274 458.142 11.4932 458.142 7.62744H469.983C469.983 11.4932 473.628 14.6274 478.125 14.6274C482.622 14.6274 486.267 11.4932 486.267 7.62744H498.108C498.108 11.4932 501.753 14.6274 506.25 14.6274C510.747 14.6274 514.392 11.4932 514.392 7.62744H526.233C526.233 11.4932 529.878 14.6274 534.375 14.6274C538.872 14.6274 542.517 11.4932 542.517 7.62744H554.358C554.358 11.4932 558.003 14.6274 562.5 14.6274C566.997 14.6274 570.642 11.4932 570.642 7.62744H582.483C582.483 11.4932 586.128 14.6274 590.625 14.6274C595.122 14.6274 598.767 11.4932 598.767 7.62744H610.608C610.608 11.4932 614.253 14.6274 618.75 14.6274C623.247 14.6274 626.892 11.4932 626.892 7.62744H638.733C638.733 11.4932 642.378 14.6274 646.875 14.6274C651.372 14.6274 655.017 11.4932 655.017 7.62744H666.858C666.858 11.4932 670.503 14.6274 675 14.6274C679.497 14.6274 683.142 11.4932 683.142 7.62744H694.983C694.983 11.4932 698.628 14.6274 703.125 14.6274C707.622 14.6274 711.267 11.4932 711.267 7.62744H723.108C723.108 11.4932 726.753 14.6274 731.25 14.6274C735.747 14.6274 739.392 11.4932 739.392 7.62744H751.233C751.233 11.4932 754.878 14.6274 759.375 14.6274C763.872 14.6274 767.517 11.4932 767.517 7.62744H779.358C779.358 11.4932 783.003 14.6274 787.5 14.6274C791.997 14.6274 795.642 11.4932 795.642 7.62744H807.483C807.483 11.4932 811.128 14.6274 815.625 14.6274C820.122 14.6274 823.767 11.4932 823.767 7.62744H835.608C835.608 11.4932 839.253 14.6274 843.75 14.6274C848.247 14.6274 851.892 11.4932 851.892 7.62744H863.733C863.733 11.4932 867.378 14.6274 871.875 14.6274C876.372 14.6274 880.017 11.4932 880.017 7.62744H891.858C891.858 11.4932 895.503 14.6274 900 14.6274" stroke="url(#paint0_linear_11216_7040)"/>
</g>
<defs>
<linearGradient id="paint0_linear_11216_7040" x1="0" y1="11.1274" x2="900" y2="11.1274" gradientUnits="userSpaceOnUse">
<stop stop-color="#BDBDBD" stop-opacity="0"/>
<stop offset="0.197115" stop-color="#BDBDBD"/>
<stop offset="0.802885" stop-color="#BDBDBD"/>
<stop offset="1" stop-color="#BDBDBD" stop-opacity="0"/>
</linearGradient>
</defs>
</svg>
