<svg width="158" height="40" viewBox="0 0 158 40" fill="none" xmlns="http://www.w3.org/2000/svg">
<path d="M75.336 39.0577C72.18 39.0577 69.5781 37.9601 67.5303 35.765L70.8188 32.7618C72.192 34.3056 73.6616 35.0775 75.2276 35.0775C76.0708 35.0775 76.7092 34.8966 77.1429 34.5348C77.6006 34.1488 77.8295 33.6784 77.8295 33.1236C77.8295 32.7859 77.7452 32.4965 77.5765 32.2552C77.432 32.014 77.1067 31.7849 76.6008 31.5678C76.119 31.3507 75.3842 31.1336 74.3964 30.9165C72.71 30.5064 71.4572 29.9998 70.6381 29.3968C69.819 28.7937 69.2769 28.1183 69.0119 27.3705C68.7469 26.6227 68.6144 25.8508 68.6144 25.0548C68.6144 23.4145 69.2287 22.0516 70.4574 20.9661C71.7102 19.8565 73.4328 19.3017 75.6251 19.3017C77.1429 19.3017 78.4438 19.5308 79.528 19.9891C80.6121 20.4475 81.636 21.3038 82.5997 22.5582L79.0582 25.2719C78.6004 24.5482 78.0825 24.0296 77.5043 23.716C76.9501 23.4024 76.3599 23.2456 75.7335 23.2456C75.0589 23.2456 74.4928 23.3783 74.0351 23.6437C73.6014 23.909 73.3846 24.3311 73.3846 24.9101C73.3846 25.2236 73.5291 25.5372 73.8182 25.8508C74.1073 26.1403 74.806 26.4298 75.9142 26.7192C77.7452 27.1775 79.1425 27.7203 80.1062 28.3475C81.0698 28.9505 81.7324 29.638 82.0937 30.4099C82.4551 31.1818 82.6358 32.0381 82.6358 32.9789C82.6358 34.1368 82.3106 35.174 81.6601 36.0907C81.0337 37.0073 80.1664 37.731 79.0582 38.2617C77.9741 38.7923 76.7333 39.0577 75.336 39.0577Z" fill="#9DD3A1"/>
<path d="M93.8969 39.0577C91.9696 39.0577 90.2711 38.6114 88.8015 37.7189C87.3319 36.8264 86.1875 35.6444 85.3684 34.173C84.5734 32.6774 84.1759 31.025 84.1759 29.2159C84.1759 27.4067 84.5975 25.7543 85.4407 24.2588C86.2839 22.7391 87.4283 21.533 88.8738 20.6404C90.3434 19.7479 92.0178 19.3017 93.8969 19.3017C95.7761 19.3017 97.4264 19.7479 98.8478 20.6404C100.293 21.533 101.414 22.7391 102.209 24.2588C103.028 25.7543 103.437 27.4067 103.437 29.2159C103.437 29.4812 103.425 29.7586 103.401 30.0481C103.377 30.3375 103.341 30.6391 103.293 30.9526H89.2352C89.5002 32.0623 90.0302 32.9668 90.8252 33.6664C91.6443 34.3659 92.6682 34.7157 93.8969 34.7157C94.957 34.7157 95.8724 34.4745 96.6434 33.992C97.4384 33.5096 98.0527 32.9065 98.4864 32.1829L102.281 35.0413C101.534 36.2233 100.414 37.1882 98.92 37.936C97.4264 38.6838 95.752 39.0577 93.8969 39.0577ZM93.8246 23.4989C92.6682 23.4989 91.6805 23.8487 90.8614 24.5482C90.0422 25.2478 89.5002 26.1644 89.2352 27.2982H98.5225C98.2575 26.2609 97.7034 25.3684 96.8602 24.6206C96.0411 23.8728 95.0292 23.4989 93.8246 23.4989Z" fill="#9DD3A1"/>
<path d="M114.692 39.0577C112.764 39.0577 111.066 38.6114 109.596 37.7189C108.127 36.8264 106.982 35.6444 106.163 34.173C105.368 32.6774 104.971 31.025 104.971 29.2159C104.971 27.4067 105.392 25.7543 106.235 24.2588C107.079 22.7391 108.223 21.533 109.668 20.6404C111.138 19.7479 112.812 19.3017 114.692 19.3017C116.571 19.3017 118.221 19.7479 119.642 20.6404C121.088 21.533 122.208 22.7391 123.003 24.2588C123.822 25.7543 124.232 27.4067 124.232 29.2159C124.232 29.4812 124.22 29.7586 124.196 30.0481C124.172 30.3375 124.136 30.6391 124.087 30.9526H110.03C110.295 32.0623 110.825 32.9668 111.62 33.6664C112.439 34.3659 113.463 34.7157 114.692 34.7157C115.752 34.7157 116.667 34.4745 117.438 33.992C118.233 33.5096 118.847 32.9065 119.281 32.1829L123.076 35.0413C122.329 36.2233 121.208 37.1882 119.715 37.936C118.221 38.6838 116.547 39.0577 114.692 39.0577ZM114.619 23.4989C113.463 23.4989 112.475 23.8487 111.656 24.5482C110.837 25.2478 110.295 26.1644 110.03 27.2982H119.317C119.052 26.2609 118.498 25.3684 117.655 24.6206C116.836 23.8728 115.824 23.4989 114.619 23.4989Z" fill="#9DD3A1"/>
<path d="M126.735 38.5873V12.1736H131.614V27.3705L138.661 19.772H145.599L136.745 28.5284L145.635 38.5873H139.167L131.614 29.6501V38.5873H126.735Z" fill="#9DD3A1"/>
<path d="M147.248 38.5873V19.772H151.982V23.3542C152.295 22.0033 152.933 20.9782 153.897 20.2786C154.861 19.555 156.162 19.2414 157.8 19.3379V23.9331H157.113C155.716 23.9331 154.535 24.3794 153.572 25.2719C152.608 26.1644 152.126 27.3946 152.126 28.9626V38.5873H147.248Z" fill="#9DD3A1"/>
<path d="M9.68489 39.0575C7.68527 39.0575 5.84225 38.6354 4.15583 37.7911C2.4935 36.9227 1.10822 35.5236 0 33.5938L4.37266 30.8077C5.02313 32.1103 5.84225 33.0632 6.83002 33.6662C7.81778 34.2451 8.86577 34.5346 9.97399 34.5346C11.1545 34.5346 12.082 34.2693 12.7566 33.7386C13.4312 33.2079 13.7684 32.5084 13.7684 31.64C13.7684 30.7957 13.5034 30.1203 12.9734 29.6137C12.4434 29.1071 11.7327 28.6971 10.8413 28.3835C9.97399 28.0699 9.02237 27.7804 7.98642 27.5151C6.03499 27.0085 4.48107 26.1763 3.32466 25.0184C2.16826 23.8365 1.59006 22.2926 1.59006 20.387C1.59006 18.8673 1.96348 17.5406 2.71032 16.4068C3.45717 15.2731 4.49311 14.3926 5.81816 13.7655C7.1673 13.1383 8.73326 12.8247 10.5161 12.8247C12.4916 12.8247 14.1419 13.2348 15.4669 14.0549C16.792 14.8751 17.9243 16.0329 18.8639 17.5285L14.5273 20.2061C13.925 19.2171 13.2987 18.4934 12.6482 18.0351C11.9977 17.5768 11.2027 17.3476 10.2631 17.3476C9.25124 17.3476 8.40803 17.6009 7.73346 18.1074C7.08298 18.614 6.75774 19.2894 6.75774 20.1337C6.75774 21.0745 7.14321 21.7619 7.91414 22.1961C8.70917 22.6062 9.6608 22.9801 10.769 23.3178C11.5159 23.559 12.347 23.8485 13.2625 24.1862C14.2021 24.4998 15.1055 24.9461 15.9728 25.525C16.8401 26.0798 17.5508 26.8276 18.105 27.7684C18.6591 28.7091 18.9361 29.9032 18.9361 31.3505C18.9361 32.8702 18.5627 34.209 17.8159 35.3668C17.069 36.5247 16.009 37.4293 14.6357 38.0806C13.2625 38.7319 11.6122 39.0575 9.68489 39.0575Z" fill="white"/>
<path d="M35.6515 38.5871V19.7719H40.4578V22.5218C41.4455 20.3991 43.3608 19.3377 46.2037 19.3377C47.5287 19.3377 48.7212 19.6513 49.7813 20.2784C50.8413 20.8815 51.6845 21.7499 52.3109 22.8836C52.9373 21.7499 53.7323 20.8815 54.696 20.2784C55.6838 19.6513 57.0088 19.3377 58.6711 19.3377C60.0203 19.3377 61.2369 19.6513 62.321 20.2784C63.4052 20.9056 64.2604 21.7981 64.8868 22.956C65.5132 24.1139 65.8264 25.4888 65.8264 27.0809V38.5871H60.9478V28.2749C60.9478 26.6346 60.5985 25.4526 59.8998 24.729C59.2012 23.9812 58.2977 23.6073 57.1895 23.6073C56.0572 23.6073 55.1297 23.9329 54.4069 24.5842C53.7082 25.2355 53.3589 26.4658 53.3589 28.2749V38.5871H48.4803V28.2749C48.4803 26.6346 48.1069 25.4526 47.3601 24.729C46.6132 23.9812 45.6375 23.6073 44.4329 23.6073C43.397 23.6073 42.4815 23.9812 41.6865 24.729C40.9155 25.4526 40.53 26.6346 40.53 28.2749V38.5871H35.6515Z" fill="white"/>
<mask id="mask0_11285_5009" style="mask-type:alpha" maskUnits="userSpaceOnUse" x="38" y="-3" width="30" height="24">
<path d="M67.0156 18.582C66.7493 18.3873 66.4713 18.2057 66.1816 18.0381C64.6678 17.1623 62.9688 16.7247 61.085 16.7246C58.7636 16.7246 54.0689 16.7247 52.292 20.2754C51.0227 16.7247 46.1996 16.7247 43.915 17.3311C41.5669 17.3311 39.5879 17.638 38.0771 18.502V-2.04395H67.0156V18.582Z" fill="black"/>
</mask>
<g mask="url(#mask0_11285_5009)">
<path d="M46.5449 14.489C46.5449 13.5595 46.1333 12.7329 45.4912 12.1531L43.1533 14.489L45.4912 16.8248C46.1333 16.245 46.5449 15.4184 46.5449 14.489Z" fill="#C1EDC4"/>
<path d="M51.8135 14.4888C51.8135 12.1077 50.805 9.96925 49.2121 8.4353L47.7303 9.91579C48.9405 11.0673 49.7061 12.6876 49.7061 14.4888C49.7061 16.2901 48.9405 17.9104 47.7303 19.0619L49.2121 20.5424C50.805 19.0126 51.8135 16.87 51.8135 14.4888Z" fill="#9DD3A1"/>
<path d="M57.082 14.489C57.082 10.6562 55.4809 7.20581 52.933 4.71777L51.4513 6.19826C53.6163 8.30384 54.9746 11.2401 54.9746 14.489C54.9746 17.7378 53.6163 20.6741 51.4513 22.7797L52.933 24.2602C55.4809 21.7722 57.082 18.3218 57.082 14.489Z" fill="#46AF4D"/>
<path d="M62.3506 14.4889C62.3506 9.20848 60.1567 4.44213 56.654 1L55.1722 2.48049C58.2921 5.54016 60.2432 9.78833 60.2432 14.4889C60.2432 19.1894 58.2921 23.4376 55.1722 26.4973L56.654 27.9778C60.1567 24.5356 62.3506 19.7693 62.3506 14.4889Z" fill="#2A7E2F"/>
</g>
<path fill-rule="evenodd" clip-rule="evenodd" d="M21.7041 27.3685C23.3022 25.5121 24.0883 23.1078 24.8563 20.7818C24.9311 20.5551 25.0364 19.4282 25.1065 19.1587C25.2771 18.5023 25.4248 17.8446 25.6616 17.2289C25.7825 16.9145 26.25 16.9985 26.5392 16.9637C26.246 16.6781 25.7932 16.6772 25.4752 16.1361C25.418 16.0389 25.3727 15.9079 25.4223 15.816C25.4633 15.7399 25.623 15.6845 25.7228 15.7077L26.3297 15.8487C26.4838 15.6779 26.0835 15.2859 26.0337 14.7331C25.8343 14.767 25.5775 14.7754 25.5116 14.5449C25.3893 14.1174 26.4368 14.2363 26.6818 14.1823C26.4873 13.9403 26.2002 14.0544 25.902 13.9816C25.8054 13.3993 26.0534 12.6687 26.6228 12.3836C27.005 12.1921 27.5258 12.1061 27.9583 12.1938C28.6985 12.3438 29.1611 13.0717 29.2942 13.7652C29.4527 13.7606 29.5918 13.7498 29.6702 13.8124C29.7399 13.868 29.7745 14.0122 29.7298 14.0963C29.6066 14.3278 29.2874 14.1391 29.3602 14.3794C29.3726 14.4201 29.451 14.4191 29.5134 14.4183L30.9738 14.399L31.2503 13.901C31.6705 13.7116 31.9087 14.1277 32.2232 14.2394C32.7313 14.4199 33.3536 14.2444 33.8974 14.2276L35.4949 14.1784C35.5544 13.9988 35.6278 13.7808 35.7915 13.7423C36.1917 13.6483 36.5448 13.8539 36.8638 14.0966L37.5636 14.0899L37.6154 14.93C37.3794 15.0496 37.0614 14.9004 36.9443 15.0261C36.8967 15.0773 36.837 15.2021 36.8422 15.2642L37.0963 15.2749C37.1385 15.2767 37.1713 15.325 37.1891 15.4172C36.8623 15.7638 36.4883 16.0013 36.146 16.3222C35.3174 17.0992 34.7119 18.0933 33.8385 18.8016C33.0102 19.4732 31.9884 19.8552 31.1062 20.4384C30.6383 20.7477 30.1031 20.7887 29.5834 20.6557L28.6069 20.406C28.6882 20.6208 28.8787 20.7257 29.0546 20.8273L29.3268 22.3775C29.5432 23.6097 29.1706 24.8721 28.3199 25.7893L27.6261 26.5374C26.6263 27.6153 25.8332 28.8678 25.2861 30.2324L25.1573 30.5538C25.0142 30.9106 24.5444 31.0824 24.1892 31.2123L24.1822 31.2149C23.1498 31.5925 22.2285 32.0453 21.4935 32.8543C21.0941 33.0165 21.7562 30.6036 21.8037 30.3909C22.3095 28.1265 24.1344 27.5003 24.8563 25.3478C24.3641 26.243 21.8043 29.0232 21.1378 29.5792L20.3468 30.2391C20.2493 30.3204 20.1325 30.4358 19.9658 30.3648L21.5062 27.5986C21.5735 27.5202 21.6395 27.4435 21.7041 27.3685ZM35.0812 15.1672C34.9479 15.3837 34.6594 15.6384 34.737 15.9666C33.8909 16.3796 33.8311 16.6999 33.1617 17.417C33.1312 17.2277 33.1648 17.108 33.0375 16.9852L32.4619 18.0103C32.4159 18.0922 32.2945 18.186 32.2373 18.1413C32.3113 17.9814 32.4005 17.8657 32.4076 17.7278C32.0119 17.7354 31.751 18.0083 31.4281 18.1964C31.3355 18.0645 31.5679 18.0254 31.525 17.8558C30.4668 18.1373 29.3579 18.0393 28.4054 17.565C28.5831 17.5587 28.6854 17.5965 28.8731 17.6328C28.9773 17.4942 29.0533 17.3455 29.1416 17.1587L28.8124 16.9247C29.0934 16.8624 29.3766 16.8931 29.5612 16.6792L29.5964 15.5555C29.7129 15.5021 29.855 15.4341 29.8119 15.302C29.7827 15.2128 29.7019 15.1362 29.5875 14.984L30.5929 14.9717L30.8366 15.2004C30.2734 15.3559 30.7359 15.6593 30.536 16.3215L30.146 17.6135C30.6817 17.7336 31.2194 17.6011 31.6478 17.2757C31.9439 17.0509 32.2461 16.3978 31.8012 16.1852C32.1162 16.1698 32.3258 15.5856 32.3596 15.3931C32.3751 15.3048 32.2655 15.2781 32.1398 15.2392C32.1602 15.1679 32.2656 14.9997 32.3586 14.9784L35.2769 14.9747C35.3844 14.9746 35.4861 15.0221 35.4764 15.1562L35.0812 15.1672Z" fill="#9DD3A1"/>
<path d="M25.728 37.2055C25.757 36.2439 25.679 35.3333 25.6417 34.3824L25.5283 31.4945L25.5283 31.4308C25.5283 30.6904 25.687 29.9586 25.9935 29.2847C26.2627 28.693 26.6256 28.1485 27.0682 27.6723L29.7 24.8406C29.7956 25.123 29.9661 25.6702 29.923 25.945L28.4079 35.6068L27.8066 38.849L25.8445 38.8576C25.788 38.2914 25.8257 37.7769 25.728 37.2055Z" fill="#9DD3A1"/>
<path d="M37.7827 15.1794L37.7734 13.9391C37.7725 13.8084 37.9629 13.7926 38.0475 13.7905C38.4842 13.7801 38.8894 13.7481 39.3171 13.7222L41.0777 13.6153C41.1786 13.8491 41.2044 14.0717 41.272 14.3537C41.3836 14.1809 41.198 13.4413 41.4441 13.5844C41.4769 13.6036 41.5465 13.6755 41.5463 13.7142L41.5384 15.3418C41.1947 15.4581 40.9216 15.3171 40.6064 15.3128C39.856 15.3027 39.1287 15.2227 38.38 15.1986L37.7827 15.1794Z" fill="#9DD3A1"/>
</svg>
