<svg width="217" height="55" viewBox="0 0 217 55" fill="none" xmlns="http://www.w3.org/2000/svg">
<path d="M103.122 54.8319C98.8021 54.8319 95.2406 53.3295 92.4375 50.3248L96.9389 46.214C98.8186 48.3272 100.83 49.3838 102.974 49.3838C104.128 49.3838 105.002 49.1361 105.595 48.6408C106.222 48.1125 106.535 47.4687 106.535 46.7092C106.535 46.247 106.42 45.8507 106.189 45.5206C105.991 45.1904 105.546 44.8767 104.853 44.5795C104.194 44.2823 103.188 43.9852 101.836 43.688C99.5276 43.1267 97.8128 42.4333 96.6916 41.6078C95.5704 40.7823 94.8284 39.8578 94.4656 38.8342C94.1029 37.8106 93.9215 36.754 93.9215 35.6644C93.9215 33.4191 94.7624 31.5535 96.4443 30.0677C98.1591 28.5488 100.517 27.7894 103.518 27.7894C105.595 27.7894 107.376 28.1031 108.86 28.7304C110.344 29.3578 111.746 30.53 113.065 32.2469L108.217 35.9616C107.591 34.971 106.882 34.2611 106.09 33.8319C105.332 33.4026 104.524 33.188 103.666 33.188C102.743 33.188 101.968 33.3696 101.341 33.7328C100.748 34.096 100.451 34.6738 100.451 35.4663C100.451 35.8955 100.649 36.3248 101.045 36.754C101.44 37.1503 102.397 37.5465 103.914 37.9427C106.42 38.5701 108.333 39.313 109.652 40.1715C110.971 40.997 111.878 41.938 112.372 42.9946C112.867 44.0512 113.114 45.2234 113.114 46.5111C113.114 48.096 112.669 49.5159 111.779 50.7706C110.921 52.0253 109.734 53.0159 108.217 53.7423C106.733 54.4687 105.035 54.8319 103.122 54.8319Z" fill="#2A7E2F"/>
<path d="M128.529 54.8319C125.891 54.8319 123.566 54.2211 121.554 52.9994C119.542 51.7776 117.976 50.1597 116.855 48.1456C115.767 46.0984 115.222 43.8366 115.222 41.3602C115.222 38.8838 115.8 36.622 116.954 34.5748C118.108 32.4946 119.674 30.8436 121.653 29.6219C123.665 28.4002 125.957 27.7894 128.529 27.7894C131.101 27.7894 133.36 28.4002 135.306 29.6219C137.284 30.8436 138.818 32.4946 139.906 34.5748C141.027 36.622 141.588 38.8838 141.588 41.3602C141.588 41.7234 141.571 42.1031 141.538 42.4993C141.505 42.8955 141.456 43.3083 141.39 43.7375H122.148C122.51 45.2564 123.236 46.4946 124.324 47.4522C125.445 48.4097 126.847 48.8885 128.529 48.8885C129.98 48.8885 131.233 48.5583 132.288 47.8979C133.376 47.2375 134.217 46.4121 134.811 45.4215L140.005 49.3342C138.983 50.9522 137.449 52.2729 135.405 53.2965C133.36 54.3201 131.068 54.8319 128.529 54.8319ZM128.43 33.5347C126.847 33.5347 125.495 34.0135 124.374 34.971C123.252 35.9286 122.51 37.1833 122.148 38.7352H134.86C134.498 37.3154 133.739 36.0936 132.585 35.0701C131.464 34.0465 130.079 33.5347 128.43 33.5347Z" fill="#2A7E2F"/>
<path d="M156.993 54.8319C154.355 54.8319 152.03 54.2211 150.018 52.9994C148.007 51.7776 146.44 50.1597 145.319 48.1456C144.231 46.0984 143.687 43.8366 143.687 41.3602C143.687 38.8838 144.264 36.622 145.418 34.5748C146.572 32.4946 148.139 30.8436 150.117 29.6219C152.129 28.4002 154.421 27.7894 156.993 27.7894C159.565 27.7894 161.824 28.4002 163.77 29.6219C165.749 30.8436 167.282 32.4946 168.37 34.5748C169.491 36.622 170.052 38.8838 170.052 41.3602C170.052 41.7234 170.036 42.1031 170.003 42.4993C169.97 42.8955 169.92 43.3083 169.854 43.7375H150.612C150.975 45.2564 151.7 46.4946 152.788 47.4522C153.91 48.4097 155.311 48.8885 156.993 48.8885C158.444 48.8885 159.697 48.5583 160.752 47.8979C161.841 47.2375 162.682 46.4121 163.275 45.4215L168.469 49.3342C167.447 50.9522 165.913 52.2729 163.869 53.2965C161.824 54.3201 159.532 54.8319 156.993 54.8319ZM156.894 33.5347C155.311 33.5347 153.959 34.0135 152.838 34.971C151.717 35.9286 150.975 37.1833 150.612 38.7352H163.325C162.962 37.3154 162.203 36.0936 161.049 35.0701C159.928 34.0465 158.543 33.5347 156.894 33.5347Z" fill="#2A7E2F"/>
<path d="M173.478 54.188V18.0323H180.157V38.8342L189.802 28.4333H199.3L187.181 40.4191L199.349 54.188H190.495L180.157 41.9545V54.188H173.478Z" fill="#2A7E2F"/>
<path d="M201.556 54.188V28.4333H208.037V33.3366C208.465 31.4875 209.339 30.0842 210.658 29.1267C211.977 28.1361 213.758 27.7068 216.001 27.8389V34.129H215.061C213.148 34.129 211.532 34.7399 210.213 35.9616C208.894 37.1833 208.234 38.8672 208.234 41.0135V54.188H201.556Z" fill="#2A7E2F"/>
<path d="M13.2569 54.8318C10.5198 54.8318 7.99702 54.254 5.6886 53.0983C3.41316 51.9096 1.51696 49.9945 0 47.353L5.9854 43.5393C6.87579 45.3223 7.99702 46.6266 9.34909 47.4521C10.7012 48.2445 12.1357 48.6408 13.6526 48.6408C15.2685 48.6408 16.5382 48.2775 17.4615 47.5511C18.3849 46.8247 18.8466 45.8672 18.8466 44.6785C18.8466 43.5228 18.4838 42.5983 17.7583 41.9049C17.0328 41.2115 16.06 40.6502 14.8398 40.2209C13.6526 39.7917 12.35 39.3955 10.932 39.0322C8.26084 38.3388 6.1338 37.1997 4.55088 35.6148C2.96797 33.9969 2.17651 31.8836 2.17651 29.2751C2.17651 27.195 2.68766 25.3789 3.70996 23.827C4.73226 22.2751 6.15028 21.0699 7.96404 20.2114C9.81078 19.353 11.9543 18.9237 14.3946 18.9237C17.0988 18.9237 19.3577 19.485 21.1715 20.6077C22.9852 21.7303 24.5352 23.3152 25.8213 25.3624L19.8854 29.0275C19.0609 27.6737 18.2035 26.6832 17.3131 26.0558C16.4227 25.4284 15.3345 25.1148 14.0484 25.1148C12.6633 25.1148 11.5091 25.4615 10.5857 26.1549C9.69535 26.8483 9.25016 27.7728 9.25016 28.9284C9.25016 30.2162 9.7778 31.1572 10.8331 31.7516C11.9213 32.3129 13.2239 32.8247 14.7409 33.2869C15.7632 33.6171 16.9009 34.0134 18.1541 34.4756C19.4402 34.9049 20.6768 35.5157 21.864 36.3082C23.0512 37.0676 24.024 38.0912 24.7825 39.3789C25.541 40.6667 25.9202 42.3011 25.9202 44.2823C25.9202 46.3624 25.4091 48.195 24.3868 49.7799C23.3645 51.3648 21.9135 52.603 20.0338 53.4945C18.1541 54.3861 15.8951 54.8318 13.2569 54.8318Z" fill="#162819"/>
<path d="M48.8006 54.1879V28.4332H55.3796V32.1973C56.7317 29.2917 59.3534 27.8388 63.2447 27.8388C65.0585 27.8388 66.6908 28.2681 68.1418 29.1266C69.5928 29.952 70.7471 31.1407 71.6045 32.6926C72.4619 31.1407 73.5501 29.952 74.8692 29.1266C76.2213 28.2681 78.0351 27.8388 80.3105 27.8388C82.1572 27.8388 83.8226 28.2681 85.3066 29.1266C86.7906 29.9851 87.9613 31.2068 88.8187 32.7917C89.6761 34.3766 90.1048 36.2587 90.1048 38.4379V54.1879H83.4269V40.0723C83.4269 37.827 82.9487 36.2091 81.9923 35.2186C81.036 34.195 79.7994 33.6832 78.2824 33.6832C76.7325 33.6832 75.4628 34.1289 74.4735 35.0204C73.5172 35.912 73.039 37.5959 73.039 40.0723V54.1879H66.3611V40.0723C66.3611 37.827 65.8499 36.2091 64.8276 35.2186C63.8053 34.195 62.4697 33.6832 60.8209 33.6832C59.4028 33.6832 58.1497 34.195 57.0614 35.2186C56.0062 36.2091 55.4785 37.827 55.4785 40.0723V54.1879H48.8006Z" fill="#162819"/>
<mask id="mask0_11285_4630" style="mask-type:alpha" maskUnits="userSpaceOnUse" x="52" y="-2" width="40" height="32">
<path d="M91.7324 26.804C91.368 26.5376 90.9872 26.2902 90.5908 26.0609C88.5185 24.8619 86.1931 24.2621 83.6143 24.2621C80.4367 24.2621 74.0114 24.2621 71.5791 29.1224C69.8418 24.2621 63.2395 24.2621 60.1123 25.0921C56.8979 25.0921 54.1881 25.511 52.1201 26.6937V-1.42838H91.7324V26.804Z" fill="black"/>
</mask>
<g mask="url(#mask0_11285_4630)">
<path d="M63.7119 21.2017C63.7119 19.9295 63.1485 18.798 62.2696 18.0043L59.0694 21.2017L62.2696 24.3991C63.1485 23.6054 63.7119 22.4739 63.7119 21.2017Z" fill="#C1EDC4"/>
<path d="M70.9238 21.2016C70.9238 17.9423 69.5435 15.0151 67.363 12.9154L65.3347 14.9419C66.9912 16.5181 68.0391 18.736 68.0391 21.2016C68.0391 23.6673 66.9912 25.8852 65.3347 27.4614L67.363 29.4879C69.5435 27.3938 70.9238 24.461 70.9238 21.2016Z" fill="#9DD3A1"/>
<path d="M78.1357 21.2016C78.1357 15.9551 75.9441 11.2322 72.4565 7.82651L70.4282 9.85303C73.3918 12.7352 75.251 16.7545 75.251 21.2016C75.251 25.6487 73.3918 29.668 70.4282 32.5501L72.4565 34.5767C75.9441 31.171 78.1357 26.448 78.1357 21.2016Z" fill="#46AF4D"/>
<path d="M85.3477 21.2015C85.3477 13.9736 82.3446 7.44931 77.55 2.73764L75.5217 4.76417C79.7924 8.95232 82.463 14.7673 82.463 21.2015C82.463 27.6358 79.7924 33.4508 75.5217 37.6389L77.55 39.6655C82.3446 34.9538 85.3477 28.4295 85.3477 21.2015Z" fill="#2A7E2F"/>
</g>
<path fill-rule="evenodd" clip-rule="evenodd" d="M29.7095 38.8314C31.897 36.2904 32.9731 32.9993 34.0243 29.8154C34.1267 29.5051 34.2708 27.9626 34.3667 27.5937C34.6003 26.6952 34.8024 25.795 35.1266 24.9522C35.2922 24.5218 35.932 24.6368 36.3278 24.5892C35.9265 24.1982 35.3068 24.197 34.8714 23.4564C34.7932 23.3233 34.7312 23.1439 34.799 23.0181C34.8551 22.914 35.0737 22.8382 35.2103 22.8699L36.0412 23.063C36.2521 22.8291 35.7041 22.2925 35.6359 21.5359C35.363 21.5823 35.0115 21.5938 34.9213 21.2782C34.7539 20.693 36.1877 20.8559 36.5231 20.782C36.2568 20.4507 35.8639 20.6068 35.4557 20.5071C35.3234 19.71 35.6629 18.7101 36.4423 18.3197C36.9655 18.0577 37.6783 17.94 38.2703 18.06C39.2836 18.2653 39.9168 19.2617 40.099 20.211C40.316 20.2047 40.5063 20.1899 40.6137 20.2756C40.709 20.3517 40.7565 20.5491 40.6952 20.6641C40.5266 20.981 40.0897 20.7228 40.1894 21.0517C40.2063 21.1075 40.3136 21.1061 40.399 21.1049L42.398 21.0785L42.7766 20.3968C43.3517 20.1376 43.6778 20.7071 44.1083 20.8601C44.8038 21.1072 45.6557 20.8669 46.4 20.8439L48.5867 20.7765C48.6681 20.5308 48.7685 20.2323 48.9926 20.1796C49.5405 20.0509 50.0238 20.3324 50.4605 20.6646L51.4183 20.6555L51.4893 21.8054C51.1663 21.969 50.7309 21.7648 50.5707 21.9369C50.5054 22.007 50.4238 22.1778 50.4308 22.2629L50.7787 22.2775C50.8365 22.2799 50.8813 22.346 50.9058 22.4723C50.4584 22.9467 49.9465 23.2717 49.4779 23.7111C48.3437 24.7746 47.5149 26.1354 46.3193 27.1048C45.1855 28.0242 43.7869 28.5471 42.5793 29.3454C41.9388 29.7688 41.2062 29.8249 40.4948 29.6429L39.1583 29.3011C39.2695 29.5951 39.5303 29.7387 39.7711 29.8778L40.2703 32.7211C40.4866 33.9532 40.1141 35.2156 39.2634 36.1329L37.2578 38.2952C36.2581 39.3732 35.4649 40.6257 34.9178 41.9903L34.4363 43.1916C34.2404 43.6801 33.5974 43.9152 33.1111 44.093L33.1016 44.0965C31.6883 44.6134 30.4273 45.2332 29.4212 46.3406C28.8745 46.5626 29.7808 43.2598 29.8458 42.9686C30.5382 39.8691 33.0361 39.0119 34.0243 36.0656C33.3506 37.2908 29.8466 41.0965 28.9343 41.8575L27.8516 42.7608C27.7181 42.8721 27.5582 43.03 27.3301 42.933L29.4386 39.1465C29.5307 39.0392 29.621 38.9342 29.7095 38.8314ZM48.0204 22.13C47.8379 22.4264 47.443 22.775 47.5492 23.2243C46.391 23.7896 46.3092 24.228 45.3929 25.2096C45.3511 24.9505 45.3971 24.7867 45.2229 24.6185L44.435 26.0217C44.372 26.1339 44.2059 26.2622 44.1275 26.2011C44.2289 25.9822 44.351 25.8238 44.3607 25.6351C43.819 25.6455 43.4619 26.019 43.02 26.2765C42.8932 26.096 43.2113 26.0424 43.1526 25.8103C41.7041 26.1955 40.1861 26.0615 38.8823 25.4123C39.1256 25.4036 39.2656 25.4553 39.5226 25.505C39.6652 25.3153 39.7692 25.1117 39.8902 24.8561L39.4395 24.5358C39.8241 24.4505 40.2118 24.4926 40.4644 24.1997L40.5127 22.6616C40.6721 22.5884 40.8666 22.4954 40.8076 22.3146C40.7677 22.1924 40.6571 22.0876 40.5005 21.8793L41.8767 21.8624L42.2103 22.1756C41.4393 22.3884 42.0724 22.8037 41.7988 23.71L41.265 25.4786C41.9982 25.6431 42.7342 25.4617 43.3207 25.0163C43.7259 24.7085 44.1396 23.8146 43.5307 23.5235C43.9618 23.5024 44.2487 22.7028 44.295 22.4393C44.3162 22.3185 44.1662 22.2819 43.9941 22.2286C44.022 22.131 44.1663 21.9008 44.2937 21.8717L48.2883 21.8666C48.4354 21.8664 48.5746 21.9314 48.5614 22.115L48.0204 22.13Z" fill="#2A7E2F"/>
<path d="M35.2168 52.2968C35.2563 50.9805 35.1497 49.7341 35.0986 48.4324L34.9434 44.4794L34.9434 44.155C34.9434 43.2979 35.127 42.4506 35.482 41.6704L35.6659 41.266C35.9776 40.5809 36.3977 39.9506 36.9101 39.3993L40.6536 35.3713C40.7846 35.7579 41.0179 36.507 40.9589 36.8831L38.885 50.1085L38.0619 54.5464L35.3762 54.5582C35.2988 53.7832 35.3505 53.0789 35.2168 52.2968Z" fill="#2A7E2F"/>
<path d="M51.7178 22.1469L51.7051 20.4491C51.7037 20.2702 51.9644 20.2485 52.0802 20.2458C52.678 20.2314 53.2326 20.1877 53.8181 20.1522L56.228 20.0059C56.3662 20.3259 56.4015 20.6306 56.494 21.0166C56.6468 20.7801 56.3928 19.7677 56.7295 19.9636C56.7745 19.9898 56.8697 20.0883 56.8695 20.1413L56.8586 22.3692C56.3882 22.5284 56.0143 22.3353 55.5828 22.3295C54.5558 22.3157 53.5602 22.2061 52.5354 22.1732L51.7178 22.1469Z" fill="#2A7E2F"/>
</svg>
