<svg width="30" height="30" viewBox="0 0 30 30" fill="none" xmlns="http://www.w3.org/2000/svg">
<rect width="30" height="30" rx="15" fill="#2A7E2F"/>
<path d="M15 6C13.8351 6 12.875 6.93057 12.875 8.05959V13.1013L6.92057 15.6758L6.5 15.8474V19.1299L12.875 18.4434V19.7092L11.0599 20.8892L10.75 21.0822V24L11.5911 23.8284L15 23.1633L18.4089 23.8284L19.25 24V21.0822L18.9401 20.8892L17.125 19.7092V18.4434L23.5 19.1299V15.8474L23.0794 15.6758L17.125 13.1013V8.05959C17.125 6.93057 16.1649 6 15 6ZM15 7.37306C15.4012 7.37306 15.7083 7.67074 15.7083 8.05959V14.0024L16.1289 14.174L22.0833 16.7485V17.5852L15.7083 16.8987V20.4601L16.0182 20.6532L17.8333 21.8331V22.3266L15.1328 21.8117L15 21.7688L14.8672 21.8117L12.1667 22.3266V21.8331L13.9818 20.6532L14.2917 20.4601V16.8987L7.91667 17.5852V16.7485L13.8711 14.174L14.2917 14.0024V8.05959C14.2917 7.67074 14.5988 7.37306 15 7.37306Z" fill="white"/>
</svg>
