<svg width="30" height="30" viewBox="0 0 30 30" fill="none" xmlns="http://www.w3.org/2000/svg">
<rect width="30" height="30" rx="15" fill="#2A7E2F"/>
<path d="M15 6C10.0375 6 6 10.0375 6 15C6 19.9625 10.0375 24 15 24C19.9625 24 24 19.9625 24 15C24 10.0375 19.9625 6 15 6ZM15 7.38462C16.4559 7.38462 17.8131 7.80333 18.9713 8.51502L18.8077 8.90715L19.6217 9.72115L18.8591 10.4824L17.7692 9.46154H16.3846L15 11.1923L15.6923 12.7148L16.3846 12.2308V11.5385H17.0769L17.8382 12.1618L17.0769 12.9231L14.3077 14.3077H13.6154V15.6923H14.3077L15.6923 15L16.3846 15.6923H17.7692V15L18.3236 14.1698L19.8462 13.6154V15H18.4615V15.6923H19.8462L21.2308 17.7692L21.9231 17.0769V16.3846H21.2308V15.6923H21.9231L22.5883 15.549C22.4873 16.9627 22.0013 18.2682 21.2308 19.3648V19.1538H20.4695L18.8077 16.3846L17.0769 17.0769L15 16.3846L12.9231 17.0769L12.2308 19.1538L12.9231 20.5385H14.3077L15 19.8462L15.6923 20.5385V22.5802C15.4638 22.601 15.234 22.6154 15 22.6154C10.8012 22.6154 7.38462 19.1988 7.38462 15C7.38462 14.3582 7.47372 13.7382 7.62395 13.1421L8.00796 12.9231H8.76923V10.6352C8.88485 10.4711 9.00287 10.3082 9.13026 10.1538H9.75225L10.0551 9.2195C10.4899 8.84704 10.9653 8.52333 11.4763 8.25541L10.8462 10.1538H12.2308L13.6154 8.76923V8.07692H12.9231L12.2308 8.76923V7.91331C13.0906 7.57616 14.0225 7.38462 15 7.38462ZM13.6154 11.5385V12.9231H14.3077V11.5385H13.6154Z" fill="white"/>
</svg>
