<svg width="30" height="30" viewBox="0 0 30 30" fill="none" xmlns="http://www.w3.org/2000/svg">
<rect width="30" height="30" rx="15" fill="#2A7E2F"/>
<path d="M15 8.5C11.4768 8.5 8.29665 9.98563 6 12.3576L6.9878 13.3611C9.02927 11.2483 11.8637 9.9271 15 9.9271C18.1363 9.9271 20.9707 11.2483 23.0122 13.3611L24 12.3576C21.7034 9.98563 18.5232 8.5 15 8.5ZM15 12.0678C12.4427 12.0678 10.1405 13.152 8.48049 14.8774L9.46829 15.8808C10.8732 14.4147 12.8323 13.4949 15 13.4949C17.1677 13.4949 19.1268 14.4147 20.5317 15.8808L21.5195 14.8774C19.8595 13.152 17.5573 12.0678 15 12.0678ZM15 15.6355C13.4113 15.6355 11.9845 16.3184 10.961 17.3971L11.9488 18.4005C12.7171 17.581 13.7982 17.0626 15 17.0626C16.2018 17.0626 17.2829 17.581 18.0512 18.4005L19.039 17.3971C18.0183 16.3184 16.5887 15.6355 15 15.6355ZM15 19.2033C14.3799 19.2033 13.8284 19.482 13.4415 19.9168L15 21.5L16.5585 19.9168C16.1716 19.482 15.6201 19.2033 15 19.2033Z" fill="white"/>
</svg>
