<svg width="30" height="30" viewBox="0 0 30 30" fill="none" xmlns="http://www.w3.org/2000/svg">
<rect width="30" height="30" rx="15" fill="#2A7E2F"/>
<path d="M7 7V12.8182H8.45455V14.2727H9.90909V12.8182H12.8182V7H7ZM12.8182 12.8182V14.2727H14.2727V15.7273H11.3636V17.1818H7V23H12.8182V17.1818H17.1818V15.7273H15.7273V14.2727H18.6364V12.8182H20.0909V14.2727H21.5455V12.8182H23V7H17.1818V12.8182H12.8182ZM21.5455 14.2727V15.7273H23V14.2727H21.5455ZM21.5455 15.7273H20.0909V17.1818H21.5455V15.7273ZM21.5455 17.1818V18.6364H23V17.1818H21.5455ZM21.5455 18.6364H20.0909V17.1818H18.6364V18.6364H15V23H16.4545V20.0909H19.3636V21.5455H20.8182V20.0909H21.5455V18.6364ZM19.3636 21.5455H17.9091V23H19.3636V21.5455ZM20.0909 15.7273V14.2727H18.6364V15.7273H20.0909ZM11.3636 15.7273V14.2727H9.90909V15.7273H11.3636ZM8.45455 14.2727H7V15.7273H8.45455V14.2727ZM14.2727 7V9.90909H13.5455V11.3636H14.2727V12.0909H15.7273V9.90909H16.4545V8.45455H15.7273V7H14.2727ZM8.45455 8.45455H11.3636V11.3636H8.45455V8.45455ZM18.6364 8.45455H21.5455V11.3636H18.6364V8.45455ZM9.18182 9.18182V10.6364H10.6364V9.18182H9.18182ZM19.3636 9.18182V10.6364H20.8182V9.18182H19.3636ZM8.45455 18.6364H11.3636V21.5455H8.45455V18.6364ZM9.18182 19.3636V20.8182H10.6364V19.3636H9.18182ZM21.5455 21.5455V23H23V21.5455H21.5455Z" fill="white"/>
</svg>
