<svg width="31" height="31" viewBox="0 0 31 31" fill="none" xmlns="http://www.w3.org/2000/svg">
<path d="M15.0869 2.75626C19.1488 2.75626 19.584 2.75626 21.1797 2.90133C22.6304 2.90133 23.5008 3.19146 23.936 3.4816C24.6613 3.77173 25.0965 4.06186 25.6768 4.64213C26.257 5.22239 26.5472 5.65759 26.8373 6.38293C26.9824 6.96319 27.2725 7.68852 27.4176 9.13919C27.5626 10.7349 27.5626 11.1701 27.5626 15.232C27.5626 19.2938 27.5626 19.729 27.4176 21.3248C27.4176 22.7754 27.1274 23.6458 26.8373 24.081C26.5472 24.8064 26.257 25.2416 25.6768 25.8218C25.0965 26.4021 24.6613 26.6922 23.936 26.9824C23.3557 27.1274 22.6304 27.4176 21.1797 27.5626C19.584 27.5626 19.1488 27.7077 15.0869 27.7077C11.0251 27.7077 10.5898 27.7077 8.99412 27.5626C7.54345 27.5626 6.67306 27.2725 6.23786 26.9824C5.51253 26.6922 5.07734 26.4021 4.49707 25.8218C3.9168 25.2416 3.62667 24.8064 3.33653 24.081C3.19147 23.5008 2.90134 22.7754 2.75628 21.3248C2.61121 19.729 2.6112 19.2938 2.6112 15.232C2.6112 11.1701 2.61121 10.7349 2.75628 9.13919C2.75628 7.68852 3.0464 6.81812 3.33653 6.38293C3.62667 5.65759 3.9168 5.22239 4.49707 4.64213C5.07734 4.06186 5.51253 3.77173 6.23786 3.4816C6.81813 3.33653 7.54345 3.0464 8.99412 2.90133C10.5898 2.75626 11.0251 2.75626 15.0869 2.75626ZM15.0869 0C11.0251 0 10.4448 -8.32239e-07 8.84906 0.145066C7.25333 0.290132 6.0928 0.435199 5.2224 0.870398C4.20694 1.3056 3.33653 1.7408 2.6112 2.6112C1.88587 3.48159 1.30561 4.35199 0.870408 5.22239C0.435208 6.23786 0.290142 7.25332 0.145075 8.84906C8.85199e-06 10.4448 0 11.0251 0 15.0869C0 19.1488 8.85199e-06 19.729 0.145075 21.3248C0.290142 22.9205 0.435208 24.081 0.870408 24.9514C1.30561 25.9669 1.7408 26.8373 2.6112 27.5626C3.4816 28.433 4.352 28.8682 5.2224 29.3034C6.23787 29.7386 7.25333 29.8837 8.84906 30.0288C10.4448 30.1738 11.0251 30.1738 15.0869 30.1738C19.1488 30.1738 19.729 30.1738 21.3248 30.0288C22.9205 29.8837 24.081 29.7386 24.9514 29.3034C25.9669 28.8682 26.8373 28.433 27.5626 27.5626C28.433 26.6922 28.8682 25.8218 29.3034 24.9514C29.7386 23.936 29.8837 22.9205 30.0288 21.3248C30.1738 19.729 30.1738 19.1488 30.1738 15.0869C30.1738 11.0251 30.1738 10.4448 30.0288 8.84906C29.8837 7.25332 29.7386 6.09279 29.3034 5.22239C28.8682 4.20693 28.433 3.33653 27.5626 2.6112C26.6922 1.7408 25.8218 1.3056 24.9514 0.870398C23.936 0.435199 22.9205 0.290132 21.3248 0.145066C19.729 -8.32239e-07 19.1488 0 15.0869 0Z" fill="white"/>
<path d="M15.0865 7.39868C10.7345 7.39868 7.25293 10.8803 7.25293 15.2323C7.25293 19.5843 10.7345 23.0659 15.0865 23.0659C19.4385 23.0659 22.9201 19.5843 22.9201 15.2323C22.9201 10.8803 19.4385 7.39868 15.0865 7.39868ZM15.0865 20.1645C12.3303 20.1645 10.0092 17.8435 10.0092 15.0872C10.0092 12.3309 12.3303 10.0099 15.0865 10.0099C17.8428 10.0099 20.1639 12.3309 20.1639 15.0872C20.1639 17.9885 17.8428 20.1645 15.0865 20.1645Z" fill="white"/>
<path d="M24.9514 7.10877C24.9514 8.12423 24.081 8.99463 23.0656 8.99463C22.0501 8.99463 21.1797 8.12423 21.1797 7.10877C21.1797 6.0933 22.0501 5.2229 23.0656 5.2229C24.2261 5.2229 24.9514 6.0933 24.9514 7.10877Z" fill="white"/>
</svg>
