<svg width="41" height="41" viewBox="0 0 41 41" fill="none" xmlns="http://www.w3.org/2000/svg">
<path d="M34.2815 34.1092C42.0844 26.3063 42.0844 13.6552 34.2815 5.85223C26.4785 -1.95072 13.8274 -1.95072 6.02448 5.85223C-1.77847 13.6552 -1.77846 26.3063 6.02448 34.1092C13.8274 41.9121 26.4785 41.9122 34.2815 34.1092Z" fill="#73D4FF"/>
<mask id="mask0_8893_5457" style="mask-type:luminance" maskUnits="userSpaceOnUse" x="0" y="0" width="41" height="40">
<path d="M34.2815 34.1092C42.0844 26.3063 42.0844 13.6552 34.2815 5.85223C26.4785 -1.95072 13.8274 -1.95072 6.02448 5.85223C-1.77847 13.6552 -1.77846 26.3063 6.02448 34.1092C13.8274 41.9121 26.4785 41.9122 34.2815 34.1092Z" fill="white"/>
</mask>
<g mask="url(#mask0_8893_5457)">
<path d="M-15.0779 -2.3094C-14.8505 -0.993454 -13.8994 -3.09383 -15.0779 -2.3094V-2.3094ZM-16.0342 -2.23194C-15.7137 -2.23194 -15.5379 -2.42287 -15.5897 -2.67061C-15.6981 -2.61898 -16.5717 -2.23194 -16.0342 -2.23194ZM-14.1216 -8.65164C-13.8735 -8.76774 -13.7236 -8.91739 -13.4238 -8.94839C-13.8683 -9.36379 -14.4731 -9.28634 -15.0417 -9.27861C-15.0366 -8.72901 -14.6645 -8.50708 -14.1216 -8.65164ZM41.4188 19.5609C41.2124 19.8241 41.3568 21.2794 41.9047 20.7789C42.2149 20.5052 41.5226 19.6692 41.4188 19.5609ZM64.064 38.2057C64.1984 38.639 64.5451 39.1553 64.9532 39.2689C64.9844 39.1812 64.9844 39.0934 64.9532 39.0158H65.258C65.2739 38.6496 65.3772 38.5719 65.3772 38.2263C65.0982 38.304 64.0332 38.0096 64.064 38.2057C64.0798 38.2676 64.0592 38.1851 64.064 38.2057ZM65.2014 37.6794C65.2014 37.8654 65.3666 37.9943 65.5169 38.0196C65.5116 37.7412 65.3978 37.6794 65.2014 37.6794C65.2274 37.6794 65.2014 37.6999 65.2014 37.6794ZM63.8628 37.5864C63.6611 37.6847 63.7903 37.8443 63.9348 37.8961C63.9453 37.8654 63.9813 37.5399 63.8628 37.5864C63.8835 37.5763 63.8316 37.5969 63.8628 37.5864ZM72.6651 40.5953C73.2595 40.5953 73.3992 39.4856 74.118 39.3408C73.8026 38.6802 74.9967 38.7838 74.1387 38.2622C73.4564 37.8548 73.73 38.5513 73.3267 38.9952C72.9705 39.3926 72.2983 39.4908 72.04 39.9501C71.8436 40.3062 71.9056 40.6931 72.6651 40.5953C72.681 40.5953 72.6397 40.5953 72.6651 40.5953ZM72.2052 40.7754C72.1432 40.822 72.1225 40.8531 72.076 40.915H72.3709C72.3862 40.8167 72.3602 40.6619 72.2052 40.7754C72.2311 40.7549 72.1792 40.7961 72.2052 40.7754ZM74.5415 36.678C74.5415 36.8587 74.5574 37.3285 74.5574 37.3697C74.5574 37.3285 74.2678 37.3491 74.2625 37.5658C74.2625 37.8443 74.4743 37.5451 74.5209 37.7206C74.5107 37.7 74.8209 38.3811 74.9967 38.3294C75.0639 38.3088 75.2396 37.9785 75.3481 37.8754C75.896 37.3591 76.2733 36.7404 75.1671 36.9364C75.1618 36.6368 75.038 36.1723 74.8311 36.6267C74.604 36.4819 74.5728 36.0127 74.3091 35.7496C73.8179 35.2539 74.5415 36.4925 74.5415 36.678ZM70.9025 30.1709C71.182 30.5994 71.4249 30.9503 72.0193 31.0121C71.9728 30.7538 71.1407 30.1603 70.9025 30.1709ZM59.0504 26.904C58.5852 26.987 59.288 27.0848 59.4532 27.0695V26.9247C59.3447 26.9146 58.9107 26.9146 59.0504 26.904ZM63.2012 27.0901C62.6529 27.7659 63.3922 29.4226 62.1722 29.0923C62.1775 29.0923 61.0559 28.3752 61.0353 28.3181C60.8231 27.8589 61.2576 27.6164 61.3968 27.2549C60.7764 27.1725 60.172 26.8576 59.5776 26.8576C59.6962 26.9611 59.6808 27.0383 59.893 27.1625C59.784 27.0954 59.1589 27.5133 58.9932 27.6164C58.4973 27.9314 59.2674 27.9932 58.4401 28.1533C58.1664 28.2045 58.042 27.823 57.598 27.9878C57.2306 28.1221 57.1841 28.6125 56.7654 28.6125C56.8279 28.7467 56.8432 28.9634 56.9157 29.0923H56.595V28.8445C56.1091 28.8186 55.9439 29.8506 55.3908 30.1143C54.9721 30.3151 54.3258 30.3775 53.8659 30.5576C53.6642 30.6301 53.5298 31.2906 53.2921 30.7384C53.0904 31.3524 53.0439 31.7138 53.3853 32.3174C52.6511 31.9871 53.4472 33.1174 53.597 33.5201C53.9071 34.3354 54.2068 34.867 53.5869 35.3986C54.0103 35.3986 54.2587 35.8679 54.8012 35.7801C55.1113 35.7389 55.2664 35.3675 55.6131 35.2951C55.8867 35.2232 56.1763 35.4911 56.4092 35.4293C56.6568 35.3569 56.6622 35.1609 56.8692 35.0784C57.0655 35.0012 57.2825 34.7793 57.5048 34.6863C57.6599 34.6192 57.7944 34.8465 57.9801 34.7793C58.637 34.5315 59.3812 34.1494 60.1513 34.5521C60.6113 34.7999 61.0559 36.5543 61.5471 34.9754C61.8986 35.0938 61.5313 35.3363 61.5831 35.6359C62.0171 35.3775 61.852 35.7389 61.8208 36.1311C62.5342 35.9968 62.2135 36.6215 62.7407 37.05C62.8032 37.1013 63.4542 37.3026 63.5833 37.3079C63.9454 37.3179 63.8316 36.9517 64.0592 36.9412C64.2862 36.9364 64.2915 37.3697 64.4413 37.3386C65.1755 37.1837 65.9456 36.9052 66.2145 36.2241C66.3902 35.7801 66.4315 35.321 66.7104 34.8465C67.2689 33.8968 67.372 32.9008 66.8555 31.8788C66.7417 31.6415 66.5919 31.5691 66.4162 31.3836C66.2971 31.2547 66.2971 31.0221 66.2145 30.9244C66.1886 30.8985 65.8111 30.7902 65.718 30.7024C65.5995 30.5888 65.6095 30.3151 65.4804 30.1862C65.3046 30.0213 64.8706 29.8971 64.7362 29.7323C64.4053 29.3243 64.3122 28.5248 64.064 28.1326C63.9867 28.0085 63.759 27.9155 63.6405 27.73C63.5008 27.5028 63.5732 26.9453 63.2371 26.8628C63.2165 26.9405 63.2059 27.0124 63.2012 27.0901ZM69.3776 26.3724C69.4814 26.5325 69.5951 26.4813 69.7296 26.4295C69.6623 26.2488 69.2692 26.1405 69.3776 26.3724C69.3935 26.3983 69.3676 26.3571 69.3776 26.3724ZM67.579 25.1391C67.579 25.2939 67.9358 25.4905 68.0337 25.4694C67.9458 25.2427 67.6822 25.1032 67.6822 24.8865C67.6357 24.8812 67.5843 24.8865 67.5378 24.9018C67.569 25.0101 67.579 25.036 67.579 25.1391ZM65.4597 24.9224C65.501 25.3922 66.8502 25.1602 66.7263 24.4273C66.6591 24.4373 65.4597 25.0979 65.4597 24.9224C65.465 24.9795 65.4597 24.8918 65.4597 24.9224ZM59.3034 25.8413C59.3034 25.9133 59.8306 25.9962 59.5776 25.4905C59.3606 25.5212 59.2674 25.6401 59.3034 25.8413ZM57.4117 25.6194C57.4477 25.8102 57.6494 25.769 57.815 25.6965C57.6753 25.573 57.6028 25.6606 57.4117 25.6194ZM60.5182 24.8865C60.3996 24.9637 60.2959 25.1391 60.2959 25.2939C60.2959 25.5935 60.9887 24.5715 60.5182 24.8865ZM60.0015 24.2983C60.3371 24.1482 60.7611 24.4426 61.0866 24.5922C61.3608 24.7211 61.6297 24.6439 61.8208 24.9795C62.079 25.4282 61.7848 25.3098 61.8414 25.5676C61.8573 25.6348 61.4799 25.6242 61.6397 25.9238C61.7122 26.0633 62.1362 25.7483 62.2807 25.7843C62.7406 25.9133 62.9217 26.3265 63.4955 26.151C63.8469 26.0475 63.8316 25.5417 64.4107 25.7483C64.6377 25.8308 64.6896 26.1093 64.8913 26.2229C65.2787 26.4501 65.0876 26.3777 65.6148 26.5019C66.4109 26.6821 66.1473 26.7392 65.7546 26.1923C65.6973 26.1093 65.3099 26.1558 65.2427 26.0992C65.2787 26.1299 65.0257 25.4593 65.0771 25.6294C65.0617 25.573 64.5811 25.222 65.2014 25.2786C65.0823 25.0567 64.5139 24.6439 64.2296 24.4838C63.6918 24.1741 63.2731 24.0711 62.6734 23.8904C61.826 23.6172 61.8727 23.7821 61.2004 23.8904C60.7817 23.9628 60.3271 23.7614 59.7427 23.911C59.8052 24.1382 59.893 24.3549 60.0015 24.2983C60.0222 24.293 59.9857 24.3084 60.0015 24.2983ZM57.0808 23.5088C56.7606 23.5807 57.3704 23.6584 57.4842 23.6378C57.4842 23.4259 57.2566 23.4777 57.0808 23.5088ZM60.8855 23.2299C60.9062 23.3953 60.9315 23.4311 60.9215 23.6219H61.2883C61.2316 23.4465 61.1332 23.5295 61.1332 23.2299H60.8855C60.9781 23.2198 60.8903 23.2558 60.8855 23.2299ZM59.3399 23.2505C59.252 23.2405 59.1743 23.261 59.1017 23.3281C59.4845 23.5501 59.8978 23.8698 60.4043 23.6378C59.9809 22.8584 59.7274 23.4 59.3399 23.2505ZM59.252 23.1268C58.3887 22.9614 59.7533 22.6211 59.252 23.1268C59.2208 23.1215 59.3087 23.065 59.252 23.1268ZM58.8799 23.5807C59.0138 23.6425 59.0711 23.9834 59.1276 23.5501C58.9418 23.5807 58.9213 23.5966 58.8799 23.5807ZM58.2231 24.004C58.2231 24.1382 58.9932 24.2619 59.2155 24.2619C59.1689 23.8492 58.2903 23.9628 58.2231 24.004ZM57.9288 24.0558C57.8304 24.0352 57.7324 24.0093 57.6287 23.9886C57.8045 24.4167 58.0061 24.1023 57.9288 24.0558C57.9542 24.0711 57.8822 24.0352 57.9288 24.0558ZM58.3834 22.0636C58.1199 22.425 57.9336 22.4763 57.9542 22.9925C57.9908 23.7202 58.1718 22.8377 58.6058 22.9049C58.6317 22.6623 58.5073 22.4509 58.2903 22.4662C58.3422 22.3215 58.3834 22.2084 58.3834 22.0636C58.3834 22.1001 58.3474 22.1154 58.3834 22.0636ZM54.9308 24.0246C54.9308 24.0246 55.3077 24.4997 55.2616 24.4479C55.2457 24.4273 55.3183 24.8712 55.3336 24.9224C55.5973 24.747 55.5353 24.2207 55.5353 23.9316H55.7576C55.7836 24.0505 56.1816 24.9383 56.3367 24.8659C56.6156 24.7422 56.099 23.7667 55.9387 23.5602C57.6393 23.5602 54.9308 22.5692 54.9308 24.0246ZM57.0602 22.4662C56.776 22.5692 55.1478 22.3527 55.2252 23.0338C55.7576 22.786 55.9027 22.8377 56.4711 22.7241C56.6469 22.683 56.7034 22.8843 56.9157 22.7965C57.029 22.7447 57.4582 22.3009 57.0602 22.4662C57.1327 22.4351 57.0396 22.4763 57.0602 22.4662ZM56.6775 26.4089C56.6775 26.7286 57.9182 26.1198 58.0527 25.9857C57.5668 25.7431 56.7606 26.2642 56.6775 26.4089ZM56.5278 26.7185C56.378 26.7392 56.342 26.7957 56.4192 26.904H56.6362C56.6568 26.8116 56.6521 26.6773 56.5278 26.7185C56.5536 26.708 56.4759 26.7392 56.5278 26.7185ZM55.3702 25.9704C55.6903 26.2901 56.6934 26.0268 57.0602 25.872C56.7654 25.8208 55.5094 25.8208 55.3702 25.9704ZM55.241 26.2076C54.7805 26.3471 55.6231 26.5738 55.7729 26.5637C55.711 26.4913 55.4008 26.1764 55.241 26.2076C55.2616 26.2023 55.1838 26.2229 55.241 26.2076ZM54.3205 25.8927C54.0569 25.9133 54.9822 25.9704 55.1685 25.9704C55.1113 25.9856 55.1013 25.9545 55.1319 25.872C54.8271 25.872 54.6101 25.8413 54.3205 25.8927C54.3777 25.8873 54.274 25.8979 54.3205 25.8927ZM50.3354 25.2733C50.7541 25.6036 51.3485 25.7019 52.0668 25.7742C52.6358 25.8361 53.344 26.1299 53.9538 26.0421C53.7833 25.7019 53.4266 25.6089 53.0386 25.6865C53.0645 25.4282 53.2508 25.5523 53.4419 25.4387C52.3929 25.2633 51.4258 25.2427 50.3354 25.2733ZM49.2138 24.7422C49.1361 24.9124 49.188 24.9948 49.2138 24.7422V24.7422ZM51.8238 22.2443C51.3379 22.5846 51.6434 23.1992 51.917 23.5602C52.315 24.1023 52.4807 24.0452 53.2403 24.1694C54.0056 24.3031 53.7627 24.4997 54.1967 23.8598C54.2173 23.8285 54.2946 23.3228 54.3776 23.1785C54.491 22.9925 54.9102 22.9102 55.0393 22.6312C54.5534 22.3167 54.6878 22.2338 54.5794 21.5372C54.9515 21.5579 54.8376 21.31 55.2045 21.1811C55.2357 21.2688 54.3205 20.5464 54.3983 20.5364C54.1088 20.557 53.8966 21.0522 53.6695 21.2535C53.1629 21.7027 52.279 22.5846 51.8238 22.2443ZM47.9472 23.3281C47.9679 23.5707 48.3712 24.1694 48.6089 24.2207C48.5575 23.8904 47.9472 23.354 47.9472 23.3281C47.9526 23.3847 47.9472 23.2917 47.9472 23.3281ZM47.3581 22.518C47.4513 22.6935 47.627 22.7447 47.7096 22.9255C47.7096 22.7035 47.6476 22.5434 47.4147 22.4457C47.3475 22.6211 47.41 22.5334 47.3581 22.518ZM47.0839 22.0377C47.0839 21.9812 46.9706 21.8263 46.9706 21.9912C46.9706 22.1413 47.0633 22.2084 47.1924 22.229C47.239 22.136 47.203 22.0742 47.0839 22.0377ZM47.2131 21.197C47.0066 21.197 46.8928 20.9903 46.6964 21.0163C46.7843 21.4442 47.4613 21.8675 47.6889 22.1566C48.0457 22.5952 48.34 23.2451 48.7173 23.7355C48.9762 24.0606 49.5859 24.9536 49.9321 24.9589C50.6975 24.9795 50.2629 24.2413 50.8679 24.0558C50.8007 23.5807 50.3613 23.4053 49.984 23.6737C49.9427 23.1321 47.9371 21.2794 47.2131 21.197C47.2962 21.207 47.1824 21.197 47.2131 21.197ZM56.7141 19.9271C56.316 19.9684 55.9693 20.2368 56.1816 20.6807C56.5018 19.9065 56.9724 20.7943 57.4842 21.0163C57.3032 20.6289 57.6287 20.5464 57.6339 20.5364C57.6446 20.464 57.7944 19.5244 57.4683 19.5244C57.1375 19.5244 57.0808 20.175 56.7141 19.9271C56.74 19.9477 56.6568 19.9377 56.7141 19.9271ZM55.6285 18.2245C55.6179 18.3582 56.0418 19.4008 56.3467 19.3443C56.1916 19.6846 56.74 19.9171 56.6055 19.2513C56.5431 18.9675 55.9386 18.2757 55.6285 18.2245C55.6491 18.2346 55.6231 18.2757 55.6285 18.2245ZM56.1609 18.1727C56.6209 18.4924 56.9258 19.1065 57.4222 19.2047C57.4222 18.6425 56.8998 18.5131 56.8998 18.0126C56.6003 18.0126 56.4504 18.1727 56.1609 18.1727C56.2176 18.2139 56.2176 18.1727 56.1609 18.1727ZM55.4628 18.503C55.1892 19.0294 54.4862 19.5557 54.3412 19.9889C54.9515 19.9889 55.4628 19.1065 55.4628 18.503C55.4628 18.5649 55.4527 18.5288 55.4628 18.503ZM55.7476 16.3512C55.2045 16.645 55.3389 17.7494 55.9593 17.9455C55.9333 17.5946 56.7189 16.3512 55.7476 16.3512ZM56.1038 14.034C56.1038 13.8586 55.3749 14.452 55.4834 15.1279H55.701C55.701 14.6739 56.1038 14.452 56.1038 14.034ZM65.4804 5.82356C65.1136 5.89065 64.8759 6.18996 64.3947 6.22614C63.8676 6.26741 63.6246 6.16422 63.0715 5.85455C63.0508 6.01966 62.8339 7.27369 62.6115 6.81438C62.5136 6.98467 62.1828 7.77938 62.7201 7.52653V7.71236C62.3945 7.7691 62.2394 8.81148 61.8779 9.21948C61.8779 9.10584 61.888 9.04352 61.8779 8.92512C61.6657 9.13175 61.6037 9.20362 61.5106 9.472C61.428 9.35845 61.2936 9.55447 61.3455 9.23477C61.1073 9.4049 61.0194 9.63744 60.9834 9.98829C60.2492 9.66811 58.8799 10.2768 58.7503 11.0822C58.89 11.0922 59.0864 11.0822 59.1743 11.0822C59.1743 11.4383 58.7815 11.5979 59.324 11.7528C59.324 11.3765 59.929 10.8343 59.324 10.7831C59.4532 10.401 60.3683 10.401 60.7558 10.3339C60.3371 10.5971 59.6655 10.3439 59.8206 11.051C60.1614 10.9068 60.4874 10.7519 60.7198 10.5353C60.8902 10.9274 61.3608 10.623 61.2883 10.2821C62.7407 10.1173 62.4671 10.0449 62.8132 8.83212C63.0043 8.16132 63.2319 7.63491 62.5962 7.10858C63.0255 7.02594 63.7437 7.42844 63.7178 6.95893C64.0332 7.02594 65.4804 6.22614 65.4804 5.82356C65.4804 5.8442 65.4544 5.82356 65.4804 5.82356ZM66.1626 5.4727C66.0075 5.49844 65.9302 5.60681 65.7906 5.67909C66.0181 5.81328 66.0801 5.66881 66.1626 5.4727C66.1367 5.4778 66.132 5.5449 66.1626 5.4727ZM67.9617 3.51162C67.9204 3.66127 67.8273 3.80064 67.7394 3.93483C68.039 3.81091 67.9565 3.57361 67.9617 3.51162ZM72.355 1.58161C72.319 1.58161 72.2518 1.39586 72.1538 1.47324C72.1332 1.54042 72.1279 1.61261 72.1332 1.68489C72.1951 1.70035 72.4274 1.72608 72.355 1.58161ZM71.859 1.63843C71.7865 1.43204 71.8071 1.30295 71.616 1.15848C71.616 1.35459 71.6574 1.52487 71.6727 1.7158C71.8024 1.75198 71.895 1.75708 71.859 1.63843C71.8696 1.66416 71.8484 1.61261 71.859 1.63843ZM70.8978 -0.353575C71.037 -0.353575 71.1301 -0.518682 71.1407 -0.616779C70.8199 -0.740528 70.7893 -0.54442 70.6648 -0.353575C70.7427 -0.338034 70.8199 -0.338034 70.8978 -0.353575ZM79.3905 -2.908C79.7 -2.85636 80.1293 -2.72217 80.4395 -2.76353C80.1759 -3.2795 79.6075 -2.88218 79.3905 -2.908C79.447 -2.90282 79.3592 -2.91828 79.3905 -2.908ZM76.1389 -7.40789C76.5369 -7.3176 77.0282 -7.49562 77.4416 -7.49562C77.333 -7.66336 76.9969 -7.8982 76.718 -7.88274C76.6195 -7.88011 75.8288 -7.48534 76.1389 -7.40789C76.1595 -7.40279 76.1029 -7.4157 76.1389 -7.40789ZM64.6536 -10.2126C65.0151 -10.0708 66.2092 -9.63728 66.2092 -10.3082C65.6973 -10.3339 64.9172 -10.2617 64.705 -10.6177C64.669 -10.5816 64.5397 -10.2617 64.6536 -10.2126C64.6742 -10.2075 64.6224 -10.2307 64.6536 -10.2126ZM62.4464 -9.03867C62.891 -8.96903 63.289 -9.06186 63.7125 -8.91221C63.568 -9.53663 62.8751 -9.3767 62.4464 -9.03867ZM62.8132 -9.50054C63.0562 -9.50054 62.6068 -9.70692 62.4671 -9.70174C62.4671 -9.4799 62.6168 -9.50054 62.8132 -9.50054ZM61.438 -10.3262C61.8361 -9.74565 64.0798 -9.90303 64.2296 -10.6358C63.8729 -10.7029 63.4229 -10.9171 63.4229 -10.3339C63.3457 -10.3469 63.2731 -10.3469 63.2012 -10.3339C63.5886 -11.1441 62.7407 -10.6823 62.4564 -10.69C61.888 -10.708 61.7435 -10.9842 61.438 -10.3262ZM61.0506 -10.4733C61.0194 -10.5404 61.0194 -10.6177 61.0506 -10.6926C60.6425 -10.7494 60.849 -10.3211 61.0506 -10.4733C61.0453 -10.4965 61.0146 -10.4449 61.0506 -10.4733ZM60.849 -9.68374C60.9734 -9.38443 60.9575 -9.20387 61.3248 -9.25279C61.2264 -9.38698 60.9834 -9.59345 60.849 -9.68374ZM51.0696 -12.3801C50.9658 -12.5736 50.6557 -12.6226 50.4492 -12.5246C50.5006 -12.4652 51.1575 -12.1582 51.0696 -12.3801C51.0796 -12.3543 51.0537 -12.4111 51.0696 -12.3801ZM46.7896 -11.5183C46.9135 -11.5596 47.0532 -11.5183 47.1771 -11.5183C47.1305 -11.9801 46.9342 -11.6164 46.7896 -11.5183ZM48.3865 -12.1788C48.4591 -12.1788 50.201 -12.5504 50.2422 -12.5994C50.6715 -13.1619 49.3843 -13.1051 49.2864 -13.149C49.3743 -13.2393 49.4102 -13.2419 49.4361 -13.3528C48.6761 -13.4845 48.304 -12.1788 48.3865 -12.1788ZM47.2131 -13.9928C45.9317 -13.8069 46.1121 -13.0871 47.2909 -12.9787C48.1849 -12.8936 48.2473 -12.8729 48.2008 -13.407C48.1436 -14.1321 48.1954 -13.7734 47.5233 -13.7734C47.5957 -13.8947 47.5905 -13.8663 47.6164 -13.9901C47.4772 -13.9928 47.3475 -13.9952 47.2131 -13.9928ZM46.1074 -13.9204C46.6186 -13.6496 47.3375 -14.3591 47.6323 -14.5449C46.9654 -14.8649 46.0502 -14.901 45.5177 -14.1966C45.5489 -14.1372 45.983 -13.9799 46.1074 -13.9204C46.1328 -13.905 46.0915 -13.9334 46.1074 -13.9204ZM45.9623 -13.7553C45.7194 -13.7553 45.5437 -13.8947 45.2906 -13.8482C45.3214 -13.1025 46.2985 -13.7553 45.9623 -13.7553ZM45.2075 -14.95C44.655 -14.95 45.0837 -14.7203 45.0424 -14.6558C44.9339 -14.4753 45.7559 -14.95 45.2075 -14.95ZM30.8693 -6.34488C30.5485 -6.39906 30.016 -6.77574 30.2489 -6.01457C30.4553 -6.01457 30.8328 -6.1204 30.8693 -6.34488C30.864 -6.32169 30.8486 -6.34742 30.8693 -6.34488ZM32.2851 -9.00249C31.9596 -9.03349 31.288 -8.1846 31.288 -7.73819C31.4791 -7.77692 31.6082 -7.8982 31.7167 -7.66599C31.7839 -7.69691 31.8098 -7.746 31.7892 -7.81038C32.2079 -7.5989 31.9183 -7.36151 32.146 -7.26087C32.4402 -7.13186 33.0093 -7.17832 33.3347 -7.17832C33.2935 -7.62472 32.797 -7.76656 32.7663 -8.17941C32.7244 -8.69028 33.1537 -8.98703 33.4639 -9.29925C34.198 -10.0295 34.8851 -10.432 35.9606 -10.6926C36.2756 -10.7699 37.6094 -11.0461 37.4697 -11.3893C37.2633 -11.8924 36.4931 -11.3273 36.2189 -11.2448C35.552 -11.0306 33.3347 -10.9739 33.3347 -10.1611C33.1951 -10.1791 33.0712 -10.1842 32.9314 -10.1611C33.2728 -9.57536 32.0681 -9.596 32.1767 -9.20386C32.301 -9.2296 32.337 -9.27606 32.4715 -9.2606C32.4042 -9.08768 32.5853 -8.97931 32.2851 -9.00249C32.3424 -8.99731 32.2338 -9.00767 32.2851 -9.00249ZM37.8164 -8.83739C38.1054 -8.83739 38.2658 -9.01803 38.3435 -9.05931C38.4986 -9.14187 37.3558 -8.83739 37.8164 -8.83739ZM35.1905 -14.6558C35.6039 -14.0341 35.8828 -14.6249 36.3481 -14.71C35.9193 -14.9526 35.5933 -14.5217 35.1905 -14.6558ZM34.2907 -14.6558C34.2907 -14.4417 34.1409 -14.5036 34.0324 -14.3255C34.3531 -14.2224 34.694 -14.2146 35.0614 -14.2792C34.756 -14.6636 34.7872 -14.9449 34.2907 -14.6558ZM34.1616 -13.9928C34.0636 -13.9644 33.9705 -13.9385 33.8673 -13.9385C33.9186 -13.6857 34.0842 -13.8276 34.2907 -13.8663C34.27 -13.967 34.2859 -14.0237 34.1616 -13.9928C34.1875 -13.9979 34.1308 -13.985 34.1616 -13.9928ZM32.8748 -14.1037C33.0452 -13.9566 33.0712 -13.7296 33.3347 -14.0676C33.3347 -13.6573 33.8673 -14.0418 33.9392 -14.1037C33.9445 -14.1553 33.9392 -14.2018 33.9186 -14.2507C33.593 -14.3126 33.0764 -14.1682 32.8748 -14.1037ZM31.8251 -14.0676C32.13 -14.3772 32.7763 -14.5114 33.2416 -14.4004C33.1331 -15.061 33.8466 -14.1682 33.9392 -14.7823C33.7794 -14.7823 33.6396 -14.7565 33.4793 -14.7823C33.5412 -14.8726 33.6603 -15.0842 33.7016 -15.1306C33.4486 -15.1306 33.2829 -14.9707 33.1484 -14.9293C33.2363 -14.9577 32.7039 -14.8159 32.6525 -14.7823C32.5181 -14.6998 32.4714 -14.5139 32.2851 -14.3798C32.0268 -14.194 31.903 -14.3385 31.8251 -14.0676ZM30.3574 -14.563C29.8144 -14.563 29.6799 -14.372 29.1633 -14.4726C29.1893 -14.0779 29.8663 -14.3436 30.1764 -14.3436C29.5354 -13.8792 30.6158 -13.7631 30.9312 -14.1785C31.4377 -14.8571 30.9572 -14.563 30.3574 -14.563ZM19.828 -13.9385C19.9471 -13.6367 20.614 -14.0418 20.7432 -13.7012C20.5622 -13.7115 20.3759 -13.6935 20.19 -13.7012C20.5262 -12.7697 22.3608 -13.6006 22.7848 -13.8482C22.3713 -14.3049 21.7923 -13.9256 21.4255 -14.0341C21.4927 -14.1708 21.5858 -14.145 21.5546 -14.3075C21.1206 -14.1372 21.2338 -14.2843 20.9809 -13.8482C20.8204 -14.2663 19.6369 -14.3617 19.828 -13.9385C19.8386 -13.905 19.8074 -13.9799 19.828 -13.9385ZM19.0891 -12.5452C19.0891 -12.4446 18.1067 -12.5039 17.9882 -12.104C18.2258 -12.1556 18.97 -12.3259 19.0685 -12.1969C18.9181 -12.0989 18.1173 -11.9698 18.1067 -11.9028C18.0861 -11.7788 18.8049 -11.4305 18.96 -11.2242C19.4353 -11.5827 19.8899 -12.2794 19.8899 -12.7748C20.0297 -12.7955 20.2779 -12.8007 20.4124 -12.7748C20.3504 -12.3285 20.4637 -12.6458 20.6553 -12.3878C20.7945 -12.1994 20.5055 -12.0395 20.5055 -11.846C21.0121 -12.1608 21.0634 -11.7428 21.2598 -11.7737C21.4614 -11.8047 21.8235 -12.0214 22.0299 -12.0679C21.8076 -12.362 21.5805 -12.024 21.5805 -12.4523C21.3635 -12.4239 19.9006 -13.2934 19.8593 -13.4276C19.7973 -13.3993 19.6835 -13.3657 19.5645 -13.4276C19.6111 -13.536 19.6729 -13.6057 19.6988 -13.7192C19.1458 -13.9799 19.1304 -13.6779 18.8721 -13.6057C18.996 -13.6418 18.6752 -13.2961 18.6392 -13.2858C18.7218 -13.3142 18.4994 -13.7218 18.4634 -13.7321C18.5153 -13.7167 17.8485 -13.4741 17.859 -13.4819C17.931 -13.5954 17.9622 -13.7167 18.0242 -13.8121C17.6986 -13.7424 16.3288 -13.4147 17.4192 -13.2625C17.4192 -13.1232 17.4451 -12.7723 17.3985 -12.6562C17.1974 -12.7568 17.2228 -12.9322 16.9751 -12.9865C17.073 -12.7903 17.4657 -12.1452 17.4657 -12.7284C17.6986 -12.7078 17.7139 -12.362 18.0395 -12.473C18.1687 -12.5143 18.2411 -12.7517 18.3656 -12.7645C18.3809 -12.7671 19.0526 -12.829 19.0891 -12.5452C19.0891 -12.5323 19.0785 -12.6097 19.0891 -12.5452ZM64.5604 -0.668333C65.4804 -0.668333 65.6355 -1.06055 66.2711 -0.926357C66.6226 -0.859262 66.2039 -0.616779 66.566 -0.523865C67.0878 -0.39995 66.9174 -0.91608 67.372 -0.565058C67.4086 -0.807625 67.569 -0.616779 67.7754 -0.637337C67.6616 -1.09665 67.4859 -0.688974 67.6669 -1.16893C67.7447 -1.38049 68.2253 -1.85526 68.3904 -1.9481C68.9848 -2.2784 69.4867 -2.14939 69.4867 -1.47851C70.2874 -1.62816 70.4892 -2.71707 71.2493 -2.56742C70.7427 -2.15456 70.567 -1.50432 70.0032 -1.03983C69.2897 -0.451588 68.3852 -0.126467 68.1322 0.642426C67.9511 1.20493 67.9664 1.99446 68.0755 2.51051C68.2253 3.21757 68.1476 3.33105 68.6747 3.05238C69.2384 2.75826 69.285 1.4836 70.1689 1.71062C69.9307 1.26167 70.1118 0.652788 70.6236 0.977907C70.4584 0.611509 70.5976 0.270851 70.5511 0.0438251C70.5204 -0.0697289 70.3081 0.012825 70.2203 0.0438251C70.2362 -0.136826 70.5304 -0.843803 70.6442 -0.946997C70.9492 -1.22566 70.9856 -1.06573 71.3678 -1.15338C71.5747 -1.19466 71.4969 -1.00899 71.6367 -1.01927C71.8278 -1.03473 71.8797 -1.34431 72.04 -1.35467C72.2364 -1.35985 72.4221 -1.29276 72.6238 -1.31858C73.0838 -1.37013 72.7069 -1.03983 73.0685 -0.967636C73.0685 -1.83972 75.1465 -2.37641 75.7356 -2.54678C76.2681 -2.69643 76.3247 -2.07711 76.1389 -2.877C75.9732 -3.58916 75.6065 -3.3054 75.1465 -3.6098C74.8829 -3.80591 76.2369 -3.75945 76.2321 -3.75435C76.6248 -3.91173 76.7486 -4.12585 76.5629 -4.52579C76.8365 -4.54388 76.8778 -4.26004 76.9657 -4.24976C77.0176 -4.24458 77.5913 -4.14139 77.6638 -4.10521C78.0359 -3.92974 77.9428 -3.81627 78.4186 -3.70271C79.0697 -3.53752 78.5684 -3.58916 78.9146 -3.72335C79.1988 -3.82654 78.9713 -4.10521 79.1369 -4.24976C79.2814 -4.38132 80.2738 -3.96329 79.871 -4.67544C79.726 -4.92829 78.7028 -5.10384 78.4546 -5.00311C78.6822 -4.84836 78.7388 -4.48197 78.3615 -4.74764C78.227 -4.84318 78.4186 -5.20958 78.2429 -5.35405C78.1498 -5.42888 77.974 -5.36696 77.8962 -5.43406C77.757 -5.55271 77.3637 -5.77982 77.2245 -5.85719C76.8418 -6.06103 76.5989 -6.2004 76.1956 -6.39651C75.3688 -6.79901 73.5856 -7.10859 73.053 -6.56417C73.9783 -6.19004 71.6007 -5.85464 72.8667 -6.67509C72.4846 -6.96157 72.1639 -6.56935 71.7817 -6.51516C71.3165 -6.45325 70.4997 -6.39651 70.0911 -6.60027C70.0811 -6.46879 70.0758 -6.31396 70.0911 -6.17713C69.5072 -6.82483 69.538 -7.57308 68.3285 -7.5008C67.8787 -7.47244 67.4446 -7.33051 66.9846 -7.42343C66.3902 -7.54726 66.2764 -7.84656 65.7546 -7.9033C65.863 -8.03749 65.6667 -7.98594 65.9356 -8.12268C65.1548 -8.56127 64.2555 -7.45698 64.5964 -8.36006C64.209 -8.36006 63.8162 -8.57426 63.4076 -8.58199C62.6322 -8.59745 62.8132 -8.47353 62.0997 -8.36006C62.0997 -8.04267 62.4671 -8.06076 62.4671 -7.7201C62.1669 -7.79238 61.8986 -7.83892 61.6037 -7.85692C61.671 -7.76146 61.852 -7.61954 61.7848 -7.46216C61.4334 -7.52925 61.3661 -7.80011 61.0353 -7.86202C61.0506 -7.86202 60.1614 -7.87238 60.1148 -7.85692C59.6342 -7.73046 59.7174 -7.26087 59.3447 -7.26087C59.3553 -7.26087 58.6576 -7.86202 58.6058 -7.99367C58.5439 -8.15368 58.8074 -8.67228 58.6058 -8.91221C58.2903 -9.28379 58.032 -8.88129 57.7065 -8.9664C56.9776 -9.15732 56.7501 -9.65273 56.7501 -8.65164C56.1816 -8.64645 55.8608 -8.59227 55.3495 -8.80129C55.1632 -8.87866 55.0547 -9.12641 54.8218 -9.18577C54.3777 -9.29925 53.5816 -9.08768 53.1011 -9.08768V-9.37152C52.9301 -9.31734 52.6564 -9.14705 52.5013 -9.29925C52.5426 -9.30443 53.3228 -9.68118 52.9613 -9.7741C52.5526 -9.88239 52.3257 -9.24251 51.7878 -9.3328C51.8657 -8.85284 51.059 -8.8942 50.625 -8.8942C51.0902 -8.93803 53.1371 -10.1818 53.1836 -10.4346C53.3799 -11.5389 51.2866 -11.4434 50.8108 -11.2628C50.9039 -11.3764 50.9764 -11.3995 50.9764 -11.5725C50.7022 -11.5441 50.4386 -11.6292 50.1698 -11.6292C50.2116 -11.7169 50.4333 -11.9852 50.4852 -12.0291C49.4203 -12.1118 49.379 -11.7453 48.7173 -11.4074C48.8052 -11.2963 48.7845 -11.3273 48.8105 -11.2086C48.0817 -11.379 48.025 -10.8836 47.4147 -10.8165C47.1924 -10.7958 46.7896 -11.0616 46.4588 -11.0229C46.3969 -11.0151 45.7141 -10.5997 45.4093 -10.5249C45.1043 -10.4552 44.8513 -10.4192 44.4787 -10.2901C44.3601 -10.2436 43.7138 -10.0166 43.6466 -9.91084C43.3417 -9.45926 44.2103 -9.76366 43.6726 -9.37152C43.0835 -8.94058 41.9825 -9.49535 41.3828 -8.9664C41.5431 -8.58709 42.6077 -7.96785 42.0085 -7.92139C41.8375 -7.90848 41.6151 -8.2336 41.5119 -8.26715C41.052 -8.42971 40.7365 -8.44262 40.2819 -8.34461C40.4523 -8.26197 40.6693 -8.28006 40.6693 -8.03239C39.2995 -8.12005 40.8917 -7.80529 40.8297 -7.37188C40.6074 -7.715 40.0182 -7.49053 39.7494 -7.82847C39.6562 -7.94466 39.7647 -8.5278 39.6562 -8.7471C39.6096 -8.71092 39.5631 -8.69801 39.5064 -8.71092C39.5064 -8.03239 39.1031 -8.30588 39.0312 -7.9033C39.0312 -7.90075 39.1444 -6.77837 39.1703 -6.73709C39.5631 -6.09721 39.4546 -6.67509 39.9351 -6.48934C40.5301 -6.25459 40.4989 -5.94493 40.4989 -5.55534C40.4989 -5.41597 40.9642 -5.34377 41.0366 -5.33341C40.2713 -4.83027 40.4263 -6.73191 39.3874 -5.88819C39.3874 -5.88819 39.4238 -5.38497 39.346 -5.26114C39.2016 -5.02638 39.0465 -4.93865 38.8448 -4.83027C38.2863 -4.51551 38.297 -4.64445 37.5835 -4.69353C37.7386 -4.92056 38.3177 -4.88191 38.6119 -5.13212C38.8808 -5.36951 39.0671 -5.6379 39.0671 -6.02493C38.6431 -5.98884 38.4933 -7.66336 38.5346 -8.13296H38.7723C38.8967 -8.7471 37.8883 -8.90193 37.4491 -8.57426C37.3924 -8.52781 36.6942 -7.40534 36.6789 -7.35378C36.798 -7.68663 36.8033 -6.55644 36.6995 -6.76028C36.7927 -6.56417 36.9737 -6.61318 37.1029 -6.34488C37.1854 -6.1694 37.5781 -6.17713 37.5062 -5.90365C37.3818 -5.4237 36.9012 -6.07912 36.8805 -6.08685C36.3428 -6.2314 35.9294 -6.42743 35.4128 -6.60027C35.144 -6.69063 34.1721 -7.19386 34.017 -7.16795C33.34 -7.06476 35.2937 -6.28814 33.9858 -5.77464C33.9858 -6.79646 31.8564 -5.03411 32.2491 -6.19522C31.686 -5.86492 31.045 -5.85201 30.476 -5.47271C30.3781 -5.40569 29.1528 -4.28586 29.2358 -5.41597C30.1658 -5.38497 29.0807 -6.00939 28.5536 -6.00939C28.7859 -5.77982 28.9516 -4.61353 28.7187 -4.47161C28.7759 -4.5026 28.1709 -4.6419 28.0005 -4.60835C27.866 -4.58253 27.494 -4.16194 27.2303 -4.14139C27.3023 -4.03556 27.5039 -3.72335 27.4886 -3.56852C27.1112 -3.76463 26.6666 -3.57888 26.3511 -3.97619C25.5916 -3.56852 26.7339 -3.51688 26.7339 -3.2795C26.7339 -3.09383 26.1601 -3.18148 26.1135 -3.2073C25.545 -3.47561 25.8293 -3.40859 25.5763 -3.82654C25.364 -4.19039 24.9093 -4.64962 24.5679 -5.09603C24.8728 -5.03929 28.093 -3.76463 27.7109 -5.26114C27.6177 -5.61981 26.7444 -5.95266 26.4083 -6.07657C25.8811 -6.2726 25.0951 -6.13068 24.8628 -6.2726C25.1316 -6.8351 24.046 -6.65445 23.7978 -6.88419C24.2111 -6.88419 23.9995 -7.07504 23.7877 -7.18604C23.2553 -7.46726 23.4723 -7.11385 23.0949 -7.11385C23.1362 -7.19386 23.1881 -7.38733 23.2087 -7.47244C23.0896 -7.5008 22.816 -7.5008 22.7021 -7.47244C22.7122 -7.28669 22.6762 -7.18604 22.7021 -7.02093C22.609 -7.25059 22.5265 -7.20668 22.3454 -7.37188C22.2782 -6.9693 22.0971 -6.79901 22.0971 -7.31497C22.1596 -7.34342 22.2988 -7.31761 22.3607 -7.31761V-7.55499C22.2057 -7.5318 21.2084 -7.00021 21.57 -7.38988C20.7998 -7.46725 20.867 -7.0493 21.2756 -6.82219C21.0533 -6.90993 20.7586 -6.8351 20.5262 -6.91248C20.5262 -6.70091 20.5621 -6.64418 20.4124 -6.52553C20.4124 -6.78873 20.0297 -7.02866 19.7714 -7.00284C19.8746 -6.63645 19.5285 -6.06876 19.4613 -6.60027C19.0113 -6.1514 19.4299 -6.47134 19.2748 -5.99394C18.8975 -6.14622 18.9854 -6.04039 18.8721 -6.41707C18.717 -6.36296 18.6292 -6.19777 18.391 -6.08685C18.4582 -5.96557 18.4481 -6.02238 18.4481 -5.90365C18.1015 -5.90365 17.895 -5.74109 17.7139 -5.50116C18.0967 -5.62236 18.6599 -5.97848 19.0685 -5.77464C18.5254 -5.65081 17.7246 -4.72963 17.6208 -4.06656C17.4398 -4.05102 17.1662 -3.873 17.0111 -3.72335H17.3059C17.2641 -3.36213 16.4267 -3.00091 16.1685 -3.05765C16.1685 -2.908 16.1425 -2.96992 16.2049 -2.78417C15.2072 -2.5777 15.0829 -1.99973 14.8816 -1.2773C15.7085 -1.30303 14.5869 -0.781889 15.3416 -0.719891C15.3257 -0.513586 15.2225 -0.482588 15.2485 -0.286478C16.0599 -0.286478 16.3595 -0.193563 16.9026 -0.874722C17.2593 -0.812807 17.5282 0.456678 17.8432 0.812716C17.931 0.915909 17.6415 1.09656 17.8691 1.17912C18.3962 1.38558 18.1687 1.00364 18.391 0.921091C18.789 0.781799 19.006 0.642427 19.3474 0.559872C19.3734 0.492775 19.3734 0.435959 19.3474 0.374044C19.1511 0.394764 19.0939 0.389582 18.9806 0.301847C19.0939 0.121197 19.5697 -0.472225 19.6057 -0.565058C19.7248 -0.869623 20.1747 -1.13274 19.4972 -1.13274C19.4972 -1.61788 19.0785 -2.07201 19.5851 -2.65508C19.8386 -2.95446 20.3086 -2.96992 20.5415 -3.2795C20.6966 -3.48079 20.7019 -4.06138 21.0634 -4.28841C21.3428 -4.46133 21.9834 -4.16712 22.0299 -3.8369C22.1385 -3.12475 19.8333 -2.72735 20.893 -1.49914C21.6372 -0.637337 22.9398 -1.68489 23.8137 -1.18438C23.3277 -0.688972 22.6297 -0.90572 22.0506 -0.833445C21.8288 -0.797346 21.0274 -0.534143 21.0169 -0.523865C21.1 -0.492865 21.1618 -0.451588 21.2392 -0.420671C21.0634 -0.420671 20.9449 -0.358753 20.7792 -0.307034C20.9809 0.219294 21.3635 -0.389669 21.4979 -0.327753C21.751 -0.203922 21.7716 -0.0697308 21.9939 0.0800037C21.3635 0.879814 21.4048 -0.0541897 21.0375 0.0800037C20.5934 0.239933 20.6241 1.19975 20.614 1.43722C20.2367 1.43722 19.7507 1.23075 20.0657 1.7468C19.4972 1.16875 19.1823 1.78808 18.5567 1.84482C18.3444 1.86028 17.4351 1.32877 17.3731 1.91191C17.135 1.89645 16.9025 1.80872 16.7734 1.71062C16.8406 1.07592 17.7499 1.97901 17.6574 0.848898C17.523 0.910812 17.0783 1.06556 16.9957 1.03464C17.0005 0.931368 17.0677 0.745701 17.1042 0.642426C17.0318 0.673344 16.9544 0.673344 16.8872 0.642426C16.9698 0.0438213 16.8147 -0.0645504 16.3494 0.410221C16.0239 0.740522 16.2616 1.09656 16.2462 1.4165C16.2097 2.24221 16.4527 1.78808 15.8117 2.15957C15.4862 2.35059 14.9177 2.54151 14.5509 2.54151C15.0209 3.1453 14.1062 3.08338 13.7596 3.3465C13.7236 3.37241 13.4393 4.02774 13.3361 4.05866C12.9894 4.16712 12.7777 3.85228 12.5501 3.87292C13.0879 4.79664 12.0229 4.15158 11.7027 4.39924C11.3147 4.69854 11.8059 4.59535 11.9298 4.776C12.1108 5.02884 12.323 5.13204 12.5088 5.51398C13.5532 7.59363 11.0204 6.30869 9.99147 6.74219C10.1878 7.40789 9.89833 8.18714 10.064 8.83212C10.2138 9.41024 10.0174 9.05404 10.5239 9.379C10.8447 9.58563 11.0099 9.3896 11.3147 9.76636C11.382 9.68866 11.3719 9.65273 11.2787 9.65799C11.8059 9.472 12.4622 9.25541 12.8809 8.86805C13.0513 8.70845 13.1344 8.90982 13.2636 8.72909C13.3409 8.62055 13.1085 8.43998 13.1186 8.42962C13.1811 8.34189 13.2276 7.97549 13.3567 7.82066C13.5272 7.61427 14.2714 7.39761 14.4006 7.28915C14.5557 7.16014 14.292 6.89175 14.5715 6.72155C14.8039 6.57699 15.2278 6.9022 15.4862 6.85574C15.5846 6.84538 16.0705 6.25705 16.3341 6.29833C16.6903 6.36033 17.0471 7.03631 17.3419 7.27369C18.2311 7.96521 19.8021 8.90982 17.5848 8.90982C18.1793 9.94661 19.1151 8.86805 19.3681 8.25415H19.0526C19.0479 8.18714 19.0579 8.12514 19.0685 8.05812C19.2235 8.10968 19.6163 8.18713 19.7348 8.18713C19.5078 7.74846 18.8721 7.24278 18.319 7.16014C18.3756 6.81438 17.8018 6.38088 17.5436 6.40152C17.6208 5.24559 18.3656 6.27251 18.9341 6.68537C19.3215 6.96921 19.828 7.16532 20.0451 7.56271C20.1795 7.81038 20.3658 8.4709 20.5055 8.73912C20.3552 8.69258 20.3139 8.66199 20.1747 8.68781C20.2933 9.00224 20.4589 9.15231 20.6707 8.90448C20.893 10.0396 21.6478 8.82209 22.0664 8.75499C21.9992 8.63601 21.9114 8.538 21.7716 8.538C21.8028 8.61027 21.8028 8.68781 21.7716 8.75499C21.5546 8.75499 21.1 8.07868 21.1672 7.93421C21.389 8.05813 21.5133 8.13032 21.7563 8.02195C21.7356 7.96003 21.689 7.93421 21.6272 7.93421C22.4592 6.71119 22.9191 9.88477 23.0483 9.88477C23.1933 9.88477 23.1621 9.472 23.1621 9.41551C23.4828 9.69927 23.7411 9.6422 23.9942 9.67863C23.7306 9.6422 24.4181 9.50316 24.4028 9.50316C24.6664 9.49264 24.785 9.82294 25.2142 9.71991C25.2089 9.61154 25.2036 9.51327 25.2142 9.39964C26.0204 9.56507 26.0828 9.8435 25.7879 10.7001C25.6895 10.9998 25.3126 11.4849 25.0539 11.5979C24.7389 11.7321 24.4441 11.4124 24.1493 11.5673C24.6092 11.7839 24.93 13.1615 25.4518 12.6305C26.2326 13.4459 26.4237 14.5604 26.9355 15.4169C27.2611 15.9539 27.9279 16.3766 28.2069 16.9959C28.5843 17.8319 28.083 18.3376 29.1427 18.3582C29.618 18.3582 30.1817 17.9043 30.6517 17.7082C31.1895 17.4916 31.4531 17.2644 31.8823 17.0683C32.4354 16.8157 32.7663 16.924 33.1484 16.4802C33.3295 16.2841 33.7016 15.7784 33.9392 15.8762C33.9392 15.3604 33.9498 15.3398 34.3272 15.1797C34.2859 14.9318 33.8673 14.6533 33.6809 14.4985C33.3501 14.2148 33.6809 13.9204 33.2056 14.3902C33.1537 14.1682 33.0865 13.6831 32.9108 13.5489C32.7091 13.7967 32.6472 13.8174 32.616 14.2094C31.8823 14.1476 30.7348 14.1735 32.084 13.9309C32.0628 13.8481 31.0291 13.5589 30.9778 13.5283C30.8174 13.4147 30.3262 12.873 30.2849 12.6305C30.1452 11.7839 30.5538 12.0624 31.0551 12.4133C31.6754 12.8366 31.8871 13.0326 32.616 13.2704C32.7403 13.3116 33.0346 13.2287 33.2056 13.2704C33.3347 13.3064 33.3655 13.5955 33.5412 13.6726C33.8673 13.8274 34.6787 13.8998 35.0614 13.9151C35.9448 13.9463 36.193 13.8686 36.9012 14.2713C37.2839 14.4879 37.3199 14.7617 37.8937 14.87C36.8805 14.87 38.0434 15.3963 38.2763 15.4735C38.6585 15.5977 38.4573 14.9578 38.8654 15.5306C39.0671 15.799 38.9067 16.1499 38.9586 16.4489C39.0619 17.0371 39.2735 17.5069 39.4911 18.0591C39.6356 18.4306 39.8991 19.6486 40.2612 19.86C40.6434 20.0719 41.0261 19.6899 41.2378 19.2513C41.3828 18.9569 41.3828 18.6166 41.4188 18.2864C41.4395 18.1109 41.3723 17.7907 41.4294 17.6464C41.6205 17.156 41.5791 17.6359 41.9359 17.2849C42.6235 16.6244 43.4349 15.6236 44.0705 15.2727C44.3135 15.1332 45.3938 14.9112 45.4093 14.9218C45.6161 15.0555 46.0915 16.124 46.0915 16.3665C46.7224 16.3665 45.9989 16.8929 46.4588 17.2543C46.769 17.4968 47.1205 16.9806 47.1771 16.9959C47.6683 17.1301 48.0091 18.4205 47.9991 18.9516C47.9938 19.2359 47.5598 19.535 47.7508 20.0202C47.8647 20.3092 48.3092 20.5777 48.4696 20.9438C48.6607 21.3877 49.0587 22.982 49.9115 22.5746C49.6219 22.0742 49.6219 21.1864 49.3276 20.8202C48.8984 20.3092 48.3971 20.3351 48.278 19.5916C48.2521 19.4214 48.087 18.6784 48.3659 18.446C48.8158 18.0797 48.4437 18.3582 48.883 18.596C49.2652 18.8021 49.2292 18.792 49.5706 19.2153C49.6479 19.3131 49.9268 19.3907 49.9687 19.4526C50.0925 19.6587 49.9321 19.8394 50.1131 20.1544C50.4799 19.6381 51.0384 19.5039 51.3279 19.1065C51.8657 18.3741 51.5295 17.76 51.0902 17.1919C50.4233 16.3254 50.2476 15.2727 51.7878 15.2727C51.8863 15.7161 51.2194 16.2011 51.4777 16.4284C52.1085 16.9859 52.2425 15.3551 52.2271 15.3651C52.5013 15.1179 53.0957 15.102 53.4059 15.0042C53.8606 14.8594 54.0103 14.7617 54.3931 14.4726C54.9255 14.0752 55.9074 13.2033 56.0318 12.4857C56.1244 11.9594 55.8454 12.2844 55.7936 11.9282C55.7629 11.7321 55.954 11.7739 55.8867 11.4225C55.8041 10.9998 55.2151 10.4734 55.2252 10.1685C55.2458 9.58564 55.8401 9.78166 56.0524 9.472C56.2382 9.19835 56.2382 9.21414 55.6903 9.01285C55.4474 8.93038 55.5094 9.29661 55.1945 9.29661C55.2823 8.61027 54.3825 9.08997 54.7805 8.45026C54.7551 8.49671 55.494 8.17159 55.5353 8.15096C56.342 7.84647 56.1038 7.74846 55.7729 8.59481C56.0111 8.46062 56.6469 8.12514 56.9157 8.24387C57.4789 8.49672 57.0343 8.58445 57.0808 9.04878C57.9495 8.68781 57.6859 10.0602 57.5927 10.4782C58.2131 10.5453 58.916 10.1326 58.9006 9.53383C58.89 8.99747 58.2078 8.93514 58.3474 8.18713C58.3782 8.03748 58.6523 8.15096 58.6783 8.07868C58.6883 8.05812 58.7762 7.48008 58.8281 7.41298C58.952 7.24277 59.1589 6.89701 59.3913 6.79374C59.5257 6.737 60.0116 6.84538 60.2599 6.7731C60.5906 6.68019 60.6785 6.59771 60.9368 6.3706C61.3555 6.01457 61.888 5.34878 62.1722 4.92055C62.5031 4.43024 62.4099 4.03802 62.6322 3.53234C63.3457 1.86028 63.0255 5.15794 63.0255 5.61717C63.1594 5.48298 63.2631 5.55525 63.3817 5.28687C63.5474 5.4417 63.4023 5.56561 63.7538 5.58107C63.6558 4.91019 62.9376 4.31669 63.9348 4.31669C63.9607 4.31669 63.4595 2.03583 63.4388 1.76744H63.2938C63.3197 2.31441 63.1441 2.27313 63.1441 2.7789C62.7253 2.53115 62.808 1.99447 62.0431 1.76744C61.9552 2.32477 61.6864 2.13902 61.4539 1.76744C61.4746 1.87581 61.4746 1.95319 61.4539 2.06156C61.1284 2.01519 61.4592 1.80872 61.2163 1.60233C60.6992 2.1183 61.2057 1.33912 61.3968 1.12756C61.6863 0.807535 61.9912 0.59087 62.3066 0.198654C62.9683 -0.616779 63.5627 -0.668333 64.5604 -0.668333ZM10.9839 -0.327753C10.8134 -0.265839 10.6324 -0.0697308 10.5965 0.0954609C10.7516 0.054184 11.2634 -0.379309 10.9839 -0.327753C11.0045 -0.327753 10.9167 -0.307034 10.9839 -0.327753ZM11.3719 3.78518C11.744 3.78518 12.0229 3.52715 12.2352 3.49106C12.5607 3.43942 13.0207 3.59425 13.2843 3.4756C13.7495 3.26395 13.8993 2.80982 13.7755 2.39186C13.6976 2.12348 13.496 2.55179 13.486 2.54151C13.3615 2.4125 13.3822 2.20094 13.2843 2.1183C13.1186 1.97383 12.8915 1.63325 12.6746 1.38041C12.3437 0.993368 12.3019 1.0862 12.2506 0.776619C12.2193 0.570232 13.0672 -0.234838 11.8112 0.13674C11.9144 -0.043911 11.9297 -0.193562 12.1261 -0.307034C11.7127 -0.719889 11.5317 -0.0800076 11.3766 0.0438251C11.3513 0.0644627 10.5139 0.348307 11.1702 0.461861C11.1131 0.652788 10.9013 0.931368 10.9119 1.0501C11.129 1.07592 11.4026 1.25139 11.4597 1.01401C11.4079 1.73126 11.7853 1.33395 12.0541 1.91191C12.359 2.58279 11.7334 2.12348 11.4079 2.52087C11.5317 2.55179 11.6302 2.54151 11.7747 2.55697C11.7747 2.75826 11.2787 2.84081 11.4439 3.03174C11.5476 3.15039 12.0642 2.97501 12.2352 3.14012C12.1679 3.20203 11.1443 3.78518 11.3719 3.78518ZM11.0564 1.89645C11.8732 1.7778 9.75913 0.730164 10.2503 1.71062C9.86234 1.7829 9.34043 2.32477 9.97609 2.29377C9.14886 3.49106 10.3017 2.69634 11.0045 2.85109C11.0305 2.56215 11.0618 2.25249 11.0564 1.89645ZM30.7242 29.8406C30.7242 29.1335 31.2309 27.6783 30.3934 27.348C30.3934 27.5958 30.0679 28.1738 29.9182 28.3081C29.6079 28.5919 29.1274 28.473 28.8119 28.7774C28.5689 29.0146 28.8426 29.7528 28.8119 29.9489C28.7547 30.3204 28.5949 30.3669 28.5171 30.8314C28.4191 31.4354 28.5583 32.3279 29.365 32.1525C30.1404 31.9823 29.8921 31.7445 30.0266 31.0533C30.0367 30.9709 30.233 30.1862 30.2489 30.1709C30.3109 30.0831 30.7242 29.9595 30.7242 29.8406ZM24.6198 12.3309C24.2683 11.4949 24.0667 11.8151 23.2965 11.7221C22.185 11.5879 21.327 11.2317 20.2832 10.9945C20.2832 12.0006 20.3039 11.8151 19.6216 11.8251C19.7608 11.8151 19.0219 11.6085 19.0939 11.6397H18.5567C18.4994 11.5466 18.4634 11.4484 18.4481 11.3453C18.1226 11.237 17.1402 11.0769 16.9385 10.8037C16.5611 10.298 17.3625 10.205 16.6802 9.76636C16.8613 9.6163 16.8406 9.59566 17.0884 9.54444C16.7422 8.95578 15.7911 9.50316 15.2845 9.51327C14.7472 9.5238 14.1735 9.28601 13.486 9.58564C13.0207 9.78166 12.7052 10.0554 12.0901 10.0396C11.3459 10.0296 10.9479 9.51327 10.9479 10.4782H10.3948C10.643 11.3712 9.99149 10.7931 9.84695 11.0875C9.61403 11.5567 9.69186 12.1142 9.47961 12.4133C9.35047 12.5888 8.86462 12.8266 8.66819 13.0738C8.45645 13.327 8.20292 13.7556 7.97058 14.0959C7.74294 14.4367 6.81244 15.3034 6.94215 15.8196C6.97815 15.9639 7.50007 15.7577 7.58261 15.9332C7.65516 16.0722 7.47941 16.1393 7.51062 16.2217C7.65517 16.6038 7.4122 17.2337 7.38148 17.6205C7.34499 18.0902 7.30371 18.4924 7.82556 19.0294C8.37868 19.6122 8.89584 20.0925 9.51618 20.6289C9.72793 20.8149 9.83112 21.2382 10.2863 21.3307C10.7981 21.4237 10.8653 21.207 11.3512 21.1452C11.7747 21.0934 12.0955 21.2794 12.385 21.2688C12.9947 21.2482 12.9534 21.0163 13.4494 20.8456C13.8527 20.7119 14.7213 20.7478 14.9537 20.8456C15.3211 21.0109 15.2278 21.2794 15.7704 21.403C16.7115 21.6097 16.6597 21.1452 16.6802 22.136C16.6903 22.6005 16.5045 23.1939 16.2409 23.457C17.4192 23.8285 18.1946 26.2335 18.0035 27.3791C17.8172 28.5348 17.1196 28.5813 17.7139 29.8046C18.0808 30.5683 18.1999 31.0221 18.4116 31.8581C18.6239 32.7253 19.3009 33.3134 19.5491 34.0981C19.7608 34.7688 19.4353 34.9807 19.7714 35.3469C20.6601 36.3171 23.0123 35.1714 23.7046 34.4284C23.9735 34.1394 24.4287 33.6384 24.5838 33.2928C24.7389 32.9526 24.532 32.4674 24.6198 32.2608C24.6971 32.0959 25.2814 31.9923 25.4677 31.7445C25.969 31.0945 25.2142 30.8161 25.3587 30.1349C25.4725 29.5827 26.4962 29.2989 26.791 29.0305C27.5193 28.38 27.5612 27.6523 27.3801 26.6721C27.2764 26.1198 26.7651 25.2991 26.9768 24.6286C27.2557 23.7255 28.4138 22.8531 29.1067 22.2443C29.618 21.7952 30.1246 21.2794 30.4659 20.6654C30.6983 20.2574 30.8486 20.2215 30.9053 19.6746C30.9984 18.8127 31.1376 19.0187 30.3934 19.014C29.3597 19.0087 29.0549 19.4008 28.336 18.6166C27.9226 18.1574 27.2557 17.7288 26.863 17.2178C26.4756 16.7174 26.0722 15.5718 25.8346 14.9783C25.4778 14.07 25.2708 13.1362 24.6198 12.3309C24.6611 12.3827 24.5939 12.2691 24.6198 12.3309ZM-12.7622 40.4246C-12.9069 40.3939 -12.8967 40.1667 -13 40.1667C-12.9535 40.1667 -13.3308 40.6001 -13.3308 40.5953C-13.3308 40.6619 -12.6485 41.1887 -12.5968 41.2141C-12.6278 41.2606 -12.6434 41.3124 -12.633 41.3642C-13.8115 41.3642 -12.8708 42.401 -13.0568 42.8295C-12.9483 42.8142 -12.8708 42.8142 -12.7622 42.8295C-12.7571 42.9326 -12.8139 42.9896 -12.9276 42.9996C-12.7364 43.201 -12.8345 43.0826 -12.6485 43.1286C-12.7105 43.108 -11.8732 44.1765 -11.7336 44.2642C-11.0306 44.6975 -10.3638 44.4861 -9.69183 44.4343C-9.72289 44.2177 -10.5654 43.9752 -10.7411 43.5571C-10.9066 43.1545 -11.2839 42.1124 -10.612 42.1795C-10.612 41.7562 -9.75904 41.2812 -9.82105 40.9768C-9.88827 40.6159 -10.7411 40.8326 -10.4466 40.1149C-10.3535 39.8882 -9.88827 40.0119 -9.78491 39.8882C-9.69703 39.7746 -9.81595 39.5886 -9.69183 39.4544C-9.77452 39.5474 -9.25769 38.6496 -9.32482 38.9799C-9.20597 38.3917 -9.76422 38.9952 -9.64011 38.1232C-8.77697 38.4688 -8.60641 38.1539 -8.73554 37.3544C-8.0223 37.375 -7.16427 37.4009 -6.83862 36.7091C-6.48709 35.9762 -7.15907 36.1416 -7.2883 35.5017C-6.49228 35.6048 -6.19249 35.8837 -5.57734 35.3363C-5.28792 35.0784 -5.06044 34.0411 -4.73478 34.0876C-4.78131 34.2324 -4.80718 34.2477 -4.77103 34.382C-3.82503 33.9121 -4.08865 32.5757 -3.57176 31.9617C-3.23581 31.559 -2.77057 31.363 -2.2951 31.2288C-1.54043 31.0121 -1.33362 31.0633 -0.90979 30.3257C-0.408375 29.4538 -0.615108 28.1326 -0.211956 27.4304C0.0826492 26.9199 0.728775 26.615 0.899342 26.0268C1.01827 25.6348 0.99242 25.6606 0.894165 25.2991C0.677143 24.515 0.687439 25.0308 0.196407 24.6439C-0.335976 24.2312 -0.553165 24.1382 -1.21477 24.0146C-1.57139 23.9422 -2.83266 24.0299 -2.30538 23.7562C-2.50181 23.6219 -2.8171 23.4259 -3.07555 23.3747C-3.72167 23.2505 -3.57697 23.3953 -4.03185 23.5913C-3.9905 23.5295 -3.79924 23.1009 -3.79405 23.065C-3.96462 23.0443 -4.2024 22.9614 -4.36779 22.9102C-4.53326 22.8584 -4.44018 23.2817 -4.78651 23.2405C-4.7193 23.0855 -4.04732 22.2443 -4.67795 22.2443C-4.5694 21.1299 -5.6032 21.0727 -6.29066 20.8974C-6.8489 20.7632 -8.08431 20.1956 -8.08431 19.571C-8.39959 19.6793 -8.96302 19.535 -8.47198 19.3131C-8.79765 18.8951 -9.47472 19.4832 -9.66605 19.4785C-10.369 19.4526 -10.7049 18.8639 -11.3769 18.7402C-11.3769 19.1017 -11.625 19.0187 -11.837 19.2359C-11.868 19.2666 -11.7749 19.7622 -11.8008 19.8447C-12.1781 19.535 -12.08 18.8745 -11.6923 18.6372C-12.3126 18.4617 -14.0493 19.6122 -14.1527 20.3916C-14.2095 20.8249 -13.7547 21.2794 -14.0493 21.8781C-14.2095 22.2084 -14.8867 22.8895 -15.2434 23.0132C-15.1814 23.5707 -15.4138 23.6737 -14.8401 23.715C-15.0779 24.1277 -15.6361 24.3755 -15.3157 25.0514C-15.2382 25.222 -14.8763 25.258 -14.7265 25.4694C-14.5818 25.6813 -14.4267 25.9962 -14.3336 26.2229C-14.132 26.7185 -13.9459 27.544 -13.6255 27.9155C-13.1861 28.4212 -12.6588 28.566 -12.1109 28.994C-11.1857 29.7217 -11.5268 31.27 -11.6767 32.405C-11.7594 33.0244 -11.9921 33.6178 -12.0644 34.1906C-12.1472 34.8718 -12.0644 35.5841 -12.3384 36.2241C-12.6434 36.9364 -12.6226 37.3544 -12.8139 38.1539C-12.8036 38.1074 -12.8191 38.6802 -12.8139 38.536C-12.8191 38.6596 -13.062 38.7838 -13.0103 38.9386C-12.7519 39.7075 -12.5296 38.5566 -12.266 38.536C-12.4573 39.0729 -12.5348 39.5268 -12.602 40.1356C-12.7467 39.893 -12.7829 40.0272 -12.8346 39.6922C-13.0051 39.7846 -12.7468 40.2856 -12.7622 40.4246ZM-11.8422 16.738C-11.2012 16.5937 -10.2759 16.7021 -9.63501 16.4802C-9.91932 16.1292 -10.7929 16.2429 -11.3304 16.1705C-11.6715 16.1292 -12.3745 15.7266 -12.4314 16.2634C-12.4676 16.6038 -12.1575 16.7999 -11.8422 16.738C-11.7698 16.7227 -11.8886 16.7486 -11.8422 16.738ZM-13.5686 16.6244C-13.7185 16.3924 -14.0234 16.3147 -14.3388 16.3665C-14.1474 16.6244 -13.7908 16.8463 -13.5686 16.6244C-13.5996 16.5832 -13.6255 16.6862 -13.5686 16.6244ZM-12.9069 15.8038C-13.1861 15.3551 -14.3336 15.0866 -14.8195 14.9006C-15.1348 14.7876 -15.8532 14.4932 -16.2461 14.7205C-16.6803 14.9731 -16.5718 15.0095 -16.1066 15.2309C-15.905 15.3345 -15.7861 15.0195 -15.5897 15.0555C-15.3208 15.0972 -15.1503 15.3292 -15.0055 15.381C-14.2457 15.6542 -13.7702 15.8038 -12.9069 15.8038ZM4.84822 -4.10521C5.18433 -4.1594 5.30343 -4.15167 5.39658 -3.81109C5.14309 -3.85754 4.9155 -3.85754 4.66241 -3.81109C4.67253 -3.73889 4.68835 -3.66143 4.6984 -3.58916C5.44796 -3.71299 4.86889 -3.28986 5.25153 -3.15057C5.33415 -3.12475 6.19746 -3.03701 6.244 -3.04211C6.90568 -3.07311 6.96283 -3.21248 7.53128 -3.51688C8.01186 -3.78009 8.22361 -3.41369 8.37392 -3.92201C8.43586 -4.1233 8.08441 -4.12848 8.00658 -4.14139C8.16693 -5.05475 6.92099 -4.24195 6.30592 -4.32195C6.21335 -4.32968 5.66492 -4.40706 5.76342 -4.39678C5.49979 -4.41997 5.78407 -4.80964 5.50512 -4.47161C4.83289 -4.69608 4.66776 -4.06911 4.84822 -4.10521C4.90011 -4.11294 4.79691 -4.09485 4.84822 -4.10521ZM-6.47681 3.23303C-6.62151 3.32586 -7.47435 4.69855 -7.41234 4.80174C-7.28311 5.01857 -6.82824 4.81218 -6.58016 4.88437C-6.20279 4.99793 -6.1201 5.15276 -5.74273 5.32815C-5.169 4.46116 -5.70657 4.16194 -6.54912 3.89355C-6.55422 3.90901 -6.0374 2.98529 -6.47681 3.23303C-6.43026 3.21239 -6.52333 3.26395 -6.47681 3.23303ZM-8.4617 4.04321C-8.82861 3.92455 -8.98888 3.76972 -9.34558 3.82128C-9.00955 4.02257 -8.79246 4.51798 -8.4617 4.04321C-8.47718 4.06902 -8.51334 4.02775 -8.4617 4.04321ZM1.91246 -5.82627C2.01583 -5.86492 2.12957 -5.71527 2.21235 -5.69209C2.86357 -5.48307 2.86357 -5.73081 3.39595 -5.93975C3.87151 -6.12295 5.04993 -6.37842 5.21556 -6.82219C4.57463 -6.32169 3.06518 -7.49053 4.67253 -7.42343C4.60526 -7.42598 5.3913 -6.60027 5.57232 -7.31497C5.63953 -7.57826 4.98272 -8.21296 4.77624 -8.32652C4.89006 -8.42708 5.61361 -7.90075 5.39658 -8.58199C5.29289 -8.90193 5.10708 -8.90703 4.68309 -8.76511C4.7657 -8.8942 4.84821 -8.88384 4.9001 -9.00249C4.82284 -9.02576 4.7503 -9.05668 4.68309 -9.09804C4.91551 -9.10059 5.58239 -8.77547 5.89256 -8.98449C6.60604 -9.45926 5.45324 -9.28897 5.45324 -9.51862C5.45324 -9.57536 6.53883 -9.62692 6.61139 -9.75601C6.38374 -9.9804 5.78409 -10.3674 6.50228 -10.4268C6.51817 -11.0203 5.62365 -11.0177 5.72743 -11.3531C5.76869 -11.4899 6.20274 -11.5415 6.31656 -11.5002C6.78708 -11.3196 6.39907 -11.2809 6.61139 -10.8577C6.74044 -11.6189 7.03482 -11.8021 6.11485 -11.8021C6.36844 -12.0833 6.12547 -11.8795 6.55415 -12.086C6.29587 -12.4806 5.66022 -12.1014 5.65487 -12.104C4.99854 -12.6329 7.31426 -14.065 7.53128 -14.3385C7.23643 -14.3204 6.95221 -14.372 6.66271 -14.3798C7.26238 -14.5036 7.60375 -14.4856 8.12041 -14.821C8.26009 -14.9113 9.00431 -14.8184 8.66819 -15.3138C8.61153 -15.4016 7.84146 -15.3603 7.76891 -15.3525C7.23644 -15.288 6.74046 -15.1952 6.29587 -15.079C6.01642 -14.9991 4.86411 -14.3901 4.6984 -14.4185C5.36008 -15.2467 5.72215 -15.3706 4.51746 -15.5487C4.51746 -15.0687 4.17129 -15.1177 3.70611 -15.0403C3.78362 -15.4299 4.05246 -15.2751 4.33166 -15.4067C3.6493 -15.9124 2.39839 -15.1281 1.64883 -15.2442C1.85045 -15.8453 4.91551 -15.8944 5.61887 -15.9744V-16.1421C4.91551 -16.1446 4.60057 -16.2504 4.05764 -16.3434C3.24087 -16.4775 2.44484 -16.2866 1.64883 -16.3691C2.23293 -16.7691 3.42182 -16.5911 4.2591 -16.5911C4.16595 -17.2413 0.491013 -16.9729 0.015461 -16.8207C-0.491055 -16.6529 -0.03619 -16.4853 -0.672016 -16.4156C-1.0442 -16.3743 -1.35428 -16.5936 -1.73676 -16.6091C-2.08828 -16.6246 -2.78613 -16.5549 -3.17891 -16.4053C-3.06005 -16.1704 -2.78095 -16.2711 -2.78095 -15.9382C-2.93085 -16.0543 -3.59244 -16.3305 -3.38061 -15.9228C-3.43225 -16.0233 -2.21231 -15.3035 -2.55864 -15.3035C-3.33398 -15.3035 -3.91811 -15.9253 -4.73999 -15.9253C-4.73999 -15.7499 -4.23346 -15.448 -4.16106 -15.1848C-4.65209 -15.3242 -4.98294 -15.7705 -5.51013 -15.8196C-5.3758 -15.5538 -5.33444 -14.9088 -5.76857 -15.1667C-5.76857 -15.1693 -5.56185 -15.6983 -5.85126 -15.8557C-6.19759 -16.0518 -7.29858 -15.3732 -7.53117 -15.4893C-7.27791 -15.3912 -6.8489 -15.2545 -6.65247 -15.0403C-7.00399 -15.0429 -7.29859 -15.2829 -7.66567 -15.3267C-7.90337 -15.3603 -7.84134 -15.5487 -8.15662 -15.399C-8.46169 -15.2571 -8.21873 -15.0274 -8.30142 -14.981C-8.59084 -14.8132 -9.19041 -14.7461 -9.73836 -14.4546C-9.95546 -14.3385 -10.4827 -14.3488 -10.4517 -13.9747C-10.1364 -13.8921 -9.97614 -13.9747 -9.68145 -13.9747C-9.46962 -13.9747 -9.69184 -13.2858 -9.73318 -13.2471C-9.83144 -13.1619 -10.2914 -13.1851 -10.4361 -13.149C-10.8135 -13.051 -11.4907 -13.0922 -11.8732 -12.8651C-13.1189 -12.135 -10.8187 -12.0731 -10.1416 -12.0731C-10.2759 -11.5131 -11.6664 -11.9259 -11.6664 -11.606C-11.6664 -11.4486 -11.0617 -11.2783 -10.9324 -11.2499C-11.0358 -11.2499 -11.0462 -11.2499 -11.0771 -11.1751C-10.8911 -11.0254 -10.5344 -10.7158 -10.2605 -10.8165C-10.2811 -10.8551 -10.4 -10.9635 -10.3379 -11.0022C-9.92441 -11.2577 -8.14632 -11.0616 -7.65528 -10.7468C-6.94707 -10.2926 -6.40432 -9.36379 -6.33718 -8.50971H-6.16144C-6.86439 -7.25059 -5.17418 -8.28524 -4.69344 -7.14987C-5.14832 -7.13704 -5.57734 -7.45435 -5.99606 -7.27896C-5.89261 -6.96675 -6.27 -6.45843 -5.62907 -6.44297C-5.07083 -6.42998 -4.88987 -6.82737 -5.54117 -6.92802C-4.61584 -7.03902 -4.83822 -6.68027 -4.57978 -6.03003C-4.99323 -6.05075 -5.31898 -5.97848 -5.30861 -5.57335C-6.22866 -5.69208 -5.26198 -4.49225 -5.20515 -4.29877C-5.22591 -4.35032 -4.93121 -4.42515 -4.87438 -4.30913C-4.83303 -4.21103 -5.17418 -4.09748 -5.08111 -4.01229C-5.2259 -4.14657 -4.91572 -3.49632 -4.95187 -3.58916C-4.95707 -3.6098 -4.59525 -3.80081 -4.52805 -3.79563C-4.81236 -3.21758 -4.52806 -2.24222 -3.9026 -1.77271C-3.62349 -1.56114 -2.24855 -1.02955 -2.02626 -1.15338C-1.72128 -1.31857 -1.80397 -1.9481 -1.67994 -2.23194C-1.60243 -2.40223 -1.86599 -2.45387 -1.76263 -2.65508C-1.71098 -2.76353 -1.43707 -2.69125 -1.34919 -2.85636C-0.977001 -3.53752 -1.20439 -4.18776 -0.27396 -4.26777C-0.299824 -4.71162 -0.253277 -4.39423 -0.0155029 -4.54388C-0.0724144 -3.38787 1.90218 -5.82373 1.91246 -5.82627ZM-18.1482 -11.5002C-17.7554 -10.8965 -15.9876 -11.1158 -15.3363 -11.2242C-15.1606 -10.7828 -14.1165 -11.0564 -14.1578 -11.6292C-14.256 -11.5827 -14.3543 -11.5415 -14.4524 -11.5002C-14.4835 -11.5906 -14.5145 -11.6834 -14.5455 -11.7737C-14.1268 -11.8511 -14.1475 -11.9595 -14.2509 -12.3259C-13.7236 -12.1814 -13.2791 -12.2588 -13.6461 -12.7439C-13.703 -12.8188 -13.0931 -12.7619 -13.0931 -12.8368C-13.0931 -13.3451 -14.0286 -13.18 -14.2664 -12.9684C-14.2923 -13.0277 -14.318 -13.0897 -14.3388 -13.149C-13.7392 -13.5696 -13.0879 -12.9865 -12.5244 -13.4999C-12.633 -13.5799 -12.7416 -13.6573 -12.8501 -13.7348C-12.4727 -13.6341 -12.1109 -13.5516 -11.6923 -13.7192C-11.8732 -13.8586 -11.8473 -13.967 -12.08 -14.0676C-11.2116 -13.8586 -10.188 -14.8055 -9.38165 -15.0197C-9.6401 -15.2777 -10.3328 -15.0274 -10.7773 -15.079C-10.4155 -15.546 -8.40478 -15.0945 -8.27555 -15.7396C-8.19287 -16.1782 -10.0227 -16.2556 -10.4621 -16.1421C-10.6326 -16.3124 -11.3304 -16.5007 -11.7698 -16.5471C-11.9403 -15.9356 -13.9149 -16.8284 -13.7702 -16.1214C-14.3233 -16.3278 -15.5431 -16.4439 -15.9618 -15.848C-15.4966 -15.8737 -14.99 -15.7783 -14.7626 -15.4067C-15.2279 -15.5279 -15.848 -15.8221 -16.2513 -15.9021C-16.6751 -15.9847 -17.0214 -15.7602 -17.1403 -15.7448C-17.5849 -15.6828 -18.474 -15.448 -19.0115 -15.3345C-19.0167 -15.2803 -19.0218 -15.2235 -19.027 -15.1667C-18.5721 -15.0249 -18.5411 -14.7617 -18.0346 -14.6095C-17.3109 -14.3875 -17.2851 -14.7746 -16.6596 -14.8571C-17.9156 -14.1243 -15.967 -14.3772 -15.6258 -14.4623C-14.9228 -14.6352 -14.437 -15.0429 -13.6978 -15.0197C-13.9925 -14.9887 -14.2767 -14.8571 -14.5093 -14.6558C-14.2405 -14.7023 -14.0131 -14.6146 -13.7547 -14.6171C-14.1268 -14.3411 -15.3105 -14.2507 -15.8481 -14.2173V-14.0341C-15.4914 -13.8844 -15.2795 -13.6212 -14.8556 -13.6289C-15.4811 -13.4586 -16.4168 -14.0727 -17.1197 -14.1604C-17.0629 -13.5618 -15.9928 -13.0819 -15.3881 -13.1129C-15.5277 -12.9503 -15.5897 -12.829 -15.7033 -12.6948C-16.7527 -13.7218 -18.3241 -12.1272 -16.3805 -12.473C-16.4839 -12.4163 -16.5872 -12.362 -16.6958 -12.3078C-16.4683 -11.9363 -16.0497 -12.0576 -15.7396 -12.3801C-16.0962 -11.4305 -17.1507 -12.3311 -17.7968 -12.2485C-17.528 -11.8331 -17.7813 -11.6627 -18.1482 -11.5002ZM-17.9828 -12.6948C-17.8795 -12.8188 -17.6934 -12.7413 -17.7451 -13.0793C-16.5717 -12.9013 -16.8457 -13.6237 -17.5746 -14.0804C-17.5331 -14.0521 -19.9471 -15.2648 -19.8902 -14.9113C-19.7197 -14.8751 -19.5646 -14.9991 -19.5232 -14.7823C-19.518 -14.7513 -20.1694 -14.6688 -20.2417 -14.6739C-20.0918 -14.5733 -20.0453 -14.4236 -19.9832 -14.3617C-20.159 -14.3901 -20.3141 -14.3334 -20.4794 -14.3436C-20.5364 -14.2173 -20.6036 -13.9385 -20.6088 -13.7734C-20.1694 -13.3322 -19.5232 -13.7089 -19.0477 -13.3142C-19.332 -13.2961 -19.6214 -13.1542 -19.8902 -13.1129C-19.3475 -12.6278 -18.6238 -12.4446 -17.9828 -12.6948ZM-18.9391 -12.0679C-18.9908 -11.9828 -19.0477 -11.8976 -19.1045 -11.8098C-18.784 -11.7144 -18.5566 -11.735 -18.2775 -11.8666C-18.4481 -12.1892 -18.6187 -12.1298 -18.9391 -12.0679ZM-18.6444 -9.84893C-18.2826 -9.92367 -14.2199 -9.59082 -14.8195 -10.5249C-15.1761 -11.0873 -16.7785 -10.4835 -17.2695 -10.4965C-18.2982 -10.5197 -18.4377 -11.5827 -19.3578 -11.3144C-19.0167 -10.7287 -19.3733 -10.1018 -18.6444 -9.84893ZM-21.198 -9.7741H-20.9396C-21.0533 -10.05 -21.0533 -9.83084 -21.198 -9.7741ZM-20.6293 -10.2333C-20.4381 -10.0656 -19.4405 -9.60373 -19.5439 -10.2514C-19.6266 -10.7803 -20.4589 -10.5275 -20.6293 -10.2333ZM-19.7248 -11.0229C-19.3165 -11.4486 -19.9161 -11.7505 -20.3503 -11.6834C-21.2445 -11.5415 -20.1384 -11.0177 -19.7248 -11.0229ZM-20.4794 -11.9028C-20.1487 -11.9079 -19.8282 -11.9492 -19.5077 -12.0291V-12.2123C-19.9161 -12.2692 -20.3555 -12.3026 -20.4794 -11.9028ZM-20.4071 -12.362C-19.4871 -12.5865 -21.0222 -13.002 -21.3065 -12.9117C-21.1825 -12.4755 -20.8827 -12.2098 -20.4071 -12.362ZM-21.4357 -13.7348C-21.5701 -13.9901 -21.6632 -14.1295 -22.0043 -14.0676V-13.8482C-21.7562 -13.7424 -21.6632 -13.6935 -21.4357 -13.7348ZM-21.6735 -12.1608C-21.4048 -13.0793 -23.219 -13.5179 -23.9014 -13.2625C-23.6377 -13.1542 -23.5033 -12.9477 -23.3121 -12.7826H-23.6222C-23.3534 -12.4111 -22.1956 -12.3594 -21.6735 -12.1608ZM-22.3713 -12.1221C-22.6039 -12.2123 -22.6763 -12.3465 -22.9606 -12.2692C-22.8521 -11.9543 -22.6711 -12.0576 -22.3713 -12.1221ZM-22.5419 -10.5249C-22.1645 -10.7107 -21.9371 -10.5662 -21.8596 -10.1404C-21.3685 -10.1611 -21.0016 -10.3314 -21.0584 -10.8551C-21.1256 -11.4305 -21.7046 -11.188 -22.2266 -11.3893C-22.0457 -11.2628 -21.8493 -11.0719 -21.7459 -10.8758C-21.7666 -10.9093 -22.4799 -11.1854 -22.6142 -11.2034C-22.5781 -11.0487 -22.5729 -10.9042 -22.5212 -10.7468C-22.8624 -11.0074 -23.0123 -11.4331 -23.493 -11.4822C-23.5498 -10.9274 -23.0433 -10.6487 -22.5419 -10.5249ZM-23.6067 -10.3778C-23.5653 -10.3494 -23.2035 -9.93403 -23.2035 -10.3623C-23.2035 -10.6048 -23.555 -10.3778 -23.6067 -10.3778ZM-23.4775 -11.7557C-23.6119 -11.9724 -23.7721 -12.1298 -24.0099 -12.2304C-23.9892 -11.864 -23.8083 -11.6576 -23.4775 -11.7557ZM-13.8994 -5.16822C-13.6358 -5.09093 -12.907 -5.18376 -13.1654 -5.59917C-13.3929 -5.96811 -14.2147 -5.68954 -13.8994 -5.16822ZM-19.8385 -8.27233C-19.73 -8.46844 -19.5491 -8.39616 -19.5595 -8.69291C-19.0477 -8.50971 -18.8358 -8.96385 -18.567 -9.3328C-18.9443 -9.47217 -19.7403 -9.73529 -20.0763 -9.49535C-20.3761 -9.27861 -20.5054 -8.08395 -19.8385 -8.27233ZM-21.4564 -7.70209C-20.6087 -7.70209 -20.4381 -8.46589 -21.2549 -8.83739C-20.6345 -9.03612 -21.1205 -9.4128 -21.4719 -9.52635C-21.5339 -9.54436 -22.0301 -9.27606 -22.3196 -9.3328C-21.8027 -8.79356 -22.2008 -8.45035 -22.7745 -8.76511C-22.7486 -8.39616 -21.7976 -7.88011 -21.4564 -7.70209ZM-23.5137 -8.85802C-23.3586 -9.36116 -23.9996 -9.46181 -24.3045 -9.18577C-24.015 -8.91484 -23.8135 -8.73164 -23.5137 -8.85802ZM-24.7284 -9.27861C-24.6974 -9.24769 -24.4958 -9.0154 -24.7284 -9.27861V-9.27861ZM-26.5117 -12.6175H-25.2039C-25.4314 -13.1051 -26.155 -12.9632 -26.5117 -12.6175ZM-26.1395 -11.8098C-25.7725 -11.8124 -25.3073 -11.8537 -25.6278 -12.2123C-25.4727 -12.2821 -25.4158 -12.2175 -25.3125 -12.3955C-25.7415 -12.4368 -26.1654 -12.4187 -26.5272 -12.1788C-26.4548 -11.9311 -26.3257 -11.8976 -26.1395 -11.8098ZM-26.7856 -12.1401C-26.8993 -12.3774 -26.9304 -12.5349 -27.2819 -12.473C-27.1992 -12.1711 -27.0441 -12.1994 -26.7856 -12.1401ZM-27.1526 -11.2242C-27.6747 -11.0719 -28.1967 -10.5352 -27.8298 -10.2411C-27.5041 -9.97786 -26.3101 -10.2488 -25.9017 -10.2126C-26.0413 -10.0501 -26.8993 -10.2075 -26.8425 -9.91084C-26.765 -9.56755 -26.1239 -9.78175 -25.912 -9.82048C-25.4623 -9.90303 -23.7773 -10.1223 -23.9014 -10.7468C-23.8548 -10.5068 -25.0075 -11.3815 -24.9093 -11.3531C-25.4469 -11.5105 -25.6485 -11.1983 -25.3694 -10.7107C-25.2659 -10.6694 -25.1005 -10.7339 -25.0644 -10.6075C-25.0127 -10.4087 -26.8787 -11.1286 -27.1526 -11.2242ZM-27.0441 -11.5725C-26.9252 -11.5208 -26.889 -11.3273 -26.5995 -11.3893C-26.6047 -11.4486 -26.615 -11.5131 -26.6202 -11.5725C-26.7598 -11.5364 -26.8993 -11.5364 -27.0441 -11.5725ZM-28.5121 -10.7828C-28.5741 -10.7107 -28.6361 -10.6358 -28.6981 -10.5636C-28.295 -10.5687 -28.3725 -10.494 -28.1606 -10.8758C-28.2795 -10.8448 -28.3931 -10.8138 -28.5121 -10.7828ZM-27.9228 -11.2448C-27.6179 -11.3505 -27.4576 -11.5906 -27.4111 -11.9389C-28.5225 -12.2098 -28.8791 -11.1905 -29.8922 -11.0797C-29.4167 -10.3572 -28.7032 -11.0125 -28.2743 -11.4074C-28.1658 -11.0873 -28.0416 -11.3144 -27.9228 -11.2448ZM-27.6695 -6.45588C-26.8735 -6.52026 -26.8528 -6.10486 -26.2326 -5.93975C-25.6174 -5.77209 -25.1471 -6.2055 -24.5991 -6.30869C-24.2683 -6.36814 -22.087 -6.01202 -22.8521 -6.61836C-22.5471 -6.61318 -22.4489 -6.77574 -22.2628 -6.85838C-22.94 -7.32279 -23.219 -7.32016 -23.5602 -7.96522C-23.6894 -8.21551 -24.2632 -9.43089 -24.7284 -8.85284C-24.9403 -8.58199 -24.1598 -7.94976 -24.7439 -7.99367C-25.0385 -8.01949 -25.0178 -8.80647 -25.5709 -8.83739C-25.5037 -8.72391 -25.4521 -8.58972 -25.39 -8.47099C-25.6174 -8.37815 -25.7312 -8.34198 -25.9741 -8.28779C-25.9172 -8.39106 -25.8914 -8.54071 -25.85 -8.65164C-26.2585 -8.80647 -26.646 -8.72901 -26.8787 -8.58199C-26.6978 -9.26825 -27.3491 -8.94058 -27.685 -8.79356C-28.2898 -8.52518 -28.3105 -8.39106 -28.5844 -7.92139C-28.1812 -7.76409 -27.747 -8.02203 -27.3749 -7.73819C-27.6747 -7.70719 -27.959 -7.5989 -28.1812 -7.42343C-27.7729 -7.20413 -26.4496 -7.53698 -26.2326 -7.16795C-26.155 -7.03121 -27.685 -6.96157 -27.9228 -6.82219C-27.8401 -6.69836 -27.7522 -6.57708 -27.6695 -6.45588ZM-24.5991 -5.73846C-24.2683 -5.82627 -24.0616 -5.89592 -23.9892 -6.17713C-24.3304 -6.11522 -24.6715 -5.99138 -24.9662 -5.81082C-24.8421 -5.78755 -24.7181 -5.76173 -24.5991 -5.73846ZM-29.7267 -7.7201C-29.0755 -7.62209 -28.8119 -8.48908 -28.2484 -8.77802C-27.3336 -9.24769 -27.1112 -9.38698 -28.2846 -9.62691C-28.5844 -9.68883 -30.0989 -10.045 -30.4143 -9.78175C-30.5899 -9.63473 -30.6417 -8.55354 -31.0294 -8.12268C-30.6055 -8.09686 -30.2075 -7.8672 -30.0369 -7.46216C-29.9335 -7.54726 -29.8302 -7.635 -29.7267 -7.7201ZM-45.0373 -1.07601C-45.8126 -1.00899 -45.4198 -1.5766 -45.0373 -1.07601V-1.07601ZM-38.8603 -1.47851C-38.7725 -2.06165 -37.992 -1.34431 -37.5888 -1.22566C-37.0667 -1.07083 -36.5705 -1.18438 -36.0639 -1.01927C-35.1696 -0.730249 -34.5546 0.0851021 -33.6552 0.239933C-33.5725 0.42568 -33.5053 0.611509 -33.3657 0.75598C-33.3192 0.807535 -32.9316 0.983007 -32.885 1.06556C-32.5748 1.53006 -32.394 1.98419 -32.1252 2.34541C-31.6497 2.98529 -31.4687 3.0421 -30.7916 3.4446C-30.3057 3.73362 -29.7267 4.22385 -29.7991 4.90501C-30.3471 4.23413 -30.9208 3.31041 -31.8564 3.41878C-31.417 3.94511 -30.7657 4.13094 -30.4866 4.79146C-30.2024 5.4727 -30.5693 6.13322 -30.5693 6.70082C-30.5797 7.75874 -30.0421 9.23478 -29.3185 10.0242C-28.8998 10.4835 -28.2536 10.5041 -27.8711 11.0975C-27.561 11.5673 -27.2973 12.166 -27.0078 12.6511C-26.9097 12.8059 -27.1268 12.8831 -26.9045 13.2081C-26.7701 13.4041 -26.398 13.5796 -26.217 13.7656C-26.093 13.8892 -25.4882 14.6016 -25.4417 14.87C-24.8731 14.2919 -27.0906 12.2691 -27.1526 11.4383C-26.5324 11.3606 -25.8242 12.7748 -25.3694 13.2652C-24.7853 13.8892 -24.258 14.7358 -23.6584 15.4169C-24.5267 16.0051 -21.0791 17.2849 -20.5157 17.3674C-20.3451 17.3933 -20.1539 17.1819 -19.8385 17.2749C-19.4767 17.378 -19.3165 17.76 -19.027 17.9302C-18.7375 18.1109 -17.7916 18.2657 -17.7605 18.2245C-17.2592 18.5754 -17.006 19.2613 -16.7423 19.5144C-16.3598 19.8653 -15.4914 20.1337 -14.9487 20.371C-15.0986 19.442 -14.0803 20.2886 -14.039 19.9789C-13.9562 19.3702 -15.3157 19.7517 -15.6931 19.5039C-16.6027 18.8951 -15.631 18.2139 -16.0962 17.5381C-16.4942 16.9652 -17.5073 17.4191 -17.9983 17.2025C-17.5642 16.7279 -16.9181 15.2209 -17.8536 15.2774C-18.7014 15.3345 -18.2878 15.9227 -18.8099 16.3354C-19.2906 16.7174 -20.066 16.4696 -20.4433 16.1446C-21.2704 15.4169 -21.2393 13.4147 -20.7431 12.6818C-20.0608 11.6809 -18.9753 12.6511 -18.2207 12.4133C-18.4016 11.7839 -17.6882 11.8769 -17.2437 11.9076C-17.2851 11.9028 -16.2306 12.1042 -16.365 12.0111C-16.0342 12.2432 -15.4966 13.9722 -15.1503 13.9411C-14.7317 13.9051 -15.4707 11.6085 -14.9073 10.9633C-14.5455 10.5453 -13.7857 10.4423 -13.5686 9.9466C-13.3825 9.5238 -13.6512 9.31725 -13.7702 8.79084C-13.46 8.87331 -13.6203 8.62055 -13.2946 8.95579C-13.1757 8.69793 -12.9173 8.01167 -12.7312 7.83102C-12.4986 7.62455 -11.899 7.58327 -11.5113 7.4749C-12.0748 6.41188 -9.93479 5.64808 -9.13877 5.83391C-9.24733 5.81328 -9.90893 6.0713 -10.002 6.25705C-10.2811 6.82474 -9.50579 6.33961 -9.47993 6.33442C-8.81832 6.25705 -8.07394 5.75128 -7.8724 5.16304C-8.3996 5.41078 -8.54948 5.83392 -9.19561 5.49325C-10.0537 5.02884 -9.22667 4.61599 -9.4231 4.30633C-9.96585 3.47042 -11.3304 4.98757 -11.899 5.34879C-11.7491 5.0702 -11.5527 4.82764 -11.3097 4.62635C-11.4493 4.59535 -11.594 4.55407 -11.7336 4.51798C-11.0151 4.67799 -10.6016 3.78 -9.98651 3.60453C-9.57808 3.48588 -9.00956 3.63553 -8.59602 3.60453C-7.9499 3.54261 -8.01711 3.47042 -7.46924 3.23303C-6.96783 3.02656 -6.17183 2.94919 -6.40952 2.30923C-6.65248 1.65388 -7.50539 2.1183 -8.0171 2.16994C-7.77413 1.75708 -7.27791 1.84482 -6.90052 1.53006C-7.54665 1.42686 -8.13085 1.17912 -8.49777 0.611511C-8.0998 0.368944 -9.23176 -0.848986 -9.43338 -1.29786C-9.75903 -0.936638 -9.75903 -0.353573 -10.2811 -0.23484C-10.7877 -0.126467 -10.7204 -0.652794 -11.2891 -0.503143C-10.9324 -1.73135 -11.9249 -2.15457 -12.8812 -2.39705C-13.9666 -2.68089 -14.6902 -2.12875 -13.9201 -1.00381H-14.1785C-14.2612 -0.812805 -14.2044 -0.694153 -14.3233 -0.487682C-13.305 -0.0645485 -13.5376 1.47842 -14.7109 1.43722C-14.3749 1.79836 -14.0752 3.1453 -14.8195 3.21239C-15.5432 3.26395 -15.7137 1.86027 -15.6465 1.32877C-16.4839 1.18948 -16.9904 1.06556 -17.7141 0.694065C-18.0346 0.534054 -18.4119 0.415401 -18.6962 0.301847C-18.9494 0.193474 -19.0115 0.425678 -19.2286 0.291487C-19.394 0.193474 -19.4199 -0.172922 -19.5284 -0.307034C-19.9006 -0.766428 -20.0918 -0.503143 -20.0195 -1.25148C-19.9936 -1.56114 -19.6834 -2.05137 -19.4612 -2.2784C-19.2234 -2.51578 -18.6652 -2.58288 -18.722 -2.92864C-18.7635 -3.15575 -19.6731 -3.28468 -19.854 -3.35177C-19.3785 -3.3054 -18.4945 -2.86154 -18.3654 -3.46015C-17.8072 -3.12475 -17.5435 -3.5066 -17.3936 -3.97619C-17.9001 -3.94265 -18.2826 -4.19039 -18.7168 -4.39678C-18.3861 -4.38395 -16.4839 -3.92201 -17.2644 -4.74764C-16.4168 -4.81219 -16.9956 -3.46015 -17.373 -3.31567C-17.0629 -2.98537 -16.9439 -2.90282 -16.4736 -2.908C-16.4994 -2.908 -16.0394 -3.12475 -15.905 -3.15057C-15.7396 -3.1763 -15.5586 -2.98019 -15.4242 -3.00091C-14.3697 -3.18148 -16.4425 -3.9091 -16.6183 -4.28841C-16.1427 -4.3065 -16.4322 -4.29877 -16.2358 -4.54388C-15.5121 -4.59799 -15.1813 -5.20958 -15.6671 -5.81082C-14.6799 -5.97848 -15.8998 -6.62099 -16.2513 -6.78355C-15.6465 -6.87646 -15.0004 -6.58999 -14.3594 -6.82219C-14.4576 -6.91248 -14.5558 -7.00284 -14.6541 -7.09831C-13.9821 -6.9022 -13.5169 -6.49452 -12.9276 -6.0533C-12.6795 -5.8701 -12.2195 -5.58889 -12.204 -5.21731C-12.1833 -4.7168 -13.1292 -4.73736 -12.7053 -4.10521C-13.0568 -4.0252 -14.3077 -4.30132 -14.2509 -3.68208C-14.194 -3.07829 -13.2791 -3.73889 -13.0465 -3.71299C-12.3074 -3.62016 -12.2505 -3.10929 -11.7801 -2.72217C-11.3149 -2.35067 -10.5757 -2.40223 -10.0227 -2.10293C-10.002 -2.56742 -10.7153 -2.79963 -10.9789 -3.2073C-10.493 -2.96992 -10.0072 -2.72735 -9.54704 -2.45387C-9.4851 -2.56742 -9.38684 -2.939 -9.34558 -3.07829C-9.79519 -3.5066 -10.3173 -3.89364 -10.7567 -4.47161C-10.4206 -4.96184 -10.2914 -4.62126 -9.89864 -4.41487C-9.26801 -4.08202 -9.54193 -3.89364 -9.04052 -4.03038C-9.07676 -4.02265 -8.42027 -4.54906 -8.42546 -4.54388C-8.21354 -4.93865 -8.17739 -4.64444 -8.4617 -5.00311C-8.74593 -5.36696 -11.5527 -6.14359 -10.1519 -6.43516C-10.2914 -6.47389 -10.431 -6.50998 -10.5757 -6.54616C-10.4569 -6.6339 -10.4827 -6.64418 -10.3173 -6.71127C-10.5344 -6.79901 -10.6171 -6.96675 -10.8859 -7.02093C-10.8446 -7.09058 -10.8032 -7.15505 -10.7567 -7.22469C-11.2736 -7.33306 -11.5164 -7.44925 -11.9869 -7.57308C-11.9042 -7.62727 -11.8163 -7.68409 -11.7336 -7.73819C-12.664 -7.76146 -12.7209 -8.28779 -13.367 -8.49162C-13.8631 -8.64646 -14.8195 -8.09176 -15.0314 -8.20523C-15.357 -8.37552 -14.9487 -8.55099 -15.1606 -8.85547C-15.5225 -9.37925 -15.4708 -9.31216 -16.06 -9.20386C-16.949 -9.03867 -16.9026 -8.32652 -16.4528 -7.73819C-17.3832 -7.61691 -17.254 -9.00513 -16.5872 -9.3328C-17.2954 -9.36116 -17.9571 -9.28379 -18.2413 -8.53035C-18.6239 -7.5008 -17.8588 -7.96785 -17.4866 -7.42343C-17.7554 -7.49053 -17.9156 -7.37952 -18.1638 -7.38988C-17.9364 -7.06476 -16.913 -6.95639 -16.4736 -6.82219C-16.7423 -6.7139 -16.8819 -4.91028 -17.5952 -5.27923C-17.9156 -5.44434 -17.5849 -5.94756 -17.5952 -5.95784C-17.8795 -6.27523 -18.1379 -6.1514 -18.2362 -6.2055C-18.355 -6.2726 -18.8978 -6.44807 -19.1097 -6.76546C-19.4044 -7.19895 -19.4819 -8.39616 -20.3813 -7.76919C-21.229 -7.18087 -19.4715 -6.1204 -20.464 -6.32679C-20.3141 -5.91401 -20.0039 -5.93457 -19.6524 -6.25196C-19.6628 -5.62235 -20.4898 -5.83656 -20.2417 -5.11412C-20.6552 -5.39533 -20.557 -5.27923 -20.5363 -5.70236C-20.924 -5.80819 -20.6087 -5.72045 -20.8103 -6.01457H-20.5725C-20.5518 -6.42488 -20.8258 -6.67509 -21.2341 -6.74737C-21.3375 -6.64418 -21.5805 -6.38105 -21.6735 -6.2726C-21.4823 -6.19777 -21.3324 -5.99911 -21.1411 -5.92174C-21.5805 -5.12958 -22.4333 -5.48824 -23.1622 -5.65598C-23.6377 -5.76436 -23.6946 -5.95003 -24.1546 -5.75918C-24.8318 -5.47271 -24.5164 -5.42888 -24.6146 -4.74764C-24.9144 -5.81592 -26.3308 -5.45725 -27.1888 -5.53725C-27.1164 -5.57853 -27.0338 -5.76173 -26.7856 -5.84691C-27.2095 -6.19004 -28.6361 -6.59509 -29.1375 -6.69318C-29.7629 -6.81192 -30.3729 -6.1694 -30.6055 -6.92802C-30.7864 -6.31651 -30.9156 -6.70354 -31.2051 -6.719C-31.2981 -6.72418 -31.4016 -7.13441 -31.6186 -7.16023C-31.9081 -7.19386 -31.7271 -6.97703 -31.8874 -6.94611C-32.2079 -6.87383 -33.0918 -6.39651 -33.4742 -6.17713C-33.1383 -6.61836 -32.5904 -6.55644 -32.2648 -6.94866C-32.885 -6.94611 -33.619 -6.60808 -34.2393 -6.47907C-35.2835 -6.26232 -35.7021 -6.69318 -36.7668 -6.81192C-37.5681 -6.89965 -38.3021 -7.06476 -39.1343 -7.13186C-40.013 -7.20413 -40.4679 -7.51634 -41.3776 -7.40789C-41.3466 -7.47498 -41.3156 -7.54208 -41.2846 -7.60918C-41.8428 -7.71237 -42.5975 -7.35633 -43.0937 -7.20668C-43.776 -7.00285 -43.8225 -6.58999 -44.2981 -6.29842C-44.9753 -5.88819 -45.456 -6.32423 -44.9132 -5.60953C-44.5721 -5.15794 -43.8329 -5.09603 -43.5848 -4.51025C-43.9724 -4.38132 -44.3911 -4.40196 -44.4118 -4.83801C-44.8511 -4.52579 -45.3473 -4.6368 -45.7144 -4.19812C-45.2389 -4.00456 -45.244 -3.61498 -44.8357 -3.51179C-44.3653 -3.39305 -43.745 -3.71299 -43.3056 -3.75435C-43.2436 -2.41259 -44.8046 -3.36213 -45.0321 -2.1752C-45.089 -1.85526 -44.3498 -0.513586 -43.8743 -1.29786C-43.6158 -1.05019 -43.5434 -0.761251 -43.6571 -0.420671C-43.1919 -0.513586 -42.6699 -0.353575 -42.4425 -0.637337C-42.2977 -0.637337 -42.1065 -0.596056 -41.91 -0.601236C-42.2564 0.93655 -44.0087 0.683704 -44.8305 1.62297C-43.6417 1.91191 -41.6671 0.100641 -40.6436 -0.472225C-40.7366 -0.606419 -40.8245 -0.74053 -40.9176 -0.874722C-40.2921 -1.08119 -40.0596 -2.11847 -39.3358 -1.64888C-39.8476 -1.58688 -40.1319 -1.28758 -39.982 -0.802444C-39.6099 -1.02437 -39.1911 -1.21538 -38.7518 -1.2463C-38.788 -1.31857 -38.8241 -1.40113 -38.8603 -1.47851ZM-40.3645 0.0231857V-0.307034C-40.7366 -0.0387306 -41.2794 0.0334644 -40.9744 0.518597C-40.7315 0.415403 -40.5092 0.245113 -40.3645 0.0231857Z" fill="#1CB45F"/>
</g>
</svg>
