<svg width="41" height="41" viewBox="0 0 41 41" fill="none" xmlns="http://www.w3.org/2000/svg">
<path d="M34.2815 34.1092C42.0844 26.3063 42.0844 13.6552 34.2815 5.85223C26.4785 -1.95072 13.8274 -1.95072 6.02448 5.85223C-1.77847 13.6552 -1.77846 26.3063 6.02448 34.1092C13.8274 41.9121 26.4785 41.9122 34.2815 34.1092Z" fill="#73D4FF"/>
<mask id="mask0_8893_5443" style="mask-type:luminance" maskUnits="userSpaceOnUse" x="0" y="0" width="41" height="40">
<path d="M34.2815 34.1092C42.0844 26.3063 42.0844 13.6552 34.2815 5.85223C26.4785 -1.95072 13.8274 -1.95072 6.02448 5.85223C-1.77847 13.6552 -1.77846 26.3063 6.02448 34.1092C13.8274 41.9121 26.4785 41.9122 34.2815 34.1092Z" fill="white"/>
</mask>
<g mask="url(#mask0_8893_5443)">
<path d="M-18.3371 14.6696C-17.0641 13.8235 -18.0914 16.0889 -18.3371 14.6696ZM-19.37 14.7531C-19.0238 14.7531 -18.834 14.5472 -18.8899 14.28C-19.007 14.3357 -19.9506 14.7531 -19.37 14.7531ZM-17.3042 7.82901C-17.0362 7.70379 -16.8743 7.54238 -16.5504 7.50894C-17.0306 7.0609 -17.6838 7.14444 -18.298 7.15278C-18.2924 7.74556 -17.8905 7.98492 -17.3042 7.82901ZM42.6872 38.2583C42.4643 38.5421 42.6203 40.1117 43.2121 39.572C43.5471 39.2768 42.7993 38.3751 42.6872 38.2583ZM67.1472 58.368C67.2923 58.8354 67.6669 59.3923 68.1077 59.5147C68.1414 59.4201 68.1414 59.3255 68.1077 59.2418H68.4369C68.4541 58.8467 68.5656 58.7629 68.5656 58.3902C68.2643 58.474 67.114 58.1565 67.1472 58.368C67.1643 58.4347 67.142 58.3458 67.1472 58.368ZM68.3758 57.8003C68.3758 58.0009 68.5541 58.14 68.7165 58.1673C68.7108 57.867 68.5879 57.8003 68.3758 57.8003C68.4038 57.8003 68.3758 57.8225 68.3758 57.8003ZM66.9299 57.7C66.712 57.806 66.8515 57.9782 67.0076 58.034C67.019 58.0009 67.0579 57.6498 66.9299 57.7C66.9522 57.6891 66.8962 57.7114 66.9299 57.7ZM76.4376 60.9453C77.0796 60.9453 77.2305 59.7484 78.007 59.5922C77.6662 58.8798 78.956 58.9915 78.0293 58.4289C77.2923 57.9895 77.5879 58.7408 77.1522 59.2195C76.7675 59.6481 76.0414 59.7541 75.7624 60.2494C75.5502 60.6335 75.6172 61.0508 76.4376 60.9453C76.4548 60.9453 76.4101 60.9453 76.4376 60.9453ZM75.9408 61.1396C75.8739 61.1898 75.8515 61.2235 75.8013 61.2901H76.1198C76.1363 61.1842 76.1083 61.0172 75.9408 61.1396C75.9688 61.1175 75.9128 61.1619 75.9408 61.1396ZM78.4643 56.7202C78.4643 56.9152 78.4815 57.4219 78.4815 57.4663C78.4815 57.4219 78.1687 57.4441 78.163 57.6778C78.163 57.9782 78.3917 57.6555 78.4421 57.8448C78.4311 57.8225 78.7662 58.5572 78.956 58.5014C79.0286 58.4791 79.2184 58.1229 79.3356 58.0118C79.9274 57.4549 80.335 56.7875 79.1401 56.999C79.1344 56.6758 79.0007 56.1748 78.7771 56.665C78.5319 56.5088 78.4981 56.0027 78.2134 55.7189C77.6828 55.1843 78.4643 56.5202 78.4643 56.7202ZM74.5338 49.7018C74.8356 50.1641 75.098 50.5425 75.7401 50.6092C75.6898 50.3305 74.791 49.6904 74.5338 49.7018ZM61.7318 46.1783C61.2293 46.2678 61.9885 46.3733 62.1669 46.3568V46.2006C62.0497 46.1898 61.5809 46.1898 61.7318 46.1783ZM66.2153 46.379C65.623 47.1079 66.4216 48.8948 65.1038 48.5385C65.1095 48.5385 63.898 47.7651 63.8758 47.7036C63.6465 47.2083 64.1159 46.9466 64.2662 46.5568C63.5962 46.4679 62.9433 46.1282 62.3013 46.1282C62.4294 46.2399 62.4127 46.3232 62.642 46.4571C62.5242 46.3847 61.849 46.8355 61.6701 46.9466C61.1344 47.2864 61.9662 47.3531 61.0726 47.5257C60.777 47.581 60.6427 47.1695 60.163 47.3473C59.7662 47.4921 59.716 48.0211 59.2637 48.0211C59.3312 48.1658 59.3477 48.3995 59.426 48.5385H59.0796V48.2712C58.5548 48.2433 58.3764 49.3564 57.7789 49.6408C57.3267 49.8574 56.6286 49.9247 56.1318 50.119C55.9139 50.1972 55.7688 50.9096 55.5121 50.314C55.2942 50.9763 55.244 51.366 55.6127 52.017C54.8197 51.6608 55.6796 52.8799 55.8414 53.3142C56.1764 54.1936 56.5 54.767 55.8305 55.3404C56.2878 55.3404 56.5561 55.8465 57.1421 55.7519C57.4771 55.7074 57.6446 55.3067 58.019 55.2287C58.3146 55.1512 58.6274 55.4401 58.8789 55.3734C59.1464 55.2954 59.1522 55.084 59.3758 54.995C59.5879 54.9117 59.8223 54.6724 60.0624 54.5721C60.2299 54.4997 60.3752 54.7448 60.5758 54.6724C61.2853 54.4051 62.0891 53.993 62.921 54.4273C63.4178 54.6946 63.898 56.5868 64.4286 54.8839C64.8083 55.0116 64.4115 55.2731 64.4675 55.5963C64.9363 55.3176 64.7579 55.7074 64.7242 56.1304C65.4949 55.9855 65.1484 56.6593 65.7178 57.1215C65.7853 57.1768 66.4886 57.394 66.628 57.3997C67.0191 57.4105 66.8962 57.0155 67.142 57.0041C67.3872 56.999 67.393 57.4663 67.5548 57.4327C68.3478 57.2657 69.1796 56.9654 69.47 56.2307C69.6599 55.7519 69.7044 55.2566 70.0057 54.7448C70.6089 53.7206 70.7204 52.6462 70.1624 51.544C70.0394 51.288 69.8777 51.21 69.6879 51.0099C69.5592 50.8708 69.5592 50.62 69.47 50.5146C69.4421 50.4866 69.0344 50.3698 68.9337 50.2752C68.8057 50.1526 68.8166 49.8574 68.6771 49.7183C68.4873 49.5405 68.0184 49.4066 67.8733 49.2288C67.5159 48.7887 67.4153 47.9264 67.1472 47.5035C67.0637 47.3696 66.8178 47.2693 66.6898 47.0692C66.5388 46.8241 66.6171 46.2229 66.2541 46.1339C66.2318 46.2177 66.2204 46.2952 66.2153 46.379ZM72.8867 45.605C72.9987 45.7776 73.1216 45.7224 73.2669 45.6665C73.1942 45.4716 72.7695 45.3548 72.8867 45.605C72.9038 45.6329 72.8758 45.5885 72.8867 45.605ZM70.9439 44.2747C70.9439 44.4417 71.3293 44.6537 71.4351 44.6309C71.3401 44.3864 71.0554 44.236 71.0554 44.0022C71.0051 43.9966 70.9496 44.0022 70.8993 44.0188C70.9331 44.1356 70.9439 44.1636 70.9439 44.2747ZM68.6548 44.041C68.6993 44.5477 70.1567 44.2975 70.0229 43.507C69.9503 43.5178 68.6548 44.2303 68.6548 44.041C68.6605 44.1026 68.6548 44.008 68.6548 44.041ZM62.0051 45.0322C62.0051 45.1098 62.5746 45.1991 62.3013 44.6537C62.0669 44.6868 61.9662 44.8151 62.0051 45.0322ZM59.9618 44.7928C60.0006 44.9985 60.2185 44.9541 60.3974 44.876C60.2465 44.7427 60.1682 44.8372 59.9618 44.7928ZM63.3172 44.0022C63.1891 44.0855 63.0771 44.2747 63.0771 44.4417C63.0771 44.7649 63.8254 43.6626 63.3172 44.0022ZM62.7591 43.3679C63.1217 43.206 63.5796 43.5235 63.9312 43.6848C64.2273 43.8239 64.5178 43.7406 64.7242 44.1026C65.0032 44.5865 64.6853 44.4588 64.7465 44.7369C64.7636 44.8094 64.356 44.7979 64.5287 45.1211C64.607 45.2715 65.0649 44.9318 65.221 44.9706C65.7178 45.1098 65.9133 45.5554 66.5331 45.3661C66.9127 45.2545 66.8962 44.709 67.5217 44.9318C67.7668 45.0208 67.8229 45.3212 68.0408 45.4437C68.4592 45.6888 68.2528 45.6107 68.8223 45.7447C69.6822 45.939 69.3974 46.0005 68.9732 45.4107C68.9114 45.3212 68.493 45.3713 68.4204 45.3103C68.4592 45.3434 68.1859 44.6201 68.2414 44.8036C68.2248 44.7427 67.7057 44.3642 68.3758 44.4252C68.2471 44.1858 67.6331 43.7406 67.326 43.5679C66.7452 43.2339 66.2929 43.1228 65.6452 42.9279C64.7299 42.6333 64.7803 42.8111 64.0542 42.9279C63.6019 43.006 63.1108 42.7888 62.4796 42.9502C62.5471 43.1952 62.642 43.4289 62.7591 43.3679C62.7815 43.3622 62.7421 43.3788 62.7591 43.3679ZM59.6044 42.5164C59.2585 42.5939 59.9172 42.6777 60.0401 42.6554C60.0401 42.4269 59.7942 42.4828 59.6044 42.5164ZM63.714 42.2155C63.7363 42.3939 63.7637 42.4326 63.7528 42.6383H64.1491C64.0879 42.4492 63.9816 42.5386 63.9816 42.2155H63.714C63.814 42.2047 63.7191 42.2434 63.714 42.2155ZM62.0445 42.2377C61.9496 42.2269 61.8656 42.2491 61.7873 42.3215C62.2007 42.5609 62.6471 42.9057 63.1942 42.6554C62.7369 41.8148 62.4631 42.399 62.0445 42.2377ZM61.9496 42.1044C62.4911 41.5588 61.0171 41.9259 61.9496 42.1044C62.0108 42.0377 61.9159 42.0986 61.9496 42.1044ZM61.5477 42.5939C61.6923 42.6606 61.7541 43.0282 61.8153 42.5609C61.6146 42.5939 61.5923 42.611 61.5477 42.5939ZM60.8382 43.0505C60.8382 43.1952 61.6701 43.3286 61.9102 43.3286C61.8598 42.8835 60.9108 43.006 60.8382 43.0505ZM60.5203 43.1063C60.414 43.0841 60.3082 43.0561 60.1962 43.0339C60.386 43.4956 60.6038 43.1564 60.5203 43.1063C60.5477 43.1228 60.47 43.0841 60.5203 43.1063ZM61.0114 40.9575C60.7267 41.3474 60.5255 41.4028 60.5478 41.9595C60.5873 42.7444 60.7828 41.7925 61.2516 41.865C61.2796 41.6034 61.1452 41.3753 60.9108 41.3918C60.9668 41.2358 61.0114 41.1137 61.0114 40.9575C61.0114 40.9969 60.9725 41.0134 61.0114 40.9575ZM57.2821 43.0726C57.2821 43.0726 57.6891 43.5851 57.6394 43.5292C57.6223 43.507 57.7006 43.9857 57.7172 44.041C58.0019 43.8518 57.935 43.2841 57.935 42.9723H58.1751C58.2032 43.1007 58.6331 44.0581 58.8006 43.9801C59.1019 43.8467 58.5439 42.7945 58.3707 42.5717C60.2077 42.5717 57.2821 41.503 57.2821 43.0726ZM59.5822 41.3918C59.2752 41.503 57.5165 41.2694 57.6 42.004C58.1752 41.7367 58.3318 41.7925 58.9458 41.67C59.1357 41.6256 59.1968 41.8427 59.426 41.7481C59.5484 41.6922 60.012 41.2135 59.5822 41.3918C59.6604 41.3582 59.5598 41.4027 59.5822 41.3918ZM59.1688 45.6443C59.1688 45.9892 60.5089 45.3325 60.6542 45.1878C60.1293 44.9262 59.2585 45.4882 59.1688 45.6443ZM59.007 45.9783C58.8452 46.0005 58.8063 46.0615 58.8898 46.1783H59.1242C59.1464 46.0787 59.1414 45.9338 59.007 45.9783C59.035 45.9669 58.951 46.0005 59.007 45.9783ZM57.7567 45.1713C58.1025 45.5161 59.1859 45.2322 59.5822 45.0652C59.2637 45.01 57.907 45.01 57.7567 45.1713ZM57.6171 45.4272C57.1197 45.5777 58.0299 45.8222 58.1917 45.8113C58.1248 45.7332 57.7898 45.3935 57.6171 45.4272C57.6394 45.4215 57.5554 45.4437 57.6171 45.4272ZM56.6229 45.0875C56.3382 45.1098 57.3376 45.1713 57.5388 45.1713C57.4771 45.1878 57.4662 45.1542 57.4993 45.0652C57.1701 45.0652 56.9356 45.0322 56.6229 45.0875C56.6846 45.0817 56.5726 45.0932 56.6229 45.0875ZM52.3184 44.4195C52.7707 44.7758 53.4127 44.8817 54.1885 44.9598C54.8032 45.0265 55.5681 45.3433 56.2267 45.2487C56.0426 44.8817 55.6573 44.7814 55.2382 44.8652C55.2662 44.5865 55.4675 44.7204 55.6739 44.5979C54.5407 44.4087 53.4962 44.3864 52.3184 44.4195ZM51.1069 43.8467C51.079 44.1191 51.023 44.0302 51.1069 43.8467ZM53.9261 41.1525C53.4012 41.5195 53.7312 42.1824 54.0267 42.5717C54.4567 43.1564 54.6357 43.0949 55.4561 43.2289C56.2828 43.373 56.0203 43.5851 56.4892 42.8949C56.5114 42.8612 56.5949 42.3158 56.6846 42.1601C56.807 41.9595 57.2598 41.8707 57.3993 41.5698C56.8744 41.2306 57.0196 41.1411 56.9025 40.3899C57.3044 40.4121 57.1815 40.1448 57.5777 40.0058C57.6114 40.1004 56.6229 39.3212 56.7069 39.3104C56.3942 39.3326 56.165 39.8667 55.9197 40.0838C55.3725 40.5683 54.4178 41.5195 53.9261 41.1525ZM49.7388 42.3215C49.7611 42.5831 50.1968 43.2289 50.4535 43.2841C50.398 42.9279 49.7388 42.3494 49.7388 42.3215C49.7446 42.3825 49.7388 42.2822 49.7388 42.3215ZM49.1025 41.4477C49.2032 41.637 49.3929 41.6922 49.4822 41.8872C49.4822 41.6478 49.4153 41.4751 49.1637 41.3697C49.0911 41.5588 49.1585 41.4643 49.1025 41.4477ZM48.8063 40.9296C48.8063 40.8687 48.684 40.7017 48.684 40.8795C48.684 41.0414 48.7841 41.1137 48.9236 41.136C48.9738 41.0357 48.9349 40.969 48.8063 40.9296ZM48.9459 40.0229C48.7229 40.0229 48.5999 39.8 48.3878 39.8279C48.4827 40.2896 49.214 40.7461 49.4598 41.0579C49.8452 41.531 50.163 42.232 50.5707 42.7609C50.8503 43.1115 51.5089 44.0747 51.8828 44.0804C52.7095 44.1026 52.2401 43.3064 52.8936 43.1063C52.8209 42.5939 52.3464 42.4047 51.9388 42.6942C51.8942 42.11 49.728 40.1117 48.9459 40.0229C49.0357 40.0337 48.9127 40.0229 48.9459 40.0229ZM59.2083 38.6532C58.7783 38.6977 58.4038 38.9872 58.6331 39.466C58.979 38.631 59.4872 39.5886 60.0401 39.8279C59.8446 39.4101 60.1962 39.3212 60.2019 39.3104C60.2133 39.2323 60.3752 38.2189 60.023 38.2189C59.6656 38.2189 59.6044 38.9206 59.2083 38.6532C59.2363 38.6755 59.1464 38.6646 59.2083 38.6532ZM58.0357 36.8169C58.0242 36.9611 58.4822 38.0856 58.8114 38.0246C58.6439 38.3917 59.2363 38.6424 59.091 37.9243C59.0236 37.6182 58.3707 36.8721 58.0357 36.8169C58.0579 36.8277 58.0299 36.8721 58.0357 36.8169ZM58.6108 36.761C59.1077 37.1058 59.4369 37.7681 59.9732 37.8741C59.9732 37.2677 59.4089 37.1281 59.4089 36.5883C59.0853 36.5883 58.9235 36.761 58.6108 36.761C58.672 36.8054 58.672 36.761 58.6108 36.761ZM57.8567 37.1173C57.5611 37.6849 56.8019 38.2526 56.6452 38.7199C57.3044 38.7199 57.8567 37.7681 57.8567 37.1173C57.8567 37.1839 57.8458 37.1451 57.8567 37.1173ZM58.1643 34.7963C57.5777 35.1133 57.7229 36.3044 58.393 36.516C58.3649 36.1374 59.2134 34.7963 58.1643 34.7963ZM58.5491 32.2971C58.5491 32.1079 57.7618 32.7479 57.879 33.4769H58.114C58.114 32.9873 58.5491 32.7479 58.5491 32.2971ZM68.6771 23.4415C68.2809 23.5139 68.0242 23.8367 67.5044 23.8757C66.9351 23.9203 66.6726 23.809 66.0752 23.475C66.0528 23.6531 65.8185 25.0056 65.5783 24.5102C65.4725 24.6939 65.1153 25.551 65.6956 25.2783V25.4788C65.3439 25.5399 65.1764 26.6642 64.786 27.1043C64.786 26.9817 64.7968 26.9145 64.786 26.7868C64.5567 27.0097 64.4898 27.0872 64.3892 27.3766C64.2999 27.2542 64.1548 27.4656 64.2108 27.1208C63.9535 27.3043 63.8586 27.5551 63.8197 27.9335C63.0267 27.5882 61.5477 28.2447 61.4076 29.1134C61.5585 29.1241 61.7707 29.1134 61.8656 29.1134C61.8656 29.4975 61.4414 29.6696 62.0273 29.8366C62.0273 29.4308 62.6808 28.846 62.0273 28.7907C62.1669 28.3786 63.1554 28.3786 63.5739 28.3063C63.1217 28.5901 62.3962 28.3171 62.5637 29.0797C62.9318 28.9241 63.284 28.7571 63.535 28.5234C63.7191 28.9464 64.2274 28.6181 64.1491 28.2504C65.7178 28.0727 65.4223 27.9945 65.7962 26.6865C66.0026 25.963 66.2484 25.3952 65.5618 24.8275C66.0254 24.7384 66.8013 25.1725 66.7732 24.6661C67.114 24.7384 68.6771 23.8757 68.6771 23.4415C68.6771 23.4638 68.6491 23.4415 68.6771 23.4415ZM69.414 23.0631C69.2465 23.0909 69.163 23.2078 69.0121 23.2857C69.2579 23.4305 69.3248 23.2746 69.414 23.0631C69.386 23.0686 69.3809 23.141 69.414 23.0631ZM71.3573 20.9479C71.3127 21.1094 71.212 21.2597 71.1171 21.4044C71.4408 21.2708 71.3516 21.0148 71.3573 20.9479ZM76.1026 18.8663C76.0637 18.8663 75.9911 18.666 75.8853 18.7494C75.863 18.8219 75.8573 18.8997 75.863 18.9777C75.9299 18.9944 76.1809 19.0221 76.1026 18.8663ZM75.5669 18.9276C75.4886 18.705 75.5108 18.5657 75.3044 18.4099C75.3044 18.6214 75.3491 18.8051 75.3656 19.011C75.5058 19.0501 75.6057 19.0556 75.5669 18.9276C75.5783 18.9553 75.5555 18.8997 75.5669 18.9276ZM74.5286 16.7791C74.679 16.7791 74.7796 16.601 74.791 16.4952C74.4445 16.3617 74.4114 16.5732 74.277 16.7791C74.3611 16.7958 74.4445 16.7958 74.5286 16.7791ZM83.7019 14.0239C84.0363 14.0796 84.5 14.2244 84.835 14.1798C84.5503 13.6232 83.9363 14.0518 83.7019 14.0239C83.763 14.0295 83.6681 14.0128 83.7019 14.0239ZM80.1898 9.17048C80.6197 9.26786 81.1503 9.07585 81.5968 9.07585C81.4796 8.89493 81.1165 8.64164 80.8153 8.65832C80.7089 8.66115 79.8548 9.08694 80.1898 9.17048C80.2121 9.17598 80.1509 9.16206 80.1898 9.17048ZM67.784 6.14539C68.1746 6.29837 69.4643 6.76593 69.4643 6.04233C68.9114 6.01457 68.0688 6.09244 67.8395 5.70843C67.8007 5.74736 67.6611 6.09244 67.784 6.14539C67.8064 6.15089 67.7503 6.12588 67.784 6.14539ZM65.3999 7.41156C65.8802 7.48668 66.3101 7.38655 66.7675 7.54796C66.6114 6.87448 65.8631 7.04697 65.3999 7.41156ZM65.7962 6.91341C66.0586 6.91341 65.5733 6.69081 65.4223 6.6964C65.4223 6.93567 65.584 6.91341 65.7962 6.91341ZM64.3108 6.02282C64.7408 6.64904 67.1643 6.47929 67.326 5.68892C66.9408 5.61655 66.4548 5.38552 66.4548 6.01458C66.3713 6.00056 66.2929 6.00056 66.2153 6.01458C66.6338 5.14066 65.7178 5.63881 65.4108 5.63048C64.7968 5.61105 64.6408 5.31315 64.3108 6.02282ZM63.8923 5.86425C63.8586 5.79189 63.8586 5.70843 63.8923 5.62773C63.4515 5.56644 63.6745 6.02841 63.8923 5.86425C63.8866 5.83916 63.8534 5.89485 63.8923 5.86425ZM63.6746 6.71582C63.8089 7.03864 63.7917 7.23339 64.1885 7.18062C64.0822 7.03589 63.8197 6.8132 63.6746 6.71582ZM53.1114 3.80762C52.9993 3.59894 52.6644 3.54599 52.4414 3.65179C52.4969 3.71582 53.2063 4.04698 53.1114 3.80762C53.1223 3.83546 53.0942 3.77418 53.1114 3.80762ZM48.4885 4.73714C48.6223 4.69262 48.7732 4.73714 48.907 4.73714C48.8567 4.23899 48.6446 4.63133 48.4885 4.73714ZM50.2133 4.02472C50.2917 4.02472 52.1732 3.62395 52.2178 3.57109C52.6815 2.96439 51.2911 3.02558 51.1853 2.97831C51.2802 2.88084 51.3191 2.87809 51.347 2.75845C50.5261 2.61647 50.1242 4.02472 50.2133 4.02472ZM48.9459 2.06821C47.5618 2.26864 47.7567 3.04509 49.0299 3.16198C49.9955 3.25377 50.063 3.27612 50.0127 2.70001C49.951 1.91797 50.0069 2.30483 49.2809 2.30483C49.3592 2.17401 49.3535 2.20461 49.3815 2.07105C49.2312 2.06821 49.0911 2.06555 48.9459 2.06821ZM47.7516 2.14625C48.3038 2.43838 49.0802 1.67311 49.3987 1.47268C48.6783 1.1276 47.6898 1.08867 47.1146 1.84835C47.1483 1.91239 47.6172 2.08213 47.7516 2.14625C47.779 2.16292 47.7344 2.13224 47.7516 2.14625ZM47.5948 2.32434C47.3325 2.32434 47.1426 2.17401 46.8694 2.22412C46.9025 3.02842 47.958 2.32434 47.5948 2.32434ZM46.7796 1.03581C46.1827 1.03581 46.6458 1.28351 46.6012 1.35304C46.4841 1.5478 47.3719 1.03581 46.7796 1.03581ZM31.2923 10.317C30.9458 10.2586 30.3706 9.8523 30.6222 10.6733C30.8452 10.6733 31.2529 10.5591 31.2923 10.317C31.2866 10.342 31.2699 10.3143 31.2923 10.317ZM32.8216 7.45059C32.47 7.41715 31.7445 8.33275 31.7445 8.81423C31.9509 8.77246 32.0904 8.64165 32.2076 8.8921C32.2802 8.85875 32.3082 8.8058 32.286 8.73636C32.7382 8.96446 32.4254 9.2205 32.6713 9.32905C32.9891 9.4682 33.6038 9.41809 33.9553 9.41809C33.9108 8.93661 33.3745 8.78363 33.3413 8.33834C33.2961 7.78733 33.7598 7.46726 34.0948 7.13052C34.8878 6.34289 35.6299 5.90877 36.7917 5.62773C37.1319 5.54427 38.5726 5.24637 38.4216 4.87629C38.1987 4.33361 37.3668 4.94307 37.0706 5.03211C36.3502 5.26314 33.9553 5.32433 33.9553 6.201C33.8044 6.18148 33.6706 6.17599 33.5197 6.201C33.8884 6.83271 32.5872 6.81045 32.7044 7.23339C32.8388 7.20564 32.8777 7.15553 33.0228 7.1722C32.9503 7.35871 33.1458 7.4756 32.8216 7.45059C32.8834 7.45617 32.7662 7.445 32.8216 7.45059ZM38.7961 7.62867C39.1083 7.62867 39.2815 7.43383 39.3655 7.3893C39.533 7.30026 38.2987 7.62867 38.7961 7.62867ZM35.9598 1.35304C36.4063 2.02369 36.7076 1.38639 37.2101 1.2946C36.747 1.03297 36.3949 1.49778 35.9598 1.35304ZM34.9879 1.35304C34.9879 1.58398 34.8261 1.5172 34.7089 1.70929C35.0553 1.8206 35.4235 1.82893 35.8203 1.75931C35.4904 1.34471 35.5242 1.04131 34.9879 1.35304ZM34.8484 2.06821C34.7426 2.09881 34.642 2.12674 34.5306 2.12674C34.586 2.39945 34.7649 2.24638 34.9879 2.20461C34.9656 2.09606 34.9827 2.03486 34.8484 2.06821C34.8764 2.06271 34.8152 2.07664 34.8484 2.06821ZM33.4586 1.94857C33.6426 2.10723 33.6707 2.3521 33.9553 1.98751C33.9553 2.43005 34.5305 2.01535 34.6082 1.94857C34.614 1.89297 34.6082 1.84277 34.586 1.79C34.2343 1.72322 33.6763 1.87904 33.4586 1.94857ZM32.3247 1.98751C32.6541 1.6536 33.3522 1.50886 33.8547 1.62859C33.7376 0.916084 34.5082 1.87904 34.6082 1.21664C34.4356 1.21664 34.2847 1.24449 34.1115 1.21664C34.1783 1.11926 34.307 0.891075 34.3516 0.840967C34.0783 0.840967 33.8993 1.01346 33.7541 1.05807C33.849 1.02748 33.2739 1.18046 33.2184 1.21664C33.0732 1.30568 33.0228 1.50612 32.8216 1.65076C32.5426 1.85119 32.4088 1.69528 32.3247 1.98751ZM30.7394 1.45317C30.1529 1.45317 30.0076 1.65919 29.4496 1.55064C29.4777 1.97642 30.2089 1.68978 30.5439 1.68978C29.8515 2.19069 31.0184 2.31591 31.3592 1.86786C31.9063 1.13594 31.3872 1.45317 30.7394 1.45317ZM19.3661 2.12674C19.4948 2.45231 20.2152 2.01535 20.3547 2.38269C20.1592 2.37161 19.9579 2.39103 19.7572 2.38269C20.1203 3.38742 22.1019 2.49124 22.5599 2.22412C22.1133 1.73156 21.4879 2.14067 21.0916 2.02369C21.1642 1.8762 21.2648 1.90405 21.2311 1.72872C20.7623 1.91239 20.8846 1.75382 20.6114 2.22412C20.4381 1.77324 19.1598 1.67027 19.3661 2.12674C19.3776 2.16293 19.3439 2.08213 19.3661 2.12674ZM18.5681 3.62953C18.5681 3.738 17.507 3.67405 17.3789 4.10543C17.6356 4.04973 18.4394 3.86606 18.5457 4.00521C18.3834 4.11092 17.5183 4.25016 17.5069 4.32244C17.4846 4.45609 18.2611 4.83177 18.4286 5.05437C18.942 4.66761 19.433 3.91617 19.433 3.38183C19.584 3.35957 19.8521 3.35398 19.9974 3.38183C19.9304 3.86322 20.0529 3.52098 20.2598 3.79928C20.4101 4.00246 20.0979 4.17495 20.0979 4.38363C20.6451 4.04414 20.7006 4.49502 20.9127 4.46168C21.1305 4.42824 21.5216 4.19447 21.7445 4.14436C21.5044 3.82713 21.2592 4.19163 21.2592 3.72975C21.0247 3.76035 19.4445 2.82249 19.4 2.67775C19.333 2.70835 19.2101 2.74453 19.0815 2.67775C19.1318 2.56086 19.1986 2.48574 19.2267 2.36327C18.6293 2.08213 18.6127 2.40779 18.3337 2.48574C18.4675 2.44672 18.121 2.81965 18.0821 2.83073C18.1713 2.80014 17.9311 2.36043 17.8922 2.34934C17.9483 2.36602 17.228 2.62764 17.2394 2.61922C17.3171 2.49683 17.3508 2.36602 17.4178 2.26305C17.0662 2.33826 15.5866 2.69168 16.7643 2.85583C16.7643 3.00607 16.7923 3.38458 16.742 3.50981C16.5247 3.40125 16.5522 3.21209 16.2846 3.15355C16.3904 3.36516 16.8146 4.06091 16.8146 3.43194C17.0662 3.4542 17.0827 3.82713 17.4344 3.7074C17.5738 3.66288 17.6521 3.40684 17.7866 3.393C17.8031 3.39017 18.5286 3.32339 18.5681 3.62953C18.5681 3.64346 18.5566 3.55991 18.5681 3.62953ZM67.6834 16.4396C68.6771 16.4396 68.8446 16.0165 69.5312 16.1613C69.9109 16.2336 69.4586 16.4952 69.8497 16.5954C70.4133 16.729 70.2293 16.1724 70.7203 16.551C70.7599 16.2893 70.9331 16.4952 71.156 16.473C71.0331 15.9776 70.8433 16.4173 71.0388 15.8996C71.1229 15.6715 71.642 15.1594 71.8204 15.0593C72.4624 14.703 73.0044 14.8422 73.0044 15.5657C73.8694 15.4043 74.0873 14.2299 74.9083 14.3913C74.3611 14.8366 74.1713 15.5379 73.5624 16.0389C72.7917 16.6733 71.8147 17.024 71.5414 17.8533C71.3458 18.46 71.3624 19.3116 71.4802 19.8682C71.642 20.6308 71.558 20.7532 72.1274 20.4526C72.7363 20.1354 72.7866 18.7606 73.7414 19.0054C73.4841 18.5212 73.6796 17.8645 74.2324 18.2152C74.0541 17.82 74.2044 17.4525 74.1542 17.2077C74.121 17.0852 73.8917 17.1743 73.7968 17.2077C73.814 17.0128 74.1318 16.2503 74.2548 16.139C74.5841 15.8385 74.6235 16.011 75.0363 15.9164C75.2599 15.8719 75.1758 16.0721 75.3268 16.0611C75.5332 16.0444 75.5892 15.7105 75.7624 15.6993C75.9745 15.6937 76.1752 15.7661 76.3929 15.7382C76.8898 15.6826 76.4827 16.0389 76.8733 16.1168C76.8733 15.1761 79.1178 14.5973 79.7542 14.4135C80.3293 14.2521 80.3904 14.9201 80.1898 14.0574C80.0108 13.2893 79.6147 13.5953 79.1178 13.267C78.8332 13.0555 80.2956 13.1056 80.2904 13.1111C80.7146 12.9413 80.8484 12.7104 80.6478 12.279C80.9433 12.2595 80.9879 12.5657 81.0828 12.5767C81.1389 12.5823 81.7586 12.6936 81.8369 12.7327C82.2389 12.9219 82.1382 13.0443 82.6522 13.1668C83.3554 13.345 82.814 13.2893 83.1879 13.1445C83.4949 13.0332 83.2491 12.7327 83.428 12.5767C83.5841 12.4348 84.656 12.8857 84.221 12.1176C84.0643 11.8449 82.9592 11.6556 82.6911 11.7642C82.9369 11.9311 82.9981 12.3263 82.5904 12.0398C82.4453 11.9367 82.6522 11.5415 82.4624 11.3857C82.3618 11.305 82.172 11.3718 82.0879 11.2994C81.9375 11.1714 81.5128 10.9265 81.3624 10.843C80.949 10.6232 80.6867 10.4728 80.251 10.2613C79.358 9.8272 77.4318 9.4933 76.8566 10.0805C77.856 10.484 75.2879 10.8458 76.6554 9.96085C76.2426 9.65187 75.8962 10.0749 75.4834 10.1333C74.9809 10.2001 74.0987 10.2613 73.6573 10.0416C73.6465 10.1834 73.6408 10.3504 73.6573 10.4979C73.0267 9.79936 73.0599 8.99231 71.7535 9.07026C71.2676 9.10086 70.7987 9.25393 70.3019 9.15372C69.6598 9.02016 69.5369 8.69734 68.9732 8.63615C69.0904 8.49141 68.8783 8.54702 69.1688 8.39953C68.3254 7.92648 67.3541 9.11754 67.7223 8.14349C67.3038 8.14349 66.8796 7.91246 66.4382 7.90413C65.6007 7.88745 65.7962 8.02111 65.0255 8.14349C65.0255 8.48582 65.4223 8.46631 65.4223 8.83374C65.0981 8.75578 64.8083 8.70559 64.4898 8.68617C64.5624 8.78913 64.7579 8.9422 64.6853 9.11195C64.3058 9.03958 64.2331 8.74745 63.8758 8.68066C63.8923 8.68066 62.9318 8.66949 62.8815 8.68617C62.3624 8.82257 62.4522 9.32905 62.0497 9.32905C62.0612 9.32905 61.3076 8.68067 61.2516 8.53868C61.1847 8.36609 61.4694 7.80675 61.2516 7.54796C60.9108 7.14719 60.6318 7.58131 60.2803 7.48952C59.493 7.28359 59.2471 6.74926 59.2471 7.82901C58.6331 7.8346 58.2866 7.89304 57.7344 7.6676C57.5331 7.58415 57.4159 7.31694 57.1643 7.2529C56.6846 7.13052 55.8248 7.35871 55.3057 7.35871V7.05256C55.121 7.111 54.8254 7.29468 54.6579 7.13052C54.7025 7.12493 55.5452 6.71857 55.1547 6.61835C54.7133 6.50155 54.4682 7.19171 53.8872 7.09433C53.9713 7.61199 53.1 7.56739 52.6312 7.56739C53.1337 7.52012 55.3446 6.17864 55.3948 5.90593C55.6069 4.71488 53.3458 4.81784 52.8319 5.01269C52.9325 4.89021 53.0108 4.8652 53.0108 4.67869C52.7146 4.70929 52.4299 4.6175 52.1395 4.6175C52.1847 4.52287 52.4242 4.23349 52.4802 4.18613C51.33 4.097 51.2854 4.49227 50.5707 4.85677C50.6656 4.9765 50.6433 4.94307 50.6713 5.07113C49.8841 4.88737 49.8229 5.42171 49.1637 5.49408C48.9236 5.51634 48.4885 5.2297 48.1312 5.27147C48.0643 5.27981 47.3267 5.72785 46.9975 5.80856C46.6681 5.88376 46.3948 5.92261 45.9924 6.06184C45.8643 6.11195 45.1662 6.35682 45.0936 6.47087C44.7643 6.95793 45.7025 6.62961 45.1216 7.05256C44.4853 7.51736 43.2961 6.919 42.6483 7.48952C42.8215 7.89863 43.9714 8.56653 43.3242 8.61664C43.1395 8.63056 42.8993 8.27989 42.7878 8.24371C42.2911 8.06837 41.9503 8.05445 41.4592 8.16017C41.6433 8.24929 41.8777 8.22978 41.8777 8.49691C40.3981 8.40237 42.1179 8.74186 42.0509 9.20932C41.8108 8.83924 41.1744 9.08135 40.8841 8.71685C40.7834 8.59154 40.9006 7.96257 40.7833 7.72605C40.7331 7.76507 40.6828 7.77899 40.6216 7.76507C40.6216 8.49691 40.186 8.20194 40.1082 8.63615C40.1082 8.6389 40.2305 9.84947 40.2586 9.89399C40.6828 10.5841 40.5656 9.96086 41.0847 10.1612C41.7273 10.4144 41.6936 10.7484 41.6936 11.1686C41.6936 11.3189 42.1962 11.3968 42.2744 11.408C41.4477 11.9506 41.6152 9.89957 40.493 10.8096C40.493 10.8096 40.5324 11.3523 40.4483 11.4859C40.2923 11.7391 40.1248 11.8337 39.9069 11.9506C39.3037 12.2901 39.3152 12.1511 38.5446 12.0981C38.7121 11.8532 39.3376 11.8949 39.6554 11.6251C39.9459 11.369 40.1471 11.0795 40.1471 10.6621C39.6891 10.701 39.5273 8.89493 39.5719 8.38844H39.8286C39.963 7.72605 38.8738 7.55905 38.3994 7.91246C38.3382 7.96257 37.584 9.17323 37.5675 9.22884C37.6961 8.86984 37.7018 10.0888 37.5897 9.86897C37.6904 10.0805 37.8859 10.0276 38.0255 10.317C38.1146 10.5063 38.5388 10.4979 38.4611 10.7929C38.3267 11.3106 37.8076 10.6037 37.7853 10.5953C37.2045 10.4394 36.758 10.228 36.1999 10.0416C35.9095 9.94409 34.8598 9.40133 34.6923 9.42927C33.961 9.54057 36.0713 10.3782 34.6586 10.9321C34.6586 9.82995 32.3585 11.7308 32.7827 10.4784C32.1744 10.8347 31.4821 10.8486 30.8675 11.2577C30.7617 11.33 29.4382 12.5378 29.5279 11.3189C30.5325 11.3523 29.3604 10.6789 28.791 10.6789C29.042 10.9265 29.2209 12.1844 28.9694 12.3375C29.0311 12.304 28.3776 12.1538 28.1936 12.19C28.0483 12.2178 27.6465 12.6715 27.3617 12.6936C27.4395 12.8078 27.6572 13.1445 27.6407 13.3115C27.2331 13.1 26.7528 13.3003 26.412 12.8718C25.5917 13.3115 26.8255 13.3672 26.8255 13.6232C26.8255 13.8235 26.2057 13.729 26.1554 13.7011C25.5413 13.4117 25.8484 13.484 25.5751 13.0332C25.3458 12.6408 24.8547 12.1455 24.4859 11.664C24.8153 11.7252 28.2936 13.1 27.8808 11.4859C27.7802 11.0991 26.8368 10.7401 26.4738 10.6064C25.9043 10.395 25.0554 10.548 24.8044 10.395C25.0948 9.78827 23.9222 9.98311 23.6541 9.73532C24.1006 9.73532 23.8719 9.52948 23.6432 9.40976C23.0681 9.10645 23.3025 9.48762 22.8949 9.48762C22.9395 9.40133 22.9955 9.19265 23.0177 9.10086C22.8891 9.07026 22.5936 9.07026 22.4706 9.10086C22.4815 9.3012 22.4426 9.40976 22.4706 9.58784C22.37 9.34014 22.2809 9.38749 22.0853 9.20932C22.0127 9.64353 21.8171 9.8272 21.8171 9.2707C21.8846 9.24001 22.035 9.26786 22.1019 9.26786V9.01182C21.9344 9.03683 20.8572 9.61019 21.2478 9.1899C20.4158 9.10645 20.4885 9.55724 20.9298 9.80219C20.6897 9.70757 20.3713 9.78827 20.1203 9.70482C20.1203 9.93301 20.1591 9.9942 19.9974 10.1222C19.9974 9.83829 19.584 9.5795 19.305 9.60735C19.4165 10.0025 19.0426 10.6148 18.97 10.0416C18.484 10.5257 18.9362 10.1806 18.7687 10.6955C18.3611 10.5313 18.456 10.6454 18.3337 10.2392C18.1662 10.2975 18.0712 10.4757 17.814 10.5953C17.8866 10.7261 17.8757 10.6648 17.8757 10.7929C17.5013 10.7929 17.2782 10.9682 17.0827 11.227C17.4961 11.0963 18.1044 10.7122 18.5457 10.9321C17.9592 11.0656 17.0942 12.0592 16.9821 12.7743C16.7865 12.7911 16.491 12.9831 16.3235 13.1445H16.6419C16.5968 13.5341 15.6923 13.9237 15.4133 13.8625C15.4133 14.0239 15.3853 13.9572 15.4528 14.1575C14.3751 14.3802 14.2407 15.0036 14.0234 15.7828C14.9165 15.755 13.705 16.3171 14.5203 16.384C14.5031 16.6065 14.3916 16.6399 14.4196 16.8514C15.2961 16.8514 15.6197 16.9516 16.2063 16.217C16.5916 16.2837 16.8821 17.653 17.2223 18.037C17.3171 18.1483 17.0044 18.3431 17.2503 18.4322C17.8197 18.6549 17.5739 18.2429 17.814 18.1539C18.2439 18.0036 18.4783 17.8533 18.8471 17.7643C18.8751 17.6919 18.8751 17.6306 18.8471 17.5639C18.635 17.5862 18.5732 17.5806 18.4508 17.486C18.5732 17.2911 19.0872 16.6511 19.126 16.551C19.2547 16.2225 19.7407 15.9387 19.0089 15.9387C19.0089 15.4154 18.5566 14.9256 19.1038 14.2967C19.3776 13.9738 19.8853 13.9572 20.1368 13.6232C20.3043 13.4061 20.3101 12.7799 20.7006 12.5351C21.0024 12.3486 21.6943 12.6659 21.7445 13.022C21.8618 13.7902 19.3719 14.2188 20.5165 15.5435C21.3203 16.473 22.7274 15.3431 23.6712 15.883C23.1464 16.4173 22.3923 16.1835 21.7669 16.2615C21.5273 16.3004 20.6617 16.5843 20.6503 16.5954C20.7401 16.6288 20.8069 16.6733 20.8904 16.7067C20.7006 16.7067 20.5726 16.7735 20.3936 16.8293C20.6114 17.3969 21.0248 16.7401 21.1699 16.8069C21.4432 16.9405 21.4655 17.0852 21.7056 17.2467C21.0247 18.1094 21.0693 17.102 20.6725 17.2467C20.1929 17.4192 20.2261 18.4544 20.2152 18.7106C19.8076 18.7106 19.2827 18.4879 19.6229 19.0445C19.0089 18.421 18.6687 19.089 17.9929 19.1502C17.7637 19.1669 16.7815 18.5936 16.7145 19.2226C16.4573 19.2059 16.2063 19.1113 16.0668 19.0054C16.1394 18.3209 17.1216 19.2949 17.0216 18.076C16.8764 18.1428 16.3961 18.3097 16.3069 18.2764C16.312 18.165 16.3847 17.9647 16.4241 17.8533C16.3458 17.8867 16.2623 17.8867 16.1897 17.8533C16.2789 17.2077 16.1114 17.0908 15.6088 17.6029C15.2572 17.9591 15.5139 18.3431 15.4973 18.6882C15.4579 19.5788 15.7204 19.089 15.028 19.4897C14.6764 19.6957 14.0623 19.9016 13.6662 19.9016C14.1739 20.5528 13.1858 20.4861 12.8114 20.7699C12.7725 20.7978 12.4655 21.5046 12.3541 21.538C11.9795 21.655 11.7509 21.3154 11.505 21.3376C12.0859 22.3339 10.9356 21.6382 10.5897 21.9053C10.1706 22.2281 10.7012 22.1168 10.835 22.3117C11.0305 22.5844 11.2598 22.6957 11.4605 23.1076C12.5885 25.3507 9.85273 23.9648 8.74134 24.4323C8.95343 25.1504 8.64074 25.9908 8.81964 26.6865C8.98146 27.31 8.76938 26.9258 9.31649 27.2763C9.6629 27.4992 9.84135 27.2878 10.1706 27.6941C10.2433 27.6103 10.2324 27.5716 10.1317 27.5773C10.7012 27.3766 11.4101 27.143 11.8624 26.7252C12.0464 26.5531 12.1362 26.7703 12.2757 26.5754C12.3592 26.4583 12.1082 26.2635 12.119 26.2524C12.1866 26.1577 12.2368 25.7626 12.3763 25.5956C12.5604 25.373 13.3642 25.1393 13.5038 25.0223C13.6713 24.8831 13.3865 24.5937 13.6884 24.4101C13.9394 24.2542 14.3973 24.6049 14.6764 24.5548C14.7827 24.5436 15.3076 23.9091 15.5923 23.9536C15.977 24.0205 16.3624 24.7496 16.6808 25.0056C17.6413 25.7515 19.3382 26.7703 16.9432 26.7703C17.5853 27.8885 18.5961 26.7252 18.8694 26.0631H18.5286C18.5235 25.9908 18.5344 25.924 18.5457 25.8517C18.7133 25.9073 19.1375 25.9908 19.2655 25.9908C19.0203 25.5177 18.3337 24.9723 17.7362 24.8831C17.7974 24.5102 17.1776 24.0427 16.8987 24.0649C16.9821 22.8182 17.7866 23.9258 18.4006 24.3711C18.8191 24.6772 19.3662 24.8887 19.6007 25.3173C19.7458 25.5845 19.9471 26.2969 20.0979 26.5862C19.9356 26.536 19.891 26.503 19.7407 26.5308C19.8687 26.87 20.0477 27.0318 20.2764 26.7645C20.5165 27.9888 21.3317 26.6757 21.7839 26.6033C21.7113 26.475 21.6165 26.3693 21.4655 26.3693C21.4993 26.4472 21.4993 26.5308 21.4655 26.6033C21.2311 26.6033 20.7401 25.8739 20.8127 25.718C21.0522 25.8517 21.1866 25.9295 21.449 25.8127C21.4267 25.7459 21.3763 25.718 21.3095 25.718C22.2082 24.3989 22.705 27.8219 22.8445 27.8219C23.0012 27.8219 22.9675 27.3766 22.9675 27.3157C23.3139 27.6218 23.5929 27.5602 23.8662 27.5995C23.5815 27.5602 24.3241 27.4103 24.3076 27.4103C24.5923 27.3989 24.7204 27.7552 25.184 27.644C25.1783 27.5271 25.1725 27.4212 25.184 27.2986C26.0548 27.477 26.1222 27.7773 25.8037 28.7013C25.6974 29.0244 25.2903 29.5477 25.0108 29.6696C24.6706 29.8144 24.3521 29.4696 24.0338 29.6365C24.5305 29.8702 24.877 31.3561 25.4407 30.7833C26.284 31.6628 26.4904 32.8648 27.0432 33.7887C27.3949 34.3678 28.1152 34.8237 28.4165 35.4917C28.8241 36.3934 28.2827 36.9388 29.4273 36.9611C29.9407 36.9611 30.5496 36.4714 31.0572 36.26C31.6382 36.0263 31.9229 35.7813 32.3865 35.5698C32.984 35.2973 33.3413 35.4142 33.7541 34.9355C33.9496 34.724 34.3515 34.1785 34.6082 34.284C34.6082 33.7277 34.6197 33.7055 35.0273 33.5328C34.9827 33.2654 34.5305 32.965 34.3292 32.798C33.972 32.4921 34.3292 32.1746 33.8158 32.6812C33.7598 32.4419 33.6872 31.9186 33.4974 31.7739C33.2796 32.0412 33.2127 32.0635 33.179 32.4863C32.3865 32.4196 31.1471 32.4476 32.6043 32.1859C32.5815 32.0965 31.465 31.7847 31.4095 31.7516C31.2362 31.6292 30.7057 31.0449 30.6611 30.7833C30.5101 29.8702 30.9516 30.1706 31.493 30.549C32.163 31.0056 32.3916 31.217 33.179 31.4735C33.3133 31.5179 33.6312 31.4285 33.8158 31.4735C33.9553 31.5123 33.9885 31.8241 34.1784 31.9073C34.5305 32.0743 35.407 32.1523 35.8203 32.1689C36.7745 32.2025 37.0426 32.1187 37.8076 32.553C38.2209 32.7867 38.2598 33.0819 38.8796 33.1988C37.7853 33.1988 39.0413 33.7664 39.2929 33.8497C39.7058 33.9836 39.4884 33.2934 39.9292 33.9112C40.1471 34.2008 39.9738 34.5792 40.0299 34.9018C40.1414 35.5361 40.37 36.0428 40.6051 36.6384C40.7611 37.0391 41.0458 38.3528 41.4369 38.5808C41.8497 38.8094 42.2631 38.3973 42.4917 37.9243C42.6483 37.6068 42.6483 37.2397 42.6872 36.8836C42.7095 36.6943 42.637 36.349 42.6987 36.1933C42.9051 35.6644 42.8604 36.182 43.2458 35.8034C43.9884 35.091 44.8649 34.0115 45.5515 33.6331C45.8139 33.4826 46.9808 33.2433 46.9975 33.2546C47.2209 33.3988 47.7344 34.5513 47.7344 34.8129C48.4159 34.8129 47.6343 35.3806 48.1312 35.7705C48.4662 36.032 48.8458 35.4752 48.907 35.4917C49.4376 35.6365 49.8057 37.0283 49.7948 37.6011C49.7891 37.9077 49.3203 38.2303 49.5267 38.7536C49.6497 39.0653 50.1299 39.3549 50.3031 39.7498C50.5095 40.2286 50.9394 41.9482 51.8605 41.5087C51.5477 40.969 51.5477 40.0114 51.2299 39.6165C50.7662 39.0653 50.2248 39.0933 50.0962 38.2914C50.0681 38.1078 49.8898 37.3064 50.1911 37.0557C50.677 36.6607 50.2751 36.9611 50.7497 37.2176C51.1624 37.4398 51.1236 37.429 51.4923 37.8855C51.5758 37.991 51.8771 38.0747 51.9223 38.1415C52.0561 38.3637 51.8828 38.5586 52.0783 38.8983C52.4745 38.3415 53.0777 38.1967 53.3904 37.7681C53.9713 36.9782 53.6082 36.3159 53.1337 35.7031C52.4133 34.7685 52.2236 33.6331 53.8872 33.6331C53.9936 34.1113 53.2732 34.6345 53.5522 34.8796C54.2336 35.4809 54.3783 33.722 54.3618 33.7328C54.6579 33.4661 55.2999 33.449 55.635 33.3436C56.1261 33.1874 56.2878 33.0819 56.7012 32.7702C57.2764 32.3416 58.337 31.4011 58.4713 30.6272C58.5713 30.0595 58.27 30.41 58.214 30.0259C58.1808 29.8144 58.3872 29.8594 58.3146 29.4804C58.2254 29.0244 57.5892 28.4568 57.6 28.1279C57.6223 27.4992 58.2643 27.7106 58.4935 27.3766C58.6942 27.0815 58.6942 27.0985 58.1025 26.8814C57.8401 26.7925 57.907 27.1875 57.5669 27.1875C57.6618 26.4472 56.6899 26.9646 57.1197 26.2746C57.0923 26.3247 57.8904 25.9741 57.935 25.9518C58.8063 25.6234 58.5491 25.5177 58.1917 26.4305C58.449 26.2858 59.1357 25.924 59.426 26.052C60.0343 26.3247 59.5541 26.4194 59.6044 26.9202C60.5427 26.5308 60.2579 28.011 60.1573 28.4619C60.8274 28.5343 61.5866 28.0891 61.57 27.4433C61.5585 26.8648 60.8217 26.7976 60.9725 25.9908C61.0057 25.8294 61.3019 25.9518 61.3299 25.8739C61.3407 25.8517 61.4357 25.2282 61.4917 25.1558C61.6255 24.9723 61.849 24.5993 62.1 24.488C62.2452 24.4268 62.7701 24.5436 63.0382 24.4657C63.3955 24.3655 63.4904 24.2765 63.7694 24.0316C64.2217 23.6476 64.7968 22.9295 65.1038 22.4676C65.4612 21.9387 65.3605 21.5157 65.6006 20.9703C66.3713 19.1669 66.0254 22.7236 66.0254 23.2189C66.1701 23.0742 66.2822 23.1522 66.4102 22.8627C66.5892 23.0297 66.4325 23.1633 66.8121 23.18C66.7063 22.4564 65.9305 21.8163 67.0076 21.8163C67.0357 21.8163 66.4943 19.3562 66.4719 19.0667H66.3153C66.3433 19.6567 66.1535 19.6121 66.1535 20.1577C65.7013 19.8904 65.7905 19.3116 64.9643 19.0667C64.8694 19.6678 64.579 19.4675 64.328 19.0667C64.3503 19.1836 64.3503 19.2671 64.328 19.384C63.9764 19.3339 64.3337 19.1112 64.0713 18.8886C63.5127 19.4452 64.0598 18.6048 64.2662 18.3766C64.579 18.0314 64.9083 17.7977 65.249 17.3747C65.9637 16.4952 66.6057 16.4396 67.6834 16.4396ZM9.81334 16.8069C9.62919 16.8737 9.43366 17.0852 9.39487 17.2634C9.56238 17.2189 10.1152 16.7513 9.81334 16.8069C9.83558 16.8069 9.74075 16.8293 9.81334 16.8069ZM10.2324 21.243C10.6343 21.243 10.9356 20.9647 11.1648 20.9258C11.5165 20.8701 12.0133 21.0371 12.298 20.9091C12.8006 20.6808 12.9624 20.191 12.8286 19.7402C12.7445 19.4507 12.5267 19.9127 12.5159 19.9016C12.3815 19.7625 12.4038 19.5343 12.298 19.4452C12.119 19.2893 11.8738 18.922 11.6394 18.6493C11.2821 18.2318 11.2369 18.332 11.1815 17.9981C11.1478 17.7755 12.0636 16.9071 10.7069 17.3079C10.8184 17.1131 10.835 16.9516 11.047 16.8293C10.6005 16.384 10.405 17.0741 10.2375 17.2077C10.2101 17.2299 9.30563 17.5361 10.0146 17.6586C9.95282 17.8645 9.72411 18.165 9.73559 18.293C9.97 18.3209 10.2655 18.5101 10.3273 18.2541C10.2713 19.0277 10.6789 18.5992 10.9693 19.2226C11.2986 19.9461 10.6229 19.4507 10.2713 19.8794C10.405 19.9127 10.5114 19.9016 10.6674 19.9183C10.6674 20.1354 10.1317 20.2244 10.3102 20.4304C10.4222 20.5583 10.9802 20.3692 11.1648 20.5473C11.0922 20.614 9.98655 21.243 10.2324 21.243ZM9.89161 19.2059C10.7738 19.0779 8.49038 17.948 9.02095 19.0054C8.60186 19.0834 8.03813 19.6678 8.72473 19.6344C7.8312 20.9258 9.07638 20.0686 9.83557 20.2355C9.8636 19.9239 9.89739 19.5899 9.89161 19.2059ZM31.1356 49.3456C31.1356 48.583 31.6828 47.0134 30.7783 46.6572C30.7783 46.9245 30.4267 47.5479 30.2649 47.6927C29.9298 47.9988 29.4108 47.8706 29.07 48.1989C28.8076 48.4547 29.1032 49.251 29.07 49.4624C29.0083 49.8632 28.8356 49.9133 28.7516 50.4143C28.6458 51.0658 28.7961 52.0284 29.6675 51.8392C30.505 51.6556 30.2368 51.3991 30.3821 50.6536C30.393 50.5648 30.605 49.7183 30.6222 49.7018C30.6891 49.6072 31.1356 49.4738 31.1356 49.3456ZM24.542 30.4602C24.1623 29.5585 23.9445 29.9039 23.1127 29.8035C21.912 29.6588 20.9853 29.2746 19.8578 29.0188C19.8578 30.1039 19.8802 29.9038 19.1432 29.9147C19.2935 29.9038 18.4955 29.681 18.5732 29.7147H17.9929C17.9311 29.6143 17.8923 29.5083 17.8757 29.3972C17.5241 29.2803 16.463 29.1076 16.2451 28.813C15.8375 28.2675 16.7031 28.1672 15.9661 27.6941C16.1617 27.5323 16.1394 27.51 16.407 27.4548C16.0331 26.8199 15.0057 27.4103 14.4585 27.4212C13.8782 27.4325 13.2585 27.176 12.5159 27.4992C12.0133 27.7106 11.6725 28.0059 11.0082 27.9888C10.2043 27.978 9.77446 27.4212 9.77446 28.4619H9.177C9.44513 29.4251 8.74136 28.8016 8.58524 29.1191C8.33366 29.6251 8.41772 30.2265 8.18846 30.549C8.04897 30.7383 7.52419 30.9948 7.31202 31.2615C7.08331 31.5345 6.80946 31.9968 6.5585 32.3638C6.31261 32.7314 5.30754 33.6662 5.44766 34.223C5.48653 34.3786 6.05029 34.1563 6.13943 34.3455C6.2178 34.4954 6.02796 34.5678 6.06168 34.6567C6.21781 35.0688 5.95537 35.7482 5.92219 36.1654C5.88278 36.672 5.83819 37.1058 6.40185 37.6849C6.99931 38.3135 7.55791 38.8316 8.22796 39.4101C8.45668 39.6108 8.56814 40.0673 9.05983 40.1671C9.61263 40.2674 9.68522 40.0337 10.2101 39.967C10.6674 39.9111 11.0139 40.1117 11.3266 40.1004C11.9852 40.0781 11.9407 39.8279 12.4764 39.6438C12.912 39.4996 13.8502 39.5384 14.1013 39.6438C14.498 39.8222 14.3973 40.1117 14.9834 40.2451C15.9999 40.468 15.9439 39.967 15.9661 41.0357C15.977 41.5367 15.7763 42.1767 15.4916 42.4605C16.7643 42.8612 17.6019 45.4551 17.3955 46.6908C17.1942 47.9373 16.4407 47.9874 17.0827 49.3068C17.4789 50.1305 17.6076 50.62 17.8363 51.5217C18.0656 52.457 18.7968 53.0913 19.0649 53.9377C19.2936 54.661 18.942 54.8896 19.305 55.2846C20.2649 56.331 22.8057 55.0953 23.5535 54.2939C23.8439 53.9822 24.3356 53.4418 24.5031 53.0691C24.6706 52.7021 24.4471 52.1789 24.542 51.956C24.6255 51.7782 25.2566 51.6664 25.4578 51.3991C25.9993 50.6981 25.184 50.3978 25.3401 49.6631C25.463 49.0675 26.5687 48.7614 26.8872 48.4719C27.6739 47.7703 27.7191 46.9854 27.5234 45.9282C27.4114 45.3325 26.8592 44.4474 27.0879 43.7241C27.3891 42.7501 28.6401 41.8091 29.3884 41.1525C29.9407 40.6681 30.4879 40.1117 30.8566 39.4495C31.1076 39.0095 31.2699 38.9707 31.3312 38.3809C31.4318 37.4512 31.5821 37.6735 30.7783 37.6683C29.6617 37.6627 29.3325 38.0856 28.556 37.2397C28.1095 36.7445 27.3891 36.2822 26.965 35.7311C26.5465 35.1913 26.1108 33.9557 25.8541 33.3156C25.4687 32.3359 25.2452 31.3288 24.542 30.4602C24.5866 30.5161 24.514 30.3935 24.542 30.4602ZM-15.8358 60.7612C-15.9921 60.7281 -15.981 60.4831 -16.0927 60.4831C-16.0424 60.4831 -16.4499 60.9505 -16.4499 60.9453C-16.4499 61.0172 -15.713 61.5854 -15.6571 61.6128C-15.6907 61.6629 -15.7075 61.7188 -15.6963 61.7746C-16.9692 61.7746 -15.9531 62.8929 -16.154 63.3551C-16.0368 63.3385 -15.9531 63.3385 -15.8358 63.3551C-15.8302 63.4662 -15.8916 63.5278 -16.0145 63.5386C-15.8079 63.7558 -15.9139 63.6281 -15.713 63.6777C-15.78 63.6555 -14.8755 64.8079 -14.7247 64.9025C-13.9654 65.3699 -13.2452 65.1419 -12.5194 65.086C-12.5529 64.8524 -13.463 64.5908 -13.6527 64.1399C-13.8314 63.7056 -14.239 62.5817 -13.5132 62.6541C-13.5132 62.1975 -12.592 61.6852 -12.6589 61.3568C-12.7315 60.9676 -13.6527 61.2013 -13.3346 60.4272C-13.2341 60.1827 -12.7315 60.3161 -12.6199 60.1827C-12.525 60.0602 -12.6534 59.8595 -12.5194 59.7148C-12.6087 59.8151 -12.0504 58.8467 -12.1229 59.203C-11.9946 58.5686 -12.5976 59.2195 -12.4635 58.2791C-11.5312 58.6518 -11.347 58.3121 -11.4864 57.4498C-10.716 57.472 -9.78925 57.5 -9.4375 56.7538C-9.0578 55.9634 -9.78364 56.1417 -9.92322 55.4516C-9.06341 55.5627 -8.7396 55.8636 -8.07514 55.2731C-7.76253 54.995 -7.51682 53.8762 -7.16506 53.9263C-7.21533 54.0825 -7.24327 54.099 -7.20421 54.2438C-6.18241 53.7371 -6.46716 52.2957 -5.90884 51.6334C-5.54596 51.199 -5.04344 50.9876 -4.52987 50.8429C-3.71472 50.6092 -3.49133 50.6644 -3.03354 49.8688C-2.49194 48.9284 -2.71524 47.5035 -2.27978 46.746C-1.96157 46.1954 -1.26366 45.8666 -1.07942 45.2322C-0.950964 44.8094 -0.978886 44.8372 -1.08502 44.4474C-1.31943 43.6016 -1.30831 44.1579 -1.83869 43.7406C-2.41374 43.2955 -2.64834 43.1952 -3.36296 43.0619C-3.74816 42.9838 -5.1105 43.0784 -4.54097 42.7832C-4.75315 42.6383 -5.0937 42.4269 -5.37287 42.3717C-6.07077 42.2377 -5.91446 42.3939 -6.40579 42.6053C-6.36114 42.5386 -6.15454 42.0764 -6.14894 42.0377C-6.33318 42.0154 -6.59002 41.9259 -6.76866 41.8707C-6.94739 41.8148 -6.84685 42.2713 -7.22094 42.2269C-7.14834 42.0598 -6.42251 41.1525 -7.10368 41.1525C-6.98643 39.9505 -8.10307 39.8889 -8.84563 39.6997C-9.44861 39.555 -10.783 38.9428 -10.783 38.2691C-11.1236 38.3859 -11.7322 38.2304 -11.2018 37.991C-11.5535 37.5401 -12.2849 38.1745 -12.4915 38.1693C-13.2508 38.1415 -13.6137 37.5065 -14.3395 37.3731C-14.3395 37.763 -14.6075 37.6735 -14.8364 37.9077C-14.8699 37.9408 -14.7694 38.4754 -14.7974 38.5643C-15.2049 38.2304 -15.0989 37.5179 -14.6801 37.262C-15.3501 37.0727 -17.226 38.3135 -17.3377 39.1542C-17.3991 39.6216 -16.9078 40.1117 -17.226 40.7575C-17.399 41.1137 -18.1305 41.8484 -18.5158 41.9818C-18.4488 42.5831 -18.6999 42.6942 -18.0802 42.7387C-18.3371 43.1838 -18.9401 43.4511 -18.5939 44.1801C-18.5102 44.3642 -18.1194 44.403 -17.9575 44.6309C-17.8012 44.8595 -17.6336 45.1991 -17.5331 45.4437C-17.3154 45.9783 -17.1144 46.8686 -16.7682 47.2693C-16.2936 47.8147 -15.7241 47.9709 -15.1323 48.4326C-14.1329 49.2174 -14.5014 50.8873 -14.6633 52.1115C-14.7527 52.7796 -15.004 53.4197 -15.0821 54.0375C-15.1715 54.7721 -15.0821 55.5404 -15.3781 56.2307C-15.7075 56.999 -15.685 57.4498 -15.8916 58.3121C-15.8805 58.2619 -15.8972 58.8798 -15.8916 58.7243C-15.8972 58.8576 -16.1597 58.9915 -16.1038 59.1585C-15.8246 59.9878 -15.5845 58.7464 -15.2998 58.7243C-15.5064 59.3033 -15.5901 59.7928 -15.6627 60.4495C-15.8191 60.1879 -15.8582 60.3326 -15.9139 59.9713C-16.0982 60.071 -15.8191 60.6113 -15.8358 60.7612ZM-14.842 35.2136C-14.1497 35.0579 -13.1503 35.1748 -12.458 34.9355C-12.7651 34.557 -13.7087 34.6795 -14.2893 34.6015C-14.6577 34.557 -15.417 34.1227 -15.4785 34.7017C-15.5175 35.0688 -15.1826 35.2803 -14.842 35.2136C-14.7638 35.197 -14.8922 35.2249 -14.842 35.2136ZM-16.7068 35.091C-16.8687 34.8408 -17.1981 34.757 -17.5387 34.8129C-17.3321 35.091 -16.9469 35.3304 -16.7068 35.091C-16.7403 35.0466 -16.7682 35.1577 -16.7068 35.091ZM-15.9921 34.2059C-16.2936 33.722 -17.5331 33.4324 -18.058 33.2318C-18.3985 33.1099 -19.1746 32.7924 -19.5989 33.0375C-20.0679 33.3099 -19.9506 33.3492 -19.4482 33.5881C-19.2304 33.6998 -19.102 33.36 -18.8899 33.3988C-18.5995 33.4439 -18.4153 33.694 -18.2589 33.7499C-17.4382 34.0446 -16.9245 34.2059 -15.9921 34.2059ZM3.18592 12.7327C3.54896 12.6742 3.67761 12.6826 3.77822 13.0499C3.50441 12.9998 3.25859 12.9998 2.98521 13.0499C2.99615 13.1278 3.01323 13.2113 3.02409 13.2893C3.83372 13.1557 3.20823 13.6121 3.62155 13.7623C3.71078 13.7902 4.64328 13.8848 4.69354 13.8793C5.40826 13.8458 5.46999 13.6955 6.084 13.3672C6.60308 13.0833 6.8318 13.4785 6.99416 12.9303C7.06107 12.7131 6.68145 12.7076 6.59738 12.6936C6.77059 11.7085 5.4248 12.5852 4.76044 12.4989C4.66045 12.4905 4.06806 12.4071 4.17446 12.4182C3.8897 12.3932 4.19676 11.9729 3.89545 12.3375C3.16935 12.0954 2.991 12.7716 3.18592 12.7327C3.24196 12.7243 3.13049 12.7438 3.18592 12.7327ZM-9.04669 20.6475C-9.203 20.7476 -10.1242 22.2281 -10.0572 22.3394C-9.91762 22.5733 -9.42629 22.3507 -9.15833 22.4286C-8.75072 22.551 -8.6614 22.718 -8.25378 22.9072C-7.63408 21.9721 -8.21473 21.6494 -9.1248 21.3599C-9.13031 21.3766 -8.57207 20.3803 -9.04669 20.6475C-8.99642 20.6252 -9.09694 20.6808 -9.04669 20.6475ZM-11.1907 21.5213C-11.587 21.3933 -11.7601 21.2263 -12.1454 21.2819C-11.7824 21.499 -11.5479 22.0334 -11.1907 21.5213C-11.2074 21.5492 -11.2464 21.5046 -11.1907 21.5213ZM0.0148887 10.8764C0.126544 10.8347 0.249395 10.9961 0.338801 11.0211C1.04222 11.2465 1.04222 10.9793 1.61726 10.754C2.13092 10.5564 3.40379 10.2808 3.5827 9.80219C2.89039 10.342 1.25998 9.08135 2.99615 9.15372C2.92348 9.15097 3.77251 10.0416 3.96805 9.2707C4.04064 8.98672 3.33119 8.30215 3.10816 8.17968C3.23111 8.07121 4.01264 8.63889 3.77822 7.90413C3.66622 7.55905 3.46552 7.55355 3.00755 7.70662C3.09678 7.56739 3.18591 7.57856 3.24195 7.45059C3.1585 7.42549 3.08014 7.39214 3.00755 7.34753C3.2586 7.34478 3.97891 7.69545 4.31395 7.47001C5.08461 6.95793 3.83942 7.1416 3.83942 6.8939C3.83942 6.83271 5.012 6.7771 5.09038 6.63786C4.84449 6.39584 4.19678 5.97839 4.97252 5.91436C4.98969 5.27422 4.02349 5.27706 4.13558 4.91531C4.18015 4.76774 4.64898 4.71204 4.77192 4.75665C5.28016 4.9514 4.86104 4.99317 5.09038 5.44964C5.22978 4.62858 5.54775 4.43099 4.55405 4.43099C4.82796 4.12769 4.56552 4.34754 5.02856 4.12485C4.74958 3.69915 4.06299 4.10817 4.0572 4.10543C3.34827 3.53491 5.84958 1.99034 6.084 1.69528C5.76551 1.71479 5.45851 1.65919 5.14582 1.65076C5.79354 1.5172 6.16227 1.53671 6.72034 1.17496C6.8712 1.07749 7.67507 1.17771 7.31202 0.643373C7.25081 0.548744 6.41903 0.593265 6.34066 0.601601C5.76553 0.67122 5.22979 0.77135 4.74958 0.896663C4.44773 0.982867 3.20307 1.63968 3.02409 1.60908C3.7388 0.715742 4.12987 0.58218 2.82864 0.390086C2.82864 0.907748 2.45473 0.854889 1.95228 0.938343C2.03599 0.518147 2.32638 0.685145 2.62796 0.543158C1.89091 -0.00226322 0.53976 0.843717 -0.269875 0.718492C-0.052098 0.0701053 3.2586 0.0171598 4.01833 -0.069132V-0.249963C3.2586 -0.252712 2.91841 -0.366852 2.33198 -0.467068C1.44975 -0.611715 0.589934 -0.405874 -0.269875 -0.494826C0.361037 -0.926285 1.6452 -0.73428 2.54958 -0.73428C2.44896 -1.43552 -1.52048 -1.14605 -2.03414 -0.981894C-2.58125 -0.800973 -2.08993 -0.620143 -2.77671 -0.544937C-3.17873 -0.500416 -3.51365 -0.736941 -3.92679 -0.753702C-4.30647 -0.770375 -5.06025 -0.69526 -5.4845 -0.53385C-5.35612 -0.280562 -5.05465 -0.389114 -5.05465 -0.0301111C-5.21656 -0.155336 -5.93118 -0.453146 -5.70237 -0.0134391C-5.75815 -0.121903 -4.44044 0.654547 -4.81452 0.654547C-5.652 0.654547 -6.28294 -0.0161862 -7.17068 -0.0161862C-7.17068 0.173071 -6.62356 0.498639 -6.54537 0.782524C-7.07574 0.6322 -7.43311 0.150808 -8.00255 0.097862C-7.85745 0.384496 -7.81278 1.08024 -8.28169 0.802034C-8.28169 0.799196 -8.05841 0.228675 -8.37101 0.0589291C-8.7451 -0.152588 -9.93433 0.579343 -10.1856 0.454118C-9.912 0.559921 -9.44861 0.707315 -9.23643 0.938343C-9.61612 0.935594 -9.93434 0.676721 -10.3308 0.629451C-10.5876 0.593267 -10.5206 0.390085 -10.8611 0.551494C-11.1906 0.704567 -10.9282 0.952268 -11.0175 1.00238C-11.3301 1.1833 -11.9778 1.25566 -12.5696 1.57006C-12.8041 1.69528 -13.3736 1.6842 -13.3401 2.08772C-12.9996 2.17676 -12.8265 2.08772 -12.5082 2.08772C-12.2794 2.08772 -12.5194 2.83073 -12.564 2.87251C-12.6702 2.96438 -13.167 2.93938 -13.3233 2.97831C-13.7309 3.08402 -14.4624 3.0395 -14.8755 3.28445C-16.221 4.07199 -13.7365 4.13877 -13.0052 4.13877C-13.1503 4.74272 -14.6521 4.29743 -14.6521 4.64251C-14.6521 4.81225 -13.999 4.99601 -13.8593 5.02661C-13.971 5.02661 -13.9823 5.02661 -14.0157 5.10731C-13.8147 5.26872 -13.4294 5.60263 -13.1336 5.49408C-13.1559 5.45239 -13.2843 5.3355 -13.2173 5.29373C-12.7706 5.01818 -10.85 5.2297 -10.3196 5.56919C-9.55464 6.0591 -8.96839 7.0609 -8.89588 7.98208H-8.70606C-9.46534 9.34014 -7.63967 8.2242 -7.1204 9.44878C-7.61174 9.46261 -8.07514 9.12037 -8.52742 9.30954C-8.41568 9.64628 -8.82331 10.1945 -8.13102 10.2112C-7.52804 10.2252 -7.33257 9.79661 -8.03608 9.68806C-7.03659 9.56833 -7.27679 9.95527 -6.99764 10.6566C-7.44422 10.6342 -7.79608 10.7122 -7.78487 11.1492C-8.77865 11.0211 -7.73451 12.3152 -7.67313 12.5239C-7.69554 12.4683 -7.37723 12.3876 -7.31585 12.5127C-7.27119 12.6185 -7.63967 12.741 -7.53915 12.8329C-7.69554 12.688 -7.3605 13.3894 -7.39955 13.2893C-7.40516 13.267 -7.01435 13.061 -6.94177 13.0666C-7.24886 13.69 -6.94177 14.742 -6.2662 15.2484C-5.96472 15.4766 -4.47959 16.05 -4.23949 15.9164C-3.91006 15.7382 -3.99938 15.0593 -3.8654 14.7531C-3.78169 14.5694 -4.06637 14.5137 -3.95472 14.2967C-3.89893 14.1798 -3.60307 14.2577 -3.50815 14.0796C-3.10614 13.3449 -3.35175 12.6436 -2.34676 12.5573C-2.37469 12.0786 -2.32442 12.4209 -2.06758 12.2595C-2.12906 13.5064 0.00377742 10.8791 0.0148887 10.8764ZM-21.6534 4.75665C-21.2292 5.40778 -19.3197 5.17126 -18.6162 5.05437C-18.4264 5.53035 -17.2986 5.23529 -17.3433 4.6175C-17.4493 4.66761 -17.5554 4.71204 -17.6615 4.75665C-17.695 4.65918 -17.7285 4.55906 -17.762 4.46168C-17.3097 4.37813 -17.3321 4.26125 -17.4438 3.86606C-16.8743 4.02188 -16.3942 3.93843 -16.7906 3.41518C-16.852 3.33447 -16.1932 3.39576 -16.1932 3.31496C-16.1932 2.76679 -17.2037 2.94488 -17.4605 3.17307C-17.4885 3.10912 -17.5163 3.04225 -17.5387 2.97831C-16.8911 2.52468 -16.1876 3.15355 -15.5789 2.5998C-15.6963 2.5135 -15.8135 2.43005 -15.9307 2.34651C-15.5231 2.45506 -15.1323 2.5441 -14.6801 2.36327C-14.8755 2.21294 -14.8476 2.09606 -15.0989 1.98751C-14.1609 2.21295 -13.0553 1.19163 -12.1843 0.960604C-12.4635 0.682306 -13.2117 0.95227 -13.6919 0.896663C-13.3011 0.392925 -11.1292 0.8799 -10.9896 0.184155C-10.9003 -0.288898 -12.8767 -0.372439 -13.3513 -0.249963C-13.5356 -0.433633 -14.2892 -0.636816 -14.7638 -0.686835C-14.9481 -0.0272743 -17.0808 -0.990231 -16.9245 -0.227705C-17.522 -0.450308 -18.8396 -0.575534 -19.2918 0.0672651C-18.7893 0.0395063 -18.2421 0.142384 -17.9965 0.543158C-18.4991 0.412434 -19.1689 0.0951136 -19.6045 0.00882177C-20.0623 -0.0802194 -20.4364 0.161897 -20.5647 0.17857C-21.045 0.245439 -22.0053 0.498636 -22.5859 0.621112C-22.5915 0.679556 -22.5971 0.740752 -22.6027 0.802034C-22.1113 0.955018 -22.0778 1.2389 -21.5307 1.40306C-20.749 1.64252 -20.7211 1.22498 -20.0456 1.13594C-21.4022 1.92631 -19.2974 1.6536 -18.9289 1.56181C-18.1696 1.3753 -17.6448 0.935595 -16.8463 0.960604C-17.1647 0.994039 -17.4716 1.13594 -17.7229 1.35304C-17.4326 1.30293 -17.187 1.39756 -16.9078 1.39481C-17.3097 1.69253 -18.5883 1.79 -19.1689 1.82609V2.02369C-18.7837 2.1851 -18.5548 2.46898 -18.0969 2.46064C-18.7726 2.64431 -19.7832 1.98201 -20.5425 1.88738C-20.4811 2.53302 -19.3253 3.05068 -18.6721 3.01724C-18.8229 3.19258 -18.8899 3.32339 -19.0126 3.46812C-20.1461 2.36043 -21.8434 4.08033 -19.7441 3.7074C-19.8557 3.76859 -19.9674 3.82713 -20.0846 3.88557C-19.8389 4.28625 -19.3867 4.15544 -19.0518 3.80762C-19.437 4.83177 -20.5759 3.86047 -21.2738 3.94951C-20.9836 4.39756 -21.2571 4.58132 -21.6534 4.75665ZM-21.4748 3.46812C-21.3632 3.33447 -21.1622 3.41802 -21.218 3.05343C-19.9506 3.24543 -20.2465 2.46623 -21.0338 1.97367C-20.9891 2.00427 -23.5964 0.696232 -23.5351 1.07749C-23.3508 1.11652 -23.1833 0.982865 -23.1386 1.21664C-23.133 1.25008 -23.8366 1.33912 -23.9147 1.33353C-23.7527 1.44208 -23.7026 1.60349 -23.6355 1.67027C-23.8254 1.63968 -23.9929 1.70087 -24.1715 1.68978C-24.233 1.8261 -24.3056 2.12674 -24.3112 2.30483C-23.8366 2.78072 -23.1386 2.37435 -22.625 2.80014C-22.9321 2.81965 -23.2447 2.97272 -23.5351 3.01724C-22.9488 3.5404 -22.1672 3.738 -21.4748 3.46812ZM-22.5077 4.14436C-22.5635 4.23615 -22.625 4.32803 -22.6864 4.42266C-22.3402 4.52562 -22.0945 4.50336 -21.7931 4.36146C-21.9774 4.01355 -22.1616 4.07758 -22.5077 4.14436ZM-22.1894 6.53765C-21.7986 6.45703 -17.4103 6.81603 -18.058 5.80856C-18.4431 5.20194 -20.1739 5.85317 -20.7043 5.83915C-21.8154 5.81414 -21.9661 4.66761 -22.9599 4.95699C-22.5915 5.5887 -22.9767 6.26494 -22.1894 6.53765ZM-24.9476 6.61835H-24.6685C-24.7913 6.32072 -24.7913 6.55716 -24.9476 6.61835ZM-24.3334 6.12304C-24.1268 6.30396 -23.0492 6.80211 -23.161 6.10353C-23.2503 5.5331 -24.1493 5.80581 -24.3334 6.12304ZM-23.3564 5.27147C-22.9154 4.81226 -23.563 4.48669 -24.032 4.55905C-24.9978 4.71204 -23.8031 5.27706 -23.3564 5.27147ZM-24.1715 4.32244C-23.8142 4.31685 -23.4681 4.27233 -23.1219 4.18613V3.98854C-23.563 3.92725 -24.0376 3.89116 -24.1715 4.32244ZM-24.0934 3.82713C-23.0996 3.58501 -24.7577 3.13688 -25.0648 3.23426C-24.9309 3.70465 -24.607 3.99129 -24.0934 3.82713ZM-25.2044 2.34651C-25.3496 2.07105 -25.4501 1.92072 -25.8186 1.98751V2.22412C-25.5506 2.33826 -25.4501 2.39103 -25.2044 2.34651ZM-25.4612 4.04414C-25.171 3.05343 -27.1306 2.58037 -27.8677 2.85583C-27.5829 2.97272 -27.4377 3.19541 -27.2311 3.37349H-27.5661C-27.2758 3.77418 -26.0252 3.82988 -25.4612 4.04414ZM-26.215 4.08591C-26.4662 3.98854 -26.5444 3.8438 -26.8514 3.92725C-26.7343 4.26683 -26.5388 4.15544 -26.215 4.08591ZM-26.3993 5.80856C-25.9916 5.60821 -25.746 5.76404 -25.6623 6.22326C-25.1318 6.201 -24.7355 6.01724 -24.7969 5.45239C-24.8694 4.83177 -25.4948 5.09339 -26.0587 4.87629C-25.8633 5.01268 -25.6511 5.21862 -25.5394 5.43013C-25.5618 5.39395 -26.3323 5.09614 -26.4774 5.07672C-26.4383 5.24363 -26.4327 5.39945 -26.3769 5.56919C-26.7454 5.28814 -26.9073 4.82902 -27.4266 4.77607C-27.488 5.37444 -26.9409 5.675 -26.3993 5.80856ZM-27.5493 5.96722C-27.5047 5.99782 -27.1139 6.44586 -27.1139 5.98398C-27.1139 5.72235 -27.4936 5.96722 -27.5493 5.96722ZM-27.4098 4.4811C-27.5549 4.24732 -27.728 4.07758 -27.9849 3.96902C-27.9626 4.36421 -27.7671 4.5869 -27.4098 4.4811ZM-17.0641 11.5861C-16.7794 11.6695 -15.9921 11.5694 -16.2713 11.1213C-16.517 10.7234 -17.4047 11.0238 -17.0641 11.5861ZM-23.4792 8.23812C-23.3619 8.02661 -23.1666 8.10456 -23.1778 7.78449C-22.625 7.98208 -22.3961 7.49227 -22.1058 7.09433C-22.5133 6.94401 -23.3731 6.66021 -23.736 6.919C-24.0598 7.15278 -24.1995 8.4413 -23.4792 8.23812ZM-25.2267 8.85316C-24.3111 8.85316 -24.1268 8.02935 -25.0091 7.62867C-24.339 7.41431 -24.8639 7.00804 -25.2435 6.88557C-25.3105 6.86614 -25.8465 7.15552 -26.1592 7.09433C-25.6008 7.67594 -26.0308 8.04612 -26.6505 7.70662C-26.6225 8.10456 -25.5953 8.66115 -25.2267 8.85316ZM-27.4489 7.60641C-27.2814 7.06373 -27.9737 6.95518 -28.3031 7.2529C-27.9904 7.54513 -27.7727 7.74272 -27.4489 7.60641ZM-28.761 7.15278C-28.5097 7.43666 -28.7274 7.18612 -28.761 7.15278ZM-30.6872 3.55158H-29.2746C-29.5203 3.02558 -30.3019 3.17865 -30.6872 3.55158ZM-30.2852 4.42266C-29.8888 4.41991 -29.3862 4.37539 -29.7324 3.98854C-29.5649 3.91333 -29.5035 3.98295 -29.3918 3.79094C-29.8552 3.74642 -30.3131 3.76593 -30.7039 4.02472C-30.6257 4.29184 -30.4862 4.32803 -30.2852 4.42266ZM-30.9831 4.06649C-31.1058 3.81045 -31.1394 3.64062 -31.5191 3.7074C-31.4297 4.03306 -31.2622 4.00246 -30.9831 4.06649ZM-31.3795 5.05437C-31.9434 5.21862 -32.5072 5.79747 -32.1109 6.1147C-31.7591 6.39859 -30.4694 6.10636 -30.0283 6.14539C-30.1791 6.32072 -31.1058 6.15089 -31.0444 6.47087C-30.9607 6.84113 -30.2683 6.61011 -30.0394 6.56833C-29.5537 6.47929 -27.7336 6.24276 -27.8677 5.56919C-27.8174 5.82807 -29.0624 4.88462 -28.9563 4.91531C-29.537 4.74548 -29.7548 5.08222 -29.4533 5.60822C-29.3415 5.65274 -29.1629 5.58312 -29.1239 5.71952C-29.068 5.93387 -31.0836 5.15742 -31.3795 5.05437ZM-31.2622 4.67869C-31.1338 4.73439 -31.0947 4.94307 -30.782 4.87629C-30.7876 4.81225 -30.7987 4.74273 -30.8043 4.67869C-30.9551 4.71763 -31.1058 4.71763 -31.2622 4.67869ZM-32.8479 5.53035C-32.9148 5.60822 -32.9818 5.68892 -33.0488 5.76687C-32.6134 5.76129 -32.6971 5.8419 -32.4682 5.43013C-32.5966 5.46348 -32.7194 5.49692 -32.8479 5.53035ZM-32.2113 5.03211C-31.882 4.91806 -31.7089 4.65918 -31.6586 4.28351C-32.8591 3.99128 -33.2443 5.09064 -34.3386 5.21019C-33.8249 5.98948 -33.0543 5.28265 -32.591 4.85677C-32.4738 5.20194 -32.3397 4.95699 -32.2113 5.03211ZM-31.9378 10.1973C-31.078 10.1279 -31.0556 10.5759 -30.3857 10.754C-29.7212 10.9348 -29.2132 10.4673 -28.6213 10.356C-28.264 10.2919 -25.9079 10.676 -26.7343 10.022C-26.4049 10.0276 -26.2987 9.8523 -26.0978 9.76317C-26.8292 9.26227 -27.1306 9.26511 -27.4992 8.56936C-27.6387 8.2994 -28.2584 6.98853 -28.761 7.612C-28.9899 7.90413 -28.1468 8.58604 -28.7777 8.53868C-29.0959 8.51083 -29.0736 7.66201 -29.671 7.62867C-29.5984 7.75105 -29.5426 7.89579 -29.4756 8.02386C-29.7212 8.12398 -29.8441 8.163 -30.1065 8.22145C-30.0451 8.11006 -30.0171 7.94865 -29.9725 7.82901C-30.4136 7.66202 -30.8323 7.74556 -31.0836 7.90413C-30.8881 7.16395 -31.5916 7.51736 -31.9545 7.67594C-32.6078 7.96541 -32.6301 8.11006 -32.926 8.61664C-32.4905 8.78629 -32.0215 8.50808 -31.6196 8.81423C-31.9434 8.84766 -32.2505 8.96446 -32.4905 9.15372C-32.0494 9.39025 -30.6201 9.03124 -30.3857 9.42927C-30.3019 9.57675 -31.9545 9.65187 -32.2113 9.80219C-32.122 9.93576 -32.0271 10.0666 -31.9378 10.1973ZM-28.6213 10.9711C-28.264 10.8764 -28.0407 10.8012 -27.9626 10.4979C-28.331 10.5647 -28.6995 10.6983 -29.0178 10.893C-28.8837 10.9181 -28.7498 10.946 -28.6213 10.9711ZM-34.1599 8.83374C-33.4565 8.93945 -33.1717 8.00434 -32.5631 7.6927C-31.5749 7.18612 -31.3347 7.03589 -32.6022 6.7771C-32.926 6.71032 -34.5619 6.32622 -34.9025 6.61011C-35.0922 6.76868 -35.1481 7.93481 -35.5669 8.39953C-35.1091 8.42738 -34.6791 8.67508 -34.4949 9.11195C-34.3832 9.02016 -34.2716 8.92553 -34.1599 8.83374ZM-50.6974 15.9999C-51.1105 15.4599 -51.5348 16.0721 -50.6974 15.9999ZM-44.0254 15.5657C-43.9305 14.9368 -43.0875 15.7105 -42.652 15.8385C-42.0881 16.0055 -41.5521 15.883 -41.0049 16.0611C-40.0389 16.3728 -39.3746 17.2522 -38.4031 17.4192C-38.3138 17.6195 -38.2412 17.82 -38.0904 17.9758C-38.0402 18.0314 -37.6215 18.2207 -37.5712 18.3097C-37.2362 18.8107 -37.0409 19.3005 -36.7505 19.6901C-36.2369 20.3803 -36.0415 20.4415 -35.31 20.8757C-34.7852 21.1874 -34.1599 21.7161 -34.2381 22.4508C-34.8299 21.7272 -35.4496 20.7309 -36.4602 20.8478C-35.9856 21.4155 -35.2821 21.6159 -34.9806 22.3283C-34.6736 23.0631 -35.0699 23.7755 -35.0699 24.3877C-35.0811 25.5288 -34.5005 27.1208 -33.7189 27.9723C-33.2666 28.4676 -32.5687 28.4898 -32.1556 29.1299C-31.8205 29.6366 -31.5358 30.2823 -31.2231 30.8055C-31.117 30.9725 -31.3515 31.0558 -31.1114 31.4063C-30.9662 31.6177 -30.5643 31.807 -30.3689 32.0076C-30.2349 32.141 -29.5816 32.9093 -29.5314 33.1988C-28.9173 32.5753 -31.3125 30.3935 -31.3795 29.4975C-30.7095 29.4137 -29.9445 30.9389 -29.4533 31.4678C-28.8224 32.141 -28.2528 33.054 -27.6052 33.7887C-28.5431 34.423 -24.8192 35.8034 -24.2106 35.8924C-24.0264 35.9203 -23.8198 35.6923 -23.4792 35.7926C-23.0884 35.9038 -22.9154 36.3159 -22.6027 36.4994C-22.29 36.6943 -21.2682 36.8613 -21.2347 36.8169C-20.6932 37.1953 -20.4196 37.9351 -20.1349 38.2081C-19.7217 38.5866 -18.7837 38.8761 -18.1975 39.132C-18.3594 38.13 -17.2596 39.0431 -17.2149 38.7091C-17.1255 38.0525 -18.5939 38.464 -19.0015 38.1967C-19.9841 37.5401 -18.9345 36.8054 -19.437 36.0765C-19.8668 35.4586 -20.9611 35.9482 -21.4915 35.7146C-21.0226 35.2027 -20.3247 33.5772 -21.3352 33.6382C-22.2509 33.6998 -21.8042 34.3342 -22.3682 34.7793C-22.8873 35.1913 -23.7249 34.924 -24.1324 34.5735C-25.0258 33.7887 -24.9922 31.6292 -24.4562 30.8386C-23.7193 29.7591 -22.5468 30.8055 -21.7317 30.549C-21.9271 29.8702 -21.1566 29.9705 -20.6765 30.0036C-20.7211 29.9985 -19.5822 30.2157 -19.7273 30.1153C-19.37 30.3656 -18.7893 32.2304 -18.4153 32.1968C-17.9631 32.1581 -18.7614 29.681 -18.1528 28.9851C-17.762 28.5343 -16.9414 28.4231 -16.7068 27.8885C-16.5058 27.4325 -16.7961 27.2097 -16.9245 26.642C-16.5895 26.7309 -16.7626 26.4583 -16.4109 26.8199C-16.2824 26.5418 -16.0033 25.8016 -15.8023 25.6067C-15.5511 25.384 -14.9034 25.3395 -14.4847 25.2226C-15.0933 24.0761 -12.7818 23.2523 -11.922 23.4527C-12.0392 23.4305 -12.7539 23.7088 -12.8544 23.9091C-13.1559 24.5214 -12.3184 23.9981 -12.2905 23.9925C-11.5759 23.9091 -10.7718 23.3636 -10.5541 22.7291C-11.1236 22.9963 -11.2855 23.4527 -11.9834 23.0853C-12.9103 22.5844 -12.0169 22.1391 -12.2291 21.8051C-12.8153 20.9035 -14.2892 22.5399 -14.9034 22.9295C-14.7415 22.629 -14.5293 22.3674 -14.2669 22.1503C-14.4177 22.1168 -14.574 22.0723 -14.7247 22.0334C-13.9487 22.206 -13.502 21.2374 -12.8377 21.0482C-12.3965 20.9202 -11.7824 21.0816 -11.3357 21.0482C-10.6378 20.9814 -10.7104 20.9035 -10.1187 20.6475C-9.57706 20.4248 -8.71727 20.3413 -8.97401 19.6511C-9.23645 18.9443 -10.1577 19.4452 -10.7104 19.5008C-10.448 19.0556 -9.91199 19.1502 -9.50436 18.8107C-10.2023 18.6994 -10.8333 18.4322 -11.2296 17.82C-10.7998 17.5584 -12.0224 16.2447 -12.2402 15.7606C-12.592 16.1502 -12.5919 16.7791 -13.1559 16.9071C-13.7031 17.024 -13.6304 16.4563 -14.2446 16.6177C-13.8593 15.293 -14.9314 14.8366 -15.9643 14.575C-17.1367 14.2689 -17.9183 14.8644 -17.0864 16.0777H-17.3656C-17.4549 16.2838 -17.3935 16.4117 -17.522 16.6344C-16.4221 17.0908 -16.6733 18.755 -17.9407 18.7106C-17.5777 19.1001 -17.254 20.5528 -18.058 20.6252C-18.8396 20.6808 -19.0238 19.1669 -18.9512 18.5936C-19.8557 18.4434 -20.4028 18.3097 -21.1845 17.909C-21.5307 17.7364 -21.9383 17.6085 -22.2453 17.486C-22.5189 17.3691 -22.5859 17.6195 -22.8204 17.4748C-22.9991 17.3691 -23.027 16.9739 -23.1443 16.8293C-23.5463 16.3338 -23.7527 16.6177 -23.6746 15.8106C-23.6467 15.4766 -23.3117 14.9479 -23.0717 14.703C-22.8148 14.447 -22.2119 14.3746 -22.2732 14.0017C-22.318 13.7567 -23.3006 13.6177 -23.4959 13.5453C-22.9823 13.5953 -22.0275 14.074 -21.888 13.4284C-21.2851 13.7902 -21.0003 13.3783 -20.8384 12.8718C-21.3855 12.908 -21.7986 12.6408 -22.2676 12.4182C-21.9104 12.432 -19.8557 12.9303 -20.6988 12.0398C-19.7832 11.9701 -20.4084 13.4284 -20.8161 13.5842C-20.4811 13.9405 -20.3527 14.0295 -19.8446 14.0239C-19.8724 14.0239 -19.3756 13.7902 -19.2304 13.7623C-19.0518 13.7345 -18.8563 13.9461 -18.7111 13.9237C-17.5722 13.729 -19.8111 12.9442 -20.0009 12.5351C-19.4872 12.5156 -19.7999 12.5239 -19.5878 12.2595C-18.8061 12.2012 -18.4488 11.5415 -18.9735 10.893C-17.9072 10.7122 -19.2248 10.0192 -19.6045 9.84388C-18.9513 9.74366 -18.2534 10.0526 -17.561 9.80219C-17.6671 9.70482 -17.7731 9.60735 -17.8793 9.50439C-17.1534 9.7159 -16.651 10.1556 -16.0145 10.6315C-15.7464 10.8291 -15.2496 11.1324 -15.2329 11.5332C-15.2104 12.073 -16.2322 12.0508 -15.7743 12.7327C-16.154 12.8189 -17.5052 12.5211 -17.4438 13.189C-17.3823 13.8403 -16.3941 13.1278 -16.1429 13.1557C-15.3445 13.2558 -15.2831 13.8068 -14.775 14.2244C-14.2725 14.625 -13.4741 14.5694 -12.8767 14.8923C-12.8544 14.3913 -13.6249 14.1408 -13.9096 13.7011C-13.3848 13.9572 -12.86 14.2188 -12.363 14.5137C-12.2961 14.3913 -12.1899 13.9905 -12.1454 13.8403C-12.631 13.3783 -13.1949 12.9608 -13.6695 12.3375C-13.3066 11.8087 -13.167 12.1761 -12.7428 12.3987C-12.0616 12.7577 -12.3575 12.9608 -11.8159 12.8134C-11.855 12.8217 -11.1459 12.2539 -11.1515 12.2595C-10.9226 11.8337 -10.8836 12.1511 -11.1907 11.7642C-11.4977 11.3718 -14.5294 10.5341 -13.0163 10.2196C-13.167 10.1779 -13.3178 10.1389 -13.4741 10.0999C-13.3457 10.0053 -13.3736 9.9942 -13.1949 9.92183C-13.4294 9.8272 -13.5188 9.64628 -13.8091 9.58784C-13.7645 9.51272 -13.7198 9.44319 -13.6695 9.36807C-14.2279 9.25118 -14.4902 9.12587 -14.9984 8.99231C-14.909 8.93387 -14.8141 8.87258 -14.7247 8.81423C-15.7297 8.78913 -15.7912 8.22145 -16.4891 8.0016C-17.025 7.8346 -18.058 8.43288 -18.2869 8.31049C-18.6385 8.12682 -18.1975 7.93756 -18.4264 7.60916C-18.8173 7.04422 -18.7614 7.11659 -19.3978 7.23339C-20.3582 7.41156 -20.308 8.17968 -19.8222 8.81423C-20.8272 8.94504 -20.6876 7.44775 -19.9674 7.09433C-20.7323 7.06373 -21.447 7.14719 -21.754 7.95982C-22.1672 9.07027 -21.3408 8.56653 -20.9388 9.15372C-21.2292 9.08135 -21.4022 9.20108 -21.6703 9.1899C-21.4246 9.54057 -20.3192 9.65746 -19.8446 9.80219C-20.1349 9.91899 -20.2857 11.8643 -21.0561 11.4664C-21.4022 11.2883 -21.045 10.7456 -21.0561 10.7345C-21.3632 10.3921 -21.6423 10.5257 -21.7485 10.4673C-21.8768 10.395 -22.4631 10.2057 -22.692 9.86339C-23.0103 9.39583 -23.094 8.10456 -24.0654 8.78079C-24.9811 9.41534 -23.0828 10.5591 -24.1548 10.3365C-23.9929 10.7817 -23.6578 10.7596 -23.2782 10.4172C-23.2894 11.0963 -24.1827 10.8653 -23.9147 11.6445C-24.3613 11.3412 -24.2553 11.4664 -24.233 11.01C-24.6517 10.8959 -24.3112 10.9905 -24.5288 10.6733H-24.272C-24.2497 10.2307 -24.5456 9.96085 -24.9866 9.8829C-25.0984 9.9942 -25.3608 10.278 -25.4612 10.395C-25.2547 10.4757 -25.0928 10.6899 -24.8861 10.7734C-25.3608 11.6278 -26.2819 11.241 -27.0692 11.06C-27.5829 10.9431 -27.6444 10.7429 -28.1412 10.9487C-28.8726 11.2577 -28.532 11.305 -28.6381 12.0398C-28.9619 10.8875 -30.4917 11.2744 -31.4185 11.1881C-31.3403 11.1436 -31.2511 10.946 -30.9831 10.8541C-31.4409 10.484 -32.9818 10.0471 -33.5234 9.94134C-34.1989 9.81328 -34.8578 10.5063 -35.1091 9.68806C-35.3044 10.3476 -35.444 9.93017 -35.7567 9.9135C-35.8571 9.90791 -35.9689 9.46545 -36.2034 9.4376C-36.516 9.40133 -36.3205 9.6352 -36.4937 9.66854C-36.8398 9.7465 -37.7946 10.2613 -38.2077 10.4979C-37.8448 10.022 -37.253 10.0888 -36.9013 9.66579C-37.5713 9.66854 -38.3641 10.0331 -39.0341 10.1723C-40.1619 10.4061 -40.6141 9.94134 -41.7642 9.81328C-42.6296 9.71865 -43.4224 9.54057 -44.3214 9.4682C-45.2705 9.39024 -45.7618 9.05351 -46.7445 9.17048C-46.7109 9.09811 -46.6775 9.02575 -46.644 8.95338C-47.2469 8.84208 -48.0621 9.22609 -48.5981 9.3875C-49.335 9.60735 -49.3853 10.0526 -49.8989 10.3671C-50.6304 10.8096 -51.1497 10.3393 -50.5634 11.1101C-50.1949 11.5972 -49.3965 11.664 -49.1285 12.2958C-49.5472 12.4348 -49.9995 12.4126 -50.0218 11.9423C-50.4963 12.279 -51.0323 12.1593 -51.4287 12.6324C-50.9151 12.8412 -50.9207 13.2614 -50.4796 13.3727C-49.9715 13.5008 -49.3016 13.1557 -48.827 13.1111C-48.76 14.5583 -50.446 13.5341 -50.6918 14.8143C-50.7532 15.1594 -49.9548 16.6065 -49.4411 15.7606C-49.162 16.0277 -49.0838 16.3394 -49.2066 16.7067C-48.7041 16.6065 -48.1403 16.7791 -47.8946 16.473C-47.7383 16.473 -47.5317 16.5175 -47.3195 16.5119C-47.6936 18.1706 -49.5863 17.8978 -50.474 18.9109C-49.1899 19.2226 -47.0571 17.269 -45.9516 16.6511C-46.0521 16.5064 -46.147 16.3617 -46.2475 16.217C-45.572 15.9943 -45.3207 14.8755 -44.539 15.382C-45.0918 15.4489 -45.3989 15.7717 -45.2369 16.2949C-44.835 16.0556 -44.3827 15.8495 -43.9082 15.8162C-43.9473 15.7382 -43.9863 15.6492 -44.0254 15.5657ZM-45.6502 17.1854V16.8293C-46.0521 17.1186 -46.6383 17.1965 -46.3089 17.7198C-46.0466 17.6085 -45.8065 17.4248 -45.6502 17.1854Z" fill="#1CB45F"/>
</g>
</svg>
