<svg width="104" height="104" viewBox="0 0 104 104" fill="none" xmlns="http://www.w3.org/2000/svg">
<rect width="104" height="104" rx="52" fill="white"/>
<circle cx="52" cy="52" r="39" fill="#47B147"/>
<path d="M39.1667 29.5C38.207 29.5 37.2259 29.8328 36.5312 30.5195C35.8366 31.2063 35.5 32.1763 35.5 33.125V69.375C35.5 70.3237 35.8366 71.2937 36.5312 71.9805C37.2259 72.6672 38.207 73 39.1667 73H64.8333C65.793 73 66.7741 72.6672 67.4688 71.9805C68.1634 71.2937 68.5 70.3237 68.5 69.375V42.9238C68.5 41.9751 67.9915 40.9485 67.4115 40.375L57.5 30.5762C56.9199 30.0027 55.8815 29.5 54.9219 29.5H39.1667ZM39.1667 33.125H54.9219L64.8333 42.9238V69.375H39.1667V33.125ZM42.8333 49.4375V65.75H61.1667V49.4375H42.8333ZM46.5 53.0625H57.5V62.125H46.5V53.0625Z" fill="white"/>
</svg>
