<svg width="40" height="40" viewBox="0 0 40 40" fill="none" xmlns="http://www.w3.org/2000/svg">
<g clip-path="url(#clip0_11314_2302)">
<path d="M20 40C31.0457 40 40 31.0457 40 20C40 8.9543 31.0457 0 20 0C8.9543 0 0 8.9543 0 20C0 31.0457 8.9543 40 20 40Z" fill="#F0F0F0"/>
<path d="M38.756 13.0435H1.24398C0.44 15.2102 0 17.5536 0 20C0 22.4464 0.44 24.7898 1.24398 26.9565H38.7561C39.56 24.7898 40 22.4464 40 20C40 17.5536 39.56 15.2102 38.756 13.0435Z" fill="#0052B4"/>
<path d="M20 0C13.9382 0 8.50672 2.69719 4.83899 6.95648H35.1609C31.4933 2.69719 26.0618 0 20 0V0Z" fill="#D80027"/>
<path d="M35.161 33.0435H4.83899C8.50672 37.3028 13.9382 40 20 40C26.0618 40 31.4933 37.3028 35.161 33.0435Z" fill="#D80027"/>
</g>
<defs>
<clipPath id="clip0_11314_2302">
<rect width="40" height="40" fill="white"/>
</clipPath>
</defs>
</svg>
