<svg width="40" height="40" viewBox="0 0 40 40" fill="none" xmlns="http://www.w3.org/2000/svg">
<g clip-path="url(#clip0_13131_2029)">
<path d="M20 40C31.0457 40 40 31.0457 40 20C40 8.9543 31.0457 0 20 0C8.9543 0 0 8.9543 0 20C0 31.0457 8.9543 40 20 40Z" fill="#F0F0F0"/>
<path d="M11.3044 26.9565L13.0435 38.7562C15.2101 39.5602 17.5536 40 20 40C28.5992 40 35.9302 34.5725 38.7559 26.9565H11.3044Z" fill="black"/>
<path d="M11.3044 13.0435L13.0435 1.24383C15.2101 0.439844 17.5536 0 20 0C28.5992 0 35.9302 5.4275 38.7559 13.0435H11.3044Z" fill="#6DA544"/>
<path d="M0 20C0 28.5993 5.42758 35.9301 13.0435 38.756V1.24396C5.42758 4.06982 0 11.4007 0 20Z" fill="#A2001D"/>
</g>
<defs>
<clipPath id="clip0_13131_2029">
<rect width="40" height="40" fill="white"/>
</clipPath>
</defs>
</svg>
