<svg width="25" height="28" viewBox="0 0 25 28" fill="none" xmlns="http://www.w3.org/2000/svg">
<path d="M12.5 0C7.68066 0 3.75 3.93066 3.75 8.75C3.75 11.7627 5.28809 14.4385 7.61719 16.0156C3.15918 17.9297 0 22.3535 0 27.5H2.5C2.5 21.9629 6.96289 17.5 12.5 17.5C18.0371 17.5 22.5 21.9629 22.5 27.5H25C25 22.3535 21.8408 17.9297 17.3828 16.0156C19.7119 14.4385 21.25 11.7627 21.25 8.75C21.25 3.93066 17.3193 0 12.5 0ZM12.5 2.5C15.9668 2.5 18.75 5.2832 18.75 8.75C18.75 12.2168 15.9668 15 12.5 15C9.0332 15 6.25 12.2168 6.25 8.75C6.25 5.2832 9.0332 2.5 12.5 2.5Z" fill="#383838"/>
</svg>
